<svg xmlns="http://www.w3.org/2000/svg" xmlns:xlink="http://www.w3.org/1999/xlink" width="106.16" height="106.16" viewBox="0 0 106.16 106.16">
  <defs>
    <filter id="Trazado_982547" x="0" y="0" width="106.16" height="106.16" filterUnits="userSpaceOnUse">
      <feOffset dy="3" input="SourceAlpha"/>
      <feGaussianBlur stdDeviation="3" result="blur"/>
      <feFlood flood-opacity="0.161"/>
      <feComposite operator="in" in2="blur"/>
      <feComposite in="SourceGraphic"/>
    </filter>
  </defs>
  <g id="Grupo_1227589" data-name="Grupo 1227589" transform="translate(-609.92 -1231)">
    <g id="Grupo_1226889" data-name="Grupo 1226889" transform="translate(0 311)">
      <g id="Grupo_1224991" data-name="Grupo 1224991" transform="translate(-1 -803.069)">
        <g id="Grupo_1206131" data-name="Grupo 1206131" transform="translate(0 -58.931)">
          <g id="Grupo_1203663" data-name="Grupo 1203663" transform="translate(0 -4797.878)">
            <g id="Grupo_1203345" data-name="Grupo 1203345" transform="translate(338.92 5174.875)">
              <g id="Grupo_1177900" data-name="Grupo 1177900" transform="translate(281 1411.003)">
                <g id="Grupo_1172010" data-name="Grupo 1172010" transform="translate(0)">
                  <g id="Grupo_1171046" data-name="Grupo 1171046">
                    <g id="Grupo_1148525" data-name="Grupo 1148525">
                      <g transform="matrix(1, 0, 0, 1, -9, -6)" filter="url(#Trazado_982547)">
                        <g id="Trazado_982547-2" data-name="Trazado 982547" transform="translate(9 6)" fill="#e9f9fd">
                          <path d="M 44.0802001953125 86.660400390625 C 38.33124923706055 86.660400390625 32.75506210327148 85.53479766845703 27.50652503967285 83.31484985351562 C 22.43628692626953 81.17032623291016 17.88242530822754 78.09992218017578 13.97144985198975 74.18894958496094 C 10.06047534942627 70.27797698974609 6.99007511138916 65.72411346435547 4.845550060272217 60.65387344360352 C 2.625600099563599 55.40533828735352 1.500000238418579 49.82915115356445 1.500000238418579 44.0802001953125 C 1.500000238418579 38.33124923706055 2.625600099563599 32.75506210327148 4.845550060272217 27.50652503967285 C 6.99007511138916 22.43628692626953 10.06047534942627 17.88242530822754 13.97144985198975 13.97144985198975 C 17.88242530822754 10.06047534942627 22.43628692626953 6.99007511138916 27.50652503967285 4.845550060272217 C 32.75506210327148 2.625600099563599 38.33124923706055 1.500000238418579 44.0802001953125 1.500000238418579 C 49.82915115356445 1.500000238418579 55.40533828735352 2.625600099563599 60.65387344360352 4.845550060272217 C 65.72411346435547 6.99007511138916 70.27797698974609 10.06047534942627 74.18894958496094 13.97144985198975 C 78.09992218017578 17.88242530822754 81.17032623291016 22.43628692626953 83.31484985351562 27.50652503967285 C 85.53479766845703 32.75506210327148 86.660400390625 38.33124923706055 86.660400390625 44.0802001953125 C 86.660400390625 49.82915115356445 85.53479766845703 55.40533828735352 83.31484985351562 60.65387344360352 C 81.17032623291016 65.72411346435547 78.09992218017578 70.27797698974609 74.18894958496094 74.18894958496094 C 70.27797698974609 78.09992218017578 65.72411346435547 81.17032623291016 60.65387344360352 83.31484985351562 C 55.40533828735352 85.53479766845703 49.82915115356445 86.660400390625 44.0802001953125 86.660400390625 Z" stroke="none"/>
                          <path d="M 44.0802001953125 3 C 38.53308486938477 3 33.15349960327148 4.085746765136719 28.09085845947266 6.227058410644531 C 23.19941711425781 8.29595947265625 18.80581665039062 11.25841522216797 15.03211212158203 15.03211212158203 C 11.25841522216797 18.80581665039062 8.29595947265625 23.19941711425781 6.227058410644531 28.09085845947266 C 4.085746765136719 33.15349960327148 3 38.53308486938477 3 44.0802001953125 C 3 49.62731552124023 4.085746765136719 55.00691604614258 6.227058410644531 60.06954193115234 C 8.29595947265625 64.96098327636719 11.25841522216797 69.35458374023438 15.03211212158203 73.12828826904297 C 18.80581665039062 76.90198516845703 23.19941711425781 79.86444091796875 28.09085845947266 81.93334197998047 C 33.15349960327148 84.07466125488281 38.53308486938477 85.160400390625 44.0802001953125 85.160400390625 C 49.62731552124023 85.160400390625 55.00691604614258 84.07466125488281 60.06954193115234 81.93334197998047 C 64.96099853515625 79.86444091796875 69.35458374023438 76.90198516845703 73.12828826904297 73.12828826904297 C 76.90198516845703 69.35458374023438 79.86444091796875 64.96099853515625 81.93334197998047 60.06954193115234 C 84.07466125488281 55.00691604614258 85.160400390625 49.62731552124023 85.160400390625 44.0802001953125 C 85.160400390625 38.53308486938477 84.07466125488281 33.15349960327148 81.93334197998047 28.09085845947266 C 79.86444091796875 23.19941711425781 76.90198516845703 18.80581665039062 73.12828826904297 15.03211212158203 C 69.35458374023438 11.25841522216797 64.96098327636719 8.29595947265625 60.06954193115234 6.227058410644531 C 55.00691604614258 4.085746765136719 49.62731552124023 3 44.0802001953125 3 M 44.0802001953125 0 C 68.42502593994141 0 88.160400390625 19.73538970947266 88.160400390625 44.0802001953125 C 88.160400390625 68.42502593994141 68.42502593994141 88.160400390625 44.0802001953125 88.160400390625 C 19.73538970947266 88.160400390625 0 68.42502593994141 0 44.0802001953125 C 0 19.73538970947266 19.73538970947266 0 44.0802001953125 0 Z" stroke="none" fill="#1d7083"/>
                        </g>
                      </g>
                    </g>
                  </g>
                </g>
              </g>
            </g>
          </g>
        </g>
      </g>
    </g>
    <g id="economico_3_" data-name="economico (3)" transform="translate(619.888 1237.253)">
      <path id="Trazado_1182750" data-name="Trazado 1182750" d="M89.571,44.771a20.786,20.786,0,1,1-41.571,0q0-.913.078-1.807a20.786,20.786,0,0,1,41.493,1.807Z" transform="translate(-28.385 -7.082)" fill="#9ce6ed"/>
      <path id="Trazado_1182751" data-name="Trazado 1182751" d="M245.689,85.855a20.771,20.771,0,0,1-9.875,17.695l-4.584-5.043v-7.23h-3.615L224,85.855l3.615-2.711h4.519l2.711-3.615-1.807-4.519,5.654-4.711a20.737,20.737,0,0,1,7,15.555Z" transform="translate(-184.503 -48.166)" fill="#02c26a"/>
      <rect id="Rectángulo_422673" data-name="Rectángulo 422673" width="7.541" height="9.049" transform="translate(47.671 59.736)" fill="#4367e0"/>
      <rect id="Rectángulo_422674" data-name="Rectángulo 422674" width="6.787" height="16.589" transform="translate(55.211 52.195)" fill="#4976f2"/>
      <rect id="Rectángulo_422675" data-name="Rectángulo 422675" width="7.541" height="25.638" transform="translate(61.998 43.146)" fill="#548aff"/>
      <path id="Trazado_1182752" data-name="Trazado 1182752" d="M115.161,25.69l-6.435,6.435v5.422L103.3,41.162l-3.615-3.615H95.171V33.932L90.99,31.423a20.8,20.8,0,0,1,24.171-5.733Z" transform="translate(-66.519 -7.088)" fill="#02c26a"/>
      <path id="Trazado_1182753" data-name="Trazado 1182753" d="M66.074,200.134l-3.615,2.711v10.768A20.794,20.794,0,0,1,48,193.807q0-.913.078-1.807h5.344l2.711,3.615h7.23Z" transform="translate(-28.385 -156.118)" fill="#02c26a"/>
      <path id="Trazado_1182754" data-name="Trazado 1182754" d="M33.037,257.807c0-1-2.023-1.807-4.519-1.807S24,256.809,24,257.807V280.4c0,1,2.023,1.807,4.519,1.807s4.519-.809,4.519-1.807Z" transform="translate(-7.096 -212.888)" fill="#ffc431"/>
      <ellipse id="Elipse_12694" data-name="Elipse 12694" cx="4.524" cy="1.885" rx="4.524" ry="1.885" transform="translate(16.754 43.146)" fill="#ffd873"/>
      <path id="Trazado_1182755" data-name="Trazado 1182755" d="M113.037,337.807c0-1-2.023-1.807-4.519-1.807s-4.519.809-4.519,1.807v13.556c0,1,2.023,1.807,4.519,1.807s4.519-.809,4.519-1.807Z" transform="translate(-78.059 -283.851)" fill="#ffc431"/>
      <ellipse id="Elipse_12695" data-name="Elipse 12695" cx="4.524" cy="1.885" rx="4.524" ry="1.885" transform="translate(25.803 52.195)" fill="#ffd873"/>
      <path id="Trazado_1182756" data-name="Trazado 1182756" d="M193.037,377.807c0-1-2.023-1.807-4.519-1.807s-4.519.809-4.519,1.807v9.037c0,1,2.023,1.807,4.519,1.807s4.519-.809,4.519-1.807Z" transform="translate(-149.022 -319.333)" fill="#ffc431"/>
      <ellipse id="Elipse_12696" data-name="Elipse 12696" cx="4.524" cy="1.885" rx="4.524" ry="1.885" transform="translate(34.852 56.719)" fill="#ffd873"/>
      <path id="Trazado_1182757" data-name="Trazado 1182757" d="M69.32,248H62.09a.9.9,0,0,0-.9.9v8.133H54.86a.9.9,0,0,0-.9.9v6.326H47.63a.9.9,0,0,0-.9.9V273.3H44.919v-9.037c0-.508-.246-1.459-1.892-2.117a10.79,10.79,0,0,0-7.062,0l-.084.035v-2.437c0-.508-.246-1.459-1.892-2.117a9.806,9.806,0,0,0-3.531-.594,9.806,9.806,0,0,0-3.531.594l-.084.035v-6.955c0-.508-.246-1.459-1.892-2.117A9.806,9.806,0,0,0,21.422,248a9.807,9.807,0,0,0-3.531.594C16.246,249.252,16,250.2,16,250.711V273.3c0,.508.246,1.459,1.892,2.117a9.806,9.806,0,0,0,3.531.594,9.806,9.806,0,0,0,3.531-.594,4.353,4.353,0,0,0,.988-.536,4.353,4.353,0,0,0,.988.536,9.806,9.806,0,0,0,3.531.594,9.806,9.806,0,0,0,3.531-.594,4.353,4.353,0,0,0,.988-.536,4.353,4.353,0,0,0,.988.536,10.79,10.79,0,0,0,7.062,0,4.916,4.916,0,0,0,.643-.31H69.32a.9.9,0,0,0,.9-.9V248.9A.9.9,0,0,0,69.32,248ZM17.807,266.349l.084.035a9.805,9.805,0,0,0,3.531.594,9.806,9.806,0,0,0,3.531-.594l.084-.035v2.4c-.157.28-1.407.938-3.615.938s-3.458-.658-3.615-.938Zm0-4.519.084.035a9.806,9.806,0,0,0,3.531.594,9.806,9.806,0,0,0,3.531-.594l.084-.035v2.4c-.157.28-1.407.938-3.615.938s-3.458-.658-3.615-.938Zm0-4.519.084.035a9.805,9.805,0,0,0,3.531.594,9.807,9.807,0,0,0,3.531-.594l.084-.035v2.4c-.157.28-1.407.938-3.615.938s-3.458-.658-3.615-.938Zm0-4.519.084.035a9.805,9.805,0,0,0,3.531.594,9.807,9.807,0,0,0,3.531-.594l.084-.035v2.4c-.157.28-1.407.938-3.615.938s-3.458-.658-3.615-.938ZM30.46,265.171c-2.207,0-3.458-.658-3.615-.938v-2.4l.084.035a9.806,9.806,0,0,0,3.531.594,9.806,9.806,0,0,0,3.531-.594l.084-.035v2.4C33.917,264.513,32.667,265.171,30.46,265.171Zm-3.615,1.178.084.035a9.806,9.806,0,0,0,3.531.594,9.806,9.806,0,0,0,3.531-.594l.084-.035v2.4c-.157.28-1.407.938-3.615.938s-3.458-.658-3.615-.938Zm9.037,0,.084.035a10.79,10.79,0,0,0,7.062,0l.084-.035v2.4c-.157.28-1.407.938-3.615.938s-3.458-.658-3.615-.938Zm3.615-2.986c2.127,0,3.363.61,3.591.9-.235.3-1.472.9-3.591.9s-3.356-.606-3.591-.9C36.134,263.973,37.37,263.363,39.5,263.363Zm-9.037-4.519c2.127,0,3.363.61,3.591.9-.235.3-1.472.9-3.591.9s-3.359-.608-3.592-.9C27.1,259.453,28.338,258.845,30.46,258.845Zm-9.037-9.037c2.127,0,3.363.61,3.591.9-.235.3-1.472.9-3.591.9s-3.356-.606-3.591-.9C18.06,250.417,19.3,249.807,21.422,249.807Zm0,24.4c-2.2,0-3.454-.656-3.615-.937v-2.4l.084.035a9.805,9.805,0,0,0,3.531.594,9.807,9.807,0,0,0,3.531-.594l.084-.035v2.4C24.877,273.552,23.626,274.208,21.422,274.208Zm9.037,0c-2.207,0-3.458-.658-3.615-.938v-2.4l.084.035a9.805,9.805,0,0,0,3.531.594,9.806,9.806,0,0,0,3.531-.594l.084-.035v2.4C33.914,273.552,32.663,274.208,30.46,274.208Zm9.037,0c-2.2,0-3.454-.656-3.615-.937v-2.4l.084.035a10.789,10.789,0,0,0,7.062,0l.084-.035v2.4C42.951,273.552,41.7,274.208,39.5,274.208Zm9.037-8.134h5.422v7.23H48.534Zm7.23-7.23h5.422V273.3H55.764Zm7.23,14.46v-23.5h5.422v23.5Z" transform="translate(0 -205.792)"/>
      <rect id="Rectángulo_422676" data-name="Rectángulo 422676" width="2.262" height="1.508" transform="translate(39.376 52.195)"/>
      <path id="Trazado_1182758" data-name="Trazado 1182758" d="M256,179.882v1.807h4.519a.9.9,0,0,0,.639-.265L279.5,163.086v1.433H281.3V160.9a.9.9,0,0,0-.9-.9h-3.615v1.807h1.433l-18.074,18.074Z" transform="translate(-212.888 -127.733)"/>
      <path id="Trazado_1182759" data-name="Trazado 1182759" d="M76.389,21.741A21.69,21.69,0,0,0,40,37.689a21.968,21.968,0,0,0,.183,2.828l1.792-.233a20.156,20.156,0,0,1-.168-2.594c0-.3.008-.6.021-.9h4.045l2.44,3.253a.9.9,0,0,0,.723.362h6.718l2.029,3.381L54.821,46a.9.9,0,0,0-.362.723v2.711h1.807V47.178l3.253-2.44a.9.9,0,0,0,.233-1.188l-2.711-4.519a.9.9,0,0,0-.775-.439H49.489l-2.44-3.253a.9.9,0,0,0-.723-.362H41.993a19.787,19.787,0,0,1,3.985-9.458l3.06,1.836v3.1a.9.9,0,0,0,.9.9h4.144l3.35,3.35a.9.9,0,0,0,1.14.113L64,31.211a.9.9,0,0,0,.4-.752V25.411l5.728-5.728a19.836,19.836,0,0,1,3.939,2.447l-4.824,4.02a.9.9,0,0,0-.261,1.03L70.6,31.227l-2.135,2.847H64.4a.9.9,0,0,0-.542.181l-3.615,2.711a.9.9,0,0,0-.21,1.224l3.615,5.422a.9.9,0,0,0,.752.4h2.711v5.422h1.807V43.112a.9.9,0,0,0-.9-.9H64.884L62.012,37.9l2.69-2.017h4.217a.9.9,0,0,0,.723-.362l2.711-3.615a.9.9,0,0,0,.116-.878l-1.564-3.909,4.54-3.783A19.808,19.808,0,0,1,81.5,35.959l1.8-.155a21.618,21.618,0,0,0-6.909-14.063ZM62.858,24.4a.9.9,0,0,0-.265.639v4.939l-4.4,2.936L55.1,29.82a.9.9,0,0,0-.639-.265H50.845V26.845a.9.9,0,0,0-.439-.775l-3.239-1.944a19.873,19.873,0,0,1,21.149-5.185Z" transform="translate(-21.289 0)"/>
    </g>
  </g>
</svg>
