<svg xmlns="http://www.w3.org/2000/svg" xmlns:xlink="http://www.w3.org/1999/xlink" width="106.16" height="106.16" viewBox="0 0 106.16 106.16">
  <defs>
    <filter id="Trazado_982547" x="0" y="0" width="106.16" height="106.16" filterUnits="userSpaceOnUse">
      <feOffset dy="3" input="SourceAlpha"/>
      <feGaussianBlur stdDeviation="3" result="blur"/>
      <feFlood flood-opacity="0.161"/>
      <feComposite operator="in" in2="blur"/>
      <feComposite in="SourceGraphic"/>
    </filter>
  </defs>
  <g id="Grupo_1227601" data-name="Grupo 1227601" transform="translate(-189.92 -1389)">
    <g id="Grupo_1226891" data-name="Grupo 1226891" transform="translate(0 306.931)">
      <g id="Grupo_1224992" data-name="Grupo 1224992" transform="translate(-1 -799)">
        <g id="Grupo_1206129" data-name="Grupo 1206129" transform="translate(0 -58.931)">
          <g id="Grupo_1203795" data-name="Grupo 1203795" transform="translate(0 -4639.878)">
            <g id="Grupo_1203344" data-name="Grupo 1203344" transform="translate(-81.08 5174.875)">
              <g id="Grupo_1177900" data-name="Grupo 1177900" transform="translate(281 1411.003)">
                <g id="Grupo_1172010" data-name="Grupo 1172010" transform="translate(0)">
                  <g id="Grupo_1171046" data-name="Grupo 1171046">
                    <g id="Grupo_1148525" data-name="Grupo 1148525">
                      <g transform="matrix(1, 0, 0, 1, -9, -6)" filter="url(#Trazado_982547)">
                        <g id="Trazado_982547-2" data-name="Trazado 982547" transform="translate(9 6)" fill="#e9f9fd">
                          <path d="M 44.0802001953125 86.660400390625 C 38.33124923706055 86.660400390625 32.75506210327148 85.53479766845703 27.50652503967285 83.31484985351562 C 22.43628692626953 81.17032623291016 17.88242530822754 78.09992218017578 13.97144985198975 74.18894958496094 C 10.06047534942627 70.27797698974609 6.99007511138916 65.72411346435547 4.845550060272217 60.65387344360352 C 2.625600099563599 55.40533828735352 1.500000238418579 49.82915115356445 1.500000238418579 44.0802001953125 C 1.500000238418579 38.33124923706055 2.625600099563599 32.75506210327148 4.845550060272217 27.50652503967285 C 6.99007511138916 22.43628692626953 10.06047534942627 17.88242530822754 13.97144985198975 13.97144985198975 C 17.88242530822754 10.06047534942627 22.43628692626953 6.99007511138916 27.50652503967285 4.845550060272217 C 32.75506210327148 2.625600099563599 38.33124923706055 1.500000238418579 44.0802001953125 1.500000238418579 C 49.82915115356445 1.500000238418579 55.40533828735352 2.625600099563599 60.65387344360352 4.845550060272217 C 65.72411346435547 6.99007511138916 70.27797698974609 10.06047534942627 74.18894958496094 13.97144985198975 C 78.09992218017578 17.88242530822754 81.17032623291016 22.43628692626953 83.31484985351562 27.50652503967285 C 85.53479766845703 32.75506210327148 86.660400390625 38.33124923706055 86.660400390625 44.0802001953125 C 86.660400390625 49.82915115356445 85.53479766845703 55.40533828735352 83.31484985351562 60.65387344360352 C 81.17032623291016 65.72411346435547 78.09992218017578 70.27797698974609 74.18894958496094 74.18894958496094 C 70.27797698974609 78.09992218017578 65.72411346435547 81.17032623291016 60.65387344360352 83.31484985351562 C 55.40533828735352 85.53479766845703 49.82915115356445 86.660400390625 44.0802001953125 86.660400390625 Z" stroke="none"/>
                          <path d="M 44.0802001953125 3 C 38.53308486938477 3 33.15349960327148 4.085746765136719 28.09085845947266 6.227058410644531 C 23.19941711425781 8.29595947265625 18.80581665039062 11.25841522216797 15.03211212158203 15.03211212158203 C 11.25841522216797 18.80581665039062 8.29595947265625 23.19941711425781 6.227058410644531 28.09085845947266 C 4.085746765136719 33.15349960327148 3 38.53308486938477 3 44.0802001953125 C 3 49.62731552124023 4.085746765136719 55.00691604614258 6.227058410644531 60.06954193115234 C 8.29595947265625 64.96098327636719 11.25841522216797 69.35458374023438 15.03211212158203 73.12828826904297 C 18.80581665039062 76.90198516845703 23.19941711425781 79.86444091796875 28.09085845947266 81.93334197998047 C 33.15349960327148 84.07466125488281 38.53308486938477 85.160400390625 44.0802001953125 85.160400390625 C 49.62731552124023 85.160400390625 55.00691604614258 84.07466125488281 60.06954193115234 81.93334197998047 C 64.96099853515625 79.86444091796875 69.35458374023438 76.90198516845703 73.12828826904297 73.12828826904297 C 76.90198516845703 69.35458374023438 79.86444091796875 64.96099853515625 81.93334197998047 60.06954193115234 C 84.07466125488281 55.00691604614258 85.160400390625 49.62731552124023 85.160400390625 44.0802001953125 C 85.160400390625 38.53308486938477 84.07466125488281 33.15349960327148 81.93334197998047 28.09085845947266 C 79.86444091796875 23.19941711425781 76.90198516845703 18.80581665039062 73.12828826904297 15.03211212158203 C 69.35458374023438 11.25841522216797 64.96098327636719 8.29595947265625 60.06954193115234 6.227058410644531 C 55.00691604614258 4.085746765136719 49.62731552124023 3 44.0802001953125 3 M 44.0802001953125 0 C 68.42502593994141 0 88.160400390625 19.73538970947266 88.160400390625 44.0802001953125 C 88.160400390625 68.42502593994141 68.42502593994141 88.160400390625 44.0802001953125 88.160400390625 C 19.73538970947266 88.160400390625 0 68.42502593994141 0 44.0802001953125 C 0 19.73538970947266 19.73538970947266 0 44.0802001953125 0 Z" stroke="none" fill="#1d7083"/>
                        </g>
                      </g>
                    </g>
                  </g>
                </g>
              </g>
            </g>
          </g>
        </g>
      </g>
    </g>
    <g id="cooperacion_1_" data-name="cooperacion (1)" transform="translate(210 1406.175)">
      <g id="Grupo_1227599" data-name="Grupo 1227599" transform="translate(0.969 0.973)">
        <g id="Grupo_1227592" data-name="Grupo 1227592" transform="translate(0.001)">
          <circle id="Elipse_12698" data-name="Elipse 12698" cx="32.11" cy="32.11" r="32.11" fill="#8993da"/>
          <path id="Trazado_1182781" data-name="Trazado 1182781" d="M46.917,70.89a32.11,32.11,0,1,1,0-62.555,32.12,32.12,0,0,0,0,62.555Z" transform="translate(-7.504 -7.503)" fill="#707dd3"/>
        </g>
        <g id="Grupo_1227598" data-name="Grupo 1227598" transform="translate(0 18.33)">
          <path id="Trazado_1182782" data-name="Trazado 1182782" d="M408.67,149.359h12.383v17.349H408.67Z" transform="translate(-356.831 -149.358)" fill="#365e7d"/>
          <path id="Trazado_1182783" data-name="Trazado 1182783" d="M408.67,246.229h12.383v4.832H408.67Z" transform="translate(-356.831 -233.711)" fill="#2b4d66"/>
          <path id="Trazado_1182784" data-name="Trazado 1182784" d="M7.5,149.359H21.4v17.349H7.5Z" transform="translate(-7.5 -149.358)" fill="#ffd064"/>
          <path id="Trazado_1182785" data-name="Trazado 1182785" d="M7.5,249.821H21.4v4.368H7.5Z" transform="translate(-7.5 -236.838)" fill="#ffc250"/>
          <path id="Trazado_1182786" data-name="Trazado 1182786" d="M77.657,171.447a3.71,3.71,0,0,1-3.71-3.71V149.356h7.42v18.381A3.71,3.71,0,0,1,77.657,171.447Z" transform="translate(-65.361 -149.355)" fill="#ffd064"/>
          <path id="Trazado_1182787" data-name="Trazado 1182787" d="M370.283,171.447a3.71,3.71,0,0,1-3.71-3.71V149.356h7.42v18.381a3.71,3.71,0,0,1-3.71,3.71Z" transform="translate(-320.174 -149.355)" fill="#365e7d"/>
          <path id="Trazado_1182788" data-name="Trazado 1182788" d="M81.369,226.4v8.426a3.71,3.71,0,0,1-7.42,0V226.4a3.71,3.71,0,1,0,7.42,0Z" transform="translate(-65.363 -216.446)" fill="#ffc250"/>
          <path id="Trazado_1182789" data-name="Trazado 1182789" d="M374,226.4v8.426a3.71,3.71,0,0,1-7.42,0V226.4a3.71,3.71,0,1,0,7.42,0Z" transform="translate(-320.176 -216.446)" fill="#2b4d66"/>
          <g id="Grupo_1227593" data-name="Grupo 1227593" transform="translate(13.904)">
            <path id="Trazado_1182790" data-name="Trazado 1182790" d="M147.6,149.351v19.392l-3.979,3.978-7.745,7.746a2.782,2.782,0,0,1-3.954-3.914l-1.9,1.9a2.782,2.782,0,0,1-3.949-3.919l-1.353,1.353a2.782,2.782,0,0,1-3.95-3.918l-.916.916a2.782,2.782,0,1,1-3.934-3.934L131.1,153.769l-6.635-2.624a6.123,6.123,0,0,1,4.329-1.794h18.8Z" transform="translate(-115.1 -149.351)" fill="#ffece4"/>
          </g>
          <path id="Trazado_1182791" data-name="Trazado 1182791" d="M127.881,208.433l1.522,1.605-11.924,11.924a2.779,2.779,0,0,0-.62,2.99,2.782,2.782,0,0,1-.945-4.554Z" transform="translate(-101.196 -200.798)" fill="#ffddce"/>
          <g id="Grupo_1227594" data-name="Grupo 1227594" transform="translate(32.695 18.746)">
            <path id="Trazado_1182792" data-name="Trazado 1182792" d="M335.353,295.115l.906.906a2.37,2.37,0,1,1-3.351,3.351l-.906-.906a2.37,2.37,0,0,1,3.351-3.351Z" transform="translate(-322.161 -294.421)" fill="#e2a770"/>
            <path id="Trazado_1182793" data-name="Trazado 1182793" d="M300.894,312.522l2.007,2.007a2.37,2.37,0,0,1-3.351,3.351l-2.007-2.007a2.37,2.37,0,0,1,3.351-3.351Z" transform="translate(-292.155 -309.579)" fill="#e2a770"/>
            <path id="Trazado_1182794" data-name="Trazado 1182794" d="M283.488,346.98l.906.906a2.37,2.37,0,1,1-3.351,3.351l-.906-.906a2.37,2.37,0,0,1,3.351-3.351Z" transform="translate(-276.998 -339.584)" fill="#e2a770"/>
            <path id="Trazado_1182795" data-name="Trazado 1182795" d="M264.564,379.922a2.37,2.37,0,1,1-3.351,0A2.37,2.37,0,0,1,264.564,379.922Z" transform="translate(-260.519 -368.27)" fill="#e2a770"/>
          </g>
          <g id="Grupo_1227595" data-name="Grupo 1227595" transform="translate(32.695 18.963)">
            <path id="Trazado_1182796" data-name="Trazado 1182796" d="M336.737,300.159a2.369,2.369,0,0,1-3.825.678l-.906-.906a2.372,2.372,0,0,1,.68-3.827,2.368,2.368,0,0,0,.475,2.673l.906.9a2.374,2.374,0,0,0,2.67.477Z" transform="translate(-322.164 -296.104)" fill="#d5985c"/>
            <path id="Trazado_1182797" data-name="Trazado 1182797" d="M303.378,318.681a2.369,2.369,0,0,1-3.825.678l-2.007-2.007a2.37,2.37,0,0,1,.678-3.825,2.373,2.373,0,0,0,.476,2.671l2.007,2.007a2.373,2.373,0,0,0,2.671.476Z" transform="translate(-292.157 -311.276)" fill="#d5985c"/>
            <path id="Trazado_1182798" data-name="Trazado 1182798" d="M284.868,352.023a2.369,2.369,0,0,1-3.825.678l-.906-.9a2.372,2.372,0,0,1,.68-3.828,2.37,2.37,0,0,0,.474,2.673l.906.906a2.372,2.372,0,0,0,2.671.476Z" transform="translate(-276.997 -341.266)" fill="#d5985c"/>
            <path id="Trazado_1182799" data-name="Trazado 1182799" d="M265.039,384.059a2.37,2.37,0,1,1-3.146-3.149,2.371,2.371,0,0,0,3.146,3.149Z" transform="translate(-260.518 -369.951)" fill="#d5985c"/>
          </g>
          <path id="Trazado_1182800" data-name="Trazado 1182800" d="M152.562,162.638a3.6,3.6,0,0,1-5.1,0l-3.649-3.649-2-2L131.1,167.7l.01-5.726.024-12.621h11.589a3.978,3.978,0,0,1,2.812,1.165l7.024,7.023A3.6,3.6,0,0,1,152.562,162.638Z" transform="translate(-115.131 -149.354)" fill="#e2a770"/>
          <path id="Trazado_1182801" data-name="Trazado 1182801" d="M151.554,196.57A3.594,3.594,0,0,1,149,195.513l-6.123-6.123a1.745,1.745,0,0,0-2.468,0l-.307.307-4.963,4.963a5.922,5.922,0,0,1-4.031,1.732l-.01,5.726,10.712-10.713,2,2h0l3.649,3.649a3.609,3.609,0,0,0,5.75-.89A3.606,3.606,0,0,1,151.554,196.57Z" transform="translate(-115.13 -183.771)" fill="#d5985c"/>
          <g id="Grupo_1227596" data-name="Grupo 1227596" transform="translate(18.77 17.532)">
            <path id="Trazado_1182802" data-name="Trazado 1182802" d="M158.642,285.027l.25.263a1.9,1.9,0,0,1-.035,2.65l-3.72,3.721a2.779,2.779,0,0,0-.62,2.99,2.782,2.782,0,0,1-.945-4.554Z" transform="translate(-152.757 -285.027)" fill="#ffddce"/>
            <path id="Trazado_1182803" data-name="Trazado 1182803" d="M199.672,304.885l.25.263a1.9,1.9,0,0,1-.035,2.65l-3.72,3.721a2.779,2.779,0,0,0-.62,2.99,2.782,2.782,0,0,1-.945-4.554Z" transform="translate(-188.485 -302.319)" fill="#ffddce"/>
            <path id="Trazado_1182804" data-name="Trazado 1182804" d="M244.975,320.471l.25.263a1.9,1.9,0,0,1-.035,2.65l-3.72,3.721a2.779,2.779,0,0,0-.62,2.99,2.782,2.782,0,0,1-.945-4.554Z" transform="translate(-227.934 -315.891)" fill="#ffddce"/>
          </g>
          <g id="Grupo_1227597" data-name="Grupo 1227597" transform="translate(10.602 2.975)">
            <circle id="Elipse_12699" data-name="Elipse 12699" cx="1.694" cy="1.694" r="1.694" transform="translate(37.849)" fill="#f9f6f9"/>
            <circle id="Elipse_12700" data-name="Elipse 12700" cx="1.694" cy="1.694" r="1.694" fill="#f9f6f9"/>
          </g>
        </g>
      </g>
      <g id="Grupo_1227600" data-name="Grupo 1227600" transform="translate(0 0.005)">
        <path id="Trazado_1182805" data-name="Trazado 1182805" d="M377.618,170.2a2.663,2.663,0,1,0-2.663-2.663A2.666,2.666,0,0,0,377.618,170.2Zm0-3.387a.725.725,0,1,1-.725.725A.725.725,0,0,1,377.618,166.815Z" transform="translate(-326.504 -143.572)"/>
        <path id="Trazado_1182806" data-name="Trazado 1182806" d="M87.377,167.54a2.663,2.663,0,1,0-2.663,2.663A2.666,2.666,0,0,0,87.377,167.54Zm-3.387,0a.725.725,0,1,1,.725.725A.725.725,0,0,1,83.989,167.54Z" transform="translate(-71.448 -143.572)"/>
        <path id="Trazado_1182807" data-name="Trazado 1182807" d="M65.191,35.685H55.757V20.274h9.434a.969.969,0,1,0,0-1.938H62.7a33.088,33.088,0,0,0-59.233,0H.969a.969.969,0,0,0,0,1.938H8.586V35.685H.969a.968.968,0,0,0-.7,1.642A32.673,32.673,0,0,0,4.935,50.475a.969.969,0,1,0,1.648-1.02A30.739,30.739,0,0,1,2.269,37.623H8.586v.063a4.684,4.684,0,0,0,4.679,4.679c.072,0,.144,0,.216-.006a45.482,45.482,0,0,0,2.2,8.04,33.18,33.18,0,0,0-5.261,4.041q-.88-.936-1.691-1.951A.969.969,0,0,0,7.209,53.7a33.082,33.082,0,0,0,58.68-16.373.968.968,0,0,0-.7-1.641Zm-1.3,1.938A31.044,31.044,0,0,1,55.744,54.44,33.2,33.2,0,0,0,50.483,50.4a45.6,45.6,0,0,0,2.25-8.34,4.686,4.686,0,0,0,3.023-4.375v-.063ZM21.239,42.592l5.07-5.07a.969.969,0,1,0-1.371-1.37l-6,6a1.813,1.813,0,0,1-2.563-2.563l11.28-11.28,4.964,4.964a4.573,4.573,0,1,0,6.468-6.467l-.552-.55a.969.969,0,1,0-1.369,1.372l.551.55A2.635,2.635,0,1,1,33.988,31.9l-5.649-5.649a.969.969,0,0,0-1.357-.013l-.03.031-9.007,9.007v-15h10.62a2.987,2.987,0,0,1,2.126.88l3.731,3.731a.969.969,0,1,0,1.371-1.37L32.55,20.273H46.4V37.31a3.336,3.336,0,0,0-4.444,2.254A3.338,3.338,0,0,0,37.624,43.9,3.333,3.333,0,0,0,35.3,48.124a3.34,3.34,0,0,0-2.352,1.987,1.813,1.813,0,0,1-.56-2.927l4.757-4.757a.969.969,0,1,0-1.371-1.37L29.1,47.721a1.813,1.813,0,1,1-2.563-2.563l5.039-5.039a.969.969,0,1,0-1.371-1.371L23.8,45.155a1.813,1.813,0,0,1-2.564-2.563Zm32.579-4.906a2.741,2.741,0,0,1-5.481,0V20.274h5.481Zm-10.093,7.98a1.4,1.4,0,0,1-1.98,0l-2.007-2.007a1.4,1.4,0,0,1,1.98-1.98l2.007,2.007A1.4,1.4,0,0,1,43.726,45.666Zm-2.941,2.361a1.4,1.4,0,0,1-2.391.99l-.906-.906a1.4,1.4,0,0,1,1.98-1.981l.906.906a1.391,1.391,0,0,1,.41.99Zm-3.351,3.351a1.4,1.4,0,1,1-.411-.991h0a1.391,1.391,0,0,1,.41.99Zm6.757-9.968a1.4,1.4,0,1,1,1.98-1.98h0l.906.906a1.4,1.4,0,1,1-1.98,1.98ZM45.44,18.335a32.661,32.661,0,0,0,3.353-1.574q.284.773.541,1.575Zm-7.1,0H34.049V1.986a13.975,13.975,0,0,1,8.842,4.752,28.087,28.087,0,0,1,5.181,8.206,30.865,30.865,0,0,1-9.735,3.39Zm-6.226,0H27.83a30.861,30.861,0,0,1-9.741-3.391,28.08,28.08,0,0,1,5.181-8.207,13.974,13.974,0,0,1,8.842-4.751Zm-11.388,0h-3.9q.257-.8.541-1.574a32.608,32.608,0,0,0,3.356,1.575Zm3.986,30.2a3.791,3.791,0,0,0,.461.559,3.752,3.752,0,0,0,4.89.359,3.76,3.76,0,0,0,2.05,2.413V64.182c-3.717-.324-7.236-2.514-10.231-6.383a30.091,30.091,0,0,1-3.782-6.57,30.952,30.952,0,0,1,6.612-2.7Zm9.34,5.531a3.337,3.337,0,0,0,5.321-2.7h.014a3.337,3.337,0,0,0,3.228-2.483,31,31,0,0,1,5.449,2.35,30.082,30.082,0,0,1-3.793,6.583c-2.993,3.86-6.508,6.044-10.219,6.368Zm10.479-6.571a3.329,3.329,0,0,0,1.544-2.83h.014a3.33,3.33,0,0,0,3.261-2.631,4.642,4.642,0,0,0,1.365.317,43.567,43.567,0,0,1-1.929,7.067,33.01,33.01,0,0,0-4.255-1.925Zm6.837-29.156q-.4-1.315-.873-2.562a33.214,33.214,0,0,0,5.253-4.047,31.179,31.179,0,0,1,4.767,6.609ZM49.927,6.89a31.341,31.341,0,0,1,4.445,3.469,31.278,31.278,0,0,1-4.62,3.59A29.868,29.868,0,0,0,44.3,5.411a20.5,20.5,0,0,0-2.417-2.2A30.968,30.968,0,0,1,49.927,6.89Zm-33.694,0a30.959,30.959,0,0,1,8.04-3.682,20.5,20.5,0,0,0-2.416,2.2,29.854,29.854,0,0,0-5.448,8.538,31.3,31.3,0,0,1-4.62-3.59A31.34,31.34,0,0,1,16.233,6.89ZM5.647,18.336a31.175,31.175,0,0,1,4.767-6.609,33.211,33.211,0,0,0,5.254,4.047q-.47,1.245-.872,2.561Zm4.878,19.35V20.274h5.481V37.215l-1,1a3.732,3.732,0,0,0-1.059,2.123,2.741,2.741,0,0,1-3.418-2.655Zm5.295,6.455a3.756,3.756,0,0,0,2.993.3,3.756,3.756,0,0,0,2.776,3.07,32.923,32.923,0,0,0-4.212,1.907,42.7,42.7,0,0,1-1.557-5.273Zm-4.032,11.67a31.259,31.259,0,0,1,4.63-3.589,31.845,31.845,0,0,0,3.93,6.762,22.15,22.15,0,0,0,3.91,3.975,30.916,30.916,0,0,1-12.47-7.149Zm30.134,7.135A22.153,22.153,0,0,0,45.8,59a31.836,31.836,0,0,0,3.942-6.777,31.263,31.263,0,0,1,4.629,3.584c-.149.14-.3.279-.451.416a31.071,31.071,0,0,1-12,6.722Z" transform="translate(0 -0.005)"/>
      </g>
    </g>
  </g>
</svg>
