<svg xmlns="http://www.w3.org/2000/svg" xmlns:xlink="http://www.w3.org/1999/xlink" width="118" height="118" viewBox="0 0 118 118">
  <defs>
    <filter id="Trazado_982547" x="0" y="0" width="118" height="118" filterUnits="userSpaceOnUse">
      <feOffset dy="3" input="SourceAlpha"/>
      <feGaussianBlur stdDeviation="3" result="blur"/>
      <feFlood flood-opacity="0.161"/>
      <feComposite operator="in" in2="blur"/>
      <feComposite in="SourceGraphic"/>
    </filter>
  </defs>
  <g id="Grupo_1227799" data-name="Grupo 1227799" transform="translate(-1160.888 -4270.926)">
    <g id="Grupo_1225730" data-name="Grupo 1225730" transform="translate(0 2967)">
      <g id="Grupo_1224855" data-name="Grupo 1224855" transform="translate(1169.888 1309.926)">
        <g id="Grupo_1174813" data-name="Grupo 1174813">
          <g id="Grupo_1201680" data-name="Grupo 1201680">
            <g id="Grupo_1201330" data-name="Grupo 1201330">
              <g id="Grupo_1172010" data-name="Grupo 1172010">
                <g id="Grupo_1171046" data-name="Grupo 1171046">
                  <g id="Grupo_1148525" data-name="Grupo 1148525">
                    <g transform="matrix(1, 0, 0, 1, -9, -6)" filter="url(#Trazado_982547)">
                      <g id="Trazado_982547-2" data-name="Trazado 982547" transform="translate(9 6)" fill="#ffebd0">
                        <path d="M 50 98.5 C 43.45188522338867 98.5 37.10042953491211 97.21787261962891 31.12207221984863 94.68923950195312 C 25.34691429138184 92.24655914306641 20.15997123718262 88.74931335449219 15.70532894134521 84.29468536376953 C 11.2506856918335 79.84004211425781 7.753442764282227 74.65309906005859 5.310757160186768 68.8779296875 C 2.782128572463989 62.89957046508789 1.5 56.54811477661133 1.5 50 C 1.5 43.45188522338867 2.782128572463989 37.10042953491211 5.310757160186768 31.12207221984863 C 7.753442764282227 25.34691429138184 11.2506856918335 20.15997123718262 15.70532894134521 15.70532894134521 C 20.15997123718262 11.2506856918335 25.34691429138184 7.753442764282227 31.12207221984863 5.310757160186768 C 37.10042953491211 2.782128572463989 43.45188522338867 1.5 50 1.5 C 56.54811477661133 1.5 62.89957046508789 2.782128572463989 68.8779296875 5.310757160186768 C 74.65309906005859 7.753442764282227 79.84004211425781 11.2506856918335 84.29468536376953 15.70532894134521 C 88.74931335449219 20.15997123718262 92.24655914306641 25.34691429138184 94.68923950195312 31.12207221984863 C 97.21787261962891 37.10042953491211 98.5 43.45188522338867 98.5 50 C 98.5 56.54811477661133 97.21787261962891 62.89957046508789 94.68923950195312 68.8779296875 C 92.24655914306641 74.65309906005859 88.74931335449219 79.84004211425781 84.29468536376953 84.29468536376953 C 79.84004211425781 88.74931335449219 74.65309906005859 92.24655914306641 68.8779296875 94.68923950195312 C 62.89957046508789 97.21787261962891 56.54811477661133 98.5 50 98.5 Z" stroke="none"/>
                        <path d="M 50 3 C 43.65372467041016 3 37.49886322021484 4.242263793945312 31.70639801025391 6.6922607421875 C 26.11003112792969 9.059326171875 21.08335113525391 12.44861602783203 16.76598358154297 16.76598358154297 C 12.44861602783203 21.08335113525391 9.059326171875 26.11003112792969 6.6922607421875 31.70639801025391 C 4.242263793945312 37.49886322021484 3 43.65372467041016 3 50 C 3 56.34627532958984 4.242263793945312 62.50113677978516 6.6922607421875 68.29360198974609 C 9.059326171875 73.88996887207031 12.44861602783203 78.91666412353516 16.76598358154297 83.23401641845703 C 21.08335113525391 87.55138397216797 26.11003112792969 90.940673828125 31.70639801025391 93.3077392578125 C 37.49886322021484 95.75773620605469 43.65372467041016 97 50 97 C 56.34627532958984 97 62.50113677978516 95.75773620605469 68.29360198974609 93.3077392578125 C 73.88996887207031 90.940673828125 78.91666412353516 87.55138397216797 83.23401641845703 83.23401641845703 C 87.55138397216797 78.91666412353516 90.940673828125 73.88996887207031 93.3077392578125 68.29360198974609 C 95.75773620605469 62.50113677978516 97 56.34627532958984 97 50 C 97 43.65372467041016 95.75773620605469 37.49886322021484 93.3077392578125 31.70639801025391 C 90.940673828125 26.11003112792969 87.55138397216797 21.08335113525391 83.23401641845703 16.76598358154297 C 78.91666412353516 12.44861602783203 73.88996887207031 9.059326171875 68.29360198974609 6.6922607421875 C 62.50113677978516 4.242263793945312 56.34627532958984 3 50 3 M 50 0 C 77.61424255371094 0 100 22.38577270507812 100 50 C 100 77.61424255371094 77.61424255371094 100 50 100 C 22.38577270507812 100 0 77.61424255371094 0 50 C 0 22.38577270507812 22.38577270507812 0 50 0 Z" stroke="none" fill="#ff9d1c"/>
                      </g>
                    </g>
                  </g>
                </g>
              </g>
            </g>
          </g>
        </g>
      </g>
    </g>
    <g id="deuda" transform="translate(1183.432 4290)">
      <g id="Grupo_1227777" data-name="Grupo 1227777" transform="translate(34.511 11.257)">
        <g id="Grupo_1227776" data-name="Grupo 1227776" transform="translate(0)">
          <g id="Grupo_1227775" data-name="Grupo 1227775">
            <g id="Grupo_1227773" data-name="Grupo 1227773">
              <path id="Trazado_1183261" data-name="Trazado 1183261" d="M256.137,87.1a15.161,15.161,0,0,0-5.1.877,9.435,9.435,0,0,1-8.619,7.778A15.191,15.191,0,1,0,256.137,87.1Z" transform="translate(-240.948 -87.103)" fill="#ffe177"/>
            </g>
            <g id="Grupo_1227774" data-name="Grupo 1227774" transform="translate(11.703)">
              <path id="Trazado_1183262" data-name="Trazado 1183262" d="M334.985,87.1a15.233,15.233,0,0,0-3.486.4,15.193,15.193,0,0,1,0,29.573A15.19,15.19,0,1,0,334.985,87.1Z" transform="translate(-331.499 -87.103)" fill="#ffd15b"/>
            </g>
          </g>
        </g>
      </g>
      <g id="Grupo_1227780" data-name="Grupo 1227780" transform="translate(4.84 44.704)">
        <g id="Grupo_1227778" data-name="Grupo 1227778" transform="translate(19.271)">
          <path id="Trazado_1183263" data-name="Trazado 1183263" d="M203.98,347.318a5.777,5.777,0,0,0-7.87.279l-8.721,8.721a1.293,1.293,0,0,1-.914.379H174.18a1.9,1.9,0,1,1,0-3.809h5.712a5.353,5.353,0,0,0,5.353-5.353,1.031,1.031,0,0,0-1.031-1.031h-14.13a7.227,7.227,0,0,0-5.645,2.706,1.771,1.771,0,0,1-1.382.652h-2.578v13.63h28.34a2.427,2.427,0,0,0,1.716-.711l13.516-13.516A1.333,1.333,0,0,0,203.98,347.318Z" transform="translate(-160.479 -345.906)" fill="#ffcebf"/>
        </g>
        <g id="Grupo_1227779" data-name="Grupo 1227779" transform="translate(0 3.957)">
          <path id="Trazado_1183264" data-name="Trazado 1183264" d="M18.535,376.524H12.4a1.034,1.034,0,0,0-1.034,1.034v11.563a1.034,1.034,0,0,0,1.034,1.034h6.13Z" transform="translate(-11.371 -376.524)" fill="#ffcebf"/>
        </g>
      </g>
      <g id="Grupo_1227783" data-name="Grupo 1227783" transform="translate(39.34 44.705)">
        <g id="Grupo_1227781" data-name="Grupo 1227781" transform="translate(8.927)">
          <path id="Trazado_1183265" data-name="Trazado 1183265" d="M366.735,347.325a5.779,5.779,0,0,0-5.877-1.021,5.741,5.741,0,0,1,1.693,1.021,1.333,1.333,0,0,1,.071,1.948l-13.516,13.515a2.427,2.427,0,0,1-1.716.711h4.184a2.427,2.427,0,0,0,1.716-.711l13.516-13.516A1.333,1.333,0,0,0,366.735,347.325Z" transform="translate(-347.39 -345.913)" fill="#ffb09e"/>
        </g>
        <g id="Grupo_1227782" data-name="Grupo 1227782" transform="translate(0 0.598)">
          <path id="Trazado_1183266" data-name="Trazado 1183266" d="M283.668,351.571a5.353,5.353,0,0,1-5.353,5.353H282.5a5.353,5.353,0,0,0,5.353-5.353,1.031,1.031,0,0,0-1.031-1.031h-4.184A1.031,1.031,0,0,1,283.668,351.571Z" transform="translate(-278.315 -350.54)" fill="#ffb09e"/>
        </g>
      </g>
      <g id="Grupo_1227786" data-name="Grupo 1227786" transform="translate(15.43 33.973)">
        <g id="Grupo_1227784" data-name="Grupo 1227784" transform="translate(0 0)">
          <path id="Trazado_1183267" data-name="Trazado 1183267" d="M93.312,267.816V265.5a2.627,2.627,0,0,1,5.255,0v2.318a2.627,2.627,0,0,1-5.255,0Z" transform="translate(-93.312 -262.87)" fill="#e1d3ce"/>
        </g>
        <g id="Grupo_1227785" data-name="Grupo 1227785" transform="translate(1.466)">
          <path id="Trazado_1183268" data-name="Trazado 1183268" d="M105.816,262.87a2.6,2.6,0,0,0-1.161.276,2.633,2.633,0,0,1,1.466,2.352v2.318a2.633,2.633,0,0,1-1.466,2.352,2.6,2.6,0,0,0,1.161.276,2.635,2.635,0,0,0,2.627-2.627V265.5A2.635,2.635,0,0,0,105.816,262.87Z" transform="translate(-104.655 -262.87)" fill="#cdbfba"/>
        </g>
      </g>
      <g id="Grupo_1227789" data-name="Grupo 1227789" transform="translate(15.43 23.931)">
        <g id="Grupo_1227787" data-name="Grupo 1227787" transform="translate(0 0)">
          <path id="Trazado_1183269" data-name="Trazado 1183269" d="M93.312,190.113v-2.318a2.627,2.627,0,1,1,5.255,0v2.318a2.627,2.627,0,1,1-5.255,0Z" transform="translate(-93.312 -185.167)" fill="#e1d3ce"/>
        </g>
        <g id="Grupo_1227788" data-name="Grupo 1227788" transform="translate(1.466)">
          <path id="Trazado_1183270" data-name="Trazado 1183270" d="M105.816,185.166a2.6,2.6,0,0,0-1.161.276,2.633,2.633,0,0,1,1.466,2.352v2.318a2.633,2.633,0,0,1-1.466,2.352,2.6,2.6,0,0,0,1.161.276,2.635,2.635,0,0,0,2.627-2.627v-2.318A2.635,2.635,0,0,0,105.816,185.166Z" transform="translate(-104.655 -185.166)" fill="#cdbfba"/>
        </g>
      </g>
      <g id="Grupo_1227792" data-name="Grupo 1227792" transform="translate(23.011 23.931)">
        <g id="Grupo_1227790" data-name="Grupo 1227790">
          <path id="Trazado_1183271" data-name="Trazado 1183271" d="M154.6,185.166h2.318a2.627,2.627,0,0,1,0,5.255H154.6a2.627,2.627,0,0,1,0-5.255Z" transform="translate(-151.97 -185.166)" fill="#e1d3ce"/>
        </g>
        <g id="Grupo_1227791" data-name="Grupo 1227791" transform="translate(2.431)">
          <path id="Trazado_1183272" data-name="Trazado 1183272" d="M173.3,185.166H170.98c-.066,0-.131.005-.2.01a2.625,2.625,0,0,1,0,5.235c.065,0,.13.01.2.01H173.3a2.627,2.627,0,0,0,0-5.255Z" transform="translate(-170.784 -185.166)" fill="#cdbfba"/>
        </g>
      </g>
      <g id="Grupo_1227793" data-name="Grupo 1227793" transform="translate(11.875 45.676)">
        <path id="Trazado_1183273" data-name="Trazado 1183273" d="M65.806,354.458v17.457a1.034,1.034,0,0,0,1.034,1.034h10.3a1.034,1.034,0,0,0,1.034-1.034V354.458a1.034,1.034,0,0,0-1.034-1.034H66.84A1.034,1.034,0,0,0,65.806,354.458Z" transform="translate(-65.806 -353.424)" fill="#b9acac"/>
      </g>
      <g id="Grupo_1227794" data-name="Grupo 1227794" transform="translate(19.138 45.676)">
        <path id="Trazado_1183274" data-name="Trazado 1183274" d="M126.067,353.424H122a1.034,1.034,0,0,1,1.034,1.034v17.457A1.034,1.034,0,0,1,122,372.949h4.068a1.034,1.034,0,0,0,1.034-1.034V354.458A1.034,1.034,0,0,0,126.067,353.424Z" transform="translate(-121.999 -353.424)" fill="#9e9797"/>
      </g>
      <g id="Grupo_1227797" data-name="Grupo 1227797" transform="translate(25.776 0.969)">
        <g id="Grupo_1227795" data-name="Grupo 1227795">
          <circle id="Elipse_12723" data-name="Elipse 12723" cx="9.549" cy="9.549" r="9.549" fill="#fd8087"/>
        </g>
        <g id="Grupo_1227796" data-name="Grupo 1227796" transform="translate(6.876 0)">
          <path id="Trazado_1183275" data-name="Trazado 1183275" d="M229.24,7.5a9.545,9.545,0,0,0-2.673.382,9.548,9.548,0,0,1,0,18.333A9.549,9.549,0,1,0,229.24,7.5Z" transform="translate(-226.567 -7.5)" fill="#fe646f"/>
        </g>
      </g>
      <g id="Grupo_1227798" data-name="Grupo 1227798" transform="translate(3.871 0)">
        <path id="Trazado_1183276" data-name="Trazado 1183276" d="M321.414,141.9h-3.93a1.891,1.891,0,0,1-1.889-1.889.969.969,0,0,0-1.939,0,3.831,3.831,0,0,0,3.827,3.827h1v1.65a.969.969,0,0,0,1.939,0v-1.65h1a3.831,3.831,0,0,0,3.827-3.827v-.834a3.831,3.831,0,0,0-3.827-3.827h-3.93a1.891,1.891,0,0,1-1.889-1.889v-.834a1.891,1.891,0,0,1,1.889-1.889h3.93a1.891,1.891,0,0,1,1.889,1.889.969.969,0,0,0,1.939,0,3.831,3.831,0,0,0-3.827-3.827h-1V127.15a.969.969,0,0,0-1.939,0V128.8h-1a3.831,3.831,0,0,0-3.827,3.827v.834a3.831,3.831,0,0,0,3.827,3.827h3.93a1.891,1.891,0,0,1,1.889,1.889v.834A1.891,1.891,0,0,1,321.414,141.9Z" transform="translate(-273.621 -109.873)"/>
        <path id="Trazado_1183277" data-name="Trazado 1183277" d="M277.686,189.849a.969.969,0,0,0,.969-.969v-2.095a.969.969,0,0,0-1.939,0v2.095A.969.969,0,0,0,277.686,189.849Z" transform="translate(-241.455 -161.801)"/>
        <path id="Trazado_1183278" data-name="Trazado 1183278" d="M426.2,189.849a.969.969,0,0,0,.969-.969v-2.095a.969.969,0,1,0-1.939,0v2.095A.969.969,0,0,0,426.2,189.849Z" transform="translate(-370.772 -161.801)"/>
        <path id="Trazado_1183279" data-name="Trazado 1183279" d="M68.248,45.385a6.765,6.765,0,0,0-9.192.326l-2.62,2.62A.969.969,0,1,0,57.806,49.7l2.62-2.62a4.82,4.82,0,0,1,6.549-.233.365.365,0,0,1,.126.264A.358.358,0,0,1,67,47.38L53.481,60.9a1.467,1.467,0,0,1-1.03.427H25.209V49.631h1.479a2.726,2.726,0,0,0,2.137-1.013,6.248,6.248,0,0,1,4.889-2.345h14.13a.062.062,0,0,1,.062.062,4.388,4.388,0,0,1-4.383,4.383H37.812a2.874,2.874,0,1,0,0,5.748H50.106a2.248,2.248,0,0,0,1.6-.662l2.9-2.9a.969.969,0,0,0-1.371-1.371l-2.9,2.9a.321.321,0,0,1-.229.095H37.812a.935.935,0,0,1,0-1.871h5.712a6.329,6.329,0,0,0,6.322-6.322,2,2,0,0,0-2-2H33.715a8.178,8.178,0,0,0-6.4,3.068.807.807,0,0,1-.627.29H25.209V46.71a2.005,2.005,0,0,0-2-2H19.027V42.382a3.6,3.6,0,0,0,2.627-3.463V36.6a3.6,3.6,0,0,0-2.627-3.463v-.8a3.6,3.6,0,0,0,2.627-3.463V27.527h.521a3.6,3.6,0,0,0,3.463,2.627h2.318a3.6,3.6,0,0,0,3.463-2.627h2.158A16.168,16.168,0,1,0,45.837,10.759c0-.08.006-.16.006-.241A10.518,10.518,0,0,0,25.106,8.027a.969.969,0,0,0,1.884.458,8.579,8.579,0,1,1,0,4.066.969.969,0,0,0-1.884.458A10.482,10.482,0,0,0,34.483,21a15.975,15.975,0,0,0-.92,4.587H31.42a3.6,3.6,0,0,0-3.463-2.627H25.639a3.6,3.6,0,0,0-3.463,2.627h-.655a3.6,3.6,0,0,0-7.06.969v2.318a3.6,3.6,0,0,0,2.627,3.463v.8A3.6,3.6,0,0,0,14.461,36.6v2.318a3.6,3.6,0,0,0,2.627,3.463v2.325H12.909a2.005,2.005,0,0,0-2,2v.982H5.874a2.005,2.005,0,0,0-2,2V61.258a2.005,2.005,0,0,0,2,2h5.032v.906a2.005,2.005,0,0,0,2,2h10.3a2.005,2.005,0,0,0,2-2v-.906H52.451a3.373,3.373,0,0,0,2.4-.995L68.368,48.751a2.3,2.3,0,0,0-.12-3.365ZM45.583,12.832a14.216,14.216,0,1,1-9,8.126A10.54,10.54,0,0,0,45.583,12.832ZM25.639,24.9h2.318a1.658,1.658,0,0,1,0,3.316H25.639a1.656,1.656,0,0,1-1.343-.689H24.7a.969.969,0,0,0,0-1.939H24.3A1.655,1.655,0,0,1,25.639,24.9ZM16.4,28.876V26.558a1.658,1.658,0,0,1,3.316,0v2.318a1.656,1.656,0,0,1-.689,1.343v-.411a.969.969,0,0,0-1.939,0v.411A1.656,1.656,0,0,1,16.4,28.876Zm0,10.042V36.6a1.658,1.658,0,0,1,3.316,0v2.318a1.656,1.656,0,0,1-.689,1.343v-.408a.969.969,0,0,0-1.939,0v.408A1.655,1.655,0,0,1,16.4,38.919Zm6.871,25.248a.065.065,0,0,1-.065.065h-10.3a.065.065,0,0,1-.065-.065V57.654a.969.969,0,1,0-1.939,0v3.668H5.874a.065.065,0,0,1-.065-.065V49.7a.065.065,0,0,1,.065-.065h5.032v3.5a.969.969,0,1,0,1.939,0V46.71a.065.065,0,0,1,.065-.065h10.3a.065.065,0,0,1,.065.065V64.167Z" transform="translate(-3.871 0)"/>
        <path id="Trazado_1183280" data-name="Trazado 1183280" d="M227.4,41.769a.969.969,0,0,0-1.324.355l-4.812,8.334a.969.969,0,1,0,1.679.969l4.812-8.334A.969.969,0,0,0,227.4,41.769Z" transform="translate(-193.055 -36.258)"/>
        <circle id="Elipse_12724" data-name="Elipse 12724" cx="0.969" cy="0.969" r="0.969" transform="translate(27.082 6.147)"/>
        <circle id="Elipse_12725" data-name="Elipse 12725" cx="0.969" cy="0.969" r="0.969" transform="translate(33.888 12.951)"/>
      </g>
    </g>
  </g>
</svg>
