<svg xmlns="http://www.w3.org/2000/svg" xmlns:xlink="http://www.w3.org/1999/xlink" width="108" height="108" viewBox="0 0 108 108">
  <defs>
    <filter id="Trazado_904820" x="0" y="0" width="108" height="108" filterUnits="userSpaceOnUse">
      <feOffset dy="3" input="SourceAlpha"/>
      <feGaussianBlur stdDeviation="3" result="blur"/>
      <feFlood flood-opacity="0.161"/>
      <feComposite operator="in" in2="blur"/>
      <feComposite in="SourceGraphic"/>
    </filter>
  </defs>
  <g id="Grupo_1227696" data-name="Grupo 1227696" transform="translate(-199.5 -758.951)">
    <g id="Grupo_1226931" data-name="Grupo 1226931" transform="translate(208.5 764.951)">
      <g id="Grupo_1225500" data-name="Grupo 1225500">
        <g id="Grupo_1220078" data-name="Grupo 1220078">
          <g id="Grupo_1219746" data-name="Grupo 1219746">
            <g id="Grupo_1202418" data-name="Grupo 1202418">
              <g id="Grupo_1177315" data-name="Grupo 1177315">
                <g id="Grupo_1173585" data-name="Grupo 1173585">
                  <g id="Grupo_1173428" data-name="Grupo 1173428" transform="translate(0 0)">
                    <g id="Grupo_1171958" data-name="Grupo 1171958">
                      <g id="Grupo_1167341" data-name="Grupo 1167341">
                        <g id="Grupo_1166792" data-name="Grupo 1166792">
                          <g transform="matrix(1, 0, 0, 1, -9, -6)" filter="url(#Trazado_904820)">
                            <g id="Trazado_904820-2" data-name="Trazado 904820" transform="translate(9 6)" fill="#f2f7e5">
                              <path d="M 44.99999618530273 88.49999237060547 C 39.12687301635742 88.49999237060547 33.43022155761719 87.35006713867188 28.06829643249512 85.08216857910156 C 22.88852119445801 82.89130401611328 18.23629570007324 79.75457763671875 14.24084663391113 75.75914001464844 C 10.24540901184082 71.76369476318359 7.108683586120605 67.11146545410156 4.917821407318115 61.93169403076172 C 2.649921178817749 56.56976699829102 1.499996185302734 50.87311553955078 1.499996185302734 44.99999237060547 C 1.499996185302734 39.12686920166016 2.649921178817749 33.43021774291992 4.917821407318115 28.06829261779785 C 7.108683586120605 22.88851737976074 10.24540901184082 18.23630523681641 14.24084663391113 14.24085521697998 C 18.23629570007324 10.24540519714355 22.88852119445801 7.108692169189453 28.06829643249512 4.917829990386963 C 33.43022155761719 2.649929761886597 39.12687301635742 1.500004887580872 44.99999618530273 1.500004887580872 C 50.87311935424805 1.500004887580872 56.56977081298828 2.649929761886597 61.93169784545898 4.917829990386963 C 67.11147308349609 7.108692169189453 71.76369476318359 10.24540519714355 75.75914764404297 14.24085521697998 C 79.75458526611328 18.23630523681641 82.89131164550781 22.88851737976074 85.08216857910156 28.06829261779785 C 87.35007476806641 33.43021774291992 88.5 39.12686920166016 88.5 44.99999237060547 C 88.5 50.87311553955078 87.35007476806641 56.56976699829102 85.08216857910156 61.93169403076172 C 82.89131164550781 67.11146545410156 79.75458526611328 71.76369476318359 75.75914764404297 75.75914001464844 C 71.76369476318359 79.75457763671875 67.11147308349609 82.89130401611328 61.93169784545898 85.08216857910156 C 56.56977081298828 87.35006713867188 50.87311935424805 88.49999237060547 44.99999618530273 88.49999237060547 Z" stroke="none"/>
                              <path d="M 44.99999618530273 2.999992370605469 C 39.32870864868164 2.999992370605469 33.82865142822266 4.11004638671875 28.65262603759766 6.299331665039062 C 23.65165710449219 8.414566040039062 19.15968322753906 11.44333648681641 15.301513671875 15.30150604248047 C 11.44333648681641 19.15967559814453 8.414566040039062 23.65164947509766 6.299339294433594 28.65262222290039 C 4.110054016113281 33.82864761352539 2.999992370605469 39.32870483398438 2.999992370605469 44.99999237060547 C 2.999992370605469 50.67127990722656 4.110054016113281 56.17132186889648 6.299339294433594 61.34736633300781 C 8.414566040039062 66.34833526611328 11.44333648681641 70.84029388427734 15.301513671875 74.69846343994141 C 19.15968322753906 78.55663299560547 23.65165710449219 81.58540344238281 28.65262603759766 83.70063781738281 C 33.82865142822266 85.88992309570312 39.32870864868164 86.99997711181641 44.99999618530273 86.99997711181641 C 50.67128372192383 86.99997711181641 56.17134094238281 85.88992309570312 61.34736633300781 83.70063781738281 C 66.34834289550781 81.58540344238281 70.84030914306641 78.55663299560547 74.69847869873047 74.69846343994141 C 78.55665588378906 70.84029388427734 81.58542633056641 66.34833526611328 83.70065307617188 61.34736633300781 C 85.88993835449219 56.17132186889648 87 50.67127990722656 87 44.99999237060547 C 87 39.32870483398438 85.88993835449219 33.82864761352539 83.70065307617188 28.65262222290039 C 81.58542633056641 23.65164947509766 78.55665588378906 19.15967559814453 74.69847869873047 15.30150604248047 C 70.84030914306641 11.44333648681641 66.34834289550781 8.414566040039062 61.34736633300781 6.299331665039062 C 56.17134094238281 4.11004638671875 50.67128372192383 2.999992370605469 44.99999618530273 2.999992370605469 M 44.99999618530273 -7.62939453125e-06 C 69.85281372070312 -7.62939453125e-06 90 20.14717864990234 90 44.99999237060547 C 90 69.85279083251953 69.85281372070312 89.99997711181641 44.99999618530273 89.99997711181641 C 20.14717864990234 89.99997711181641 -7.62939453125e-06 69.85279083251953 -7.62939453125e-06 44.99999237060547 C -7.62939453125e-06 20.14717864990234 20.14717864990234 -7.62939453125e-06 44.99999618530273 -7.62939453125e-06 Z" stroke="none" fill="#496406"/>
                            </g>
                          </g>
                        </g>
                      </g>
                    </g>
                  </g>
                </g>
              </g>
            </g>
          </g>
        </g>
      </g>
    </g>
    <g id="Filled_outline" data-name="Filled outline" transform="translate(221 778)">
      <circle id="Elipse_12711" data-name="Elipse 12711" cx="27" cy="27" r="27" transform="translate(5 5)" fill="#195c85"/>
      <circle id="Elipse_12712" data-name="Elipse 12712" cx="22" cy="22" r="22" transform="translate(10 10)" fill="#cdeef6"/>
      <path id="Trazado_1183092" data-name="Trazado 1183092" d="M17,41h5l2-2h4l4-1,3,2,1,4,3,3h3l2.851,2.851a21.992,21.992,0,0,1-32.3-7.578Z" fill="#8ec13f"/>
      <path id="Trazado_1183093" data-name="Trazado 1183093" d="M20,20h3l1,4,2,3,3,1v3l-5,1-4,3-4-1-3,2-2.464.821a21.978,21.978,0,0,1,5.331-19.773Z" fill="#8ec13f"/>
      <path id="Trazado_1183094" data-name="Trazado 1183094" d="M32,10A22,22,0,0,1,51.044,43.009L51,43l-4-3-5,1-3-4,3-2,1-4-4-1-1-4-3,1-4-2,1-4-3-4-4-1-3.891-3.112A21.883,21.883,0,0,1,32,10Z" fill="#8ec13f"/>
      <g id="Grupo_1227695" data-name="Grupo 1227695">
        <path id="Trazado_1183095" data-name="Trazado 1183095" d="M48.5,60.865l-1-1.73A28.985,28.985,0,0,0,59.144,46.58l1.8.867A30.966,30.966,0,0,1,48.5,60.865Z" fill="#32b1cc"/>
        <path id="Trazado_1183096" data-name="Trazado 1183096" d="M3.9,18.434l-1.8-.868A31.191,31.191,0,0,1,16.611,3.054l.868,1.8A29.177,29.177,0,0,0,3.9,18.434Z" fill="#32b1cc"/>
        <path id="Trazado_1183097" data-name="Trazado 1183097" d="M2,20H4v2H2Z" fill="#32b1cc"/>
        <path id="Trazado_1183098" data-name="Trazado 1183098" d="M60,43.014h2v2H60Z" fill="#32b1cc"/>
        <path id="Trazado_1183099" data-name="Trazado 1183099" d="M44,60h2v2H44Z" fill="#32b1cc"/>
      </g>
      <circle id="Elipse_12713" data-name="Elipse 12713" cx="10" cy="10" r="10" transform="translate(41 3)" fill="#ffd782"/>
      <path id="Trazado_1183100" data-name="Trazado 1183100" d="M55,18H46V16h8V14H47a1,1,0,0,1-1-1V9a1,1,0,0,1,1-1h9v2H48v2h7a1,1,0,0,1,1,1v4A1,1,0,0,1,55,18Z" fill="#394d5c"/>
      <path id="Trazado_1183101" data-name="Trazado 1183101" d="M50,6h2V20H50Z" fill="#394d5c"/>
      <circle id="Elipse_12714" data-name="Elipse 12714" cx="10" cy="10" r="10" transform="translate(3 41)" fill="#ffd782"/>
      <path id="Trazado_1183102" data-name="Trazado 1183102" d="M17,56H8V54h8V52H9a1,1,0,0,1-1-1V47a1,1,0,0,1,1-1h9v2H10v2h7a1,1,0,0,1,1,1v4A1,1,0,0,1,17,56Z" fill="#394d5c"/>
      <path id="Trazado_1183103" data-name="Trazado 1183103" d="M12,44h2V58H12Z" fill="#394d5c"/>
      <path id="Trazado_1183104" data-name="Trazado 1183104" d="M52,6H50V8H47a1,1,0,0,0-1,1v4a1,1,0,0,0,1,1h3v2H46v2h4v2h2V18h3a1,1,0,0,0,1-1V13a1,1,0,0,0-1-1H52V10h4V8H52Zm-2,6H48V10h2Zm4,2v2H52V14Z"/>
      <path id="Trazado_1183105" data-name="Trazado 1183105" d="M14,44H12v2H9a1,1,0,0,0-1,1v4a1,1,0,0,0,1,1h3v2H8v2h4v2h2V56h3a1,1,0,0,0,1-1V51a1,1,0,0,0-1-1H14V48h4V46H14Zm-2,6H10V48h2Zm4,2v2H14V52Z"/>
      <path id="Trazado_1183106" data-name="Trazado 1183106" d="M51,2a10.98,10.98,0,0,0-8.513,4.044A27.66,27.66,0,0,0,32,4,28.032,28.032,0,0,0,4,32,27.66,27.66,0,0,0,6.043,42.488,10.994,10.994,0,1,0,21.512,57.957,27.66,27.66,0,0,0,32,60,28.032,28.032,0,0,0,60,32a27.66,27.66,0,0,0-2.043-10.488A10.994,10.994,0,0,0,51,2ZM6,32A26.029,26.029,0,0,1,32,6a25.707,25.707,0,0,1,9.345,1.735,10.978,10.978,0,0,0-1.059,2.808A22.7,22.7,0,0,0,32,9,23.025,23.025,0,0,0,9,32a22.7,22.7,0,0,0,1.543,8.286,10.978,10.978,0,0,0-2.808,1.059A25.707,25.707,0,0,1,6,32ZM19.305,42H22a1,1,0,0,0,.707-.293L24.414,40H28a.984.984,0,0,0,.242-.03l3.571-.893,2.311,1.54.906,3.625a1,1,0,0,0,.263.465l3,3A1,1,0,0,0,39,48h2.586l1.688,1.688A20.867,20.867,0,0,1,23.98,51.4c0-.134.02-.265.02-.4A10.99,10.99,0,0,0,19.305,42Zm23.4,4.293A1,1,0,0,0,42,46H39.414L36.9,43.488l-.933-3.73a1,1,0,0,0-.415-.59l-3-2a1,1,0,0,0-.8-.138L27.877,38H24a1,1,0,0,0-.707.293L21.586,40H17a.985.985,0,0,0-.271.038l-1.067.3A10.975,10.975,0,0,0,13,40c-.135,0-.266.015-.4.02a20.61,20.61,0,0,1-.879-2.54l1.6-.532a.96.96,0,0,0,.239-.116l2.632-1.755,3.571.893a1,1,0,0,0,.842-.17l3.819-2.863L29.2,31.98A1,1,0,0,0,30,31V28a1,1,0,0,0-.684-.948l-2.674-.892-1.714-2.57-.958-3.832A1,1,0,0,0,23,19H20.32l-2.906-2.076a21.177,21.177,0,0,1,3.632-2.806l3.329,2.663a.983.983,0,0,0,.383.189l3.655.914,2.5,3.335-.884,3.539a1,1,0,0,0,.523,1.137l4,2a.978.978,0,0,0,.763.053l1.976-.658.738,2.952a1,1,0,0,0,.728.728l3.029.758-.663,2.655-2.679,1.785A1,1,0,0,0,38.2,37.6l3,4a1,1,0,0,0,1,.38l4.562-.912,2.933,2.2a21.117,21.117,0,0,1-4.763,5.246ZM11.294,35.515A21.214,21.214,0,0,1,11,32a20.891,20.891,0,0,1,5.033-13.6l3.386,2.418A.994.994,0,0,0,20,21h2.219l.811,3.242a1,1,0,0,0,.138.313l2,3a1,1,0,0,0,.516.393L28,28.721v1.46l-4.2.839a.99.99,0,0,0-.4.18l-3.619,2.714-3.539-.884a.991.991,0,0,0-.8.138l-2.888,1.926ZM47.6,39.2a1,1,0,0,0-.8-.18l-4.382.876-1.987-2.65,2.12-1.414a1,1,0,0,0,.415-.59l1-4a1,1,0,0,0-.728-1.212l-3.418-.854-.854-3.418a1,1,0,0,0-1.286-.706l-2.607.868-2.912-1.456.8-3.222a1,1,0,0,0-.17-.842l-3-4a1,1,0,0,0-.558-.37l-3.788-.947-2.5-2A20.813,20.813,0,0,1,40.02,12.6c-.005.134-.02.265-.02.4A11.013,11.013,0,0,0,51,24c.135,0,.266-.015.4-.02a20.85,20.85,0,0,1-.706,17.541ZM13,60a9,9,0,1,1,9-9,9,9,0,0,1-9,9ZM58,32A26.029,26.029,0,0,1,32,58a25.707,25.707,0,0,1-9.345-1.735,10.978,10.978,0,0,0,1.059-2.808A22.7,22.7,0,0,0,32,55,23.025,23.025,0,0,0,55,32a22.7,22.7,0,0,0-1.543-8.286,10.978,10.978,0,0,0,2.808-1.059A25.707,25.707,0,0,1,58,32ZM51,22a9,9,0,1,1,9-9A9,9,0,0,1,51,22Z"/>
      <path id="Trazado_1183107" data-name="Trazado 1183107" d="M60.946,47.447l-1.8-.867A28.985,28.985,0,0,1,47.5,59.135l1,1.73A30.966,30.966,0,0,0,60.946,47.447Z"/>
      <path id="Trazado_1183108" data-name="Trazado 1183108" d="M17.479,4.856l-.868-1.8A31.191,31.191,0,0,0,2.1,17.566l1.8.868A29.177,29.177,0,0,1,17.479,4.856Z"/>
      <path id="Trazado_1183109" data-name="Trazado 1183109" d="M2,20H4v2H2Z"/>
      <path id="Trazado_1183110" data-name="Trazado 1183110" d="M60,43.014h2v2H60Z"/>
      <path id="Trazado_1183111" data-name="Trazado 1183111" d="M44,60h2v2H44Z"/>
    </g>
  </g>
</svg>
