<svg xmlns="http://www.w3.org/2000/svg" xmlns:xlink="http://www.w3.org/1999/xlink" width="190" height="191" viewBox="0 0 190 191">
  <defs>
    <clipPath id="clip-path">
      <rect id="Rectángulo_421760" data-name="Rectángulo 421760" width="190" height="175" fill="#fff" stroke="#707070" stroke-width="1" opacity="0.76"/>
    </clipPath>
    <linearGradient id="linear-gradient" x1="0.902" y1="-0.145" x2="0.398" y2="0.664" gradientUnits="objectBoundingBox">
      <stop offset="0" stop-color="#fff"/>
      <stop offset="0.249" stop-color="#e8f2f2"/>
      <stop offset="0.744" stop-color="#c0dada"/>
      <stop offset="1" stop-color="#b0d1d1"/>
    </linearGradient>
  </defs>
  <g id="Grupo_1226937" data-name="Grupo 1226937" transform="translate(0 16)">
    <rect id="Rectángulo_421761" data-name="Rectángulo 421761" width="99" height="191" transform="translate(6 -16)" fill="#c1f0fa"/>
    <g id="Enmascarar_grupo_1211509" data-name="Enmascarar grupo 1211509" clip-path="url(#clip-path)">
      <g id="Layer_5" transform="translate(7 2.498)">
        <g id="Grupo_1226297" data-name="Grupo 1226297">
          <path id="Trazado_1179135" data-name="Trazado 1179135" d="M316.724,2292.9h167.9a1.829,1.829,0,0,0,1.823-1.823V2286.4a1.829,1.829,0,0,0-1.823-1.823h-167.9a1.829,1.829,0,0,0-1.823,1.823v4.677A1.829,1.829,0,0,0,316.724,2292.9Z" transform="translate(-314.901 -2120.794)" fill="#410b80"/>
          <path id="Trazado_1179136" data-name="Trazado 1179136" d="M749.241,1478.747c0,16.15.26,16.147.26,16.147H850.785s-1.861-55.677-6.136-66.326c-2.552-6.361-6.937-8.2-11.886-8.994-3.882-.626-8.112-.614-12.077-1.648-4.059-1.059-7.707-1.772-10.034-2.278-7.5-1.632-10.64.071-10.64.071a70.755,70.755,0,0,0-7.645.062,80.167,80.167,0,0,0-14.712,2.555h0a39.041,39.041,0,0,0-10.7,4.309C756.532,1429.523,749.236,1452.443,749.241,1478.747Z" transform="translate(-718.834 -1330.43)" fill="#9a44ff"/>
          <path id="Trazado_1179137" data-name="Trazado 1179137" d="M1088.434,1423.958c7.994.871,14.76-1.044,15.113-4.276a2.83,2.83,0,0,0-.427-1.756c-4.059-1.059-7.707-1.772-10.034-2.278-7.5-1.632-10.64.071-10.64.071a70.755,70.755,0,0,0-7.645.062,2.52,2.52,0,0,0-.2.745C1074.245,1419.759,1080.44,1423.087,1088.434,1423.958Z" transform="translate(-1001.266 -1330.43)" fill="#410b80"/>
          <path id="Trazado_1179138" data-name="Trazado 1179138" d="M1551.5,1512.609c0,16.15.26,16.147.26,16.147h21.41c.2-7.1.819-32.888-.24-39.976-2.158-14.456-.282-25.889,6.984-36.581a39.036,39.036,0,0,0-10.7,4.309C1558.791,1463.385,1551.5,1486.3,1551.5,1512.609Z" transform="translate(-1521.093 -1364.292)" fill="#8115ff"/>
          <path id="Trazado_1179139" data-name="Trazado 1179139" d="M750.883,1541.09h16.38s-1.861-55.677-6.136-66.326c-2.552-6.361-6.937-8.2-11.886-8.994,1.746,6.234,4.54,17.285,4.42,23.752-.174,9.376-1.315,11.459-1.265,16.669C752.438,1510.59,751.252,1533.939,750.883,1541.09Z" transform="translate(-635.311 -1376.625)" fill="#8115ff"/>
          <path id="Trazado_1179140" data-name="Trazado 1179140" d="M545.182,1628.129s2.67-.521,3.19,1.823-1.3,2.344,0,5.469,14.064,29.43,13.543,44.015-17.906,14.845-25.04,9.115-7.5-51.047-7.9-54.172-.742-6.87,3.727-6.3a87.329,87.329,0,0,0,12.478.049" transform="translate(-409.882 -1524.087)" fill="#8115ff"/>
          <path id="Trazado_1179141" data-name="Trazado 1179141" d="M811.745,1688.546c-7.134-5.73-7.5-51.047-7.9-54.172s-.742-6.87,3.727-6.3" transform="translate(-684.751 -1524.081)" fill="none" stroke="#003373" stroke-linecap="round" stroke-miterlimit="10" stroke-width="2"/>
          <path id="Trazado_1179142" data-name="Trazado 1179142" d="M799.037,1707.92c2.4,1.657,8.249.893,8.249.893" transform="translate(-679.873 -1596.702)" fill="none" stroke="#003373" stroke-linecap="round" stroke-miterlimit="10" stroke-width="2"/>
          <path id="Trazado_1179143" data-name="Trazado 1179143" d="M877.752,1049.712s1.33-1.884,3.878,0-1.572,10.376-3.878,12.744-3.546,0-3.546,0Z" transform="translate(-761.875 -997.732)" fill="#f4a58e"/>
          <path id="Trazado_1179144" data-name="Trazado 1179144" d="M1416.512,1049.712s-1.33-1.884-3.879,0,1.572,10.376,3.879,12.744,3.546,0,3.546,0Z" transform="translate(-1348.505 -997.732)" fill="#f4a58e"/>
          <path id="Trazado_1179145" data-name="Trazado 1179145" d="M1105.39,1292.689s1.134,3.242,9.561,4.861,11.668-1.782,11.668-1.782a21.08,21.08,0,0,1-.057-3.209c.011-.561.029-1.215.057-1.977a98.011,98.011,0,0,1,1.134-10.21l-20.094-2.593-.972,6.386v0Z" transform="translate(-1028.267 -1205.771)" fill="#ffbb9a"/>
          <path id="Trazado_1179146" data-name="Trazado 1179146" d="M1105.39,1284.166c.018-.047.338-.513,5.508,1.555,4.285,1.714,11.528,5.382,14.366,6.838.011-.561.029-1.215.057-1.977a98.011,98.011,0,0,1,1.134-10.21l-20.094-2.593Z" transform="translate(-1026.969 -1205.772)" fill="#b22e2e" opacity="0.65"/>
          <path id="Trazado_1179147" data-name="Trazado 1179147" d="M949.883,793.046s-1.921,24.823-7.388,31.619-17.531,8.9-22.163,8.126c-6.206-1.034-17.175-6.552-19.651-17.813-1.779-8.092-2.069-30.5,0-32.941s36.5-4.653,41.962-2.289S949.883,793.046,949.883,793.046Z" transform="translate(-831.604 -752.221)" fill="#ffbb9a"/>
          <path id="Trazado_1179148" data-name="Trazado 1179148" d="M661.136,1136.252c.106,2.925-.38,6.207.835,9.124a35.075,35.075,0,0,0,3.678,6.2v5.712a31.177,31.177,0,0,0,8.6-.607,28.643,28.643,0,0,0,5.348-1.945s.085-.986.267-2.385a32.036,32.036,0,0,1,1.8-7.825c1.458-3.16,2.8-6.822,2.674-8.272s-1.823-2.3-1.823-2.3a21.3,21.3,0,0,0-.543-5.088c-.551-1.475-1.767-3.3-1.28-9.253s3.662-10.453,3.654-11.911-4.018-2.552-6.449-1.459-4.74,8.265-5.226,11.061a38.525,38.525,0,0,0,0,7.778s-7.292-.973-8.144-.486-.85,1.823-.85,1.823a3.687,3.687,0,0,0-3.525-1.945c-2.43.243-2.795,2.675-2.066,4.983S661.03,1133.327,661.136,1136.252Z" transform="translate(-544.051 -1049.464)" fill="#ffbb9a"/>
          <g id="Grupo_1226287" data-name="Grupo 1226287" transform="translate(124.923 87.674)" opacity="0.83">
            <path id="Trazado_1179149" data-name="Trazado 1179149" d="M722.878,1457.465a3.427,3.427,0,0,1-1.051.829,2.744,2.744,0,0,1-.627.226,2.351,2.351,0,0,1-.66.042c-.055,0-.11-.008-.165-.014l-.162-.034c-.054-.013-.108-.02-.161-.037l-.161-.048a6.014,6.014,0,0,1-.628-.228,3.275,3.275,0,0,1-.579-.318,1.771,1.771,0,0,1-.248-.207,1.086,1.086,0,0,1-.1-.119.651.651,0,0,1-.043-.063.41.41,0,0,1-.03-.057l-.154-.38-.017.407a9.114,9.114,0,0,1-.168,1.385,6.274,6.274,0,0,1-.408,1.323,2.529,2.529,0,0,1-.807,1.058,1.493,1.493,0,0,1-.6.245l-.162.02-.17.007a3.262,3.262,0,0,1-.337-.015,2.154,2.154,0,0,1-1.21-.508,3.171,3.171,0,0,1-.786-1.091,6.759,6.759,0,0,1-.438-1.311q-.079-.339-.138-.684c-.038-.23-.075-.463-.09-.689l-.015-.171c0-.057,0-.114,0-.171l0-.171a1.171,1.171,0,0,1,.008-.171l.035-.342.067-.338a5.664,5.664,0,0,1,.481-1.291,8.325,8.325,0,0,1,.764-1.161,10.627,10.627,0,0,1,.95-1.026,14,14,0,0,1,2.24-1.688,9.821,9.821,0,0,1,1.249-.646c.215-.093.437-.172.66-.244a3.676,3.676,0,0,1,.687-.154,3.7,3.7,0,0,0-.7.122,6.15,6.15,0,0,0-.674.22,9.922,9.922,0,0,0-1.282.607c-.208.114-.409.239-.61.363-.1.063-.2.131-.3.2s-.2.132-.291.2l-.287.209-.279.22-.139.111-.135.116c-.09.078-.181.153-.269.233a10.8,10.8,0,0,0-.991,1.026,7.854,7.854,0,0,0-.808,1.183,5.911,5.911,0,0,0-.518,1.344,4.459,4.459,0,0,0-.114,1.442c.015.244.052.477.09.712s.085.469.139.7a6.886,6.886,0,0,0,.453,1.366,3.435,3.435,0,0,0,.86,1.179,2.363,2.363,0,0,0,.635.389,2.548,2.548,0,0,0,.721.176,3.238,3.238,0,0,0,.369.014l.183-.009.188-.025a1.747,1.747,0,0,0,.7-.294,2.241,2.241,0,0,0,.522-.53,3.552,3.552,0,0,0,.357-.637,6.278,6.278,0,0,0,.4-1.38,9.3,9.3,0,0,0,.142-1.421l-.171.026a.53.53,0,0,0,.048.093.816.816,0,0,0,.054.076,1.253,1.253,0,0,0,.121.134,1.912,1.912,0,0,0,.275.221,3.427,3.427,0,0,0,.613.32,5.329,5.329,0,0,0,.65.217l.165.043c.055.015.113.021.17.033l.171.03c.057,0,.115.006.173.009a2.448,2.448,0,0,0,.684-.068,2.817,2.817,0,0,0,.635-.255,3.094,3.094,0,0,0,.558-.389A3.325,3.325,0,0,0,722.878,1457.465Z" transform="translate(-712.501 -1449.632)" fill="#b22e2e"/>
          </g>
          <g id="Grupo_1226288" data-name="Grupo 1226288" transform="translate(120.518 81.826)">
            <path id="Trazado_1179150" data-name="Trazado 1179150" d="M728.154,1400.434l.052-.269a7.289,7.289,0,0,1-2.421-1c-1.032-.723-2.21-3.669-2.1-4.845a19.392,19.392,0,0,1,1.962-4.416c1.249-2.243,2.4-3.74,3.083-4,1.616-.625,8.4.749,8.464.765h0c-.28-.069-6.868-1.676-8.563-1.021-1.761.681-5.107,7.423-5.219,8.65-.115,1.265,1.106,4.315,2.218,5.094A7.448,7.448,0,0,0,728.154,1400.434Z" transform="translate(-723.402 -1385.485)" fill="#b22e2e"/>
          </g>
          <g id="Grupo_1226289" data-name="Grupo 1226289" transform="translate(118.276 74.936)">
            <path id="Trazado_1179151" data-name="Trazado 1179151" d="M752.221,1323.524a4.833,4.833,0,0,1-1.421-.746,3.7,3.7,0,0,1-1.043-1.208,3.194,3.194,0,0,1-.28-.75,4.182,4.182,0,0,1-.087-.8,13.5,13.5,0,0,1,.077-1.633c.109-1.088.286-2.171.485-3.248s.427-2.15.678-3.217v-.01a2.46,2.46,0,0,1,.362-1.181,1.6,1.6,0,0,1,.987-.7,2.207,2.207,0,0,1,.622-.057c.208.009.42.039.631.062.422.048.844.091,1.267.133,1.691.165,3.383.3,5.078.42h0l3.338.542-3.334-.565h0c-1.693-.13-3.385-.278-5.073-.455-.422-.045-.844-.091-1.265-.142-.211-.024-.42-.055-.636-.067a2.283,2.283,0,0,0-.642.054,1.683,1.683,0,0,0-1.04.732,2.28,2.28,0,0,0-.27.588,2.673,2.673,0,0,0-.114.637v-.01q-.389,1.6-.7,3.217c-.207,1.078-.391,2.161-.508,3.255a13.725,13.725,0,0,0-.089,1.651,4.337,4.337,0,0,0,.085.832,3.362,3.362,0,0,0,.288.789,3.87,3.87,0,0,0,1.081,1.27,4.994,4.994,0,0,0,1.474.785Z" transform="translate(-749.241 -1309.894)" fill="#b22e2e"/>
          </g>
          <path id="Trazado_1179152" data-name="Trazado 1179152" d="M953.239,840.39s-1.773-6.871-5.652-8.089-3.879.665-6.981,1.884-4.987.222-6.76,1.108-4.654,4.322-8.865,3.657a8.308,8.308,0,0,1-6.76-5.208c-.665-1.773-1.81.222-2.955,1.441s-2.418,1.839-4.581.222-3.662-.416-5.541,1.773-2.013,3.318-2.069,8.2-.923-3.878-.466-7.535a17.067,17.067,0,0,1,3.31-7.757l11.968-4.028s14.184-1.4,14.738-1.4h18.4Z" transform="translate(-835.256 -793.95)" fill="#f4a58e"/>
          <g id="Grupo_1226292" data-name="Grupo 1226292" transform="translate(61.23 6.397)">
            <path id="Trazado_1179153" data-name="Trazado 1179153" d="M861.967,578.836c.3,3.4,3.546,6.5,3.4,7.092s-1.33,1.478-1.33,2.808,1.182,2.807,1.921,4.136-.443,1.774,0,3.434,1.071,1,1.219,2.181c.022.18.062.413.111.677.273,1.467.874,3.915.874,3.915s.456-.714.456-4.26c0-1.779.443-6.538,3.251-6.981s5.171-1.33,5.762,0,2.365,1.034,3.251-.443,1.921-1.921,2.807,0a8.671,8.671,0,0,0,9.013,3.989c4.432-.887,5.614-4.876,8.57-4.433a7.232,7.232,0,0,0,6.649-2.069c1.625-1.625,4.728-1.33,6.8,0s3.4,5.172,3.251,9.6a38.313,38.313,0,0,1-.589,6.349c.072-.17,2.367-5.631,2.658-6.94a3.543,3.543,0,0,1,.868-1.375,5.911,5.911,0,0,0,1.5-4.24c0-3.693-2.512-5.466-2.069-6.944a8.807,8.807,0,0,0,.332-1.627h0a22.5,22.5,0,0,0-.332-5.612c-1.034-6.945-9.16-11.377-12.116-11.821s-.886,1.035-4.875,1.183-12.412-9.6-15.366-9.456-3.841,2.216-3.841,4.58-3.186,4.11-10.2,1.773c-7.092-2.364-8.708.925-8.57,4.137.16,3.717,2.217,4.137,1.33,5.171S861.671,575.437,861.967,578.836Z" transform="translate(-861.952 -558.001)" fill="#003373"/>
            <g id="Grupo_1226290" data-name="Grupo 1226290" transform="translate(34.097 4.533)">
              <path id="Trazado_1179154" data-name="Trazado 1179154" d="M899.467,628.9a10.318,10.318,0,0,0,.5-2.4c.041-.408.06-.819.062-1.229s-.017-.821-.048-1.231a14.731,14.731,0,0,0-1.257-4.749,17.757,17.757,0,0,0-2.656-4.144,16.649,16.649,0,0,0-3.645-3.314,11.262,11.262,0,0,0-2.209-1.119,8.853,8.853,0,0,0-2.418-.546,6.7,6.7,0,0,0-1.246.019,4.035,4.035,0,0,0-1.219.308,12.619,12.619,0,0,1-2.145,1.145,4.911,4.911,0,0,1-1.189.171h-.455l-.152-.008-.3-.015-.3-.028a3.517,3.517,0,0,1-.6-.089,2.791,2.791,0,0,1-.289-.083c-.1-.033-.191-.062-.284-.1a7.168,7.168,0,0,1-1.083-.551c-.177-.1-.343-.218-.515-.328s-.336-.231-.5-.358l-.243-.186-.237-.193c-.16-.127-.312-.264-.465-.4a19.507,19.507,0,0,1-1.72-1.746,17.728,17.728,0,0,0,1.676,1.795c.151.139.3.279.458.41l.234.2.24.192c.158.131.328.247.491.372s.336.237.513.343a7.158,7.158,0,0,0,1.094.577c.094.043.193.076.291.111a2.949,2.949,0,0,0,.3.091,3.682,3.682,0,0,0,.615.1l.307.032.309.02.154.01.155,0,.31,0a5.1,5.1,0,0,0,1.237-.161,3.851,3.851,0,0,0,.591-.216,5.981,5.981,0,0,0,.547-.3,11.4,11.4,0,0,1,1.045-.617,3.83,3.83,0,0,1,1.153-.284,6.477,6.477,0,0,1,1.2-.012,8.617,8.617,0,0,1,2.352.543,10.605,10.605,0,0,1,1.108.492c.177.1.359.187.532.293l.261.154.256.164a16.421,16.421,0,0,1,3.607,3.251,18.316,18.316,0,0,1,2.655,4.078,14.629,14.629,0,0,1,1.31,4.681c.04.405.071.812.075,1.22s0,.816-.034,1.223-.079.813-.15,1.215A8.465,8.465,0,0,1,899.467,628.9Z" transform="translate(-874.855 -607.724)" fill="#003373"/>
            </g>
            <g id="Grupo_1226291" data-name="Grupo 1226291" transform="translate(2.48 4.785)">
              <path id="Trazado_1179155" data-name="Trazado 1179155" d="M1328.133,612.469a4.706,4.706,0,0,1-.8.193,6.3,6.3,0,0,1-.819.082,7.242,7.242,0,0,1-1.636-.123,12.123,12.123,0,0,1-1.584-.44l-1.572-.517a31.959,31.959,0,0,0-3.2-.884,14.207,14.207,0,0,0-1.648-.254c-.278-.025-.557-.036-.838-.037a6.453,6.453,0,0,0-.842.062l-.209.037c-.069.014-.139.032-.208.048-.137.034-.269.077-.4.116a7.562,7.562,0,0,0-.789.288,5.036,5.036,0,0,0-.748.4c-.06.038-.115.084-.173.126s-.117.082-.169.131a3.072,3.072,0,0,0-.306.3,3.654,3.654,0,0,0-.785,1.5,8.246,8.246,0,0,0-.26,1.652,11.328,11.328,0,0,0,0,1.666c.009.139.031.277.046.416s.042.276.077.412a4.564,4.564,0,0,0,.252.8c.213.517.522.981.771,1.468a2.1,2.1,0,0,1,.234.777,1.163,1.163,0,0,1-.044.4.773.773,0,0,1-.211.348.785.785,0,0,0,.229-.342,1.192,1.192,0,0,0,.063-.411,2.146,2.146,0,0,0-.212-.8c-.236-.5-.527-.973-.718-1.485a4.578,4.578,0,0,1-.228-.782c-.031-.132-.045-.268-.067-.4s-.03-.271-.037-.407a11.162,11.162,0,0,1,.039-1.639l.043-.408.06-.4c.021-.135.051-.267.076-.4s.067-.262.1-.394a3.426,3.426,0,0,1,.75-1.4,1.216,1.216,0,0,1,.139-.142l.147-.134c.048-.046.106-.081.158-.122s.105-.082.162-.117a4.811,4.811,0,0,1,.712-.375,7.361,7.361,0,0,1,.765-.276c.131-.037.262-.079.392-.111.065-.015.13-.031.2-.045l.2-.034a6.19,6.19,0,0,1,.807-.062c.271,0,.543.01.815.033a14.74,14.74,0,0,1,1.622.242c1.075.215,2.134.521,3.189.835l1.582.484a11.924,11.924,0,0,0,1.611.41,7.335,7.335,0,0,0,1.66.069A5.582,5.582,0,0,0,1328.133,612.469Z" transform="translate(-1311.11 -610.49)" fill="#003373"/>
            </g>
            <path id="Trazado_1179156" data-name="Trazado 1179156" d="M1070.323,720.525a13.171,13.171,0,0,1-2.286.514,14.326,14.326,0,0,1-2.334.14c-.195,0-.389-.012-.583-.022s-.389-.016-.582-.042l-.58-.065c-.192-.028-.383-.066-.575-.1l-.287-.05c-.095-.02-.189-.045-.283-.068l-.566-.138c-.186-.055-.37-.117-.555-.176s-.37-.116-.553-.186c-1.466-.542-2.921-1.123-4.381-1.694q-1.1-.427-2.2-.827c-.74-.264-1.486-.515-2.249-.724-.382-.1-.768-.194-1.162-.26a4.322,4.322,0,0,0-1.218-.059,1.317,1.317,0,0,0-.623.23.826.826,0,0,0-.232.278c-.03.06-.046.1-.065.141s-.038.086-.06.128a3.69,3.69,0,0,1-.283.488,3.746,3.746,0,0,1-.349.443,3.463,3.463,0,0,1-.41.386,3.6,3.6,0,0,1-.464.32,3.944,3.944,0,0,1-1.049.417,5.854,5.854,0,0,1-2.279.045,10.666,10.666,0,0,1-2.227-.649l-.278-.1c-.092-.036-.185-.07-.281-.1l-.285-.088-.29-.071a5.017,5.017,0,0,0-1.186-.128,3.648,3.648,0,0,0-1.173.218,3.444,3.444,0,0,0-1.028.595,4.29,4.29,0,0,0-1.294,1.943,4.435,4.435,0,0,1,.552-1.03,4.681,4.681,0,0,1,.368-.452,3.969,3.969,0,0,1,.429-.392,3.338,3.338,0,0,1,1.014-.545,3.5,3.5,0,0,1,1.133-.174,4.949,4.949,0,0,1,1.141.147l.28.074.275.091c.092.028.182.064.272.1l.27.107a10.891,10.891,0,0,0,2.264.707,7.049,7.049,0,0,0,1.191.116,5.206,5.206,0,0,0,1.2-.129,4.244,4.244,0,0,0,1.132-.438,3.9,3.9,0,0,0,.506-.341,4.047,4.047,0,0,0,.83-.89,4,4,0,0,0,.307-.527c.023-.045.045-.091.065-.138s.043-.1.058-.125a.5.5,0,0,1,.142-.168,1.006,1.006,0,0,1,.47-.165,4.021,4.021,0,0,1,1.121.061c.378.064.755.155,1.13.256.749.2,1.49.45,2.227.71s1.468.537,2.2.814c1.465.552,2.923,1.131,4.409,1.641.184.066.375.121.564.178s.378.116.569.168l.578.13c.1.021.192.045.289.063l.293.046c.2.029.39.064.585.088l.589.055c.2.023.394.023.59.031s.394.019.591.009a14.456,14.456,0,0,0,2.348-.215c.387-.065.771-.149,1.152-.244A11.28,11.28,0,0,0,1070.323,720.525Z" transform="translate(-1025.748 -702.277)" fill="#008673" opacity="0.32"/>
          </g>
          <path id="Trazado_1179157" data-name="Trazado 1179157" d="M877.576,851.935v3.411c.273,1.467.874,3.915.874,3.915s.456-.714.456-4.26c0-1.779.443-6.538,3.25-6.981s5.171-1.33,5.762,0,2.365,1.034,3.251-.443,1.921-1.921,2.807,0a8.671,8.671,0,0,0,9.013,3.989c4.432-.887,5.614-4.876,8.57-4.433a7.232,7.232,0,0,0,6.649-2.069c1.625-1.625,4.728-1.33,6.8,0s3.4,5.172,3.25,9.6a38.319,38.319,0,0,1-.589,6.349c.071-.17,2.367-5.631,2.658-6.94a3.544,3.544,0,0,1,.868-1.376,9.645,9.645,0,0,0-.056-2.762A14.169,14.169,0,0,0,928.7,844.1s.961-1.995,0-2.143-1.625.591-2.217-.295-2.807-1.924-6.649-1.775-3.989,1.7-7.757,3.1-7.536-1.33-7.536-1.33,1.035,5.1-3.472,5.54-5.467-3.915-7.9-3.325-2.2,3.694-3.537,3.768-1.93-1.626-5.919-.887-4.506,1.773-5.319,3.472Z" transform="translate(-811.011 -807.785)" fill="#002769" opacity="0.4"/>
          <path id="Trazado_1179158" data-name="Trazado 1179158" d="M706.9,1621.447a31.166,31.166,0,0,0,8.6-.607,28.63,28.63,0,0,0,5.348-1.945s.085-.985.267-2.385a19.537,19.537,0,0,1-7.8,3.9A36.687,36.687,0,0,1,706.9,1621.447Z" transform="translate(-585.303 -1513.624)" fill="#b22e2e" opacity="0.65"/>
          <path id="Trazado_1179159" data-name="Trazado 1179159" d="M1088.765,1163.817q.246.216.515.418a9.572,9.572,0,0,0,2.592,1.372,12.384,12.384,0,0,0,5.8.72c.079-.011.158-.022.235-.035h0c4.118-.658,6.984-3.811,8.246-7.828a4.891,4.891,0,0,1-2.208.172,17.769,17.769,0,0,1-2.7-.431c-3.547-.816-13.775-4.7-14.872-5.037a.6.6,0,0,0-.088-.023c-.333-.038-.518-.666-.776-.666C1085.293,1152.48,1084.2,1159.821,1088.765,1163.817Z" transform="translate(-1004.835 -1091.893)" fill="#c50000"/>
          <path id="Trazado_1179160" data-name="Trazado 1179160" d="M1109.463,1160.03a3.259,3.259,0,0,0,2.017,2.526c2.365,1.108,12.264,3.952,13.446,3.756a7.98,7.98,0,0,0,2.114-.813,17.9,17.9,0,0,1-2.7-.431C1120.788,1164.251,1110.56,1160.368,1109.463,1160.03Z" transform="translate(-1027.924 -1098.755)" fill="#e5ffff"/>
          <path id="Trazado_1179161" data-name="Trazado 1179161" d="M970.386,966.189a15.957,15.957,0,0,0-5.449-2.922c-2.671-.619-3.686.516-3.793,0s1.229-2.028,5.182-1.513A4.639,4.639,0,0,1,970.386,966.189Z" transform="translate(-857.751 -918.457)" fill="#002264"/>
          <path id="Trazado_1179162" data-name="Trazado 1179162" d="M1290.677,919.056a15.959,15.959,0,0,0-6.083-1.109c-2.732.231-3.35,1.622-3.61,1.164s.547-2.308,4.467-3.03A4.639,4.639,0,0,1,1290.677,919.056Z" transform="translate(-1207.193 -876.958)" fill="#002264"/>
          <ellipse id="Elipse_12648" data-name="Elipse 12648" cx="0.859" cy="1.552" rx="0.859" ry="1.552" transform="translate(103.388 53.231)" fill="#002264"/>
          <ellipse id="Elipse_12649" data-name="Elipse 12649" cx="0.859" cy="1.552" rx="0.859" ry="1.552" transform="translate(78.687 50.806)" fill="#002264"/>
          <g id="Grupo_1226295" data-name="Grupo 1226295" transform="translate(123.745 0)">
            <path id="Trazado_1179163" data-name="Trazado 1179163" d="M394.318,508.123c8.846,1.678,14.82,9.392,13.344,17.229-1.121,5.954-6.22,10.265-12.484,11.258l-.732,3.886a2.846,2.846,0,0,1-3.437,2.051l-6.13-1.163a2.855,2.855,0,0,1-2.454-3.168l.732-3.886c-5.471-3.219-8.65-9.1-7.529-15.055C377.1,511.437,385.472,506.445,394.318,508.123Z" transform="translate(-364.101 -495.6)" fill="#ffd12e"/>
            <g id="Grupo_1226293" data-name="Grupo 1226293" transform="translate(16.481 42.873)">
              <path id="Trazado_1179164" data-name="Trazado 1179164" d="M513.984,847.037l12,2.277a1.037,1.037,0,0,0,1.224-.8l.134-.713a1.039,1.039,0,0,0-.847-1.192l-12-2.277a1.037,1.037,0,0,0-1.224.8l-.134.713A1.038,1.038,0,0,0,513.984,847.037Z" transform="translate(-512.61 -844.312)" fill="#003373"/>
              <path id="Trazado_1179165" data-name="Trazado 1179165" d="M519.575,876.726l12,2.277a1.037,1.037,0,0,0,1.224-.8l.134-.713a1.038,1.038,0,0,0-.847-1.192l-12-2.277a1.037,1.037,0,0,0-1.224.8l-.134.713A1.039,1.039,0,0,0,519.575,876.726Z" transform="translate(-518.711 -871.295)" fill="#003373"/>
              <path id="Trazado_1179166" data-name="Trazado 1179166" d="M530.628,882.239l10.018,1.9a1.037,1.037,0,0,0,1.224-.8l.613-3.254a1.038,1.038,0,0,0-.847-1.192l-10.018-1.9a1.037,1.037,0,0,0-1.224.8l-.613,3.254A1.038,1.038,0,0,0,530.628,882.239Z" transform="translate(-529.266 -873.996)" fill="#003373"/>
              <path id="Trazado_1179167" data-name="Trazado 1179167" d="M579.223,914.444a2.334,2.334,0,0,0,.1,1.228,1.376,1.376,0,0,1,.246.024l3.614.686a1.372,1.372,0,0,1,.238.068,2.328,2.328,0,0,0,.537-1.108,2.408,2.408,0,0,0-4.732-.9Z" transform="translate(-575.267 -906.299)" fill="#003373"/>
              <line id="Línea_625" data-name="Línea 625" x1="11.855" y1="3.961" transform="translate(1.536 0.554)" fill="none" stroke="#ededed" stroke-linecap="round" stroke-linejoin="round" stroke-miterlimit="10" stroke-width="1.379" opacity="0.56"/>
              <line id="Línea_626" data-name="Línea 626" x1="11.855" y1="3.961" transform="translate(1.063 3.067)" fill="none" stroke="#ededed" stroke-linecap="round" stroke-linejoin="round" stroke-miterlimit="10" stroke-width="1.379" opacity="0.56"/>
            </g>
            <ellipse id="Elipse_12650" data-name="Elipse 12650" cx="11.466" cy="10.155" rx="11.466" ry="10.155" transform="translate(36.641 39.046) rotate(-168.977)" fill="#fff" opacity="0.16"/>
            <g id="Grupo_1226294" data-name="Grupo 1226294" transform="translate(21.886 24.36)">
              <path id="Trazado_1179168" data-name="Trazado 1179168" d="M490.556,659.309l.149.018c.057-.548,1.339-12.93.806-16.02a49.727,49.727,0,0,0,6.817,1.267c-1.721,2.468-5.412,14.2-5.59,15.144l.147.028c.178-.945,3.971-12.9,5.612-15.156a5.4,5.4,0,0,0,1.17.021c.526-.095.731-.369.748-.594a.426.426,0,0,0-.292-.43c-.153-.06-.719-.187-1.58.715a1.881,1.881,0,0,0-.124.146,50.857,50.857,0,0,1-6.939-1.292c-.016-.073-.033-.139-.051-.2-.52-1.672-1.422-1.752-1.685-1.737a.929.929,0,0,0-.885.856c-.006.1.058.2.191.3a8.011,8.011,0,0,0,2.3.885C491.911,646.232,490.57,659.174,490.556,659.309Zm-.589-17.94c.342.065.931.368,1.32,1.619.012.038.023.08.034.124a7.652,7.652,0,0,1-2.175-.832c-.065-.05-.141-.124-.137-.19a.794.794,0,0,1,.753-.736A.853.853,0,0,1,489.967,641.369Zm10.021,2.317a.45.45,0,0,1,.082.023.29.29,0,0,1,.2.294c-.013.17-.187.4-.635.478a4.811,4.811,0,0,1-1.036-.016c.022-.026.043-.05.065-.073C499.234,643.791,499.706,643.633,499.988,643.686Z" transform="translate(-488.859 -641.22)" fill="#003373"/>
            </g>
            <path id="Trazado_1179169" data-name="Trazado 1179169" d="M497.367,381.644s-.315-8.267,1.664-7.629C500.825,374.592,497.367,381.644,497.367,381.644Z" transform="translate(-466.877 -373.979)" fill="#003373"/>
            <path id="Trazado_1179170" data-name="Trazado 1179170" d="M313.811,494.385s5.9-6.12,6.967-4.487C321.745,491.377,313.811,494.385,313.811,494.385Z" transform="translate(-271.46 -479.079)" fill="#003373"/>
            <path id="Trazado_1179171" data-name="Trazado 1179171" d="M706.122,420.553s-3.172-7.887-4.773-6.774C699.9,414.787,706.122,420.553,706.122,420.553Z" transform="translate(-692.029 -410.053)" fill="#003373"/>
            <path id="Trazado_1179172" data-name="Trazado 1179172" d="M771.4,569.474s-8.121-4.286-8.452-2.471C762.653,568.648,771.4,569.474,771.4,569.474Z" transform="translate(-762.945 -549.001)" fill="#003373"/>
            <path id="Trazado_1179173" data-name="Trazado 1179173" d="M234.732,688.7s9.165,1.494,8.746-.337C243.1,686.7,234.732,688.7,234.732,688.7Z" transform="translate(-186.884 -659.107)" fill="#003373"/>
            <path id="Trazado_1179174" data-name="Trazado 1179174" d="M311.287,842.12s5.134,7.079,6.378,5.648C318.794,846.47,311.287,842.12,311.287,842.12Z" transform="translate(-268.151 -799.446)" fill="#003373"/>
            <path id="Trazado_1179175" data-name="Trazado 1179175" d="M759.6,792.127s-9.159.789-8.2,2.471C752.274,796.122,759.6,792.127,759.6,792.127Z" transform="translate(-750.086 -754.01)" fill="#003373"/>
          </g>
          <path id="Trazado_1179176" data-name="Trazado 1179176" d="M1178.29,1276.107q.246.216.515.418a9.579,9.579,0,0,0,2.592,1.372,12.384,12.384,0,0,0,5.8.72,14.269,14.269,0,0,0-3.888-2.095A12.9,12.9,0,0,0,1178.29,1276.107Z" transform="translate(-1094.36 -1204.183)" fill="#f77cff"/>
          <path id="Trazado_1179177" data-name="Trazado 1179177" d="M1222.52,2254.379h73.536a1.585,1.585,0,0,1,1.58,1.58h0a1.585,1.585,0,0,1-1.58,1.58H1222.52a1.585,1.585,0,0,1-1.58-1.58h0A1.584,1.584,0,0,1,1222.52,2254.379Z" transform="translate(-1208.684 -2093.348)" fill="#829d9d"/>
          <path id="Trazado_1179178" data-name="Trazado 1179178" d="M1222.767,1773.922h73.051a1.828,1.828,0,0,0,1.823-1.823v-46.281a1.828,1.828,0,0,0-1.823-1.823h-73.051a1.828,1.828,0,0,0-1.823,1.823V1772.1A1.829,1.829,0,0,0,1222.767,1773.922Z" transform="translate(-1208.688 -1611.312)" fill="#b0d1d1"/>
          <path id="Trazado_1179179" data-name="Trazado 1179179" d="M1236.53,1747.762a81.636,81.636,0,0,1,71.845,44.171,1.949,1.949,0,0,0,1.286-.561,1.778,1.778,0,0,0,.531-1.26v-42.27a1.87,1.87,0,0,0-1.9-1.823h-69.857A1.874,1.874,0,0,0,1236.53,1747.762Z" transform="translate(-1222.659 -1631.329)" opacity="0.35" fill="url(#linear-gradient)"/>
          <g id="Grupo_1226296" data-name="Grupo 1226296" transform="translate(89.92 59.582)">
            <path id="Trazado_1179180" data-name="Trazado 1179180" d="M1171.2,1143.294a.14.14,0,0,0,.127-.083.541.541,0,0,0-.026-.42c-.172-.4-.709-.766-1.595-1.081a2.407,2.407,0,0,0-1.862-.106.755.755,0,0,0-.392.437.137.137,0,0,0,.264.07.507.507,0,0,1,.266-.27,2.127,2.127,0,0,1,1.632.127c1.042.37,1.342.731,1.427.914a.307.307,0,0,1,.034.222.135.135,0,0,0,.07.179A.139.139,0,0,0,1171.2,1143.294Z" transform="translate(-1167.443 -1141.462)" fill="#f4a58e"/>
          </g>
        </g>
      </g>
    </g>
  </g>
</svg>
