<svg xmlns="http://www.w3.org/2000/svg" xmlns:xlink="http://www.w3.org/1999/xlink" width="103" height="103" viewBox="0 0 103 103">
  <defs>
    <filter id="Trazado_978624" x="0" y="0" width="103" height="103" filterUnits="userSpaceOnUse">
      <feOffset dy="3" input="SourceAlpha"/>
      <feGaussianBlur stdDeviation="3" result="blur"/>
      <feFlood flood-opacity="0.161"/>
      <feComposite operator="in" in2="blur"/>
      <feComposite in="SourceGraphic"/>
    </filter>
  </defs>
  <g id="Grupo_1227693" data-name="Grupo 1227693" transform="translate(-199.875 -3533)">
    <g id="Grupo_1226928" data-name="Grupo 1226928" transform="translate(28.875 -2095)">
      <g id="Grupo_1225491" data-name="Grupo 1225491" transform="translate(0 2547)">
        <g id="Grupo_1225104" data-name="Grupo 1225104" transform="translate(0 2068)">
          <g id="Grupo_1220654" data-name="Grupo 1220654" transform="translate(180 1019)">
            <g id="Grupo_1176881" data-name="Grupo 1176881">
              <g id="Grupo_1175148" data-name="Grupo 1175148">
                <g id="Grupo_1173798" data-name="Grupo 1173798">
                  <g id="Grupo_1171925" data-name="Grupo 1171925">
                    <g id="Grupo_1164524" data-name="Grupo 1164524">
                      <g id="Grupo_1144123" data-name="Grupo 1144123">
                        <g transform="matrix(1, 0, 0, 1, -9, -6)" filter="url(#Trazado_978624)">
                          <g id="Trazado_978624-2" data-name="Trazado 978624" transform="translate(9 6)" fill="#e9f9fd">
                            <path d="M 42.5 83.5 C 36.96437835693359 83.5 31.59512901306152 82.41617584228516 26.54141235351562 80.27863311767578 C 21.65934181213379 78.21369171142578 17.27447128295898 75.25723266601562 13.50862312316895 71.49137878417969 C 9.742764472961426 67.72553253173828 6.786305904388428 63.34066009521484 4.721364498138428 58.45858764648438 C 2.583823442459106 53.40486907958984 1.5 48.03562164306641 1.5 42.5 C 1.5 36.96437835693359 2.583823442459106 31.59512901306152 4.721364498138428 26.54141235351562 C 6.786305904388428 21.65934181213379 9.742764472961426 17.27447128295898 13.50862312316895 13.50862312316895 C 17.27447128295898 9.742764472961426 21.65934181213379 6.786305904388428 26.54141235351562 4.721364498138428 C 31.59512901306152 2.583823442459106 36.96437835693359 1.5 42.5 1.5 C 48.03562164306641 1.5 53.40486907958984 2.583823442459106 58.45858764648438 4.721364498138428 C 63.34066009521484 6.786305904388428 67.72553253173828 9.742764472961426 71.49137878417969 13.50862312316895 C 75.25723266601562 17.27447128295898 78.21369171142578 21.65934181213379 80.27863311767578 26.54141235351562 C 82.41617584228516 31.59512901306152 83.5 36.96437835693359 83.5 42.5 C 83.5 48.03562164306641 82.41617584228516 53.40486907958984 80.27863311767578 58.45858764648438 C 78.21369171142578 63.34066009521484 75.25723266601562 67.72553253173828 71.49137878417969 71.49137878417969 C 67.72553253173828 75.25723266601562 63.34066009521484 78.21369171142578 58.45858764648438 80.27863311767578 C 53.40486907958984 82.41617584228516 48.03562164306641 83.5 42.5 83.5 Z" stroke="none"/>
                            <path d="M 42.5 3 C 37.16621398925781 3 31.99356079101562 4.043960571289062 27.125732421875 6.102882385253906 C 22.42246627807617 8.092185974121094 18.19785308837891 10.94070434570312 14.56928253173828 14.56928253173828 C 10.94070434570312 18.19785308837891 8.092185974121094 22.42246627807617 6.102882385253906 27.125732421875 C 4.043960571289062 31.99356079101562 3 37.16621398925781 3 42.5 C 3 47.83378601074219 4.043960571289062 53.00643920898438 6.102882385253906 57.87425231933594 C 8.092185974121094 62.57753372192383 10.94070434570312 66.80213165283203 14.56928253173828 70.43071746826172 C 18.19786834716797 74.05929565429688 22.42246627807617 76.90781402587891 27.125732421875 78.89711761474609 C 31.99356079101562 80.95603942871094 37.16621398925781 82 42.5 82 C 47.83378601074219 82 53.00642395019531 80.95603942871094 57.87425231933594 78.89711761474609 C 62.57753372192383 76.90781402587891 66.80213165283203 74.05929565429688 70.43071746826172 70.43071746826172 C 74.05929565429688 66.80213165283203 76.90781402587891 62.57753372192383 78.89711761474609 57.87425231933594 C 80.95603942871094 53.00642395019531 82 47.83378601074219 82 42.5 C 82 37.16621398925781 80.95603942871094 31.99356079101562 78.89711761474609 27.125732421875 C 76.90781402587891 22.42246627807617 74.05929565429688 18.19786834716797 70.43071746826172 14.56928253173828 C 66.80213165283203 10.94070434570312 62.57753372192383 8.092185974121094 57.87425231933594 6.102882385253906 C 53.00643920898438 4.043960571289062 47.83378601074219 3 42.5 3 M 42.5 0 C 65.97209167480469 0 85 19.02789306640625 85 42.5 C 85 65.97209167480469 65.97209167480469 85 42.5 85 C 19.02789306640625 85 0 65.97209167480469 0 42.5 C 0 19.02789306640625 19.02789306640625 0 42.5 0 Z" stroke="none" fill="#36ceef"/>
                          </g>
                        </g>
                      </g>
                    </g>
                  </g>
                </g>
              </g>
            </g>
          </g>
        </g>
      </g>
    </g>
    <g id="economia_5_" data-name="economia (5)" transform="translate(221.341 3551.468)">
      <g id="Grupo_1227691" data-name="Grupo 1227691" transform="translate(0.88 0.879)">
        <g id="Grupo_1227690" data-name="Grupo 1227690">
          <path id="Trazado_1183046" data-name="Trazado 1183046" d="M47.08,9.859,41,7.573A1.106,1.106,0,0,0,39.518,8.79l.255,1.539A27.946,27.946,0,0,0,21.365,32.291a1.726,1.726,0,1,0,3.411.537A24.481,24.481,0,0,1,40.347,13.79L40.58,15.2a1.106,1.106,0,0,0,1.794.674l5.019-4.124A1.106,1.106,0,0,0,47.08,9.859Z" transform="translate(-19.719 -7.501)" fill="#0ed2b3"/>
          <path id="Trazado_1183047" data-name="Trazado 1183047" d="M301.685,39.52l-1.539.255a27.946,27.946,0,0,0-21.962-18.408,1.726,1.726,0,1,0-.537,3.411,24.481,24.481,0,0,1,19.038,15.571l-1.409.233a1.106,1.106,0,0,0-.674,1.794l4.124,5.019a1.106,1.106,0,0,0,1.89-.313L302.9,41A1.106,1.106,0,0,0,301.685,39.52Z" transform="translate(-244.666 -19.721)" fill="#0ed2b3"/>
          <path id="Trazado_1183048" data-name="Trazado 1183048" d="M290.167,276.211a1.727,1.727,0,0,0-1.974,1.437,24.48,24.48,0,0,1-15.571,19.038l-.233-1.409a1.106,1.106,0,0,0-1.794-.674l-5.019,4.124a1.106,1.106,0,0,0,.313,1.89l6.081,2.285a1.106,1.106,0,0,0,1.481-1.217l-.255-1.539A27.946,27.946,0,0,0,291.6,278.185,1.726,1.726,0,0,0,290.167,276.211Z" transform="translate(-234.942 -244.667)" fill="#0ed2b3"/>
          <path id="Trazado_1183049" data-name="Trazado 1183049" d="M32.827,288.194a24.481,24.481,0,0,1-19.038-15.571l1.409-.233a1.106,1.106,0,0,0,.674-1.794l-4.124-5.019a1.106,1.106,0,0,0-1.89.313l-2.285,6.081a1.106,1.106,0,0,0,1.216,1.481l1.539-.255A27.946,27.946,0,0,0,32.29,291.6a1.726,1.726,0,1,0,.537-3.411Z" transform="translate(-7.5 -234.943)" fill="#0ed2b3"/>
        </g>
        <circle id="Elipse_12709" data-name="Elipse 12709" cx="17.085" cy="17.085" r="17.085" transform="translate(12.069 12.069)" fill="#fef48b"/>
        <path id="Trazado_1183050" data-name="Trazado 1183050" d="M128.962,144.475q-.743.065-1.5.066a17.085,17.085,0,1,1,0-34.17q.76,0,1.5.066a17.086,17.086,0,0,0,0,34.039Z" transform="translate(-98.304 -98.301)" fill="#fee45a"/>
        <circle id="Elipse_12710" data-name="Elipse 12710" cx="12.751" cy="12.751" r="12.751" transform="translate(16.403 16.403)" fill="#fee45a"/>
        <path id="Trazado_1183051" data-name="Trazado 1183051" d="M251,160.07a12.754,12.754,0,0,1-15.11,12.531,12.751,12.751,0,0,0,0-25.062A12.754,12.754,0,0,1,251,160.07Z" transform="translate(-209.099 -130.916)" fill="#ffd15b"/>
      </g>
      <g id="Grupo_1227692" data-name="Grupo 1227692" transform="translate(0 -0.002)">
        <path id="Trazado_1183052" data-name="Trazado 1183052" d="M16.05,28.512a2.625,2.625,0,0,0,.407.032,2.593,2.593,0,0,0,2.572-2.2A23.533,23.533,0,0,1,33.042,8.391l.055.33a1.986,1.986,0,0,0,3.22,1.21l5.019-4.124a1.986,1.986,0,0,0-.562-3.394L34.693.128a1.986,1.986,0,0,0-2.658,2.184l.135.816a28.83,28.83,0,0,0-18.289,22.4,2.606,2.606,0,0,0,2.169,2.98Zm-.431-2.706A27.066,27.066,0,0,1,33.445,4.539a.88.88,0,0,0,.58-.975l-.255-1.539a.216.216,0,0,1,.08-.212.22.22,0,0,1,.14-.053.235.235,0,0,1,.083.016l6.081,2.285a.226.226,0,0,1,.064.387L35.2,8.572a.226.226,0,0,1-.367-.138L34.6,7.025a.88.88,0,0,0-1.176-.68A25.3,25.3,0,0,0,17.292,26.069a.845.845,0,0,1-.968.7.846.846,0,0,1-.7-.968Z" transform="translate(-12.224 0.002)"/>
        <path id="Trazado_1183053" data-name="Trazado 1183053" d="M296.781,32.736a1.964,1.964,0,0,0-1.859-.7l-.816.135a28.829,28.829,0,0,0-22.4-18.288,2.606,2.606,0,1,0-.811,5.149,23.164,23.164,0,0,1,2.838.632.88.88,0,0,0,.489-1.69,24.918,24.918,0,0,0-3.053-.68.847.847,0,0,1-.367-1.521.839.839,0,0,1,.63-.151A27.065,27.065,0,0,1,292.7,33.447a.88.88,0,0,0,.975.58l1.54-.255a.226.226,0,0,1,.248.3l-2.286,6.081a.226.226,0,0,1-.386.064L288.662,35.2a.226.226,0,0,1,.138-.367l1.409-.233a.88.88,0,0,0,.68-1.176,25.4,25.4,0,0,0-12.712-13.932.88.88,0,1,0-.766,1.584,23.653,23.653,0,0,1,11.432,11.967l-.33.055a1.986,1.986,0,0,0-1.209,3.22l4.124,5.019a1.963,1.963,0,0,0,1.526.726,2.047,2.047,0,0,0,.334-.028,1.965,1.965,0,0,0,1.533-1.261L297.1,34.7A1.965,1.965,0,0,0,296.781,32.736Z" transform="translate(-237.167 -12.226)"/>
        <path id="Trazado_1183054" data-name="Trazado 1183054" d="M283.677,268.72a2.607,2.607,0,0,0-2.98,2.169,23.532,23.532,0,0,1-14.012,17.951l-.055-.331a1.986,1.986,0,0,0-3.22-1.209l-5.019,4.124a1.985,1.985,0,0,0,.562,3.393l6.08,2.285a2,2,0,0,0,.707.13,1.989,1.989,0,0,0,1.952-2.312l-.135-.817a28.3,28.3,0,0,0,2.654-1.154.88.88,0,1,0-.784-1.575,26.655,26.655,0,0,1-3.145,1.319.88.88,0,0,0-.58.975l.255,1.54a.226.226,0,0,1-.3.248l-6.081-2.285a.226.226,0,0,1-.064-.386l5.019-4.124a.226.226,0,0,1,.367.137l.233,1.409a.88.88,0,0,0,1.176.68,25.3,25.3,0,0,0,16.132-19.725.846.846,0,1,1,1.672.264A27.108,27.108,0,0,1,272.771,289.4a.88.88,0,1,0,1,1.447A28.876,28.876,0,0,0,285.845,271.7a2.605,2.605,0,0,0-2.168-2.981Z" transform="translate(-227.436 -237.165)"/>
        <path id="Trazado_1183055" data-name="Trazado 1183055" d="M26.344,280.7A23.533,23.533,0,0,1,8.393,266.688l.33-.055a1.986,1.986,0,0,0,1.21-3.22l-4.124-5.019a1.986,1.986,0,0,0-3.394.562L.129,265.037a1.986,1.986,0,0,0,2.184,2.658l.816-.135a28.83,28.83,0,0,0,22.4,18.289,2.627,2.627,0,0,0,.407.032,2.606,2.606,0,0,0,.4-5.181Zm.431,2.706a.852.852,0,0,1-.834.715.865.865,0,0,1-.134-.01A27.065,27.065,0,0,1,4.54,266.284a.88.88,0,0,0-.831-.592.87.87,0,0,0-.144.012l-1.539.255a.226.226,0,0,1-.249-.3l2.285-6.081a.226.226,0,0,1,.387-.064l4.124,5.019a.226.226,0,0,1-.138.367l-1.409.233a.88.88,0,0,0-.68,1.176A25.3,25.3,0,0,0,26.07,282.438a.847.847,0,0,1,.7.968Z" transform="translate(0 -227.438)"/>
        <path id="Trazado_1183056" data-name="Trazado 1183056" d="M138.806,120.842a17.964,17.964,0,1,0-17.964,17.964A17.984,17.984,0,0,0,138.806,120.842Zm-17.964,16.2a16.2,16.2,0,1,1,16.2-16.2A16.223,16.223,0,0,1,120.842,137.047Z" transform="translate(-90.808 -90.808)"/>
        <path id="Trazado_1183057" data-name="Trazado 1183057" d="M153.454,139.824a13.637,13.637,0,0,0-13.171,17.146.88.88,0,1,0,1.7-.454,11.876,11.876,0,1,1,1.558,3.47.88.88,0,0,0-1.468.97,13.63,13.63,0,1,0,11.381-21.131Z" transform="translate(-123.42 -123.42)"/>
        <path id="Trazado_1183058" data-name="Trazado 1183058" d="M221.2,193.844a.88.88,0,0,0-.963,1.473,5.286,5.286,0,0,0,2.885,1.011v.952a.88.88,0,1,0,1.76,0v-1.021a4.31,4.31,0,0,0,3.383-3.536,3.784,3.784,0,0,0-2.605-4.33c-.256-.09-.517-.185-.778-.284v-4.163a2.713,2.713,0,0,1,1.071.513.88.88,0,0,0,1.125-1.353,4.626,4.626,0,0,0-2.2-.948v-.851a.88.88,0,1,0-1.76,0v.917c-.131.029-.263.062-.4.1a3.583,3.583,0,0,0-2.454,2.811,3.155,3.155,0,0,0,1.033,3.109,8.5,8.5,0,0,0,1.82,1.042v5.276A3.613,3.613,0,0,1,221.2,193.844Zm1.188-6.982a1.419,1.419,0,0,1-.389-1.4,1.862,1.862,0,0,1,1.124-1.414v3.282A5.281,5.281,0,0,1,222.39,186.862Zm2.685,3.189a2.053,2.053,0,0,1,1.456,2.379,2.587,2.587,0,0,1-1.647,2v-4.447Z" transform="translate(-194.049 -159.259)"/>
      </g>
    </g>
  </g>
</svg>
