<svg xmlns="http://www.w3.org/2000/svg" xmlns:xlink="http://www.w3.org/1999/xlink" width="108" height="108" viewBox="0 0 108 108">
  <defs>
    <filter id="Trazado_904820" x="0" y="0" width="108" height="108" filterUnits="userSpaceOnUse">
      <feOffset dy="3" input="SourceAlpha"/>
      <feGaussianBlur stdDeviation="3" result="blur"/>
      <feFlood flood-opacity="0.161"/>
      <feComposite operator="in" in2="blur"/>
      <feComposite in="SourceGraphic"/>
    </filter>
  </defs>
  <g id="Grupo_1227623" data-name="Grupo 1227623" transform="translate(-199.5 -848.5)">
    <g id="Grupo_1226893" data-name="Grupo 1226893" transform="translate(0 61.077)">
      <g id="Grupo_1225500" data-name="Grupo 1225500" transform="translate(0 -1037.577)">
        <g id="Grupo_1220078" data-name="Grupo 1220078" transform="translate(0 -1360.108)">
          <g id="Grupo_1219746" data-name="Grupo 1219746" transform="translate(0 1895.108)">
            <g id="Grupo_1202418" data-name="Grupo 1202418" transform="translate(-419.977 876.813)">
              <g id="Grupo_1177315" data-name="Grupo 1177315" transform="translate(-0.523 -112.813)">
                <g id="Grupo_1173585" data-name="Grupo 1173585" transform="translate(629 532)">
                  <g id="Grupo_1173428" data-name="Grupo 1173428" transform="translate(0 0)">
                    <g id="Grupo_1171958" data-name="Grupo 1171958">
                      <g id="Grupo_1167341" data-name="Grupo 1167341">
                        <g id="Grupo_1166792" data-name="Grupo 1166792">
                          <g transform="matrix(1, 0, 0, 1, -9, -6)" filter="url(#Trazado_904820)">
                            <g id="Trazado_904820-2" data-name="Trazado 904820" transform="translate(9 6)" fill="#f6f3ef">
                              <path d="M 44.99999618530273 88.49999237060547 C 39.12687301635742 88.49999237060547 33.43022155761719 87.35006713867188 28.06829643249512 85.08216857910156 C 22.88852119445801 82.89130401611328 18.23629570007324 79.75457763671875 14.24084663391113 75.75914001464844 C 10.24540901184082 71.76369476318359 7.108683586120605 67.11146545410156 4.917821407318115 61.93169403076172 C 2.649921178817749 56.56976699829102 1.499996185302734 50.87311553955078 1.499996185302734 44.99999237060547 C 1.499996185302734 39.12686920166016 2.649921178817749 33.43021774291992 4.917821407318115 28.06829261779785 C 7.108683586120605 22.88851737976074 10.24540901184082 18.23630523681641 14.24084663391113 14.24085521697998 C 18.23629570007324 10.24540519714355 22.88852119445801 7.108692169189453 28.06829643249512 4.917829990386963 C 33.43022155761719 2.649929761886597 39.12687301635742 1.500004887580872 44.99999618530273 1.500004887580872 C 50.87311935424805 1.500004887580872 56.56977081298828 2.649929761886597 61.93169784545898 4.917829990386963 C 67.11147308349609 7.108692169189453 71.76369476318359 10.24540519714355 75.75914764404297 14.24085521697998 C 79.75458526611328 18.23630523681641 82.89131164550781 22.88851737976074 85.08216857910156 28.06829261779785 C 87.35007476806641 33.43021774291992 88.5 39.12686920166016 88.5 44.99999237060547 C 88.5 50.87311553955078 87.35007476806641 56.56976699829102 85.08216857910156 61.93169403076172 C 82.89131164550781 67.11146545410156 79.75458526611328 71.76369476318359 75.75914764404297 75.75914001464844 C 71.76369476318359 79.75457763671875 67.11147308349609 82.89130401611328 61.93169784545898 85.08216857910156 C 56.56977081298828 87.35006713867188 50.87311935424805 88.49999237060547 44.99999618530273 88.49999237060547 Z" stroke="none"/>
                              <path d="M 44.99999618530273 2.999992370605469 C 39.32870864868164 2.999992370605469 33.82865142822266 4.11004638671875 28.65262603759766 6.299331665039062 C 23.65165710449219 8.414566040039062 19.15968322753906 11.44333648681641 15.301513671875 15.30150604248047 C 11.44333648681641 19.15967559814453 8.414566040039062 23.65164947509766 6.299339294433594 28.65262222290039 C 4.110054016113281 33.82864761352539 2.999992370605469 39.32870483398438 2.999992370605469 44.99999237060547 C 2.999992370605469 50.67127990722656 4.110054016113281 56.17132186889648 6.299339294433594 61.34736633300781 C 8.414566040039062 66.34833526611328 11.44333648681641 70.84029388427734 15.301513671875 74.69846343994141 C 19.15968322753906 78.55663299560547 23.65165710449219 81.58540344238281 28.65262603759766 83.70063781738281 C 33.82865142822266 85.88992309570312 39.32870864868164 86.99997711181641 44.99999618530273 86.99997711181641 C 50.67128372192383 86.99997711181641 56.17134094238281 85.88992309570312 61.34736633300781 83.70063781738281 C 66.34834289550781 81.58540344238281 70.84030914306641 78.55663299560547 74.69847869873047 74.69846343994141 C 78.55665588378906 70.84029388427734 81.58542633056641 66.34833526611328 83.70065307617188 61.34736633300781 C 85.88993835449219 56.17132186889648 87 50.67127990722656 87 44.99999237060547 C 87 39.32870483398438 85.88993835449219 33.82864761352539 83.70065307617188 28.65262222290039 C 81.58542633056641 23.65164947509766 78.55665588378906 19.15967559814453 74.69847869873047 15.30150604248047 C 70.84030914306641 11.44333648681641 66.34834289550781 8.414566040039062 61.34736633300781 6.299331665039062 C 56.17134094238281 4.11004638671875 50.67128372192383 2.999992370605469 44.99999618530273 2.999992370605469 M 44.99999618530273 -7.62939453125e-06 C 69.85281372070312 -7.62939453125e-06 90 20.14717864990234 90 44.99999237060547 C 90 69.85279083251953 69.85281372070312 89.99997711181641 44.99999618530273 89.99997711181641 C 20.14717864990234 89.99997711181641 -7.62939453125e-06 69.85279083251953 -7.62939453125e-06 44.99999237060547 C -7.62939453125e-06 20.14717864990234 20.14717864990234 -7.62939453125e-06 44.99999618530273 -7.62939453125e-06 Z" stroke="none" fill="#7b776f"/>
                            </g>
                          </g>
                        </g>
                      </g>
                    </g>
                  </g>
                </g>
              </g>
            </g>
          </g>
        </g>
      </g>
    </g>
    <g id="libre-comercio_1_" data-name="libre-comercio (1)" transform="translate(207.535 861.585)">
      <g id="Grupo_1227622" data-name="Grupo 1227622" transform="translate(17.194 7.997)">
        <g id="Grupo_1227617" data-name="Grupo 1227617" transform="translate(3.124)">
          <path id="Trazado_1182827" data-name="Trazado 1182827" d="M71.913,49.65l-3.622-3.018,1.684-4.051-1.586-.723-3.873-.679-.933.457L62.2,43.768l-3.923-1.241-3.863-.06s-8.39-6.76-3.742-11.408c0,0-1.207-8.39,6.1-9.6,0,0-.3-5.674,6.338-4.527,0,0,5.553-4.768,8.329.664,0,0,2.173,5.794,5.734,3.682,0,0-.121-3.742,4.768-1.328,0,0,7.756-1.856,6.18,2.316l.278,3.585s3.09,1.947,2.75,4.914,1.483,2.225,3.183,3.183.34,2.812,3.09,2.627a18.113,18.113,0,0,0,4.7-.525c1.885-.587.371,7.455-7.085,10.932,0,0-2.472,2.936-1.275,12.361,0,0,.464,1.236-3.9,3.4l-.386,3.863s-1.352,7.417-11.743,8.228a5.072,5.072,0,0,1-2.356-4.288c.116-2.82-1.313-5.06-2.24-4.52s-1.584-5.679-.85-6.953S71.913,49.65,71.913,49.65ZM55.877,46.428s4.181,5.835,8.166,7.309,2.112,3.7,1.37,5.391,3.8,3.843,2.06,6.851-7-1.238-8.361-2.894S50.855,52.28,51.694,49.237,53.7,45.6,55.877,46.428Z" transform="translate(-49.264 -15)" fill="#6cf5c2" fill-rule="evenodd"/>
          <path id="Trazado_1182828" data-name="Trazado 1182828" d="M92.44,16.807a7.712,7.712,0,0,1,1.181,0c-.107.083-.164.133-.164.133C93.1,16.873,92.759,16.831,92.44,16.807Zm6.231-1.762c1.531-.212,3.192.267,4.361,2.554,0,0,1.313,3.5,3.569,4.068-3.013.74-4.816-4.068-4.816-4.068a4.223,4.223,0,0,0-3.114-2.554ZM110.2,19.206a4.761,4.761,0,0,1,2.97.573c-.532.091-.879.174-.879.174A8.066,8.066,0,0,0,110.2,19.206Zm6.06.355c2.06-.118,4.389.242,3.458,2.708l.278,3.585s3.09,1.947,2.75,4.914,1.483,2.225,3.183,3.183c1.535.866.574,2.462,2.4,2.626-.346.005-.558,0-.558,0-2.75.185-1.391-1.669-3.09-2.627s-3.523-.216-3.183-3.183-2.75-4.914-2.75-4.914l-.278-3.585c.744-1.97-.593-2.6-2.211-2.708Zm16.768,16.67c.238-.052.47-.111.689-.18,1.885-.587.371,7.455-7.085,10.932,0,0-2.472,2.936-1.275,12.361,0,0,.464,1.236-3.9,3.4l-.386,3.863s-1.352,7.417-11.743,8.228c0,0-.063-.037-.168-.111,9.407-1.22,10.665-8.117,10.665-8.117l.386-3.863c4.365-2.163,3.9-3.4,3.9-3.4-1.2-9.426,1.275-12.361,1.275-12.361C131.869,43.959,133.858,37.479,133.025,36.232ZM95.79,41.34l-.6.3L93.8,43.768l-1.034-.327,1.175-1.805.933-.457ZM85.367,46.165a3.409,3.409,0,0,1,2.113.263s4.181,5.835,8.165,7.309,2.112,3.7,1.37,5.391,3.8,3.843,2.06,6.851a2.157,2.157,0,0,1-2.505.982,1.964,1.964,0,0,0,1.259-.982c1.737-3.008-2.8-5.157-2.06-6.851s2.615-3.916-1.37-5.391-8.166-7.309-8.166-7.309a5.914,5.914,0,0,0-.866-.263Z" transform="translate(-80.866 -15)" fill="#00e499" fill-rule="evenodd"/>
        </g>
        <g id="Grupo_1227618" data-name="Grupo 1227618" transform="translate(36.565 0)">
          <path id="Trazado_1182829" data-name="Trazado 1182829" d="M328.631,41.582a.812.812,0,0,1-1.232,0c-3.817-4.411-9.873-10.742-9.873-16.093a10.489,10.489,0,0,1,20.977,0c0,5.352-6.054,11.682-9.872,16.094Z" transform="translate(-317.526 -15)" fill="#fe646f" fill-rule="evenodd"/>
          <path id="Trazado_1182830" data-name="Trazado 1182830" d="M396.665,15.018q.309-.018.623-.018a10.489,10.489,0,0,1,10.489,10.489c0,5.352-6.054,11.682-9.872,16.094a.812.812,0,0,1-1.232,0l-.007-.008c3.819-4.411,9.865-10.737,9.865-16.085a10.49,10.49,0,0,0-9.865-10.47Z" transform="translate(-386.8 -15)" fill="#fd4755" fill-rule="evenodd"/>
          <path id="Trazado_1182831" data-name="Trazado 1182831" d="M347.428,52.628A7.725,7.725,0,1,0,339.7,44.9,7.741,7.741,0,0,0,347.428,52.628Z" transform="translate(-336.939 -34.413)" fill="#eceff1" fill-rule="evenodd"/>
          <path id="Trazado_1182832" data-name="Trazado 1182832" d="M348.051,37.2a7.725,7.725,0,0,0,0,15.4q-.308.025-.623.025a7.725,7.725,0,0,1,0-15.45Q347.742,37.178,348.051,37.2Z" transform="translate(-336.939 -34.413)" fill="#d1d1d6" fill-rule="evenodd"/>
        </g>
        <g id="Grupo_1227619" data-name="Grupo 1227619" transform="translate(43.142 6.578)">
          <path id="Trazado_1182833" data-name="Trazado 1182833" d="M370.286,67.993a.225.225,0,0,1,.225-.225h7.373a.225.225,0,0,1,.225.225V75.07a.522.522,0,0,1-.522.521h-6.78a.522.522,0,0,1-.522-.521Z" transform="translate(-370.286 -67.768)" fill="#ecba78" fill-rule="evenodd"/>
          <path id="Trazado_1182834" data-name="Trazado 1182834" d="M422.424,67.768h.839a.225.225,0,0,1,.225.225V75.07a.522.522,0,0,1-.522.521h-.839a.522.522,0,0,0,.522-.521V67.993A.225.225,0,0,0,422.424,67.768Z" transform="translate(-415.665 -67.768)" fill="#e3a76f" fill-rule="evenodd"/>
          <path id="Trazado_1182835" data-name="Trazado 1182835" d="M391.159,67.768h2.619v2.967a.225.225,0,0,1-.225.225h-2.169a.225.225,0,0,1-.225-.225Z" transform="translate(-388.557 -67.768)" fill="#f2d1a5" fill-rule="evenodd"/>
        </g>
        <g id="Grupo_1227620" data-name="Grupo 1227620" transform="translate(34.072 39.128)">
          <path id="Trazado_1182836" data-name="Trazado 1182836" d="M307.878,328.885a10.353,10.353,0,1,1-10.353,10.353A10.353,10.353,0,0,1,307.878,328.885Z" transform="translate(-297.525 -328.885)" fill="#ffc338" fill-rule="evenodd"/>
          <path id="Trazado_1182837" data-name="Trazado 1182837" d="M374.35,328.885a10.353,10.353,0,1,1,0,20.706c-.3,0-.594-.013-.886-.038a10.353,10.353,0,0,0,0-20.629C373.756,328.9,374.052,328.885,374.35,328.885Z" transform="translate(-363.998 -328.885)" fill="#f5b829" fill-rule="evenodd"/>
        </g>
        <g id="Grupo_1227621" data-name="Grupo 1227621" transform="translate(0 0.002)">
          <path id="Trazado_1182838" data-name="Trazado 1182838" d="M34.556,15.014A10.353,10.353,0,1,1,24.2,25.367,10.353,10.353,0,0,1,34.556,15.014Z" transform="translate(-24.203 -15.014)" fill="#ffc338" fill-rule="evenodd"/>
          <path id="Trazado_1182839" data-name="Trazado 1182839" d="M101.028,15.014a10.353,10.353,0,1,1,0,20.706c-.3,0-.594-.013-.886-.038a10.353,10.353,0,0,0,0-20.629C100.434,15.027,100.73,15.014,101.028,15.014Z" transform="translate(-90.676 -15.014)" fill="#f5b829" fill-rule="evenodd"/>
        </g>
      </g>
      <path id="Trazado_1182840" data-name="Trazado 1182840" d="M19.419,26.262a11.343,11.343,0,0,1,14.355-17.4l.108.014a11.28,11.28,0,0,1,1.993-1.186,6.008,6.008,0,0,1,4.606-.384,5.512,5.512,0,0,1,2.893,2.832.986.986,0,0,1,.046.1,9.2,9.2,0,0,0,1.364,2.344A2.274,2.274,0,0,0,47.3,13.616,3,3,0,0,1,48.72,11.5c.8-.438,2.162-.621,4.389.4a19.411,19.411,0,0,1,1.94-.294,11.485,11.485,0,0,1,20.684,6.876c0,2.428-1.124,5.056-2.773,7.624-.5.775-1.043,1.546-1.614,2.306A9.507,9.507,0,0,0,72.87,28.1c1.126-.351,2.227.476,2,2.509-.285,2.533-2.66,7.5-8.118,10.162-.292.482-1.162,2.223-1.263,6.038A11.35,11.35,0,1,1,55.53,67.052a17.263,17.263,0,0,1-6.676,1.776,1,1,0,0,1-.587-.137A6.139,6.139,0,0,1,45.423,63.5a5.984,5.984,0,0,0-.609-3,2.8,2.8,0,0,0-.379-.5c-.564.2-1.242,0-1.678-.954a15.166,15.166,0,0,1-.728-5.408,5.015,5.015,0,0,1,.436-2.064,1.146,1.146,0,0,0,.065-.356,12.457,12.457,0,0,0,.048-1.72c-.056-2.265-.416-5.282-.549-6.337L38.708,40.4a1,1,0,0,1-.282-1.149l1.314-3.161-.593-.27-3.428-.6-.394.193-1.238,1.9a1,1,0,0,1-1.137.407l-3.784-1.2-3.717-.058a1,1,0,0,1-.61-.221,20.981,20.981,0,0,1-4.031-4.513,7.8,7.8,0,0,1-1.388-5.465Zm16.03-16.049a11.343,11.343,0,0,1-14.1,17.64A7.311,7.311,0,0,0,22.5,30.666a18.486,18.486,0,0,0,3.34,3.807l3.507.055a1,1,0,0,1,.285.046l3.2,1.012.974-1.5a1,1,0,0,1,.4-.352l.933-.457a1,1,0,0,1,.611-.087l3.873.679a1,1,0,0,1,.241.075l1.586.723a1,1,0,0,1,.507,1.29l-1.4,3.373,3.057,2.548a1,1,0,0,1,.35.633s.544,4.057.615,6.935a7.519,7.519,0,0,1-.378,3.12,3.081,3.081,0,0,0-.172,1.157A16.2,16.2,0,0,0,44.25,57a8.017,8.017,0,0,0,.243.938,1.735,1.735,0,0,1,.7.17,3.263,3.263,0,0,1,1.369,1.437,8.015,8.015,0,0,1,.849,4.037,3.909,3.909,0,0,0,1.628,3.223,15.864,15.864,0,0,0,4.733-1.136,11.348,11.348,0,0,1,9.732-19.389c.227-5.179,1.81-6.945,1.81-6.945a1,1,0,0,1,.341-.261,13.1,13.1,0,0,0,7.017-7.717,5.508,5.508,0,0,0,.185-1.2,18.265,18.265,0,0,1-3.209.39c-1.639,1.984-3.326,3.83-4.645,5.389a1,1,0,0,1-1.522,0c-2.267-2.681-5.624-6.209-7.951-9.832-1.649-2.568-2.773-5.2-2.773-7.624a11.441,11.441,0,0,1,.993-4.677c-.333.063-.537.112-.537.112a1,1,0,0,1-.674-.076,6.428,6.428,0,0,0-2.043-.692,1.4,1.4,0,0,0-.829.1,1.086,1.086,0,0,0-.458,1,1,1,0,0,1-.488.89,3.747,3.747,0,0,1-4.72-.488,10.537,10.537,0,0,1-2.432-3.638,3.592,3.592,0,0,0-1.814-1.839,4,4,0,0,0-3.061.337,9.006,9.006,0,0,0-1.253.7Zm-7.9,17.5a9.357,9.357,0,1,0-9.357-9.357A9.376,9.376,0,0,0,27.548,27.709Zm-1-15.327V11.8a1,1,0,0,1,1.995,0v.569a4.068,4.068,0,0,1,2.973,2.452,1,1,0,0,1-1.839.772,2.33,2.33,0,0,0-3.057-1.155,1.473,1.473,0,0,0-1.052,1.428v0a1.244,1.244,0,0,0,.81,1.073,4.878,4.878,0,0,0,1.339.387h0c1.84.3,3.857,1.14,4.121,3.327.259,2.142-1.479,3.375-3.3,3.7v.553a1,1,0,1,1-1.995,0v-.568A4.051,4.051,0,0,1,23.26,21.38,1,1,0,0,1,25.2,20.9a2.3,2.3,0,0,0,2.463,1.544h0a3.2,3.2,0,0,0,1.7-.484,1.076,1.076,0,0,0,.5-1.062h0a1.5,1.5,0,0,0-1-1.194,5.9,5.9,0,0,0-1.465-.4c-1.8-.293-3.72-1.2-3.821-3.334a3.4,3.4,0,0,1,2.314-3.381,4.465,4.465,0,0,1,.659-.2ZM61.62,66.836a9.357,9.357,0,1,0-9.357-9.357A9.376,9.376,0,0,0,61.62,66.836Zm-1-15.327v-.58a1,1,0,0,1,1.995,0V51.5a4.067,4.067,0,0,1,2.973,2.452,1,1,0,0,1-1.839.772,2.329,2.329,0,0,0-3.057-1.155,1.473,1.473,0,0,0-1.052,1.428v0a1.244,1.244,0,0,0,.81,1.073,4.869,4.869,0,0,0,1.339.387h0c1.84.3,3.857,1.14,4.121,3.327.259,2.142-1.479,3.375-3.3,3.7v.553a1,1,0,1,1-1.995,0v-.568a4.052,4.052,0,0,1-3.291-2.958,1,1,0,0,1,1.936-.482,2.3,2.3,0,0,0,2.463,1.544h0a3.2,3.2,0,0,0,1.7-.484,1.076,1.076,0,0,0,.5-1.062h0a1.5,1.5,0,0,0-1-1.194,5.9,5.9,0,0,0-1.465-.4c-1.8-.293-3.72-1.2-3.821-3.334a3.4,3.4,0,0,1,2.314-3.381,4.464,4.464,0,0,1,.659-.2Zm3.626-17.739a79.727,79.727,0,0,0,7.035-8.736c1.421-2.214,2.457-4.455,2.457-6.547a9.492,9.492,0,1,0-18.984,0c0,2.093,1.036,4.333,2.457,6.547a79.834,79.834,0,0,0,7.035,8.736Zm0-6.561a8.721,8.721,0,1,1,8.722-8.722A8.738,8.738,0,0,1,64.249,27.208Zm0-1.993a6.728,6.728,0,1,0-6.727-6.729A6.743,6.743,0,0,0,64.249,25.215ZM60.337,13.578H68.16a1,1,0,0,1,1,1v7.3A1.522,1.522,0,0,1,67.639,23.4h-6.78a1.522,1.522,0,0,1-1.519-1.519v-7.3A1,1,0,0,1,60.337,13.578Zm1.6,1.995h-.607V21.4h5.829V15.573h-.607v2.194a1,1,0,0,1-1,1H62.939a1,1,0,0,1-1-1Zm2.619,0h-.625v1.2h.625ZM27.743,38.845s3.928,5.558,7.7,6.955c2.069.766,2.828,1.794,3.045,2.765a3.514,3.514,0,0,1-.162,1.908c-.243.714-.668,1.421-.946,2.054-.023.053.021.1.045.16a2.025,2.025,0,0,0,.148.286c.28.465.707.96,1.1,1.5,1.05,1.432,1.822,3.092.717,5.007-.956,1.656-2.65,1.868-4.5,1.2A15.408,15.408,0,0,1,29.4,56.717a61.806,61.806,0,0,1-6.573-10.034c-.912-1.919-1.329-3.648-1.035-4.713A5.624,5.624,0,0,1,23.8,38.537a3.734,3.734,0,0,1,3.484-.043,1,1,0,0,1,.456.351ZM26.311,40.26a1.617,1.617,0,0,0-1.437-.04c-.524.333-.835,1.089-1.163,2.28a2.026,2.026,0,0,0,.027.883,10.744,10.744,0,0,0,.887,2.444,59.16,59.16,0,0,0,6.312,9.623,12.989,12.989,0,0,0,4.63,3.348c.844.306,1.662.435,2.1-.319a1.9,1.9,0,0,0-.044-1.971,10.76,10.76,0,0,0-1.038-1.5,6.785,6.785,0,0,1-1.053-1.7,2.082,2.082,0,0,1,.025-1.581c.221-.5.543-1.054.778-1.617a1.879,1.879,0,0,0,.21-1.11c-.117-.526-.668-.913-1.79-1.329-3.685-1.364-7.552-6.241-8.44-7.41Z" fill-rule="evenodd"/>
    </g>
  </g>
</svg>
