<svg xmlns="http://www.w3.org/2000/svg" xmlns:xlink="http://www.w3.org/1999/xlink" width="400" height="459" viewBox="0 0 400 459">
  <defs>
    <clipPath id="clip-path">
      <rect id="Rectángulo_422677" data-name="Rectángulo 422677" width="400" height="459" transform="translate(1020 2017)" fill="#fff" stroke="#707070" stroke-width="1"/>
    </clipPath>
    <linearGradient id="linear-gradient" y1="0.5" x2="1" y2="0.5" gradientUnits="objectBoundingBox">
      <stop offset="0" stop-color="#fff"/>
      <stop offset="0.159" stop-color="#f7f9fc"/>
      <stop offset="0.407" stop-color="#e1eaf2"/>
      <stop offset="0.5" stop-color="#d7e3ee"/>
      <stop offset="0.659" stop-color="#dfe9f1"/>
      <stop offset="0.907" stop-color="#f5f8fb"/>
      <stop offset="1" stop-color="#fff"/>
    </linearGradient>
    <linearGradient id="linear-gradient-2" x1="333.432" y1="3.923" x2="333.432" y2="5.489" gradientUnits="objectBoundingBox">
      <stop offset="0" stop-color="#fff"/>
      <stop offset="0.256" stop-color="#f2fafd"/>
      <stop offset="0.663" stop-color="#e3f4fa"/>
      <stop offset="1" stop-color="#def2f9"/>
    </linearGradient>
    <linearGradient id="linear-gradient-3" x1="0.5" y1="-0.036" x2="0.5" y2="1.007" gradientUnits="objectBoundingBox">
      <stop offset="0" stop-color="#f2522e"/>
      <stop offset="0.213" stop-color="#f47356"/>
      <stop offset="0.686" stop-color="#fbc5ba"/>
      <stop offset="1" stop-color="#fff"/>
    </linearGradient>
    <linearGradient id="linear-gradient-4" x1="0.494" y1="60.037" x2="0.494" y2="61.061" gradientUnits="objectBoundingBox">
      <stop offset="0" stop-color="#fff"/>
      <stop offset="1" stop-color="#ededed"/>
    </linearGradient>
    <linearGradient id="linear-gradient-5" x1="-893.211" y1="293.01" x2="-893.211" y2="292.426" gradientUnits="objectBoundingBox">
      <stop offset="0" stop-color="#fff"/>
      <stop offset="0.046" stop-color="#fef6f0"/>
      <stop offset="0.223" stop-color="#fad7bd"/>
      <stop offset="0.398" stop-color="#f7bd92"/>
      <stop offset="0.566" stop-color="#f4a971"/>
      <stop offset="0.726" stop-color="#f29b59"/>
      <stop offset="0.874" stop-color="#f1924b"/>
      <stop offset="1" stop-color="#f18f46"/>
    </linearGradient>
    <linearGradient id="linear-gradient-6" x1="-148.135" y1="0.164" x2="-148.135" y2="0.929" gradientUnits="objectBoundingBox">
      <stop offset="0" stop-color="#fff"/>
      <stop offset="1" stop-color="#fff"/>
    </linearGradient>
  </defs>
  <g id="Enmascarar_grupo_1211523" data-name="Enmascarar grupo 1211523" transform="translate(-1020 -2017)" clip-path="url(#clip-path)">
    <g id="Grupo_1227689" data-name="Grupo 1227689" transform="translate(-1442.48 -512.944)">
      <rect id="Rectángulo_422679" data-name="Rectángulo 422679" width="26.285" height="62.496" transform="translate(2598.529 2831.449)" fill="#f8ac2c"/>
      <g id="Grupo_1227637" data-name="Grupo 1227637" transform="translate(2588.096 2842.927)">
        <g id="Grupo_1227635" data-name="Grupo 1227635" transform="translate(2.163 0)">
          <path id="Trazado_1182868" data-name="Trazado 1182868" d="M442.6,713.911a6.169,6.169,0,1,0-12.31,0L433.583,731c.371,2.123,1.283,3.184,2.865,3.184s2.494-.955,2.865-3.184Z" transform="translate(-422.463 -707.332)" fill="#002842"/>
          <path id="Trazado_1182869" data-name="Trazado 1182869" d="M420.706,737.329a3.641,3.641,0,1,0-5.138,5.138l8.5,5.758c1.041.731,1.864.793,2.525.133s.642-1.439-.133-2.525Z" transform="translate(-414.376 -721.968)" fill="#002842"/>
          <path id="Trazado_1182870" data-name="Trazado 1182870" d="M452.082,737.329a3.641,3.641,0,1,1,5.138,5.138l-8.5,5.758c-1.041.731-1.864.793-2.525.133s-.642-1.439.133-2.525Z" transform="translate(-430.301 -721.968)" fill="#002842"/>
        </g>
        <g id="Grupo_1227636" data-name="Grupo 1227636" transform="translate(0 15.696)">
          <path id="Trazado_1182871" data-name="Trazado 1182871" d="M442.55,746.832a7.118,7.118,0,1,0-14.2,0l3.8,19.714c.429,2.449,1.48,3.674,3.306,3.674s2.877-1.1,3.306-3.674Z" transform="translate(-419.311 -739.24)" fill="#002842"/>
          <path id="Trazado_1182872" data-name="Trazado 1182872" d="M417.283,773.853a4.2,4.2,0,1,0-5.928,5.928l9.812,6.644c1.2.843,2.151.916,2.913.154s.741-1.661-.153-2.913Z" transform="translate(-409.98 -756.128)" fill="#002842"/>
          <path id="Trazado_1182873" data-name="Trazado 1182873" d="M453.486,773.853a4.2,4.2,0,1,1,5.928,5.928l-9.812,6.644c-1.2.843-2.151.916-2.913.154s-.741-1.661.153-2.913Z" transform="translate(-428.353 -756.128)" fill="#002842"/>
        </g>
      </g>
      <path id="Trazado_1182874" data-name="Trazado 1182874" d="M375.986,854.355H160.245S196.2,795.626,281.3,795.626,375.986,854.355,375.986,854.355Z" transform="translate(2305 2090.735)" fill="#1a8b93"/>
      <path id="Trazado_1182875" data-name="Trazado 1182875" d="M315.416,707.92s4.006-35.875,14.051-48.723l8.644-54.9,20.941-.114-21.175,54.778L318.23,707.407a3.15,3.15,0,0,0,1.219,1.959.938.938,0,0,0,.2.13,10.358,10.358,0,0,0,3.925.8c3.008.108,2.875,1.926,2.875,1.926h-5.506a5.407,5.407,0,0,1-3.184-1.209l.02,1.209h-2.357S315.416,707.933,315.416,707.92Z" transform="translate(2226.162 2188.001)" fill="#09264e"/>
      <path id="Trazado_1182876" data-name="Trazado 1182876" d="M265.455,768.264c-2.995-.768-3.456-3.3-.461-4.3a3.694,3.694,0,0,0,2.841-3.533,3.129,3.129,0,0,0-2.337-3.1,7.441,7.441,0,0,1-1.752-.823c-1.838-1.182-2.874-2.724-2.874-5.777,0-3.686-3.812-3.686-3.812-3.686s-3.812,0-3.812,3.686c0,2.764-.85,4.291-2.375,5.431a7.784,7.784,0,0,1-2.264,1.172,3.125,3.125,0,0,0-2.323,3.1,3.694,3.694,0,0,0,2.841,3.533c2.995,1,2.534,3.532-.461,4.3s-4.07,2-3.839,4.454,2.38,2.918,4.3,3.3,3.609.538,4.07,2.918c.445,2.3,3.628,2.306,3.851,2.3h.025c.222,0,3.406-.007,3.851-2.3.461-2.38,2.15-2.534,4.07-2.918s4.07-.845,4.3-3.3S268.45,769.032,265.455,768.264Z" transform="translate(2262.042 2115.419)" fill="#1a8b93"/>
      <g id="Grupo_1227638" data-name="Grupo 1227638" transform="translate(2471.838 2866.958)">
        <path id="Trazado_1182877" data-name="Trazado 1182877" d="M202.121,785.434c-4.128-1.059-4.763-4.552-.635-5.928s3.916-4.869,3.916-4.869a4.313,4.313,0,0,0-3.222-4.276,10.235,10.235,0,0,1-2.414-1.134c-2.534-1.629-3.961-3.755-3.961-7.962,0-5.081-5.254-5.081-5.254-5.081s-5.254,0-5.254,5.081c0,3.81-1.171,5.914-3.274,7.487a10.745,10.745,0,0,1-3.121,1.616,4.308,4.308,0,0,0-3.2,4.27s-.212,3.493,3.917,4.869,3.493,4.869-.635,5.928-5.61,2.752-5.293,6.139,3.282,4.022,5.928,4.552,4.975.741,5.61,4.023c.613,3.167,5,3.179,5.308,3.176h.034c.306,0,4.695-.009,5.308-3.176.635-3.282,2.964-3.493,5.61-4.023s5.61-1.164,5.928-4.552S206.249,786.492,202.121,785.434Z" transform="translate(-173.647 -756.184)" fill="#1a8b93"/>
        <rect id="Rectángulo_422680" data-name="Rectángulo 422680" width="2.333" height="12.247" transform="translate(15.737 42.98)" fill="#1a8b93"/>
      </g>
      <path id="Trazado_1182878" data-name="Trazado 1182878" d="M351.411,643.274l3.894-24.735,6,4.5L357.8,647.1l-2.336-18.455Z" transform="translate(2207.873 2180.708)" fill="#0c3266" opacity="0.5"/>
      <path id="Trazado_1182879" data-name="Trazado 1182879" d="M354.661,708.323v-.006c.445-15.526-.271-34.869,4.673-47.29V616.255s-5.97-2.275-3.268-12.068h22.926L367.2,661.778,357.2,707.264a1.3,1.3,0,0,0,.457,1.3c.467.375.988.761,1.031.8a.947.947,0,0,0,.2.133,10.147,10.147,0,0,0,3.925.822c3.008.111,2.875,1.973,2.875,1.973h-5.506A5.344,5.344,0,0,1,357,711.047l.02,1.238h-2.358s0-1.415,0-3.961Z" transform="translate(2206.222 2188)" fill="#0c3266"/>
      <rect id="Rectángulo_422681" data-name="Rectángulo 422681" width="1.849" height="9.705" transform="translate(2518.178 2893.763)" fill="#1a8b93"/>
      <g id="Grupo_1227642" data-name="Grupo 1227642" transform="translate(2506.357 2893.619)">
        <g id="Grupo_1227639" data-name="Grupo 1227639" transform="translate(6.023 0)">
          <path id="Trazado_1182880" data-name="Trazado 1182880" d="M279.737,815.9a5.173,5.173,0,1,0-10.324,0l2.759,14.329c.311,1.78,1.076,2.67,2.4,2.67s2.092-.8,2.4-2.67Z" transform="translate(-262.846 -810.381)" fill="#06505d"/>
          <path id="Trazado_1182881" data-name="Trazado 1182881" d="M261.372,835.539a3.054,3.054,0,1,0-4.309,4.309l7.132,4.829c.873.613,1.563.665,2.117.112s.539-1.207-.112-2.117Z" transform="translate(-256.064 -822.655)" fill="#06505d"/>
          <path id="Trazado_1182882" data-name="Trazado 1182882" d="M287.686,835.539A3.054,3.054,0,1,1,292,839.848l-7.132,4.829c-.873.613-1.563.665-2.117.112s-.539-1.207.112-2.117Z" transform="translate(-269.419 -822.655)" fill="#06505d"/>
        </g>
        <g id="Grupo_1227640" data-name="Grupo 1227640" transform="translate(39.627 0)">
          <path id="Trazado_1182883" data-name="Trazado 1182883" d="M348.047,815.9a5.173,5.173,0,1,0-10.324,0l2.759,14.329c.311,1.78,1.076,2.67,2.4,2.67s2.092-.8,2.4-2.67Z" transform="translate(-331.156 -810.381)" fill="#06505d"/>
          <path id="Trazado_1182884" data-name="Trazado 1182884" d="M329.682,835.539a3.054,3.054,0,1,0-4.309,4.309l7.132,4.829c.873.613,1.563.665,2.117.112s.539-1.207-.112-2.117Z" transform="translate(-324.374 -822.655)" fill="#06505d"/>
          <path id="Trazado_1182885" data-name="Trazado 1182885" d="M356,835.539a3.054,3.054,0,1,1,4.309,4.309l-7.132,4.829c-.873.613-1.563.665-2.117.112s-.539-1.207.112-2.117Z" transform="translate(-337.728 -822.655)" fill="#06505d"/>
        </g>
        <g id="Grupo_1227641" data-name="Grupo 1227641" transform="translate(23.786 0)">
          <path id="Trazado_1182886" data-name="Trazado 1182886" d="M313.846,815.9a5.173,5.173,0,1,0-10.324,0l2.759,14.329c.311,1.78,1.076,2.67,2.4,2.67s2.092-.8,2.4-2.67Z" transform="translate(-297.939 -810.381)" fill="#fff"/>
          <path id="Trazado_1182887" data-name="Trazado 1182887" d="M297.481,835.539a3.054,3.054,0,1,0-4.309,4.309l7.132,4.829c.873.613,1.563.665,2.117.112s.539-1.207-.112-2.117Z" transform="translate(-292.173 -822.655)" fill="#fff"/>
          <path id="Trazado_1182888" data-name="Trazado 1182888" d="M319.794,835.539a3.054,3.054,0,1,1,4.309,4.309l-7.132,4.829c-.873.613-1.563.665-2.117.112s-.539-1.207.112-2.117Z" transform="translate(-303.495 -822.655)" fill="#fff"/>
        </g>
        <path id="Trazado_1182889" data-name="Trazado 1182889" d="M330.037,851.888c-4.237,0-4.237-2.568-8.473-2.568s-4.237,2.568-8.473,2.568-4.236-2.568-8.472-2.568-4.236,2.568-8.472,2.568-4.236-2.568-8.472-2.568-4.236,2.568-8.472,2.568-4.236-2.568-8.471-2.568-4.235,2.568-8.47,2.568-4.235-2.568-8.47-2.568-4.235,2.568-8.471,2.568V855.8h84.717v-3.912Z" transform="translate(-244.581 -830.165)" fill="#1a8b93"/>
        <path id="Trazado_1182890" data-name="Trazado 1182890" d="M312.327,851.864a7.876,7.876,0,0,1-4.619-1.391,6.895,6.895,0,0,0-7.707,0,8.362,8.362,0,0,1-9.237,0,6.894,6.894,0,0,0-7.707,0,8.363,8.363,0,0,1-9.237,0,6.893,6.893,0,0,0-7.705,0,8.359,8.359,0,0,1-9.235,0,6.893,6.893,0,0,0-7.706,0,7.875,7.875,0,0,1-4.618,1.391.738.738,0,0,1,0-1.476,6.378,6.378,0,0,0,3.853-1.177,8.36,8.36,0,0,1,9.236,0,6.893,6.893,0,0,0,7.705,0,8.361,8.361,0,0,1,9.236,0,6.894,6.894,0,0,0,7.706,0,8.363,8.363,0,0,1,9.237,0,6.9,6.9,0,0,0,7.707,0,8.362,8.362,0,0,1,9.237,0,6.383,6.383,0,0,0,3.853,1.177.738.738,0,0,1,0,1.476Z" transform="translate(-243.819 -829.402)" fill="#fff"/>
      </g>
      <path id="Trazado_1182891" data-name="Trazado 1182891" d="M580.038,946.375c0-2.44-88.882-4.418-198.523-4.418s-198.523,1.978-198.523,4.418,88.881,4.418,198.523,4.418S580.038,948.815,580.038,946.375Z" transform="translate(2293.443 2016.388)" fill="url(#linear-gradient)"/>
      <g id="Grupo_1227650" data-name="Grupo 1227650" transform="translate(2689.163 2770.188)">
        <path id="Trazado_1182892" data-name="Trazado 1182892" d="M769.9,744.79l19.459-2.228-.064,48.492c5.9,11.506,6.662,31.978,8.076,45.361h.007c0,.026,0,.054,0,.08.016,2.069.008.825.031,3.951l-1.677.012-.014-1.19a4.858,4.858,0,0,1-2.865,1.2l-6.621.031s-.162-1.544,2.57-1.718a12.587,12.587,0,0,0,4.406-.866,2.083,2.083,0,0,0,.688-.69.065.065,0,0,1,.01-.014.091.091,0,0,0,.006-.012,2.637,2.637,0,0,0,.231-.447l-11.511-44.3Z" transform="translate(-693.915 -652.493)" fill="#09264e"/>
        <path id="Trazado_1182893" data-name="Trazado 1182893" d="M795.538,754.916l-2.805,33.976,4.146,29.216-5.034-19.37-3.816-14.289Z" transform="translate(-703.124 -658.77)" fill="#002842" opacity="0.5"/>
        <path id="Trazado_1182894" data-name="Trazado 1182894" d="M754.514,604.558l-4.172-7.019,7.92-5.888,4.665,7.011S762.193,604.076,754.514,604.558Z" transform="translate(-683.976 -575.818)" fill="#f5a46e"/>
        <path id="Trazado_1182895" data-name="Trazado 1182895" d="M763.6,644.063l-1.348-1.778.379-13.569,4.022-5.918Z" transform="translate(-690.028 -591.644)" fill="#223166"/>
        <path id="Trazado_1182896" data-name="Trazado 1182896" d="M803.6,719.2s10.813-7.447,18.552-2.57l-13.874-17.772Z" transform="translate(-711.037 -630.288)" fill="#375681"/>
        <path id="Trazado_1182897" data-name="Trazado 1182897" d="M752.82,617.321s-8.783,6.558-7.3,21.749C746.3,647.136,756.177,671,756.177,671Z" transform="translate(-681.439 -588.861)" fill="#09264e"/>
        <path id="Trazado_1182898" data-name="Trazado 1182898" d="M754.561,613.572s-7.651,12.79-3.28,27.638l5.219,22.552.348,3.623h22.874l.837-7.385.787-19.958-3.48-22.6a7.223,7.223,0,0,0-4.72-5.707l-10.391-3.694-3.875,4.238Z" transform="translate(-683.768 -584.146)" fill="url(#linear-gradient-2)"/>
        <path id="Trazado_1182899" data-name="Trazado 1182899" d="M758.142,620.421,759.169,623l1.89-2.466-1.954-1.407Z" transform="translate(-687.939 -589.777)" fill="#cb3d3c"/>
        <path id="Trazado_1182900" data-name="Trazado 1182900" d="M787.568,669.436l-3.719-4.314c-11.687-10.122-12.2-30.154-12.2-30.154l20.334,27.607.016.826-.405,10.279-.836,7.385h-3.609Z" transform="translate(-694.8 -597.827)" fill="#cde0ec" opacity="0.5"/>
        <path id="Trazado_1182901" data-name="Trazado 1182901" d="M775.062,607.635s-10.506,17.3,6.671,37.422l26.126,28.075s6.54-10.036-14.526-28.995l.4-18.025a16.347,16.347,0,0,0-2.638-9.268l-1.113-1.711a7.221,7.221,0,0,0-3.318-2.747Z" transform="translate(-694.92 -583.94)" fill="#0c3266"/>
        <path id="Trazado_1182902" data-name="Trazado 1182902" d="M812.269,681.77v.033c.291.262.575.522.856.78l-3.976,2.083Z" transform="translate(-713.854 -621.606)" fill="#b0c6dd" opacity="0.4"/>
        <path id="Trazado_1182903" data-name="Trazado 1182903" d="M759.617,623.927a62.4,62.4,0,0,0,1.371,12.927,41.883,41.883,0,0,0,5.722,14.613,24.052,24.052,0,0,0,5.242,5.732,19.658,19.658,0,0,0,6.733,3.367,23.822,23.822,0,0,0,4.783.8c1.42.1,4.254-.04,4.254-.04l3.289,4.844L787.7,670.4a61.051,61.051,0,0,1-6.618-1.028,30.773,30.773,0,0,1-7.057-2.747,26.316,26.316,0,0,1-6.014-4.531,29.719,29.719,0,0,1-4.661-6.257,34.584,34.584,0,0,1-3.022-7.344,48.481,48.481,0,0,1-1.582-7.819,64.755,64.755,0,0,1-.145-13.925c.073-.771.153-1.542.267-2.309q.038-.255.076-.51c.011-.074,0-.066.079-.059Z" transform="translate(-688.016 -592.186)" fill="#cb3d3c"/>
        <path id="Trazado_1182904" data-name="Trazado 1182904" d="M753.621,606.6l3.421-2.458a5.506,5.506,0,0,1,.74,4.589l1.37,1.851a16.282,16.282,0,0,1-2.971.324Z" transform="translate(-685.642 -582.164)" fill="#f1a86a" opacity="0.5"/>
        <path id="Trazado_1182905" data-name="Trazado 1182905" d="M762.02,615.077c2.582-5.548,2.81-5.8,3.732-8.322l-1.19-.852a18.651,18.651,0,0,1-8.413,5.9h0l-2.591,2.97c1.822-.179,2.256-1.066,2.256-1.066l.962-1.3A7.6,7.6,0,0,0,762.02,615.077Z" transform="translate(-685.61 -583.06)" fill="#fff"/>
        <path id="Trazado_1182906" data-name="Trazado 1182906" d="M776.735,608.813s-11.313,20.6,12.951,42.935c0,0-14.966-20.281-9.323-33.48l-3.422-1.483,5.536-.928Z" transform="translate(-696.048 -584.538)" fill="#7da8c6" opacity="0.7"/>
        <g id="Grupo_1227644" data-name="Grupo 1227644" transform="translate(55.409 0)">
          <path id="Trazado_1182907" data-name="Trazado 1182907" d="M730.53,578.884s-3.782,3.249-1.971,7.338a4.209,4.209,0,0,0,1.458,1.762,3.342,3.342,0,0,0,3.008.521l.736-9.252Z" transform="translate(-728.068 -569.332)" fill="#0d1224"/>
          <path id="Trazado_1182908" data-name="Trazado 1182908" d="M742.055,598.476l.046-.023c.24-.121.509-.27.795-.44a9.9,9.9,0,0,0,2.228-1.8l0,0a5.568,5.568,0,0,0,1.472-3.136,2.445,2.445,0,0,0-.4-1.6l-.851-1.28.768-.51a3.638,3.638,0,0,0,.988-.955,4.274,4.274,0,0,0,.072-2.161c.479-.382,1.5-1.16,1.63-1.249l-2.174-5.835-13.876,4.685s-1.415,1.944,1.287,5.141l.669,1a2.8,2.8,0,0,1,.41,1.008,4.454,4.454,0,0,1-.026,1.715l-.031,1a.861.861,0,0,0,.294.672.847.847,0,0,0,.707.2l.72-.123a.87.87,0,0,1,.866.372l.48.719,1.339,1.418.845.893A1.477,1.477,0,0,0,742.055,598.476Z" transform="translate(-730.264 -569.636)" fill="#f5a46e"/>
          <path id="Trazado_1182909" data-name="Trazado 1182909" d="M772.379,578.9" transform="translate(-750.581 -569.339)" fill="none" stroke="#e3ebf3" stroke-miterlimit="10" stroke-width="0.951"/>
          <g id="Grupo_1227643" data-name="Grupo 1227643" transform="translate(13.202 14.633)">
            <path id="Trazado_1182910" data-name="Trazado 1182910" d="M756.317,589.231l.048.008c-.457.169-.94.335-1.46.494.039-.04.073-.081.117-.12A1.6,1.6,0,0,1,756.317,589.231Z" transform="translate(-754.905 -589.213)" fill="none"/>
          </g>
          <path id="Trazado_1182911" data-name="Trazado 1182911" d="M757.531,564.718a3.377,3.377,0,1,0,.936-4.683A3.377,3.377,0,0,0,757.531,564.718Z" transform="translate(-742.749 -559.466)" fill="#1d2443"/>
          <path id="Trazado_1182912" data-name="Trazado 1182912" d="M751.667,590.271a1.927,1.927,0,0,0-.159.191,1.541,1.541,0,0,0-.368,1.01,2.009,2.009,0,0,0,.021.207c0,.029.005.058.009.086a2.43,2.43,0,0,0,.047.268,2.947,2.947,0,0,0,.094.324l.024.06a3.578,3.578,0,0,0,.176.383l.014.027a2.9,2.9,0,0,0,.193.31l-1.252.835-1.934-2.9C749.689,590.828,750.729,590.559,751.667,590.271Z" transform="translate(-738.465 -575.117)" fill="#0d1224"/>
          <path id="Trazado_1182913" data-name="Trazado 1182913" d="M732.629,572.242a11.991,11.991,0,0,1,2.354-1.358l6.075-2.629c2.241-.638,2.988.2,2.988.2s1.1-2.066,4.414,1.46.026,6.054.026,6.054c-1.608,1.072-3.031,1.926-4.3,2.611a1.835,1.835,0,0,0-2.49,1.217c-5.293,2.285-6.854.8-7.164.382,1.987,3.281,6.419,4.339,6.419,4.339-4.087-.131-8.526-3.931-8.526-3.931C727.841,576.911,730.473,573.836,732.629,572.242Z" transform="translate(-728.997 -563.727)" fill="#1d2443"/>
          <path id="Trazado_1182914" data-name="Trazado 1182914" d="M758.842,585.556a1.994,1.994,0,0,0-.546-.245,1.483,1.483,0,0,0-.424-.161c3.378-1.252,5.113-2.741,6-3.987a4.579,4.579,0,0,1-.348,1.275,3.439,3.439,0,0,0-.282,1.724l1.957,6.824-4.983-3.062A3.128,3.128,0,0,0,758.842,585.556Z" transform="translate(-743.211 -570.49)" fill="#0d1224"/>
          <path id="Trazado_1182915" data-name="Trazado 1182915" d="M740.315,598.748a2.147,2.147,0,0,0-2.164.4l-1.218-.169-.216-.665,3.046-.245Z" transform="translate(-732.462 -579.08)" fill="#0d1224"/>
          <path id="Trazado_1182916" data-name="Trazado 1182916" d="M738.61,600.744l.48.728,1.671-1.077Z" transform="translate(-733.424 -580.261)" fill="#0d1224"/>
          <path id="Trazado_1182917" data-name="Trazado 1182917" d="M745.383,563.848a3.376,3.376,0,1,1,5.1,1.8,4.921,4.921,0,0,1,1.455,2.749c-5.427,5.052-13.851,5.716-16.875,3.988-2.01-1.148-1.1-2.9-.027-4.135a7.257,7.257,0,0,1,2.589-1.9l5.455-2.36A4.385,4.385,0,0,1,745.383,563.848Z" transform="translate(-731.015 -559.467)" fill="#1d2443"/>
        </g>
        <path id="Trazado_1182918" data-name="Trazado 1182918" d="M764.74,831.731a12.585,12.585,0,0,0,4.406-.866,2.082,2.082,0,0,0,.688-.69.067.067,0,0,1,.01-.014.073.073,0,0,0,.006-.012,2.767,2.767,0,0,0,.254-.507L766.611,778.3l-3.546-49.623h22.874s3.114,7.579-3.539,12.909l-8.134,42.045c3.257,12.732,0,30.794-.889,46.339h-.055c.011,1.338.006.611.027,3.425l-1.677.012-.014-1.19a4.86,4.86,0,0,1-2.866,1.2l-6.621.031S762.008,831.905,764.74,831.731Z" transform="translate(-689.985 -645.438)" fill="#0c3266"/>
        <path id="Trazado_1182919" data-name="Trazado 1182919" d="M793.077,655.738l5.831-17.94c-3.3-2.674-4.792-4.721-5.682-10.415l9.77-.069a51.915,51.915,0,0,1,1.5,8.8l-.343,15.622-1.535-11.074c-.31-.237.074.051-.216-.169Z" transform="translate(-705.689 -593.938)" fill="#002842" opacity="0.5"/>
        <g id="Grupo_1227647" data-name="Grupo 1227647" transform="translate(0 75.213)">
          <path id="Trazado_1182920" data-name="Trazado 1182920" d="M692.209,712.5a6.058,6.058,0,0,0-3.908.447h0a6.075,6.075,0,0,0-3.334,4.2l-2.058,9.41,1.514.751,2.146-9.81A4.416,4.416,0,0,1,689,714.431h0a4.443,4.443,0,0,1,6.244,4.964l-2.621,11.982a1.32,1.32,0,0,0,1.876-.9l2.347-10.731A6.084,6.084,0,0,0,692.209,712.5Z" transform="translate(-649.715 -712.361)" fill="#1c3b69"/>
          <path id="Trazado_1182921" data-name="Trazado 1182921" d="M643.762,746.216l.774,9.437-24.853-10.091.794-2.234,17.309,5.342a1.337,1.337,0,0,0,.968-.07Z" transform="translate(-617.592 -728.094)" fill="#1a437f"/>
          <path id="Trazado_1182922" data-name="Trazado 1182922" d="M618.135,740.227l-1.589,4.469,1.542-.71.794-2.234Z" transform="translate(-615.998 -726.519)" fill="#1c3b69"/>
          <rect id="Rectángulo_422683" data-name="Rectángulo 422683" width="4.743" height="0.603" transform="matrix(0.335, -0.942, 0.942, 0.335, 0, 17.967)" fill="#1c3b69"/>
          <path id="Trazado_1182923" data-name="Trazado 1182923" d="M679.86,733.282a1.726,1.726,0,0,1-.755,2.418L662.85,743.43a1.725,1.725,0,0,1-2.351-.941l-6.908-18.02,16.65-7.919Z" transform="translate(-634.82 -714.49)" fill="#496899"/>
          <path id="Trazado_1182924" data-name="Trazado 1182924" d="M669.762,713.715a.771.771,0,0,1-.365,1.027l-17.173,8.167a.771.771,0,0,1-.662-1.392l17.173-8.167A.771.771,0,0,1,669.762,713.715Z" transform="translate(-633.565 -712.825)" fill="#1c3b69"/>
          <g id="Grupo_1227646" data-name="Grupo 1227646" transform="translate(27.38 10.267)">
            <path id="Trazado_1182925" data-name="Trazado 1182925" d="M678.4,736.481c.922,1.94.247,3.172-1.023,3.775s-2.651.35-3.574-1.589.233-5.435.233-5.435S677.475,734.542,678.4,736.481Z" transform="translate(-672.286 -733.232)" fill="#fff"/>
            <g id="Grupo_1227645" data-name="Grupo 1227645" transform="translate(0 3.853)">
              <path id="Trazado_1182926" data-name="Trazado 1182926" d="M674.344,749.168c1.242.441,1.5,1.208,1.243,1.945s-.95,1.166-2.192.724-2.305-2.323-2.305-2.323A5.913,5.913,0,0,1,674.344,749.168Z" transform="translate(-671.09 -745.114)" fill="#fff"/>
              <path id="Trazado_1182927" data-name="Trazado 1182927" d="M684.953,743.391c-.445,1.253-.013,1.947.731,2.211s1.518,0,1.963-1.254a5.97,5.97,0,0,0-.35-3.283S685.4,742.138,684.953,743.391Z" transform="translate(-678.042 -741.065)" fill="#fff"/>
            </g>
            <path id="Trazado_1182928" data-name="Trazado 1182928" d="M682.8,750.092a.357.357,0,0,1-.645.307l-1.738-3.656.645-.307Z" transform="translate(-675.828 -739.94)" fill="#fff"/>
          </g>
        </g>
        <g id="Grupo_1227649" data-name="Grupo 1227649" transform="translate(41.035 74.712)">
          <path id="Trazado_1182929" data-name="Trazado 1182929" d="M704.82,717.742l2.966-.953,4.532-1.77-.651-2.008-3.591,1.2L704.805,712l-3.1-.655-.01.05a.942.942,0,0,0,.644,1.1l1.7.522-2.5.684,1.109,4.211Z" transform="translate(-700.22 -711.343)" fill="#f1a86a"/>
          <g id="Grupo_1227648" data-name="Grupo 1227648" transform="translate(0 2.101)">
            <path id="Trazado_1182930" data-name="Trazado 1182930" d="M701.751,716.72a.554.554,0,0,0-.08-1.1l-2.309.168a.554.554,0,1,0,.08,1.1Z" transform="translate(-698.848 -715.614)" fill="#f1a86a"/>
            <path id="Trazado_1182931" data-name="Trazado 1182931" d="M702.94,718.868a.554.554,0,0,0-.08-1.1l-2.309.168a.554.554,0,1,0,.08,1.1Z" transform="translate(-699.452 -716.705)" fill="#f1a86a"/>
            <path id="Trazado_1182932" data-name="Trazado 1182932" d="M704.129,721.017a.554.554,0,1,0-.08-1.1l-2.309.168a.554.554,0,1,0,.08,1.1Z" transform="translate(-700.056 -717.797)" fill="#f1a86a"/>
            <path id="Trazado_1182933" data-name="Trazado 1182933" d="M705.317,723.165a.554.554,0,0,0-.08-1.1l-2.309.168a.554.554,0,0,0,.08,1.1Z" transform="translate(-700.66 -718.888)" fill="#f1a86a"/>
          </g>
        </g>
        <path id="Trazado_1182934" data-name="Trazado 1182934" d="M743.27,655.426l-27.536,10.659.888,3.109,30.272-6.11A3.89,3.89,0,0,0,749.7,660.8l14.128-32.965a7.132,7.132,0,0,0-3.8-9.388l-.128-.054a5.662,5.662,0,0,0-7.653,3.749Z" transform="translate(-666.392 -589.184)" fill="#0c3266"/>
      </g>
      <g id="Grupo_1227651" data-name="Grupo 1227651" transform="translate(2736.01 2867.313)">
        <path id="Trazado_1182935" data-name="Trazado 1182935" d="M725.857,777.535c-.009-1.657-1.2-3.269-4.411-4.436-4.123-1.5-10.782.424-10.782.424s3.865,5.755,7.987,7.255c3.347,1.218,5.328.656,6.367-.734v53.3h.839V777.535Z" transform="translate(-710.664 -764.841)" fill="#002842"/>
        <path id="Trazado_1182936" data-name="Trazado 1182936" d="M748.925,757.615c-3.751,1.365-5.284,3.221-5.462,5.15h-.02V825.41h.839V765.946c1.228,1.94,3.724,2.809,8.115,1.211,5.123-1.865,9.925-9.015,9.925-9.015S754.048,755.751,748.925,757.615Z" transform="translate(-727.318 -756.904)" fill="#002842"/>
        <path id="Trazado_1182937" data-name="Trazado 1182937" d="M750.378,786.07c-2.459.895-3.411,2.123-3.464,3.391h0V840h.839V791.744c.857.932,2.375,1.256,4.827.364,3.242-1.18,6.28-5.7,6.28-5.7S753.619,784.89,750.378,786.07Z" transform="translate(-729.079 -771.494)" fill="#002842"/>
      </g>
      <path id="Trazado_1182938" data-name="Trazado 1182938" d="M479.062,340.245c-27.516-6.879-31.748-29.579-4.233-38.521s26.1-31.643,26.1-31.643c0-18.621-13.973-25.459-21.473-27.789a69.144,69.144,0,0,1-16.094-7.371c-16.889-10.584-26.4-24.4-26.4-51.743,0-33.018-35.02-33.018-35.02-33.018s-35.02,0-35.02,33.018c0,24.76-7.8,38.431-21.821,48.652a72.307,72.307,0,0,1-20.8,10.5c-7.53,2.367-21.346,9.233-21.346,27.749,0,0-1.411,22.7,26.1,31.643s23.282,31.643-4.233,38.521-37.393,17.885-35.276,39.9,21.871,26.14,39.509,29.579,33.16,4.815,37.393,26.14c4.085,20.578,33.336,20.658,35.379,20.638h.225c2.042.02,31.293-.06,35.378-20.638,4.233-21.324,19.755-22.7,37.393-26.14s37.393-7.567,39.509-29.579S506.577,347.124,479.062,340.245Z" transform="translate(2205.117 2378.675)" fill="#f8ac2c"/>
      <path id="Trazado_1182939" data-name="Trazado 1182939" d="M514.337,452.844c1.23-12.848-1.6-21.956-9.586-28.693-12.707-8.242-30.977-2.272-42.358,3.014a36.1,36.1,0,0,1-33.86-1.848c-28.976-17.59-40.53-61.693-71.087-92.88-20.626-21.051-36.2-17.852-46.066-10.659-4.664,4.351-8.423,10.86-8.423,20.555,0,0-1.411,22.793,26.1,31.772s23.282,31.772-4.233,38.679-37.393,17.958-35.276,40.06,21.871,26.246,39.51,29.7,33.16,4.835,37.393,26.246c4.085,20.662,33.336,20.742,35.379,20.722h.225c2.042.02,31.293-.06,35.378-20.722,4.233-21.411,19.755-22.793,37.393-26.246S512.22,474.947,514.337,452.844Z" transform="translate(2205.118 2305.661)" opacity="0.5" fill="url(#linear-gradient-3)"/>
      <g id="Grupo_1227652" data-name="Grupo 1227652" transform="translate(2590.339 2633.293)">
        <path id="Trazado_1182940" data-name="Trazado 1182940" d="M429.816,301.928c-.009-1.666-1.21-3.287-4.435-4.461-4.146-1.509-10.841.426-10.841.426s3.886,5.786,8.032,7.3c3.366,1.225,5.357.659,6.4-.738v12.664h.844V301.928Z" transform="translate(-414.54 -289.165)" fill="#fff"/>
        <path id="Trazado_1182941" data-name="Trazado 1182941" d="M453.012,281.9c-3.772,1.372-5.314,3.238-5.492,5.179h-.02v22.054h.844V290.275c1.234,1.95,3.744,2.824,8.16,1.217,5.151-1.875,9.98-9.065,9.98-9.065S458.163,280.024,453.012,281.9Z" transform="translate(-431.286 -281.183)" fill="#fff"/>
        <path id="Trazado_1182942" data-name="Trazado 1182942" d="M454.472,310.51c-2.472.9-3.43,2.134-3.483,3.41h0V323.8h.844v-7.587c.862.937,2.388,1.263,4.854.366,3.26-1.186,6.315-5.736,6.315-5.736S457.732,309.324,454.472,310.51Z" transform="translate(-433.056 -295.854)" fill="#fff"/>
      </g>
      <g id="Grupo_1227654" data-name="Grupo 1227654" transform="translate(2735.754 2903.327)">
        <g id="Grupo_1227653" data-name="Grupo 1227653" transform="translate(0 6.762)">
          <path id="Trazado_1182943" data-name="Trazado 1182943" d="M731.143,843.869l1.363-.007.114,22.847a.681.681,0,0,1-1.363.007Z" transform="translate(-720.813 -843.862)" fill="#06505d"/>
          <path id="Trazado_1182944" data-name="Trazado 1182944" d="M717.766,859.408c2.921,1.046,3.492,2.625,2.954,4.127s-1.982,2.358-4.9,1.312-5.673-5.1-5.673-5.1S714.846,858.362,717.766,859.408Z" transform="translate(-710.144 -851.562)" fill="#06505d"/>
          <path id="Trazado_1182945" data-name="Trazado 1182945" d="M736.257,870.153c-2.91,1.075-3.466,2.66-2.912,4.156s2.006,2.339,4.915,1.263,5.622-5.158,5.622-5.158S739.167,869.078,736.257,870.153Z" transform="translate(-721.835 -857.007)" fill="#06505d"/>
        </g>
        <circle id="Elipse_12702" data-name="Elipse 12702" cx="5.328" cy="5.328" r="5.328" transform="translate(3.484 7.535) rotate(-45)" fill="#06505d"/>
      </g>
      <g id="Grupo_1227655" data-name="Grupo 1227655" transform="translate(2700.645 2881.127)">
        <path id="Trazado_1182946" data-name="Trazado 1182946" d="M659.859,813.621c-.013-2.3-1.671-4.538-6.121-6.158-5.723-2.083-14.965.588-14.965.588s5.363,7.987,11.086,10.07c4.646,1.691,7.394.91,8.837-1.019v17.48h1.164v-20.96Z" transform="translate(-638.773 -796.003)" fill="#002842"/>
        <path id="Trazado_1182947" data-name="Trazado 1182947" d="M691.878,785.973c-5.206,1.895-7.335,4.47-7.581,7.149h-.027v30.442h1.164V797.536c1.7,2.692,5.168,3.9,11.263,1.681,7.111-2.588,13.775-12.512,13.775-12.512S698.988,783.385,691.878,785.973Z" transform="translate(-661.889 -784.986)" fill="#002842"/>
        <path id="Trazado_1182948" data-name="Trazado 1182948" d="M693.894,825.468c-3.412,1.242-4.734,2.946-4.808,4.706h-.006v13.641h1.164V833.343c1.189,1.293,3.3,1.743,6.7.5,4.5-1.638,8.717-7.918,8.717-7.918S698.394,823.83,693.894,825.468Z" transform="translate(-664.333 -805.236)" fill="#002842"/>
      </g>
      <path id="Trazado_1182949" data-name="Trazado 1182949" d="M424.9,364.731s.725-.092.47-.58c0,0-.129-.367-.91-.244a6.492,6.492,0,0,1-1.264.068,1.592,1.592,0,0,0-1.141.292l-1.369,1.179a1.138,1.138,0,0,0-.613,1.142l.257,1.847a8.134,8.134,0,0,1,.187,2.251Z" transform="translate(2172.999 2310.094)" fill="#f1a86a"/>
      <g id="Grupo_1227659" data-name="Grupo 1227659" transform="translate(2589.02 2653.911)">
        <circle id="Elipse_12703" data-name="Elipse 12703" cx="12.123" cy="12.123" r="12.123" transform="translate(0 17.144) rotate(-45)" fill="#fff"/>
        <g id="Grupo_1227658" data-name="Grupo 1227658" transform="translate(10.666 8.547)">
          <g id="Grupo_1227656" data-name="Grupo 1227656" transform="translate(0 1.174)">
            <path id="Trazado_1182950" data-name="Trazado 1182950" d="M439.983,345.662q-2.273-.005-2.276,1.379,0,.852,2.3,1.355l1.065.216q.532.108,1.065.251.6.144,1.135.322t.958.357a3.481,3.481,0,0,1,2.265,3.308,4.234,4.234,0,0,1-1.926,3.759,7.6,7.6,0,0,1-4.263,1.091q-4.474-.01-6.1-2.571a4.494,4.494,0,0,1-.669-2.345l3.835.009q-.005,2.1,3.085,2.1,2.307.005,2.311-1.486,0-.923-2.234-1.39-.568-.108-1.1-.215t-1.065-.251q-.6-.143-1.135-.322a9.323,9.323,0,0,1-.922-.357,3.5,3.5,0,0,1-2.265-3.343,4.236,4.236,0,0,1,3.6-4.43,8.521,8.521,0,0,1,2.131-.244q5.93.014,6.31,4.666l-3.622-.008Q442.219,345.669,439.983,345.662Z" transform="translate(-433.54 -342.856)" fill="#c3922e"/>
          </g>
          <g id="Grupo_1227657" data-name="Grupo 1227657" transform="translate(5.004 0)">
            <rect id="Rectángulo_422684" data-name="Rectángulo 422684" width="1.948" height="2.922" transform="translate(0.035 1.948) rotate(-89.868)" fill="#c3922e"/>
            <rect id="Rectángulo_422685" data-name="Rectángulo 422685" width="1.948" height="2.922" transform="translate(0 17.183) rotate(-89.868)" fill="#c3922e"/>
          </g>
        </g>
      </g>
      <path id="Trazado_1182951" data-name="Trazado 1182951" d="M423.931,365.2a.72.72,0,0,1,.98.293s.211.249-.453,1.01a1.4,1.4,0,0,0-.469,1.034l-.114,1.174a4.354,4.354,0,0,1-.215,1.41,2.244,2.244,0,0,1-.416.754,7.349,7.349,0,0,0-1.506,2.508l-.742,3.1-2.1-.5,1.077-3.4-.047-1.271,1.812-3.457a1.122,1.122,0,0,0,.088-.222,1.983,1.983,0,0,1,.445-.823,1.947,1.947,0,0,0,.191-.235l.458-.664c.048-.07.094-.144.135-.219A1.087,1.087,0,0,1,423.931,365.2Z" transform="translate(2173.585 2309.468)" fill="#f1a86a"/>
      <path id="Trazado_1182952" data-name="Trazado 1182952" d="M357.8,437.646c1.135-3.995,5.88-7.654,8.258-9.437l10.846-13.08,11.094-32.389,2.729.563-6.707,35.608a12,12,0,0,1-1.389,3.626l-14.353,25.836-10.686-9.954Z" transform="translate(2204.735 2300.512)" fill="#09264e"/>
      <path id="Trazado_1182953" data-name="Trazado 1182953" d="M369.6,477.055l7.145,1.021,11.985-14.435-11.272,20.29Z" transform="translate(2198.632 2259.408)" fill="#001833"/>
      <path id="Trazado_1182954" data-name="Trazado 1182954" d="M366.281,615.093s-6.5,9.331-13.335,6.849c0,0-8.29-4.16-12.775,4.6l10.149-26.773Z" transform="translate(2213.584 2190.245)" fill="#375681"/>
      <path id="Trazado_1182955" data-name="Trazado 1182955" d="M339.245,482.87l-2.358-9.74,9.5-3.278,2.858,9.544-2.8,3.635Z" transform="translate(2215.252 2256.252)" fill="#f1a86a"/>
      <path id="Trazado_1182956" data-name="Trazado 1182956" d="M379.553,512.96l.683.315s3.055,26.323,3.055,26.322c1.2-5.125.959-16.573.153-21.65-1.325-8.351-2.239-19.308-12.206-26.987-3.661-2.821-9.045-3.086-9.045-3.086l.311,1.259Z" transform="translate(2202.396 2247.096)" fill="#001833"/>
      <path id="Trazado_1182957" data-name="Trazado 1182957" d="M344.179,545.155c-1.681-2.366-2.781-8.255-2.781-8.255l-2.694-9.292-6.153-6.33c-2.826-10.618-.324-20.464,1.124-24.768.413-1.229,1.328-1.734,1.959-2.866l.758-1.359a82.078,82.078,0,0,0,10.9-4.194c1.7-.865,7.308,4.739,8.162,5.6,7.511,7.584,9.611,17.5,11.933,27.516,0,0,2.2,13.286-.287,23.946H344.179Z" transform="translate(2218.109 2247.032)" fill="url(#linear-gradient-4)"/>
      <path id="Trazado_1182958" data-name="Trazado 1182958" d="M364.281,491.831l-2.389-.175.059-1.994,1.181-.184,1.09-.026,1.475,2.288Z" transform="translate(2202.548 2246.294)" fill="#cb3d3c"/>
      <path id="Trazado_1182959" data-name="Trazado 1182959" d="M331.736,496.988l-1.21.777a19.724,19.724,0,0,0-5.647,5.491c-4.714,6.937-2.634,10.789,1.41,22.265,1.188,3.37,6.879,6.483,6.945,6.612L335.539,540s-2.135,8.429-4.907,13.243a16.592,16.592,0,0,0-1.926,5.149c-.905,4.6-1.711,12.27,5.55,19.907,0,0,6.353-26.692,13-44.831S346.717,506.328,331.736,496.988Z" transform="translate(2222.729 2242.465)" fill="#0c3266"/>
      <path id="Trazado_1182960" data-name="Trazado 1182960" d="M367.671,554.84c2.277-6.208,2.931-11.344,2.208-15.791.3,1,1.491,5.826-.189,14.122a39.454,39.454,0,0,1-1.314,4.856,114.864,114.864,0,0,0-3.621,13.064h-2.4C364.022,565.517,365.835,559.852,367.671,554.84Z" transform="translate(2202.312 2221.095)" fill="#d1d1d0" opacity="0.7"/>
      <path id="Trazado_1182961" data-name="Trazado 1182961" d="M354,585.188l-5-1.213.065.222s-.095.373-.268,1Z" transform="translate(2209.201 2198.269)" fill="#9fb6c6" opacity="0.7"/>
      <path id="Trazado_1182962" data-name="Trazado 1182962" d="M327.735,530.8c.426,1.191.887,2.47,1.38,3.868,1.188,3.37,6.879,6.483,6.945,6.611l2.305,7.868s-2.135,8.429-4.907,13.243a16.592,16.592,0,0,0-1.926,5.15c-.026.132-.051.267-.075.4a106.181,106.181,0,0,0,7.256-12.345,17.147,17.147,0,0,0,1.551-5.252l.294-2.334a6.838,6.838,0,0,0-.073-2.166l-.706-3.625a6.077,6.077,0,0,0-2.2-3.608,2.544,2.544,0,0,1-.819-2.857l1.455-4.057c1.44-8.766-4.317-16.708-4.317-16.708Z" transform="translate(2219.903 2233.316)" fill="#173342" opacity="0.5"/>
      <path id="Trazado_1182963" data-name="Trazado 1182963" d="M350.015,473.066l5.4-3.465.237.733a14.787,14.787,0,0,1-1.926,1.833l2.127,7.1-.79,1.027-1.609.4-.756-3.033C348.994,476.256,350.015,473.066,350.015,473.066Z" transform="translate(2208.649 2256.38)" opacity="0.5" fill="url(#linear-gradient-5)"/>
      <g id="Grupo_1227662" data-name="Grupo 1227662" transform="translate(2545.149 2709.755)">
        <g id="Grupo_1227661" data-name="Grupo 1227661" transform="translate(0 0)">
          <g id="Grupo_1227660" data-name="Grupo 1227660">
            <path id="Trazado_1182964" data-name="Trazado 1182964" d="M345.061,458.072l3.224,4.609s.515,1.106-1.186,1.519l-3.334.907-.7.486-6.673-1.927-5.382-1.545-2.733-3.1,5.247-5.83,2.512-2.7a4.4,4.4,0,0,1,.744-.054.357.357,0,0,0,.061,0l1.37.389.026-.179a4.116,4.116,0,0,1,2.417,1.879s.951,2.1,2.155,2.466l1.588.79S347.3,456.591,345.061,458.072Z" transform="translate(-325.524 -443.633)" fill="#f1a86a"/>
            <path id="Trazado_1182965" data-name="Trazado 1182965" d="M347.086,450.638l-.026.179-1.37-.389A5.2,5.2,0,0,1,347.086,450.638Z" transform="translate(-334.369 -443.633)" fill="#f1a86a"/>
            <path id="Trazado_1182966" data-name="Trazado 1182966" d="M360.788,467.293l-1.913,1.338s-.643-1.1.922-2.2l.957-.669.73,1.043Z" transform="translate(-341.001 -451.425)" fill="#32062f"/>
            <path id="Trazado_1182967" data-name="Trazado 1182967" d="M332.538,480.069l3.742,3.519,1.09-6A12.011,12.011,0,0,1,332.538,480.069Z" transform="translate(-327.687 -457.431)" fill="#32062f"/>
            <path id="Trazado_1182968" data-name="Trazado 1182968" d="M335.446,443.267a2.881,2.881,0,0,0-2.061-3.205l-.764-.217a.365.365,0,0,1-.253-.448A2.2,2.2,0,0,0,328.2,438l-5.039,12.6a6.741,6.741,0,0,0,3.5,8.655l.356.159c.909.6,4.552.25,5.342-2.644l-.032-.1-.661-.574c-2.442-1.27-1.172-3.713.314-3.069a2.841,2.841,0,0,0,2.417.122c4.255-3.722-.13-9.326-.462-9.742a.127.127,0,0,1-.021-.022l.082.021a5.227,5.227,0,0,1,1.4.21Z" transform="translate(-322.676 -436.616)" fill="#4a3649"/>
            <path id="Trazado_1182969" data-name="Trazado 1182969" d="M349.533,458.241l2-1.4.177.58-.676.749a1.572,1.572,0,0,0-1.529.837Z" transform="translate(-336.309 -446.891)" fill="#4a3649"/>
            <path id="Trazado_1182970" data-name="Trazado 1182970" d="M353.328,458.829l.516.755-1.709,1.2Z" transform="translate(-337.643 -447.902)" fill="#1b2241"/>
          </g>
          <path id="Trazado_1182971" data-name="Trazado 1182971" d="M333.387,440.062l-.764-.217a.366.366,0,0,1-.253-.448A2.2,2.2,0,0,0,328.2,438l-5.039,12.6a6.735,6.735,0,0,0,.88,6.559c-.109-3.53,3.308-5.163,5.389-5.827a6.732,6.732,0,0,0,4.555-7.7c-.028-.141-.047-.22-.047-.22a.134.134,0,0,1-.021-.022l.082.021a5.231,5.231,0,0,1,1.4.21l.054-.353A2.882,2.882,0,0,0,333.387,440.062Z" transform="translate(-322.677 -436.616)" fill="#4a3649"/>
        </g>
        <path id="Trazado_1182972" data-name="Trazado 1182972" d="M344.513,468.843l1.544,2.207a3.334,3.334,0,0,0,2.379,1.4c1.318.139,3.324-.174,5.96-2.084l1.062,1.519a1.4,1.4,0,0,1-.432,2c-2.087,1.239-6.3,3.161-8.872.416a5.106,5.106,0,0,1-.983-2.444c-.3-1.693-1.906-1.859-2.634-2.9Z" transform="translate(-332.767 -452.99)" fill="#4a3649"/>
      </g>
      <path id="Trazado_1182973" data-name="Trazado 1182973" d="M355.488,488.054l-4.191-.014c-4.374,2.69-5.89,2.928-10.045,3.567l.162.854c2.751.649,2.785-.343,8.433,1.99,1.421-2.474,2-4.3,1.66-5.541l1.7-.03-.041-.016A4.324,4.324,0,0,0,355.488,488.054Z" transform="translate(2213.035 2247.012)" fill="#fff"/>
      <path id="Trazado_1182974" data-name="Trazado 1182974" d="M336.9,647.473l2.969-.154,3.246,1.573a.06.06,0,0,1,.032.035.061.061,0,0,1,0,.047.94.94,0,0,1-1.172.463l-1.61-.6,1.6,1.787.752.627a.552.552,0,1,1-.707.849l-.348-.29a.548.548,0,0,1-.74.806l-.348-.29a.547.547,0,0,1,.037.736.553.553,0,0,1-.778.071l-.3-.246-.01.009a.544.544,0,0,1-.005.683.552.552,0,0,1-.778.07,17.378,17.378,0,0,1-2.221-1.424,1.486,1.486,0,0,1-.431-.614l-2.506-6.693,2.069-.773Z" transform="translate(2216.927 2167.7)" fill="#f1a86a"/>
      <path id="Trazado_1182975" data-name="Trazado 1182975" d="M326.237,507.207a4.669,4.669,0,0,0-7.778.515,12.526,12.526,0,0,0-.907,1.97c-1.049,1.818-3.949,7.526-3.28,13.987a12.079,12.079,0,0,1-.145,3.479l-3.651,19.214a6.119,6.119,0,0,0,.374,3.521l11.431,27.082,3.062-1.148-8.408-28.577,10.7-24.231S331.884,514.648,326.237,507.207Z" transform="translate(2228.726 2238.212)" fill="#0c3266"/>
      <path id="Trazado_1182976" data-name="Trazado 1182976" d="M364.565,490.282l.13.082c.089.057.218.141.381.252.329.222.805.555,1.4,1.008s1.3,1.026,2.1,1.709c.793.7,1.683,1.5,2.616,2.443.238.23.472.476.711.727l.731.77c.482.543,1,1.086,1.492,1.69,1.019,1.173,2.027,2.507,3.052,3.917l.75,1.1.38.556.366.577.738,1.169c.24.4.473.81.711,1.218.487.808.922,1.675,1.379,2.531.234.423.431.879.648,1.319s.43.886.634,1.339c.8,1.822,1.56,3.687,2.188,5.6l.473,1.429c.152.477.279.963.419,1.442l.405,1.432.342,1.437q.169.715.335,1.418.136.713.27,1.412l.263,1.385c.084.458.138.916.206,1.365l.192,1.334q.047.329.091.653t.064.646c.084.857.166,1.685.244,2.48.052.8.088,1.563.128,2.292q.029.548.057,1.067c.014.346.01.681.016,1.006.006.651.012,1.261.017,1.825q0,.424.007.812c-.008.257-.017.5-.024.736-.065,1.869-.1,2.937-.1,2.937l-3.336,3.95-2.319-4.83s.1-.939.282-2.581q.034-.309.072-.65.022-.341.046-.715c.032-.5.068-1.037.105-1.613.017-.288.044-.586.054-.893s.012-.622.019-.945c.011-.647.032-1.331.04-2.043q-.025-1.067-.053-2.219-.007-.288-.013-.582t-.039-.587q-.041-.593-.082-1.2c-.031-.406-.047-.822-.091-1.238s-.094-.835-.143-1.26-.1-.856-.145-1.291q-.1-.645-.206-1.3t-.209-1.328q-.133-.66-.269-1.329c-.093-.445-.174-.9-.279-1.347l-.332-1.343c-.438-1.8-1.005-3.586-1.613-5.352-.155-.439-.328-.868-.491-1.3s-.319-.876-.507-1.293c-.364-.842-.706-1.7-1.1-2.508-.194-.408-.382-.819-.578-1.221l-.609-1.181-.3-.586-.318-.566-.629-1.123c-.868-1.45-1.73-2.84-2.618-4.081-.43-.638-.883-1.216-1.306-1.8l-.646-.826c-.212-.271-.42-.536-.631-.785-.83-1.021-1.63-1.9-2.346-2.674-.724-.757-1.366-1.405-1.909-1.909s-.975-.89-1.274-1.141c-.15-.127-.263-.22-.338-.28l-.119-.094Z" transform="translate(2201.407 2245.873)" fill="#cb3d3c"/>
      <path id="Trazado_1182977" data-name="Trazado 1182977" d="M357.08,533.921c-.253.709-.5,1.437-.753,2.172L352.9,546.3c8.884-31.882-6.908-37.145-6.908-37.145l.823-3.641-3.783,2.987-.832-9.915C356.3,507.49,363.151,516.928,357.08,533.921Z" transform="translate(2212.555 2241.652)" fill="#7da8c6" opacity="0.7"/>
      <g id="Grupo_1227668" data-name="Grupo 1227668" transform="translate(2628.61 2679.58)">
        <g id="Grupo_1227666" data-name="Grupo 1227666" transform="translate(7.215 27.303)">
          <circle id="Elipse_12704" data-name="Elipse 12704" cx="11.453" cy="11.453" r="11.453" transform="translate(0 22.616) rotate(-80.851)" fill="#fff"/>
          <g id="Grupo_1227665" data-name="Grupo 1227665" transform="translate(7.008 5.021)">
            <g id="Grupo_1227663" data-name="Grupo 1227663" transform="translate(0 1.109)">
              <path id="Trazado_1182978" data-name="Trazado 1182978" d="M527.34,445.892q-2.148-.005-2.15,1.3,0,.806,2.177,1.28l1.006.2q.5.1,1.006.237.57.136,1.073.3t.905.337a3.289,3.289,0,0,1,2.14,3.125,4,4,0,0,1-1.82,3.552,7.177,7.177,0,0,1-4.028,1.031q-4.227-.009-5.764-2.429a4.249,4.249,0,0,1-.633-2.216l3.623.008q0,1.98,2.914,1.986,2.18.005,2.184-1.4,0-.872-2.11-1.313c-.358-.068-.7-.136-1.039-.2s-.671-.147-1.006-.237c-.381-.09-.737-.191-1.073-.3a8.917,8.917,0,0,1-.872-.337,3.309,3.309,0,0,1-2.14-3.158,4,4,0,0,1,3.4-4.186,8.016,8.016,0,0,1,2.013-.23q5.6.013,5.962,4.409l-3.422-.008Q529.453,445.9,527.34,445.892Z" transform="translate(-521.252 -443.241)" fill="#c3922e"/>
            </g>
            <g id="Grupo_1227664" data-name="Grupo 1227664" transform="translate(4.73 0)">
              <rect id="Rectángulo_422686" data-name="Rectángulo 422686" width="1.84" height="2.761" transform="translate(0.033 1.84) rotate(-89.868)" fill="#c3922e"/>
              <rect id="Rectángulo_422687" data-name="Rectángulo 422687" width="1.84" height="2.761" transform="translate(0 16.235) rotate(-89.868)" fill="#c3922e"/>
            </g>
          </g>
        </g>
        <g id="Grupo_1227667" data-name="Grupo 1227667" transform="translate(0 0)">
          <path id="Trazado_1182979" data-name="Trazado 1182979" d="M507.546,376.084c5.815,2.116,6.939,5.271,5.85,8.261s-3.977,4.685-9.792,2.568-11.266-10.233-11.266-10.233S501.731,373.967,507.546,376.084Z" transform="translate(-492.339 -375.276)" fill="#fff"/>
          <path id="Trazado_1182980" data-name="Trazado 1182980" d="M513.9,408.381c3.68,1.34,4.391,3.336,3.7,5.228s-2.517,2.964-6.2,1.625-7.129-6.475-7.129-6.475S510.217,407.042,513.9,408.381Z" transform="translate(-498.403 -391.837)" fill="#fff"/>
          <path id="Trazado_1182981" data-name="Trazado 1182981" d="M543.082,393.658c-4.68,1.7-5.584,4.242-4.708,6.649s3.2,3.77,7.881,2.067,9.066-8.235,9.066-8.235S547.762,391.954,543.082,393.658Z" transform="translate(-515.576 -384.285)" fill="#fff"/>
          <rect id="Rectángulo_422688" data-name="Rectángulo 422688" width="0.952" height="17.141" transform="translate(22.486 14.408)" fill="#fff"/>
          <rect id="Rectángulo_422689" data-name="Rectángulo 422689" width="0.952" height="24.895" transform="translate(20.446 6.654)" fill="#fff"/>
          <rect id="Rectángulo_422690" data-name="Rectángulo 422690" width="0.952" height="11.155" transform="translate(18.541 20.394)" fill="#fff"/>
        </g>
      </g>
      <g id="Grupo_1227674" data-name="Grupo 1227674" transform="translate(2594.113 2748.711)">
        <g id="Grupo_1227672" data-name="Grupo 1227672" transform="translate(0 13.322)">
          <circle id="Elipse_12705" data-name="Elipse 12705" cx="10.854" cy="10.854" r="10.854" transform="translate(0 15.35) rotate(-45)" fill="#fff"/>
          <g id="Grupo_1227671" data-name="Grupo 1227671" transform="translate(9.552 7.651)">
            <g id="Grupo_1227669" data-name="Grupo 1227669" transform="translate(0 1.054)">
              <path id="Trazado_1182982" data-name="Trazado 1182982" d="M447.4,563.1q-2.036,0-2.038,1.235,0,.763,2.064,1.213l.953.193q.477.1.953.225.54.128,1.017.289t.858.32a3.118,3.118,0,0,1,2.028,2.961,3.792,3.792,0,0,1-1.725,3.366,6.8,6.8,0,0,1-3.817.976q-4.006-.009-5.463-2.3a4.022,4.022,0,0,1-.6-2.1l3.434.008q0,1.876,2.762,1.882,2.066.005,2.07-1.331,0-.826-2-1.245-.508-.1-.985-.193t-.953-.225q-.541-.128-1.016-.288a8.459,8.459,0,0,1-.826-.32,3.137,3.137,0,0,1-2.028-2.993,3.793,3.793,0,0,1,3.221-3.967,7.618,7.618,0,0,1,1.908-.218q5.309.013,5.65,4.178l-3.243-.007Q449.4,563.1,447.4,563.1Z" transform="translate(-441.629 -560.586)" fill="#c3922e"/>
            </g>
            <g id="Grupo_1227670" data-name="Grupo 1227670" transform="translate(4.479 0)">
              <rect id="Rectángulo_422691" data-name="Rectángulo 422691" width="1.744" height="2.616" transform="translate(0.031 1.744) rotate(-89.868)" fill="#c3922e"/>
              <rect id="Rectángulo_422692" data-name="Rectángulo 422692" width="1.744" height="2.616" transform="translate(0 15.385) rotate(-89.868)" fill="#c3922e"/>
            </g>
          </g>
        </g>
        <g id="Grupo_1227673" data-name="Grupo 1227673" transform="translate(2.513 0)">
          <path id="Trazado_1182983" data-name="Trazado 1182983" d="M436.44,516.293c3.487,1.269,4.162,3.161,3.509,4.955s-2.385,2.809-5.873,1.54-6.756-6.137-6.756-6.137S432.953,515.024,436.44,516.293Z" transform="translate(-427.32 -515.809)" fill="#fff"/>
          <path id="Trazado_1182984" data-name="Trazado 1182984" d="M440.248,535.664c2.207.8,2.634,2,2.221,3.135s-1.509,1.778-3.716.975-4.275-3.883-4.275-3.883S438.041,534.86,440.248,535.664Z" transform="translate(-430.956 -525.741)" fill="#fff"/>
          <path id="Trazado_1182985" data-name="Trazado 1182985" d="M457.752,526.833c-2.806,1.022-3.349,2.544-2.824,3.988s1.92,2.261,4.726,1.24,5.437-4.939,5.437-4.939S460.558,525.812,457.752,526.833Z" transform="translate(-441.256 -521.212)" fill="#fff"/>
          <rect id="Rectángulo_422693" data-name="Rectángulo 422693" width="0.571" height="10.28" transform="translate(13.485 8.641)" fill="#fff"/>
          <rect id="Rectángulo_422694" data-name="Rectángulo 422694" width="0.571" height="14.931" transform="translate(12.262 3.991)" fill="#fff"/>
          <rect id="Rectángulo_422695" data-name="Rectángulo 422695" width="0.571" height="6.69" transform="translate(11.119 12.231)" fill="#fff"/>
        </g>
      </g>
      <g id="Grupo_1227675" data-name="Grupo 1227675" transform="translate(2780.373 2883.218)">
        <path id="Trazado_1182986" data-name="Trazado 1182986" d="M866.352,804.5c0-8.433-6.4-15.269-14.284-15.269s-14.284,6.836-14.284,15.269l7.634,39.649c.862,4.926,2.977,7.388,6.649,7.388s5.787-2.216,6.649-7.388Z" transform="translate(-819.614 -789.236)" fill="#62c9c6"/>
        <path id="Trazado_1182987" data-name="Trazado 1182987" d="M815.535,858.85c-3.52-3.52-9.042-3.7-12.334-.411s-3.108,8.815.411,12.335l19.735,13.362c2.415,1.7,4.326,1.841,5.859.308s1.49-3.341-.309-5.859Z" transform="translate(-800.847 -823.2)" fill="#62c9c6"/>
        <path id="Trazado_1182988" data-name="Trazado 1182988" d="M888.348,858.85c3.52-3.52,9.042-3.7,12.335-.411s3.108,8.815-.411,12.335l-19.735,13.362c-2.415,1.7-4.326,1.841-5.859.308s-1.49-3.341.308-5.859Z" transform="translate(-837.8 -823.2)" fill="#62c9c6"/>
      </g>
      <g id="Grupo_1227677" data-name="Grupo 1227677" transform="translate(2571.211 2861.02)">
        <g id="Grupo_1227676" data-name="Grupo 1227676" transform="translate(0 5.981)">
          <path id="Trazado_1182989" data-name="Trazado 1182989" d="M395.964,756.277l1.318-.006.11,22.1a.659.659,0,0,1-1.318.006Z" transform="translate(-385.974 -756.271)" fill="#62c9c6"/>
          <path id="Trazado_1182990" data-name="Trazado 1182990" d="M383.028,771.3c2.824,1.012,3.377,2.539,2.857,3.991s-1.917,2.281-4.741,1.269-5.486-4.934-5.486-4.934S380.2,770.292,383.028,771.3Z" transform="translate(-375.657 -763.717)" fill="#62c9c6"/>
          <path id="Trazado_1182991" data-name="Trazado 1182991" d="M400.909,781.7c-2.814,1.04-3.351,2.572-2.816,4.019s1.94,2.261,4.754,1.221,5.437-4.988,5.437-4.988S403.723,780.656,400.909,781.7Z" transform="translate(-386.962 -768.984)" fill="#62c9c6"/>
        </g>
        <circle id="Elipse_12706" data-name="Elipse 12706" cx="5.152" cy="5.152" r="5.152" transform="translate(3.957 3.919) rotate(-22.351)" fill="#62c9c6"/>
      </g>
      <g id="Grupo_1227679" data-name="Grupo 1227679" transform="translate(2586.308 2864.573)">
        <g id="Grupo_1227678" data-name="Grupo 1227678" transform="translate(0 5.622)">
          <path id="Trazado_1182992" data-name="Trazado 1182992" d="M423.8,762.768l1.133-.005.095,18.995a.567.567,0,1,1-1.133.006Z" transform="translate(-415.214 -762.763)" fill="#62c9c6"/>
          <path id="Trazado_1182993" data-name="Trazado 1182993" d="M412.682,775.687c2.428.87,2.9,2.182,2.456,3.431s-1.648,1.961-4.076,1.091-4.717-4.241-4.717-4.241S410.254,774.817,412.682,775.687Z" transform="translate(-406.345 -769.164)" fill="#62c9c6"/>
          <path id="Trazado_1182994" data-name="Trazado 1182994" d="M428.054,784.62c-2.419.894-2.881,2.211-2.421,3.455s1.668,1.944,4.086,1.05,4.674-4.288,4.674-4.288S430.473,783.726,428.054,784.62Z" transform="translate(-416.064 -773.691)" fill="#62c9c6"/>
        </g>
        <circle id="Elipse_12707" data-name="Elipse 12707" cx="4.429" cy="4.429" r="4.429" transform="translate(2.897 6.264) rotate(-45)" fill="#62c9c6"/>
      </g>
      <g id="Grupo_1227682" data-name="Grupo 1227682" transform="translate(2797.764 2902.469)">
        <g id="Grupo_1227680" data-name="Grupo 1227680" transform="translate(2.03 0)">
          <path id="Trazado_1182995" data-name="Trazado 1182995" d="M866.829,834.548a5.792,5.792,0,1,0-11.558,0l3.089,16.042c.349,1.993,1.2,2.989,2.69,2.989s2.341-.9,2.69-2.989Z" transform="translate(-847.919 -828.37)" fill="#002842"/>
          <path id="Trazado_1182996" data-name="Trazado 1182996" d="M846.269,856.535a3.419,3.419,0,1,0-4.824,4.824l7.984,5.406c.978.686,1.75.745,2.371.125s.6-1.351-.125-2.371Z" transform="translate(-840.326 -842.112)" fill="#002842"/>
          <path id="Trazado_1182997" data-name="Trazado 1182997" d="M875.73,856.535a3.419,3.419,0,1,1,4.824,4.824l-7.984,5.406c-.977.686-1.75.745-2.371.125s-.6-1.351.125-2.371Z" transform="translate(-855.278 -842.112)" fill="#002842"/>
        </g>
        <g id="Grupo_1227681" data-name="Grupo 1227681" transform="translate(0 14.738)">
          <path id="Trazado_1182998" data-name="Trazado 1182998" d="M866.78,865.458a6.683,6.683,0,1,0-13.336,0l3.564,18.51c.4,2.3,1.39,3.449,3.1,3.449s2.7-1.035,3.1-3.449Z" transform="translate(-844.961 -858.33)" fill="#002842"/>
          <path id="Trazado_1182999" data-name="Trazado 1182999" d="M843.057,890.828a3.945,3.945,0,1,0-5.566,5.566l9.213,6.238c1.128.792,2.02.859,2.735.144s.7-1.559-.144-2.735Z" transform="translate(-836.2 -874.186)" fill="#002842"/>
          <path id="Trazado_1183000" data-name="Trazado 1183000" d="M877.049,890.828a3.945,3.945,0,1,1,5.566,5.566l-9.213,6.238c-1.128.792-2.019.859-2.735.144s-.7-1.559.144-2.735Z" transform="translate(-853.451 -874.186)" fill="#002842"/>
        </g>
      </g>
      <path id="Trazado_1183001" data-name="Trazado 1183001" d="M274.759,880.574H588.782s-7.9-29.239-48.384-24.015c-37.156,4.794-54.046-21.581-78.663-33.516C422.182,803.866,333.488,801.469,274.759,880.574Z" transform="translate(2246.818 2082.495)" fill="#62c9c6"/>
      <path id="Trazado_1183002" data-name="Trazado 1183002" d="M513.618,827.522l20.563,7.344-.489,3.917-24.725-5.631Z" transform="translate(2127.823 2074.529)" fill="#09264e"/>
      <path id="Trazado_1183004" data-name="Trazado 1183004" d="M496.135,861.368l.694,11.379,18.986,1.225-26.282,2.709Z" transform="translate(2137.697 2057.333)" fill="#0c3266" opacity="0.5"/>
      <path id="Trazado_1183005" data-name="Trazado 1183005" d="M440.932,859.791s-10.572,3.649-15.557-2.429c0,0-5.478-8.3-13.926-3.909l22.58-15.546Z" transform="translate(2177.37 2069.253)" fill="#375681"/>
      <path id="Trazado_1183006" data-name="Trazado 1183006" d="M529.935,721.975a5.6,5.6,0,0,0-.734-1.321c-.015-.014-.574-.646-.574-.646l-3.935-.361-8.374-.636-1.56,7.766-2.78,5.557-.929,3.529,1.721,3.423,7.346.182,1.142-3.273,2.972,2.16c1.461,1.172,2.063.012,2.063.012l1.8-5.747c2.723.934,1.518-2.064,1.518-2.064l-.369-1.863c-.478-1.259.682-3.44.682-3.44A4.4,4.4,0,0,0,529.935,721.975Z" transform="translate(2126.766 2129.66)" fill="#f1a86a"/>
      <path id="Trazado_1183007" data-name="Trazado 1183007" d="M541.1,747.385l-2.386-.747s.516-1.267,2.468-.656l1.193.373-.407,1.3Z" transform="translate(2112.709 2116.043)" fill="#32062f"/>
      <path id="Trazado_1183008" data-name="Trazado 1183008" d="M511.631,730.512l.643,7.666,4.582-4.334C514.424,733.268,512.654,732.317,511.631,730.512Z" transform="translate(2126.47 2123.818)" fill="#32062f"/>
      <path id="Trazado_1183009" data-name="Trazado 1183009" d="M541.941,731.69l2.5.782-.376.529-1.077-.084a1.683,1.683,0,0,0-1.709-.749Z" transform="translate(2111.407 2123.219)" fill="#4a3649"/>
      <path id="Trazado_1183010" data-name="Trazado 1183010" d="M544.114,735.367l-.3.932-2.132-.668Z" transform="translate(2111.203 2121.351)" fill="#1b2241"/>
      <path id="Trazado_1183011" data-name="Trazado 1183011" d="M530.353,712.512c-2.784-5.078-11.751-4.182-12.8-4.059a1.753,1.753,0,0,1-.184.011c-4.049.025-10.515,4.482-8.464,9.074a22.864,22.864,0,0,1,.873,2.231c.462,1.924,2.654,3.1,4.517,3.106a1.138,1.138,0,0,0,1.309-1.09,1.391,1.391,0,0,0,0-.391c-.4-2.77,2.413-3.243,2.831-1.591a3.044,3.044,0,0,0,1.477,2.13c5.939,1.174,7.822-6.21,7.957-6.763a.147.147,0,0,1,0-.031l.036.083a5.6,5.6,0,0,1,.734,1.321l.334-.185A2.714,2.714,0,0,0,530.353,712.512Z" transform="translate(2128.052 2135.095)" fill="#4a3649"/>
      <path id="Trazado_1183012" data-name="Trazado 1183012" d="M527.874,715.169a.145.145,0,0,1,0-.031l.036.083a5.6,5.6,0,0,1,.734,1.321l.335-.185a2.715,2.715,0,0,0,1.37-3.843c-2.784-5.078-11.751-4.182-12.8-4.059a1.634,1.634,0,0,1-.184.011c-3.8.023-9.718,3.944-8.75,8.219,4.971,3.152,7.463-1,12.341-1.746,4.595-.706,5.386,2.5,5.523,3.612A13.385,13.385,0,0,0,527.874,715.169Z" transform="translate(2128.051 2135.095)" fill="#4a3649"/>
      <path id="Trazado_1183013" data-name="Trazado 1183013" d="M525.712,750.833l-.879,2.77a19.9,19.9,0,0,0,2.286-.326L528.261,750l.646.469.172-.525-3.589-3.759S524.582,749.6,525.712,750.833Z" transform="translate(2119.762 2115.853)" fill="#f1a86a" opacity="0.5"/>
      <path id="Trazado_1183014" data-name="Trazado 1183014" d="M529.162,733.478l-.862,2.752a3.567,3.567,0,0,0,.366,2.935c.744,1.209,2.321,2.7,5.664,3.69l-.593,1.893a1.493,1.493,0,0,1-1.978.942c-2.415-.959-6.8-3.27-6.155-7.25a5.468,5.468,0,0,1,1.43-2.433c1.242-1.359.33-2.832.735-4.129Z" transform="translate(2119.402 2123.123)" fill="#4a3649"/>
      <path id="Trazado_1183015" data-name="Trazado 1183015" d="M512.519,789.427l.277.656-9.129,15.738c3.38-2.319,13.339-18.341,13.36-18.486,4.241-6.647,5.769-15.9,1.7-22.888-.118-.2-2.39-3.4-2.356-3.448l-.591.882Z" transform="translate(2130.516 2108.328)" fill="#09264e"/>
      <path id="Trazado_1183016" data-name="Trazado 1183016" d="M454.41,802.407l3.25.631,20.629,3.323.4-1.656a19.7,19.7,0,0,1,2.244-5.5l9.183-15.389a26.222,26.222,0,0,0,2.772-6.874c3.077-12.5-1.076-19.527-1.076-19.527-3.184-.874-6.507-2.643-10.289-4.315l-1.245.033a19.8,19.8,0,0,0-3.367,1.487c-3.76,2.089-11.787,7.384-16.582,16.616l.272,8.354-4.039,8.221s-.738,4.84-1.355,9.066c-.341,2.314-.664,4.477-.8,5.527C454.4,802.451,454.417,802.355,454.41,802.407Z" transform="translate(2155.543 2112.34)" fill="url(#linear-gradient-6)"/>
      <path id="Trazado_1183017" data-name="Trazado 1183017" d="M526.968,764.886l-1.561-1.646,1.313-1.358.943.624.779.677-.427,2.542Z" transform="translate(2119.47 2107.879)" fill="#cb3d3c"/>
      <path id="Trazado_1183018" data-name="Trazado 1183018" d="M407.446,811.8s21.466-14.63,37.682-23.089,17.063-19.7,12.532-35.795c-5.3-.441-10.939-.327-15.062,3.452-3.7,3.389-5.181,8.93-7.076,13.414-1.314,3.114.683,8.923.646,9.055l-2.9,5.952-.492,1.006-.007.018s-6.87,4.535-11.879,6.139a15.6,15.6,0,0,0-4.63,2.376C412.686,796.972,407.233,801.826,407.446,811.8Z" transform="translate(2179.407 2112.524)" fill="#0c3266"/>
      <path id="Trazado_1183019" data-name="Trazado 1183019" d="M458.935,818.9l4.289,1.737-3.8-2.743Z" transform="translate(2153.243 2079.421)" fill="#9fb6c6" opacity="0.7"/>
      <path id="Trazado_1183020" data-name="Trazado 1183020" d="M522.071,759.012l-2.726-3.025c-4.792-.91-6.865-2.505-8.8-4.463l-1.009.777c1.511,2.208,2.014,1.908,4.478,7.142,2.572-.826,4.143-1.729,4.695-2.819l1.024,1.325A3.81,3.81,0,0,0,522.071,759.012Z" transform="translate(2127.536 2113.142)" fill="#fff"/>
      <path id="Trazado_1183021" data-name="Trazado 1183021" d="M515.183,767.073l.109.639c.069.421.162,1.031.266,1.813s.215,1.731.331,2.823c.1,1.093.217,2.328.289,3.679q.031.507.064,1.035t.039,1.076c.019.73.068,1.486.061,2.264s0,1.579.007,2.4q-.036,1.229-.073,2.507c-.025.852-.106,1.717-.157,2.6s-.148,1.766-.248,2.661-.188,1.8-.349,2.7-.269,1.817-.456,2.721-.391,1.81-.586,2.712c-.214.9-.49,1.784-.733,2.671-.134.44-.23.889-.395,1.318l-.462,1.288-.46,1.276-.115.317-.057.158-.085.2-.247.58-.245.576-.123.287-.147.307-.584,1.214c-.2.392-.4.76-.6,1.135l-.3.555-.314.536-.6,1.017c-.11.2-.243.474-.365.737a15.614,15.614,0,0,0-1.275,4.578,14.627,14.627,0,0,0-.09,2.277,13.055,13.055,0,0,0,.149,1.432l.075.5-2.906,4.235-4.237-3.376s-.011-.271-.032-.778a20.056,20.056,0,0,1,.031-2.188,21.448,21.448,0,0,1,.512-3.318,22.2,22.2,0,0,1,1.385-4.046,21.666,21.666,0,0,1,1.137-2.164c.227-.368.456-.735.76-1.153l.653-.876.323-.431.308-.45c.2-.3.423-.61.624-.917l.585-.929.149-.236.152-.268.307-.546.309-.55.039-.069.02-.034-.015.032.008-.017.066-.134.132-.269.534-1.09.544-1.106c.192-.367.322-.766.488-1.152.308-.781.652-1.558.941-2.363l.82-2.447c.269-.821.47-1.666.708-2.5s.425-1.676.612-2.513.383-1.67.518-2.5.313-1.652.427-2.467.228-1.619.338-2.4q.128-1.186.25-2.318c.091-.754.124-1.49.185-2.2q.04-.535.079-1.051c.017-.344.033-.683.049-1.014.076-1.326.094-2.544.117-3.625.006-1.08,0-2.023-.017-2.8s-.042-1.387-.063-1.8-.037-.636-.037-.636Z" transform="translate(2132.216 2105.242)" fill="#cb3d3c"/>
      <path id="Trazado_1183022" data-name="Trazado 1183022" d="M454.41,829.246l3.25.631a18.806,18.806,0,0,1,1.8-6.25c3.165-2.185,6.459-4.142,8.2-5.137a36.7,36.7,0,0,0,3.94-2.585c6.955-5.229,8.959-9.705,9.077-9.977-2.4,3.676-6.169,6.933-11.692,9.808-4.417,2.306-9.092,4.923-13.693,7.791-.341,2.314-.756,4.669-.888,5.72C454.4,829.29,454.417,829.2,454.41,829.246Z" transform="translate(2155.543 2085.501)" fill="#d1d1d0" opacity="0.7"/>
      <path id="Trazado_1183023" data-name="Trazado 1183023" d="M451.7,760.122c-3.7,3.388-5.18,8.931-7.075,13.411-1.317,3.115.68,8.923.645,9.056l-3.4,6.977S435,794.1,429.99,795.7a15.72,15.72,0,0,0-4.631,2.376,102.528,102.528,0,0,0,17.914-6.009l5.267-9.019,1.233-7.651Z" transform="translate(2170.302 2108.774)" fill="#09264e" opacity="0.3"/>
      <path id="Trazado_1183025" data-name="Trazado 1183025" d="M472.9,789.484c-.633.339-1.275.693-1.921,1.053l-8.955,5.019c26.689-16.836,19.023-30.629,19.023-30.629L485.1,762.6l-5.7-.02,5.526-7.241C489.075,770.618,488.064,781.364,472.9,789.484Z" transform="translate(2151.672 2111.206)" fill="#7da8c6" opacity="0.7"/>
      <g id="Grupo_1227686" data-name="Grupo 1227686" transform="translate(2691.52 2918.814)">
        <g id="Grupo_1227683" data-name="Grupo 1227683" transform="translate(7.487 0)">
          <path id="Trazado_1183026" data-name="Trazado 1183026" d="M665.666,868.642a6.605,6.605,0,1,0-13.182,0l3.523,18.295c.4,2.273,1.373,3.409,3.068,3.409s2.67-1.023,3.068-3.409Z" transform="translate(-644.101 -861.597)" fill="#06505d"/>
          <path id="Trazado_1183027" data-name="Trazado 1183027" d="M642.219,893.718a3.9,3.9,0,1,0-5.5,5.5l9.106,6.165c1.115.783,2,.85,2.7.142s.688-1.541-.142-2.7Z" transform="translate(-635.442 -877.269)" fill="#06505d"/>
          <path id="Trazado_1183028" data-name="Trazado 1183028" d="M675.815,893.718a3.9,3.9,0,1,1,5.5,5.5l-9.106,6.165c-1.115.783-2,.85-2.7.142s-.688-1.541.142-2.7Z" transform="translate(-652.492 -877.269)" fill="#06505d"/>
        </g>
        <g id="Grupo_1227684" data-name="Grupo 1227684" transform="translate(50.39 0)">
          <path id="Trazado_1183029" data-name="Trazado 1183029" d="M752.882,868.642a6.605,6.605,0,1,0-13.182,0l3.523,18.295c.4,2.273,1.373,3.409,3.068,3.409s2.67-1.023,3.068-3.409Z" transform="translate(-731.317 -861.597)" fill="#06505d"/>
          <path id="Trazado_1183030" data-name="Trazado 1183030" d="M729.435,893.718a3.9,3.9,0,1,0-5.5,5.5l9.106,6.165c1.115.783,2,.85,2.7.142s.688-1.541-.142-2.7Z" transform="translate(-722.658 -877.269)" fill="#06505d"/>
          <path id="Trazado_1183031" data-name="Trazado 1183031" d="M763.031,893.718a3.9,3.9,0,1,1,5.5,5.5l-9.106,6.165c-1.115.783-2,.85-2.7.142s-.688-1.541.142-2.7Z" transform="translate(-739.708 -877.269)" fill="#06505d"/>
        </g>
        <g id="Grupo_1227685" data-name="Grupo 1227685" transform="translate(29.893 0)">
          <path id="Trazado_1183032" data-name="Trazado 1183032" d="M709.215,868.642a6.605,6.605,0,1,0-13.182,0l3.523,18.295c.4,2.273,1.373,3.409,3.068,3.409s2.67-1.023,3.068-3.409Z" transform="translate(-688.634 -861.597)" fill="#fff"/>
          <path id="Trazado_1183033" data-name="Trazado 1183033" d="M687.768,893.718a3.9,3.9,0,1,0-5.5,5.5l9.106,6.165c1.115.783,2,.85,2.7.142s.688-1.541-.142-2.7Z" transform="translate(-680.991 -877.269)" fill="#fff"/>
          <path id="Trazado_1183034" data-name="Trazado 1183034" d="M717.364,893.718a3.9,3.9,0,1,1,5.5,5.5l-9.106,6.165c-1.115.783-2,.85-2.7.142s-.688-1.541.142-2.7Z" transform="translate(-696.008 -877.269)" fill="#fff"/>
        </g>
        <path id="Trazado_1183035" data-name="Trazado 1183035" d="M729.888,914.592c-5.409,0-5.409-3.279-10.819-3.279s-5.409,3.279-10.818,3.279-5.409-3.279-10.817-3.279-5.408,3.279-10.816,3.279-5.408-3.279-10.817-3.279-5.408,3.279-10.817,3.279-5.408-3.279-10.815-3.279-5.408,3.279-10.815,3.279-5.407-3.279-10.814-3.279-5.408,3.279-10.816,3.279v4.995H729.887v-4.995Z" transform="translate(-620.984 -886.856)" fill="#62c9c6"/>
        <path id="Trazado_1183036" data-name="Trazado 1183036" d="M707.489,914.568a9.765,9.765,0,0,1-5.79-1.746,9.008,9.008,0,0,0-10.052,0,10.472,10.472,0,0,1-11.582,0,9.009,9.009,0,0,0-10.052,0,10.471,10.471,0,0,1-11.581,0,9.006,9.006,0,0,0-10.05,0,10.469,10.469,0,0,1-11.58,0,9,9,0,0,0-10.049,0,9.76,9.76,0,0,1-5.791,1.747.738.738,0,0,1,0-1.476,8.417,8.417,0,0,0,5.026-1.532,10.468,10.468,0,0,1,11.579,0,9.005,9.005,0,0,0,10.05,0,10.47,10.47,0,0,1,11.58,0,9.008,9.008,0,0,0,10.052,0,10.472,10.472,0,0,1,11.581,0,9.009,9.009,0,0,0,10.053,0,10.471,10.471,0,0,1,11.581,0,8.414,8.414,0,0,0,5.026,1.532.738.738,0,0,1,0,1.476Z" transform="translate(-620.223 -886.094)" fill="#fff"/>
      </g>
      <g id="Grupo_1227687" data-name="Grupo 1227687" transform="translate(2652.722 2857.512)">
        <path id="Trazado_1183037" data-name="Trazado 1183037" d="M573.843,746.57c0,5.3-7.279,9.59-7.279,9.59s-7.279-4.294-7.279-9.59,3.259-9.59,7.279-9.59S573.843,741.274,573.843,746.57Z" transform="translate(-550.464 -736.981)" fill="#047a85"/>
        <path id="Trazado_1183038" data-name="Trazado 1183038" d="M555.013,793.251c3.745,3.745,1.634,11.928,1.634,11.928s-8.183,2.111-11.928-1.634-4.477-9.085-1.634-11.928S551.268,789.506,555.013,793.251Z" transform="translate(-541.353 -763.86)" fill="#047a85"/>
        <path id="Trazado_1183039" data-name="Trazado 1183039" d="M575.989,776.6c-3.745,3.745-1.634,11.928-1.634,11.928s8.183,2.111,11.928-1.634,4.477-9.085,1.634-11.928S579.734,772.852,575.989,776.6Z" transform="translate(-557.82 -755.398)" fill="#047a85"/>
        <rect id="Rectángulo_422696" data-name="Rectángulo 422696" width="1.386" height="40.553" transform="translate(15.407 9.59)" fill="#047a85"/>
      </g>
      <path id="Trazado_1183040" data-name="Trazado 1183040" d="M572.149,842.2a2.156,2.156,0,0,0-2.551-2.524,2.773,2.773,0,0,0-2.187-2.165l-.015,0c.029-.1.054-.2.074-.3a3.386,3.386,0,0,0-5.854-2.9,3.831,3.831,0,0,0-5.056,1.718h0a2.618,2.618,0,0,0-1.446,5.01l-.008.042L570.074,844l.01-.051A2.157,2.157,0,0,0,572.149,842.2Z" transform="translate(2105.228 2071.657)" fill="#523b27"/>
      <path id="Trazado_1183041" data-name="Trazado 1183041" d="M567.254,848.24l-.038-.076a1.33,1.33,0,0,0-.839-.688l-.03-.008a.226.226,0,0,0,.04-.3l-.042-.059a1.137,1.137,0,0,0-.8-.474l-.034,0a.2.2,0,0,0-.035-.19l-.041-.048a.989.989,0,0,0-.728-.346l-2.395-.058-1.427-.055a2.44,2.44,0,0,1-1.5-1.335l-.157-.356a.768.768,0,0,1,.145-.839l.153-.161a3.026,3.026,0,0,0,.71-1.243l.032-.112a.607.607,0,0,0-.406-.749.513.513,0,0,0-.531.146,12.06,12.06,0,0,1-1.793,1.7l-.387.153a4.514,4.514,0,0,0-1.3.791l-6.362-.861,1.117,2.642,4.739.287a4.911,4.911,0,0,1,1.149.671.931.931,0,0,0,.369.177l2.565.586-.006.029.2.015.38.087.748.333a.774.774,0,0,0,.363.065l.984-.062,2.13.225c.086.009.171.021.256.038l2.476.468A.273.273,0,0,0,567.254,848.24Z" transform="translate(2107.234 2067.625)" fill="#f1a86a"/>
      <path id="Trazado_1183042" data-name="Trazado 1183042" d="M480.339,756.847a5.851,5.851,0,0,0-6.193,5.494l-2.252,37.941,42.962,3.566.368-3.672-34.516-6.61L485.281,769Z" transform="translate(2146.659 2110.443)" fill="#0c3266"/>
      <ellipse id="Elipse_12708" data-name="Elipse 12708" cx="82.643" cy="4.855" rx="82.643" ry="4.855" transform="translate(2530.058 2974.555)" fill="#d7e3ee" opacity="0.7"/>
      <path id="Trazado_1183043" data-name="Trazado 1183043" d="M258.362,938.35a21.157,21.157,0,0,0-38.864,0Z" transform="translate(2274.895 2024.719)" fill="#62c9c6"/>
      <path id="Trazado_1183044" data-name="Trazado 1183044" d="M921.329,938.35a21.156,21.156,0,0,0-38.864,0Z" transform="translate(1938.058 2024.719)" fill="#62c9c6"/>
      <g id="Grupo_1227688" data-name="Grupo 1227688" transform="translate(2565.285 2904.893)">
        <path id="Trazado_1183045" data-name="Trazado 1183045" d="M381.522,853.321a3.072,3.072,0,0,1-.764-3.144,6.959,6.959,0,0,0-1.1-6.405,3.616,3.616,0,0,1-.541-3.418,5.285,5.285,0,1,0-9.959,0,3.611,3.611,0,0,1-.541,3.418,6.959,6.959,0,0,0-1.1,6.405,3.07,3.07,0,0,1-.764,3.144,10.529,10.529,0,1,0,14.768,0Z" transform="translate(-363.609 -833.299)" fill="#06505d"/>
        <rect id="Rectángulo_422697" data-name="Rectángulo 422697" width="2.349" height="12.686" transform="translate(9.353 36.65)" fill="#06505d"/>
      </g>
      <path id="Trazado_1183024" data-name="Trazado 1183024" d="M400.834,853.33c-1.513,6.4-.721,9.63,3.092,14.6l-5.578,42.177c-13.066-3.767-27.457-2.215-42.736-1.551l-4.049-.8-.651,2.886,1.6.362a6.7,6.7,0,0,0-2.455,3.517l-.419,1.717h0l-.677,2.793h0l0,.013h.126l2.351.006s0-.01,0-.013l4.557.013s.173-2.338-3.6-2.484c0,0-.05,0-.133,0a11.907,11.907,0,0,1,1.587-2.79,1.024,1.024,0,0,1,.219-.2c.106-.08.837-.594,1.415-.973a1.253,1.253,0,0,1,.757-.209l.262.01,44.257,7a5.651,5.651,0,0,0,6.331-4.1l3.733-9.75,13.888-48.27Z" transform="translate(2209.119 2061.417)" fill="#0c3266"/>
      <path id="Trazado_1183003" data-name="Trazado 1183003" d="M520.673,866.277a7.645,7.645,0,0,0-7.283-9.972l-34.775.976-24.205-3.95c-.181,22.322,17.014,19.295,17.014,19.295l37.24-3.839c-4.874,15.523-5.407,26.913-8.166,45.438-.006,3.674.042,5.054.042,5.054H503.5l-.021-1.68a6.708,6.708,0,0,0,3.993,1.565l6.912.019s.173-2.337-3.6-2.486a12.739,12.739,0,0,1-4.923-1.045,1.184,1.184,0,0,1-.246-.168c-.014-.011-.277-.178-.594-.421a1.321,1.321,0,0,1-.448-1.475Z" transform="translate(2155.543 2061.417)" fill="#09264e"/>
    </g>
  </g>
</svg>
