<svg xmlns="http://www.w3.org/2000/svg" xmlns:xlink="http://www.w3.org/1999/xlink" width="106" height="106" viewBox="0 0 106 106">
  <defs>
    <filter id="Trazado_982547" x="0" y="0" width="106" height="106" filterUnits="userSpaceOnUse">
      <feOffset dy="3" input="SourceAlpha"/>
      <feGaussianBlur stdDeviation="3" result="blur"/>
      <feFlood flood-opacity="0.161"/>
      <feComposite operator="in" in2="blur"/>
      <feComposite in="SourceGraphic"/>
    </filter>
  </defs>
  <g id="Grupo_1227850" data-name="Grupo 1227850" transform="translate(-171 -2445)">
    <g id="Grupo_1226969" data-name="Grupo 1226969" transform="translate(0 1063)">
      <g id="Grupo_1173169" data-name="Grupo 1173169" transform="translate(0 -2329)">
        <g id="Grupo_1172017" data-name="Grupo 1172017" transform="translate(0 2654)">
          <g id="Grupo_1167337" data-name="Grupo 1167337" transform="translate(180 1063)">
            <g id="Grupo_1166720" data-name="Grupo 1166720" transform="translate(0)">
              <g id="Grupo_1164305" data-name="Grupo 1164305">
                <g id="Grupo_1163948" data-name="Grupo 1163948">
                  <g id="Grupo_1158168" data-name="Grupo 1158168">
                    <g id="Grupo_1152576" data-name="Grupo 1152576">
                      <g id="Grupo_1148633" data-name="Grupo 1148633">
                        <g id="Grupo_1148525" data-name="Grupo 1148525">
                          <g transform="matrix(1, 0, 0, 1, -9, -6)" filter="url(#Trazado_982547)">
                            <g id="Trazado_982547-2" data-name="Trazado 982547" transform="translate(9 6)" fill="#e9f9fd">
                              <path d="M 44 86.5 C 38.26187515258789 86.5 32.69618606567383 85.37651062011719 27.45755004882812 83.16075897216797 C 22.3968505859375 81.020263671875 17.85157585144043 77.95565032958984 13.94796276092529 74.05204010009766 C 10.04434967041016 70.1484375 6.979737281799316 65.6031494140625 4.839250087738037 60.54246139526367 C 2.62348747253418 55.30381393432617 1.5 49.73812484741211 1.5 44 C 1.5 38.26187515258789 2.62348747253418 32.69618606567383 4.839250087738037 27.45755004882812 C 6.979737281799316 22.3968505859375 10.04434967041016 17.85157585144043 13.94796276092529 13.94796276092529 C 17.85157585144043 10.04434967041016 22.3968505859375 6.979737281799316 27.45755004882812 4.839250087738037 C 32.69618606567383 2.62348747253418 38.26187515258789 1.5 44 1.5 C 49.73812484741211 1.5 55.30381393432617 2.62348747253418 60.54246139526367 4.839250087738037 C 65.6031494140625 6.979737281799316 70.1484375 10.04434967041016 74.05204010009766 13.94796276092529 C 77.95565032958984 17.85157585144043 81.020263671875 22.3968505859375 83.16075897216797 27.45755004882812 C 85.37651062011719 32.69618606567383 86.5 38.26187515258789 86.5 44 C 86.5 49.73812484741211 85.37651062011719 55.30381393432617 83.16075897216797 60.54246139526367 C 81.020263671875 65.6031494140625 77.95565032958984 70.1484375 74.05204010009766 74.05204010009766 C 70.1484375 77.95565032958984 65.6031494140625 81.020263671875 60.54246139526367 83.16075897216797 C 55.30381393432617 85.37651062011719 49.73812484741211 86.5 44 86.5 Z" stroke="none"/>
                              <path d="M 44 3 C 38.46371459960938 3 33.09462738037109 4.083610534667969 28.0418701171875 6.220756530761719 C 23.15997314453125 8.285614013671875 18.77495574951172 11.24228668212891 15.00862884521484 15.00862884521484 C 11.24228668212891 18.77495574951172 8.285614013671875 23.15997314453125 6.220756530761719 28.0418701171875 C 4.083610534667969 33.09462738037109 3 38.46371459960938 3 44 C 3 49.53628540039062 4.083610534667969 54.9053840637207 6.220756530761719 59.9581298828125 C 8.285614013671875 64.84002685546875 11.24228668212891 69.22504425048828 15.00862884521484 72.99138641357422 C 18.77495574951172 76.75771331787109 23.15997314453125 79.71438598632812 28.0418701171875 81.77925872802734 C 33.09462738037109 83.9163818359375 38.46371459960938 85 44 85 C 49.53628540039062 85 54.9053840637207 83.9163818359375 59.95814514160156 81.77925872802734 C 64.84002685546875 79.71438598632812 69.22504425048828 76.75771331787109 72.99138641357422 72.99138641357422 C 76.75771331787109 69.22504425048828 79.71438598632812 64.84002685546875 81.77925872802734 59.95814514160156 C 83.9163818359375 54.9053840637207 85 49.53628540039062 85 44 C 85 38.46371459960938 83.9163818359375 33.09462738037109 81.77925872802734 28.0418701171875 C 79.71438598632812 23.15997314453125 76.75771331787109 18.77495574951172 72.99138641357422 15.00862884521484 C 69.22504425048828 11.24228668212891 64.84002685546875 8.285614013671875 59.9581298828125 6.220756530761719 C 54.9053840637207 4.083610534667969 49.53628540039062 3 44 3 M 44 0 C 68.30054473876953 0 88 19.69947052001953 88 44 C 88 68.30054473876953 68.30054473876953 88 44 88 C 19.69947052001953 88 0 68.30054473876953 0 44 C 0 19.69947052001953 19.69947052001953 0 44 0 Z" stroke="none" fill="#1d7083"/>
                            </g>
                          </g>
                        </g>
                      </g>
                    </g>
                  </g>
                </g>
              </g>
            </g>
          </g>
        </g>
      </g>
    </g>
    <g id="oferta" transform="translate(195.062 2465.555)">
      <path id="Trazado_1183397" data-name="Trazado 1183397" d="M194.795,20.759a2.121,2.121,0,0,0-2.9.776l-1.324,2.294V12.16a2.12,2.12,0,1,0-4.241,0V9.628a2.12,2.12,0,0,0-4.241,0V12.16a2.12,2.12,0,1,0-4.241,0v2.833a2.12,2.12,0,0,0-4.241,0v15.05a8.446,8.446,0,0,0,1.8,5.22,5.036,5.036,0,0,1,1.048,3.105v2.824H187.73V38.367a5.106,5.106,0,0,1,1.067-3.129,8.5,8.5,0,0,0,.768-1.181l6.005-10.4A2.121,2.121,0,0,0,194.795,20.759Z" transform="translate(-153.985 -6.653)" fill="#ffcbbe"/>
      <path id="Trazado_1183398" data-name="Trazado 1183398" d="M217.107,122.5a2.121,2.121,0,0,0-2.9.776l-1.324,2.294v-1.61l-5.53,9.578a8.486,8.486,0,0,1-.775,1.189,5.081,5.081,0,0,0-1.061,3.121v.531a2.3,2.3,0,0,1-2.295,2.294h-4.46v2.261h11.276v-2.825a5.081,5.081,0,0,1,1.061-3.121,8.5,8.5,0,0,0,.775-1.189l6.005-10.4A2.121,2.121,0,0,0,217.107,122.5Z" transform="translate(-176.298 -108.393)" fill="#eaac9d"/>
      <path id="Trazado_1183399" data-name="Trazado 1183399" d="M189.908,305.494h13.279v4.733H189.908Z" transform="translate(-168.441 -270.955)" fill="#efecef"/>
      <path id="Trazado_1183400" data-name="Trazado 1183400" d="M185.057,347.364h14.376v17.763H185.057Z" transform="translate(-164.139 -308.093)" fill="#756e78"/>
      <path id="Trazado_1183401" data-name="Trazado 1183401" d="M370.059,211.217a1.623,1.623,0,0,0-2.218.594l-1.014,1.756v-8.933a1.623,1.623,0,0,0-3.247,0V202.7a1.623,1.623,0,0,0-3.247,0v1.938a1.623,1.623,0,1,0-3.247,0V206.8a1.623,1.623,0,1,0-3.247,0v11.522a6.465,6.465,0,0,0,1.375,4,3.856,3.856,0,0,1,.8,2.377v2.162h8.633V224.7a3.908,3.908,0,0,1,.817-2.4,6.512,6.512,0,0,0,.588-.9l4.6-7.964A1.624,1.624,0,0,0,370.059,211.217Z" transform="translate(-313.843 -178.337)" fill="#fff1dd"/>
      <path id="Trazado_1183402" data-name="Trazado 1183402" d="M387.131,281.023a1.623,1.623,0,0,0-2.218.594l-1.014,1.756v-3.6l-5.293,9.169a6.508,6.508,0,0,1-.6.919,3.866,3.866,0,0,0-.805,2.381v.42a1.743,1.743,0,0,1-1.743,1.742h-2.371c0,.033,0,2.261,0,2.261h8.633V294.5a3.867,3.867,0,0,1,.805-2.381,6.491,6.491,0,0,0,.6-.919l4.6-7.964A1.623,1.623,0,0,0,387.131,281.023Z" transform="translate(-330.915 -248.144)" fill="#ffe4c1"/>
      <path id="Trazado_1183403" data-name="Trazado 1183403" d="M366.318,429.21h10.166v3.624H366.318Z" transform="translate(-324.91 -380.687)" fill="#e28086"/>
      <path id="Trazado_1183404" data-name="Trazado 1183404" d="M362.6,461.267H373.61v4.888H362.6Z" transform="translate(-321.616 -409.12)" fill="#a7a2d3"/>
      <path id="Trazado_1183405" data-name="Trazado 1183405" d="M8.25,194.778a1.485,1.485,0,0,1,2.028.544l.927,1.606v-8.17a1.485,1.485,0,0,1,2.97,0v-1.773a1.485,1.485,0,1,1,2.97,0v1.773a1.485,1.485,0,0,1,2.97,0v1.984a1.485,1.485,0,0,1,2.97,0v10.538a5.913,5.913,0,0,1-1.258,3.655,3.527,3.527,0,0,0-.734,2.174v1.977H13.2v-1.978a3.575,3.575,0,0,0-.747-2.191,5.947,5.947,0,0,1-.538-.827l-4.205-7.283a1.485,1.485,0,0,1,.543-2.028Z" transform="translate(-6.658 -164.525)" fill="#c18678"/>
      <path id="Trazado_1183406" data-name="Trazado 1183406" d="M67.638,205.616a1.485,1.485,0,0,0-2.97,0v-1.984a1.485,1.485,0,0,0-.893-1.362,1.481,1.481,0,0,1,.471,1.085v10.538A5.913,5.913,0,0,1,63,217.534a3.564,3.564,0,0,0-.744,2.188v.418A1.56,1.56,0,0,1,60.7,221.7H57.74c.007.094.011.188.011.283v1.978h7.9v-1.977a3.565,3.565,0,0,1,.744-2.188,5.914,5.914,0,0,0,1.247-3.642Z" transform="translate(-51.213 -179.4)" fill="#b46e59"/>
      <path id="Trazado_1183407" data-name="Trazado 1183407" d="M0,0H9.3V3.314H0Z" transform="translate(15.135 47.875) rotate(180)" fill="#f6e781"/>
      <path id="Trazado_1183408" data-name="Trazado 1183408" d="M0,0H10.066V9.16H0Z" transform="translate(15.519 57.035) rotate(180)" fill="#93c8a5"/>
      <path id="Trazado_1183409" data-name="Trazado 1183409" d="M194.911,347.364v13.162a2.341,2.341,0,0,1-2.341,2.341h-7.514v2.261h14.376V347.364Z" transform="translate(-164.139 -308.093)" fill="#544f57"/>
      <path id="Trazado_1183410" data-name="Trazado 1183410" d="M369.088,461.267v.286a2.341,2.341,0,0,1-2.341,2.341H362.6v2.261h11.006v-4.888Z" transform="translate(-321.615 -409.12)" fill="#8078bc"/>
      <path id="Trazado_1183411" data-name="Trazado 1183411" d="M53.785,423.473v4.558a2.341,2.341,0,0,1-2.341,2.341h-3.2v2.261H58.306v-9.16Z" transform="translate(-42.787 -375.598)" fill="#69af81"/>
      <path id="Trazado_1183412" data-name="Trazado 1183412" d="M429.442,19.643a4.19,4.19,0,0,0-4.185-4.185h-1.2a1.359,1.359,0,0,1,0-2.719h1.2a1.358,1.358,0,0,1,1.253.831,1.413,1.413,0,0,0,2.6-1.1,4.178,4.178,0,0,0-3.041-2.476V8.922a1.413,1.413,0,1,0-2.826,0V9.993a4.186,4.186,0,0,0,.815,8.291h1.2a1.359,1.359,0,0,1,0,2.719h-1.2a1.352,1.352,0,0,1-1.267-.866,1.413,1.413,0,1,0-2.633,1.027,4.157,4.157,0,0,0,3.085,2.587v1.07a1.413,1.413,0,1,0,2.826,0V23.749A4.193,4.193,0,0,0,429.442,19.643Z" transform="translate(-372.414 -6.654)" fill="#93c8a5"/>
      <path id="Trazado_1183413" data-name="Trazado 1183413" d="M182.811,29.1c.587-.756.2-.187,6.838-11.678a2.968,2.968,0,0,0-4.883-3.345V5.507a2.968,2.968,0,0,0-4.245-2.68,2.968,2.968,0,0,0-5.929,0,2.968,2.968,0,0,0-4.245,2.68v.152a2.968,2.968,0,0,0-4.241,2.681V18.448a.848.848,0,0,0,1.7,0V8.34a1.273,1.273,0,0,1,2.545,0v5.542a.848.848,0,1,0,1.7,0V5.507a1.273,1.273,0,0,1,2.545,0v8.375a.848.848,0,1,0,1.7,0V2.975a1.273,1.273,0,0,1,2.545,0V13.882a.848.848,0,0,0,1.7,0V5.507a1.273,1.273,0,1,1,2.545,0V16.945l-.57.987a4.449,4.449,0,0,0-4.6,7.351.848.848,0,0,0,1.2-1.2,2.753,2.753,0,0,1,3.325-4.33.848.848,0,0,0,1.159-.309l2.369-4.1.024-.042a1.273,1.273,0,0,1,2.2,1.273c-6.668,11.54-6.232,10.871-6.709,11.487a5.982,5.982,0,0,0-1.245,3.649v1.977h-9.581V31.715a5.907,5.907,0,0,0-1.228-3.627,7.557,7.557,0,0,1-1.616-4.7V22.4a.848.848,0,1,0-1.7,0v.985a9.238,9.238,0,0,0,1.976,5.742,4.2,4.2,0,0,1,.868,2.583v1.976H168.8a.848.848,0,0,0-.848.848v3.94a.848.848,0,0,0-.548.793V57.035a.848.848,0,0,0,.848.848h14.376a.848.848,0,0,0,.848-.848V39.271a.848.848,0,0,0-.548-.793v-3.94a.848.848,0,0,0-.848-.848h-.153V31.714a4.28,4.28,0,0,1,.89-2.61Zm-1.737,6.282h.154v3.037H169.644V35.386Zm.7,20.8H169.1V40.119h12.68Z" transform="translate(-147.33 0)"/>
      <path id="Trazado_1183414" data-name="Trazado 1183414" d="M363.829,203.829a2.473,2.473,0,0,0-2.808.232v-6.08a42.205,42.205,0,0,1-5.718-4.41,2.472,2.472,0,0,1-3.247,1.938,2.475,2.475,0,0,0-2.465,2.3,2.472,2.472,0,0,0-3.253,2.345v11.522a7.269,7.269,0,0,0,1.555,4.519,3.019,3.019,0,0,1,.622,1.855v1.318a.848.848,0,0,0-.767.844V223.1a.847.847,0,0,0-.42.732v4.888a.848.848,0,0,0,.848.848h11.006a.848.848,0,0,0,.848-.848v-4.888a.847.847,0,0,0-.42-.732v-2.892a.848.848,0,0,0-.766-.844v-1.319a3.076,3.076,0,0,1,.639-1.876c.46-.593.167-.169,5.25-8.963a2.469,2.469,0,0,0-.9-3.376Zm-5.494,24.041h-9.311v-3.192h9.311Zm4.93-21.513c-5.1,8.83-4.769,8.318-5.122,8.772a4.78,4.78,0,0,0-.995,2.915v1.315h-.472a.848.848,0,1,0,0,1.7h1.239v1.928h-8.471v-1.928h3.276a.848.848,0,0,0,0-1.7h-2.509v-1.314a4.723,4.723,0,0,0-.982-2.9,5.589,5.589,0,0,1-1.2-3.474V200.15a.776.776,0,1,1,1.551,0v4.243a.848.848,0,0,0,1.7,0v-6.412a.776.776,0,1,1,1.551,0v6.412a.848.848,0,0,0,1.7,0v-8.35a.776.776,0,0,1,1.551,0v8.35a.848.848,0,0,0,1.7,0v-6.412a.776.776,0,1,1,1.551,0v8.7l-.33.571a3.605,3.605,0,0,0-3.57,6.006.848.848,0,0,0,1.2-1.2,1.909,1.909,0,0,1,2.306-3,.848.848,0,0,0,1.159-.309l.818-1.413,1.014-1.756v0a.776.776,0,0,1,1.343.777Z" transform="translate(-307.189 -171.684)"/>
      <path id="Trazado_1183415" data-name="Trazado 1183415" d="M14.94,181.757a2.328,2.328,0,0,0-.651.092,2.334,2.334,0,0,0-3-1.975,2.333,2.333,0,0,0-4.575,0A2.333,2.333,0,0,0,3.7,182.105v5.415a2.333,2.333,0,0,0-3.385,3.057c4.647,8.038,4.38,7.656,4.807,8.206a2.74,2.74,0,0,1,.569,1.671V201.6a.848.848,0,0,0-.7.835v2.6a.847.847,0,0,0-.384.71v9.16a.848.848,0,0,0,.848.848H15.519a.848.848,0,0,0,.848-.848v-1.724a.848.848,0,0,0-1.7,0v.876H6.3V206.6h8.371v2.631a.848.848,0,0,0,1.7,0v-3.479a.847.847,0,0,0-.384-.71v-2.6a.848.848,0,0,0-.7-.835v-1.142a2.69,2.69,0,0,1,.554-1.652,6.72,6.72,0,0,0,1.437-4.177V184.089a2.335,2.335,0,0,0-2.333-2.333ZM6.685,204.9v-1.619h7.6V204.9Zm8.893-10.273A5.04,5.04,0,0,1,14.5,197.76a4.392,4.392,0,0,0-.914,2.7v1.129h-6.2v-1.13a4.444,4.444,0,0,0-.925-2.711c-.32-.412,0,.083-4.679-8.015a.637.637,0,1,1,1.1-.637s.915,1.585,1.675,2.9a.848.848,0,0,0,1.159.309,1.674,1.674,0,0,1,2.021,2.633.848.848,0,0,0,1.2,1.2,3.37,3.37,0,0,0-3.282-5.63l-.264-.456v-7.941a.637.637,0,1,1,1.274,0v5.864a.848.848,0,0,0,1.7,0v-7.637a.637.637,0,1,1,1.274,0v7.637a.848.848,0,0,0,1.7,0v-5.864a.637.637,0,1,1,1.274,0v5.864a.848.848,0,0,0,1.7,0v-3.881a.637.637,0,0,1,1.274,0Z" transform="translate(0 -157.873)"/>
      <path id="Trazado_1183416" data-name="Trazado 1183416" d="M414.78,11.736a2.261,2.261,0,0,0-2.062,3.082,5,5,0,0,0,3.027,2.926v.422a2.261,2.261,0,0,0,4.522,0V17.74a5.033,5.033,0,0,0,.843-9.115,2.26,2.26,0,0,0,2.131-3.141,5.028,5.028,0,0,0-2.974-2.792V2.268a2.261,2.261,0,0,0-4.522,0v.426a5.032,5.032,0,0,0-.965,9.042Zm1.978-7.565a.848.848,0,0,0,.683-.832V2.268a.565.565,0,1,1,1.13,0V3.338a.848.848,0,0,0,.684.832,3.332,3.332,0,0,1,2.424,1.975.565.565,0,0,1-1.041.44A2.2,2.2,0,0,0,418.6,5.237h-1.2a2.207,2.207,0,1,0,0,4.414h1.2a3.338,3.338,0,0,1,.65,6.611.848.848,0,0,0-.683.832v1.071a.565.565,0,1,1-1.13,0V17.1a.848.848,0,0,0-.686-.832A3.31,3.31,0,0,1,414.3,14.2a.565.565,0,1,1,1.053-.411,2.195,2.195,0,0,0,2.057,1.406h1.2a2.207,2.207,0,1,0,0-4.414h-1.2a3.338,3.338,0,0,1-.65-6.612Zm2.917,3.9a5.033,5.033,0,0,0-1.071-.115h-1.2a.512.512,0,1,1,0-1.023h1.2a.512.512,0,0,1,.472.313A2.246,2.246,0,0,0,419.675,8.071ZM416.4,12.376a5.036,5.036,0,0,0,1.007.1h1.2a.512.512,0,0,1,0,1.023h-1.2a.5.5,0,0,1-.478-.326A2.246,2.246,0,0,0,416.4,12.376Z" transform="translate(-365.761 0)"/>
    </g>
  </g>
</svg>
