<svg xmlns="http://www.w3.org/2000/svg" xmlns:xlink="http://www.w3.org/1999/xlink" width="295" height="354" viewBox="0 0 295 354">
  <defs>
    <clipPath id="clip-path">
      <rect id="Rectángulo_422745" data-name="Rectángulo 422745" width="295" height="354" transform="translate(180 3479)" fill="#fff" stroke="#707070" stroke-width="1"/>
    </clipPath>
    <clipPath id="clip-path-2">
      <rect id="Rectángulo_422748" data-name="Rectángulo 422748" width="390.744" height="425.197" fill="none"/>
    </clipPath>
    <clipPath id="clip-path-3">
      <rect id="Rectángulo_422747" data-name="Rectángulo 422747" width="296.678" height="118.18" fill="none"/>
    </clipPath>
    <clipPath id="clip-path-5">
      <rect id="Rectángulo_422803" data-name="Rectángulo 422803" width="111.344" height="127.618" transform="translate(55.555 204.916)" fill="none"/>
    </clipPath>
    <clipPath id="clip-path-6">
      <rect id="Rectángulo_422804" data-name="Rectángulo 422804" width="111.345" height="127.618" transform="translate(222.563 204.916)" fill="none"/>
    </clipPath>
    <clipPath id="clip-path-7">
      <rect id="Rectángulo_422808" data-name="Rectángulo 422808" width="121.285" height="58.628" transform="translate(134.729 237.017)" fill="none"/>
    </clipPath>
    <clipPath id="clip-path-8">
      <rect id="Rectángulo_422811" data-name="Rectángulo 422811" width="106.851" height="47.101" transform="translate(141.946 251.351)" fill="none"/>
    </clipPath>
    <clipPath id="clip-path-9">
      <rect id="Rectángulo_422812" data-name="Rectángulo 422812" width="57.027" height="36.936" transform="translate(191.77 251.351)" fill="none"/>
    </clipPath>
  </defs>
  <g id="Grupo_1227962" data-name="Grupo 1227962" transform="translate(-180 -3476)">
    <g id="Enmascarar_grupo_1211527" data-name="Enmascarar grupo 1211527" transform="translate(0 -3)" clip-path="url(#clip-path)">
      <g id="Grupo_1227895" data-name="Grupo 1227895" transform="translate(-6611.872 -360.538)">
        <g id="Grupo_1227877" data-name="Grupo 1227877" transform="translate(6744 3810.538)">
          <g id="Grupo_1227876" data-name="Grupo 1227876" clip-path="url(#clip-path-2)">
            <g id="Grupo_1227875" data-name="Grupo 1227875" transform="translate(23.633)" style="mix-blend-mode: multiply;isolation: isolate">
              <g id="Grupo_1227874" data-name="Grupo 1227874" transform="translate(24.122 265.213)">
                <g id="Grupo_1227873" data-name="Grupo 1227873" clip-path="url(#clip-path-3)">
                  <path id="Trazado_1183441" data-name="Trazado 1183441" d="M320.8,342.1c.548,32.447-65.419,61.545-147.343,64.994S24.674,387.03,24.125,354.581s65.416-61.552,147.342-65S320.247,309.647,320.8,342.1" transform="translate(-24.122 -289.248)" fill="#c4c4c4"/>
                </g>
              </g>
            </g>
          </g>
        </g>
        <rect id="Rectángulo_422749" data-name="Rectángulo 422749" width="3.362" height="20.656" transform="translate(6855.227 3907.557)" fill="#fff6ef"/>
        <rect id="Rectángulo_422750" data-name="Rectángulo 422750" width="3.363" height="20.656" transform="translate(6866.355 3907.557)" fill="#fff6ef"/>
        <rect id="Rectángulo_422751" data-name="Rectángulo 422751" width="3.362" height="20.656" transform="translate(7009.427 3907.557)" fill="#fff6ef"/>
        <rect id="Rectángulo_422752" data-name="Rectángulo 422752" width="3.363" height="20.656" transform="translate(7020.555 3907.557)" fill="#fff6ef"/>
        <rect id="Rectángulo_422753" data-name="Rectángulo 422753" width="3.362" height="20.656" transform="translate(7047.856 3907.557)" fill="#fff6ef"/>
        <rect id="Rectángulo_422754" data-name="Rectángulo 422754" width="3.362" height="20.656" transform="translate(7058.984 3907.557)" fill="#fff6ef"/>
        <rect id="Rectángulo_422755" data-name="Rectángulo 422755" width="283.419" height="4.805" transform="translate(6797.421 3902.752)" fill="#815734"/>
        <path id="Trazado_1183442" data-name="Trazado 1183442" d="M324.913,97.019v20.656H296.649V97.019H286.442v20.656H258.181V97.019H247.973v20.656H219.711V97.019H209.5v20.656H181.241V97.019H171.033v20.656H142.771V97.019H132.564v20.656H104.3V97.019H94.095v20.656H65.832V97.019H57.745v26.9H333v-26.9Z" transform="translate(6744 3810.538)" fill="#fff6ef"/>
        <path id="Trazado_1183443" data-name="Trazado 1183443" d="M293.688,144.432H93.213l96.634-94.97h7.206Z" transform="translate(6744 3790.025)" fill="#815734"/>
        <rect id="Rectángulo_422756" data-name="Rectángulo 422756" width="143.151" height="163.191" transform="translate(6865.875 3941.798)" fill="#90704c"/>
        <rect id="Rectángulo_422757" data-name="Rectángulo 422757" width="143.151" height="11.956" transform="translate(6865.875 3941.798)" fill="#7d5c3f"/>
        <rect id="Rectángulo_422758" data-name="Rectángulo 422758" width="61.727" height="163.191" transform="translate(6807.991 3941.798)" fill="#b49d7a"/>
        <rect id="Rectángulo_422759" data-name="Rectángulo 422759" width="61.727" height="17.244" transform="translate(6807.991 3941.798)" fill="#9f8564"/>
        <rect id="Rectángulo_422760" data-name="Rectángulo 422760" width="61.728" height="163.191" transform="translate(7010.666 3941.798)" fill="#b49d7a"/>
        <rect id="Rectángulo_422761" data-name="Rectángulo 422761" width="61.728" height="16.185" transform="translate(7010.666 3941.798)" fill="#9f8564"/>
        <rect id="Rectángulo_422762" data-name="Rectángulo 422762" width="304.074" height="24.018" transform="translate(6787.335 4104.989)" fill="#9c9078"/>
        <g id="Grupo_1227894" data-name="Grupo 1227894" transform="translate(6744 3810.538)">
          <g id="Grupo_1227893" data-name="Grupo 1227893" clip-path="url(#clip-path-2)">
            <path id="Rectángulo_422763" data-name="Rectángulo 422763" d="M.962,0H27.541A.962.962,0,0,1,28.5.962V5.457a.961.961,0,0,1-.961.961H.961A.961.961,0,0,1,0,5.457V.962A.962.962,0,0,1,.962,0Z" transform="translate(72.236 288.033)" fill="#fdeace"/>
            <path id="Rectángulo_422764" data-name="Rectángulo 422764" d="M.96,0H27.541A.962.962,0,0,1,28.5.962V5.456a.961.961,0,0,1-.961.961H.961A.961.961,0,0,1,0,5.456V.96A.96.96,0,0,1,.96,0Z" transform="translate(72.236 131.26)" fill="#fdeace"/>
            <rect id="Rectángulo_422765" data-name="Rectángulo 422765" width="21.777" height="150.356" transform="translate(75.599 137.677)" fill="#fdeace"/>
            <rect id="Rectángulo_422766" data-name="Rectángulo 422766" width="2.883" height="150.356" transform="translate(78.321 137.677)" fill="#d0b999"/>
            <rect id="Rectángulo_422767" data-name="Rectángulo 422767" width="2.882" height="150.356" transform="translate(85.046 137.677)" fill="#d0b999"/>
            <rect id="Rectángulo_422768" data-name="Rectángulo 422768" width="2.883" height="150.356" transform="translate(93.212 137.677)" fill="#d0b999"/>
            <path id="Rectángulo_422769" data-name="Rectángulo 422769" d="M.962,0H27.541a.96.96,0,0,1,.96.96v4.5a.961.961,0,0,1-.961.961H.96A.96.96,0,0,1,0,5.458V.962A.962.962,0,0,1,.962,0Z" transform="translate(112.909 288.033)" fill="#fdeace"/>
            <path id="Rectángulo_422770" data-name="Rectángulo 422770" d="M.96,0H27.541a.96.96,0,0,1,.96.96v4.5a.961.961,0,0,1-.961.961H.96A.96.96,0,0,1,0,5.457V.96A.96.96,0,0,1,.96,0Z" transform="translate(112.909 131.26)" fill="#fdeace"/>
            <rect id="Rectángulo_422771" data-name="Rectángulo 422771" width="21.777" height="150.356" transform="translate(116.27 137.677)" fill="#fdeace"/>
            <rect id="Rectángulo_422772" data-name="Rectángulo 422772" width="2.882" height="150.356" transform="translate(118.992 137.677)" fill="#d0b999"/>
            <rect id="Rectángulo_422773" data-name="Rectángulo 422773" width="2.882" height="150.356" transform="translate(125.718 137.677)" fill="#d0b999"/>
            <rect id="Rectángulo_422774" data-name="Rectángulo 422774" width="2.883" height="150.356" transform="translate(133.883 137.677)" fill="#d0b999"/>
            <path id="Rectángulo_422775" data-name="Rectángulo 422775" d="M.962,0H27.541A.961.961,0,0,1,28.5.961v4.5a.961.961,0,0,1-.961.961H.961A.961.961,0,0,1,0,5.457V.962A.962.962,0,0,1,.962,0Z" transform="translate(249.333 288.033)" fill="#fdeace"/>
            <path id="Rectángulo_422776" data-name="Rectángulo 422776" d="M.96,0H27.541A.961.961,0,0,1,28.5.961V5.456a.961.961,0,0,1-.961.961H.961A.961.961,0,0,1,0,5.456V.96A.96.96,0,0,1,.96,0Z" transform="translate(249.333 131.26)" fill="#fdeace"/>
            <rect id="Rectángulo_422777" data-name="Rectángulo 422777" width="21.775" height="150.356" transform="translate(252.697 137.677)" fill="#fdeace"/>
            <rect id="Rectángulo_422778" data-name="Rectángulo 422778" width="2.881" height="150.356" transform="translate(255.418 137.677)" fill="#d0b999"/>
            <rect id="Rectángulo_422779" data-name="Rectángulo 422779" width="2.883" height="150.356" transform="translate(262.143 137.677)" fill="#d0b999"/>
            <rect id="Rectángulo_422780" data-name="Rectángulo 422780" width="2.881" height="150.356" transform="translate(270.31 137.677)" fill="#d0b999"/>
            <path id="Rectángulo_422781" data-name="Rectángulo 422781" d="M.962,0H27.541a.96.96,0,0,1,.96.96v4.5a.961.961,0,0,1-.961.961H.96A.96.96,0,0,1,0,5.458V.962A.962.962,0,0,1,.962,0Z" transform="translate(290.005 288.033)" fill="#fdeace"/>
            <path id="Rectángulo_422782" data-name="Rectángulo 422782" d="M.96,0H27.541a.96.96,0,0,1,.96.96v4.5a.961.961,0,0,1-.961.961H.96A.96.96,0,0,1,0,5.457V.96A.96.96,0,0,1,.96,0Z" transform="translate(290.005 131.26)" fill="#fdeace"/>
            <rect id="Rectángulo_422783" data-name="Rectángulo 422783" width="21.777" height="150.356" transform="translate(293.367 137.677)" fill="#fdeace"/>
            <rect id="Rectángulo_422784" data-name="Rectángulo 422784" width="2.882" height="150.356" transform="translate(296.089 137.677)" fill="#d0b999"/>
            <rect id="Rectángulo_422785" data-name="Rectángulo 422785" width="2.882" height="150.356" transform="translate(302.815 137.677)" fill="#d0b999"/>
            <rect id="Rectángulo_422786" data-name="Rectángulo 422786" width="2.882" height="150.356" transform="translate(310.981 137.677)" fill="#d0b999"/>
            <rect id="Rectángulo_422787" data-name="Rectángulo 422787" width="275.253" height="7.341" transform="translate(57.744 123.919)" fill="#dcc3a4"/>
            <path id="Trazado_1183444" data-name="Trazado 1183444" d="M282.639,140.948H104.261l85.586-80.437h7.206Z" transform="translate(0 -17.029)" fill="#fff6ef"/>
            <rect id="Rectángulo_422788" data-name="Rectángulo 422788" width="3.363" height="20.656" transform="translate(72.236 97.019)" fill="#fff6ef"/>
            <rect id="Rectángulo_422789" data-name="Rectángulo 422789" width="3.363" height="20.656" transform="translate(83.365 97.019)" fill="#fff6ef"/>
            <rect id="Rectángulo_422790" data-name="Rectángulo 422790" width="28.156" height="58.692" transform="translate(154.72 148.504)" fill="#fff6ef"/>
            <rect id="Rectángulo_422791" data-name="Rectángulo 422791" width="22.907" height="53.405" transform="translate(157.344 151.146)" fill="#78c7d1"/>
            <path id="Trazado_1183445" data-name="Trazado 1183445" d="M160.494,151.147h-3.15v6.489l21.319,46.916h1.588v-9.927Z" fill="#aad9df"/>
            <path id="Trazado_1183446" data-name="Trazado 1183446" d="M181.487,177.188h-11.7V150.354H167.8v26.834h-11.7v1.322h11.7v26.834h1.983V178.51h11.7Z" fill="#fff6ef"/>
            <rect id="Rectángulo_422792" data-name="Rectángulo 422792" width="28.156" height="58.692" transform="translate(204.025 148.504)" fill="#fff6ef"/>
            <rect id="Rectángulo_422793" data-name="Rectángulo 422793" width="22.908" height="53.405" transform="translate(206.649 151.146)" fill="#78c7d1"/>
            <path id="Trazado_1183447" data-name="Trazado 1183447" d="M209.8,151.147h-3.15v6.489l21.319,46.916h1.589v-9.927Z" fill="#aad9df"/>
            <path id="Trazado_1183448" data-name="Trazado 1183448" d="M230.792,177.188h-11.7V150.354h-1.983v26.834h-11.7v1.322h11.7v26.834h1.983V178.51h11.7Z" fill="#fff6ef"/>
            <rect id="Rectángulo_422794" data-name="Rectángulo 422794" width="28.156" height="58.691" transform="translate(154.72 220.492)" fill="#fff6ef"/>
            <rect id="Rectángulo_422795" data-name="Rectángulo 422795" width="22.907" height="53.403" transform="translate(157.344 223.136)" fill="#78c7d1"/>
            <path id="Trazado_1183449" data-name="Trazado 1183449" d="M160.494,223.136h-3.15v6.489l21.319,46.914h1.588v-9.927Z" fill="#aad9df"/>
            <path id="Trazado_1183450" data-name="Trazado 1183450" d="M181.487,249.177h-11.7V222.343H167.8v26.834h-11.7V250.5h11.7v26.834h1.983V250.5h11.7Z" fill="#fff6ef"/>
            <rect id="Rectángulo_422796" data-name="Rectángulo 422796" width="28.156" height="58.691" transform="translate(204.025 220.492)" fill="#fff6ef"/>
            <rect id="Rectángulo_422797" data-name="Rectángulo 422797" width="22.908" height="53.403" transform="translate(206.649 223.136)" fill="#78c7d1"/>
            <path id="Trazado_1183451" data-name="Trazado 1183451" d="M209.8,223.136h-3.15v6.489l21.319,46.914h1.589v-9.927Z" fill="#aad9df"/>
            <path id="Trazado_1183452" data-name="Trazado 1183452" d="M230.792,249.177h-11.7V222.343h-1.983v26.834h-11.7V250.5h11.7v26.834h1.983V250.5h11.7Z" fill="#fff6ef"/>
            <rect id="Rectángulo_422798" data-name="Rectángulo 422798" width="80.107" height="5.201" transform="translate(155.317 291.243)" fill="#b49d7a"/>
            <rect id="Rectángulo_422799" data-name="Rectángulo 422799" width="93.033" height="5.201" transform="translate(148.615 296.157)" fill="#c9b499"/>
            <rect id="Rectángulo_422800" data-name="Rectángulo 422800" width="116.73" height="5.203" transform="translate(136.767 301.358)" fill="#ddc9b5"/>
            <rect id="Rectángulo_422801" data-name="Rectángulo 422801" width="129.518" height="5.202" transform="translate(130.372 306.46)" fill="#efe0d2"/>
            <rect id="Rectángulo_422802" data-name="Rectángulo 422802" width="146.513" height="6.807" transform="translate(121.874 311.662)" fill="#fffaf6"/>
            <path id="Trazado_1183453" data-name="Trazado 1183453" d="M99.223,204.512s-60.688,66.1-38.977,104.372c0,0,1.209,13.937,17.487,15.718,0,0,30.4,18.571,61.144-1.118,0,0,23.979-2.655,27.3-17.254s-3.981-62.16-38.161-99.941Z" fill="#da8957"/>
            <g id="Grupo_1227880" data-name="Grupo 1227880" opacity="0.4">
              <g id="Grupo_1227879" data-name="Grupo 1227879">
                <g id="Grupo_1227878" data-name="Grupo 1227878" clip-path="url(#clip-path-5)">
                  <path id="Trazado_1183454" data-name="Trazado 1183454" d="M138.877,323.484s23.979-2.655,27.3-17.254a44.378,44.378,0,0,0,.642-11.371c-5.289,8.669-21.641-10.456-25.86-14.291-4.866-4.424-8.627,5.972-8.627,5.972-2.433,3.319,2.536,16.371-11.724,7.079s-40.7-4.646-48.666-11.281,22.341-58.622,24.648-61.056,5.214-5.972,8.533-5.751-3.1,13.715,0,21.016,7.742,3.318,8.857-4.646,3.089-18.139,6.628-17.917,8.406,30.525,15.043,28.535-4.868-23.449-5.213-27.651a2.651,2.651,0,0,1,2.3-3.089q-2.271-2.774-4.725-5.49l-12.027-.742c-5.551-.03-11.471-.282-17.127-.631-4.991,5.557-59.336,67.44-38.613,103.968,0,0,1.208,13.936,17.487,15.718,0,0,30.4,18.571,61.144-1.118" fill="#b1653e"/>
                </g>
              </g>
            </g>
            <path id="Trazado_1183455" data-name="Trazado 1183455" d="M165.555,308.257c-6.527,5.25-16.5,3.512-19.289,2.4-3.319-1.328-7.3-12.389-11.4-7.743s0,15.706,0,15.706c-41.927,19.245-44.346-11.5-48.549-12.61s-6.33,9.07-6.33,9.07c-6.111-1.99-1.412-23.889-5.173-24.333s-8.849,12.167-8.849,12.167C45.392,284.329,96.492,214.2,99.148,213.319s8.627-1.768,9.732.885-4.424,18.8,0,19.247,2.212-17.034,2.347-19.69,6.944-3.1,10.262-1.989,7.964,30.084,12.167,28.757-3.76-16.814-5.531-20.352-4.2-9.511-2.432-10.028c.873-.254,2.824-.806,4.577-1.3q-1.11-1.287-2.257-2.562l-28.79-1.777s-60.689,66.1-38.977,104.372c0,0,1.208,13.937,17.487,15.718,0,0,30.4,18.571,61.144-1.117,0,0,21.723-2.406,26.678-15.227" fill="#b1653e"/>
            <path id="Trazado_1183456" data-name="Trazado 1183456" d="M160.855,314.783c-18.495,9.77-19.9-5.195-22.11-4.793-2.434.441-2.656,12.388-2.656,12.388-42.472,21.9-48.666-7.079-49.772-8.627s-2.212-3.983-4.565,1.769-3.911,3.761-3.911,3.761c-8.7-2.213-1.34-19.913-5.682-20.8s-7.531,9.734-7.531,9.734c-26.776-29.643,33.3-98.661,33.3-98.661l-1.87-1.432C83.874,222.44,41.568,275.961,60.247,308.884c0,0,1.208,13.936,17.486,15.717,0,0,30.4,18.572,61.144-1.117,0,0,13.877-1.538,21.978-8.7" fill="#9c5433"/>
            <path id="Trazado_1183457" data-name="Trazado 1183457" d="M97.579,200.748s-2.231,1.291,0,3.282c0,0-2.448.885-.5,3.538,0,0-1.053,1.219.847,1.992s34.84,1.77,32.407-4.129c0,0,1.9-1.023.154-3.091,0,0,1.725-2.145.509-3.214s-33.421,1.622-33.421,1.622" fill="#edb33c"/>
            <path id="Trazado_1183458" data-name="Trazado 1183458" d="M83.346,168.193s8.97.455,15.274-2.2,18.112-4.271,30.057,1.535a13.375,13.375,0,0,0,12.941,1.328s7.964-1.658,9.291,1.327a3.393,3.393,0,0,1-1.991,3.318c-2.323,1.328-9.291,9.291-11.282,16.26s-8.461,12.578-13.936,10.617c0,0-21.439,4.824-27.707-.663S88.026,178.148,82.72,174.5s-1.65-6.027.626-6.305" fill="#da8957"/>
            <path id="Trazado_1183459" data-name="Trazado 1183459" d="M137.636,189.761c1.991-6.969,8.959-14.932,11.282-16.259a3.428,3.428,0,0,0,2-3.274c-5.354,1.07-12.073,9.811-13.611,13.725-1.825,4.646-6.636,14.1-9.788,13.771s6.968-18.748,4.977-20.9-7.963,17.587-10.452,20.74-11.116,1.659-12.111-1.9-2.987-13.856-4.48-12.691.5,11.277-3.982,12.6-8.13-13.107-12.775-18.914a14.257,14.257,0,0,0-8.473-4.733,6.92,6.92,0,0,0,2.5,2.577c5.306,3.65,7,19.731,13.273,25.219s27.707.663,27.707.663c5.475,1.96,11.946-3.65,13.936-10.618" fill="#b1653e"/>
            <path id="Trazado_1183460" data-name="Trazado 1183460" d="M101.219,168.193c8.711-4.065,22.48-1.576,26.877.83,4.136,2.263,11.864,3.275,14.081-.27-.351.061-.559.1-.559.1a13.375,13.375,0,0,1-12.941-1.328c-11.945-5.806-23.753-4.19-30.057-1.535s-15.274,2.2-15.274,2.2c-1.234.151-2.872.921-3.269,2.174,3.384.378,13.918,1.2,21.142-2.174" fill="#e8a57e"/>
            <path id="Trazado_1183461" data-name="Trazado 1183461" d="M130.619,202.5c-.041-.053-.083-.1-.128-.16a5.122,5.122,0,0,0,.877-1.712c-20.24,3.885-30.314,2.49-34.675,1.125-.225.564-.16,1.344.886,2.277a.28.28,0,0,0-.034.014c7.225.73,28.743-.314,33.074-1.544" fill="#cf9127"/>
            <path id="Trazado_1183462" data-name="Trazado 1183462" d="M96.349,205.438a2.874,2.874,0,0,0,.725,2.118c6.634,1.194,28.342-1.044,33.3-2.01-.013-.038-.022-.076-.038-.115a1.7,1.7,0,0,0,.837-1.875c-13.194,3.736-30.945,2.266-34.824,1.882" fill="#cf9127"/>
            <path id="Trazado_1183463" data-name="Trazado 1183463" d="M130.435,206.289c-18.539,4.2-29.465,2.945-33.64,2.1.022.379.273.818,1.134,1.17,1.8.734,31.516,1.667,32.506-3.271" fill="#cf9127"/>
            <path id="Trazado_1183464" data-name="Trazado 1183464" d="M132.79,282.46a13.288,13.288,0,0,0-6.433-11.714q-2.016-1.344-10.275-4.417-5.184-1.922-5.184-4.9,0-4.608,6.336-4.607a25.642,25.642,0,0,1,7.779,1.247,21.846,21.846,0,0,1,3.42,1.217,1.529,1.529,0,0,0,.709-.832l2.208-5.282a10.721,10.721,0,0,0,.48-1.247q0-1.63-5.184-3.169a38.052,38.052,0,0,0-5.921-1.256v-5.008h-8.459v5.21a15.8,15.8,0,0,0-7.705,3.983,14.776,14.776,0,0,0-4.7,11.187,12.613,12.613,0,0,0,3.457,9.024q1.918,2.018,10.849,5.569,7.105,2.784,7.106,6.048,0,4.806-5.857,4.8a24.961,24.961,0,0,1-8.93-2.112q-5.282-2.112-4.8-2.112c-.323,0-.578.286-.771.864L98.8,290.43a5.127,5.127,0,0,1-.445,1.416c.176,1.233,2.262,2.534,6.3,3.912a41.2,41.2,0,0,0,7.61,1.863v5.026h8.459v-5.169A14.769,14.769,0,0,0,132.79,282.46" fill="#9c5433"/>
            <path id="Trazado_1183465" data-name="Trazado 1183465" d="M266.232,204.512s-60.689,66.1-38.977,104.372c0,0,1.207,13.937,17.487,15.718,0,0,30.4,18.571,61.143-1.118,0,0,23.98-2.655,27.3-17.254s-3.982-62.16-38.161-99.941Z" fill="#da8957"/>
            <g id="Grupo_1227883" data-name="Grupo 1227883" opacity="0.4">
              <g id="Grupo_1227882" data-name="Grupo 1227882">
                <g id="Grupo_1227881" data-name="Grupo 1227881" clip-path="url(#clip-path-6)">
                  <path id="Trazado_1183466" data-name="Trazado 1183466" d="M305.885,323.484s23.979-2.655,27.3-17.254a44.47,44.47,0,0,0,.642-11.371c-5.289,8.669-21.641-10.456-25.86-14.291-4.867-4.424-8.628,5.972-8.628,5.972-2.432,3.319,2.536,16.371-11.723,7.079s-40.705-4.646-48.667-11.281,22.341-58.622,24.648-61.056,5.215-5.972,8.533-5.751-3.1,13.715,0,21.016,7.742,3.318,8.858-4.646,3.088-18.139,6.628-17.917,8.4,30.525,15.042,28.535-4.867-23.449-5.213-27.651a2.651,2.651,0,0,1,2.3-3.089q-2.271-2.774-4.725-5.49l-12.027-.742c-5.552-.03-11.471-.282-17.127-.631-4.991,5.557-59.337,67.44-38.613,103.968,0,0,1.207,13.936,17.487,15.718,0,0,30.4,18.571,61.143-1.118" fill="#b1653e"/>
                </g>
              </g>
            </g>
            <path id="Trazado_1183467" data-name="Trazado 1183467" d="M332.564,308.257c-6.527,5.25-16.5,3.512-19.29,2.4-3.318-1.328-7.3-12.389-11.4-7.743s0,15.706,0,15.706c-41.927,19.245-44.345-11.5-48.549-12.61s-6.33,9.07-6.33,9.07c-6.11-1.99-1.412-23.889-5.173-24.333s-8.849,12.167-8.849,12.167C212.4,284.329,263.5,214.2,266.156,213.319s8.627-1.768,9.733.885-4.425,18.8,0,19.247,2.212-17.034,2.347-19.69,6.944-3.1,10.263-1.989,7.962,30.084,12.166,28.757-3.761-16.814-5.531-20.352-4.2-9.511-2.433-10.028c.874-.254,2.825-.806,4.578-1.3-.74-.858-1.489-1.714-2.257-2.562l-28.79-1.777s-60.689,66.1-38.977,104.372c0,0,1.207,13.937,17.487,15.718,0,0,30.4,18.571,61.143-1.117,0,0,21.723-2.406,26.679-15.227" fill="#b1653e"/>
            <path id="Trazado_1183468" data-name="Trazado 1183468" d="M327.864,314.783c-18.5,9.77-19.9-5.195-22.111-4.793-2.433.441-2.655,12.388-2.655,12.388-42.472,21.9-48.667-7.079-49.773-8.627s-2.211-3.983-4.564,1.769-3.912,3.761-3.912,3.761c-8.7-2.213-1.339-19.913-5.681-20.8s-7.532,9.734-7.532,9.734c-26.775-29.643,33.3-98.661,33.3-98.661l-1.869-1.432c-12.185,14.313-54.491,67.834-35.812,100.757,0,0,1.207,13.936,17.486,15.717,0,0,30.4,18.572,61.143-1.117,0,0,13.876-1.538,21.979-8.7" fill="#9c5433"/>
            <path id="Trazado_1183469" data-name="Trazado 1183469" d="M264.586,200.748s-2.23,1.291,0,3.282c0,0-2.448.885-.5,3.538,0,0-1.052,1.219.847,1.992s34.84,1.77,32.407-4.129c0,0,1.9-1.023.154-3.091,0,0,1.725-2.145.509-3.214s-33.421,1.622-33.421,1.622" fill="#edb33c"/>
            <path id="Trazado_1183470" data-name="Trazado 1183470" d="M250.354,168.193s8.971.455,15.274-2.2,18.113-4.271,30.058,1.535a13.373,13.373,0,0,0,12.94,1.328s7.964-1.658,9.292,1.327a3.393,3.393,0,0,1-1.992,3.318c-2.322,1.328-9.291,9.291-11.281,16.26s-8.462,12.578-13.938,10.617c0,0-21.438,4.824-27.706-.663s-7.966-21.568-13.272-25.218-1.65-6.027.625-6.305" fill="#da8957"/>
            <path id="Trazado_1183471" data-name="Trazado 1183471" d="M304.645,189.761c1.99-6.969,8.959-14.932,11.281-16.259a3.426,3.426,0,0,0,2-3.274c-5.353,1.07-12.072,9.811-13.61,13.725-1.825,4.646-6.636,14.1-9.789,13.771s6.969-18.748,4.977-20.9-7.963,17.587-10.452,20.74-11.115,1.659-12.111-1.9-2.986-13.856-4.481-12.691.5,11.277-3.981,12.6-8.129-13.107-12.774-18.914a14.262,14.262,0,0,0-8.475-4.733,6.937,6.937,0,0,0,2.5,2.577c5.306,3.65,7,19.731,13.272,25.219s27.706.663,27.706.663c5.476,1.96,11.948-3.65,13.938-10.618" fill="#b1653e"/>
            <path id="Trazado_1183472" data-name="Trazado 1183472" d="M268.227,168.193c8.711-4.065,22.48-1.576,26.878.83,4.135,2.263,11.864,3.275,14.08-.27-.351.061-.559.1-.559.1a13.373,13.373,0,0,1-12.94-1.328c-11.945-5.806-23.753-4.19-30.058-1.535s-15.274,2.2-15.274,2.2c-1.234.151-2.871.921-3.269,2.174,3.385.378,13.918,1.2,21.142-2.174" fill="#e8a57e"/>
            <path id="Trazado_1183473" data-name="Trazado 1183473" d="M297.626,202.5c-.04-.053-.082-.1-.128-.16a5.136,5.136,0,0,0,.878-1.712c-20.24,3.885-30.314,2.49-34.675,1.125-.225.564-.161,1.344.885,2.277a.24.24,0,0,0-.033.014c7.225.73,28.743-.314,33.073-1.544" fill="#cf9127"/>
            <path id="Trazado_1183474" data-name="Trazado 1183474" d="M263.357,205.438a2.883,2.883,0,0,0,.725,2.118c6.635,1.194,28.343-1.044,33.3-2.01-.012-.038-.022-.076-.038-.115a1.706,1.706,0,0,0,.838-1.875c-13.193,3.736-30.946,2.266-34.825,1.882" fill="#cf9127"/>
            <path id="Trazado_1183475" data-name="Trazado 1183475" d="M297.443,206.289c-18.539,4.2-29.464,2.945-33.64,2.1.022.379.274.818,1.134,1.17,1.8.734,31.516,1.667,32.506-3.271" fill="#cf9127"/>
            <path id="Trazado_1183476" data-name="Trazado 1183476" d="M299.8,282.46a13.287,13.287,0,0,0-6.434-11.714q-2.016-1.344-10.275-4.417-5.182-1.922-5.184-4.9,0-4.608,6.337-4.607a25.636,25.636,0,0,1,7.778,1.247,21.744,21.744,0,0,1,3.42,1.217,1.531,1.531,0,0,0,.71-.832l2.207-5.282a10.5,10.5,0,0,0,.48-1.247q0-1.63-5.184-3.169a38.041,38.041,0,0,0-5.92-1.256v-5.008h-8.459v5.21a15.8,15.8,0,0,0-7.7,3.983,14.777,14.777,0,0,0-4.706,11.187,12.613,12.613,0,0,0,3.457,9.024q1.92,2.018,10.85,5.569,7.1,2.784,7.105,6.048,0,4.806-5.856,4.8a24.97,24.97,0,0,1-8.931-2.112q-5.282-2.112-4.8-2.112c-.322,0-.576.286-.769.864l-2.111,5.473a5.1,5.1,0,0,1-.446,1.416c.177,1.233,2.263,2.534,6.3,3.912a41.176,41.176,0,0,0,7.61,1.863v5.026h8.459v-5.169A14.769,14.769,0,0,0,299.8,282.46" fill="#9c5433"/>
            <path id="Trazado_1183477" data-name="Trazado 1183477" d="M102.758,361.867v3.682a2.349,2.349,0,0,0,2.319,2.379H285.665a2.351,2.351,0,0,0,2.319-2.379l-.017-3.682Z" fill="#7298aa"/>
            <path id="Trazado_1183478" data-name="Trazado 1183478" d="M267.726,330.361a8.168,8.168,0,0,0-2.412-2.231H122.234a7.607,7.607,0,0,0-2.351,2.4l-16.6,28.739c-1.222,2.116-.248,3.844,2.16,3.844H285.433c2.41,0,3.266-1.654,1.9-3.676Z" fill="#b6cedb"/>
            <path id="Trazado_1183479" data-name="Trazado 1183479" d="M263.446,332.028a7.488,7.488,0,0,0-2.27-1.957H126.56a6.924,6.924,0,0,0-2.212,2.1l-15.615,25.192c-1.147,1.853-.233,3.369,2.034,3.369H280.106c2.267,0,3.071-1.449,1.79-3.222Z" fill="#88a3b7"/>
            <path id="Trazado_1183480" data-name="Trazado 1183480" d="M135.474,333.323l-8.72.013.6-1.174,8.636-.01Z" fill="#444d66"/>
            <path id="Trazado_1183481" data-name="Trazado 1183481" d="M135.334,333.64l-8.74.014.16-.318,8.72-.013Z" fill="#333345"/>
            <path id="Trazado_1183482" data-name="Trazado 1183482" d="M148.022,333.306l-8.719.012.476-1.17,8.634-.009Z" fill="#444d66"/>
            <path id="Trazado_1183483" data-name="Trazado 1183483" d="M147.915,333.621l-8.739.013.128-.317,8.718-.012Z" fill="#333345"/>
            <path id="Trazado_1183484" data-name="Trazado 1183484" d="M160.569,333.287l-8.719.011.357-1.164,8.635-.012Z" fill="#444d66"/>
            <path id="Trazado_1183485" data-name="Trazado 1183485" d="M160.5,333.6l-8.741.013.1-.317,8.719-.01Z" fill="#333345"/>
            <path id="Trazado_1183486" data-name="Trazado 1183486" d="M173.116,333.269l-8.718.012.237-1.161,8.636-.012Z" fill="#444d66"/>
            <path id="Trazado_1183487" data-name="Trazado 1183487" d="M173.075,333.583l-8.741.014.064-.316,8.718-.012Z" fill="#333345"/>
            <path id="Trazado_1183488" data-name="Trazado 1183488" d="M185.664,333.251l-8.718.012.118-1.158,8.635-.01Z" fill="#444d66"/>
            <path id="Trazado_1183489" data-name="Trazado 1183489" d="M185.655,333.564l-8.741.014.032-.315,8.718-.012Z" fill="#333345"/>
            <path id="Trazado_1183490" data-name="Trazado 1183490" d="M198.211,333.234l-8.719.011V332.09l8.636-.01Z" fill="#444d66"/>
            <path id="Trazado_1183491" data-name="Trazado 1183491" d="M198.235,333.544l-8.741.014v-.314l8.719-.011Z" fill="#333345"/>
            <path id="Trazado_1183492" data-name="Trazado 1183492" d="M210.758,333.214l-8.717.013-.121-1.152,8.635-.01Z" fill="#444d66"/>
            <path id="Trazado_1183493" data-name="Trazado 1183493" d="M210.814,333.527l-8.739.011-.033-.311,8.716-.013Z" fill="#333345"/>
            <path id="Trazado_1183494" data-name="Trazado 1183494" d="M223.306,333.2l-8.718.013-.24-1.148,8.637-.01Z" fill="#444d66"/>
            <path id="Trazado_1183495" data-name="Trazado 1183495" d="M223.394,333.506l-8.74.014-.066-.311,8.718-.013Z" fill="#333345"/>
            <path id="Trazado_1183496" data-name="Trazado 1183496" d="M235.854,333.178l-8.717.014-.359-1.146,8.635-.01Z" fill="#444d66"/>
            <path id="Trazado_1183497" data-name="Trazado 1183497" d="M235.973,333.487l-8.74.014-.1-.31,8.717-.014Z" fill="#333345"/>
            <path id="Trazado_1183498" data-name="Trazado 1183498" d="M248.4,333.16l-8.718.012-.479-1.141,8.636-.01Z" fill="#444d66"/>
            <path id="Trazado_1183499" data-name="Trazado 1183499" d="M248.554,333.469l-8.741.012-.129-.309,8.718-.012Z" fill="#333345"/>
            <path id="Trazado_1183500" data-name="Trazado 1183500" d="M260.949,333.142l-8.718.013-.6-1.138,8.635-.01Z" fill="#444d66"/>
            <path id="Trazado_1183501" data-name="Trazado 1183501" d="M261.134,333.449l-8.741.014-.162-.309,8.717-.013Z" fill="#333345"/>
            <path id="Trazado_1183502" data-name="Trazado 1183502" d="M134.01,336.672l-8.956.02,1.14-2.249,8.8-.016Z" fill="#444d66"/>
            <path id="Trazado_1183503" data-name="Trazado 1183503" d="M133.81,337.127l-8.987.02.231-.456,8.956-.019Z" fill="#333345"/>
            <path id="Trazado_1183504" data-name="Trazado 1183504" d="M146.9,336.644l-8.956.02.911-2.242,8.8-.014Z" fill="#444d66"/>
            <path id="Trazado_1183505" data-name="Trazado 1183505" d="M146.746,337.1l-8.986.02.183-.454,8.956-.02Z" fill="#333345"/>
            <path id="Trazado_1183506" data-name="Trazado 1183506" d="M159.788,336.615l-8.956.02.683-2.235,8.795-.014Z" fill="#444d66"/>
            <path id="Trazado_1183507" data-name="Trazado 1183507" d="M159.681,337.068l-8.987.02.137-.454,8.956-.019Z" fill="#333345"/>
            <path id="Trazado_1183508" data-name="Trazado 1183508" d="M172.675,336.587l-8.955.021.453-2.228,8.8-.017Z" fill="#444d66"/>
            <path id="Trazado_1183509" data-name="Trazado 1183509" d="M172.616,337.038l-8.986.021.09-.452,8.956-.02Z" fill="#333345"/>
            <path id="Trazado_1183510" data-name="Trazado 1183510" d="M185.564,336.56l-8.953.02.224-2.222,8.8-.015Z" fill="#444d66"/>
            <path id="Trazado_1183511" data-name="Trazado 1183511" d="M185.55,337.009l-8.986.021.047-.451,8.953-.019Z" fill="#333345"/>
            <path id="Trazado_1183512" data-name="Trazado 1183512" d="M198.454,336.531l-8.955.02,0-2.215,8.8-.015Z" fill="#444d66"/>
            <path id="Trazado_1183513" data-name="Trazado 1183513" d="M198.486,336.98,189.5,337v-.449l8.955-.02Z" fill="#333345"/>
            <path id="Trazado_1183514" data-name="Trazado 1183514" d="M211.343,336.5l-8.956.019-.232-2.207,8.795-.016Z" fill="#444d66"/>
            <path id="Trazado_1183515" data-name="Trazado 1183515" d="M211.422,336.951l-8.988.02-.047-.449,8.956-.019Z" fill="#333345"/>
            <path id="Trazado_1183516" data-name="Trazado 1183516" d="M224.231,336.475l-8.955.02-.461-2.2,8.8-.014Z" fill="#444d66"/>
            <path id="Trazado_1183517" data-name="Trazado 1183517" d="M224.358,336.92l-8.989.022-.093-.447,8.955-.02Z" fill="#333345"/>
            <path id="Trazado_1183518" data-name="Trazado 1183518" d="M237.121,336.447l-8.955.02-.69-2.2,8.8-.014Z" fill="#444d66"/>
            <path id="Trazado_1183519" data-name="Trazado 1183519" d="M237.292,336.891l-8.989.021-.138-.445,8.955-.019Z" fill="#333345"/>
            <path id="Trazado_1183520" data-name="Trazado 1183520" d="M250.008,336.419l-8.955.019-.917-2.187,8.8-.016Z" fill="#444d66"/>
            <path id="Trazado_1183521" data-name="Trazado 1183521" d="M250.227,336.861l-8.987.021-.187-.444,8.955-.019Z" fill="#333345"/>
            <path id="Trazado_1183522" data-name="Trazado 1183522" d="M262.9,336.391l-8.955.02L252.8,334.23l8.8-.015Z" fill="#444d66"/>
            <path id="Trazado_1183523" data-name="Trazado 1183523" d="M263.162,336.833l-8.987.02-.232-.443,8.955-.019Z" fill="#333345"/>
            <path id="Trazado_1183524" data-name="Trazado 1183524" d="M132.588,339.923l-9.185.027,1.139-2.249,9.025-.021Z" fill="#444d66"/>
            <path id="Trazado_1183525" data-name="Trazado 1183525" d="M132.389,340.379l-9.218.027.233-.456,9.184-.027Z" fill="#333345"/>
            <path id="Trazado_1183526" data-name="Trazado 1183526" d="M145.808,339.885l-9.186.027.913-2.242,9.026-.02Z" fill="#444d66"/>
            <path id="Trazado_1183527" data-name="Trazado 1183527" d="M145.656,340.339l-9.218.028.185-.455,9.185-.027Z" fill="#333345"/>
            <path id="Trazado_1183528" data-name="Trazado 1183528" d="M159.029,339.849l-9.186.025.682-2.235,9.026-.02Z" fill="#444d66"/>
            <path id="Trazado_1183529" data-name="Trazado 1183529" d="M158.922,340.3l-9.218.028.139-.453,9.185-.026Z" fill="#333345"/>
            <path id="Trazado_1183530" data-name="Trazado 1183530" d="M172.249,339.81l-9.186.025.455-2.226,9.026-.022Z" fill="#444d66"/>
            <path id="Trazado_1183531" data-name="Trazado 1183531" d="M172.19,340.261l-9.219.028.092-.453,9.186-.026Z" fill="#333345"/>
            <path id="Trazado_1183532" data-name="Trazado 1183532" d="M185.468,339.773l-9.184.025.225-2.22,9.025-.023Z" fill="#444d66"/>
            <path id="Trazado_1183533" data-name="Trazado 1183533" d="M185.455,340.222l-9.217.027.046-.451,9.185-.025Z" fill="#333345"/>
            <path id="Trazado_1183534" data-name="Trazado 1183534" d="M198.688,339.735l-9.186.026,0-2.215,9.028-.021Z" fill="#444d66"/>
            <path id="Trazado_1183535" data-name="Trazado 1183535" d="M198.721,340.183l-9.218.027v-.449l9.186-.026Z" fill="#333345"/>
            <path id="Trazado_1183536" data-name="Trazado 1183536" d="M211.909,339.7l-9.186.028-.231-2.209,9.027-.021Z" fill="#444d66"/>
            <path id="Trazado_1183537" data-name="Trazado 1183537" d="M211.988,340.144l-9.218.027-.047-.447,9.186-.028Z" fill="#333345"/>
            <path id="Trazado_1183538" data-name="Trazado 1183538" d="M225.129,339.659l-9.186.025-.46-2.2,9.026-.021Z" fill="#444d66"/>
            <path id="Trazado_1183539" data-name="Trazado 1183539" d="M225.255,340.1l-9.218.028-.093-.447,9.185-.025Z" fill="#333345"/>
            <path id="Trazado_1183540" data-name="Trazado 1183540" d="M238.348,339.621l-9.184.027-.69-2.2,9.027-.021Z" fill="#444d66"/>
            <path id="Trazado_1183541" data-name="Trazado 1183541" d="M238.52,340.065l-9.216.028-.14-.445,9.184-.027Z" fill="#333345"/>
            <path id="Trazado_1183542" data-name="Trazado 1183542" d="M251.569,339.583l-9.185.025-.918-2.188,9.028-.021Z" fill="#444d66"/>
            <path id="Trazado_1183543" data-name="Trazado 1183543" d="M251.789,340.026l-9.218.027-.186-.445,9.184-.025Z" fill="#333345"/>
            <path id="Trazado_1183544" data-name="Trazado 1183544" d="M264.789,339.546l-9.184.024-1.149-2.18,9.027-.021Z" fill="#444d66"/>
            <path id="Trazado_1183545" data-name="Trazado 1183545" d="M265.054,339.986l-9.218.027-.231-.443,9.184-.024Z" fill="#333345"/>
            <path id="Trazado_1183546" data-name="Trazado 1183546" d="M131.167,343.175l-9.414.033,1.139-2.248,9.255-.028Z" fill="#444d66"/>
            <path id="Trazado_1183547" data-name="Trazado 1183547" d="M130.968,343.63l-9.448.034.232-.457,9.414-.033Z" fill="#333345"/>
            <path id="Trazado_1183548" data-name="Trazado 1183548" d="M144.718,343.127l-9.416.033.911-2.241,9.257-.027Z" fill="#444d66"/>
            <path id="Trazado_1183549" data-name="Trazado 1183549" d="M144.565,343.582l-9.446.034.183-.456,9.416-.033Z" fill="#333345"/>
            <path id="Trazado_1183550" data-name="Trazado 1183550" d="M158.27,343.081l-9.416.032.683-2.234,9.256-.028Z" fill="#444d66"/>
            <path id="Trazado_1183551" data-name="Trazado 1183551" d="M158.163,343.532l-9.446.034.137-.454,9.416-.032Z" fill="#333345"/>
            <path id="Trazado_1183552" data-name="Trazado 1183552" d="M171.821,343.032l-9.415.034.453-2.229,9.258-.029Z" fill="#444d66"/>
            <path id="Trazado_1183553" data-name="Trazado 1183553" d="M171.761,343.484l-9.447.033.092-.451,9.415-.034Z" fill="#333345"/>
            <path id="Trazado_1183554" data-name="Trazado 1183554" d="M185.374,342.985l-9.417.034.226-2.223,9.256-.028Z" fill="#444d66"/>
            <path id="Trazado_1183555" data-name="Trazado 1183555" d="M185.359,343.435l-9.448.034.046-.45,9.417-.034Z" fill="#333345"/>
            <path id="Trazado_1183556" data-name="Trazado 1183556" d="M198.923,342.938l-9.415.032,0-2.214,9.257-.029Z" fill="#444d66"/>
            <path id="Trazado_1183557" data-name="Trazado 1183557" d="M198.956,343.385l-9.448.034v-.449l9.415-.032Z" fill="#333345"/>
            <path id="Trazado_1183558" data-name="Trazado 1183558" d="M212.476,342.889l-9.417.033-.231-2.207,9.256-.03Z" fill="#444d66"/>
            <path id="Trazado_1183559" data-name="Trazado 1183559" d="M212.555,343.336l-9.448.034-.048-.448,9.417-.033Z" fill="#333345"/>
            <path id="Trazado_1183560" data-name="Trazado 1183560" d="M226.026,342.842l-9.415.033-.46-2.2,9.256-.029Z" fill="#444d66"/>
            <path id="Trazado_1183561" data-name="Trazado 1183561" d="M226.153,343.287l-9.448.034-.094-.447,9.415-.032Z" fill="#333345"/>
            <path id="Trazado_1183562" data-name="Trazado 1183562" d="M239.578,342.794l-9.415.033-.69-2.2,9.256-.028Z" fill="#444d66"/>
            <path id="Trazado_1183563" data-name="Trazado 1183563" d="M239.749,343.238l-9.448.035-.139-.446,9.415-.033Z" fill="#333345"/>
            <path id="Trazado_1183564" data-name="Trazado 1183564" d="M253.129,342.746l-9.416.035-.917-2.189,9.257-.028Z" fill="#444d66"/>
            <path id="Trazado_1183565" data-name="Trazado 1183565" d="M253.349,343.19l-9.449.034-.187-.443,9.416-.035Z" fill="#333345"/>
            <path id="Trazado_1183566" data-name="Trazado 1183566" d="M266.68,342.7l-9.416.034-1.146-2.181,9.257-.029Z" fill="#444d66"/>
            <path id="Trazado_1183567" data-name="Trazado 1183567" d="M266.945,343.141l-9.447.033-.234-.442,9.416-.033Z" fill="#333345"/>
            <path id="Trazado_1183568" data-name="Trazado 1183568" d="M129.747,346.426l-9.646.041,1.139-2.248,9.487-.036Z" fill="#444d66"/>
            <path id="Trazado_1183569" data-name="Trazado 1183569" d="M129.547,346.882l-9.679.041.232-.456,9.646-.041Z" fill="#333345"/>
            <path id="Trazado_1183570" data-name="Trazado 1183570" d="M143.628,346.369l-9.646.04.913-2.241,9.485-.035Z" fill="#444d66"/>
            <path id="Trazado_1183571" data-name="Trazado 1183571" d="M143.475,346.823l-9.678.041.186-.456,9.645-.039Z" fill="#333345"/>
            <path id="Trazado_1183572" data-name="Trazado 1183572" d="M226.919,346.009l-79.049.327.682-2.235,77.748-.287Z" fill="#444d66"/>
            <path id="Trazado_1183573" data-name="Trazado 1183573" d="M227.045,346.454l-79.313.335.138-.454,79.049-.326Z" fill="#333345"/>
            <path id="Trazado_1183574" data-name="Trazado 1183574" d="M240.807,345.969l-9.646.039-.689-2.194,9.487-.035Z" fill="#444d66"/>
            <path id="Trazado_1183575" data-name="Trazado 1183575" d="M240.979,346.411l-9.679.04-.139-.443,9.646-.039Z" fill="#333345"/>
            <path id="Trazado_1183576" data-name="Trazado 1183576" d="M254.689,345.91l-9.646.04-.917-2.187,9.487-.036Z" fill="#444d66"/>
            <path id="Trazado_1183577" data-name="Trazado 1183577" d="M254.908,346.355l-9.678.039-.186-.443,9.645-.04Z" fill="#333345"/>
            <path id="Trazado_1183578" data-name="Trazado 1183578" d="M268.573,345.855l-9.647.039-1.146-2.182,9.487-.035Z" fill="#444d66"/>
            <path id="Trazado_1183579" data-name="Trazado 1183579" d="M268.836,346.294l-9.678.042-.233-.442,9.647-.039Z" fill="#333345"/>
            <path id="Trazado_1183580" data-name="Trazado 1183580" d="M224.922,359.918c.789,0,1.07-.532.623-1.186l-6.435-9.374a3.063,3.063,0,0,0-2.25-1.186H172.769a2.792,2.792,0,0,0-2.167,1.24l-5.446,9.266c-.4.683-.08,1.24.71,1.24Z" fill="#99b5c6"/>
            <path id="Rectángulo_422805" data-name="Rectángulo 422805" d="M5.155,0H146.627a5.155,5.155,0,0,1,5.155,5.155v87.38a5.156,5.156,0,0,1-5.156,5.156H5.156A5.156,5.156,0,0,1,0,92.535V5.155A5.155,5.155,0,0,1,5.155,0Z" transform="translate(119.481 226.142)" fill="#c4d2db"/>
            <path id="Trazado_1183581" data-name="Trazado 1183581" d="M266.107,226.143H124.636a5.156,5.156,0,0,0-5.155,5.156v1.409a5.156,5.156,0,0,1,5.081-4.283h141.47a5.157,5.157,0,0,1,5.155,5.157v85.969a5.124,5.124,0,0,0,.076-.872V231.3a5.157,5.157,0,0,0-5.156-5.156" fill="#dde7ee"/>
            <path id="Trazado_1183582" data-name="Trazado 1183582" d="M124.636,323.833H266.107a5.157,5.157,0,0,0,5.156-5.155v-7.416c-39.415-5.1-124.844-34.074-151.782-43.435v50.851a5.154,5.154,0,0,0,5.155,5.155" fill="#94afba"/>
            <path id="Trazado_1183583" data-name="Trazado 1183583" d="M124.636,323.833H266.107a5.154,5.154,0,0,0,5.005-3.92c-34.14-4-119.677-27.063-151.631-35.878v34.643a5.154,5.154,0,0,0,5.155,5.155" fill="#7896a2"/>
            <path id="Rectángulo_422806" data-name="Rectángulo 422806" d="M4.733,0H134.61a4.734,4.734,0,0,1,4.734,4.734V83.863a4.733,4.733,0,0,1-4.733,4.733H4.733A4.733,4.733,0,0,1,0,83.863V4.733A4.733,4.733,0,0,1,4.733,0Z" transform="translate(125.699 230.69)" fill="#282532"/>
            <rect id="Rectángulo_422807" data-name="Rectángulo 422807" width="126.524" height="79.221" rx="4.298" transform="translate(132.109 235.377)" fill="#009cd2"/>
            <g id="Grupo_1227886" data-name="Grupo 1227886" opacity="0.4">
              <g id="Grupo_1227885" data-name="Grupo 1227885">
                <g id="Grupo_1227884" data-name="Grupo 1227884" clip-path="url(#clip-path-7)">
                  <path id="Trazado_1183584" data-name="Trazado 1183584" d="M141.15,251.542c5.4,1.885,10.9,3.53,16.339,5.292,18.765,6.073,37.5,12.284,55.874,19.479,9.125,3.573,18.166,7.375,27.041,11.532,5.249,2.46,10.53,4.962,15.61,7.8V241.138a4.121,4.121,0,0,0-4.12-4.121H138.849a4.121,4.121,0,0,0-4.12,4.121v8.03c2.143.789,4.272,1.623,6.421,2.374" fill="#7cc0d8"/>
                </g>
              </g>
            </g>
            <rect id="Rectángulo_422809" data-name="Rectángulo 422809" width="106.852" height="47.102" transform="translate(141.945 251.35)" fill="#eff7fd"/>
            <rect id="Rectángulo_422810" data-name="Rectángulo 422810" width="106.852" height="47.102" transform="translate(141.945 251.35)" fill="#eff7fd"/>
            <g id="Grupo_1227889" data-name="Grupo 1227889" opacity="0.6">
              <g id="Grupo_1227888" data-name="Grupo 1227888">
                <g id="Grupo_1227887" data-name="Grupo 1227887" clip-path="url(#clip-path-8)">
                  <path id="Trazado_1183585" data-name="Trazado 1183585" d="M248.8,286.433c-41.054-3.733-75.349-24.023-91.322-35.082h-15.53v47.1H248.8Z" fill="#c3e3ee"/>
                </g>
              </g>
            </g>
            <path id="Trazado_1183586" data-name="Trazado 1183586" d="M248.8,292.7c-54.733,1.921-91.239-16.823-106.852-26.985v32.742H248.8Z" fill="#c3e3ee"/>
            <g id="Grupo_1227892" data-name="Grupo 1227892" opacity="0.5">
              <g id="Grupo_1227891" data-name="Grupo 1227891">
                <g id="Grupo_1227890" data-name="Grupo 1227890" clip-path="url(#clip-path-9)">
                  <path id="Trazado_1183587" data-name="Trazado 1183587" d="M191.816,256.257c-.031.148.108.058.155.078s.131,0,.161.029.137.041.038.11.02.127.059.186a.253.253,0,0,0,.207.109.977.977,0,0,0,.246-.02c.079-.02.129.03.226.069s.069-.1.2-.139.05-.127.129-.117.048.108,0,.137-.07.07-.04.08a1.073,1.073,0,0,1,.158.127c.058.049,0,.167-.02.3s-.168.049-.2.029-.089-.01-.178.03,0,0-.039.089-.029.078-.068.109-.06,0-.11-.08-.087-.049-.157-.039-.018.1-.049.108a.068.068,0,0,0-.009.108c.04.04-.02.088-.089.1s-.07.068-.1.186-.118.1-.107.275.147.14.173.2.043.047.131.047.089.022.188.061,0,.108-.04.128-.02-.1-.088-.1-.05.01-.148.079,0,0,.009.108.06.079.149.128.049.1.167.088.089-.029.168-.077.008-.1.058-.139.01-.108.053-.177.075.029.046.059-.039.059-.031.128-.039.138,0,.187a.2.2,0,0,1,.04.2c-.019.119-.039.08-.039.138s.039.07.1.128.246-.058.345-.147,0,0,.089.069.05.129.128.119,0,0,.029-.09.069-.048.128.039,0,0,.059.01.217-.137.217-.137a.625.625,0,0,1-.079.236.378.378,0,0,0-.039.247c-.029.157-.108.118-.147.294s-.217.011-.484.217-.128.167-.275.217-.019.138,0,.227.089-.01.227-.089a1.189,1.189,0,0,0,.294-.246c.11-.109.326-.178.454-.3a1.143,1.143,0,0,1,.324-.217c.208-.118.2-.217.354-.314s.06-.149.022-.178-.022-.137.048-.265.049-.128.138-.306a.808.808,0,0,0,.078-.295c.03-.1.444-.2.572-.266s.009.079-.011.217-.255.058-.354.3-.058.187.079.227-.108.059-.158.147.04-.02.168.059.059-.019.206-.177.079-.079.207-.138.118-.06.139-.167-.04-.089.019-.227.138.011.275-.058.06.069.168.187.078,0,.167-.03.079.03.069.108.02.069.109.148.136.029.3.02a.728.728,0,0,1,.4.059c.058.048.078.04.118.019s.136-.108.107.021,0,0,.029.1.2.178.3.246a1.021,1.021,0,0,1,.256.177c.128.129.089.08.2.06s.048.04.206.02-.049-.138-.049-.188-.04-.137.049-.207,0,.129.049.287.089.147.247.285.118.059.108.2a.1.1,0,0,1-.086.109h.126c.068,0,.059.059.018.167s-.039.118.011.129.088.079.088.186-.01.089.079.257.029.048.079.008.059.021.167.031.088-.088.167-.108,0,.059-.039.167-.019.068-.019.148a.349.349,0,0,1-.011.108c-.048.04.148.158.168.275s.06.158.118.138.157.01.178.177.049.276.138.315.039.049.128.217a.353.353,0,0,0,.334.226.749.749,0,0,1,.365.227c.1.078.1.117.2.2s0,.157.089.245-.029.237-.109.268-.03-.061.041-.13-.041-.186-.1-.2-.088.02-.177.02-.069-.04-.147-.04.009.159.058.188.07.1.02.316.04.117.118.1.011.078-.039.108-.01.068-.02.207-.019.088-.04.3,0,.138-.088.3-.009.177.01.245a1.972,1.972,0,0,1,.109.3c.029.148-.109.217-.06.285a.372.372,0,0,1,.1.237c0,.108.1.158.118.325s.05.059.118-.03.079,0,.167.03,0,0-.088.089-.029.089-.029.089a.119.119,0,0,1,.058.147c-.029.108.059.2.138.285s.079.089.079.227.108.1.177.1a.483.483,0,0,1,.217.088c.089.049.04.088.128.109a.4.4,0,0,1,.256.155c.068.1.03.031.079.159s.048.128.108.276a1.586,1.586,0,0,1,.137.325c.07.236.109.088.208.148s.068.108.127.2,0,.088-.03.157-.176,0-.127.049.2.168.266.118.049.011.128.108.1.069.177.168,0,.078,0,.2.019.05.128.109.1.128.187.216.069.148.138.178.039-.049.117-.118-.078-.157-.137-.187-.049.048-.1.02-.02-.07-.01-.139-.069-.1-.1-.2-.088-.1-.109-.207-.087-.117-.127-.176a.243.243,0,0,1-.06-.138c0-.05-.039-.088-.136-.178a.485.485,0,0,1-.149-.2c-.068-.119-.078-.08-.128-.2s0-.07.05-.148-.089-.157-.118-.236.1-.05.166.02.1.059.179.147,0,.1.029.237.137.1.186.226a.906.906,0,0,0,.286.325c.108.089.079.108.158.138a.145.145,0,0,1,.108.158.168.168,0,0,0,.078.206c.109.069.129.119.257.2s.137.226.245.354.168.068.188.177a.365.365,0,0,0,.069.2c.059.1,0,.118-.059.168s-.069.147,0,.176a.391.391,0,0,1,.314.244c.119.234.325.169.356.228s.087-.009.136-.009.1.068.178.147.118.04.2.08a.842.842,0,0,0,.285.078.368.368,0,0,1,.266.147c.05.089.069.03.385.03s0,0,.058-.088.109-.03.178-.03.128.049.285.227a1.962,1.962,0,0,0,.217.216c.1.1.148.03.255.079s.109.039.276.039.177.118.177.118.119,0,.149-.03.048.011.088.079,0,.119.048.109.08-.049.238.216.068.04.118.07-.05.187-.04.216.079.069.079.03.068-.02.138,0,.1.177.147.255.1-.009.158-.009-.079.078.01.089-.05-.011.246.009.06.019.078.108.039.028.1,0,.019.06.079.118.058-.01.138-.078-.06-.04-.088-.079a.06.06,0,0,1,.008-.078.3.3,0,0,0,.149-.06c.049-.049.049-.069.107-.088s.089.079.128.1.05.039.079.039-.058.079-.049.128.177.158.2.188.018.118.059.137,0,.08-.03.108.01.079.01.148a.249.249,0,0,0,.029.168c.039.059,0,.108-.059.136s-.039.08-.1.159-.05.04-.1.1-.079.059-.1.138-.03.05-.109.089a.188.188,0,0,0-.1.088c-.071.03-.1.168-.109.2a.319.319,0,0,1-.108.185c-.079.051.01.149.01.248s.087.019.136.009.071.08.071.168-.149.118-.247.226-.01.138.009.207,0,.079-.058.157.049.029.147.089.1.079.167.059.1.1.149.285.079.148.127.3.03.138.08.207a.808.808,0,0,1,.136.344c.041.2.149.158.207.276s-.039.1.031.225.136.159.225.159.1.088.178.148a.574.574,0,0,0,.236.127c.059,0,.059,0,.149.059s.048.108.176.139,0,0,.059.077a.358.358,0,0,0,.177.11,1.223,1.223,0,0,0,.039.186.978.978,0,0,1,.03.424c-.01.3,0,.088-.01.266s0,.137-.059.186-.039.05.01.345,0,.088-.049.335-.049.158-.049.306-.03.147-.089.285a.338.338,0,0,0-.049.257c.01.147-.01.116-.059.265s.01.176.03.384a.956.956,0,0,1-.06.394c-.029.157-.128.423-.147.57s-.05.118-.128.186,0,.129,0,.229a1.432,1.432,0,0,0,.009.343c.03.119-.009.049-.059.276a.278.278,0,0,1-.217.245s.228.218.306.2.089.05.118.149-.05.137.06.256-.157.265-.06.354-.029.148-.069.236-.04.148-.107.316-.06-.05-.238-.07-.107.059-.206.188.059.068.256.088-.03.049-.01.187.118.029.118.147,0,0-.1-.01-.078.05-.009.189,0,.136-.069.3.009.217.1.236-.039.06-.029.345.059.089.138.158-.01.068,0,.3.078.06.147.108-.039.08,0,.2.237.364.355.02c.04-.118.071-.151.1-.144-.007-.018.009-.034.079-.122.108-.138.078-.04.158-.187s.078.079.176,0,0,0-.009-.109-.108-.1-.167-.217.088-.147.2-.255,0-.1.02-.168.049.05.158,0,.029-.088.048-.157.011-.089.149-.2a.6.6,0,0,0,.2-.218.709.709,0,0,0,.059-.226c.019-.1-.089-.1-.177-.1s-.187-.1-.247-.2-.009-.078.069-.255.069-.059.187-.158.1-.029.207-.058.02-.04-.01-.148.04-.129.088-.2.058-.108.011-.148a.063.063,0,0,1,.019-.117c.059-.02.157.069.286,0s-.049-.148-.1-.177-.108.029-.2,0-.088-.168-.088-.168a.76.76,0,0,1,.068-.2c.04-.06-.078.01.286.049s.188-.109.256-.246.029-.11.01-.246-.019-.109.079-.09a.894.894,0,0,0,.393,0,1.057,1.057,0,0,1,.295-.078c.178-.019.188-.03.246-.1s.05-.1.149-.236.039-.069.068-.137-.019-.118-.107-.128-.06-.06-.04-.139-.07-.107-.138-.193-.148-.063-.207-.161.02-.167,0-.256a.306.306,0,0,1,.059-.256c.059-.078.04.168.08.365s.039.137.206.167.079.088.108.1.079,0,.246-.04.05.029.118.068.109-.01.128-.117.089-.059.335-.276.029-.2.029-.3a.545.545,0,0,1,.148-.325c.079-.089.039-.118.158-.089s0,0,.059.109-.1.156-.021.127.11-.246.158-.373a.53.53,0,0,1,.217-.257.158.158,0,0,0,.069-.158c0-.048.04-.138.059-.234a2.01,2.01,0,0,0-.01-.355.092.092,0,0,1,.06-.089s.009.069.137,0,.109-.1.138-.148a.969.969,0,0,1,.394-.2c.227-.078.069-.087.158-.133s.2-.013.344,0,.039,0,.207-.051.128-.137.128-.2.049-.118.068-.237.06-.068.129-.127.068-.069.068-.167a.4.4,0,0,1,.079-.227.423.423,0,0,0,.08-.217c.009-.108.039-.069.078-.148s-.02-.146-.069-.2,0-.247,0-.375a1.012,1.012,0,0,1,.039-.363c.04-.079.04.088.079.187s.108-.079.148-.149a2.262,2.262,0,0,0,.088-.275c.04-.108.1-.049.178-.128s.009-.157.088-.207.286-.216.286-.315-.06-.2-.06-.285a1.414,1.414,0,0,0-.1-.394c-.039-.088-.069-.04-.305-.1s-.1-.068-.157-.129-.188-.1-.217-.212-.335.005-.492,0a1.32,1.32,0,0,1-.365-.1.89.89,0,0,0-.259.019c-.122.021-.124.118-.183.07s.078-.119.166-.218-.216-.117-.363-.167-.246-.079-.355-.118-.148.186-.2.257-.193.018-.282.058-.167.021-.187-.061.05.011.118,0,.158-.047.237-.068.049-.068.1-.147-.029-.088-.088-.167-.1.02-.207.02-.1.069-.138.168-.088.108-.2.168a.205.205,0,0,1-.2,0,.9.9,0,0,0,.2-.179,1.607,1.607,0,0,1,.2-.215,1.141,1.141,0,0,0,.187-.228c.079-.128-.039-.068-.157-.118s-.039-.059-.059-.2a.529.529,0,0,0-.119-.247h-.078s-.059-.137-.1-.207-.166-.048-.236-.088a.983.983,0,0,0-.432-.1.368.368,0,0,0-.188.069c-.069.04-.178.04-.158,0s.011-.088-.02-.069-.186-.118-.186-.118H214.6a.241.241,0,0,0-.049-.177.47.47,0,0,0-.275-.2c-.11-.028-.06-.058-.139-.156s-.089-.1-.187-.1-.119-.04-.226-.129.059-.02.089-.118-.267,0-.356.03-.166.049-.314.088-.069-.069-.138-.1a1.482,1.482,0,0,0-.413.07.744.744,0,0,0-.1-.207.411.411,0,0,0-.266-.06c-.108,0-.059.04-.118.07a.727.727,0,0,1-.2.048c-.088.022.069.129.089.258s-.029.147-.109.147-.108-.079-.176-.147.058-.07.137-.149-.079-.109-.079-.167.109-.07.168-.148,0,0-.079-.079-.079.039-.108.108-.06.031-.246.089-.119.02-.168.06-.039.058-.069.039a.11.11,0,0,0-.108,0,.188.188,0,0,0-.089.187c.01.118-.019.158-.087.2s-.051.079-.159.129-.01.128-.079.138-.058-.177-.118-.236a.74.74,0,0,0-.413-.128.508.508,0,0,0-.2.176c-.071.1-.119-.01-.306-.088s-.168-.029-.256-.078.049-.1.029-.208a.933.933,0,0,0-.158-.323c-.088-.149.021-.11.089-.228a.375.375,0,0,0,.03-.335c-.04-.1-.088-.039-.08-.177s-.117-.059-.275-.079-.147.069-.2.078a1.879,1.879,0,0,0-.4-.078c-.2.01-.265-.009-.216-.049s.03-.227.03-.354.119-.06.108-.207-.01-.078.078-.148.041-.1.08-.169.127-.253.089-.322-.148,0-.306.058-.177,0-.344,0,.019.217-.148.463-.217.1-.355.138-.354.01-.571.049-.176-.168-.265-.256a.558.558,0,0,1-.2-.423c.009-.2-.059-.138-.088-.238a.492.492,0,0,1,.019-.392,1.019,1.019,0,0,0,.128-.413.724.724,0,0,1-.011-.207,1.912,1.912,0,0,0,.031-.237c-.01-.069.137-.108.226-.177s.1-.118.206-.217.118-.078.246-.03.246.03.306.09l-.06-.06c-.058-.059.089-.049.2-.049s.01.079.089.109.167-.03.285.029.207.048.167-.01-.059-.069-.049-.118-.216-.01-.3-.03-.01-.1.1-.167.03.127.158.088.147-.058.206-.019.049-.05.158-.1,0,0,.009.069.07-.049.118-.03a.227.227,0,0,0,.179.021c.107-.021.157-.049.266.128s.068.009.206-.089.108.029.147.128.05.069.1.118.04.108.068.236-.018.109-.088.2.079.178.188.188.009.09.049.168a.38.38,0,0,0,.343.206c.238.03.021-.206.031-.355s-.02-.207-.147-.441-.051-.178-.1-.237a1.572,1.572,0,0,1-.04-.453c0-.148.139-.148.394-.383s.128-.149.267-.257a1.885,1.885,0,0,0,.275-.207,2.363,2.363,0,0,1,.2-.178c.07-.058-.058-.2-.2-.344s.028-.177.068-.365-.01-.176,0-.3.06.187.118.324.02.129.059.226,0,0,.06-.127a1.111,1.111,0,0,0,.079-.216c.029-.1-.139-.158-.139-.257s.06-.088.089-.039.01.167.108.118.049-.059.078-.167a.729.729,0,0,0,.041-.227c0-.078.433-.118.482-.137s.079-.08.158-.109.167.019.256,0-.089.019-.148-.059-.08-.069-.167-.137.226-.188.235-.316.08-.088.158-.137a.287.287,0,0,0,.108-.138,1.132,1.132,0,0,1,.276-.03c.168,0,.039-.167.118-.147a.291.291,0,0,0,.286-.119c.108-.118.089-.118.217-.128s0,0-.069.039.039.1.137.069.128.01.059.04-.177.109-.285.157-.128.128-.1.267.157-.03.234-.07a.183.183,0,0,0,.12-.137c.029-.079.049-.011.187,0s.127-.089.187-.129.217-.118.364-.209.089-.116.178-.194-.039-.148-.178,0-.157.157-.256.188-.157-.049-.3-.071-.138-.078-.2-.137-.088-.109-.148-.121.05-.1.05-.273-.1.03-.237-.01-.1-.078-.049-.127.118.01.246,0,.118-.049.118-.138-.068-.187-.324-.187-.316.177-.581.276-.414.423-.5.452-.03-.049.039-.088a.782.782,0,0,0,.217-.345c.059-.158.147-.168.246-.316s.177-.048.315-.009.039-.049.088-.167.049-.089.108-.158.138,0,.355,0a5.5,5.5,0,0,1,1-.01c.364.06.128-.177.226-.294s.119-.109.226-.05.07-.01.2-.138.048-.1.147-.158.02-.137,0-.2a.969.969,0,0,1-.029-.168c-.03-.168-.109-.138-.109-.138a.567.567,0,0,0-.354-.1,2.422,2.422,0,0,0-.355.1.5.5,0,0,1,.138-.118,1.814,1.814,0,0,0,.395-.176c.147-.109-.109-.04-.207-.079s-.266-.208-.256-.275-.2-.159-.316-.228-.118-.207-.151-.354-.085-.1-.153-.119.147-.206.147-.206c.03-.058-.059-.1-.147-.1s-.06-.029-.06-.137-.039-.049-.147-.109.069-.187.059-.275a3.33,3.33,0,0,0-.226-.424c-.089-.187-.021.049-.089.218a1.442,1.442,0,0,0-.128.382c-.039.2-.1.07-.157.06s-.119.157-.228.285a.276.276,0,0,1-.333.089c-.089-.039.117-.079.2-.138s-.049-.137-.089-.246-.157.119-.285.128-.059-.108.03-.147.088-.039.127-.109-.068-.079-.1-.128-.046-.078-.005-.128-.228.011-.336,0,.028-.06.088-.068a.612.612,0,0,0,.207-.08c.089-.048-.03-.1.02-.166a.079.079,0,0,0,0-.11.181.181,0,0,1-.089-.078c-.02-.049,0,0-.089-.01a1.92,1.92,0,0,0-.212-.049c-.124-.009-.043-.078-.043-.109s.059-.088.039-.118-.089-.009-.118-.049-.109-.03-.109-.03.039-.118,0-.157a1.3,1.3,0,0,1-.177-.138c-.059-.069-.128.02-.207.089s-.108.04-.137,0-.139.069-.139.069.03-.119,0-.119a.753.753,0,0,1-.275-.117c-.069-.059-.138.049-.2.127s.008.345.047.4-.008.176-.047.215.018.148.107.129,0,.088,0,.167.079.02.089.109a.233.233,0,0,1-.049.187c-.029.029-.1-.03-.1-.03l-.008.118c-.01.118-.158.187-.128.286s.118.167.305.235.04.149.119.4.029.265-.1.413-.148.148-.268.306-.284.078-.3.157.079.137.157.187-.02.167.019.364.031.079.1.335,0,0-.068.138-.07-.02-.11,0-.058.207-.1.187-.238.118-.306.108.029-.059.118-.118a.094.094,0,0,0,0-.168,1.249,1.249,0,0,1-.153-.147.132.132,0,0,0-.152,0s.059-.079.1-.088-.058-.12-.107-.187c-.034-.047-.053-.031-.062-.016a.25.25,0,0,0,.022-.132.293.293,0,0,1,.029-.2c.04-.11-.029-.061-.059-.1s.01-.138.07-.245-.03-.1-.1-.119a1.026,1.026,0,0,0-.353-.01c-.119.02-.149.118-.237.128s.04-.108.079-.158-.208-.067-.305-.136-.118-.04-.177-.08-.09-.128-.168-.2-.1-.168-.157-.168a.814.814,0,0,1-.4-.157c-.158-.118-.315.118-.393.089s.009-.119.078-.2-.118-.138-.128-.4-.1-.06-.187-.1-.089.226-.137.295-.021-.167,0-.206-.07-.148-.129-.217.05-.344.05-.482.068-.139.049-.266.088-.157.117-.227.1-.069.13-.187.067-.089.117-.157.079-.08.058-.119.04-.088.149-.088.147-.02.236-.148-.118-.039-.168-.155-.146-.041-.2-.081a1.415,1.415,0,0,0-.227-.089c-.088-.039-.109-.059-.079-.147s.089-.05.285.088a1.839,1.839,0,0,1,.267.188c.138.117.2-.05.2-.109s.04-.049.089-.13-.089-.047-.089-.117.109.01.148.08.157.029.257,0,.048-.059.216-.335-.1-.236-.1-.236c-.2-.1-.236-.03-.363-.08s-.287-.156-.306-.255.147,0,.384.157.216.1.384,0,.137-.118.275-.177-.028-.08-.157-.2.079-.078.137-.128.149,0,.208.109.069.029.108.019.1.079.147.054c.027-.014-.032-.089-.093-.164l.011.009a.632.632,0,0,0,.25.012c.109-.008.07-.059.206-.088s.021-.108.021-.158.058-.029.125-.1.021-.107,0-.2-.028-.079-.116-.146,0-.1-.049-.119.069-.119.069-.119c.01-.069-.108,0-.138-.069s.009-.058.039-.058a.46.46,0,0,0,.138-.031c.06-.019.039-.087,0-.177-.018-.04-.039-.05-.055-.053.028-.005.062-.008.1-.084s-.157-.079-.2-.121-.109-.018-.148-.086.109-.019.187-.06-.03-.078-.148-.118-.216-.107-.335-.078-.137.06-.167.177.059.147.167.227-.019.059-.058.187-.06.009-.139.1-.019.147-.078.343a.9.9,0,0,0-.068.257c-.02.137-.041.079-.11.1s-.068.157-.122.167-.025-.078,0-.158-.161-.136-.22-.177,0-.126,0-.187a1.2,1.2,0,0,0-.009-.128s.039-.107.088-.058.01.088.088.1.03-.176.05-.276-.068-.128-.178-.157-.059-.079-.157-.217-.059.1-.165.236-.013.128,0,.256,0,.188-.11.178-.067-.128-.058-.285a.36.36,0,0,0-.019-.207c-.03-.138-.089.019-.1-.131s.118.071.168,0-.118-.224-.187-.2-.079.041-.109-.009-.078-.029-.148-.147,0,0,.059-.07,0,0,0-.068.089-.04.139-.1-.02-.069-.06-.128-.079-.128-.157-.236.01-.128,0-.247-.089-.107-.168-.294-.03-.071-.148-.078-.078-.022-.236-.081-.118.2-.009.256-.01.1-.138.05-.06.147-.08.286.03.068.1.157-.118.108-.2.177.069.245.168.295.128-.029.206.138.158.06.335.119-.078.088-.217.156.021.159.139.13.068.058.068.245-.059.02-.148.167-.127.128-.245.158,0,.149,0,.305a.447.447,0,0,0,.068.277c.05.1-.068.039-.1.039s.022.107,0,.2-.046-.049-.1-.116c-.008-.012-.015-.019-.022-.029-.049-.05-.112-.078-.145-.12s.117.01.217,0,.018-.069-.045-.109-.1.021-.055-.039-.049-.03-.108-.1,0,0,.078-.039.059-.158.08-.246-.029-.05-.08-.05-.048-.049-.087-.049-.06-.069-.06-.137-.157-.05-.226-.06-.128.039-.06.128-.039.128.05.178.1-.021.178-.01.078.107,0,.176-.071-.088-.168-.1-.06.051-.149.088-.128-.088-.245-.088-.206.069-.257.069-.107-.01-.167-.01-.048,0-.186-.1-.089-.02-.2,0-.079-.039-.089-.138-.108-.04-.147-.059-.04-.078-.129-.088-.087.039-.147.039-.1.068-.124.138-.191.1-.25.137.1.089.138.188,0,.069.009.166.1.089.1.189-.033,0-.1.029-.03.04.04.117.1.169,0,.2-.07-.1-.128-.168a1.232,1.232,0,0,1-.176-.235c-.041-.079.067.011.186,0s.048-.058,0-.118a.64.64,0,0,1-.1-.207c-.03-.079-.04.149-.1.149s-.029-.158-.059-.238-.069.01-.167.01.05-.089,0-.128-.1.02-.216.069a.343.343,0,0,0-.167.118c-.05.05-.237.011-.326,0a2.761,2.761,0,0,0-.3-.069c-.1,0-.1-.049-.138-.108s.029-.058.059-.058.088-.031.049-.11l-.015-.027a.08.08,0,0,0,.064.018c.049-.01.1.039.158,0s-.148-.286-.207-.365a.228.228,0,0,0-.266-.068c-.128.029.019.068.069.137s0,0-.108-.038a.693.693,0,0,0-.316-.04c-.108.009-.225-.177-.295-.216s-.108,0-.177-.04-.2-.246-.334-.246-.07-.029-.217-.049,0,0-.059.158,0,0-.049.108-.06.029-.2.019.01-.06.06-.178,0,0-.079-.029.029-.266-.049-.272-.059.1-.148.2,0,.088.009.137-.039.05.04.119,0,0-.069.078-.118-.119-.2-.127,0-.228,0-.228-.207-.354-.414-.206,0,0-.089.206a2.383,2.383,0,0,1-.8.654c-.148.066-.148.055-.118-.122a.416.416,0,0,1,.324-.3.314.314,0,0,0,.079-.028.739.739,0,0,0,.365-.408c.088-.261-.177-.006-.355,0s-.324.289-.413.349-.206-.118-.206-.118-.267.147-.179.236,0,.387,0,.387a.794.794,0,0,0-.383,0c-.118.059-.414-.472-.561-.472h-.295c-.149,0-.267-.357-.267-.357a.877.877,0,0,1-.5,0c-.178-.091-.118-.056-.266-.009s-.206-.106-.353-.018-.149-.178-.326-.207-.324.207-.487.207-.192-.207-.045-.3-.118-.32-.207-.275-.147.132-.235.132-.029-.206-.148-.132-.03.249-.207.273.029-.347,0-.5-.207.059-.295.148-.088.177-.237.295-.207,0-.207,0c-.079-.053-.167.039-.2.118s-.157.118-.315.158-.177.118-.305.236-.05.236-.089.364-.089.089-.157.178-.168,0-.275-.031-.129-.019-.139.129-.108.206-.078.324.117.03.225.139a.519.519,0,0,0,.277.177c.147.049.107.2.147.276s.06.019.167.087.1.011.187-.029.069.029.03.05-.019.059-.019.148a.138.138,0,0,0,.127.157c.089.01.039.108-.019.128s-.039.1-.079.148-.079-.01-.1-.07-.089,0-.324-.029-.021-.059.039-.1-.05-.088-.157-.157-.168.01-.316.157-.069.011-.186.05-.089.089-.257.187,0,0-.029.148m17.317-.8c.078-.019.068.119.148.1s.118.019-.04.127c-.042.029-.052.049-.047.063a.6.6,0,0,1-.1-.151c-.01-.07-.028-.059-.088-.05s.049-.068.128-.089" fill="#61aebe"/>
                  <path id="Trazado_1183588" data-name="Trazado 1183588" d="M212.087,287.589c-.016-.026-.032-.047-.05-.051,0,.01.016.021.029.045a.014.014,0,0,0,.021.006" fill="#61aebe"/>
                  <path id="Trazado_1183589" data-name="Trazado 1183589" d="M198.966,259.929h-.052a.152.152,0,0,0,.052,0" fill="#61aebe"/>
                  <path id="Trazado_1183590" data-name="Trazado 1183590" d="M212.185,287.711h.03c-.03,0-.089.088-.02.128s.109.138.059.157-.069.129.059.248.325-.051.4-.06a.737.737,0,0,1,.238.048c.207.04.186-.029.295-.107s-.02-.069-.148-.079-.168-.069-.217-.167a.541.541,0,0,0-.226-.2c-.089-.059-.078-.109-.069-.227s-.069-.1-.2-.138c-.112-.034-.246.247-.3.272.032.052.06.122.1.122" fill="#61aebe"/>
                  <path id="Trazado_1183591" data-name="Trazado 1183591" d="M207.548,268.071h0" fill="#61aebe"/>
                  <path id="Trazado_1183592" data-name="Trazado 1183592" d="M237.083,277.63c.118,0,.234-.06.146-.138s-.028-.178-.107-.355-.3-.249-.236-.117c0,0,.2.294,0,.314s-.118-.059-.238.118-.039.216-.255.276-.276.039-.394.138-.2.119-.117.335.216.354.157.452a4.135,4.135,0,0,1-.189.414c-.086.118-.071.158,0,.354s-.106.433.09.472.292.1.442,0,.266.06.326-.314a9.015,9.015,0,0,1,.265-.886c.071-.295.345-.492.228-.709s-.236-.354-.118-.354" fill="#61aebe"/>
                  <path id="Trazado_1183593" data-name="Trazado 1183593" d="M231.747,265.934c-.024.038-.071-.018-.128-.074.062.245.166.019.128.074" fill="#61aebe"/>
                  <path id="Trazado_1183594" data-name="Trazado 1183594" d="M243.975,251.4c-.256.059-1-.177-.748.059s.039.433.118.551.255.119.315.237.236.177.236.276.137-.257.158.019.137.275.078.394-.059.021-.059.217.138.473-.04.354-.137-.058-.157-.314.079-.02-.02-.257-.039-.079-.2-.276-.06-.315-.276-.315-.354-.255-.413-.079.216.394-.08.3-.275.2-.294-.1-.177-.748-.295-.669-.178.118-.1.295.235.216.059.394-.256.058-.256.236-.177.255-.079.334.394.4.3.473-.177.079-.159.236-.039.335.06.394a.876.876,0,0,0,.354.059c.158.019.256-.079.315.138s.237.177.178.394-.178.021-.06.217.02.413-.1.236.078-.414-.079-.551-.118-.3-.256-.139-.079.258-.176.454-.021.315-.178.394-.138.374-.374.433a.6.6,0,0,1-.492-.059c-.2-.079-.256-.3-.079-.3s.354.3.414.118.2-.256.236-.393a2.1,2.1,0,0,0,.1-.434c.019-.2.158.059.019-.2s-.058-.177-.1-.473,0-.276-.039-.511.02-.59-.1-.63-.2-.078-.157-.178a.326.326,0,0,1,.157-.216c.118-.078.314-.1.177-.316s0-.315-.217-.315-.315-.157-.452.021,0,.314-.139.492-.118.434-.256.492-.216-.019-.216.2-.02.2.038.335a.484.484,0,0,1,.06.354c-.039.1-.138.276-.06.316s.238-.058.257.078.138.04.177.237.119.356-.019.394-.2.059-.336-.138a1.172,1.172,0,0,0-.413-.413c-.176-.1-.157-.1-.354-.216s-.276-.2-.394-.158-.335-.276-.314-.04.038.276.038.433.08.216-.1.276-.079-.177-.217-.138-.059,0-.216.157-.139-.019-.335.021-.118.078-.276.178.021.216-.157.1.039-.177-.039-.315.078-.236-.079-.138a3.044,3.044,0,0,0-.3.237c-.157.119.139,0-.157.119s-.295,0-.413.156-.256.119-.316.255-.04.355-.216.375-.414.02-.334-.235.078-.258.2-.376.039-.216-.059-.216-.178-.158-.256-.039a.627.627,0,0,0-.1.373,1.473,1.473,0,0,1-.059.336s.137.1.137.217a.4.4,0,0,1-.078.295c-.079.1-.138-.236-.237-.159s-.216.041-.216.139-.138.158-.256.177-.1.078-.2.217.216.039.118.256-.059.176-.315.137-.236-.216-.355-.216-.236.079-.1.2.356.058.258.236-.2.3-.355.138-.02.039-.2-.275-.178-.2-.178-.434.06-.413-.1-.472-.356-.059-.356-.256.06-.2.158-.06.177.119.355.159.039.118.374.176.354.236.551.1.591-.04.492-.354.276-.414-.059-.592-.255-.314-.512-.472-.728-.807-.867-.59-.254.354-.432.176a3.59,3.59,0,0,0-.4-.315c-.118-.1-.275-.059-.2-.275s.02-.295-.118-.295-.335-.217-.531-.138-.532-.157-.709.217-.139.413-.414.432a1.317,1.317,0,0,0-.885.513c-.139.255-.434.157-.533.354s-.255.236-.255.335.019,0,.236-.06.473-.354.393-.1a1.186,1.186,0,0,1-.256.472c-.118.157-.255.216-.294.414a.482.482,0,0,1-.232.333c-.084.06-.1.1-.1.3s-.021.3-.139.335-.118-.255-.118.039.139.236,0,.3-.2-.04-.256.1-.374.1-.412.254-.2.238-.258.335-.157.2-.136.3-.08.511,0,.629-.08.275-.158.453,0,.138.119.315.137.355.373.2.315-.413.433-.413.118-.08.2-.178.178-.276.2.059-.04.256.1.414.208.256.163.413-.17.139,0,.276.172.138.093.256,0,.433.157.2.2-.432.335-.432.374-.1.356-.237.039-.433.1-.453c0,0,.314-.136.314-.334s.158-.177,0-.315-.177-.079-.275-.236.255-.356.118-.474-.216-.118-.118-.354-.1-.1.1-.236.256-.059.355-.256.157-.295.235-.295.257-.177.2-.216-.059-.493.059-.532.158-.1.315-.08.237-.018.295.119.2.276.1.373a3.39,3.39,0,0,1-.275.277c-.178.157-.178.178-.316.3s-.04.216-.079.276-.02-.1-.138.078-.2.217-.039.355a.3.3,0,0,1,.059.414c-.078.058-.315-.138-.078.058s.511.178.452.315-.2.217.079.139.236-.158.473-.217a2.675,2.675,0,0,1,.432-.059c.119-.019.237-.039.178.137s-.039.237-.236.3-.118-.02-.394.039-.315-.059-.393.039-.237.119-.08.217.256-.137.158.1a.624.624,0,0,0-.039.453c.019.1-.039.275-.2.176s-.04-.393-.217-.294-.059.217-.256.354-.138.039-.138.3.118.353-.079.413a1.763,1.763,0,0,1-.433.059.79.79,0,0,0-.532.1.677.677,0,0,1-.472.139c-.1,0,.012-.157-.172-.119s-.517.079-.5-.1-.039-.159.1-.317.059-.216,0-.354.02-.137,0-.236.02-.354-.118-.236-.158.276-.237.335-.1.2-.1.354.158.3.079.394.039.177-.1.275a1.812,1.812,0,0,1-.414.2.6.6,0,0,0-.275.2c-.157.157.04.295-.2.413s-.552.118-.552.2.039.217-.078.276-.118.078-.276.157-.276-.117-.276,0,.158.1.019.257-.314-.139-.373.019-.354.04-.276.118.02.276.118.276.217-.138.256.02a.546.546,0,0,0,.157.275c.079.1.138.118.138.275a.735.735,0,0,0,.039.317c.04.1.119.2,0,.275s-.078,0-.235.059-.177-.04-.316-.02a.636.636,0,0,1-.354.02c-.236-.04-.256-.276-.413-.158a1.96,1.96,0,0,0-.277.256c-.078.079-.157.139-.058.316a.286.286,0,0,1,0,.315c-.02.058.079.137.019.256s-.157.216-.1.334.2.118.157.236-.021.276.1.236a.744.744,0,0,1,.354-.039c.118.02.137.236.295.216a1.125,1.125,0,0,0,.315-.1c.177-.059.295-.039.393-.137a1.954,1.954,0,0,1,.3-.218s.138-.078.138-.176-.118-.1-.039-.276.157-.1.255-.315.257-.123.335-.2.118,0,.1-.214-.059-.237.059-.276a.4.4,0,0,1,.315-.02c.2.039.2.079.315.059a1.931,1.931,0,0,0,.472-.216c.178-.1.275-.138.3.02s-.158,0,.018.157.257.138.277.315.071.256.143.256.211-.039.31.059a.688.688,0,0,0,.374.1s.04.04.04.217.177.216.1.315-.138.256-.04.236.375-.375.276-.375-.256-.136-.157-.235.079-.138.217-.079.255-.256.058-.157-.256-.124-.354-.16.019-.135-.059-.156-.276.1-.394-.079-.02-.177-.137-.255a.563.563,0,0,1-.232-.237c-.043-.1-.072-.295,0-.355s.192-.275.25-.157-.058.157.139.217.1.177.217.276a1.6,1.6,0,0,0,.335.2c.078.039.039.039.2.177s.295,0,.315.255-.04.375.059.473.237.119.2.2.2.276.2.276a.194.194,0,0,0-.02.334c.1.06.335.238.335.138s-.019-.275-.019-.275l-.2-.138s.1-.118.2-.079a.365.365,0,0,1,.107.083.243.243,0,0,1-.009-.044c-.059-.314.1-.334-.04-.452s-.138-.276.04-.236.176-.02.315,0,.275.1.353.078.2,0,.277-.058.256-.119.236,0-.2.176-.374.236-.414.02-.256.157.276.275.2.315-.118.118.06.217.138.019.178.1.118.039.235.137.276.177.315.119l.039-.059s-.118-.1,0-.138.06-.078.178.039.117.216.236.178a3.56,3.56,0,0,0,.394-.217c.079-.039.216-.217.256-.039s.02.157-.04.315.157.206.132.291l-.092.123c-.236.314-.316.393-.256.472s.039.078-.1.138-.058.137-.2.216-.1.178-.217.02-.1-.414-.235-.335-.1.059-.315.178-.04.315-.216.117a.531.531,0,0,0-.375-.2c-.117-.04-.157-.118-.295-.08a2.493,2.493,0,0,1-.335.04c-.1.02-.118-.216-.177-.216s-.2-.121-.276-.11-.1.149-.217.169-.1-.02-.137.1.039.2-.04.3.177.217-.158.1-.059-.158-.433-.177-.177-.217-.353-.275.2.038-.178-.06-.1.02-.374-.1-.1.078-.275-.12l-.178-.2s-.217-.059-.1-.137.138-.079.119-.217-.08-.177-.02-.256.178-.2.1-.2a.607.607,0,0,0-.237.06c-.1.039-.2,0-.432,0s-.2-.1-.375.039-.177.1-.316.019.039-.158-.255.02.059.1-.3.177a1.649,1.649,0,0,0-.531.178c-.335.138-.137,0-.374,0s-.236.217-.414.059-.35-.186-.374-.06c0,0-.039.3-.118.354s-.117-.039-.217.078-.039.14-.2.238-.591.3-.454.432.355.316.158.355-.177.158-.316.3-.293.079-.293.177-.08.315-.2.354a.2.2,0,0,0-.158.236c.021.118-.255.355-.255.433s.118.158,0,.237-.335.177-.257.256a.812.812,0,0,1,.159.412,1.748,1.748,0,0,1-.04.435c-.04.137-.231.611-.135.669a1.281,1.281,0,0,1,.273.492c0,.058.038.079.236.257s.236.215.236.373-.02.079.178.217a4.972,4.972,0,0,0,.57.354c.158.079.178.335.434.355s.472.078.57,0,.375.06.572.04a1.1,1.1,0,0,0,.433-.2,2.455,2.455,0,0,0,.315-.217,1.777,1.777,0,0,1,.315-.039c.138,0,.432-.158.512-.019s.2.438.334.474.453-.056.532,0,.2.018.2.155.138.158,0,.275-.138.179-.1.258.039.137-.059.235-.137-.1-.1.1.157.295.177.434.1.2.256.294.237.08.256.238-.04,0,.02.157.236.079.2.236.071.217.006.334-.188.256.022.374.086.158,0,.316a4.008,4.008,0,0,0-.244.393c-.04.119.02.276-.04.355a.624.624,0,0,0-.039.394c.02.158.256.176.277.354s0,.275.078.354-.051.178.083.354a.534.534,0,0,1,.153.454c-.02.2-.109.334.005.413a.5.5,0,0,1,.211.355c0,.118.237.2.3.335s.018.2.1.334.235.295.235.353.1.159,0,.238-.117.118-.058.216a.583.583,0,0,0,.236.256c.1.04.177-.039.314-.078a2.351,2.351,0,0,1,.335-.1c.2-.04.335-.1.492,0s.474.02.513-.1.374-.275.433-.412.059-.1.177-.277a2.541,2.541,0,0,0,.256-.393c.02-.079.139.019.2-.178s.119-.511.119-.511-.1-.059,0-.158.394-.217.453-.3.236-.178.137-.315a1.525,1.525,0,0,1-.137-.512s-.137-.06-.119-.158.059-.079.286-.237a4.62,4.62,0,0,1,.679-.491c.178-.06.394-.237.335-.414s.059-.039.011-.354.172-.512.012-.65-.16.393-.239-.178-.079-.59-.158-.59-.018-.119.039-.216a3.674,3.674,0,0,1,.218-.67c.137-.2.2-.2.433-.394s.826-.61,1.023-.788.453-.353.414-.512,0-.119.138-.314.334-.276.315-.513.157-.571-.1-.413a.926.926,0,0,1-.453.177.948.948,0,0,0-.06.257c0,.1.039.255-.118.334s-.118.039-.374.039-.138-.058-.335-.157-.294-.04-.315-.276.08-.176.04-.354a.522.522,0,0,0-.217-.374c-.138-.1-.039-.276-.236-.3s-.256.02-.315-.118-.039-.511-.236-.591a.739.739,0,0,1-.374-.629c.018-.217.255-.236-.04-.532a4.229,4.229,0,0,1-.511-.572c-.1-.137-.021-.432-.217-.59s-.217-.334-.139-.334.119.1.238.236.018.059.118.138.235-.335.235-.335l-.039.374a.338.338,0,0,1,.157.217c.039.157.079.157.2.275a.749.749,0,0,1,.176.315c.021.06.118.1.2.138s.2.059.2.276-.237.177-.04.394.394.213.413.451a.828.828,0,0,0,.2.494.442.442,0,0,1,.157.315.534.534,0,0,0,.146.393c.11.1.189.217.326.119s.226-.236.408-.256a4.426,4.426,0,0,0,.617-.158c.137-.039.354.059.432-.138a.378.378,0,0,1,.236-.256,1.081,1.081,0,0,0,.335-.118c.2-.118.237-.058.394-.177s.3.135.336-.218.157-.3.216-.472.2-.235.1-.315-.039-.1-.177-.2-.1-.118-.216-.118-.2.039-.277-.119.02-.373-.078-.354-.02.04-.178.177-.236.256-.334.3a.4.4,0,0,1-.374-.08c-.138-.1-.059-.117-.1-.255s-.215-.3-.2-.216.019.255-.079.255-.118-.1-.118-.216,0-.2-.059-.256a2.654,2.654,0,0,0-.217-.295c-.139-.139-.2-.217-.079-.276a1.238,1.238,0,0,0,.236-.177c.079-.059.04-.177.2,0s-.078.2.118.314.216.139.275.277a.388.388,0,0,0,.256.177.865.865,0,0,0,.315.118c.118,0,.295-.1.354-.078s.118.039.178.176.334.217.472.236.355-.039.512-.019.434,0,.611,0a1.5,1.5,0,0,0,.354-.059c.118-.02.2.1.257.216s-.04.237.136.256.277.04.316.1.1.179,0,.218-.276-.119-.1.039.216.392.355.314.157-.2.235-.274.138-.2.138.057.059.335,0,.474-.066.157.026.354a.942.942,0,0,1,.093.492c.018.3.157.355.216.492a3.028,3.028,0,0,1,.158.393.74.74,0,0,0,.118.317.917.917,0,0,0,.235.294c.118.118.02.3.118.118s.119-.236.217-.294-.019-.039.139-.178.039.2.2-.236.355-.394.237-.59-.276-.316-.139-.394.178.019.276-.158.216-.216.374-.373-.019-.3.157-.355.276.079.375-.061.176-.294.276-.333.138.117.3.02a1.2,1.2,0,0,1,.314-.138s-.1-.159,0-.2.119-.157.178.06-.039.237.118.394.276.177.3.374.138.2.2.335.06.137,0,.275-.2.177-.039.216a.509.509,0,0,0,.355-.019c.079-.039.039.039.177-.217s.237-.276.237-.118v.434c0,.137-.079.117,0,.3a.745.745,0,0,1,.1.394,4.044,4.044,0,0,1,0,.493c-.02.136-.1.215.009.275s.208.039.208.157a1.519,1.519,0,0,0,.335.709,4.138,4.138,0,0,0,.394.433c.177.138.433.354.295.178a.69.69,0,0,1-.2-.532c.039-.159.078-.217-.1-.355s-.2-.2-.316-.275-.078-.2-.2-.315-.256-.157-.276-.275a2.356,2.356,0,0,1,.118-.553s.019-.354.178-.255.295.176.452.275.157.218.275.354a.363.363,0,0,1,.1.336c-.019.079-.019.216.138.118.046-.029.1-.06.157-.093V251.35h-4.577c-.051.011-.1.019-.246.052m-9.648,15.417c-.035.044-.009.007.012-.021a.093.093,0,0,1-.012.021m1-1.752c-.315.1-.177.138-.532.1s-.276-.163-.492-.2-.2-.263-.393-.2-.118.138-.375.2-.078.021-.413.1a.49.49,0,0,1-.59-.3c0-.112-.14-.31,0-.349s.157-.079.2-.3.059-.2.118-.249.177-.234.276-.327.3-.271.3-.133-.238-.05-.158.133.2-.026.315,0c0,0,.235.005.235.123,0,0-.353.059-.275.207,0,0,.157-.03.178.109s.039.236.157.2.2-.181.394-.15.236-.307.413,0a.763.763,0,0,0,.375.367c.078.059.157,0,.235.157s.2.03.119.212.236.2-.079.3m2.371.237c.09.1.326.158.287.216s-.118.217-.059.3a.617.617,0,0,1,.059.276s.295.256.039.216-.043-.177-.326-.1-.213.159-.465,0-.075.059-.252-.158-.2-.314-.079-.432,0-.236.1-.276.353-.02.236-.1.078.039-.118-.079-.208-.065-.291-.2.016-.2-.123-.293-.118.137-.138-.1.039-.039-.019-.236-.118.039-.06-.2.079-.275.157-.354a.59.59,0,0,1,.277-.1l.1-.137.237-.2a.2.2,0,0,1,.2,0c.1.059.06,0,.2,0s.178-.3.138,0,.019.256-.078.395-.2.039-.1.136-.138.2-.217.2-.216-.021-.137.078a1.091,1.091,0,0,1,.157.276c.079.157.315.078.275.2s-.284.291-.172.333a1.027,1.027,0,0,1,.166.083.155.155,0,0,1,.046-.083c.138-.156.256-.392.276-.2s.158-.025.158.2-.1.219-.2.258-.358-.02-.267.079" fill="#61aebe"/>
                  <path id="Trazado_1183595" data-name="Trazado 1183595" d="M243.511,272.452c-.235.029-.177.412-.148.618s.119.179.266,0,0,0,.06-.206-.178-.412-.178-.412" fill="#61aebe"/>
                  <path id="Trazado_1183596" data-name="Trazado 1183596" d="M248.8,275.164a1.639,1.639,0,0,0-.117-.142c-.148-.179-.266-.032-.266-.385s-.265-.118-.3-.325-.265-.178-.531-.473,0,0-.325-.148-.089-.3-.295-.476-.411-.023-.5,0c-.207.056,0,.418.414.714s.088.412.441.53,0,0,.337.237-.07.265.4.619.207.237.5.473c.192.155.221.1.235-.04Z" fill="#61aebe"/>
                </g>
              </g>
            </g>
            <rect id="Rectángulo_422813" data-name="Rectángulo 422813" width="101.198" height="42.184" transform="translate(144.772 253.809)" fill="none" stroke="#1f8fc0" stroke-miterlimit="10" stroke-width="3.309"/>
            <rect id="Rectángulo_422814" data-name="Rectángulo 422814" width="38.665" height="6.772" transform="translate(148.731 258.761)" fill="#87c2d9"/>
            <rect id="Rectángulo_422815" data-name="Rectángulo 422815" width="63.671" height="0.727" transform="translate(148.731 274.175)" fill="#87c2d9"/>
            <rect id="Rectángulo_422816" data-name="Rectángulo 422816" width="63.671" height="0.727" transform="translate(148.731 283.038)" fill="#87c2d9"/>
            <rect id="Rectángulo_422817" data-name="Rectángulo 422817" width="63.671" height="0.726" transform="translate(148.731 290.874)" fill="#87c2d9"/>
            <rect id="Rectángulo_422818" data-name="Rectángulo 422818" width="24.577" height="9.505" transform="translate(216.684 282.525)" fill="#87c2d9"/>
          </g>
        </g>
        <rect id="Rectángulo_422820" data-name="Rectángulo 422820" width="390.744" height="425.197" transform="translate(6744 3810.538)" fill="none"/>
      </g>
    </g>
  </g>
</svg>
