<svg xmlns="http://www.w3.org/2000/svg" xmlns:xlink="http://www.w3.org/1999/xlink" width="103" height="103" viewBox="0 0 103 103">
  <defs>
    <filter id="Trazado_978624" x="0" y="0" width="103" height="103" filterUnits="userSpaceOnUse">
      <feOffset dy="3" input="SourceAlpha"/>
      <feGaussianBlur stdDeviation="3" result="blur"/>
      <feFlood flood-opacity="0.161"/>
      <feComposite operator="in" in2="blur"/>
      <feComposite in="SourceGraphic"/>
    </filter>
  </defs>
  <g id="Grupo_1227872" data-name="Grupo 1227872" transform="translate(-171 -4344)">
    <g id="Grupo_1226974" data-name="Grupo 1226974" transform="translate(0 -1284)">
      <g id="Grupo_1225491" data-name="Grupo 1225491" transform="translate(0 2547)">
        <g id="Grupo_1225104" data-name="Grupo 1225104" transform="translate(0 2068)">
          <g id="Grupo_1220654" data-name="Grupo 1220654" transform="translate(180 1019)">
            <g id="Grupo_1176881" data-name="Grupo 1176881">
              <g id="Grupo_1175148" data-name="Grupo 1175148">
                <g id="Grupo_1173798" data-name="Grupo 1173798">
                  <g id="Grupo_1171925" data-name="Grupo 1171925">
                    <g id="Grupo_1164524" data-name="Grupo 1164524">
                      <g id="Grupo_1144123" data-name="Grupo 1144123">
                        <g transform="matrix(1, 0, 0, 1, -9, -6)" filter="url(#Trazado_978624)">
                          <g id="Trazado_978624-2" data-name="Trazado 978624" transform="translate(9 6)" fill="#e9f9fd">
                            <path d="M 42.5 83.5 C 36.96437835693359 83.5 31.59512901306152 82.41617584228516 26.54141235351562 80.27863311767578 C 21.65934181213379 78.21369171142578 17.27447128295898 75.25723266601562 13.50862312316895 71.49137878417969 C 9.742764472961426 67.72553253173828 6.786305904388428 63.34066009521484 4.721364498138428 58.45858764648438 C 2.583823442459106 53.40486907958984 1.5 48.03562164306641 1.5 42.5 C 1.5 36.96437835693359 2.583823442459106 31.59512901306152 4.721364498138428 26.54141235351562 C 6.786305904388428 21.65934181213379 9.742764472961426 17.27447128295898 13.50862312316895 13.50862312316895 C 17.27447128295898 9.742764472961426 21.65934181213379 6.786305904388428 26.54141235351562 4.721364498138428 C 31.59512901306152 2.583823442459106 36.96437835693359 1.5 42.5 1.5 C 48.03562164306641 1.5 53.40486907958984 2.583823442459106 58.45858764648438 4.721364498138428 C 63.34066009521484 6.786305904388428 67.72553253173828 9.742764472961426 71.49137878417969 13.50862312316895 C 75.25723266601562 17.27447128295898 78.21369171142578 21.65934181213379 80.27863311767578 26.54141235351562 C 82.41617584228516 31.59512901306152 83.5 36.96437835693359 83.5 42.5 C 83.5 48.03562164306641 82.41617584228516 53.40486907958984 80.27863311767578 58.45858764648438 C 78.21369171142578 63.34066009521484 75.25723266601562 67.72553253173828 71.49137878417969 71.49137878417969 C 67.72553253173828 75.25723266601562 63.34066009521484 78.21369171142578 58.45858764648438 80.27863311767578 C 53.40486907958984 82.41617584228516 48.03562164306641 83.5 42.5 83.5 Z" stroke="none"/>
                            <path d="M 42.5 3 C 37.16621398925781 3 31.99356079101562 4.043960571289062 27.125732421875 6.102882385253906 C 22.42246627807617 8.092185974121094 18.19785308837891 10.94070434570312 14.56928253173828 14.56928253173828 C 10.94070434570312 18.19785308837891 8.092185974121094 22.42246627807617 6.102882385253906 27.125732421875 C 4.043960571289062 31.99356079101562 3 37.16621398925781 3 42.5 C 3 47.83378601074219 4.043960571289062 53.00643920898438 6.102882385253906 57.87425231933594 C 8.092185974121094 62.57753372192383 10.94070434570312 66.80213165283203 14.56928253173828 70.43071746826172 C 18.19786834716797 74.05929565429688 22.42246627807617 76.90781402587891 27.125732421875 78.89711761474609 C 31.99356079101562 80.95603942871094 37.16621398925781 82 42.5 82 C 47.83378601074219 82 53.00642395019531 80.95603942871094 57.87425231933594 78.89711761474609 C 62.57753372192383 76.90781402587891 66.80213165283203 74.05929565429688 70.43071746826172 70.43071746826172 C 74.05929565429688 66.80213165283203 76.90781402587891 62.57753372192383 78.89711761474609 57.87425231933594 C 80.95603942871094 53.00642395019531 82 47.83378601074219 82 42.5 C 82 37.16621398925781 80.95603942871094 31.99356079101562 78.89711761474609 27.125732421875 C 76.90781402587891 22.42246627807617 74.05929565429688 18.19786834716797 70.43071746826172 14.56928253173828 C 66.80213165283203 10.94070434570312 62.57753372192383 8.092185974121094 57.87425231933594 6.102882385253906 C 53.00643920898438 4.043960571289062 47.83378601074219 3 42.5 3 M 42.5 0 C 65.97209167480469 0 85 19.02789306640625 85 42.5 C 85 65.97209167480469 65.97209167480469 85 42.5 85 C 19.02789306640625 85 0 65.97209167480469 0 42.5 C 0 19.02789306640625 19.02789306640625 0 42.5 0 Z" stroke="none" fill="#36ceef"/>
                          </g>
                        </g>
                      </g>
                    </g>
                  </g>
                </g>
              </g>
            </g>
          </g>
        </g>
      </g>
    </g>
    <g id="carpeta" transform="translate(196.595 4358.075)">
      <g id="Grupo_1227862" data-name="Grupo 1227862" transform="translate(0.759 10.239)">
        <g id="Grupo_1227852" data-name="Grupo 1227852" transform="translate(0 6.69)">
          <path id="Trazado_1183417" data-name="Trazado 1183417" d="M35.433,83.735,32.239,87.4a1.854,1.854,0,0,1-1.4.637H9.354A1.854,1.854,0,0,0,7.5,89.893v29.992a3.585,3.585,0,0,0,3.585,3.585H49.94V84.952A1.854,1.854,0,0,0,48.085,83.1H36.831a1.855,1.855,0,0,0-1.4.637Z" transform="translate(-7.5 -83.098)" fill="#fca62f"/>
          <path id="Trazado_1183418" data-name="Trazado 1183418" d="M68.158,124.1v6l-8.471,14.672a1.411,1.411,0,0,1-1.926.516L28.474,128.373a1.41,1.41,0,0,1-.516-1.927l5.907-10.231H49.059a1.853,1.853,0,0,0,1.4-.637l.986-1.131Z" transform="translate(-25.718 -111.275)" fill="#f98824"/>
          <path id="Trazado_1183419" data-name="Trazado 1183419" d="M374.608,84.95v38.518h-4.033V84.95a1.855,1.855,0,0,0-1.854-1.854h4.033A1.855,1.855,0,0,1,374.608,84.95Z" transform="translate(-332.168 -83.096)" fill="#f98824"/>
          <g id="Grupo_1227851" data-name="Grupo 1227851" transform="translate(29.675 3.644)">
            <path id="Trazado_1183420" data-name="Trazado 1183420" d="M308.99,123.284h-7.154a1.085,1.085,0,0,1-1.085-1.085v-2.007a1.085,1.085,0,0,1,1.085-1.085h7.154a1.085,1.085,0,0,1,1.085,1.085V122.2A1.085,1.085,0,0,1,308.99,123.284Z" transform="translate(-300.75 -119.106)" fill="#a8e7ef"/>
            <path id="Trazado_1183421" data-name="Trazado 1183421" d="M361.373,120.192V122.2a1.085,1.085,0,0,1-1.085,1.086h-2.465a1.085,1.085,0,0,0,1.085-1.086v-2.007a1.085,1.085,0,0,0-1.085-1.085h2.465A1.085,1.085,0,0,1,361.373,120.192Z" transform="translate(-352.048 -119.107)" fill="#70d9e6"/>
          </g>
        </g>
        <g id="Grupo_1227861" data-name="Grupo 1227861" transform="translate(2.67)">
          <g id="Grupo_1227859" data-name="Grupo 1227859">
            <g id="Grupo_1227858" data-name="Grupo 1227858">
              <path id="Trazado_1183422" data-name="Trazado 1183422" d="M75.654,34.086,46.367,17.177a1.41,1.41,0,0,0-1.926.516L34.079,35.641a1.41,1.41,0,0,0,.516,1.926L63.882,54.476a1.41,1.41,0,0,0,1.926-.516L76.17,36.012a1.41,1.41,0,0,0-.516-1.926Z" transform="translate(-33.89 -16.988)" fill="#27e19d"/>
              <path id="Trazado_1183423" data-name="Trazado 1183423" d="M306.794,191.156l10.362-17.947a1.409,1.409,0,0,0-.516-1.926l-2.861-1.652a1.409,1.409,0,0,1,.516,1.926L303.933,189.5a1.409,1.409,0,0,1-1.926.516l2.861,1.652A1.409,1.409,0,0,0,306.794,191.156Z" transform="translate(-274.876 -154.185)" fill="#26d192"/>
              <g id="Grupo_1227853" data-name="Grupo 1227853" transform="translate(3.336 3.337)">
                <path id="Trazado_1183424" data-name="Trazado 1183424" d="M0,0H17.9V31H0Z" transform="matrix(0.5, -0.866, 0.866, 0.5, 0, 15.505)" fill="#cffbe8"/>
                <path id="Trazado_1183425" data-name="Trazado 1183425" d="M0,0H17.9V2.735H0Z" transform="matrix(0.5, -0.866, 0.866, 0.5, 24.476, 29.636)" fill="#9ff7d3"/>
              </g>
              <g id="Grupo_1227854" data-name="Grupo 1227854" transform="translate(15.259 12.863)">
                <circle id="Elipse_12735" data-name="Elipse 12735" cx="5.976" cy="5.976" r="5.976" fill="#23f1a8"/>
                <path id="Trazado_1183426" data-name="Trazado 1183426" d="M209.808,154.311a5.981,5.981,0,0,0-3.877-8.823,5.71,5.71,0,0,1-5.7,9.879,5.981,5.981,0,0,0,9.578-1.056Z" transform="translate(-198.657 -145.348)" fill="#26d192"/>
              </g>
              <g id="Grupo_1227857" data-name="Grupo 1227857" transform="translate(9.874 11.394)">
                <g id="Grupo_1227855" data-name="Grupo 1227855" transform="translate(18.534 10.701)">
                  <circle id="Elipse_12736" data-name="Elipse 12736" cx="2.094" cy="2.094" r="2.094" fill="#fee265"/>
                  <path id="Trazado_1183427" data-name="Trazado 1183427" d="M321.684,238.521a2.093,2.093,0,0,0-.766-2.86,2.071,2.071,0,0,0-.907-.275,1.972,1.972,0,0,1-1.879,3.254,2.07,2.07,0,0,0,.692.648A2.093,2.093,0,0,0,321.684,238.521Z" transform="translate(-317.777 -235.381)" fill="#f8c52d"/>
                </g>
                <g id="Grupo_1227856" data-name="Grupo 1227856">
                  <circle id="Elipse_12737" data-name="Elipse 12737" cx="2.094" cy="2.094" r="2.094" fill="#fee265"/>
                  <path id="Trazado_1183428" data-name="Trazado 1183428" d="M138.526,132.775a2.093,2.093,0,0,0-.766-2.86,2.071,2.071,0,0,0-.907-.275,1.972,1.972,0,0,1-1.879,3.254,2.07,2.07,0,0,0,.692.648A2.093,2.093,0,0,0,138.526,132.775Z" transform="translate(-134.619 -129.635)" fill="#f8c52d"/>
                </g>
              </g>
            </g>
          </g>
          <g id="Grupo_1227860" data-name="Grupo 1227860" transform="translate(13.123 4.934)">
            <path id="Trazado_1183429" data-name="Trazado 1183429" d="M281.744,291.727l-2.057-1.188a.415.415,0,0,0-.568.152l-1.876,3.25,2.777,1.6,1.876-3.25A.415.415,0,0,0,281.744,291.727Z" transform="translate(-265.741 -267.741)" fill="#1eb07c"/>
            <path id="Trazado_1183430" data-name="Trazado 1183430" d="M163.786,69.562l2.057,1.188a.415.415,0,0,0,.567-.152l1.876-3.25-2.777-1.6-1.876,3.25A.415.415,0,0,0,163.786,69.562Z" transform="translate(-163.578 -65.745)" fill="#1eb07c"/>
          </g>
        </g>
      </g>
      <g id="Grupo_1227871" data-name="Grupo 1227871" transform="translate(0 9.479)">
        <g id="Grupo_1227867" data-name="Grupo 1227867" transform="translate(4.381 21.255)">
          <g id="Grupo_1227866" data-name="Grupo 1227866">
            <g id="Grupo_1227865" data-name="Grupo 1227865">
              <g id="Grupo_1227863" data-name="Grupo 1227863">
                <path id="Trazado_1183431" data-name="Trazado 1183431" d="M85.753,221.378v21.127a3.585,3.585,0,0,1-3.585,3.585H43.291a3.585,3.585,0,0,0,3.585-3.585V221.378a1.854,1.854,0,0,1,1.854-1.854H83.9A1.854,1.854,0,0,1,85.753,221.378Z" transform="translate(-43.291 -219.524)" fill="#ffd496"/>
              </g>
              <g id="Grupo_1227864" data-name="Grupo 1227864" transform="translate(35.244 0)">
                <path id="Trazado_1183432" data-name="Trazado 1183432" d="M398.8,221.381v21.126a3.586,3.586,0,0,1-3.586,3.586h-3.633a3.585,3.585,0,0,0,3.585-3.586V221.381a1.854,1.854,0,0,0-1.854-1.854h3.634A1.854,1.854,0,0,1,398.8,221.381Z" transform="translate(-391.579 -219.527)" fill="#fcc16d"/>
              </g>
            </g>
          </g>
        </g>
        <g id="Grupo_1227870" data-name="Grupo 1227870">
          <g id="Grupo_1227868" data-name="Grupo 1227868" transform="translate(32.054 30.135)">
            <circle id="Elipse_12738" data-name="Elipse 12738" cx="9.499" cy="9.499" r="9.499" fill="#fca62f"/>
            <path id="Trazado_1183433" data-name="Trazado 1183433" d="M394.8,316.783a9.507,9.507,0,0,1-12.35,9.064,9.076,9.076,0,0,0,0-18.13,9.508,9.508,0,0,1,12.345,9.066Z" transform="translate(-375.807 -307.284)" fill="#f98824"/>
          </g>
          <circle id="Elipse_12739" data-name="Elipse 12739" cx="6.634" cy="6.634" r="6.634" transform="translate(34.918 33)" fill="#fee265"/>
          <path id="Trazado_1183434" data-name="Trazado 1183434" d="M399.577,342.226a6.641,6.641,0,0,1-8.626,6.331,6.339,6.339,0,0,0,0-12.663,6.641,6.641,0,0,1,8.622,6.332Z" transform="translate(-351.39 -302.591)" fill="#fdd330"/>
          <g id="Grupo_1227869" data-name="Grupo 1227869">
            <path id="Trazado_1183435" data-name="Trazado 1183435" d="M128.235,122.462a2.853,2.853,0,1,0-1.431,5.324,2.868,2.868,0,0,0,.743-.1,2.853,2.853,0,0,0,.688-5.226Zm-.27,3.138a1.335,1.335,0,1,1-1.5-1.957,1.345,1.345,0,0,1,.348-.046,1.336,1.336,0,0,1,1.154,2Z" transform="translate(-111.411 -110.685)"/>
            <path id="Trazado_1183436" data-name="Trazado 1183436" d="M115.012,414.768h3.528a.759.759,0,0,0,0-1.518h-3.528a.759.759,0,0,0,0,1.518Z" transform="translate(-102.691 -372.391)"/>
            <path id="Trazado_1183437" data-name="Trazado 1183437" d="M125.016,438.16h-10a.759.759,0,0,0,0,1.518h10a.759.759,0,0,0,0-1.518Z" transform="translate(-102.691 -394.781)"/>
            <path id="Trazado_1183438" data-name="Trazado 1183438" d="M47.6,40.835V32.588A2.616,2.616,0,0,0,46.046,30.2l.321-.557a2.168,2.168,0,0,0-.794-2.963l-1.615-.932V18.784a2.617,2.617,0,0,0-2.614-2.614H30.091a2.612,2.612,0,0,0-1.673.606l-12.131-7a2.168,2.168,0,0,0-2.963.794L7.235,21.11H2.614A2.617,2.617,0,0,0,0,23.724V46.23a.759.759,0,0,0,1.518,0V23.724a1.1,1.1,0,0,1,1.1-1.1H6.359l-3.4,5.884a2.168,2.168,0,0,0,.794,2.963l3.452,1.993V53.715a2.83,2.83,0,0,1-2.826,2.826H4.344a2.829,2.829,0,0,1-2.826-2.826V49.6A.759.759,0,0,0,0,49.6v4.113a4.349,4.349,0,0,0,4.344,4.344H36.539A10.254,10.254,0,0,0,47.6,40.835ZM30.091,17.688H41.344a1.1,1.1,0,0,1,1.1,1.1v6.088L40.515,23.76c0-.031,0-.063,0-.095V21.658a1.846,1.846,0,0,0-1.844-1.844H33.68l-3.674-2.122c.028,0,.056,0,.085,0ZM39,22.885l-2.69-1.553h2.365a.326.326,0,0,1,.326.326v1.227ZM7.677,56.542a4.326,4.326,0,0,0,1.048-2.826V32.588a1.1,1.1,0,0,1,1.1-1.095H32.537a.759.759,0,0,0,0-1.518h-1.2a6.735,6.735,0,1,0-13.351,0H14.255a.756.756,0,0,0-.362-.5L10.452,27.49A.759.759,0,1,0,9.693,28.8l2.029,1.171H9.833L7.8,28.8,16,14.612l1.452.838-1.5,2.593a1.176,1.176,0,0,0,.43,1.6l2.057,1.188a1.168,1.168,0,0,0,.585.158,1.181,1.181,0,0,0,.306-.04,1.167,1.167,0,0,0,.713-.547l1.5-2.592,3.473,2.006a.759.759,0,1,0,.759-1.314L16.1,12.918a.759.759,0,0,0-1.037.278L6.108,28.7a.759.759,0,0,0,.278,1.037l1.644.949a2.617,2.617,0,0,0-.7,1.1L4.513,30.16a.65.65,0,0,1-.237-.889L14.638,11.324a.65.65,0,0,1,.889-.238L44.815,28a.65.65,0,0,1,.237.889l-.63,1.092h-1.5l.3-.522a.759.759,0,0,0-.278-1.037L28.692,20.19a.759.759,0,0,0-.759,1.314l13.593,7.848-.36.624H40.014a.758.758,0,0,0-.378-.625l-3.441-1.987a.759.759,0,0,0-.759,1.314l2.247,1.3H35.908a.759.759,0,0,0,0,1.518h9.08a1.1,1.1,0,0,1,1.1,1.095v7.324a10.254,10.254,0,0,0-11.6,16.629H7.677ZM20.146,26.469A5.217,5.217,0,0,1,29.8,29.975H26.387a2.041,2.041,0,0,0-.984-1.406l-.668-.385a.521.521,0,0,1-.26-.449.509.509,0,0,1,.07-.258.517.517,0,0,1,.705-.19l.669.387a.516.516,0,0,1,.255.511.759.759,0,1,0,1.506.188,2.029,2.029,0,0,0-.7-1.8l.053-.091a.759.759,0,1,0-1.314-.759l-.053.091A2.035,2.035,0,0,0,23.976,29.5l.668.385a.513.513,0,0,1,.114.092H23.2a.758.758,0,0,0-1.512,0H19.525A5.169,5.169,0,0,1,20.146,26.469Zm.079-9.415L18.9,19.349,17.438,18.5l1.325-2.295Zm21.328,40.8a8.74,8.74,0,1,1,8.74-8.74A8.75,8.75,0,0,1,41.553,57.853Z" transform="translate(0 -9.479)"/>
            <path id="Trazado_1183439" data-name="Trazado 1183439" d="M387.927,359.866h-.857a.658.658,0,1,1,0-1.316h.857a.658.658,0,0,1,.546.291.759.759,0,0,0,1.258-.85,2.174,2.174,0,0,0-1.473-.933v-.3a.759.759,0,1,0-1.518,0v.3a2.174,2.174,0,0,0,.33,4.324h.857a.658.658,0,0,1,0,1.316h-.857a.657.657,0,0,1-.607-.4.759.759,0,0,0-1.4.591,2.172,2.172,0,0,0,1.674,1.3v.186a.759.759,0,0,0,1.518,0v-.189a2.174,2.174,0,0,0-.33-4.324Z" transform="translate(-345.946 -320.935)"/>
            <path id="Trazado_1183440" data-name="Trazado 1183440" d="M344.96,328.089a7.393,7.393,0,1,0,7.393,7.393A7.4,7.4,0,0,0,344.96,328.089Zm0,13.269a5.876,5.876,0,1,1,5.876-5.876A5.882,5.882,0,0,1,344.96,341.358Z" transform="translate(-303.408 -295.848)"/>
          </g>
        </g>
      </g>
    </g>
  </g>
</svg>
