<svg xmlns="http://www.w3.org/2000/svg" xmlns:xlink="http://www.w3.org/1999/xlink" width="108" height="108" viewBox="0 0 108 108">
  <defs>
    <filter id="Trazado_904820" x="0" y="0" width="108" height="108" filterUnits="userSpaceOnUse">
      <feOffset dy="3" input="SourceAlpha"/>
      <feGaussianBlur stdDeviation="3" result="blur"/>
      <feFlood flood-opacity="0.161"/>
      <feComposite operator="in" in2="blur"/>
      <feComposite in="SourceGraphic"/>
    </filter>
  </defs>
  <g id="Grupo_1227960" data-name="Grupo 1227960" transform="translate(-619.441 -5548.557)">
    <g id="Grupo_1227037" data-name="Grupo 1227037" transform="translate(628.441 5554.557)">
      <g id="Grupo_1225500" data-name="Grupo 1225500" transform="translate(0 0)">
        <g id="Grupo_1220078" data-name="Grupo 1220078">
          <g id="Grupo_1219746" data-name="Grupo 1219746">
            <g id="Grupo_1202418" data-name="Grupo 1202418">
              <g id="Grupo_1177315" data-name="Grupo 1177315" transform="translate(0 0)">
                <g id="Grupo_1173585" data-name="Grupo 1173585" transform="translate(0 0)">
                  <g id="Grupo_1173428" data-name="Grupo 1173428" transform="translate(0 0)">
                    <g id="Grupo_1171958" data-name="Grupo 1171958">
                      <g id="Grupo_1167341" data-name="Grupo 1167341">
                        <g id="Grupo_1166792" data-name="Grupo 1166792">
                          <g transform="matrix(1, 0, 0, 1, -9, -6)" filter="url(#Trazado_904820)">
                            <g id="Trazado_904820-2" data-name="Trazado 904820" transform="translate(9 6)" fill="#f2f7e5">
                              <path d="M 44.99996948242188 88.49999237060547 C 39.12684631347656 88.49999237060547 33.43020629882812 87.35006713867188 28.06828117370605 85.08216857910156 C 22.88850784301758 82.89130401611328 18.23629379272461 79.75457763671875 14.2408447265625 75.75914001464844 C 10.24540710449219 71.76369476318359 7.108694553375244 67.11146545410156 4.917831897735596 61.93169403076172 C 2.649931907653809 56.56976699829102 1.500007033348083 50.87311553955078 1.500007033348083 44.99999237060547 C 1.500007033348083 39.12686920166016 2.649931907653809 33.43021774291992 4.917831897735596 28.06829261779785 C 7.108694553375244 22.88851737976074 10.24540710449219 18.23630523681641 14.2408447265625 14.24085521697998 C 18.23629379272461 10.24540519714355 22.88850784301758 7.108692169189453 28.06828117370605 4.917829990386963 C 33.43020629882812 2.649929761886597 39.12684631347656 1.500004887580872 44.99996948242188 1.500004887580872 C 50.87309265136719 1.500004887580872 56.56973266601562 2.649929761886597 61.93165588378906 4.917829990386963 C 67.11143493652344 7.108692169189453 71.76365661621094 10.24540519714355 75.75909423828125 14.24085521697998 C 79.75454711914062 18.23630523681641 82.89125823974609 22.88851737976074 85.08212280273438 28.06829261779785 C 87.35002136230469 33.43021774291992 88.49994659423828 39.12686920166016 88.49994659423828 44.99999237060547 C 88.49994659423828 50.87311553955078 87.35002136230469 56.56976699829102 85.08212280273438 61.93169403076172 C 82.89125823974609 67.11146545410156 79.75454711914062 71.76369476318359 75.75909423828125 75.75914001464844 C 71.76364135742188 79.75457763671875 67.11143493652344 82.89130401611328 61.93165588378906 85.08216857910156 C 56.56973266601562 87.35006713867188 50.87309265136719 88.49999237060547 44.99996948242188 88.49999237060547 Z" stroke="none"/>
                              <path d="M 44.99996948242188 2.999992370605469 C 39.32868194580078 2.999992370605469 33.82863998413086 4.11004638671875 28.65261077880859 6.299331665039062 C 23.65164184570312 8.414566040039062 19.15968322753906 11.44333648681641 15.30149841308594 15.30150604248047 C 11.44332885742188 19.15967559814453 8.414566040039062 23.65164947509766 6.299324035644531 28.65262222290039 C 4.110054016113281 33.82864761352539 3 39.32870483398438 3 44.99999237060547 C 3 50.67127990722656 4.110054016113281 56.17132186889648 6.299324035644531 61.34736633300781 C 8.414566040039062 66.34833526611328 11.44332885742188 70.84029388427734 15.30149841308594 74.69846343994141 C 19.15968322753906 78.55663299560547 23.65164184570312 81.58540344238281 28.65261077880859 83.70063781738281 C 33.82863998413086 85.88992309570312 39.32868194580078 86.99997711181641 44.99996948242188 86.99997711181641 C 50.67125701904297 86.99997711181641 56.17129898071289 85.88992309570312 61.34732818603516 83.70063781738281 C 66.34829711914062 81.58540344238281 70.84025573730469 78.55663299560547 74.69844055175781 74.69846343994141 C 78.55661010742188 70.84029388427734 81.58537292480469 66.34833526611328 83.70061492919922 61.34736633300781 C 85.88988494873047 56.17132186889648 86.99993896484375 50.67127990722656 86.99993896484375 44.99999237060547 C 86.99993896484375 39.32870483398438 85.88988494873047 33.82864761352539 83.70061492919922 28.65262222290039 C 81.58537292480469 23.65164947509766 78.55661010742188 19.15967559814453 74.69844055175781 15.30150604248047 C 70.84025573730469 11.44333648681641 66.34829711914062 8.414566040039062 61.34732818603516 6.299331665039062 C 56.17129898071289 4.11004638671875 50.67125701904297 2.999992370605469 44.99996948242188 2.999992370605469 M 44.99996948242188 -7.62939453125e-06 C 69.85276794433594 -7.62939453125e-06 89.99993896484375 20.14717864990234 89.99993896484375 44.99999237060547 C 89.99993896484375 69.85279083251953 69.85276794433594 89.99997711181641 44.99996948242188 89.99997711181641 C 20.14717102050781 89.99997711181641 0 69.85279083251953 0 44.99999237060547 C 0 20.14717864990234 20.14717102050781 -7.62939453125e-06 44.99996948242188 -7.62939453125e-06 Z" stroke="none" fill="#496406"/>
                            </g>
                          </g>
                        </g>
                      </g>
                    </g>
                  </g>
                </g>
              </g>
            </g>
          </g>
        </g>
      </g>
    </g>
    <g id="economia-circular" transform="translate(644.009 5570.124)">
      <g id="Grupo_1227958" data-name="Grupo 1227958" transform="translate(0.862 0.862)">
        <path id="Trazado_1183711" data-name="Trazado 1183711" d="M196.949,260.568l-7.258-5.638a1.986,1.986,0,0,1,0-2.425l7.258-5.638A14.869,14.869,0,0,0,211.818,232l5.638-3.118a1.989,1.989,0,0,0,2.425,0L225.519,232A28.571,28.571,0,0,1,196.949,260.568Z" transform="translate(-168.378 -203.427)" fill="#fe5694"/>
        <path id="Trazado_1183712" data-name="Trazado 1183712" d="M36.07,7.5l7.258,5.638a1.986,1.986,0,0,1,0,2.425L36.07,21.2A14.869,14.869,0,0,0,21.2,36.07l-5.638,3.118a1.989,1.989,0,0,0-2.425,0L7.5,36.07A28.571,28.571,0,0,1,36.07,7.5Z" transform="translate(-7.5 -7.5)" fill="#0ed2b3"/>
        <path id="Trazado_1183713" data-name="Trazado 1183713" d="M284.571,36.068l-5.638,4.341a1.986,1.986,0,0,1-2.425,0l-5.638-4.341A14.869,14.869,0,0,0,256,21.2l4.341-5.638a1.989,1.989,0,0,0,0-2.425L256,7.5a28.571,28.571,0,0,1,28.57,28.57Z" transform="translate(-227.43 -7.498)" fill="#60b7ff"/>
        <path id="Trazado_1183714" data-name="Trazado 1183714" d="M7.5,219.4l5.638-4.341a1.986,1.986,0,0,1,2.425,0L21.2,219.4a14.869,14.869,0,0,0,14.869,14.869l-4.341,5.638a1.989,1.989,0,0,0,0,2.425l4.341,5.638A28.571,28.571,0,0,1,7.5,219.4Z" transform="translate(-7.501 -190.831)" fill="#fee45a"/>
        <path id="Trazado_1183715" data-name="Trazado 1183715" d="M291.395,259a14.877,14.877,0,0,1-14.567,11.872,15.04,15.04,0,0,1-2.148-.154A14.871,14.871,0,0,0,287.4,256Z" transform="translate(-243.962 -227.428)" fill="#fd3581"/>
        <path id="Trazado_1183716" data-name="Trazado 1183716" d="M291.7,141.539a14.939,14.939,0,0,1-.316,3.064l-3.979-3.064a14.871,14.871,0,0,0-12.721-14.715,15.039,15.039,0,0,1,2.148-.154A14.869,14.869,0,0,1,291.7,141.539Z" transform="translate(-243.962 -112.969)" fill="#26a6fe"/>
        <path id="Trazado_1183717" data-name="Trazado 1183717" d="M7.5,36.07A28.571,28.571,0,0,1,36.07,7.5l.348.271A28.585,28.585,0,0,0,12.005,32.6Z" transform="translate(-7.5 -7.5)" fill="#0ab69f"/>
        <path id="Trazado_1183718" data-name="Trazado 1183718" d="M36.07,257.859A28.571,28.571,0,0,1,7.5,229.289l4.506-3.47a28.8,28.8,0,0,0-.209,3.47A28.582,28.582,0,0,0,35.79,257.495Z" transform="translate(-7.5 -200.718)" fill="#ffd15b"/>
        <g id="Grupo_1227953" data-name="Grupo 1227953" transform="translate(41.917 41.274)">
          <circle id="Elipse_12745" data-name="Elipse 12745" cx="4.718" cy="4.718" r="4.718" transform="translate(0 0.001)" fill="#ffdfcf"/>
          <path id="Trazado_1183719" data-name="Trazado 1183719" d="M378.263,375.692a4.718,4.718,0,1,1,0-8.974,4.719,4.719,0,0,0,0,8.974Z" transform="translate(-372.084 -366.487)" fill="#ffcebf"/>
          <path id="Trazado_1183720" data-name="Trazado 1183720" d="M375.013,453.279A1.182,1.182,0,0,1,373.9,451.7a4.72,4.72,0,0,1,8.9,0,1.182,1.182,0,0,1-1.113,1.576Z" transform="translate(-373.63 -439.125)" fill="#7a6d79"/>
          <path id="Trazado_1183721" data-name="Trazado 1183721" d="M376.82,451.7a1.182,1.182,0,0,0,1.113,1.576h-2.921A1.182,1.182,0,0,1,373.9,451.7a4.721,4.721,0,0,1,5.908-2.911A4.728,4.728,0,0,0,376.82,451.7Z" transform="translate(-373.629 -439.122)" fill="#685e68"/>
        </g>
        <g id="Grupo_1227954" data-name="Grupo 1227954" transform="translate(4.195 42.876)">
          <path id="Trazado_1183722" data-name="Trazado 1183722" d="M70.668,396.468v8.1a1.857,1.857,0,0,1-1.857,1.857H63.176a1.857,1.857,0,0,1-1.856-1.857v-8.1l4.674-1.656Z" transform="translate(-59.327 -393.157)" fill="#c8effe"/>
          <path id="Trazado_1183723" data-name="Trazado 1183723" d="M70.668,396.468v2.586H61.32v-2.586l4.674-1.656Z" transform="translate(-59.327 -393.157)" fill="#99e6fc"/>
          <path id="Trazado_1183724" data-name="Trazado 1183724" d="M66,406.42H63.177a1.857,1.857,0,0,1-1.857-1.857v-8.1l4.675-1.656,1.41.5-3.265,1.157v8.1A1.857,1.857,0,0,0,66,406.42Z" transform="translate(-59.327 -393.157)" fill="#99e6fc"/>
          <path id="Trazado_1183725" data-name="Trazado 1183725" d="M55.662,380.42H45.638a1.655,1.655,0,1,0,0,3.31H55.662a1.655,1.655,0,1,0,0-3.31Z" transform="translate(-43.983 -380.42)" fill="#c8effe"/>
          <path id="Trazado_1183726" data-name="Trazado 1183726" d="M48.235,383.251a1.646,1.646,0,0,0,1.17.485H45.64a1.655,1.655,0,1,1,0-3.31H49.4a1.654,1.654,0,0,0-1.17,2.825Z" transform="translate(-43.984 -380.425)" fill="#99e6fc"/>
        </g>
        <path id="Trazado_1183727" data-name="Trazado 1183727" d="M180.916,202.714a9.785,9.785,0,0,0,2.856-6.143l-1.484.641a.849.849,0,0,1-1.179-.878l.856-7.328a.849.849,0,0,1,1.349-.582l5.919,4.4a.849.849,0,0,1-.17,1.46l-1.825.788a13.287,13.287,0,0,1-.433,4.131l-2.3,3.507h-3.584Z" transform="translate(-160.978 -167.473)" fill="#fd3581"/>
        <g id="Grupo_1227956" data-name="Grupo 1227956" transform="translate(39.56 2.716)">
          <path id="Trazado_1183728" data-name="Trazado 1183728" d="M403.089,56.267c.11.3,2.087.549,2.374.692l1.727.866a.9.9,0,0,1,.5.805V62.52a.969.969,0,0,1-.968.969h-7.108L396.87,59.3l1.586-3.844" transform="translate(-391.664 -52.659)" fill="#c8effe"/>
          <path id="Trazado_1183729" data-name="Trazado 1183729" d="M412.911,35.422h-7.626l1.774-4.3h3.282a.9.9,0,0,1,.847.591l1.1,3.017a1.251,1.251,0,0,0,.617.692Z" transform="translate(-399.111 -31.122)" fill="#685e68"/>
          <path id="Trazado_1183730" data-name="Trazado 1183730" d="M359.536,31.12V41.95h-6.978a.97.97,0,0,1-.969-.969V32.09a.97.97,0,0,1,.969-.97Z" transform="translate(-351.588 -31.12)" fill="#fe5694"/>
          <path id="Trazado_1183731" data-name="Trazado 1183731" d="M355.225,41.951h-2.667a.97.97,0,0,1-.969-.97V32.09a.97.97,0,0,1,.969-.969h2.667a.97.97,0,0,0-.969.969v8.891A.97.97,0,0,0,355.225,41.951Z" transform="translate(-351.588 -31.121)" fill="#fd3581"/>
          <g id="Grupo_1227955" data-name="Grupo 1227955" transform="translate(1.908 8.786)">
            <circle id="Elipse_12746" data-name="Elipse 12746" cx="2.044" cy="2.044" r="2.044" fill="#685e68"/>
            <circle id="Elipse_12747" data-name="Elipse 12747" cx="2.044" cy="2.044" r="2.044" transform="translate(8.12)" fill="#685e68"/>
          </g>
        </g>
        <g id="Grupo_1227957" data-name="Grupo 1227957" transform="translate(1.738 1.23)">
          <path id="Trazado_1183732" data-name="Trazado 1183732" d="M35.272,18.393a.943.943,0,0,0-1.521.746v2.385l-4.046-3.131a.943.943,0,0,0-1.521.746v2.385l-4.046-3.131a.943.943,0,0,0-1.521.746v9.909A1.092,1.092,0,0,0,23.71,30.14H38.227a1.092,1.092,0,0,0,1.092-1.092V22.54a2.069,2.069,0,0,0-.8-1.636Z" transform="translate(-22.618 -18.194)" fill="#efedef"/>
          <path id="Trazado_1183733" data-name="Trazado 1183733" d="M27.357,30.146H23.712a1.091,1.091,0,0,1-1.091-1.091v-9.91a.944.944,0,0,1,1.521-.745l2.122,1.642v9.013A1.092,1.092,0,0,0,27.357,30.146Z" transform="translate(-22.621 -18.2)" fill="#dedbee"/>
        </g>
        <path id="Trazado_1183734" data-name="Trazado 1183734" d="M193.759,266.17l-4.4-5.919a.849.849,0,0,0-1.46.17l-.788,1.825a13.206,13.206,0,0,0-10.077,3.883,1.725,1.725,0,0,0,2.439,2.439,9.785,9.785,0,0,1,6.143-2.856l-.641,1.484a.849.849,0,0,0,.878,1.179l7.328-.856A.849.849,0,0,0,193.759,266.17Z" transform="translate(-157.091 -230.889)" fill="#fe5694"/>
      </g>
      <g id="Grupo_1227959" data-name="Grupo 1227959" transform="translate(0 0)">
        <path id="Trazado_1183735" data-name="Trazado 1183735" d="M50.471,51.572a5.579,5.579,0,0,0,2.6-4.609,29.446,29.446,0,0,0,2.184-31.657l.012-.035h.207a1.834,1.834,0,0,0,1.832-1.833V9.55a1.755,1.755,0,0,0-.974-1.577l-1.726-.866a.4.4,0,0,1-.195-.218L53.309,3.874a1.767,1.767,0,0,0-1.657-1.159H41.791a29.479,29.479,0,0,0-24.63-.04L15.783,1.609a1.806,1.806,0,0,0-2.911,1.428v.628L10.216,1.609A1.806,1.806,0,0,0,7.3,3.037v.628L4.649,1.609A1.806,1.806,0,0,0,1.738,3.037v9.909A1.956,1.956,0,0,0,3.692,14.9h.142A29.312,29.312,0,0,0,2.29,18.034a.862.862,0,1,0,1.59.668,27.66,27.66,0,0,1,1.958-3.8H18.209a1.956,1.956,0,0,0,1.954-1.954V6.437a2.951,2.951,0,0,0-1.137-2.318l-.314-.243a27.425,27.425,0,0,1,10.3-2.146l4.078,5.3a1.126,1.126,0,0,1,0,1.373L29,13.707A15.755,15.755,0,0,0,13.791,27.75l-4.34-3.342a2.852,2.852,0,0,0-3.477,0L1.782,27.636a27.672,27.672,0,0,1,.848-5.253.862.862,0,0,0-1.668-.438A29.51,29.51,0,0,0,4.284,44.73a2.516,2.516,0,0,0,1.9,3.125v7.288a2.722,2.722,0,0,0,2.719,2.719h5.636a2.723,2.723,0,0,0,2.526-1.715,29.1,29.1,0,0,0,12.365,2.718,29.491,29.491,0,0,0,12.854-2.95,2.036,2.036,0,0,0,1.876,1.237h.909a.862.862,0,1,0,0-1.725h-.909a.319.319,0,0,1-.3-.426,3.863,3.863,0,0,1,3.631-2.568H47.5A3.865,3.865,0,0,1,51.133,55a.32.32,0,0,1-.3.426H49.1a.862.862,0,1,0,0,1.725h1.736a2.045,2.045,0,0,0,1.927-2.727,5.581,5.581,0,0,0-2.287-2.853ZM18.438,12.946a.23.23,0,0,1-.229.229H3.692a.23.23,0,0,1-.229-.229V3.037a.072.072,0,0,1,.045-.073.089.089,0,0,1,.039-.01.073.073,0,0,1,.047.019L7.639,6.1a.862.862,0,0,0,1.39-.682V3.037a.081.081,0,0,1,.131-.064L13.206,6.1a.862.862,0,0,0,1.39-.682V3.037a.081.081,0,0,1,.131-.064l3.243,2.51a1.215,1.215,0,0,1,.468.954ZM47.5,50.709h-.012a3.855,3.855,0,1,1,.012,0Zm4.992-35.12a1.182,1.182,0,1,1,1.182-1.182,1.183,1.183,0,0,1-1.182,1.182Zm3.067-6.075a.039.039,0,0,1,.022.035v3.888a.108.108,0,0,1-.107.108h-.207a2.907,2.907,0,0,0-5.552,0h-.487V8.74h4.786ZM51.689,4.466l.935,2.55H49.233V4.44h2.42a.04.04,0,0,1,.037.025ZM34.457,9.451a2.852,2.852,0,0,0,0-3.477L31.23,1.784a27.356,27.356,0,0,1,8.533,1.931,1.817,1.817,0,0,0-.2.832V6.981a.862.862,0,0,0,1.725,0V4.547a.107.107,0,0,1,.107-.107h6.116v9.105H47.15a2.907,2.907,0,0,0-5.551,0h-.206a.108.108,0,0,1-.107-.108V11a.862.862,0,1,0-1.725,0v2.433a1.834,1.834,0,0,0,1.832,1.833H41.6a2.907,2.907,0,0,0,5.551,0h2.569a2.9,2.9,0,0,0,4.391,1.552,27.735,27.735,0,0,1,3.028,12.189l-5.3,4.08a1.126,1.126,0,0,1-1.373,0L45.159,29A15.755,15.755,0,0,0,31.116,13.791Zm11.1,4.956a1.182,1.182,0,1,1-1.182-1.182A1.183,1.183,0,0,1,45.556,14.407ZM29.433,15.426A14.007,14.007,0,1,1,15.426,29.433,14.023,14.023,0,0,1,29.433,15.426ZM7.026,25.775a1.126,1.126,0,0,1,1.373,0l5.308,4.087A15.755,15.755,0,0,0,27.75,45.074l-3.342,4.34a2.852,2.852,0,0,0,0,3.477l3.228,4.192a27.3,27.3,0,0,1-10.375-2.755V47.855a2.517,2.517,0,0,0-.525-4.979h-.945v-.963a1.93,1.93,0,0,0-1.927-1.927H9.584a1.93,1.93,0,0,0-1.927,1.927v.963H6.712a2.5,2.5,0,0,0-1.306.366A27.637,27.637,0,0,1,1.728,29.854Zm7.041,17.1H9.381v-.963a.2.2,0,0,1,.2-.2h4.28a.2.2,0,0,1,.2.2v.963ZM5.919,45.393a.794.794,0,0,1,.793-.793H16.736a.793.793,0,1,1,0,1.586H6.712a.794.794,0,0,1-.793-.793Zm9.617,9.75a1,1,0,0,1-.994.994H8.906a1,1,0,0,1-.994-.994V47.91h7.625v7.232Zm26.922-1.25a27.726,27.726,0,0,1-12.6,3.245l-4.08-5.3a1.126,1.126,0,0,1,0-1.373l4.087-5.308A15.755,15.755,0,0,0,45.074,31.116l4.34,3.342a2.852,2.852,0,0,0,3.477,0l4.192-3.228a27.374,27.374,0,0,1-4.474,13.392,5.579,5.579,0,1,0-8.087,6.95,5.581,5.581,0,0,0-2.064,2.321Z" transform="translate(0 0)"/>
        <path id="Trazado_1183736" data-name="Trazado 1183736" d="M51.552,62.647H40.3a.862.862,0,0,0,0,1.725H51.552a.862.862,0,0,0,0-1.725Z" transform="translate(-34.906 -55.444)"/>
        <path id="Trazado_1183737" data-name="Trazado 1183737" d="M51.552,87.7H40.3a.862.862,0,0,0,0,1.725H51.552a.862.862,0,1,0,0-1.725Z" transform="translate(-34.906 -77.615)"/>
        <path id="Trazado_1183738" data-name="Trazado 1183738" d="M171.62,199.871a2.569,2.569,0,0,0,1.829-.758,9.013,9.013,0,0,1,4.114-2.355l-.014.031a1.711,1.711,0,0,0,1.769,2.377l7.328-.856a1.711,1.711,0,0,0,1.174-2.721l-4.4-5.919a1.711,1.711,0,0,0-2.944.344l-.555,1.287a14.254,14.254,0,0,0-2.517.2,14.157,14.157,0,0,0,.2-2.512l1.287-.556a1.711,1.711,0,0,0,.343-2.943l-5.919-4.4a1.711,1.711,0,0,0-2.721,1.174l-.856,7.328a1.711,1.711,0,0,0,2.377,1.769l.032-.014a9.012,9.012,0,0,1-2.355,4.115,2.587,2.587,0,0,0,1.829,4.416Zm15.51-3.766-.69.517v0Zm-6.7-3.062a.861.861,0,0,0,.836-.52l.778-1.8,4.376,5.881-7.281.85.631-1.462a.862.862,0,0,0-.862-1.2,10.7,10.7,0,0,0-6.682,3.106.862.862,0,0,1-1.219-1.22,12.27,12.27,0,0,1,8.76-3.649Q180.1,193.026,180.434,193.043Zm-8.98-3.282.85-7.281,5.881,4.376-1.8.778a.862.862,0,0,0-.52.836,12.438,12.438,0,0,1-.307,3.47,13.806,13.806,0,0,0-2.048.826,10.594,10.594,0,0,0,.611-2.774.862.862,0,0,0-1.2-.862Z" transform="translate(-149.601 -159.962)"/>
      </g>
    </g>
  </g>
</svg>
