<svg xmlns="http://www.w3.org/2000/svg" xmlns:xlink="http://www.w3.org/1999/xlink" width="108" height="108" viewBox="0 0 108 108">
  <defs>
    <filter id="Trazado_904820" x="0" y="0" width="108" height="108" filterUnits="userSpaceOnUse">
      <feOffset dy="3" input="SourceAlpha"/>
      <feGaussianBlur stdDeviation="3" result="blur"/>
      <feFlood flood-opacity="0.161"/>
      <feComposite operator="in" in2="blur"/>
      <feComposite in="SourceGraphic"/>
    </filter>
  </defs>
  <g id="Grupo_1227694" data-name="Grupo 1227694" transform="translate(-199.5 -474)">
    <g id="Grupo_1226929" data-name="Grupo 1226929" transform="translate(208.5 480)">
      <g id="Grupo_1225500" data-name="Grupo 1225500">
        <g id="Grupo_1220078" data-name="Grupo 1220078">
          <g id="Grupo_1219746" data-name="Grupo 1219746">
            <g id="Grupo_1202418" data-name="Grupo 1202418">
              <g id="Grupo_1177315" data-name="Grupo 1177315">
                <g id="Grupo_1173585" data-name="Grupo 1173585">
                  <g id="Grupo_1173428" data-name="Grupo 1173428" transform="translate(0 0)">
                    <g id="Grupo_1171958" data-name="Grupo 1171958">
                      <g id="Grupo_1167341" data-name="Grupo 1167341">
                        <g id="Grupo_1166792" data-name="Grupo 1166792">
                          <g transform="matrix(1, 0, 0, 1, -9, -6)" filter="url(#Trazado_904820)">
                            <g id="Trazado_904820-2" data-name="Trazado 904820" transform="translate(9 6)" fill="#fff4e6">
                              <path d="M 44.99999618530273 88.49999237060547 C 39.12687301635742 88.49999237060547 33.43022155761719 87.35006713867188 28.06829643249512 85.08216857910156 C 22.88852119445801 82.89130401611328 18.23629570007324 79.75457763671875 14.24084663391113 75.75914001464844 C 10.24540901184082 71.76369476318359 7.108683586120605 67.11146545410156 4.917821407318115 61.93169403076172 C 2.649921178817749 56.56976699829102 1.499996185302734 50.87311553955078 1.499996185302734 44.99999237060547 C 1.499996185302734 39.12686920166016 2.649921178817749 33.43021774291992 4.917821407318115 28.06829261779785 C 7.108683586120605 22.88851737976074 10.24540901184082 18.23630523681641 14.24084663391113 14.24085521697998 C 18.23629570007324 10.24540519714355 22.88852119445801 7.108692169189453 28.06829643249512 4.917829990386963 C 33.43022155761719 2.649929761886597 39.12687301635742 1.500004887580872 44.99999618530273 1.500004887580872 C 50.87311935424805 1.500004887580872 56.56977081298828 2.649929761886597 61.93169784545898 4.917829990386963 C 67.11147308349609 7.108692169189453 71.76369476318359 10.24540519714355 75.75914764404297 14.24085521697998 C 79.75458526611328 18.23630523681641 82.89131164550781 22.88851737976074 85.08216857910156 28.06829261779785 C 87.35007476806641 33.43021774291992 88.5 39.12686920166016 88.5 44.99999237060547 C 88.5 50.87311553955078 87.35007476806641 56.56976699829102 85.08216857910156 61.93169403076172 C 82.89131164550781 67.11146545410156 79.75458526611328 71.76369476318359 75.75914764404297 75.75914001464844 C 71.76369476318359 79.75457763671875 67.11147308349609 82.89130401611328 61.93169784545898 85.08216857910156 C 56.56977081298828 87.35006713867188 50.87311935424805 88.49999237060547 44.99999618530273 88.49999237060547 Z" stroke="none"/>
                              <path d="M 44.99999618530273 2.999992370605469 C 39.32870864868164 2.999992370605469 33.82865142822266 4.11004638671875 28.65262603759766 6.299331665039062 C 23.65165710449219 8.414566040039062 19.15968322753906 11.44333648681641 15.301513671875 15.30150604248047 C 11.44333648681641 19.15967559814453 8.414566040039062 23.65164947509766 6.299339294433594 28.65262222290039 C 4.110054016113281 33.82864761352539 2.999992370605469 39.32870483398438 2.999992370605469 44.99999237060547 C 2.999992370605469 50.67127990722656 4.110054016113281 56.17132186889648 6.299339294433594 61.34736633300781 C 8.414566040039062 66.34833526611328 11.44333648681641 70.84029388427734 15.301513671875 74.69846343994141 C 19.15968322753906 78.55663299560547 23.65165710449219 81.58540344238281 28.65262603759766 83.70063781738281 C 33.82865142822266 85.88992309570312 39.32870864868164 86.99997711181641 44.99999618530273 86.99997711181641 C 50.67128372192383 86.99997711181641 56.17134094238281 85.88992309570312 61.34736633300781 83.70063781738281 C 66.34834289550781 81.58540344238281 70.84030914306641 78.55663299560547 74.69847869873047 74.69846343994141 C 78.55665588378906 70.84029388427734 81.58542633056641 66.34833526611328 83.70065307617188 61.34736633300781 C 85.88993835449219 56.17132186889648 87 50.67127990722656 87 44.99999237060547 C 87 39.32870483398438 85.88993835449219 33.82864761352539 83.70065307617188 28.65262222290039 C 81.58542633056641 23.65164947509766 78.55665588378906 19.15967559814453 74.69847869873047 15.30150604248047 C 70.84030914306641 11.44333648681641 66.34834289550781 8.414566040039062 61.34736633300781 6.299331665039062 C 56.17134094238281 4.11004638671875 50.67128372192383 2.999992370605469 44.99999618530273 2.999992370605469 M 44.99999618530273 -7.62939453125e-06 C 69.85281372070312 -7.62939453125e-06 90 20.14717864990234 90 44.99999237060547 C 90 69.85279083251953 69.85281372070312 89.99997711181641 44.99999618530273 89.99997711181641 C 20.14717864990234 89.99997711181641 -7.62939453125e-06 69.85279083251953 -7.62939453125e-06 44.99999237060547 C -7.62939453125e-06 20.14717864990234 20.14717864990234 -7.62939453125e-06 44.99999618530273 -7.62939453125e-06 Z" stroke="none" fill="#ff9d1c"/>
                            </g>
                          </g>
                        </g>
                      </g>
                    </g>
                  </g>
                </g>
              </g>
            </g>
          </g>
        </g>
      </g>
    </g>
    <g id="escala" transform="translate(223.802 494.631)">
      <path id="Trazado_1183059" data-name="Trazado 1183059" d="M30.028,360.1l-1.892,5.677H13L11.1,360.1Zm0,0" transform="translate(-9.792 -317.423)" fill="#ccd1d9"/>
      <path id="Trazado_1183060" data-name="Trazado 1183060" d="M350.028,312.1l-1.892,5.677H333l-1.892-5.677Zm0,0" transform="translate(-291.945 -275.1)" fill="#ccd1d9"/>
      <path id="Trazado_1183061" data-name="Trazado 1183061" d="M38.218,81.032a3.034,3.034,0,0,0,.208,1.117l1.6,4.267-13.814,1.6-2.536.293-7.541.871A5.893,5.893,0,0,1,21.31,82.7l16.927-1.959a1.481,1.481,0,0,0-.019.293Zm0,0" transform="translate(-14.196 -71.1)" fill="#dfb28b"/>
      <path id="Trazado_1183062" data-name="Trazado 1183062" d="M302.661,59.592l-2.413.284-13.455,1.552h-.009l1.249-3.331a3.035,3.035,0,0,0,.208-1.117,3.114,3.114,0,0,0-.407-1.551l16.681-1.93a5.383,5.383,0,0,1,.672-.038,5.8,5.8,0,0,1,5.763,5.175Zm0,0" transform="translate(-252.866 -47.049)" fill="#dfb28b"/>
      <path id="Trazado_1183063" data-name="Trazado 1183063" d="M165.844,145.468h1.23a3.231,3.231,0,0,0,2.224-.89V174.6a3.786,3.786,0,0,0,2.961,3.7l1.3.284a5.436,5.436,0,0,1,4.258,5.308v1.315H155.105v-1.315a5.435,5.435,0,0,1,4.258-5.308l1.3-.284a3.787,3.787,0,0,0,2.962-3.7V144.579A3.23,3.23,0,0,0,165.844,145.468Zm0,0" transform="translate(-136.761 -127.39)" fill="#d3a06c"/>
      <path id="Trazado_1183064" data-name="Trazado 1183064" d="M232.782,13.779v.028a2.335,2.335,0,0,0-.369-.028h-4.939a2.325,2.325,0,0,0-.369.028V10.94a2.839,2.839,0,0,1,5.677,0Zm0,0" transform="translate(-200.245 -7.055)" fill="#d3a06c"/>
      <path id="Trazado_1183065" data-name="Trazado 1183065" d="M203.125,59.015a3.185,3.185,0,0,1,2.82-2.886,2.325,2.325,0,0,1,.369-.028h4.939a2.335,2.335,0,0,1,.369.028,3.189,3.189,0,0,1,1.9.908,3.064,3.064,0,0,1,.53.719,3.114,3.114,0,0,1,.407,1.551,3.035,3.035,0,0,1-.208,1.117L213,63.756l-.606,1.618a3.143,3.143,0,0,1-.776,1.183v.009a3.231,3.231,0,0,1-2.224.89h-1.23a3.23,3.23,0,0,1-2.223-.89v-.009a3.139,3.139,0,0,1-.776-1.183l-.255-.681-1.6-4.267a3.034,3.034,0,0,1-.208-1.117,1.482,1.482,0,0,1,.019-.293Zm0,0" transform="translate(-179.084 -49.378)" fill="#ecc19c"/>
      <path id="Trazado_1183066" data-name="Trazado 1183066" d="M238.89,89.994A1.892,1.892,0,1,1,237,88.1,1.892,1.892,0,0,1,238.89,89.994Zm0,0" transform="translate(-207.299 -77.593)" fill="#ff826e"/>
      <path id="Trazado_1183067" data-name="Trazado 1183067" d="M20.567,233.133H14.909A9.451,9.451,0,0,1,17.7,216.546a9.469,9.469,0,0,1,5.734,0,9.45,9.45,0,0,1,2.791,16.587Zm0,0" transform="translate(-9.792 -190.454)" fill="#fcd770"/>
      <path id="Trazado_1183068" data-name="Trazado 1183068" d="M340.567,185.133h-5.658a9.451,9.451,0,0,1,2.791-16.587,9.469,9.469,0,0,1,5.734,0,9.45,9.45,0,0,1,2.791,16.587Zm0,0" transform="translate(-291.945 -148.131)" fill="#fcd770"/>
      <path id="Trazado_1183069" data-name="Trazado 1183069" d="M392.782,217.564h-2.839a2.842,2.842,0,0,1-2.839-2.839H389a.947.947,0,0,0,.946.946h.946v-.946a.947.947,0,0,0-.946-.946,2.842,2.842,0,0,1-2.839-2.839V208.1h2.839a2.842,2.842,0,0,1,2.839,2.839H390.89a.947.947,0,0,0-.946-.946H389v.946a.947.947,0,0,0,.946.946,2.842,2.842,0,0,1,2.839,2.839Zm0,0" transform="translate(-341.322 -183.401)"/>
      <path id="Trazado_1183070" data-name="Trazado 1183070" d="M403.105,192.1H405v2.839h-1.892Zm0,0" transform="translate(-355.429 -169.293)"/>
      <path id="Trazado_1183071" data-name="Trazado 1183071" d="M403.105,280.1H405v3.785h-1.892Zm0,0" transform="translate(-355.429 -246.885)"/>
      <path id="Trazado_1183072" data-name="Trazado 1183072" d="M339.74,178.836l-1.135-1.514a8.515,8.515,0,1,0-10.185,0l-1.134,1.514a10.408,10.408,0,1,1,12.454,0Zm0,0" transform="translate(-284.891 -141.077)"/>
      <path id="Trazado_1183073" data-name="Trazado 1183073" d="M339.027,311.671h-16.5L320,304.1h21.549Zm-15.139-1.892h13.775l1.261-3.785h-16.3Zm0,0" transform="translate(-282.153 -268.047)"/>
      <path id="Trazado_1183074" data-name="Trazado 1183074" d="M379.035,111.565l1.684-7.862,1.849.4-1.684,7.862Zm0,0" transform="translate(-334.206 -91.349)"/>
      <path id="Trazado_1183075" data-name="Trazado 1183075" d="M412.832,102.049l1.849-.4,1.737,8.106-1.849.4Zm0,0" transform="translate(-364.006 -89.541)"/>
      <path id="Trazado_1183076" data-name="Trazado 1183076" d="M286.128,55.294l-.218-1.879,23.138-2.675a4.854,4.854,0,0,0-5.191-3.375l-16.693,1.93-.218-1.879,16.693-1.93a6.744,6.744,0,0,1,7.481,5.975l.1.934Zm0,0" transform="translate(-252.095 -39.975)"/>
      <path id="Trazado_1183077" data-name="Trazado 1183077" d="M8.263,83.247l-.1-.947a6.85,6.85,0,0,1,6.008-7.521L31.1,72.821l.218,1.879L14.386,76.657a4.958,4.958,0,0,0-4.355,4.479l22.844-2.642.218,1.879Zm0,0" transform="translate(-7.16 -64.119)"/>
      <path id="Trazado_1183078" data-name="Trazado 1183078" d="M72.782,265.564H69.944a2.842,2.842,0,0,1-2.839-2.839H69a.947.947,0,0,0,.946.946h.946v-.946a.947.947,0,0,0-.946-.946,2.842,2.842,0,0,1-2.839-2.839V256.1h2.839a2.842,2.842,0,0,1,2.839,2.839H70.89a.947.947,0,0,0-.946-.946H69v.946a.947.947,0,0,0,.946.946,2.842,2.842,0,0,1,2.839,2.839Zm0,0" transform="translate(-59.168 -225.724)"/>
      <path id="Trazado_1183079" data-name="Trazado 1183079" d="M83.106,240.1H85v2.839H83.106Zm0,0" transform="translate(-73.276 -211.616)"/>
      <path id="Trazado_1183080" data-name="Trazado 1183080" d="M83.106,328.1H85v3.785H83.106Zm0,0" transform="translate(-73.276 -289.208)"/>
      <path id="Trazado_1183081" data-name="Trazado 1183081" d="M19.74,226.836l-1.135-1.514A8.511,8.511,0,1,0,5,218.509a8.443,8.443,0,0,0,3.423,6.812l-1.134,1.514a10.4,10.4,0,1,1,16.635-8.326,10.318,10.318,0,0,1-4.181,8.326Zm0,0" transform="translate(-2.738 -183.4)"/>
      <path id="Trazado_1183082" data-name="Trazado 1183082" d="M19.027,359.671H2.524L0,352.1H21.549ZM3.888,357.779H17.663l1.261-3.785H2.627Zm0,0" transform="translate(0 -310.37)"/>
      <path id="Trazado_1183083" data-name="Trazado 1183083" d="M59,147.376l1.689-9.536,1.863.33-1.689,9.536Zm0,0" transform="translate(-52.018 -121.449)"/>
      <path id="Trazado_1183084" data-name="Trazado 1183084" d="M92.824,136.1l1.862-.329,1.731,9.781-1.863.329Zm0,0" transform="translate(-81.846 -119.623)"/>
      <path id="Trazado_1183085" data-name="Trazado 1183085" d="M72.952,56.5a6.346,6.346,0,0,0-5-6.231l-1.295-.288a2.821,2.821,0,0,1-2.222-2.77V17.539a4.121,4.121,0,0,0,.72-1.208l1.854-4.947A4.128,4.128,0,0,0,64.436,6.01V3.885a3.785,3.785,0,0,0-7.569,0V6.01a4.129,4.129,0,0,0-2.575,5.374l1.854,4.948a4.111,4.111,0,0,0,.72,1.208V47.213a2.823,2.823,0,0,1-2.223,2.771l-1.295.288a6.344,6.344,0,0,0-5,6.23v.369H35.105v1.892H86.2V56.871H72.952ZM60.652,1.993a1.894,1.894,0,0,1,1.892,1.892V5.778H58.759V3.886A1.894,1.894,0,0,1,60.652,1.993Zm-4.587,8.726a2.237,2.237,0,0,1-.144-.792A2.259,2.259,0,0,1,58.178,7.67h4.948a2.256,2.256,0,0,1,2.113,3.049l-1.854,4.947a2.269,2.269,0,0,1-2.115,1.466H60.033a2.269,2.269,0,0,1-2.114-1.465ZM50.244,56.5a4.465,4.465,0,0,1,3.517-4.385l1.295-.287a4.7,4.7,0,0,0,3.7-4.617V18.819a4.1,4.1,0,0,0,1.274.206H61.27a4.1,4.1,0,0,0,1.275-.206V47.212a4.7,4.7,0,0,0,3.7,4.618l1.294.287A4.466,4.466,0,0,1,71.06,56.5v.369H50.244Zm0,0" transform="translate(-30.953 0)"/>
      <path id="Trazado_1183086" data-name="Trazado 1183086" d="M229.944,85.779a2.839,2.839,0,1,0-2.839-2.839A2.842,2.842,0,0,0,229.944,85.779Zm0-3.785a.946.946,0,1,1-.946.946A.947.947,0,0,1,229.944,81.994Zm0,0" transform="translate(-200.245 -70.539)"/>
      <path id="Trazado_1183087" data-name="Trazado 1183087" d="M3.105,480.1H5v1.892H3.105Zm0,0" transform="translate(-2.738 -423.231)"/>
      <path id="Trazado_1183088" data-name="Trazado 1183088" d="M483.105,480.1H485v1.892h-1.892Zm0,0" transform="translate(-425.967 -423.231)"/>
      <path id="Trazado_1183089" data-name="Trazado 1183089" d="M243.1,448.1H245v1.892H243.1Zm0,0" transform="translate(-214.353 -395.016)"/>
      <path id="Trazado_1183090" data-name="Trazado 1183090" d="M275.105,448.1H277v1.892h-1.892Zm0,0" transform="translate(-242.568 -395.016)"/>
      <path id="Trazado_1183091" data-name="Trazado 1183091" d="M211.105,448.1H213v1.892h-1.892Zm0,0" transform="translate(-186.137 -395.016)"/>
    </g>
  </g>
</svg>
