<svg xmlns="http://www.w3.org/2000/svg" xmlns:xlink="http://www.w3.org/1999/xlink" width="400" height="403" viewBox="0 0 400 403">
  <defs>
    <clipPath id="clip-path">
      <rect id="Rectángulo_422733" data-name="Rectángulo 422733" width="400" height="403" transform="translate(1020 260)" fill="#fff" stroke="#707070" stroke-width="1"/>
    </clipPath>
  </defs>
  <g id="Enmascarar_grupo_1211526" data-name="Enmascarar grupo 1211526" transform="translate(-1020 -260)" clip-path="url(#clip-path)">
    <g id="_13746491_5350677" data-name="13746491_5350677" transform="translate(1001.84 254.627)">
      <g id="Background_Simple" transform="translate(29.764 15.051)">
        <g id="Grupo_1227803" data-name="Grupo 1227803">
          <path id="Trazado_1183292" data-name="Trazado 1183292" d="M264.328,28.723C241.482,18.112,216.367,13.266,190.639,17.3c-31.086,4.874-58.809,22.826-78.3,47.213A125.166,125.166,0,0,0,93.826,95.625c-16.782,41.666-20.833,92.011-51.5,155.668s-4.051,135.414,67.706,152.2,119.21-48.61,176.5-48.031,114.58-46.874,115.159-115.738c.663-78.957-49.54-152.5-112.636-196.5A163.842,163.842,0,0,0,264.328,28.723Z" transform="translate(-29.764 -15.887)" fill="#fff4e6"/>
        </g>
      </g>
      <g id="Plants" transform="translate(46.39 52.383)">
        <g id="Grupo_1227804" data-name="Grupo 1227804" transform="translate(0 218.159)" opacity="0.2">
          <path id="Trazado_1183294" data-name="Trazado 1183294" d="M121.02,426.728c-.475-2.546-3.844-7.276-3.847-7.279-.035-.049-2.444,3.167-2.573,3.387-1.488,2.551-2.866,8.355-.659,10.818a3.914,3.914,0,0,0,5.823-.157C121.338,431.772,121.425,428.9,121.02,426.728Z" transform="translate(-61.516 -344.904)"/>
          <path id="Trazado_1183295" data-name="Trazado 1183295" d="M81.459,368.065c0-.061-3.785,1.294-4.014,1.407-2.649,1.306-7,5.387-6.517,8.66a3.914,3.914,0,0,0,4.943,3.082c2.264-.572,3.923-2.922,4.782-4.953C81.66,373.873,81.459,368.069,81.459,368.065Z" transform="translate(-53.883 -335.542)"/>
          <path id="Trazado_1183296" data-name="Trazado 1183296" d="M50.53,358.3c1.555,2.92,7.478,3.621,10.385,3.1.251-.046,4.1-1.2,4.064-1.251,0,0-.032-.047-.04-.057.934.118,1.937.234,3.036.338,2.03.177,4.325.357,6.837.386a69.486,69.486,0,0,0,8.107-.291,51.035,51.035,0,0,0,8.931-1.61c.034-.01.069-.025.1-.034-.81.53-3.029,2.088-3.186,2.228-2.211,1.959-5.329,7.044-4,10.073a3.915,3.915,0,0,0,5.582,1.668c2.032-1.15,3.012-3.853,3.3-6.04.329-2.466-1.236-7.628-1.362-8.039a69.433,69.433,0,0,0,8.656-3.247c1.641-.733,3.272-1.522,4.9-2.333-.687.481-1.3.916-1.376.986-2.211,1.959-5.329,7.045-4,10.073a3.915,3.915,0,0,0,5.582,1.668c2.033-1.149,3.012-3.854,3.3-6.041.3-2.219-.949-6.647-1.3-7.814.62-.318,1.243-.629,1.861-.949,2.969-1.536,5.925-3.082,8.872-4.509,1.038-.5,2.079-.961,3.118-1.423-.609.428-1.119.793-1.191.857-2.211,1.959-5.329,7.045-4,10.073a3.914,3.914,0,0,0,5.582,1.667c2.032-1.149,3.011-3.854,3.3-6.04.282-2.117-.831-6.215-1.235-7.6,1.079-.441,2.159-.884,3.224-1.263.734-.242,1.423-.526,2.172-.728l2.193-.641c1.409-.356,2.861-.732,4.244-1.044.96-.225,1.879-.421,2.805-.622-1.039.489-3.053,1.489-3.212,1.592a15.2,15.2,0,0,0-4.972,5.839,4.581,4.581,0,0,0-.685.531,3.914,3.914,0,0,0-.059,5.824c2.5,2.166,8.279.692,10.8-.839.149-.09,1.655-1.251,2.595-2-.485.523-.962,1.026-1.454,1.572-.981,1.071-1.929,2.17-2.953,3.347l-1.438,1.776c-.493.582-.939,1.26-1.416,1.894-1.075,1.494-2.091,3.06-3.081,4.661-.94-.857-4.323-3.853-6.426-4.549s-4.954-1-6.877.33a3.914,3.914,0,0,0-.94,5.748c2.143,2.52,8.079,1.938,10.807.807.17-.07,2.036-1.1,3.051-1.689-.587.967-1.178,1.928-1.74,2.926-1.623,2.879-3.177,5.842-4.74,8.793-.478.9-.966,1.8-1.45,2.7-.331-.309-4.275-3.957-6.631-4.737-2.094-.693-4.954-1-6.877.33a3.913,3.913,0,0,0-.94,5.748c2.143,2.52,8.079,1.938,10.807.807.205-.085,2.889-1.573,3.553-1.986-1.068,1.977-2.15,3.937-3.3,5.825a68.778,68.778,0,0,1-5.084,7.355c-.154-.144-4.253-3.97-6.666-4.769-2.094-.693-4.954-1-6.877.33a3.914,3.914,0,0,0-.941,5.748c2.143,2.52,8.079,1.938,10.807.807.18-.074,2.226-1.207,3.186-1.768l.122.144a50.394,50.394,0,0,1-6.363,6.354c-1.255,1.075-2.516,2.033-3.763,2.938-.69-.791-3.885-4.37-5.977-5.329-2.005-.919-4.815-1.533-6.871-.428a3.914,3.914,0,0,0-1.566,5.611c1.853,2.74,7.817,2.814,10.654,1.99.154-.045,1.672-.674,2.771-1.148-.569.4-1.149.822-1.7,1.194-2.072,1.4-4.055,2.556-5.82,3.566-1.008.566-1.932,1.057-2.8,1.508-1.082-.423-5.465-2.071-7.723-1.96-2.2.108-4.98.858-6.3,2.787a3.915,3.915,0,0,0,1.195,5.7c2.907,1.578,8.234-1.1,10.372-3.144.185-.177,2.757-3.264,2.7-3.287l-.065-.025c.844-.417,1.744-.874,2.718-1.393,1.79-.972,3.805-2.088,5.916-3.449a69.568,69.568,0,0,0,6.6-4.715,51.092,51.092,0,0,0,6.561-6.27c.024-.027.044-.059.067-.086-.384.889-1.375,3.413-1.429,3.615-.762,2.853-.559,8.815,2.221,10.608a3.915,3.915,0,0,0,5.576-1.689c1.061-2.08.385-4.876-.577-6.861-1.086-2.238-5.24-5.681-5.571-5.954a69.294,69.294,0,0,0,5.429-7.484c.965-1.516,1.89-3.074,2.8-4.647-.308.78-.577,1.479-.6,1.582-.762,2.854-.558,8.815,2.221,10.608a3.914,3.914,0,0,0,5.575-1.689c1.062-2.08.386-4.876-.577-6.861-.977-2.013-4.459-5.02-5.391-5.8.342-.607.69-1.21,1.029-1.818,1.629-2.92,3.242-5.84,4.911-8.656.588-.993,1.2-1.949,1.816-2.907-.272.693-.5,1.279-.521,1.372-.762,2.853-.559,8.815,2.221,10.608a3.914,3.914,0,0,0,5.575-1.689c1.061-2.08.386-4.876-.577-6.861-.932-1.922-4.122-4.725-5.224-5.662.657-.963,1.313-1.928,1.992-2.831.478-.606.9-1.223,1.411-1.806l1.475-1.744c.979-1.075,1.982-2.189,2.964-3.213.677-.717,1.335-1.389,2-2.067-.6.981-1.725,2.927-1.8,3.1-1.186,2.7-1.887,8.629.589,10.822a3.915,3.915,0,0,0,5.766-.824c1.364-1.895,1.12-4.761.469-6.869-.717-2.32-4.143-6.21-4.574-6.694,1.1-1.118,2.177-2.195,3.211-3.2,3.544-3.442,6.627-6.179,8.824-8.074l-1.259-1.855-.144.129c-2.185,1.968-5.265,4.821-8.8,8.408-1.12,1.131-2.294,2.362-3.487,3.637a42.607,42.607,0,0,0-4.3-2.547c.566-2.431-.1-7.225-.186-7.843,1.533-.326,3.027-.63,4.441-.893,4.855-.916,8.935-1.5,11.813-1.866l-1.382-2.036c-2.807.437-6.511,1.07-10.815,1.98-1.558.326-3.216.7-4.915,1.11-.241-.588-2.246-5.38-4.021-7.043-1.611-1.507-4.082-2.979-6.382-2.581a3.914,3.914,0,0,0-3.262,4.826c.89,3.185,6.524,5.145,9.475,5.261.174.007,2.072-.13,3.267-.236-.693.168-1.368.326-2.08.509-1.41.352-2.806.745-4.31,1.162l-2.179.688c-.733.214-1.479.533-2.227.8-1.721.653-3.432,1.4-5.141,2.188-.312-1.234-1.48-5.6-2.85-7.34s-3.584-3.563-5.918-3.518a3.915,3.915,0,0,0-3.957,4.276c.4,3.283,5.669,6.074,8.569,6.636.181.035,2.307.2,3.476.275-1.023.483-2.047.958-3.066,1.48-2.942,1.506-5.873,3.121-8.8,4.719-.9.491-1.8.967-2.7,1.449-.106-.44-1.383-5.658-2.918-7.608-1.363-1.735-3.584-3.564-5.918-3.519a3.914,3.914,0,0,0-3.956,4.275c.4,3.284,5.669,6.074,8.568,6.636.218.043,3.278.281,4.059.3-1.981,1.06-3.966,2.1-5.963,3.041a68.878,68.878,0,0,1-8.3,3.329c-.048-.205-1.358-5.657-2.929-7.655-1.364-1.734-3.584-3.563-5.918-3.518a3.914,3.914,0,0,0-3.956,4.275c.4,3.284,5.67,6.074,8.569,6.636.191.037,2.52.221,3.631.283.012.1.01.084.022.188a50.482,50.482,0,0,1-8.81,1.789c-1.641.2-3.22.307-4.759.374-.14-1.04-.83-5.788-2.045-7.742-1.165-1.873-3.171-3.935-5.5-4.147a3.915,3.915,0,0,0-4.4,3.816c.034,3.307,4.968,6.659,7.788,7.536.154.047,1.766.36,2.944.571-.7.019-1.412.052-2.078.057-2.5.025-4.793-.1-6.822-.236-1.153-.085-2.194-.184-3.167-.287-.67-.949-3.416-4.742-5.36-5.895-1.9-1.125-4.627-2.031-6.789-1.148A3.911,3.911,0,0,0,50.53,358.3Z" transform="translate(-50.094 -328.297)"/>
        </g>
        <g id="Grupo_1227805" data-name="Grupo 1227805" transform="translate(237.353)" opacity="0.2">
          <path id="Trazado_1183297" data-name="Trazado 1183297" d="M360.081,80.392c1.536,2.085,6.628,4.877,6.632,4.879.053.029.821-3.915.841-4.169.23-2.945-1.057-8.769-4.116-10.026a3.915,3.915,0,0,0-5.174,2.676C357.6,75.99,358.772,78.616,360.081,80.392Z" transform="translate(-343.559 -63.223)"/>
          <path id="Trazado_1183298" data-name="Trazado 1183298" d="M421.283,116.407c.028.053,2.844-2.812,3-3.014,1.816-2.329,3.957-7.9,2.1-10.633a3.914,3.914,0,0,0-5.792-.622c-1.789,1.5-2.26,4.338-2.148,6.541C418.572,111.265,421.28,116.4,421.283,116.407Z" transform="translate(-354.556 -68.752)"/>
          <path id="Trazado_1183299" data-name="Trazado 1183299" d="M432.583,99.644c-2.67-1.951-8.309,0-10.7,1.73-.207.15-3.167,2.866-3.115,2.9l.061.034c-.892.3-1.846.633-2.88,1.017-1.9.725-4.05,1.561-6.323,2.628a69.463,69.463,0,0,0-7.172,3.791,51.016,51.016,0,0,0-7.34,5.338c-.027.024-.052.052-.078.076.5-.83,1.818-3.2,1.9-3.392,1.137-2.726,1.731-8.661-.784-10.81a3.915,3.915,0,0,0-5.751.929c-1.329,1.919-1.034,4.78-.344,6.876.777,2.363,4.433,6.33,4.725,6.645a69.391,69.391,0,0,0-6.38,6.691c-1.159,1.374-2.283,2.794-3.392,4.232.409-.732.769-1.389.809-1.487,1.137-2.726,1.73-8.661-.784-10.809a3.915,3.915,0,0,0-5.751.928c-1.33,1.919-1.034,4.781-.344,6.876.7,2.126,3.749,5.571,4.567,6.471-.42.556-.845,1.107-1.263,1.665-2,2.675-3.993,5.354-6.024,7.922-.715.905-1.452,1.771-2.188,2.639.362-.65.662-1.2.7-1.29,1.137-2.727,1.731-8.661-.785-10.81a3.914,3.914,0,0,0-5.751.929c-1.329,1.919-1.034,4.78-.344,6.876.667,2.029,3.454,5.233,4.422,6.309-.779.866-1.559,1.735-2.353,2.54-.555.536-1.052,1.093-1.639,1.6l-1.7,1.532c-1.114.934-2.256,1.9-3.366,2.788-.766.621-1.509,1.2-2.255,1.781.722-.892,2.1-2.67,2.2-2.831a15.2,15.2,0,0,0,1.935-7.422,4.614,4.614,0,0,0,.386-.777A3.914,3.914,0,0,0,363,138.491c-3.194-.863-7.755,2.981-9.362,5.459-.095.146-.946,1.847-1.466,2.929.209-.683.42-1.343.625-2.048.417-1.392.792-2.793,1.2-4.3q.258-1.1.521-2.224c.191-.739.3-1.543.451-2.323.317-1.813.55-3.665.744-5.537,1.219.362,5.568,1.587,7.766,1.3s4.893-1.261,6.047-3.291a3.914,3.914,0,0,0-1.655-5.585c-3.026-1.336-8.118,1.772-10.081,3.978-.123.137-1.353,1.879-2.012,2.848.108-1.126.221-2.249.293-3.391.209-3.3.316-6.643.439-9.979.037-1.022.087-2.04.132-3.059.433.134,5.571,1.7,8.032,1.377,2.188-.287,4.894-1.26,6.048-3.291a3.915,3.915,0,0,0-1.655-5.585c-3.026-1.335-8.118,1.772-10.081,3.978-.148.166-1.916,2.674-2.334,3.334.1-2.244.222-4.48.431-6.679a68.937,68.937,0,0,1,1.376-8.834c.2.062,5.556,1.722,8.077,1.391,2.187-.287,4.894-1.26,6.048-3.291a3.914,3.914,0,0,0-1.655-5.585c-3.026-1.336-8.118,1.772-10.081,3.978-.129.145-1.479,2.056-2.1,2.978l-.173-.076a50.372,50.372,0,0,1,2.963-8.49c.662-1.515,1.38-2.925,2.108-4.282.966.411,5.4,2.242,7.7,2.195,2.206-.045,5-.716,6.372-2.606a3.915,3.915,0,0,0-1.032-5.733c-2.861-1.66-8.262.87-10.457,2.847-.119.107-1.211,1.335-1.995,2.24.339-.607.676-1.24,1.012-1.816,1.255-2.163,2.538-4.067,3.688-5.743.662-.949,1.278-1.793,1.864-2.577,1.158-.091,5.821-.515,7.806-1.6,1.937-1.057,4.11-2.941,4.454-5.249a3.915,3.915,0,0,0-3.557-4.612c-3.3-.155-6.933,4.58-7.97,7.346-.089.239-1.061,4.138-1,4.134l.07,0c-.578.743-1.191,1.546-1.841,2.437-1.188,1.655-2.516,3.536-3.824,5.68a69.571,69.571,0,0,0-3.89,7.118,51.088,51.088,0,0,0-3.177,8.5c-.009.034-.014.072-.024.106-.041-.968-.248-3.671-.287-3.877-.556-2.9-3.335-8.179-6.618-8.583a3.915,3.915,0,0,0-4.285,3.948c-.05,2.334,1.775,4.558,3.506,5.925,1.952,1.542,7.19,2.834,7.607,2.935a69.275,69.275,0,0,0-1.629,9.1c-.209,1.785-.363,3.59-.495,5.4-.063-.836-.125-1.582-.145-1.686-.556-2.9-3.335-8.179-6.618-8.583a3.913,3.913,0,0,0-4.284,3.947c-.05,2.335,1.775,4.558,3.506,5.925,1.757,1.388,6.2,2.579,7.38,2.878-.043.7-.095,1.389-.135,2.085-.2,3.337-.376,6.668-.653,9.931-.1,1.15-.236,2.278-.369,3.408-.056-.743-.11-1.367-.128-1.461-.555-2.9-3.334-8.179-6.618-8.583a3.914,3.914,0,0,0-4.284,3.948c-.05,2.334,1.775,4.558,3.507,5.925,1.676,1.324,5.767,2.46,7.168,2.822-.173,1.152-.343,2.307-.561,3.417-.167.754-.275,1.492-.483,2.24q-.287,1.117-.569,2.213c-.414,1.394-.832,2.834-1.269,4.182-.3.94-.6,1.831-.9,2.729.11-1.143.278-3.386.272-3.575-.11-2.951-2.057-8.589-5.24-9.487a3.914,3.914,0,0,0-4.832,3.252c-.4,2.3,1.064,4.774,2.568,6.388,1.656,1.777,6.434,3.788,7.031,4.035-.5,1.484-1,2.924-1.5,4.274-1.691,4.642-3.276,8.447-4.429,11.11l1.941,1.122c.025-.061.048-.116.074-.179,1.11-2.723,2.642-6.632,4.262-11.4.516-1.506,1.037-3.125,1.556-4.792a42.494,42.494,0,0,0,4.98.422c.549,2.435,3.231,6.462,3.581,6.98-1.237.961-2.451,1.884-3.609,2.737-3.971,2.938-7.393,5.238-9.823,6.823l2.13,1.231c2.336-1.615,5.4-3.8,8.874-6.49,1.261-.972,2.588-2.034,3.942-3.139.474.424,4.364,3.867,6.686,4.59,2.107.655,4.971.905,6.87-.455a3.914,3.914,0,0,0,.837-5.765c-2.188-2.48-8.113-1.792-10.82-.612-.159.07-1.808,1.019-2.839,1.635.55-.454,1.09-.889,1.651-1.363,1.116-.931,2.2-1.892,3.374-2.923l1.662-1.568c.566-.511,1.1-1.124,1.657-1.689,1.264-1.337,2.481-2.754,3.675-4.208.817.975,3.769,4.4,5.761,5.367s4.777,1.648,6.859.591a3.914,3.914,0,0,0,1.7-5.572c-1.787-2.783-7.748-3-10.6-2.243-.178.047-2.166.82-3.249,1.266.711-.88,1.425-1.753,2.116-2.667,1.994-2.636,3.929-5.366,5.872-8.081.595-.833,1.2-1.654,1.8-2.479.287.35,3.708,4.491,5.939,5.579,1.982.967,4.777,1.649,6.86.591a3.914,3.914,0,0,0,1.7-5.572c-1.787-2.784-7.748-3-10.6-2.244-.215.057-3.073,1.174-3.786,1.493,1.322-1.816,2.657-3.615,4.044-5.333a68.885,68.885,0,0,1,6.022-6.61c.133.164,3.684,4.5,5.969,5.617,1.983.967,4.778,1.648,6.86.591a3.914,3.914,0,0,0,1.7-5.572c-1.787-2.784-7.748-3-10.6-2.243-.187.05-2.365.9-3.392,1.326l-.1-.159a50.389,50.389,0,0,1,7.153-5.446c1.388-.9,2.764-1.679,4.121-2.408.578.876,3.267,4.849,5.212,6.08,1.865,1.179,4.567,2.163,6.753,1.341a3.915,3.915,0,0,0,2.3-5.352c-1.47-2.963-7.372-3.833-10.292-3.395-.159.025-1.747.445-2.9.768.617-.32,1.249-.662,1.846-.956,2.241-1.112,4.361-1.992,6.245-2.757,1.075-.426,2.055-.79,2.976-1.12,1.016.563,5.139,2.781,7.391,2.974,2.2.187,5.05-.185,6.611-1.922A3.91,3.91,0,0,0,432.583,99.644Z" transform="translate(-340.326 -61.535)"/>
        </g>
        <g id="Grupo_1227806" data-name="Grupo 1227806" transform="translate(231.631 200.829)" opacity="0.2">
          <path id="Trazado_1183300" data-name="Trazado 1183300" d="M397.8,362.706c-1.853-.1-5.717,1.448-5.72,1.448-.04.016,1.793,2.237,1.924,2.364,1.525,1.468,5.334,3.409,7.422,2.287a2.8,2.8,0,0,0,.875-4.082C401.365,363.337,399.378,362.791,397.8,362.706Z" transform="translate(-344.032 -317.235)"/>
          <path id="Trazado_1183301" data-name="Trazado 1183301" d="M350.489,379.7c-.043-.009.261,2.854.3,3.033.462,2.066,2.569,5.785,4.929,6a2.805,2.805,0,0,0,2.982-2.921c-.016-1.673-1.371-3.225-2.642-4.168C354.568,380.547,350.492,379.706,350.489,379.7Z" transform="translate(-336.454 -320.333)"/>
          <path id="Trazado_1183302" data-name="Trazado 1183302" d="M341.021,384.952c2.3-.589,3.786-4.6,3.914-6.708.011-.182-.144-3.058-.184-3.042l-.047.018c.24-.631.49-1.309.748-2.057.466-1.384.981-2.951,1.425-4.7a49.911,49.911,0,0,0,1.168-5.7,36.6,36.6,0,0,0,.388-6.493c0-.025-.006-.052-.007-.078.232.654.942,2.462,1.012,2.6.99,1.87,4,4.9,6.339,4.488a2.806,2.806,0,0,0,2.105-3.6c-.457-1.609-2.175-2.749-3.648-3.322-1.662-.646-5.521-.429-5.829-.411a49.657,49.657,0,0,0-.8-6.577c-.233-1.267-.507-2.536-.8-3.8.219.559.419,1.058.455,1.124.991,1.87,4,4.9,6.339,4.488a2.806,2.806,0,0,0,2.105-3.6c-.457-1.61-2.175-2.749-3.648-3.322-1.495-.581-4.79-.462-5.661-.419-.117-.486-.228-.972-.346-1.456-.568-2.327-1.145-4.648-1.641-6.941-.176-.808-.318-1.61-.464-2.412.195.5.363.914.4.974.991,1.87,4,4.9,6.339,4.488a2.8,2.8,0,0,0,2.1-3.606c-.456-1.609-2.175-2.749-3.648-3.321-1.427-.554-4.468-.472-5.5-.426-.124-.826-.251-1.653-.334-2.458-.044-.551-.126-1.08-.14-1.636s-.051-1.1-.075-1.636c-.01-1.042-.026-2.116-.01-3.132.006-.707.025-1.38.041-2.058.165.806.521,2.378.566,2.506a10.9,10.9,0,0,0,3.225,4.45,3.324,3.324,0,0,0,.254.568,2.805,2.805,0,0,0,4.047,1.025c1.932-1.375,1.882-5.649,1.242-7.667-.038-.119-.591-1.365-.954-2.145.283.426.552.843.849,1.278.58.864,1.184,1.71,1.832,2.623l.994,1.3c.322.442.719.867,1.079,1.307.859,1,1.777,1.973,2.725,2.933-.756.51-3.414,2.359-4.254,3.706s-1.53,3.282-.932,4.845a2.805,2.805,0,0,0,3.844,1.627c2.117-1.066,2.716-5.3,2.389-7.39-.02-.131-.423-1.6-.66-2.41.574.572,1.144,1.147,1.744,1.707,1.73,1.617,3.532,3.2,5.322,4.787.549.486,1.089.976,1.633,1.466-.271.178-3.478,2.309-4.419,3.818-.837,1.341-1.531,3.282-.933,4.845a2.8,2.8,0,0,0,3.844,1.627c2.117-1.066,2.716-5.3,2.39-7.39-.025-.158-.608-2.278-.782-2.81,1.2,1.078,2.378,2.163,3.5,3.28a49.391,49.391,0,0,1,4.262,4.784c-.126.083-3.483,2.291-4.448,3.836-.837,1.341-1.531,3.282-.933,4.845a2.806,2.806,0,0,0,3.844,1.627c2.117-1.066,2.716-5.3,2.39-7.39-.021-.137-.464-1.754-.693-2.518l.121-.061a36.14,36.14,0,0,1,3.349,5.505c.536,1.056.99,2.1,1.409,3.117-.667.347-3.7,1.967-4.722,3.262-.979,1.241-1.882,3.094-1.459,4.713a2.805,2.805,0,0,0,3.643,2.04c2.221-.828,3.281-4.968,3.186-7.083,0-.115-.187-1.278-.331-2.123.182.464.378.939.544,1.387.626,1.68,1.1,3.257,1.5,4.657.223.8.41,1.524.577,2.2-.477.682-2.366,3.456-2.671,5.047-.3,1.552-.245,3.613.877,4.855a2.805,2.805,0,0,0,4.172.132c1.591-1.758.622-5.922-.436-7.755-.092-.159-1.807-2.471-1.832-2.436l-.029.041c-.148-.658-.314-1.362-.51-2.129-.375-1.412-.81-3-1.4-4.7a49.624,49.624,0,0,0-2.168-5.394,36.58,36.58,0,0,0-3.257-5.629c-.015-.021-.034-.04-.048-.061.554.418,2.144,1.534,2.276,1.606,1.858,1.013,6.044,1.879,7.763.246a2.806,2.806,0,0,0-.233-4.168c-1.269-1.09-3.33-1.093-4.875-.758-1.743.378-4.842,2.689-5.088,2.873a49.692,49.692,0,0,0-4.294-5.046c-.893-.928-1.821-1.836-2.763-2.733.491.346.933.652,1,.688,1.859,1.013,6.044,1.879,7.763.246a2.8,2.8,0,0,0-.233-4.168c-1.269-1.091-3.33-1.093-4.875-.758-1.568.34-4.25,2.257-4.953,2.774-.365-.34-.725-.685-1.092-1.024-1.758-1.627-3.519-3.244-5.2-4.883-.592-.577-1.153-1.168-1.718-1.756.437.307.807.562.868.595,1.858,1.013,6.044,1.879,7.763.246a2.805,2.805,0,0,0-.234-4.168c-1.269-1.09-3.33-1.093-4.875-.757-1.5.325-3.988,2.071-4.826,2.682-.559-.62-1.121-1.24-1.635-1.866-.342-.436-.7-.831-1.019-1.287l-.965-1.322c-.582-.864-1.189-1.75-1.736-2.607-.385-.593-.741-1.165-1.1-1.74.582.581,1.747,1.7,1.855,1.778,1.683,1.283,5.689,2.773,7.636,1.42a2.805,2.805,0,0,0,.4-4.155c-1.089-1.27-3.126-1.585-4.7-1.488-1.737.107-5.025,1.835-5.435,2.053-.593-.954-1.16-1.887-1.682-2.776-1.8-3.05-3.183-5.659-4.132-7.51l-1.5.563.065.122c1,1.854,2.467,4.482,4.368,7.55.6.971,1.257,2,1.943,3.043a30.581,30.581,0,0,0-2.5,2.564,20.53,20.53,0,0,0-5.493-1.2c.032-1.123.073-2.215.128-3.243.182-3.535.468-6.476.7-8.543l-1.651.618c-.17,2.028-.355,4.715-.449,7.866-.037,1.14-.053,2.359-.058,3.611-.451.069-4.127.654-5.585,1.61-1.322.867-2.765,2.339-2.877,4.009a2.805,2.805,0,0,0,2.809,3.088c2.368-.081,4.686-3.674,5.266-5.709.034-.12.259-1.465.388-2.315,0,.511,0,1.008,0,1.534.007,1.041.044,2.08.081,3.2q.055.808.111,1.633c.025.546.121,1.12.18,1.685.164,1.309.393,2.627.654,3.95-.912.008-4.149.084-5.594.744s-3.087,1.893-3.45,3.526a2.805,2.805,0,0,0,2.309,3.478c2.354.279,5.188-2.921,6.07-4.846.055-.12.532-1.572.779-2.375.163.794.321,1.587.513,2.386.551,2.3,1.18,4.617,1.8,6.929.19.708.37,1.416.553,2.123-.324,0-4.174.007-5.792.746-1.439.657-3.087,1.893-3.451,3.526a2.8,2.8,0,0,0,2.309,3.477c2.354.279,5.189-2.921,6.07-4.845.066-.145.75-2.235.9-2.776.4,1.559.79,3.116,1.11,4.666a49.433,49.433,0,0,1,.916,6.342c-.151,0-4.169-.011-5.826.746-1.439.657-3.087,1.893-3.451,3.526a2.806,2.806,0,0,0,2.309,3.478c2.354.279,5.188-2.921,6.07-4.845.058-.127.58-1.718.811-2.481l.135.016a36.136,36.136,0,0,1-.244,6.438c-.135,1.177-.33,2.294-.544,3.378-.748-.079-4.171-.4-5.738.116-1.5.495-3.277,1.542-3.818,3.126a2.805,2.805,0,0,0,1.913,3.71c2.309.536,5.478-2.334,6.565-4.15.059-.1.549-1.169.895-1.954-.1.487-.2.992-.312,1.457-.4,1.746-.883,3.32-1.318,4.711-.254.788-.5,1.5-.735,2.157-.774.306-3.88,1.578-5.011,2.736-1.1,1.131-2.2,2.879-1.947,4.533A2.8,2.8,0,0,0,341.021,384.952Z" transform="translate(-333.329 -307.106)"/>
        </g>
        <g id="Grupo_1227807" data-name="Grupo 1227807" transform="translate(76.94 18.904)" opacity="0.2">
          <path id="Trazado_1183303" data-name="Trazado 1183303" d="M152.806,144.352c1.712-.717,4.517-3.792,4.519-3.794.029-.032-2.588-1.233-2.761-1.29-2.012-.658-6.286-.747-7.678,1.172a2.805,2.805,0,0,0,.989,4.056C149.321,145.336,151.348,144.963,152.806,144.352Z" transform="translate(-144.577 -94.525)"/>
          <path id="Trazado_1183304" data-name="Trazado 1183304" d="M188.265,107.785c.042-.011-1.478-2.457-1.591-2.6-1.315-1.659-4.831-4.091-7.05-3.258a2.8,2.8,0,0,0-1.412,3.928c.743,1.5,2.639,2.307,4.192,2.6C184.227,108.8,188.262,107.786,188.265,107.785Z" transform="translate(-150.318 -87.768)"/>
          <path id="Trazado_1183305" data-name="Trazado 1183305" d="M179.79,85.275c-1.811,1.53-1.407,5.785-.6,7.744.07.169,1.461,2.691,1.49,2.659l.034-.037c.058.672.128,1.393.222,2.178.183,1.448.4,3.084.761,4.848a49.813,49.813,0,0,0,1.428,5.635,36.6,36.6,0,0,0,2.476,6.014c.012.023.028.044.039.067-.494-.488-1.92-1.807-2.041-1.9-1.706-1.253-5.739-2.67-7.66-1.282a2.806,2.806,0,0,0-.326,4.162c1.112,1.25,3.154,1.528,4.73,1.4,1.777-.141,5.157-2.018,5.426-2.168a49.7,49.7,0,0,0,3.581,5.574c.761,1.039,1.56,2.063,2.374,3.078-.441-.408-.837-.77-.9-.815-1.706-1.253-5.739-2.669-7.66-1.281a2.806,2.806,0,0,0-.325,4.162c1.112,1.25,3.154,1.528,4.731,1.4,1.6-.128,4.513-1.669,5.279-2.087.316.387.628.775.946,1.16,1.524,1.848,3.054,3.686,4.5,5.534.509.651.987,1.311,1.468,1.969-.392-.362-.725-.664-.78-.7-1.707-1.253-5.739-2.67-7.66-1.281a2.8,2.8,0,0,0-.325,4.162c1.111,1.25,3.154,1.528,4.73,1.4,1.526-.122,4.229-1.52,5.141-2.013.471.689.945,1.379,1.371,2.068.28.478.583.918.838,1.412l.78,1.439c.462.933.945,1.893,1.372,2.816.3.639.579,1.253.86,1.871-.5-.654-1.5-1.914-1.6-2.009a10.894,10.894,0,0,0-4.841-2.6,3.28,3.28,0,0,0-.476-.4,2.805,2.805,0,0,0-4.09.838c-1.14,2.078.765,5.9,2.22,7.443.086.091,1.127.971,1.792,1.516-.44-.261-.864-.518-1.321-.782-.9-.526-1.811-1.024-2.79-1.564l-1.461-.738c-.483-.258-1.025-.468-1.541-.707-1.209-.527-2.459-1-3.73-1.454.458-.788,2.046-3.61,2.217-5.189s-.051-3.621-1.269-4.768a2.805,2.805,0,0,0-4.169.209c-1.442,1.881-.138,5.953,1.066,7.693.075.109,1.079,1.26,1.644,1.883-.766-.265-1.529-.534-2.313-.778-2.261-.7-4.572-1.344-6.875-1.993-.706-.2-1.406-.4-2.108-.608.166-.279,2.126-3.593,2.317-5.361.17-1.572-.051-3.621-1.269-4.768a2.805,2.805,0,0,0-4.169.209c-1.442,1.882-.138,5.953,1.066,7.693.091.131,1.538,1.787,1.928,2.189-1.546-.45-3.082-.912-4.579-1.43a49.251,49.251,0,0,1-5.919-2.452c.078-.129,2.139-3.579,2.334-5.389.17-1.572-.051-3.621-1.269-4.768a2.805,2.805,0,0,0-4.169.209c-1.442,1.882-.138,5.953,1.066,7.693.079.114,1.182,1.377,1.72,1.965l-.083.107a36.063,36.063,0,0,1-5.411-3.5c-.943-.717-1.8-1.456-2.626-2.193.45-.6,2.475-3.382,2.83-4.992.341-1.543.348-3.6-.738-4.878a2.8,2.8,0,0,0-4.167-.25c-1.64,1.712-.791,5.9.215,7.763.055.1.725,1.069,1.223,1.767-.366-.339-.749-.68-1.093-1.012-1.295-1.24-2.4-2.455-3.377-3.539-.549-.621-1.032-1.193-1.479-1.734.132-.822.626-4.141.207-5.706-.408-1.527-1.353-3.36-2.9-3.989a2.8,2.8,0,0,0-3.813,1.7c-.667,2.275,2.018,5.6,3.768,6.792.151.1,2.7,1.439,2.71,1.4l.008-.05c.42.528.876,1.09,1.386,1.694.952,1.107,2.037,2.35,3.31,3.624a49.847,49.847,0,0,0,4.3,3.912,36.585,36.585,0,0,0,5.383,3.65c.023.012.047.022.07.034-.681-.135-2.6-.448-2.749-.456-2.114-.1-6.259.94-7.1,3.158a2.8,2.8,0,0,0,2.025,3.651c1.618.429,3.474-.466,4.719-1.44,1.4-1.1,3.189-4.528,3.33-4.8a49.666,49.666,0,0,0,6.062,2.673c1.208.447,2.439.86,3.678,1.258-.593-.1-1.124-.181-1.2-.184-2.114-.1-6.26.94-7.1,3.158a2.8,2.8,0,0,0,2.025,3.651c1.618.429,3.474-.465,4.719-1.44,1.264-.989,2.844-3.882,3.252-4.653.477.147.951.3,1.429.447,2.291.7,4.581,1.389,6.8,2.134.784.262,1.546.549,2.311.833-.527-.086-.971-.155-1.039-.158-2.114-.1-6.259.94-7.1,3.158a2.8,2.8,0,0,0,2.025,3.651c1.617.429,3.474-.466,4.719-1.44,1.205-.943,2.688-3.6,3.177-4.514.774.315,1.549.628,2.284.968.5.244.993.443,1.478.716l1.445.77c.9.523,1.833,1.058,2.7,1.591.605.366,1.174.726,1.749,1.087-.778-.27-2.311-.766-2.444-.793-2.074-.423-6.33-.02-7.492,2.046a2.8,2.8,0,0,0,1.448,3.915c1.533.67,3.5.066,4.883-.708,1.517-.853,3.725-3.84,4-4.215.949.6,1.866,1.194,2.723,1.767,2.947,1.963,5.33,3.71,6.989,4.962l1.109-1.162-.112-.082c-1.708-1.233-4.172-2.96-7.219-4.9-.961-.613-2-1.25-3.074-1.894a30.571,30.571,0,0,0,1.135-3.4,20.538,20.538,0,0,0,5.466-1.314c.46,1.025.9,2.026,1.3,2.976,1.375,3.262,2.4,6.034,3.091,7.994l1.218-1.276c-.729-1.9-1.733-4.4-3.02-7.278-.463-1.042-.979-2.147-1.519-3.276.375-.258,3.431-2.386,4.327-3.88.813-1.356,1.471-3.31.845-4.861a2.8,2.8,0,0,0-3.873-1.557c-2.1,1.1-2.619,5.347-2.255,7.432.022.123.4,1.431.658,2.253-.223-.46-.434-.909-.67-1.38-.46-.934-.945-1.853-1.465-2.844l-.811-1.422c-.26-.481-.6-.955-.9-1.439-.717-1.107-1.5-2.193-2.309-3.271.817-.4,3.7-1.882,4.711-3.105s1.955-3.048,1.571-4.677a2.806,2.806,0,0,0-3.593-2.126c-2.241.774-3.4,4.889-3.355,7.005,0,.132.205,1.647.332,2.477-.492-.644-.981-1.289-1.5-1.924-1.5-1.834-3.072-3.643-4.635-5.456-.479-.554-.949-1.113-1.422-1.671.292-.141,3.755-1.823,4.89-3.193,1.009-1.217,1.955-3.048,1.572-4.677a2.8,2.8,0,0,0-3.593-2.125c-2.241.774-3.4,4.889-3.355,7,0,.159.3,2.339.4,2.889-1.041-1.228-2.068-2.462-3.03-3.718a49.488,49.488,0,0,1-3.585-5.311c.137-.065,3.758-1.8,4.921-3.207,1.008-1.218,1.955-3.049,1.571-4.677a2.806,2.806,0,0,0-3.593-2.126c-2.241.774-3.4,4.889-3.355,7,0,.139.226,1.8.35,2.587l-.128.044a36.188,36.188,0,0,1-2.583-5.9c-.391-1.119-.7-2.209-.981-3.277.707-.255,3.93-1.456,5.115-2.6,1.136-1.1,2.278-2.815,2.076-4.476a2.806,2.806,0,0,0-3.337-2.508c-2.312.523-3.916,4.486-4.1,6.594-.01.114.015,1.291.045,2.148-.119-.484-.249-.981-.354-1.447-.4-1.748-.65-3.373-.864-4.815-.114-.821-.2-1.564-.277-2.262.564-.613,2.806-3.108,3.32-4.645.5-1.5.725-3.548-.221-4.929A2.809,2.809,0,0,0,179.79,85.275Z" transform="translate(-144.175 -84.651)"/>
        </g>
      </g>
      <g id="Table" transform="translate(51.312 56.355)">
        <circle id="Elipse_12731" data-name="Elipse 12731" cx="116.325" cy="116.325" r="116.325" transform="translate(0 164.507) rotate(-45)" fill="#999" stroke="#263238" stroke-miterlimit="10" stroke-width="1"/>
      </g>
      <g id="Earth_Globe" transform="translate(111.69 116.71)">
        <g id="Grupo_1227809" data-name="Grupo 1227809">
          <circle id="Elipse_12732" data-name="Elipse 12732" cx="81.983" cy="81.983" r="81.983" transform="translate(0 155.111) rotate(-71.078)" fill="#ff9d1c"/>
          <g id="Grupo_1227808" data-name="Grupo 1227808" transform="translate(77.621 177.09)">
            <path id="Trazado_1183306" data-name="Trazado 1183306" d="M237.145,360.3a77.046,77.046,0,0,0,13.363,1.7" transform="translate(-227.095 -357.387)" fill="none"/>
            <path id="Trazado_1183307" data-name="Trazado 1183307" d="M224.856,356.738q3.333,1.214,6.783,2.125" transform="translate(-224.856 -356.738)" fill="none"/>
          </g>
          <path id="Trazado_1183308" data-name="Trazado 1183308" d="M243.411,223.027l8.357,1.731,2.849,2.955,3.714.571,1.181,3.524-.866,2.385-2.532,1.16-6.2-1.013-.169-.76,2.934-2.047-2.026-3.736-5.55-.761-2.954-2.533Z" transform="translate(-150.385 -155.286)" fill="#fff"/>
          <path id="Trazado_1183309" data-name="Trazado 1183309" d="M301.1,298.713l-6.627-1.12-8-1.014-5.888,1.308-5.761.083-5.783,2.679-3.377.949-2.09.465-3.482,3.165-3.462,2.363-5.846-2.09.149-5.613-3.525-.613-3.8.844-.949-1.583-.379-3.5-1.752-1.6-2.574.971-.338,2.068-3.187.907-3.608-2.786-2.152-4.306,1.668-5.951,5.593-.843,1.815.992,2.279-.506,2.47-2.342,2.638.212,4.727,5.129,1.287-.485L249.8,282.2l-1.646-2.026-.421-3.693,6.353-4.6-.611-7.239,2.491-3.144,1.5-4.917,1.815-.8,3.736-3.819-.147-1.562-3,.865-.907-1.393-2.089.464-3.06,1.477.972-2.807,6.227-3.376,1.14-2.047,3.587,3.589,2.089,1.33,2.49-1.35-1.688-2.216-4.621-1.964-5.7-4.116-5.466-2.175-4.728.253-2.785-1.773-3.208-.085-.211.844.843,5.593,1.182,1.73-.36,6.458-4.474-2.2-.021-2.785-4.41-1.013L232.5,242l-.1-4.959,4.622-5.212-.632-4.643-2.047.654-1.709-1.414-1.2-2.722-1.371.105-.085,3.208-2.005.844-2.426-6.437-1.73-.613-2.912-.549-2.7,2.194,4.6,2.765,1.477,3.06-7.977-3.61L210.4,220.6l-1.519-5.044-5.276-.423-3.251,3.313a30.208,30.208,0,0,1-2.511,2.152,32.465,32.465,0,0,1-4.39,1.772l-.043,3.4-4.327,1.16.844,2.005,7.281-.421,4.495,3.188,1.476,6.648L202.4,244.7l1.772,6.184-3.252,10.488,1.94,14.119,3.481,7.6,3.819,5.53,2.933-.253-1.625-2.828-2.026-1.942-1.878-3.968,1.625-.76,4.177,6.248,3.249,5.657,1.1,4.939,4.58,3.567,7.512,3.315,10.468.465,3.672,2.175,2.954,2.533,3.883,1.33,4.432.212,4.136-1.118s.232,1.941.443,2.891-1.731,4.769-1.731,4.769l-1.246,4.262,2.448,3.841,4.558.781,7.238,4.771,2.912.549.633,2.849.626,1.253a81.675,81.675,0,0,0,35.673-27.6l-.208-1.4,3.062-10.447-2.849-1.161Z" transform="translate(-140.718 -153.847)" fill="#fff"/>
          <path id="Trazado_1183310" data-name="Trazado 1183310" d="M305.343,210.58l-2.891-3.144-3.587-3.589-2.025-5.53,3.545-.19-.231-1.941-2.511.358,1.878-1.414,1.984-1.836-.422-1.9-2.954-2.533-1.394-3.979a82.036,82.036,0,0,0-98.981-1.9l5.069,2.13-1.9,4.01-3.441,1.561.759,5.213-1.393.907-1.435,2.511.949,3.377,3.314-.337-.613,3.524,3.23-.717,3.948-8.252-.1-3.166,5.234-1.561.824-2.574,5.382-1.793-.147-3.355,3.947-1.076a20.477,20.477,0,0,1,3.081-2.279,23.687,23.687,0,0,1,3.44.233l3.355,1.646,3.989-.886,2.955-2.848,4.453-.59a4.8,4.8,0,0,0,2.258.3,17.214,17.214,0,0,0,3.5-2.173l6.268,2.2,2.659,1.2.632,2.849,2.933-.253.57-1.92,2.722.591.147,1.562-5.361,2.785,4.157,3.462,7.682,2.28,3.693,3.167,4.263-.548.528-2.111,1.435-.717-5.782-2.7-3.123.3,2.3-1.309-3-2.722,3.187-.907,4.685,1.351,1.962,4.347,2.637,2.005,2.933,5.128,4.854,2.111,1.392,6.268,5,1.879.274,2.131-.021,2.6,1.9,3.166.76,1.625,3.355-.147.8-3.566Z" transform="translate(-141.871 -145.13)" fill="#fff"/>
          <path id="Trazado_1183311" data-name="Trazado 1183311" d="M327.651,196.157l.242,1.09-.275,3.25,1.16,2.533,2.258.3.8,3.609-2.49-.443,1.708,10.384L329.7,221.56l2.7,4.981,2.975,1.73,2.278,10.257,4.241,7.429,4.009,5.487,4.622.169.675-4.136.511-.622a82.809,82.809,0,0,0-1.595-10.088A81.592,81.592,0,0,0,327.651,196.157Z" transform="translate(-165.958 -150.391)" fill="#fff"/>
          <path id="Trazado_1183312" data-name="Trazado 1183312" d="M267.767,206.011l-13.76-2.724-5.466,1.413-.528,3.9-2.827-1.964-3.968,1.878,1.012,6.353,3.967,1.71,1.667-4.158,3.482,2.217,7.027,3.821,2.363,5.255,6.331,5.172,7.682-3.1-.823-2.807-2.426-2.849-2.067-7.514,1.183-3.651Z" transform="translate(-150.216 -151.69)" fill="#fff"/>
          <path id="Trazado_1183313" data-name="Trazado 1183313" d="M286.24,208.915l-3.018-.128-2.005,2.638,2.553,5.213,2.469-.549Z" transform="translate(-157.504 -152.692)" fill="#fff"/>
          <path id="Trazado_1183314" data-name="Trazado 1183314" d="M307.613,207.675l-7.218-1.985-1.836-1.984-1.393.907,2.174,3.5,2.236,4.686,3.1.506.4-.886-2.342-2.47,5.361.8Z" transform="translate(-160.41 -151.766)" fill="#fff"/>
          <path id="Trazado_1183315" data-name="Trazado 1183315" d="M260.607,307.466l-.591.929,6.079.444,2.87,2.152,3.693-.421.866-2.385-4.538.21Z" transform="translate(-153.641 -170.671)" fill="#fff"/>
          <path id="Trazado_1183316" data-name="Trazado 1183316" d="M281.559,307.289l-3.736,2.026.907,1.393,4.939-1.1.612-1.73-1.667.569Z" transform="translate(-156.885 -170.638)" fill="#fff"/>
        </g>
      </g>
      <g id="Documents" transform="translate(112.933 108.581)">
        <g id="Grupo_1227815" data-name="Grupo 1227815">
          <g id="Grupo_1227812" data-name="Grupo 1227812" transform="translate(160.912 89.271)">
            <g id="Grupo_1227810" data-name="Grupo 1227810" transform="translate(0 0)">
              <rect id="Rectángulo_422734" data-name="Rectángulo 422734" width="30.868" height="42.995" transform="matrix(0.513, 0.858, -0.858, 0.513, 36.903, 0)" fill="#fff" stroke="#263238" stroke-miterlimit="10" stroke-width="1"/>
              <line id="Línea_647" data-name="Línea 647" x2="11.43" y2="19.119" transform="translate(34.039 6.463)" fill="none" stroke="#263238" stroke-miterlimit="10" stroke-width="1"/>
              <line id="Línea_648" data-name="Línea 648" x2="11.429" y2="19.119" transform="translate(30.271 8.715)" fill="none" stroke="#263238" stroke-miterlimit="10" stroke-width="1"/>
              <line id="Línea_649" data-name="Línea 649" x2="11.43" y2="19.119" transform="translate(26.503 10.968)" fill="none" stroke="#263238" stroke-miterlimit="10" stroke-width="1"/>
              <line id="Línea_650" data-name="Línea 650" x2="11.429" y2="19.119" transform="translate(22.735 13.22)" fill="none" stroke="#263238" stroke-miterlimit="10" stroke-width="1"/>
              <line id="Línea_651" data-name="Línea 651" x2="11.429" y2="19.119" transform="translate(18.967 15.473)" fill="none" stroke="#263238" stroke-miterlimit="10" stroke-width="1"/>
              <line id="Línea_652" data-name="Línea 652" x2="11.429" y2="19.12" transform="translate(15.199 17.725)" fill="none" stroke="#263238" stroke-miterlimit="10" stroke-width="1"/>
              <line id="Línea_653" data-name="Línea 653" x2="11.429" y2="19.119" transform="translate(11.431 19.978)" fill="none" stroke="#263238" stroke-miterlimit="10" stroke-width="1"/>
            </g>
            <g id="Grupo_1227811" data-name="Grupo 1227811" transform="translate(5.517 16.78)">
              <rect id="Rectángulo_422735" data-name="Rectángulo 422735" width="30.868" height="42.995" transform="translate(41.422 0) rotate(74.454)" fill="#fff" stroke="#263238" stroke-miterlimit="10" stroke-width="1"/>
              <line id="Línea_654" data-name="Línea 654" x2="5.968" y2="21.46" transform="translate(36.944 5.471)" fill="none" stroke="#263238" stroke-miterlimit="10" stroke-width="1"/>
              <line id="Línea_655" data-name="Línea 655" x2="5.969" y2="21.461" transform="translate(32.715 6.647)" fill="none" stroke="#263238" stroke-miterlimit="10" stroke-width="1"/>
              <line id="Línea_656" data-name="Línea 656" x2="1.478" y2="5.315" transform="translate(32.976 23.969)" fill="none" stroke="#263238" stroke-miterlimit="10" stroke-width="1"/>
              <line id="Línea_657" data-name="Línea 657" x2="3.997" y2="14.372" transform="translate(28.486 7.823)" fill="none" stroke="#263238" stroke-miterlimit="10" stroke-width="1"/>
              <line id="Línea_658" data-name="Línea 658" x2="3.354" y2="12.06" transform="translate(26.871 18.4)" fill="none" stroke="#263238" stroke-miterlimit="10" stroke-width="1"/>
              <line id="Línea_659" data-name="Línea 659" x2="1.82" y2="6.543" transform="translate(24.256 9)" fill="none" stroke="#263238" stroke-miterlimit="10" stroke-width="1"/>
              <line id="Línea_660" data-name="Línea 660" x2="2.853" y2="10.258" transform="translate(23.142 21.379)" fill="none" stroke="#263238" stroke-miterlimit="10" stroke-width="1"/>
              <line id="Línea_661" data-name="Línea 661" x2="2.571" y2="9.244" transform="translate(20.026 10.176)" fill="none" stroke="#263238" stroke-miterlimit="10" stroke-width="1"/>
              <line id="Línea_662" data-name="Línea 662" x2="3.654" y2="13.136" transform="translate(18.112 19.677)" fill="none" stroke="#263238" stroke-miterlimit="10" stroke-width="1"/>
              <line id="Línea_663" data-name="Línea 663" x2="1.676" y2="6.024" transform="translate(15.797 11.353)" fill="none" stroke="#263238" stroke-miterlimit="10" stroke-width="1"/>
              <line id="Línea_664" data-name="Línea 664" x2="1.21" y2="4.351" transform="translate(16.327 29.639)" fill="none" stroke="#263238" stroke-miterlimit="10" stroke-width="1"/>
              <line id="Línea_665" data-name="Línea 665" x2="4.317" y2="15.522" transform="translate(11.568 12.529)" fill="none" stroke="#263238" stroke-miterlimit="10" stroke-width="1"/>
            </g>
          </g>
          <g id="Grupo_1227813" data-name="Grupo 1227813" transform="translate(86.418)">
            <rect id="Rectángulo_422736" data-name="Rectángulo 422736" width="30.868" height="42.995" transform="matrix(-0.966, 0.259, -0.259, -0.966, 40.952, 41.525)" fill="#fff" stroke="#263238" stroke-miterlimit="10" stroke-width="1"/>
            <line id="Línea_666" data-name="Línea 666" x1="16.673" y2="4.473" transform="translate(13.996 38.313)" fill="none" stroke="#263238" stroke-miterlimit="10" stroke-width="1"/>
            <line id="Línea_667" data-name="Línea 667" x1="2.262" y2="0.607" transform="translate(33.249 37.014)" fill="none" stroke="#263238" stroke-miterlimit="10" stroke-width="1"/>
            <line id="Línea_668" data-name="Línea 668" x1="12.431" y2="3.335" transform="translate(12.859 35.211)" fill="none" stroke="#263238" stroke-miterlimit="10" stroke-width="1"/>
            <line id="Línea_669" data-name="Línea 669" x1="6.3" y2="1.69" transform="translate(28.073 32.774)" fill="none" stroke="#263238" stroke-miterlimit="10" stroke-width="1"/>
            <line id="Línea_670" data-name="Línea 670" x1="4.892" y2="1.313" transform="translate(11.722 32.993)" fill="none" stroke="#263238" stroke-miterlimit="10" stroke-width="1"/>
            <line id="Línea_671" data-name="Línea 671" x1="12.816" y2="3.438" transform="translate(20.42 28.534)" fill="none" stroke="#263238" stroke-miterlimit="10" stroke-width="1"/>
            <line id="Línea_672" data-name="Línea 672" x1="13.863" y2="3.719" transform="translate(10.585 26.347)" fill="none" stroke="#263238" stroke-miterlimit="10" stroke-width="1"/>
            <line id="Línea_673" data-name="Línea 673" x1="5.765" y2="1.546" transform="translate(26.334 24.294)" fill="none" stroke="#263238" stroke-miterlimit="10" stroke-width="1"/>
            <line id="Línea_674" data-name="Línea 674" x1="21.514" y2="5.772" transform="translate(9.447 20.054)" fill="none" stroke="#263238" stroke-miterlimit="10" stroke-width="1"/>
            <line id="Línea_675" data-name="Línea 675" x1="21.514" y2="5.771" transform="translate(8.309 15.814)" fill="none" stroke="#263238" stroke-miterlimit="10" stroke-width="1"/>
            <line id="Línea_676" data-name="Línea 676" x1="21.514" y2="5.772" transform="translate(7.172 11.574)" fill="none" stroke="#263238" stroke-miterlimit="10" stroke-width="1"/>
          </g>
          <g id="Grupo_1227814" data-name="Grupo 1227814" transform="translate(0 69.264)">
            <rect id="Rectángulo_422737" data-name="Rectángulo 422737" width="30.868" height="42.995" transform="matrix(-0.099, 0.995, -0.995, -0.099, 45.85, 4.269)" fill="#fff" stroke="#263238" stroke-miterlimit="10" stroke-width="1"/>
            <line id="Línea_677" data-name="Línea 677" x1="1.012" y2="10.142" transform="translate(37.507 19.769)" fill="none" stroke="#263238" stroke-miterlimit="10" stroke-width="1"/>
            <line id="Línea_678" data-name="Línea 678" x1="0.933" y2="9.35" transform="translate(38.786 7.747)" fill="none" stroke="#263238" stroke-miterlimit="10" stroke-width="1"/>
            <line id="Línea_679" data-name="Línea 679" x1="0.334" y2="3.351" transform="translate(33.138 26.124)" fill="none" stroke="#263238" stroke-miterlimit="10" stroke-width="1"/>
            <line id="Línea_680" data-name="Línea 680" x1="1.636" y2="16.398" transform="translate(33.714 7.311)" fill="none" stroke="#263238" stroke-miterlimit="10" stroke-width="1"/>
            <line id="Línea_681" data-name="Línea 681" x1="0.675" y2="6.758" transform="translate(28.77 22.282)" fill="none" stroke="#263238" stroke-miterlimit="10" stroke-width="1"/>
            <line id="Línea_682" data-name="Línea 682" x1="1.101" y2="11.031" transform="translate(29.881 6.875)" fill="none" stroke="#263238" stroke-miterlimit="10" stroke-width="1"/>
            <line id="Línea_683" data-name="Línea 683" x1="1.807" y2="18.105" transform="translate(24.401 10.499)" fill="none" stroke="#263238" stroke-miterlimit="10" stroke-width="1"/>
            <line id="Línea_684" data-name="Línea 684" x1="0.245" y2="2.457" transform="translate(26.369 6.439)" fill="none" stroke="#263238" stroke-miterlimit="10" stroke-width="1"/>
            <line id="Línea_685" data-name="Línea 685" x1="2.212" y2="22.165" transform="translate(20.033 6.003)" fill="none" stroke="#263238" stroke-miterlimit="10" stroke-width="1"/>
            <line id="Línea_686" data-name="Línea 686" x1="2.212" y2="22.165" transform="translate(15.665 5.567)" fill="none" stroke="#263238" stroke-miterlimit="10" stroke-width="1"/>
            <line id="Línea_687" data-name="Línea 687" x1="2.212" y2="22.165" transform="translate(11.297 5.131)" fill="none" stroke="#263238" stroke-miterlimit="10" stroke-width="1"/>
          </g>
        </g>
      </g>
      <g id="Character_4" transform="translate(143.927 253.375)">
        <g id="Grupo_1227819" data-name="Grupo 1227819">
          <path id="Trazado_1183317" data-name="Trazado 1183317" d="M233.923,459.426s19.523,1.738,29.767-12.589,9.122-39.341,7.2-49.308h-79.7S189.754,462.574,233.923,459.426Z" transform="translate(-173.338 -323.744)" fill="#fff" stroke="#263238" stroke-miterlimit="10" stroke-width="1"/>
          <g id="Grupo_1227816" data-name="Grupo 1227816" transform="translate(77.058 12.193)">
            <path id="Trazado_1183318" data-name="Trazado 1183318" d="M279.879,343.278s-2.94-5.88-2.94-6.431,3.123-7.35,2.021-9.37-4.594-4.41-5.7-5.145-5.88,2.2-7.35,3.123,0,2.021.551,2.021l3.307-.551a17.386,17.386,0,0,0-2.389,2.572c-.367.735,0,3.307,0,3.858s.184.735.918,1.654.184,1.838,1.838,4.226a80.106,80.106,0,0,1,4.226,7.717Z" transform="translate(-263.895 -322.215)" fill="#fff" stroke="#263238" stroke-miterlimit="10" stroke-width="1"/>
            <line id="Línea_688" data-name="Línea 688" x1="21.681" y2="2.021" transform="translate(0 3.425)" fill="none" stroke="#263238" stroke-miterlimit="10" stroke-width="1"/>
            <path id="Trazado_1183319" data-name="Trazado 1183319" d="M274.99,331.259s-1.286-6.247-2.572-6.431-6.247,2.2-5.7,3.124,3.307-.551,3.307-.551-3.858,6.247-1.47,8.085" transform="translate(-264.15 -322.689)" fill="#fff" stroke="#263238" stroke-miterlimit="10" stroke-width="1"/>
          </g>
          <g id="Grupo_1227817" data-name="Grupo 1227817" transform="translate(43.353)">
            <rect id="Rectángulo_422738" data-name="Rectángulo 422738" width="30.868" height="42.995" fill="#fff" stroke="#263238" stroke-miterlimit="10" stroke-width="1"/>
            <line id="Línea_689" data-name="Línea 689" x2="22.275" transform="translate(4.077 5.761)" fill="none" stroke="#263238" stroke-miterlimit="10" stroke-width="1"/>
            <line id="Línea_690" data-name="Línea 690" x2="9.168" transform="translate(17.185 10.151)" fill="none" stroke="#263238" stroke-miterlimit="10" stroke-width="1"/>
            <line id="Línea_691" data-name="Línea 691" x2="11.508" transform="translate(4.077 10.151)" fill="none" stroke="#263238" stroke-miterlimit="10" stroke-width="1"/>
            <line id="Línea_692" data-name="Línea 692" x2="4.168" transform="translate(22.184 14.541)" fill="none" stroke="#263238" stroke-miterlimit="10" stroke-width="1"/>
            <line id="Línea_693" data-name="Línea 693" x2="15.708" transform="translate(4.077 14.541)" fill="none" stroke="#263238" stroke-miterlimit="10" stroke-width="1"/>
            <line id="Línea_694" data-name="Línea 694" x2="12.767" transform="translate(13.585 18.931)" fill="none" stroke="#263238" stroke-miterlimit="10" stroke-width="1"/>
            <line id="Línea_695" data-name="Línea 695" x2="7.309" transform="translate(4.077 18.931)" fill="none" stroke="#263238" stroke-miterlimit="10" stroke-width="1"/>
            <line id="Línea_696" data-name="Línea 696" x2="22.275" transform="translate(4.077 23.321)" fill="none" stroke="#263238" stroke-miterlimit="10" stroke-width="1"/>
            <line id="Línea_697" data-name="Línea 697" x2="22.275" transform="translate(4.077 27.711)" fill="none" stroke="#263238" stroke-miterlimit="10" stroke-width="1"/>
            <line id="Línea_698" data-name="Línea 698" x2="22.275" transform="translate(4.077 32.101)" fill="none" stroke="#263238" stroke-miterlimit="10" stroke-width="1"/>
          </g>
          <g id="Grupo_1227818" data-name="Grupo 1227818" transform="translate(29.997 12.269)">
            <path id="Trazado_1183320" data-name="Trazado 1183320" d="M206.04,347.577l5.4-7.893s1.454-8.308,1.454-9.347,6.239-8.03,6.239-8.03v5.815s1.446-1.94,2.692-3.809,2.285-1.662,2.077.415-3.324,6.439-3.324,6.439,1.246,1.87.415,5.192-5.815,6.854-5.815,6.854l-2.493,8.1Z" transform="translate(-206.04 -322.308)" fill="#fff" stroke="#263238" stroke-miterlimit="10" stroke-width="1"/>
            <line id="Línea_699" data-name="Línea 699" x1="3.404" y2="3.68" transform="translate(9.474 6.161)" fill="none" stroke="#263238" stroke-miterlimit="10" stroke-width="1"/>
          </g>
          <path id="Trazado_1183321" data-name="Trazado 1183321" d="M282.247,378.328c-6.247-8.819-18.885-32.154-18.885-32.154l-8.268,6.8,10.729,31.6-15.8.367-19.9.658-19.9-.658-15.8-.367,13.964-29.214-8.268-6.8-21.865,30.868c-6.247,8.819-9.922,14.7-8.636,17.271s26.091,11.024,26.091,11.024l8.636,21.314H255.9l8.636-21.314s24.8-8.452,26.091-11.024S288.495,387.148,282.247,378.328Z" transform="translate(-169.361 -314.388)" fill="#fff" stroke="#263238" stroke-miterlimit="10" stroke-width="1"/>
          <path id="Trazado_1183322" data-name="Trazado 1183322" d="M287.313,393.131s15.138,1.838,19.916,5.512" transform="translate(-190.851 -322.943)" fill="none" stroke="#263238" stroke-miterlimit="10" stroke-width="1"/>
          <path id="Trazado_1183323" data-name="Trazado 1183323" d="M195.95,393.131s-13.046,2.021-18.19,5.7" transform="translate(-170.891 -322.943)" fill="none" stroke="#263238" stroke-miterlimit="10" stroke-width="1"/>
          <path id="Trazado_1183324" data-name="Trazado 1183324" d="M252.772,420.091s-11.943,12.494-19.293,16.537" transform="translate(-181.043 -327.855)" fill="none" stroke="#263238" stroke-miterlimit="10" stroke-width="1"/>
          <line id="Línea_700" data-name="Línea 700" x1="7.901" y2="7.166" transform="translate(55.376 97.014)" fill="none" stroke="#263238" stroke-miterlimit="10" stroke-width="1"/>
          <line id="Línea_701" data-name="Línea 701" x1="6.247" y1="6.615" transform="translate(20.099 86.724)" fill="none" stroke="#263238" stroke-miterlimit="10" stroke-width="1"/>
          <line id="Línea_702" data-name="Línea 702" x1="5.584" y2="7.901" transform="translate(95.176 85.439)" fill="none" stroke="#263238" stroke-miterlimit="10" stroke-width="1"/>
          <path id="Trazado_1183325" data-name="Trazado 1183325" d="M193.256,444.456s2.055,7.454,10.461,16.66c4.069,4.455,8.932,10.557,22.278,12.786,12.944,2.161,24.409-.581,30.608-4.843,6.686-4.6,12.979-14.335,18.21-23.828L273.07,440l-77.295.194Z" transform="translate(-173.714 -331.482)" fill="#263238"/>
          <path id="Trazado_1183326" data-name="Trazado 1183326" d="M197.545,436.232c11.452,1.125,46.1,3.888,71.67-.861a5.521,5.521,0,0,1,6.468,4.488h0a5.512,5.512,0,0,1-4.634,6.387c-12.6,1.844-44.558,5.378-74.851-.576a4.782,4.782,0,0,1-3.669-6.112h0A4.764,4.764,0,0,1,197.545,436.232Z" transform="translate(-173.542 -330.621)" fill="#263238"/>
          <path id="Trazado_1183327" data-name="Trazado 1183327" d="M244.536,336.767s-1.838-4.594-8.452-2.2-9.738,4.042-10.106,10.29-6.43,16.353-5.512,23.151,3.124,5.329,2.389,8.819-5.512,4.41-5.512,4.41l-1.838-.918a60.613,60.613,0,0,0,5.512,7.534c2.94,3.307,6.982,4.777,13.964,6.614s12.126.918,17.271-2.2,7.9-5.512,8.636-9.187l.735-3.674s-3.674-1.286-3.674-3.123,4.226-6.063,4.961-11.759-.918-15.986-5.7-22.967S247.292,334.93,244.536,336.767Z" transform="translate(-177.768 -312.147)" fill="#263238"/>
        </g>
      </g>
      <g id="Character_3" transform="translate(247.673 101.906)">
        <g id="Grupo_1227823" data-name="Grupo 1227823" transform="translate(0 0)">
          <rect id="Rectángulo_422739" data-name="Rectángulo 422739" width="32.169" height="44.157" transform="translate(0 11.407) rotate(-20.769)" fill="#fff" stroke="#263238" stroke-miterlimit="10" stroke-width="1"/>
          <g id="Grupo_1227820" data-name="Grupo 1227820" transform="translate(10.356 11.343)">
            <rect id="Rectángulo_422740" data-name="Rectángulo 422740" width="3.706" height="10.325" transform="translate(0 20.551) rotate(-20.329)" fill="#263238"/>
            <rect id="Rectángulo_422741" data-name="Rectángulo 422741" width="3.706" height="6.354" transform="translate(6.84 22.254) rotate(-20.329)" fill="#263238"/>
            <rect id="Rectángulo_422742" data-name="Rectángulo 422742" width="3.706" height="10.325" transform="translate(10.922 16.505) rotate(-20.329)" fill="#263238"/>
            <rect id="Rectángulo_422743" data-name="Rectángulo 422743" width="3.706" height="17.473" transform="translate(13.901 7.779) rotate(-20.329)" fill="#263238"/>
            <rect id="Rectángulo_422744" data-name="Rectángulo 422744" width="3.706" height="22.239" transform="translate(17.707 1.288) rotate(-20.329)" fill="#263238"/>
          </g>
          <line id="Línea_703" data-name="Línea 703" y1="7.148" x2="19.591" transform="translate(6.066 8.47)" fill="none" stroke="#263238" stroke-linecap="round" stroke-linejoin="round" stroke-miterlimit="10" stroke-width="1"/>
          <line id="Línea_704" data-name="Línea 704" y1="7.148" x2="19.591" transform="translate(7.39 11.912)" fill="none" stroke="#263238" stroke-linecap="round" stroke-linejoin="round" stroke-miterlimit="10" stroke-width="1"/>
          <path id="Trazado_1183328" data-name="Trazado 1183328" d="M354.227,164.394l-3.86-2.413s-.759-5.463-1.366-6.07-4.1-3.945-4.7-4.7-.91-2.731-1.366-2.731-2.125,1.821-1.517,4.4a5.758,5.758,0,0,0,3.186,3.642s-1.669,6.829-.607,8.346a13.541,13.541,0,0,0,3.186,2.883l4.552,3.338,3.642-5.918Z" transform="translate(-304.43 -126.898)" fill="#999" stroke="#263238" stroke-miterlimit="10" stroke-width="1"/>
          <path id="Trazado_1183329" data-name="Trazado 1183329" d="M448.958,204.48c-.311-.932-.932-5.281-5.9-5.9s-8.077,4.66-8.077,4.66-12.116,13.358-15.222,17.4-6.834,10.562-14.29,14.29a36.87,36.87,0,0,1-8.833,2.756,115.646,115.646,0,0,1-5.82,57.393c8.8,1.195,18.965,2.343,21.488,1.67,4.66-1.242,6.524-3.728,8.7-7.145s27.648-35.725,28.269-36.967a53.769,53.769,0,0,0,4.038-9.941C454.86,237.409,449.269,205.411,448.958,204.48Z" transform="translate(-313.454 -136.018)" fill="#263238"/>
          <path id="Trazado_1183330" data-name="Trazado 1183330" d="M402.074,285.376c-1.625-1.3-3.064-4.314-4.392-7.72a115.738,115.738,0,0,1-6.735,31.534c6.773.511,15.844-.206,18.893-3,3.728-3.417,6.524-10.562,6.524-10.562S406.734,289.1,402.074,285.376Z" transform="translate(-313.479 -150.435)" fill="#ff9d1c" stroke="#263238" stroke-miterlimit="10" stroke-width="1"/>
          <path id="Trazado_1183331" data-name="Trazado 1183331" d="M404.558,171.385c-1.786,0-5.485,1.786-5.867,2.168s-19.9,4.592-19.9,4.592-14.668-6.888-16.582-7.525-6.122-2.678-6.122-2.678l-4.592,7.015,8.163,5.995s11.99,8.674,16.965,11.48,19.233.337,19.233.337l13.428-19.779A15.124,15.124,0,0,0,404.558,171.385Z" transform="translate(-306.291 -130.445)" fill="#fff" stroke="#263238" stroke-miterlimit="10" stroke-width="1"/>
          <path id="Trazado_1183332" data-name="Trazado 1183332" d="M403.68,190.374l-.326,3.083s-1.4,17.73-1.659,20.026-2.168,15.306-2.168,15.306-.693,2.493-1.432,5.207a115.728,115.728,0,0,1,.254,31.132,129.9,129.9,0,0,0,8.831,10.6c1.913,2.168,6.122,5.1,7.908,4.337s7.015-7.143,7.015-7.143,6.377-13.9,7.908-17.092S446.338,230.958,448,228.023s1.4-4.72-.383-7.908-10.459-25.128-11.352-27.423-18.24-16.965-18.24-16.965a21.9,21.9,0,0,0-2.457-2.15l-.971,1.58-7,5.013" transform="translate(-314.781 -131.472)" fill="#fff" stroke="#263238" stroke-miterlimit="10" stroke-width="1"/>
          <path id="Trazado_1183333" data-name="Trazado 1183333" d="M421.027,206.208l-6.632-2.551,2.041,12.5s-6,20.153-6,20.536-1.531,2.678-3.571,4.592-2.806,3.189-6,5.357c-.638.434-1.191.829-1.688,1.195q.319,4.5.289,8.953l2.547.694s6.76-6,10.2-13.775,3.827-10.2,4.464-16.327a66.349,66.349,0,0,1,1.531-9.567c.128-.51,7.653-6.377,7.653-6.377Z" transform="translate(-314.98 -136.952)" fill="#263238"/>
          <path id="Trazado_1183334" data-name="Trazado 1183334" d="M419.071,188.8s-2.169,4.592-2.551,5.74a44.262,44.262,0,0,1-2.168,4.337s4.592,3.316,5.612,4.082,6.123,4.209,6.123,4.209l3.444,6.377s1.531-2.3,3.7-8.8,2.3-9.821,2.806-10.586-2.678-4.72-6-6.632-7.908-2.168-8.929-1.021Z" transform="translate(-317.743 -133.702)" fill="#fff" stroke="#263238" stroke-miterlimit="10" stroke-width="1"/>
          <path id="Trazado_1183335" data-name="Trazado 1183335" d="M420.746,198.822a52.062,52.062,0,0,0,1.659,8.036c.893,2.3,1.4,2.423,2.806,1.531s4.847-5.357,4.847-5.357Z" transform="translate(-318.908 -136.071)" fill="#fff" stroke="#263238" stroke-miterlimit="10" stroke-width="1"/>
          <g id="Grupo_1227821" data-name="Grupo 1227821" transform="translate(98.596 23.081)">
            <path id="Trazado_1183336" data-name="Trazado 1183336" d="M450.731,187.894s2.835-4.8,4.8-1.527-1.527,6.542-3.925,7.2a31.871,31.871,0,0,1-4.361.873Z" transform="translate(-422.331 -156.675)" fill="#999" stroke="#263238" stroke-miterlimit="10" stroke-width="1"/>
            <path id="Trazado_1183337" data-name="Trazado 1183337" d="M422.2,170.109s1.551-5.353-2.177-4.54-3.718,5.6-2.55,7.791a31.882,31.882,0,0,0,2.354,3.774Z" transform="translate(-416.781 -153.078)" fill="#999" stroke="#263238" stroke-miterlimit="10" stroke-width="1"/>
            <path id="Trazado_1183338" data-name="Trazado 1183338" d="M431.02,151.22s-7.851,3.053-9.814,10.25-3.925,16.138-2.835,20.936,1.309,9.378,2.835,10.9,2.181,3.053,6.324,2.617,12.431-4.361,14.393-7.851,6.107-6.761,7.633-16.793,1.744-14.175-4.58-18.537S431.02,151.22,431.02,151.22Z" transform="translate(-417.014 -150.314)" fill="#999" stroke="#263238" stroke-miterlimit="10" stroke-width="1"/>
            <path id="Trazado_1183339" data-name="Trazado 1183339" d="M427.125,184.629s-2.3,3.7-1.148,5.612,4.592,2.806,7.015,1.148" transform="translate(-418.398 -156.566)" fill="none" stroke="#263238" stroke-miterlimit="10" stroke-width="1"/>
            <path id="Trazado_1183340" data-name="Trazado 1183340" d="M422.929,193.207s.638,3.189,4.72,3.571a9.861,9.861,0,0,0,6.377-1.276" transform="translate(-417.902 -158.129)" fill="none" stroke="#263238" stroke-miterlimit="10" stroke-width="1"/>
            <path id="Trazado_1183341" data-name="Trazado 1183341" d="M429.42,175.222s-2.678-5.484-5.867-5.1" transform="translate(-418.015 -153.919)" fill="none" stroke="#263238" stroke-miterlimit="10" stroke-width="1"/>
            <path id="Trazado_1183342" data-name="Trazado 1183342" d="M437.746,178.679s5.485-.893,8.291,2.551" transform="translate(-420.601 -155.463)" fill="none" stroke="#263238" stroke-miterlimit="10" stroke-width="1"/>
            <path id="Trazado_1183343" data-name="Trazado 1183343" d="M426.685,177.524c0,.986-.457,1.786-1.021,1.786s-1.021-.8-1.021-1.786.457-1.786,1.021-1.786S426.685,176.538,426.685,177.524Z" transform="translate(-418.214 -154.946)" fill="#263238"/>
            <path id="Trazado_1183344" data-name="Trazado 1183344" d="M440.416,185.65c-.441.882-1.206,1.394-1.711,1.142s-.556-1.171-.115-2.053,1.206-1.394,1.71-1.142S440.857,184.768,440.416,185.65Z" transform="translate(-420.7 -156.366)" fill="#263238"/>
            <path id="Trazado_1183345" data-name="Trazado 1183345" d="M445.548,152.747c-6.324-4.361-13.957-1.527-13.957-1.527s-7.851,3.053-9.814,10.25c-.2.725-.4,1.472-.59,2.227.618-.07,4.022-.523,4.486-2.029a17.721,17.721,0,0,1,3.189-5.867c1.4-1.531,4.847,5.74,9.439,5.613s9.566.255,9.312,1.4-3.061,8.036-2.168,9.949,1.914,1.914,1.914,3.444a23.739,23.739,0,0,1-.383,3.571l.757-.082a31.469,31.469,0,0,0,2.4-8.414C451.654,161.252,451.872,157.108,445.548,152.747Z" transform="translate(-417.584 -150.314)" fill="#263238"/>
          </g>
          <path id="Trazado_1183346" data-name="Trazado 1183346" d="M442.88,240.943s-12.9,7.89-13.353,10.015-4.856,13.657-3.187,19.726,9.711,12.594,13.657,9.256,4.249-10.47,6.222-18.209,7.587-21.851,7.587-23.975a5.1,5.1,0,0,0-.91-3.186" transform="translate(-319.859 -142.585)" fill="#fff" stroke="#263238" stroke-miterlimit="10" stroke-width="1"/>
          <path id="Trazado_1183347" data-name="Trazado 1183347" d="M424.6,262.316s13.2,12.746,14.112,15.629,1.062,5.766-1.517,8.649-6.968,6.366-11.45,2.273-6-14.108-6.3-16.992a60.011,60.011,0,0,0-1.366-6.98l4.7-3.794Z" transform="translate(-318.421 -147.419)" fill="#fff" stroke="#263238" stroke-miterlimit="10" stroke-width="1"/>
          <g id="Grupo_1227822" data-name="Grupo 1227822" transform="translate(89.44 109.207)">
            <path id="Trazado_1183348" data-name="Trazado 1183348" d="M421.607,255.983s-3.316-.638-4.72.638a12.706,12.706,0,0,0-2.678,3.954,6.566,6.566,0,0,1-4.082,2.933c-2.04.51-3.316,3.061-.638,3.7s6.76.383,9.056-.893A10.656,10.656,0,0,0,422.5,263a9.14,9.14,0,0,1,2.551-2.551,9.83,9.83,0,0,0,2.678-.765c1.531-.766,3.189-2.041,2.551-3.189s-1.021-1.021-3.189-.383a13.22,13.22,0,0,1-3.316.638Z" transform="translate(-406.02 -255.629)" fill="#999" stroke="#263238" stroke-miterlimit="10" stroke-width="1"/>
            <path id="Trazado_1183349" data-name="Trazado 1183349" d="M405.764,264.081s-.547-3.559.274-4.722,1.506.137,1.574,1.506a13.385,13.385,0,0,0,.616,3.422c.205.479.821.753,1.506,1.026s.958,1.164-.137,1.437a2.626,2.626,0,0,1-2.464-.616C407,265.791,405.764,264.081,405.764,264.081Z" transform="translate(-405.586 -256.226)" fill="#999" stroke="#263238" stroke-miterlimit="10" stroke-width="1"/>
            <path id="Trazado_1183350" data-name="Trazado 1183350" d="M412.522,269.027a13.164,13.164,0,0,1-3.689-.588,4.974,4.974,0,0,1-1.9-3.539c-.111-1.47-.125-2.336,1.094-1.88s1.083,1.345,1.664,2.462.877,2,1.245,1.971a3.161,3.161,0,0,1,1.155.435S413.425,268.666,412.522,269.027Z" transform="translate(-405.823 -256.953)" fill="#999" stroke="#263238" stroke-miterlimit="10" stroke-width="1"/>
            <path id="Trazado_1183351" data-name="Trazado 1183351" d="M418.319,267.86a10.309,10.309,0,0,1-2.551,1.531c-1.148.383-3.661-.33-4.937-1.35s-6.145-2.674-3.149-3.764c2.259-.821,4.513,1.671,5.917,2.309s3.444-.893,3.954-1.148" transform="translate(-405.793 -257.174)" fill="#999" stroke="#263238" stroke-miterlimit="10" stroke-width="1"/>
            <path id="Trazado_1183352" data-name="Trazado 1183352" d="M423.426,264.1s-.765,1.4-1.659,3.061-1.659,1.148-2.3.255-6.377-4.209-6.377-4.209-.51-1.659,2.04-1.531,5.613,2.933,5.613,2.933" transform="translate(-406.946 -256.729)" fill="#999" stroke="#263238" stroke-miterlimit="10" stroke-width="1"/>
          </g>
        </g>
      </g>
      <g id="Character_2" transform="translate(174.203 11.299)">
        <g id="Grupo_1227830" data-name="Grupo 1227830">
          <path id="Trazado_1183353" data-name="Trazado 1183353" d="M267.569,17.2s3.741-5.4,13.095,1.039,4.572,15.8,1.663,19.33-2.494,2.079,5.819,6.236,4.572,12.886,2.287,15.173.415,2.494,3.117,6.859-1.247,12.055-4.989,14.341-13.51,3.741-22.239,1.039-8.02-18.253-5.612-29.93,4.78-19.954,3.117-24.526S265.491,16.575,267.569,17.2Z" transform="translate(-215.992 -11.987)" fill="#263238"/>
          <g id="Grupo_1227825" data-name="Grupo 1227825" transform="translate(8.958 42.475)">
            <path id="Trazado_1183354" data-name="Trazado 1183354" d="M264.731,114.911,277.914,70.58l-22.329-7.343L240.6,66.085s-22.329,7.494-23.229,9.591c-.784,1.831,12.123,31.958,15.425,39.605A115.781,115.781,0,0,1,264.731,114.911Z" transform="translate(-217.335 -63.237)" fill="#ff9d1c" stroke="#263238" stroke-linecap="round" stroke-linejoin="round" stroke-miterlimit="10" stroke-width="1"/>
            <g id="Grupo_1227824" data-name="Grupo 1227824" transform="translate(13.618 0)">
              <path id="Trazado_1183355" data-name="Trazado 1183355" d="M268.47,66.476l-9.851-3.239-14.986,2.848s-4.563,1.532-9.645,3.4a48.135,48.135,0,0,0,3.95,16.379c4.945,11.69,16.185,22.779,16.185,22.779s11.24-11.839,14.237-28.474A36.108,36.108,0,0,0,268.47,66.476Z" transform="translate(-233.987 -63.237)" fill="#ff9d1c" stroke="#263238" stroke-linecap="round" stroke-linejoin="round" stroke-miterlimit="10" stroke-width="1"/>
              <line id="Línea_705" data-name="Línea 705" x2="1.46" y2="6.571" transform="translate(9.796 4.673)" fill="none" stroke="#263238" stroke-linecap="round" stroke-linejoin="round" stroke-miterlimit="10" stroke-width="1"/>
            </g>
            <path id="Trazado_1183356" data-name="Trazado 1183356" d="M245.431,66.084s-.59.2-1.572.535a74.832,74.832,0,0,0,2.471,17,52.826,52.826,0,0,0,9.591,20.082s6.594-19.182,7.494-27.724a44.181,44.181,0,0,0-.371-11.875l-2.626-.864Z" transform="translate(-222.168 -63.237)" fill="#fff" stroke="#263238" stroke-linecap="round" stroke-linejoin="round" stroke-miterlimit="10" stroke-width="1"/>
            <path id="Trazado_1183357" data-name="Trazado 1183357" d="M261.653,93.331a31.988,31.988,0,0,1-13.264-.015,51.1,51.1,0,0,0,8.358,15.864S259.469,101.259,261.653,93.331Z" transform="translate(-222.993 -68.717)" fill="none" stroke="#263238" stroke-linecap="round" stroke-linejoin="round" stroke-miterlimit="10" stroke-width="1"/>
          </g>
          <g id="Grupo_1227826" data-name="Grupo 1227826" transform="translate(13.658)">
            <path id="Trazado_1183358" data-name="Trazado 1183358" d="M264.448,36.635s2.286-5.4,1.455-9.766.831-9.766-10.6-14.13-16.207,2.078-20.571,7.48-3.948,7.48-4.364,8.935-4.156,0-6.233,4.156-1.246,5.818,3.948,7.688a51.713,51.713,0,0,0,6.442,2.078l19.016-2.919s.932-1.861,2.179.01,1.455,2.7,3.948,2.7,2.7-1.246,2.7-1.246Z" transform="translate(-223.083 -11.299)" fill="#263238"/>
            <path id="Trazado_1183359" data-name="Trazado 1183359" d="M235.551,43.736s3.117,11.637,4.987,14.753,6.233,9.559,9.351,9.974,10.182-5.818,11.429-9.351,3.324-12.467,3.324-12.467a5.557,5.557,0,0,1-5.818-2.7,33.609,33.609,0,0,0-3.478-5.074s2.328,3.7-9.584,6.779C238.516,47.518,235.551,43.736,235.551,43.736Z" transform="translate(-225.354 -16.322)" fill="#fff" stroke="#263238" stroke-linecap="round" stroke-linejoin="round" stroke-miterlimit="10" stroke-width="1"/>
            <path id="Trazado_1183360" data-name="Trazado 1183360" d="M270.983,47.256s1.039-5.61,2.078-4.987,2.078,1.663.623,4.572A11.272,11.272,0,0,1,270.36,51Z" transform="translate(-231.696 -16.933)" fill="#fff" stroke="#263238" stroke-linecap="round" stroke-linejoin="round" stroke-miterlimit="10" stroke-width="1"/>
            <path id="Trazado_1183361" data-name="Trazado 1183361" d="M249.644,60.949s-.353,3.533.236,4,2.944-1.3,2.944-1.3" transform="translate(-227.903 -20.345)" fill="none" stroke="#263238" stroke-linecap="round" stroke-linejoin="round" stroke-miterlimit="10" stroke-width="1"/>
            <path id="Trazado_1183362" data-name="Trazado 1183362" d="M255.254,66.708a5.744,5.744,0,0,1-6.594.589" transform="translate(-227.743 -21.394)" fill="none" stroke="#263238" stroke-linecap="round" stroke-linejoin="round" stroke-miterlimit="10" stroke-width="1"/>
            <path id="Trazado_1183363" data-name="Trazado 1183363" d="M256.789,56.25c0,.745-.452,1.349-1.011,1.349s-1.011-.6-1.011-1.349.453-1.349,1.011-1.349S256.789,55.505,256.789,56.25Z" transform="translate(-228.855 -19.243)" fill="#263238"/>
            <ellipse id="Elipse_12733" data-name="Elipse 12733" cx="1.011" cy="1.349" rx="1.011" ry="1.349" transform="translate(17.55 35.015)" fill="#263238"/>
            <path id="Trazado_1183364" data-name="Trazado 1183364" d="M253.843,52.362a6.338,6.338,0,0,1,5.064.236" transform="translate(-228.687 -18.706)" fill="none" stroke="#263238" stroke-linecap="round" stroke-linejoin="round" stroke-miterlimit="10" stroke-width="1"/>
            <path id="Trazado_1183365" data-name="Trazado 1183365" d="M246.353,52.586s-1.884-2.473-5.182-.707" transform="translate(-226.378 -18.576)" fill="none" stroke="#263238" stroke-linecap="round" stroke-linejoin="round" stroke-miterlimit="10" stroke-width="1"/>
          </g>
          <g id="Grupo_1227827" data-name="Grupo 1227827" transform="translate(94.414 45.788)">
            <path id="Trazado_1183366" data-name="Trazado 1183366" d="M321.83,84.207l1.349-3.6s.3-3.746.6-5.095,1.948-2.1,3.447-3.746,2.7-4.2,3.447-3.447.749,1.5.15,2.547a17.116,17.116,0,0,0-1.2,2.4c-.15.45,7.343-2.848,7.343-2.848s3.3-3.9,4.047-3-.45,5.545-1.049,7.493a11.807,11.807,0,0,1-4.646,5.845c-1.948,1.049-7.943,3.3-7.943,3.3l-2.248,3.9Z" transform="translate(-321.83 -67.287)" fill="#fff" stroke="#263238" stroke-linecap="round" stroke-linejoin="round" stroke-miterlimit="10" stroke-width="1"/>
            <path id="Trazado_1183367" data-name="Trazado 1183367" d="M326.961,81.411s2.7-2.4,4.8-2.848a27.162,27.162,0,0,0,5.245-2.1s2.248-7.494,2.7-6.295.15,4.2-.45,6.295a9.135,9.135,0,0,1-3,4.8" transform="translate(-322.765 -67.789)" fill="#fff" stroke="#263238" stroke-linecap="round" stroke-linejoin="round" stroke-miterlimit="10" stroke-width="1"/>
          </g>
          <path id="Trazado_1183368" data-name="Trazado 1183368" d="M289.675,72.216l10.191,29.823L314.552,85.1l4.945,6.444s-16.335,25.776-17.384,26.526a4.745,4.745,0,0,1-3.447.9c-1.8,0-16.785-20.681-16.785-20.681Z" transform="translate(-220.138 -22.398)" fill="#ff9d1c" stroke="#263238" stroke-linecap="round" stroke-linejoin="round" stroke-miterlimit="10" stroke-width="1"/>
          <g id="Grupo_1227829" data-name="Grupo 1227829" transform="translate(0 54.914)">
            <path id="Trazado_1183369" data-name="Trazado 1183369" d="M215.374,78.447l-8.992,43.76,27.575,16.785,2.4-6.744-15.136-15.436,3-14.986Z" transform="translate(-206.382 -78.447)" fill="#ff9d1c" stroke="#263238" stroke-linecap="round" stroke-linejoin="round" stroke-miterlimit="10" stroke-width="1"/>
            <g id="Grupo_1227828" data-name="Grupo 1227828" transform="translate(28.025 50.871)">
              <path id="Trazado_1183370" data-name="Trazado 1183370" d="M242.6,143.581l9.707-.555s5.483-.366,7.431-1.564,3.428-.976,3.428.073-.969,1.71-2.978,2.924c-.229.138,4.536,2.956,6.134,4.115a.849.849,0,0,1,.277,1.033h0a.851.851,0,0,1-1.06.456l-6.9-2.436-4.046-.15,6.594,2.7,4.379,2.447a1.048,1.048,0,0,1,.5,1.192h0a1.044,1.044,0,0,1-1.112.769c-1.37-.138-3.891-.4-4.217-.512-.45-.15-6.444-2.4-6.444-2.4l3.746,2.848,2.763,1.956a.978.978,0,0,1,.207,1.4h0a.978.978,0,0,1-1.074.33l-4.892-1.587-3.447-.6-4.945-3.3-5.995-4.046Z" transform="translate(-240.65 -140.651)" fill="#fff" stroke="#263238" stroke-linecap="round" stroke-linejoin="round" stroke-miterlimit="10" stroke-width="1"/>
              <line id="Línea_706" data-name="Línea 706" x1="3.297" y1="3.297" transform="translate(9.741 12.372)" fill="none" stroke="#263238" stroke-linecap="round" stroke-linejoin="round" stroke-miterlimit="10" stroke-width="1"/>
              <path id="Trazado_1183371" data-name="Trazado 1183371" d="M263.24,144.914s-3.123-2.151-5.82-1.7" transform="translate(-243.705 -141.107)" fill="none" stroke="#263238" stroke-linecap="round" stroke-linejoin="round" stroke-miterlimit="10" stroke-width="1"/>
            </g>
          </g>
        </g>
      </g>
      <g id="Character_1" transform="translate(42.163 108.858)">
        <g id="Grupo_1227836" data-name="Grupo 1227836" transform="translate(0 0)">
          <path id="Trazado_1183372" data-name="Trazado 1183372" d="M105.2,280.009a116.442,116.442,0,0,1-2.645-30.983L58.664,199.5a5.882,5.882,0,0,0-10.274,3.549l-2.472,41.2a8.642,8.642,0,0,0,1.819,5.847c7.552,9.66,33.988,43.117,38.51,43.978,4.945.942,20.854-.233,22.881-.388A117.686,117.686,0,0,1,105.2,280.009Z" transform="translate(-45.103 -142.786)" fill="#263238"/>
          <g id="Grupo_1227835" data-name="Grupo 1227835">
            <g id="Grupo_1227831" data-name="Grupo 1227831" transform="translate(84.654)">
              <path id="Trazado_1183373" data-name="Trazado 1183373" d="M150.6,151.459s-.191-5.34-.572-6.1-1.907-3.242-1.526-4.577.954-2.67,1.717-5.149,1.144-3.242,2.1-3.051.954,1.526.381,3.242a13.141,13.141,0,0,0-.572,3.624l1.717,2.48s1.643-6.368,1.961-7.323.875-2.944,1.512-3.262a1.26,1.26,0,0,1,1.273.239s.557-1.193,1.432-.954.955.4,1.194,1.432,1.193.716,1.751,1.91a12.157,12.157,0,0,1,.8,2.865s.318-.318.4,2.308A34.991,34.991,0,0,1,164,146.22c-.4,2.546-2.148,3.74-3.342,5.013s-2.547,2.228-2.785,2.705-.8.8-1.035,1.035-6.843-1.512-6.843-1.512Z" transform="translate(-148.439 -130.592)" fill="#ccc" stroke="#263238" stroke-linecap="round" stroke-linejoin="round" stroke-miterlimit="10" stroke-width="1"/>
              <path id="Trazado_1183374" data-name="Trazado 1183374" d="M160.173,132.478l-.4,3.9-1.353,4.854-.4,1.432" transform="translate(-150.185 -130.936)" fill="none" stroke="#263238" stroke-linecap="round" stroke-linejoin="round" stroke-miterlimit="10" stroke-width="1"/>
              <path id="Trazado_1183375" data-name="Trazado 1183375" d="M163.774,133.062a4.225,4.225,0,0,0-.557,2.228,47.918,47.918,0,0,1-.716,6.127,11.128,11.128,0,0,1-.875,2.387" transform="translate(-150.841 -131.042)" fill="none" stroke="#263238" stroke-linecap="round" stroke-linejoin="round" stroke-miterlimit="10" stroke-width="1"/>
              <path id="Trazado_1183376" data-name="Trazado 1183376" d="M166.445,139s-1.035-.079-1.194,1.512-.478,3.979-.557,4.3a4.8,4.8,0,0,1-.636,1.035" transform="translate(-151.285 -132.124)" fill="none" stroke="#263238" stroke-linecap="round" stroke-linejoin="round" stroke-miterlimit="10" stroke-width="1"/>
              <path id="Trazado_1183377" data-name="Trazado 1183377" d="M155.788,145.71s1.114,1.91.875,3.023-.478,1.83-.478,1.83" transform="translate(-149.778 -133.347)" fill="none" stroke="#263238" stroke-linecap="round" stroke-linejoin="round" stroke-miterlimit="10" stroke-width="1"/>
            </g>
            <path id="Trazado_1183378" data-name="Trazado 1183378" d="M92.973,181.081s6.865,2.1,11.252,2.1,18.69,2.1,18.69,2.1L138.172,156.1a7.235,7.235,0,0,1,2.67.191c1.335.382,6.294,3.814,6.294,3.814s-6.294,24.03-7.438,28.035a27.87,27.87,0,0,1-2.665,6.034,6.475,6.475,0,0,1-2.571,2.484c-3.508,1.854-12.413,6.247-20.892,7.884-10.871,2.1-12.778-.954-12.778-.954L91.256,205.3s-5.149,4.768-10.108-9.918S92.973,181.081,92.973,181.081Z" transform="translate(-51.358 -135.231)" fill="#fff" stroke="#263238" stroke-linecap="round" stroke-linejoin="round" stroke-miterlimit="10" stroke-width="1"/>
            <path id="Trazado_1183379" data-name="Trazado 1183379" d="M93.022,189.617l-1.685-3.687s-2.1-5.149-5.15-5.34-12.015.954-16.4,5.912a47.6,47.6,0,0,0-6.484,9.155,132.3,132.3,0,0,0-5.34,13.922c-3.051,9.155-4.2,19.262,2.67,32.8a123.294,123.294,0,0,0,15.448,23.267s-1.335,5.34,10.489,11.633c7.266,3.867,15.92,3.176,20.971,2.091-.2-.814-.394-1.63-.577-2.452a115.915,115.915,0,0,1-.3-49.2c-2.055-1.871-5.044-4.692-5.986-8.039-1.026-3.647-1.439-8.383-1.93-12.7" transform="translate(-46.862 -139.698)" fill="#fff" stroke="#263238" stroke-linecap="round" stroke-linejoin="round" stroke-miterlimit="10" stroke-width="1"/>
            <path id="Trazado_1183380" data-name="Trazado 1183380" d="M65.621,197.385,64.1,203.3a9.724,9.724,0,0,0,5.912,6.294c4.768,1.717,13.159,2.289,16.4-2.288s-1.717-9.917-1.717-9.917H65.621Z" transform="translate(-48.418 -142.762)" fill="#fff" stroke="#263238" stroke-linecap="round" stroke-linejoin="round" stroke-miterlimit="10" stroke-width="1"/>
            <g id="Grupo_1227833" data-name="Grupo 1227833" transform="translate(0 11.537)">
              <path id="Trazado_1183381" data-name="Trazado 1183381" d="M83.2,156.769a9.949,9.949,0,0,1,1.907,2.288c1.144,1.716.572,3.242,2.288,3.624s4.387-1.907,4.958.572-.954,7.438-.954,7.438.954,7.438.572,10.87-.954,5.34-2.67,6.1a13.175,13.175,0,0,1-2.861.954l-3.814,8.2s-4.2,1.144-10.108-1.526-7.819-5.34-7.819-5.34-4-2.861-5.531-6.865S73.1,173.932,77.1,167.067,81.106,155.625,83.2,156.769Z" transform="translate(-47.502 -146.867)" fill="#ccc" stroke="#263238" stroke-linecap="round" stroke-linejoin="round" stroke-miterlimit="10" stroke-width="1"/>
              <path id="Trazado_1183382" data-name="Trazado 1183382" d="M78.246,189.226a8.8,8.8,0,0,0,5.34-5.531s-.572,2.1-3.814,3.051-5.721-2.48-5.34-6.865,4.2-3.814,4.768-3.433,3.051,1.526,4,.191-4.2-6.865-4.2-6.865l1.144-7.819,1.99-5.162c-1.2.817-1.844,4.829-5.042,10.311-4,6.865-19.452,12.015-17.927,16.02s5.531,6.865,5.531,6.865C67.566,191.325,73.859,190.943,78.246,189.226Z" transform="translate(-47.502 -146.903)" fill="#263238"/>
              <g id="Grupo_1227832" data-name="Grupo 1227832">
                <path id="Trazado_1183383" data-name="Trazado 1183383" d="M45.536,168.142,56.6,180.92s6.294-1.526,15.638-8.773A21.192,21.192,0,0,0,80.627,154.6s-10.68-8.2-13.35-9.536-11.825.954-17.164,7.247S44.2,165.472,45.536,168.142Z" transform="translate(-44.926 -144.7)" fill="#fff" stroke="#263238" stroke-linecap="round" stroke-linejoin="round" stroke-miterlimit="10" stroke-width="1"/>
                <path id="Trazado_1183384" data-name="Trazado 1183384" d="M65.174,165.137c3.755-3.782,5.793-8.823,5.793-11.827" transform="translate(-48.615 -146.269)" fill="none" stroke="#263238" stroke-linecap="round" stroke-linejoin="round" stroke-miterlimit="10" stroke-width="1"/>
                <path id="Trazado_1183385" data-name="Trazado 1183385" d="M48.7,172.253s2.67,2.67,9.155-.763a16.694,16.694,0,0,0,1.779-1.092" transform="translate(-45.614 -149.382)" fill="none" stroke="#263238" stroke-linecap="round" stroke-linejoin="round" stroke-miterlimit="10" stroke-width="1"/>
              </g>
              <path id="Trazado_1183386" data-name="Trazado 1183386" d="M98.057,179.9s-.191,2.67-2.48,3.051" transform="translate(-54.154 -151.112)" fill="none" stroke="#263238" stroke-linecap="round" stroke-linejoin="round" stroke-miterlimit="10" stroke-width="1"/>
              <path id="Trazado_1183387" data-name="Trazado 1183387" d="M92.047,166.078c.5,1.044.6,2.039.219,2.221s-1.094-.517-1.6-1.561-.6-2.039-.219-2.221S91.546,165.033,92.047,166.078Z" transform="translate(-53.178 -148.305)" fill="#263238"/>
            </g>
            <g id="Grupo_1227834" data-name="Grupo 1227834" transform="translate(73.186 82.765)">
              <path id="Trazado_1183388" data-name="Trazado 1183388" d="M134.416,242.65s4.319-4.175,5.615-5.615,2.3-1.3,4.319-2.016a57.909,57.909,0,0,0,6.191-3.167c.576-.288,1.728.576,1.008,1.728s-1.008,1.008-2.016,1.872-2.736,2.016-3.023,2.448,5.039-.72,5.9-1.151,3.023-3.311,3.6-3.887,1.583-1.439,2.016-.288-1.584,3.311-3.311,6.623-6.335,7.2-8.638,7.775-6.91,1.008-7.918,1.151S134.416,242.65,134.416,242.65Z" transform="translate(-134.416 -231.796)" fill="#ccc" stroke="#263238" stroke-miterlimit="10" stroke-width="1"/>
              <line id="Línea_707" data-name="Línea 707" x1="3.455" y2="3.167" transform="translate(8.638 6.103)" fill="none" stroke="#263238" stroke-miterlimit="10" stroke-width="1"/>
            </g>
            <path id="Trazado_1183389" data-name="Trazado 1183389" d="M66.638,232.184s-.144,14.254,3.167,20.588,12.669,18,14.973,21.74,11.23,6.623,13.821,5.183,29.515-31.1,29.515-31.1l-6.047-6.191L99.032,259.251s-1.728-2.448-2.016-2.879a24.97,24.97,0,0,0-2.736-2.16s-.144-8.207-1.728-11.23a81.085,81.085,0,0,0-9.358-12.525" transform="translate(-48.881 -148.787)" fill="#fff" stroke="#263238" stroke-miterlimit="10" stroke-width="1"/>
          </g>
        </g>
      </g>
      <g id="Graphics" transform="translate(44.452 20.107)">
        <g id="Grupo_1227847" data-name="Grupo 1227847" transform="translate(0)" opacity="0.3">
          <g id="Grupo_1227837" data-name="Grupo 1227837" transform="translate(93.413 18.95)">
            <line id="Línea_708" data-name="Línea 708" x2="10.257" y2="10.256" fill="none" stroke="#000" stroke-linecap="round" stroke-linejoin="round" stroke-miterlimit="10" stroke-width="1"/>
            <line id="Línea_709" data-name="Línea 709" x1="10.257" y2="10.256" fill="none" stroke="#000" stroke-linecap="round" stroke-linejoin="round" stroke-miterlimit="10" stroke-width="1"/>
          </g>
          <g id="Grupo_1227838" data-name="Grupo 1227838" transform="translate(0 340.964)">
            <line id="Línea_710" data-name="Línea 710" x2="10.257" y2="10.257" fill="none" stroke="#000" stroke-linecap="round" stroke-linejoin="round" stroke-miterlimit="10" stroke-width="1"/>
            <line id="Línea_711" data-name="Línea 711" x1="10.257" y2="10.257" fill="none" stroke="#000" stroke-linecap="round" stroke-linejoin="round" stroke-miterlimit="10" stroke-width="1"/>
          </g>
          <g id="Grupo_1227839" data-name="Grupo 1227839" transform="translate(26.109 62.082)">
            <line id="Línea_712" data-name="Línea 712" x2="6.578" y2="6.578" fill="none" stroke="#000" stroke-linecap="round" stroke-linejoin="round" stroke-miterlimit="10" stroke-width="1"/>
            <line id="Línea_713" data-name="Línea 713" x1="6.578" y2="6.578" fill="none" stroke="#000" stroke-linecap="round" stroke-linejoin="round" stroke-miterlimit="10" stroke-width="1"/>
          </g>
          <g id="Grupo_1227840" data-name="Grupo 1227840" transform="translate(241.656 340.964)">
            <line id="Línea_714" data-name="Línea 714" x2="6.579" y2="6.579" fill="none" stroke="#000" stroke-linecap="round" stroke-linejoin="round" stroke-miterlimit="10" stroke-width="1"/>
            <line id="Línea_715" data-name="Línea 715" x1="6.579" y2="6.579" fill="none" stroke="#000" stroke-linecap="round" stroke-linejoin="round" stroke-miterlimit="10" stroke-width="1"/>
          </g>
          <g id="Grupo_1227841" data-name="Grupo 1227841" transform="translate(34.719 306.733)">
            <line id="Línea_716" data-name="Línea 716" x2="6.578" y2="6.578" fill="none" stroke="#000" stroke-linecap="round" stroke-linejoin="round" stroke-miterlimit="10" stroke-width="1"/>
            <line id="Línea_717" data-name="Línea 717" x1="6.578" y2="6.578" fill="none" stroke="#000" stroke-linecap="round" stroke-linejoin="round" stroke-miterlimit="10" stroke-width="1"/>
          </g>
          <g id="Grupo_1227843" data-name="Grupo 1227843" transform="translate(250.556 12.568)">
            <line id="Línea_718" data-name="Línea 718" x2="6.578" y2="6.578" fill="none" stroke="#000" stroke-linecap="round" stroke-linejoin="round" stroke-miterlimit="10" stroke-width="1"/>
            <g id="Grupo_1227842" data-name="Grupo 1227842" transform="translate(87.414 90.709)">
              <line id="Línea_719" data-name="Línea 719" x2="6.578" y2="6.578" fill="none" stroke="#000" stroke-linecap="round" stroke-linejoin="round" stroke-miterlimit="10" stroke-width="1"/>
              <line id="Línea_720" data-name="Línea 720" x1="6.578" y2="6.578" fill="none" stroke="#000" stroke-linecap="round" stroke-linejoin="round" stroke-miterlimit="10" stroke-width="1"/>
            </g>
            <line id="Línea_721" data-name="Línea 721" x1="6.578" y2="6.578" fill="none" stroke="#000" stroke-linecap="round" stroke-linejoin="round" stroke-miterlimit="10" stroke-width="1"/>
          </g>
          <g id="Grupo_1227844" data-name="Grupo 1227844" transform="translate(319.984 245.811)">
            <line id="Línea_722" data-name="Línea 722" x2="6.579" y2="6.578" fill="none" stroke="#000" stroke-linecap="round" stroke-linejoin="round" stroke-miterlimit="10" stroke-width="1"/>
            <line id="Línea_723" data-name="Línea 723" x1="6.579" y2="6.578" fill="none" stroke="#000" stroke-linecap="round" stroke-linejoin="round" stroke-miterlimit="10" stroke-width="1"/>
          </g>
          <g id="Grupo_1227845" data-name="Grupo 1227845" transform="translate(91.579 335.359)">
            <line id="Línea_724" data-name="Línea 724" x2="6.579" y2="6.579" fill="none" stroke="#000" stroke-linecap="round" stroke-linejoin="round" stroke-miterlimit="10" stroke-width="1"/>
            <line id="Línea_725" data-name="Línea 725" x1="6.579" y2="6.579" fill="none" stroke="#000" stroke-linecap="round" stroke-linejoin="round" stroke-miterlimit="10" stroke-width="1"/>
          </g>
          <path id="Trazado_1183390" data-name="Trazado 1183390" d="M457.291,60.894a4.061,4.061,0,1,0-4.061,4.061A4.061,4.061,0,0,0,457.291,60.894Z" transform="translate(-120.865 -28.403)" fill="none" stroke="#000" stroke-linecap="round" stroke-linejoin="round" stroke-miterlimit="10" stroke-width="1"/>
          <path id="Trazado_1183391" data-name="Trazado 1183391" d="M222.457,26.13a4.061,4.061,0,1,0-4.061,4.061A4.061,4.061,0,0,0,222.457,26.13Z" transform="translate(-78.08 -22.069)" fill="none" stroke="#000" stroke-linecap="round" stroke-linejoin="round" stroke-miterlimit="10" stroke-width="1"/>
          <circle id="Elipse_12734" data-name="Elipse 12734" cx="4.061" cy="4.061" r="4.061" transform="translate(49.804 13.345)" fill="none" stroke="#000" stroke-linecap="round" stroke-linejoin="round" stroke-miterlimit="10" stroke-width="1"/>
          <path id="Trazado_1183392" data-name="Trazado 1183392" d="M56.441,329.782a4.061,4.061,0,1,0-4.061,4.061A4.061,4.061,0,0,0,56.441,329.782Z" transform="translate(-47.832 -77.393)" fill="none" stroke="#000" stroke-linecap="round" stroke-linejoin="round" stroke-miterlimit="10" stroke-width="1"/>
          <path id="Trazado_1183393" data-name="Trazado 1183393" d="M392.729,408.533a4.061,4.061,0,1,0-4.061,4.061A4.061,4.061,0,0,0,392.729,408.533Z" transform="translate(-109.102 -91.741)" fill="none" stroke="#000" stroke-linecap="round" stroke-linejoin="round" stroke-miterlimit="10" stroke-width="1"/>
          <path id="Trazado_1183394" data-name="Trazado 1183394" d="M463.676,302.113a4.061,4.061,0,1,0-4.061,4.061A4.061,4.061,0,0,0,463.676,302.113Z" transform="translate(-122.028 -72.352)" fill="none" stroke="#000" stroke-linecap="round" stroke-linejoin="round" stroke-miterlimit="10" stroke-width="1"/>
          <path id="Trazado_1183395" data-name="Trazado 1183395" d="M437.3,383.595a3.645,3.645,0,1,0-3.645,3.645A3.645,3.645,0,0,0,437.3,383.595Z" transform="translate(-117.375 -87.273)" fill="none" stroke="#000" stroke-linecap="round" stroke-linejoin="round" stroke-miterlimit="10" stroke-width="1"/>
          <g id="Grupo_1227846" data-name="Grupo 1227846" transform="translate(328.884 317.373)">
            <line id="Línea_726" data-name="Línea 726" x2="6.578" y2="6.578" fill="none" stroke="#000" stroke-linecap="round" stroke-linejoin="round" stroke-miterlimit="10" stroke-width="1"/>
            <line id="Línea_727" data-name="Línea 727" x1="6.578" y2="6.578" fill="none" stroke="#000" stroke-linecap="round" stroke-linejoin="round" stroke-miterlimit="10" stroke-width="1"/>
          </g>
          <path id="Trazado_1183396" data-name="Trazado 1183396" d="M116.423,160.112a3.645,3.645,0,1,0-3.645,3.645A3.645,3.645,0,0,0,116.423,160.112Z" transform="translate(-58.912 -46.556)" fill="none" stroke="#000" stroke-linecap="round" stroke-linejoin="round" stroke-miterlimit="10" stroke-width="1"/>
        </g>
      </g>
    </g>
  </g>
</svg>
