<svg xmlns="http://www.w3.org/2000/svg" xmlns:xlink="http://www.w3.org/1999/xlink" width="295" height="284" viewBox="0 0 295 284">
  <defs>
    <clipPath id="clip-path">
      <rect id="Rectángulo_422699" data-name="Rectángulo 422699" width="295" height="284" transform="translate(1125 3825)" fill="#fff" stroke="#707070" stroke-width="1"/>
    </clipPath>
  </defs>
  <g id="Enmascarar_grupo_1211525" data-name="Enmascarar grupo 1211525" transform="translate(-1125 -3825)" clip-path="url(#clip-path)">
    <g id="_39879097_8740918" data-name="39879097_8740918" transform="translate(1103.887 3786.253)">
      <g id="Floor" transform="translate(11.764 318.707)">
        <line id="Línea_627" data-name="Línea 627" x2="318.878" fill="none" stroke="#263238" stroke-linecap="round" stroke-linejoin="round" stroke-miterlimit="10" stroke-width="1"/>
      </g>
      <g id="Calendar" transform="translate(245.454 231.069)">
        <g id="Grupo_1227710" data-name="Grupo 1227710" transform="translate(-11)">
          <rect id="Rectángulo_422700" data-name="Rectángulo 422700" width="71.512" height="71.524" fill="none" stroke="#263238" stroke-linecap="round" stroke-miterlimit="10" stroke-width="1"/>
          <rect id="Rectángulo_422701" data-name="Rectángulo 422701" width="71.512" height="11.524" fill="#86b60c" stroke="#263238" stroke-linecap="round" stroke-linejoin="round" stroke-miterlimit="10" stroke-width="1"/>
          <g id="Grupo_1227706" data-name="Grupo 1227706" transform="translate(4.186 20.593)">
            <rect id="Rectángulo_422702" data-name="Rectángulo 422702" width="8.185" height="8.185" fill="none" stroke="#263238" stroke-linecap="round" stroke-miterlimit="10" stroke-width="1"/>
            <rect id="Rectángulo_422703" data-name="Rectángulo 422703" width="8.185" height="8.185" transform="translate(11.131)" fill="none" stroke="#263238" stroke-linecap="round" stroke-miterlimit="10" stroke-width="1"/>
            <rect id="Rectángulo_422704" data-name="Rectángulo 422704" width="8.185" height="8.185" transform="translate(22.261)" fill="none" stroke="#263238" stroke-linecap="round" stroke-miterlimit="10" stroke-width="1"/>
            <rect id="Rectángulo_422705" data-name="Rectángulo 422705" width="8.184" height="8.185" transform="translate(33.392)" fill="none" stroke="#263238" stroke-linecap="round" stroke-miterlimit="10" stroke-width="1"/>
            <rect id="Rectángulo_422706" data-name="Rectángulo 422706" width="8.185" height="8.185" transform="translate(44.522)" fill="none" stroke="#263238" stroke-linecap="round" stroke-miterlimit="10" stroke-width="1"/>
            <rect id="Rectángulo_422707" data-name="Rectángulo 422707" width="8.184" height="8.185" transform="translate(55.654)" fill="none" stroke="#263238" stroke-linecap="round" stroke-miterlimit="10" stroke-width="1"/>
          </g>
          <g id="Grupo_1227707" data-name="Grupo 1227707" transform="translate(4.186 31.85)">
            <rect id="Rectángulo_422708" data-name="Rectángulo 422708" width="8.185" height="8.185" fill="none" stroke="#263238" stroke-linecap="round" stroke-linejoin="round" stroke-miterlimit="10" stroke-width="1"/>
            <rect id="Rectángulo_422709" data-name="Rectángulo 422709" width="8.185" height="8.185" transform="translate(11.131)" fill="none" stroke="#263238" stroke-linecap="round" stroke-linejoin="round" stroke-miterlimit="10" stroke-width="1"/>
            <rect id="Rectángulo_422710" data-name="Rectángulo 422710" width="8.185" height="8.185" transform="translate(22.261)" fill="none" stroke="#263238" stroke-linecap="round" stroke-miterlimit="10" stroke-width="1"/>
            <rect id="Rectángulo_422711" data-name="Rectángulo 422711" width="8.184" height="8.185" transform="translate(33.392)" fill="none" stroke="#263238" stroke-linecap="round" stroke-miterlimit="10" stroke-width="1"/>
            <rect id="Rectángulo_422712" data-name="Rectángulo 422712" width="8.185" height="8.185" transform="translate(44.522)" fill="#92e3a9" stroke="#263238" stroke-linecap="round" stroke-linejoin="round" stroke-miterlimit="10" stroke-width="1"/>
            <rect id="Rectángulo_422713" data-name="Rectángulo 422713" width="8.184" height="8.185" transform="translate(55.654)" fill="#86b60c" stroke="#263238" stroke-linecap="round" stroke-linejoin="round" stroke-miterlimit="10" stroke-width="1"/>
          </g>
          <g id="Grupo_1227708" data-name="Grupo 1227708" transform="translate(4.186 43.107)">
            <rect id="Rectángulo_422714" data-name="Rectángulo 422714" width="8.185" height="8.185" fill="none" stroke="#263238" stroke-linecap="round" stroke-linejoin="round" stroke-miterlimit="10" stroke-width="1"/>
            <rect id="Rectángulo_422715" data-name="Rectángulo 422715" width="8.185" height="8.185" transform="translate(11.131)" fill="#86b60c" stroke="#263238" stroke-linecap="round" stroke-linejoin="round" stroke-miterlimit="10" stroke-width="1"/>
            <rect id="Rectángulo_422716" data-name="Rectángulo 422716" width="8.185" height="8.185" transform="translate(22.261)" fill="none" stroke="#263238" stroke-linecap="round" stroke-miterlimit="10" stroke-width="1"/>
            <rect id="Rectángulo_422717" data-name="Rectángulo 422717" width="8.184" height="8.185" transform="translate(33.392)" fill="none" stroke="#263238" stroke-linecap="round" stroke-miterlimit="10" stroke-width="1"/>
            <rect id="Rectángulo_422718" data-name="Rectángulo 422718" width="8.185" height="8.185" transform="translate(44.522)" fill="none" stroke="#263238" stroke-linecap="round" stroke-miterlimit="10" stroke-width="1"/>
            <rect id="Rectángulo_422719" data-name="Rectángulo 422719" width="8.184" height="8.185" transform="translate(55.654)" fill="#86b60c" stroke="#263238" stroke-linecap="round" stroke-linejoin="round" stroke-miterlimit="10" stroke-width="1"/>
          </g>
          <g id="Grupo_1227709" data-name="Grupo 1227709" transform="translate(4.186 54.364)">
            <rect id="Rectángulo_422720" data-name="Rectángulo 422720" width="8.185" height="8.185" fill="none" stroke="#263238" stroke-linecap="round" stroke-miterlimit="10" stroke-width="1"/>
            <rect id="Rectángulo_422721" data-name="Rectángulo 422721" width="8.185" height="8.185" transform="translate(11.131)" fill="none" stroke="#263238" stroke-linecap="round" stroke-miterlimit="10" stroke-width="1"/>
            <rect id="Rectángulo_422722" data-name="Rectángulo 422722" width="8.185" height="8.185" transform="translate(22.261)" fill="#86b60c" stroke="#263238" stroke-linecap="round" stroke-linejoin="round" stroke-miterlimit="10" stroke-width="1"/>
            <rect id="Rectángulo_422723" data-name="Rectángulo 422723" width="8.184" height="8.185" transform="translate(33.392)" fill="none" stroke="#263238" stroke-linecap="round" stroke-miterlimit="10" stroke-width="1"/>
            <rect id="Rectángulo_422724" data-name="Rectángulo 422724" width="8.185" height="8.185" transform="translate(44.522)" fill="none" stroke="#263238" stroke-linecap="round" stroke-miterlimit="10" stroke-width="1"/>
            <rect id="Rectángulo_422725" data-name="Rectángulo 422725" width="8.184" height="8.185" transform="translate(55.654)" fill="none" stroke="#263238" stroke-linecap="round" stroke-miterlimit="10" stroke-width="1"/>
          </g>
        </g>
      </g>
      <g id="Coins" transform="translate(24.839 38.747)">
        <g id="Grupo_1227712" data-name="Grupo 1227712" transform="translate(245.415 47.684)">
          <circle id="Elipse_12718" data-name="Elipse 12718" cx="13.067" cy="13.067" r="13.067" transform="translate(0 9.544) rotate(-21.421)" fill="none" stroke="#263238" stroke-linecap="round" stroke-linejoin="round" stroke-miterlimit="10" stroke-width="1"/>
          <g id="Grupo_1227711" data-name="Grupo 1227711" transform="translate(10.926 7.472)">
            <path id="Trazado_1183125" data-name="Trazado 1183125" d="M420.843,141.522l.665-1.78a4.058,4.058,0,0,1-2.476-2.365,6.178,6.178,0,0,1,.27-3.935l2.871.549a8.492,8.492,0,0,0-.4,1.674,2.111,2.111,0,0,0,.131,1.14,1.234,1.234,0,0,0,.724.631.917.917,0,0,0,.957-.079,1.852,1.852,0,0,0,.549-.8,3.035,3.035,0,0,0,.162-1.806,7.385,7.385,0,0,0-.738-1.792l-1.105-2.005a11.4,11.4,0,0,1-.6-1.424,4.57,4.57,0,0,1-.241-1.487,4.944,4.944,0,0,1,.35-1.724,4,4,0,0,1,2.072-2.422,4.531,4.531,0,0,1,3.172-.113l.637-1.7.919.344-.637,1.7a3.778,3.778,0,0,1,1.519,1.1,3.027,3.027,0,0,1,.619,1.409,5.129,5.129,0,0,1-.01,1.545,10.277,10.277,0,0,1-.341,1.5l-2.888-.621a9.2,9.2,0,0,0,.353-1.3,1.964,1.964,0,0,0-.026-.981.944.944,0,0,0-.659-.574,1.04,1.04,0,0,0-.972.117,1.657,1.657,0,0,0-.614.8A2.38,2.38,0,0,0,425,128.7a9.6,9.6,0,0,0,.57,1.391l1.074,1.972a11.486,11.486,0,0,1,.7,1.681,6.212,6.212,0,0,1,.308,1.8,5.334,5.334,0,0,1-.372,1.989,4.395,4.395,0,0,1-1.1,1.694,3.644,3.644,0,0,1-1.692.906,4.136,4.136,0,0,1-2.057-.071l-.672,1.8Z" transform="translate(-418.82 -122.082)" fill="none" stroke="#263238" stroke-linecap="round" stroke-linejoin="round" stroke-miterlimit="10" stroke-width="1"/>
          </g>
        </g>
        <g id="Grupo_1227714" data-name="Grupo 1227714" transform="translate(226.437 123.275)">
          <circle id="Elipse_12719" data-name="Elipse 12719" cx="25.206" cy="25.206" r="25.206" transform="translate(0 35.647) rotate(-45)" fill="none" stroke="#263238" stroke-linecap="round" stroke-linejoin="round" stroke-miterlimit="10" stroke-width="1"/>
          <g id="Grupo_1227713" data-name="Grupo 1227713" transform="translate(26.935 16.528)">
            <path id="Trazado_1183126" data-name="Trazado 1183126" d="M422.573,289.832v-3.665a7.825,7.825,0,0,1-6.071-2.6q-2.011-2.445-2.169-7.294l5.558-.946a16.347,16.347,0,0,0,.414,3.292,4.081,4.081,0,0,0,1.006,1.972,2.38,2.38,0,0,0,1.734.651,1.766,1.766,0,0,0,1.676-.789,3.573,3.573,0,0,0,.453-1.813,5.853,5.853,0,0,0-.926-3.372,14.257,14.257,0,0,0-2.543-2.74l-3.351-2.878a21.919,21.919,0,0,1-2.05-2.168,8.815,8.815,0,0,1-1.439-2.524,9.541,9.541,0,0,1-.533-3.352,7.719,7.719,0,0,1,2.109-5.775,8.742,8.742,0,0,1,5.656-2.347v-3.509h1.893v3.509a7.3,7.3,0,0,1,3.489.966,5.842,5.842,0,0,1,2.07,2.129,9.925,9.925,0,0,1,1.025,2.8,19.885,19.885,0,0,1,.394,2.937l-5.637.828a17.937,17.937,0,0,0-.238-2.581,3.79,3.79,0,0,0-.709-1.755,1.821,1.821,0,0,0-1.577-.592,2,2,0,0,0-1.677.868,3.2,3.2,0,0,0-.571,1.853,4.586,4.586,0,0,0,.868,2.918,18.462,18.462,0,0,0,1.97,2.129l3.273,2.838a22.1,22.1,0,0,1,2.4,2.563,11.96,11.96,0,0,1,1.774,3.055,10.289,10.289,0,0,1,.67,3.845,8.474,8.474,0,0,1-.847,3.8,7.03,7.03,0,0,1-2.445,2.78,7.983,7.983,0,0,1-3.765,1.261v3.706Z" transform="translate(-414.333 -249.973)" fill="none" stroke="#263238" stroke-linecap="round" stroke-linejoin="round" stroke-miterlimit="10" stroke-width="1"/>
          </g>
        </g>
        <g id="Grupo_1227716" data-name="Grupo 1227716" transform="translate(130.877 200.385)">
          <circle id="Elipse_12720" data-name="Elipse 12720" cx="20.802" cy="20.802" r="20.802" transform="matrix(0.815, -0.58, 0.58, 0.815, 0, 24.109)" fill="none" stroke="#263238" stroke-linecap="round" stroke-linejoin="round" stroke-miterlimit="10" stroke-width="1"/>
          <g id="Grupo_1227715" data-name="Grupo 1227715" transform="translate(18.814 14.686)">
            <path id="Trazado_1183127" data-name="Trazado 1183127" d="M275.535,393.317l-1.415-2.674a6.457,6.457,0,0,1-5.433.445,9.83,9.83,0,0,1-4.4-4.483l3.689-2.836a13.453,13.453,0,0,0,1.573,2.241,3.365,3.365,0,0,0,1.494,1.05,1.963,1.963,0,0,0,1.516-.195,1.457,1.457,0,0,0,.918-1.222,2.95,2.95,0,0,0-.37-1.5,4.83,4.83,0,0,0-1.977-2.1,11.765,11.765,0,0,0-2.912-1.017l-3.556-.806a18.072,18.072,0,0,1-2.332-.79,7.267,7.267,0,0,1-2.024-1.285,7.864,7.864,0,0,1-1.682-2.239,6.369,6.369,0,0,1-.69-5.027,7.209,7.209,0,0,1,3.22-3.9l-1.354-2.559,1.381-.731,1.354,2.559a6.024,6.024,0,0,1,2.917-.643,4.823,4.823,0,0,1,2.331.754,8.179,8.179,0,0,1,1.828,1.646,16.432,16.432,0,0,1,1.422,1.99l-3.792,2.78a14.855,14.855,0,0,0-1.17-1.791,3.124,3.124,0,0,0-1.195-1.007,1.5,1.5,0,0,0-1.379.177,1.654,1.654,0,0,0-.888,1.28,2.638,2.638,0,0,0,.3,1.572,3.789,3.789,0,0,0,1.759,1.794,15.3,15.3,0,0,0,2.259.792l3.483.807a18.162,18.162,0,0,1,2.743.942,9.868,9.868,0,0,1,2.473,1.543,8.492,8.492,0,0,1,1.974,2.546,7,7,0,0,1,.851,3.1,5.807,5.807,0,0,1-.71,2.972,6.583,6.583,0,0,1-2.26,2.373l1.43,2.7Z" transform="translate(-257.684 -363.695)" fill="none" stroke="#263238" stroke-linecap="round" stroke-linejoin="round" stroke-miterlimit="10" stroke-width="1"/>
          </g>
        </g>
        <g id="Grupo_1227718" data-name="Grupo 1227718" transform="translate(0 186.133)">
          <circle id="Elipse_12721" data-name="Elipse 12721" cx="13.067" cy="13.067" r="13.067" transform="matrix(0.851, -0.525, 0.525, 0.851, 0, 13.722)" fill="none" stroke="#263238" stroke-linecap="round" stroke-linejoin="round" stroke-miterlimit="10" stroke-width="1"/>
          <g id="Grupo_1227717" data-name="Grupo 1227717" transform="translate(11.378 8.996)">
            <path id="Trazado_1183128" data-name="Trazado 1183128" d="M50.03,351.913l.894-1.676a4.055,4.055,0,0,1-2.142-2.671,6.174,6.174,0,0,1,.787-3.865l2.773.923a8.488,8.488,0,0,0-.614,1.607,2.11,2.11,0,0,0-.021,1.147,1.231,1.231,0,0,0,.635.721.915.915,0,0,0,.959.048,1.851,1.851,0,0,0,.649-.719,3.038,3.038,0,0,0,.4-1.769,7.4,7.4,0,0,0-.5-1.874l-.831-2.134a11.357,11.357,0,0,1-.409-1.491,4.59,4.59,0,0,1-.043-1.505,4.944,4.944,0,0,1,.574-1.663,4,4,0,0,1,2.373-2.127,4.533,4.533,0,0,1,3.16.306l.856-1.6.866.462-.856,1.605a3.781,3.781,0,0,1,1.36,1.293,3.032,3.032,0,0,1,.428,1.479,5.14,5.14,0,0,1-.214,1.53,10.258,10.258,0,0,1-.536,1.44l-2.78-1a9.345,9.345,0,0,0,.521-1.238,1.965,1.965,0,0,0,.1-.976.943.943,0,0,0-.577-.655,1.038,1.038,0,0,0-.978-.012,1.657,1.657,0,0,0-.713.708,2.375,2.375,0,0,0-.315,1.546,9.621,9.621,0,0,0,.382,1.454l.8,2.1a11.389,11.389,0,0,1,.475,1.759,6.2,6.2,0,0,1,.067,1.83,5.333,5.333,0,0,1-.631,1.923,4.4,4.4,0,0,1-1.315,1.533,3.643,3.643,0,0,1-1.8.675,4.14,4.14,0,0,1-2.03-.341l-.9,1.7Z" transform="translate(-48.71 -333.565)" fill="none" stroke="#263238" stroke-linecap="round" stroke-linejoin="round" stroke-miterlimit="10" stroke-width="1"/>
          </g>
        </g>
        <g id="Grupo_1227720" data-name="Grupo 1227720" transform="translate(143.364)">
          <circle id="Elipse_12722" data-name="Elipse 12722" cx="24.737" cy="24.737" r="24.737" transform="translate(0 34.983) rotate(-45)" fill="none" stroke="#263238" stroke-linecap="round" stroke-linejoin="round" stroke-miterlimit="10" stroke-width="1"/>
          <g id="Grupo_1227719" data-name="Grupo 1227719" transform="translate(26.433 16.221)">
            <path id="Trazado_1183129" data-name="Trazado 1183129" d="M296.147,102.372v-3.6a7.677,7.677,0,0,1-5.957-2.553q-1.974-2.4-2.129-7.159l5.455-.929a15.994,15.994,0,0,0,.406,3.231,4.005,4.005,0,0,0,.987,1.935,2.336,2.336,0,0,0,1.7.639,1.734,1.734,0,0,0,1.645-.774,3.509,3.509,0,0,0,.444-1.779,5.749,5.749,0,0,0-.908-3.309,14.021,14.021,0,0,0-2.5-2.689l-3.289-2.824A21.559,21.559,0,0,1,290,80.435a8.626,8.626,0,0,1-1.412-2.477,9.362,9.362,0,0,1-.523-3.289A7.576,7.576,0,0,1,290.133,69a8.581,8.581,0,0,1,5.551-2.3V63.256h1.858V66.7a7.156,7.156,0,0,1,3.424.948A5.742,5.742,0,0,1,303,69.736,9.728,9.728,0,0,1,304,72.483a19.48,19.48,0,0,1,.387,2.882l-5.532.812a17.7,17.7,0,0,0-.233-2.533,3.718,3.718,0,0,0-.7-1.722,1.789,1.789,0,0,0-1.547-.581,1.968,1.968,0,0,0-1.645.852,3.131,3.131,0,0,0-.561,1.818,4.5,4.5,0,0,0,.852,2.864,18.243,18.243,0,0,0,1.933,2.09l3.212,2.785a21.6,21.6,0,0,1,2.36,2.516,11.708,11.708,0,0,1,1.741,3,10.09,10.09,0,0,1,.658,3.774,8.317,8.317,0,0,1-.831,3.733,6.912,6.912,0,0,1-2.4,2.728,7.841,7.841,0,0,1-3.7,1.238v3.637h-1.859Z" transform="translate(-288.061 -63.256)" fill="none" stroke="#263238" stroke-linecap="round" stroke-linejoin="round" stroke-miterlimit="10" stroke-width="1"/>
          </g>
        </g>
      </g>
      <g id="Button" transform="translate(255.027 43.785)">
        <g id="Grupo_1227722" data-name="Grupo 1227722" transform="translate(0 0)">
          <path id="Trazado_1183130" data-name="Trazado 1183130" d="M429.173,77.948H385.886a6.58,6.58,0,0,1-6.58-6.58V52.938a6.58,6.58,0,0,1,6.58-6.58h43.288a6.58,6.58,0,0,1,6.58,6.58V71.369A6.579,6.579,0,0,1,429.173,77.948Z" transform="translate(-379.306 -46.358)" fill="#86b60c" stroke="#263238" stroke-linecap="round" stroke-linejoin="round" stroke-miterlimit="10" stroke-width="1"/>
          <g id="Grupo_1227721" data-name="Grupo 1227721" transform="translate(9.605 5.318)">
            <path id="Trazado_1183131" data-name="Trazado 1183131" d="M393.818,75.486V54.393h6.693a5.979,5.979,0,0,1,3.1.716,4.357,4.357,0,0,1,1.784,2.07,8.247,8.247,0,0,1,.586,3.281A6.873,6.873,0,0,1,405.211,64a4.247,4.247,0,0,1-2.1,1.81,8.114,8.114,0,0,1-3.047.533h-1.953v9.14h-4.3Zm4.3-12.161h1.51a2.877,2.877,0,0,0,1.445-.3,1.522,1.522,0,0,0,.69-.95,6.309,6.309,0,0,0,.183-1.667,7.68,7.68,0,0,0-.144-1.614,1.654,1.654,0,0,0-.638-1.015,2.661,2.661,0,0,0-1.563-.365h-1.485v5.91Z" transform="translate(-393.818 -54.393)" fill="#263238"/>
            <path id="Trazado_1183132" data-name="Trazado 1183132" d="M412.191,75.486l4.088-21.093h4.765l4.063,21.093h-3.984l-.755-4.635h-3.333l-.807,4.635Zm5.234-7.265h2.526l-1.276-8.516Z" transform="translate(-400.031 -54.393)" fill="#263238"/>
            <path id="Trazado_1183133" data-name="Trazado 1183133" d="M435.584,75.486V67.127L431.47,54.393h4.037l2.266,7.421,2.109-7.421h3.906l-4.062,12.734v8.359Z" transform="translate(-406.549 -54.393)" fill="#263238"/>
          </g>
        </g>
      </g>
      <g id="Magnifying_Glass" transform="translate(137.371 44.368)">
        <g id="Grupo_1227724" data-name="Grupo 1227724" transform="translate(0 0)">
          <path id="Trazado_1183134" data-name="Trazado 1183134" d="M253.187,47.239a51.645,51.645,0,1,0,51.645,51.645A51.645,51.645,0,0,0,253.187,47.239Zm0,94.656A43.011,43.011,0,1,1,296.2,98.884,43.011,43.011,0,0,1,253.187,141.895Z" transform="translate(-201.542 -47.239)" fill="#fff" stroke="#263238" stroke-linecap="round" stroke-linejoin="round" stroke-miterlimit="10" stroke-width="1"/>
          <g id="Grupo_1227723" data-name="Grupo 1227723" transform="translate(93.894 75.791)">
            <path id="Trazado_1183135" data-name="Trazado 1183135" d="M425.735,224.2a9.883,9.883,0,0,1-5.025-1.372L348.3,180.237a9.928,9.928,0,0,1,10.068-17.115l72.41,42.594a9.93,9.93,0,0,1-5.043,18.487Z" transform="translate(-356.404 -166.751)" fill="#263238"/>
          </g>
        </g>
      </g>
      <g id="Credit_Card" transform="translate(21.033 39.675)">
        <g id="Grupo_1227725" data-name="Grupo 1227725">
          <path id="Trazado_1183136" data-name="Trazado 1183136" d="M134.379,45.635l-.349,163.959a5.267,5.267,0,0,1-5.278,5.256l-97.728-.208a5.267,5.267,0,0,1-5.256-5.278L26.117,45.4A5.267,5.267,0,0,1,31.4,40.149l97.728.208A5.266,5.266,0,0,1,134.379,45.635Z" transform="translate(-25.768 -40.149)" fill="#86b60c" stroke="#263238" stroke-linecap="round" stroke-linejoin="round" stroke-miterlimit="10" stroke-width="1"/>
          <rect id="Rectángulo_422726" data-name="Rectángulo 422726" width="18.469" height="7.642" transform="translate(85.35 161.284) rotate(-89.88)" fill="#fff"/>
          <rect id="Rectángulo_422727" data-name="Rectángulo 422727" width="18.468" height="7.642" transform="translate(85.402 136.767) rotate(-89.88)" fill="#fff"/>
          <rect id="Rectángulo_422728" data-name="Rectángulo 422728" width="18.469" height="7.642" transform="translate(85.455 112.25) rotate(-89.88)" fill="#fff"/>
          <rect id="Rectángulo_422729" data-name="Rectángulo 422729" width="18.469" height="7.642" transform="translate(85.506 87.732) rotate(-89.88)" fill="#fff"/>
          <rect id="Rectángulo_422730" data-name="Rectángulo 422730" width="18.468" height="7.642" transform="translate(85.559 63.215) rotate(-89.88)" fill="#fff"/>
          <rect id="Rectángulo_422731" data-name="Rectángulo 422731" width="18.469" height="7.642" transform="translate(85.612 38.697) rotate(-89.88)" fill="#fff"/>
          <path id="Trazado_1183137" data-name="Trazado 1183137" d="M112.577,225.325l-.076,35.739a2.191,2.191,0,0,1-2.2,2.186l-25.55-.054a2.191,2.191,0,0,1-2.186-2.2l.076-35.739a2.191,2.191,0,0,1,2.2-2.186l25.55.054A2.191,2.191,0,0,1,112.577,225.325Z" transform="translate(-44.974 -102.003)" fill="#fff" stroke="#263238" stroke-miterlimit="10" stroke-width="1"/>
          <rect id="Rectángulo_422732" data-name="Rectángulo 422732" width="87.884" height="4.458" transform="translate(12.754 161.131) rotate(-89.88)" fill="#263238" stroke="#263238" stroke-miterlimit="10" stroke-width="1"/>
        </g>
      </g>
      <g id="Receipt" transform="translate(28.685 141.974)">
        <g id="Grupo_1227731" data-name="Grupo 1227731">
          <g id="Grupo_1227728" data-name="Grupo 1227728" transform="translate(0 1.165)">
            <path id="Trazado_1183138" data-name="Trazado 1183138" d="M51.192,403.63s-1.668-.729-3.44,1.98S41.707,425,40.56,427.5a6.705,6.705,0,0,1-3.231,3.335H68.075S56.4,406.444,55.047,405.089A6.648,6.648,0,0,0,51.192,403.63Z" transform="translate(-37.329 -266.489)" fill="#263238" stroke="#263238" stroke-linecap="round" stroke-linejoin="round" stroke-miterlimit="10" stroke-width="1"/>
            <path id="Trazado_1183139" data-name="Trazado 1183139" d="M80.933,442.052s-1.919.708-4.212-4.5S61.356,406.421,60.253,405.03c-.95-1.2-1.755-1.384-1.98-1.355H89.749s-.312,25.639-1.876,31.059S85.458,441.97,80.933,442.052Z" transform="translate(-44.411 -266.533)" fill="#fff" stroke="#263238" stroke-linecap="round" stroke-linejoin="round" stroke-miterlimit="10" stroke-width="1"/>
            <g id="Grupo_1227726" data-name="Grupo 1227726" transform="translate(21.663 138.105)">
              <line id="Línea_628" data-name="Línea 628" x2="16.948" y2="31.686" fill="none" stroke="#a8a8a8" stroke-linecap="round" stroke-linejoin="round" stroke-miterlimit="10" stroke-width="1"/>
              <line id="Línea_629" data-name="Línea 629" x2="16.703" transform="translate(1.72 3.193)" fill="none" stroke="#a8a8a8" stroke-linecap="round" stroke-linejoin="round" stroke-miterlimit="10" stroke-width="1"/>
              <line id="Línea_630" data-name="Línea 630" x2="12.89" transform="translate(6.629 11.661)" fill="none" stroke="#a8a8a8" stroke-linecap="round" stroke-linejoin="round" stroke-miterlimit="10" stroke-width="1"/>
              <line id="Línea_631" data-name="Línea 631" x2="7.367" transform="translate(11.783 20.621)" fill="none" stroke="#a8a8a8" stroke-linecap="round" stroke-linejoin="round" stroke-miterlimit="10" stroke-width="1"/>
            </g>
            <path id="Trazado_1183140" data-name="Trazado 1183140" d="M106.112,349.454A4.39,4.39,0,0,0,101.8,352c-1.143,2.368-3.888,52.269-4.852,65.019A8.194,8.194,0,0,1,92.51,423.7h45.048S114.017,354.15,112.787,352.5A6.971,6.971,0,0,0,106.112,349.454Z" transform="translate(-55.988 -248.177)" fill="#263238" stroke="#263238" stroke-linecap="round" stroke-linejoin="round" stroke-miterlimit="10" stroke-width="1"/>
            <path id="Trazado_1183141" data-name="Trazado 1183141" d="M145.538,423.715c.289.083-2.643.49-4.442-2.579-1.211-2.067-18.025-53.16-23.258-66.7-1.7-4.395-4.777-4.946-4.777-4.946h37.872v69.681S149.967,424.163,145.538,423.715Z" transform="translate(-62.937 -248.211)" fill="#fff" stroke="#263238" stroke-linecap="round" stroke-linejoin="round" stroke-miterlimit="10" stroke-width="1"/>
            <g id="Grupo_1227727" data-name="Grupo 1227727" transform="translate(58.754 102.244)">
              <path id="Trazado_1183142" data-name="Trazado 1183142" d="M126.1,350.949a38.69,38.69,0,0,1,3.93,7.86c1.72,4.667,20.879,57.969,20.879,57.969" transform="translate(-126.099 -350.949)" fill="none" stroke="#a8a8a8" stroke-linecap="round" stroke-linejoin="round" stroke-miterlimit="10" stroke-width="1"/>
              <line id="Línea_632" data-name="Línea 632" x2="15.966" y2="40.529" transform="translate(9.088 0.246)" fill="none" stroke="#a8a8a8" stroke-linecap="round" stroke-linejoin="round" stroke-miterlimit="10" stroke-width="1"/>
              <line id="Línea_633" data-name="Línea 633" x2="21.37" transform="translate(3.438 3.438)" fill="none" stroke="#a8a8a8" stroke-linecap="round" stroke-linejoin="round" stroke-miterlimit="10" stroke-width="1"/>
              <line id="Línea_634" data-name="Línea 634" x2="17.686" transform="translate(7.614 13.755)" fill="none" stroke="#a8a8a8" stroke-linecap="round" stroke-linejoin="round" stroke-miterlimit="10" stroke-width="1"/>
              <line id="Línea_635" data-name="Línea 635" x2="12.773" transform="translate(12.773 27.265)" fill="none" stroke="#a8a8a8" stroke-linecap="round" stroke-linejoin="round" stroke-miterlimit="10" stroke-width="1"/>
              <line id="Línea_636" data-name="Línea 636" x2="7.86" transform="translate(17.194 39.301)" fill="none" stroke="#a8a8a8" stroke-linecap="round" stroke-linejoin="round" stroke-miterlimit="10" stroke-width="1"/>
            </g>
            <path id="Trazado_1183143" data-name="Trazado 1183143" d="M167.75,196.471s-4.166,1.046-3.673,13.881c.447,11.63.084,135.7.012,156.123q0,.312-.021.625c-.156,2.363-.72,4.33-3.025,4.875H200.36a10.815,10.815,0,0,0,3.456-7.924V199.492Z" transform="translate(-78.768 -196.471)" fill="#263238" stroke="#263238" stroke-linecap="round" stroke-linejoin="round" stroke-miterlimit="10" stroke-width="1"/>
          </g>
          <g id="Grupo_1227730" data-name="Grupo 1227730" transform="translate(88.982)">
            <path id="Trazado_1183144" data-name="Trazado 1183144" d="M178.895,208.891c.5,11.135.109,78.2.018,92.828l2.881,2.606,2.928-2.647,2.928,2.647,2.929-2.647,2.928,2.647,2.929-2.647,2.929,2.647,2.928-2.647,2.926,2.647,2.929-2.647,2.927,2.647L214,301.678l2.93,2.647,2.93-2.647,2.93,2.647.306-.277c-.029-7.137-.463-92.459-4.725-100.717-4.448-8.619-8.619-8.619-11.121-8.619H176.392s-4.07.06-4.622,1.165C171.77,195.876,178.339,196.38,178.895,208.891Z" transform="translate(-171.77 -194.711)" fill="#fff" stroke="#263238" stroke-linecap="round" stroke-linejoin="round" stroke-miterlimit="10" stroke-width="1"/>
            <g id="Grupo_1227729" data-name="Grupo 1227729" transform="translate(7.874 0.31)">
              <path id="Trazado_1183145" data-name="Trazado 1183145" d="M183.666,195.18c1.973,1.266,4.669,4.444,5.017,12.385.556,12.706,0,78.67,0,78.67H223.5s-.278-75.564-4.726-84.317a21.818,21.818,0,0,0-4.459-6.3" transform="translate(-183.666 -195.18)" fill="none" stroke="#a8a8a8" stroke-linecap="round" stroke-linejoin="round" stroke-miterlimit="10" stroke-width="1"/>
              <path id="Trazado_1183146" data-name="Trazado 1183146" d="M197.058,196.044a14.169,14.169,0,0,1,3.213,8.792V286.5" transform="translate(-188.194 -195.472)" fill="none" stroke="#a8a8a8" stroke-linecap="round" stroke-linejoin="round" stroke-miterlimit="10" stroke-width="1"/>
              <path id="Trazado_1183147" data-name="Trazado 1183147" d="M217.24,332.97v10.314h17.415v-8.623" transform="translate(-195.019 -241.772)" fill="none" stroke="#a8a8a8" stroke-linecap="round" stroke-linejoin="round" stroke-miterlimit="10" stroke-width="1"/>
              <line id="Línea_637" data-name="Línea 637" x2="27.898" transform="translate(5.989 8.688)" fill="none" stroke="#a8a8a8" stroke-linecap="round" stroke-linejoin="round" stroke-miterlimit="10" stroke-width="1"/>
              <line id="Línea_638" data-name="Línea 638" x2="27.898" transform="translate(6.666 18.494)" fill="none" stroke="#a8a8a8" stroke-linecap="round" stroke-linejoin="round" stroke-miterlimit="10" stroke-width="1"/>
              <line id="Línea_639" data-name="Línea 639" x2="30.773" transform="translate(6.666 29.485)" fill="none" stroke="#a8a8a8" stroke-linecap="round" stroke-linejoin="round" stroke-miterlimit="10" stroke-width="1"/>
              <line id="Línea_640" data-name="Línea 640" x2="30.773" transform="translate(6.666 41.658)" fill="none" stroke="#a8a8a8" stroke-linecap="round" stroke-linejoin="round" stroke-miterlimit="10" stroke-width="1"/>
              <line id="Línea_641" data-name="Línea 641" x2="30.773" transform="translate(6.666 53.832)" fill="none" stroke="#a8a8a8" stroke-linecap="round" stroke-linejoin="round" stroke-miterlimit="10" stroke-width="1"/>
              <line id="Línea_642" data-name="Línea 642" x2="30.773" transform="translate(6.666 66.006)" fill="none" stroke="#a8a8a8" stroke-linecap="round" stroke-linejoin="round" stroke-miterlimit="10" stroke-width="1"/>
              <line id="Línea_643" data-name="Línea 643" x2="30.773" transform="translate(6.666 78.179)" fill="none" stroke="#a8a8a8" stroke-linecap="round" stroke-linejoin="round" stroke-miterlimit="10" stroke-width="1"/>
            </g>
          </g>
        </g>
      </g>
      <g id="Character" transform="translate(154.489 84.971)">
        <g id="Grupo_1227740" data-name="Grupo 1227740">
          <path id="Trazado_1183148" data-name="Trazado 1183148" d="M243.933,210.215s-3.538-6.768-4.769-8.306-6.46-3.076-7.076-3.384-2.923-2.307-4-1.692-.769,3.538.154,4.307a23.584,23.584,0,0,0,4.307,2s1.077,6.153,2.769,7.537a10.423,10.423,0,0,0,3.231,1.846l3.384,3.076Z" transform="translate(-227.405 -138.386)" fill="#fff" stroke="#263238" stroke-linecap="round" stroke-linejoin="round" stroke-miterlimit="10" stroke-width="1"/>
          <path id="Trazado_1183149" data-name="Trazado 1183149" d="M251.036,214.788l-3.076,9.229,3.384,1.539,3.076-9.076Z" transform="translate(-234.356 -144.497)" fill="#fff" stroke="#263238" stroke-linecap="round" stroke-linejoin="round" stroke-miterlimit="10" stroke-width="1"/>
          <path id="Trazado_1183150" data-name="Trazado 1183150" d="M255.694,213.965l-3.969,11.63s32.166,11.781,33.089,11.935,2.923.616,3.692-.154,13.027-18.027,13.027-18.027l-10.152-12-9.076,12.767Z" transform="translate(-235.629 -141.982)" fill="#86b60c" stroke="#263238" stroke-linecap="round" stroke-linejoin="round" stroke-miterlimit="10" stroke-width="1"/>
          <g id="Grupo_1227739" data-name="Grupo 1227739" transform="translate(0.397)">
            <path id="Trazado_1183151" data-name="Trazado 1183151" d="M320.41,241.891l.739,17.373-5.729,19.221,12.2,1.663,3.142-25.69Z" transform="translate(-257.563 -153.661)" fill="#86b60c" stroke="#263238" stroke-linecap="round" stroke-linejoin="round" stroke-miterlimit="10" stroke-width="1"/>
            <path id="Trazado_1183152" data-name="Trazado 1183152" d="M294.6,169.611l-5.162,11.5,4.277,7.079,2.8-5.456Z" transform="translate(-248.778 -129.221)" fill="#fff" stroke="#263238" stroke-linecap="round" stroke-linejoin="round" stroke-miterlimit="10" stroke-width="1"/>
            <path id="Trazado_1183153" data-name="Trazado 1183153" d="M306.648,262.737l-.682,7.048s-20.793,40.653-21.93,46.564-.122,53.01-.122,53.01-3.638,3.183-3.638,4.319a40.448,40.448,0,0,1-.682,4.547l-9.548,6.82s-8.412,3.41-8.184,4.547,4.774,4.092,10.23,4.092,15.459-2.046,15.459-2.046,8.412,1.364,10,0,1.819-4.319,1.591-7.048-.228-9.321-.228-9.321l7.027-52.234,20.026-33.245,5.456,2.5s21.37,43.422,26.371,46.832,19.324,32.736,19.324,32.736,4.092,9.321,5.91,13.186,6.82,10.457,10.23,10.23,3.865-2.046,2.955-6.593S391.9,374.133,390.99,373s-3.865-7.275-3.865-7.275-1.364-5-1.591-5.91S367.8,321.619,367.8,321.619l-8.866-49.56L347.114,253.19Z" transform="translate(-239.452 -157.482)" fill="#263238" stroke="#263238" stroke-linecap="round" stroke-linejoin="round" stroke-miterlimit="10" stroke-width="1"/>
            <path id="Trazado_1183154" data-name="Trazado 1183154" d="M320.2,220.843s5.3,28.34,6.932,29.971,8.971,1.019,8.971,1.019l-13.542-28.421Z" transform="translate(-259.177 -146.544)" fill="#fff" stroke="#263238" stroke-linecap="round" stroke-linejoin="round" stroke-miterlimit="10" stroke-width="1"/>
            <path id="Trazado_1183155" data-name="Trazado 1183155" d="M301.751,187.347,300.6,248.083l6.016,4.728,4.871-8.308-7.449-58.3Z" transform="translate(-252.553 -134.831)" fill="#263238" stroke="#263238" stroke-linecap="round" stroke-linejoin="round" stroke-miterlimit="10" stroke-width="1"/>
            <path id="Trazado_1183156" data-name="Trazado 1183156" d="M301.471,176s1.432,9.167,3.581,14.468S316.226,203.5,316.226,203.5L301.9,161.961Z" transform="translate(-252.846 -126.634)" fill="#fff" stroke="#263238" stroke-linecap="round" stroke-linejoin="round" stroke-miterlimit="10" stroke-width="1"/>
            <g id="Grupo_1227732" data-name="Grupo 1227732" transform="translate(4.886)">
              <path id="Trazado_1183157" data-name="Trazado 1183157" d="M243.7,133.161s1.3,4.544,2.056,5.519,2.921,1.839,3.246,3.9-.541,5.519.757,6.276,4.112.216,4.112.216,7.142,6.492,8.332,6.709a3.409,3.409,0,0,0,2.922-.757c.433-.541,4.544-6.492,4.544-6.492l6.492,3.354,1.948-17.854-3.354-1.839a24.091,24.091,0,0,0-1.515-15.149c-3.571-7.791-12.768-8.548-16.88-8.115l-4.112.433s-4.544-1.731-6.817,0-2.164,4.544-2.814,4.869-1.082-3.029-3.138-.649-1.515,6.6-1.3,7.358-2.272-.866-2.6,3.679.324,6.817,2.814,7.791c0,0-5.41,0-1.731,1.948S243.7,133.161,243.7,133.161Z" transform="translate(-235.387 -108.587)" fill="#fff" stroke="#263238" stroke-linecap="round" stroke-linejoin="round" stroke-miterlimit="10" stroke-width="1"/>
              <path id="Trazado_1183158" data-name="Trazado 1183158" d="M245.652,130.131c.541-2.272,0-6.059,1.082-7.574s3.03-.433,3.138,1.731-1.948,4.977,3.138,6.384,6.059-.108,6.492,0,2.921,1.623,3.138.324-.433-5.519,3.246-5.951,4,5.735,5.086,6.492c.8.557,2.816.529,3.832.475a24.2,24.2,0,0,0-1.559-14.974c-3.571-7.791-12.768-8.548-16.88-8.115l-4.112.433s-4.544-1.731-6.817,0-2.164,4.544-2.814,4.869-1.082-3.03-3.138-.649-1.515,6.6-1.3,7.358-2.272-.866-2.6,3.679.324,6.817,2.814,7.791c0,0-5.41,0-1.731,1.948s7.033-1.19,7.033-1.19A4.631,4.631,0,0,0,245.652,130.131Z" transform="translate(-235.387 -108.586)" fill="#263238" stroke="#263238" stroke-linecap="round" stroke-linejoin="round" stroke-miterlimit="10" stroke-width="1"/>
              <path id="Trazado_1183159" data-name="Trazado 1183159" d="M286.63,139.831s.757,3.354.109,5.194a3.58,3.58,0,0,1-2.164,2.272s1.623,4.111.974,6.6" transform="translate(-252.019 -119.151)" fill="none" stroke="#263238" stroke-linecap="round" stroke-linejoin="round" stroke-miterlimit="10" stroke-width="1"/>
              <path id="Trazado_1183160" data-name="Trazado 1183160" d="M270.677,165.4a7.662,7.662,0,0,0,1.839-5.627" transform="translate(-247.32 -125.895)" fill="none" stroke="#263238" stroke-linecap="round" stroke-linejoin="round" stroke-miterlimit="10" stroke-width="1"/>
              <path id="Trazado_1183161" data-name="Trazado 1183161" d="M260.406,154.753c.663.647.913,1.466.558,1.829s-1.179.134-1.843-.513-.913-1.466-.558-1.829S259.743,154.105,260.406,154.753Z" transform="translate(-243.169 -123.965)" fill="#263238"/>
              <path id="Trazado_1183162" data-name="Trazado 1183162" d="M254.165,152.609s3.03-3.787,4.111-3.787,3.972,3.666,4.3,5.614-.818,2.743-2.442,2.959S254.923,154.773,254.165,152.609Z" transform="translate(-241.736 -122.191)" fill="none" stroke="#263238" stroke-linecap="round" stroke-linejoin="round" stroke-miterlimit="10" stroke-width="1"/>
              <path id="Trazado_1183163" data-name="Trazado 1183163" d="M252.894,154.544l-2.489,2.705s1.406,2.921,3.787,2.921" transform="translate(-240.465 -124.126)" fill="none" stroke="#263238" stroke-linecap="round" stroke-linejoin="round" stroke-miterlimit="10" stroke-width="1"/>
              <path id="Trazado_1183164" data-name="Trazado 1183164" d="M260.378,144.234l10.771-8.277.915-.7-.974,1.839-9.414,8.116Z" transform="translate(-243.837 -117.603)" fill="#263238" stroke="#263238" stroke-linecap="round" stroke-linejoin="round" stroke-miterlimit="10" stroke-width="1"/>
              <path id="Trazado_1183165" data-name="Trazado 1183165" d="M285.064,134.926s2.705.757,2.921,2.056-1.586-.16-1.586-.16Z" transform="translate(-252.184 -117.493)" fill="#263238" stroke="#263238" stroke-linecap="round" stroke-linejoin="round" stroke-miterlimit="10" stroke-width="1"/>
              <path id="Trazado_1183166" data-name="Trazado 1183166" d="M253.614,149.805a4.132,4.132,0,0,1,2.584-3.472" transform="translate(-241.55 -121.35)" fill="none" stroke="#263238" stroke-linecap="round" stroke-linejoin="round" stroke-miterlimit="10" stroke-width="1"/>
            </g>
            <path id="Trazado_1183167" data-name="Trazado 1183167" d="M297.888,147.024s-4.5,25.779-3.976,26.173,6.611,5.883,6.611,5.883l.1-31.67Z" transform="translate(-250.276 -121.583)" fill="#fff" stroke="#263238" stroke-linecap="round" stroke-linejoin="round" stroke-miterlimit="10" stroke-width="1"/>
            <path id="Trazado_1183168" data-name="Trazado 1183168" d="M299.941,147.024s5.76,34.594,5.76,37.62,19.208,37.627,20,39.337,2.631,27.891,2.631,27.891,24.865-.394,33.811-6.315,11.972-12.5,11.972-12.5l-20.26-31.838s-7.631-24.076-20.655-37.232S312.147,147.017,299.941,147.024Z" transform="translate(-252.329 -121.583)" fill="#86b60c" stroke="#263238" stroke-linecap="round" stroke-linejoin="round" stroke-miterlimit="10" stroke-width="1"/>
            <g id="Grupo_1227733" data-name="Grupo 1227733" transform="translate(80.776 105.281)">
              <path id="Trazado_1183169" data-name="Trazado 1183169" d="M360.4,270.365l-10.351,3.515.885,3.392,16.075-5.162" transform="translate(-350.048 -268.571)" fill="none" stroke="#263238" stroke-linecap="round" stroke-linejoin="round" stroke-miterlimit="10" stroke-width="1"/>
              <line id="Línea_644" data-name="Línea 644" x1="2.82" y2="0.958" transform="translate(12.814)" fill="none" stroke="#263238" stroke-linecap="round" stroke-linejoin="round" stroke-miterlimit="10" stroke-width="1"/>
            </g>
            <g id="Grupo_1227734" data-name="Grupo 1227734" transform="translate(50.346 25.828)">
              <path id="Trazado_1183170" data-name="Trazado 1183170" d="M308.725,167.3c.55,2.42.952,4.3.952,4.626" transform="translate(-305.645 -154.267)" fill="none" stroke="#263238" stroke-linecap="round" stroke-linejoin="round" stroke-miterlimit="10" stroke-width="1"/>
              <path id="Trazado_1183171" data-name="Trazado 1183171" d="M304.072,147.609s1.43,5.9,2.587,10.886" transform="translate(-304.072 -147.609)" fill="none" stroke="#263238" stroke-linecap="round" stroke-linejoin="round" stroke-miterlimit="10" stroke-width="1"/>
            </g>
            <g id="Grupo_1227737" data-name="Grupo 1227737" transform="translate(0 34.511)">
              <g id="Grupo_1227735" data-name="Grupo 1227735" transform="translate(16.272 21.059)">
                <path id="Trazado_1183172" data-name="Trazado 1183172" d="M266.753,211.146a1.321,1.321,0,0,1-1.031-.492l-12.869-16.167a1.191,1.191,0,1,1,1.855-1.5l13.075,16a1.323,1.323,0,0,1-1.03,2.154Z" transform="translate(-252.589 -192.547)" fill="#263238"/>
              </g>
              <g id="Grupo_1227736" data-name="Grupo 1227736">
                <path id="Trazado_1183173" data-name="Trazado 1183173" d="M231.183,160.831l-3.011,2.19c-.905.668,1.956,6.081,6.392,12.089s8.766,10.337,9.671,9.669l3.011-2.19Z" transform="translate(-228.004 -160.763)" fill="#fff" stroke="#263238" stroke-linecap="round" stroke-linejoin="round" stroke-miterlimit="10" stroke-width="1"/>
                <path id="Trazado_1183174" data-name="Trazado 1183174" d="M242.393,170.465c4.436,6.008,7.3,11.42,6.392,12.089s-5.235-3.66-9.671-9.669-7.3-11.42-6.392-12.089S237.957,164.456,242.393,170.465Z" transform="translate(-229.543 -160.728)" fill="#fff" stroke="#263238" stroke-linecap="round" stroke-linejoin="round" stroke-miterlimit="10" stroke-width="1"/>
                <path id="Trazado_1183175" data-name="Trazado 1183175" d="M234.449,166.623a75.908,75.908,0,0,0,11.608,15.733,75.909,75.909,0,0,0-11.608-15.733Z" transform="translate(-230.184 -162.721)" fill="#fff" stroke="#263238" stroke-linecap="round" stroke-linejoin="round" stroke-miterlimit="10" stroke-width="1"/>
              </g>
            </g>
            <path id="Trazado_1183176" data-name="Trazado 1183176" d="M277.221,216.06l-3.148-4.233s-4.125-7.164-5.319-8.357-5.753-3.365-5.97-3.8-1.52-3.256-2.062-3.148-1.628.543-1.411,2.931,2.388,3.8,2.822,4.45-1.085.434-1.085.434-4.776-1.3-5.536-.651-.651,2.279,0,3.256a9.59,9.59,0,0,0,2.822,2.062s.977,4.559,2.279,6.187,9.551,3.582,9.551,3.582l4.667,3.473Z" transform="translate(-237.127 -138.32)" fill="#fff" stroke="#263238" stroke-linecap="round" stroke-linejoin="round" stroke-miterlimit="10" stroke-width="1"/>
            <path id="Trazado_1183177" data-name="Trazado 1183177" d="M306.487,171.93s-6.2,5.446-6.384,10.328,3.943,28.731,3.943,28.731l-12.581-3.568-4.695,13.9s22.534,9.952,28.356,9.764,9.389-6.572,9.014-12.018-1.127-30.984-1.127-30.984" transform="translate(-247.875 -130.005)" fill="#86b60c" stroke="#263238" stroke-linecap="round" stroke-linejoin="round" stroke-miterlimit="10" stroke-width="1"/>
            <g id="Grupo_1227738" data-name="Grupo 1227738" transform="translate(56.171 80.984)">
              <line id="Línea_645" data-name="Línea 645" x2="2.072" y2="0.37" transform="translate(8.444 1.508)" fill="#fff" stroke="#263238" stroke-linecap="round" stroke-linejoin="round" stroke-miterlimit="10" stroke-width="1"/>
              <line id="Línea_646" data-name="Línea 646" x2="6.458" y2="1.154" fill="#fff" stroke="#263238" stroke-linecap="round" stroke-linejoin="round" stroke-miterlimit="10" stroke-width="1"/>
            </g>
            <path id="Trazado_1183178" data-name="Trazado 1183178" d="M289.785,225.866l-3.716-1.369-3.325,9.388,3.814,1.565Z" transform="translate(-246.514 -147.78)" fill="#fff" stroke="#263238" stroke-linecap="round" stroke-linejoin="round" stroke-miterlimit="10" stroke-width="1"/>
          </g>
        </g>
      </g>
    </g>
  </g>
</svg>
