<svg xmlns="http://www.w3.org/2000/svg" xmlns:xlink="http://www.w3.org/1999/xlink" width="118" height="118" viewBox="0 0 118 118">
  <defs>
    <filter id="Trazado_982547" x="0" y="0" width="118" height="118" filterUnits="userSpaceOnUse">
      <feOffset dy="3" input="SourceAlpha"/>
      <feGaussianBlur stdDeviation="3" result="blur"/>
      <feFlood flood-opacity="0.161"/>
      <feComposite operator="in" in2="blur"/>
      <feComposite in="SourceGraphic"/>
    </filter>
  </defs>
  <g id="Grupo_1227745" data-name="Grupo 1227745" transform="translate(-320.888 -4270.926)">
    <g id="Grupo_1225721" data-name="Grupo 1225721" transform="translate(0 2967)">
      <g id="Grupo_1224853" data-name="Grupo 1224853" transform="translate(329.888 1309.926)">
        <g id="Grupo_1174813" data-name="Grupo 1174813">
          <g id="Grupo_1201680" data-name="Grupo 1201680">
            <g id="Grupo_1201330" data-name="Grupo 1201330">
              <g id="Grupo_1172010" data-name="Grupo 1172010">
                <g id="Grupo_1171046" data-name="Grupo 1171046">
                  <g id="Grupo_1148525" data-name="Grupo 1148525">
                    <g transform="matrix(1, 0, 0, 1, -9, -6)" filter="url(#Trazado_982547)">
                      <g id="Trazado_982547-2" data-name="Trazado 982547" transform="translate(9 6)" fill="#ffebd0">
                        <path d="M 50 98.5 C 43.45188522338867 98.5 37.10042953491211 97.21787261962891 31.12207221984863 94.68923950195312 C 25.34691429138184 92.24655914306641 20.15997123718262 88.74931335449219 15.70532894134521 84.29468536376953 C 11.2506856918335 79.84004211425781 7.753442764282227 74.65309906005859 5.310757160186768 68.8779296875 C 2.782128572463989 62.89957046508789 1.5 56.54811477661133 1.5 50 C 1.5 43.45188522338867 2.782128572463989 37.10042953491211 5.310757160186768 31.12207221984863 C 7.753442764282227 25.34691429138184 11.2506856918335 20.15997123718262 15.70532894134521 15.70532894134521 C 20.15997123718262 11.2506856918335 25.34691429138184 7.753442764282227 31.12207221984863 5.310757160186768 C 37.10042953491211 2.782128572463989 43.45188522338867 1.5 50 1.5 C 56.54811477661133 1.5 62.89957046508789 2.782128572463989 68.8779296875 5.310757160186768 C 74.65309906005859 7.753442764282227 79.84004211425781 11.2506856918335 84.29468536376953 15.70532894134521 C 88.74931335449219 20.15997123718262 92.24655914306641 25.34691429138184 94.68923950195312 31.12207221984863 C 97.21787261962891 37.10042953491211 98.5 43.45188522338867 98.5 50 C 98.5 56.54811477661133 97.21787261962891 62.89957046508789 94.68923950195312 68.8779296875 C 92.24655914306641 74.65309906005859 88.74931335449219 79.84004211425781 84.29468536376953 84.29468536376953 C 79.84004211425781 88.74931335449219 74.65309906005859 92.24655914306641 68.8779296875 94.68923950195312 C 62.89957046508789 97.21787261962891 56.54811477661133 98.5 50 98.5 Z" stroke="none"/>
                        <path d="M 50 3 C 43.65372467041016 3 37.49886322021484 4.242263793945312 31.70639801025391 6.6922607421875 C 26.11003112792969 9.059326171875 21.08335113525391 12.44861602783203 16.76598358154297 16.76598358154297 C 12.44861602783203 21.08335113525391 9.059326171875 26.11003112792969 6.6922607421875 31.70639801025391 C 4.242263793945312 37.49886322021484 3 43.65372467041016 3 50 C 3 56.34627532958984 4.242263793945312 62.50113677978516 6.6922607421875 68.29360198974609 C 9.059326171875 73.88996887207031 12.44861602783203 78.91666412353516 16.76598358154297 83.23401641845703 C 21.08335113525391 87.55138397216797 26.11003112792969 90.940673828125 31.70639801025391 93.3077392578125 C 37.49886322021484 95.75773620605469 43.65372467041016 97 50 97 C 56.34627532958984 97 62.50113677978516 95.75773620605469 68.29360198974609 93.3077392578125 C 73.88996887207031 90.940673828125 78.91666412353516 87.55138397216797 83.23401641845703 83.23401641845703 C 87.55138397216797 78.91666412353516 90.940673828125 73.88996887207031 93.3077392578125 68.29360198974609 C 95.75773620605469 62.50113677978516 97 56.34627532958984 97 50 C 97 43.65372467041016 95.75773620605469 37.49886322021484 93.3077392578125 31.70639801025391 C 90.940673828125 26.11003112792969 87.55138397216797 21.08335113525391 83.23401641845703 16.76598358154297 C 78.91666412353516 12.44861602783203 73.88996887207031 9.059326171875 68.29360198974609 6.6922607421875 C 62.50113677978516 4.242263793945312 56.34627532958984 3 50 3 M 50 0 C 77.61424255371094 0 100 22.38577270507812 100 50 C 100 77.61424255371094 77.61424255371094 100 50 100 C 22.38577270507812 100 0 77.61424255371094 0 50 C 0 22.38577270507812 22.38577270507812 0 50 0 Z" stroke="none" fill="#ff9d1c"/>
                      </g>
                    </g>
                  </g>
                </g>
              </g>
            </g>
          </g>
        </g>
      </g>
    </g>
    <g id="presupuesto_1_" data-name="presupuesto (1)" transform="translate(348.031 4295.552)">
      <path id="Trazado_1183179" data-name="Trazado 1183179" d="M142.96,18.668V55.7c0,.074,0,.148,0,.222a4.781,4.781,0,0,1-4.776,4.558H111.3a4.78,4.78,0,0,1-4.781-4.78V12.825A4.774,4.774,0,0,1,111.3,8.044h21.348a4.765,4.765,0,0,1,2.076.476c1.292.622,1.655,1.407,3.976,3.78,2.67,2.9,3.308,3.2,3.852,4.452A4.728,4.728,0,0,1,142.96,18.668Z" transform="translate(-92.986 -7.058)" fill="#ffc477"/>
      <path id="Trazado_1183180" data-name="Trazado 1183180" d="M169.426,18.667V55.694c0,.074,0,.148,0,.222a4.8,4.8,0,0,1-1.079.122H141.466a4.78,4.78,0,0,1-4.781-4.78V8.388c0-.075,0-.149,0-.223a4.8,4.8,0,0,1,1.079-.122h21.348a4.788,4.788,0,0,1,3.493,1.518L165.17,12.3l2.93,3.066a4.811,4.811,0,0,1,1.326,3.3Z" transform="translate(-119.452 -7.057)" fill="#ffdaaa"/>
      <path id="Trazado_1183181" data-name="Trazado 1183181" d="M281.481,181.652V208.53a6.756,6.756,0,0,1-6.756,6.756H257.17a6.756,6.756,0,0,1-6.756-6.756V181.652a6.753,6.753,0,0,1,6.756-6.756h17.556A6.755,6.755,0,0,1,281.481,181.652Z" transform="translate(-219.242 -153.461)" fill="#4cba68"/>
      <path id="Trazado_1183182" data-name="Trazado 1183182" d="M301.48,181.652V208.53a6.72,6.72,0,0,1-1.309,4,6.728,6.728,0,0,1-2.654.542H279.962a6.756,6.756,0,0,1-6.756-6.756V179.434a6.72,6.72,0,0,1,1.309-4,6.728,6.728,0,0,1,2.654-.542h17.556A6.755,6.755,0,0,1,301.48,181.652Z" transform="translate(-239.241 -153.461)" fill="#7ccc92"/>
      <path id="Trazado_1183183" data-name="Trazado 1183183" d="M361.217,366.979v3.157a1.01,1.01,0,0,1-1.009,1.01h-3.158a1.01,1.01,0,0,1-1.01-1.01v-3.157a1.01,1.01,0,0,1,1.01-1.01h3.158A1.01,1.01,0,0,1,361.217,366.979Z" transform="translate(-311.922 -321.117)" fill="#2c733f"/>
      <path id="Trazado_1183184" data-name="Trazado 1183184" d="M310.079,209.256v3.382a2.178,2.178,0,0,1-2.178,2.178H290.475a2.179,2.179,0,0,1-2.178-2.178v-3.382a2.179,2.179,0,0,1,2.178-2.178H307.9A2.178,2.178,0,0,1,310.079,209.256Z" transform="translate(-252.483 -181.699)" fill="#1e81ce"/>
      <path id="Trazado_1183185" data-name="Trazado 1183185" d="M336.544,209.256v3.382a2.178,2.178,0,0,1-2.178,2.178H320.636a2.179,2.179,0,0,1-2.178-2.178v-3.382a2.179,2.179,0,0,1,2.178-2.178h13.729A2.178,2.178,0,0,1,336.544,209.256Z" transform="translate(-278.947 -181.699)" fill="#3d9ae2"/>
      <g id="Grupo_1227741" data-name="Grupo 1227741" transform="translate(35.814 36.596)">
        <path id="Trazado_1183186" data-name="Trazado 1183186" d="M293.476,366.979v3.157a1.01,1.01,0,0,1-1.01,1.01h-3.158a1.011,1.011,0,0,1-1.01-1.01v-3.157a1.011,1.011,0,0,1,1.01-1.01h3.158A1.01,1.01,0,0,1,293.476,366.979Z" transform="translate(-288.297 -357.714)" fill="#2c733f"/>
        <path id="Trazado_1183187" data-name="Trazado 1183187" d="M361.217,299.618v3.157a1.01,1.01,0,0,1-1.009,1.01h-3.158a1.01,1.01,0,0,1-1.01-1.01v-3.157a1.01,1.01,0,0,1,1.01-1.01h3.158A1.01,1.01,0,0,1,361.217,299.618Z" transform="translate(-347.737 -298.608)" fill="#2c733f"/>
      </g>
      <path id="Trazado_1183188" data-name="Trazado 1183188" d="M429.774,299.618v3.157a1.01,1.01,0,0,1-1.01,1.01h-3.157a1.01,1.01,0,0,1-1.01-1.01v-3.157a1.01,1.01,0,0,1,1.01-1.01h3.157A1.01,1.01,0,0,1,429.774,299.618Z" transform="translate(-372.077 -262.012)" fill="#ee8700"/>
      <g id="Grupo_1227742" data-name="Grupo 1227742" transform="translate(35.814 36.596)">
        <path id="Trazado_1183189" data-name="Trazado 1183189" d="M293.476,299.618v3.157a1.01,1.01,0,0,1-1.01,1.01h-3.158a1.011,1.011,0,0,1-1.01-1.01v-3.157a1.011,1.011,0,0,1,1.01-1.01h3.158A1.01,1.01,0,0,1,293.476,299.618Z" transform="translate(-288.297 -298.608)" fill="#2c733f"/>
        <path id="Trazado_1183190" data-name="Trazado 1183190" d="M361.217,431.04V434.2a1.01,1.01,0,0,1-1.009,1.01h-3.158a1.01,1.01,0,0,1-1.01-1.01V431.04a1.01,1.01,0,0,1,1.01-1.009h3.158A1.01,1.01,0,0,1,361.217,431.04Z" transform="translate(-347.737 -413.924)" fill="#2c733f"/>
        <path id="Trazado_1183191" data-name="Trazado 1183191" d="M293.476,431.04V434.2a1.01,1.01,0,0,1-1.01,1.01h-3.158a1.011,1.011,0,0,1-1.01-1.01V431.04a1.011,1.011,0,0,1,1.01-1.009h3.158A1.01,1.01,0,0,1,293.476,431.04Z" transform="translate(-288.297 -413.924)" fill="#2c733f"/>
      </g>
      <path id="Trazado_1183192" data-name="Trazado 1183192" d="M429.774,367.469v9.8A1.723,1.723,0,0,1,428.051,379h-1.732a1.723,1.723,0,0,1-1.723-1.724v-9.8a1.5,1.5,0,0,1,1.5-1.5h2.176A1.5,1.5,0,0,1,429.774,367.469Z" transform="translate(-372.077 -321.116)" fill="#ee8700"/>
      <g id="Grupo_1227743" data-name="Grupo 1227743" transform="translate(35.814 36.596)">
        <path id="Trazado_1183193" data-name="Trazado 1183193" d="M361.217,366.979v.939a1.01,1.01,0,0,1-1.009,1.01h-3.158a1.01,1.01,0,0,1-1.01-1.01v-.939a1.01,1.01,0,0,1,1.01-1.01h3.158A1.01,1.01,0,0,1,361.217,366.979Z" transform="translate(-347.737 -357.714)" fill="#317f46"/>
        <path id="Trazado_1183194" data-name="Trazado 1183194" d="M293.476,366.979v.939a1.01,1.01,0,0,1-1.01,1.01h-3.158a1.011,1.011,0,0,1-1.01-1.01v-.939a1.011,1.011,0,0,1,1.01-1.01h3.158A1.01,1.01,0,0,1,293.476,366.979Z" transform="translate(-288.297 -357.714)" fill="#317f46"/>
        <path id="Trazado_1183195" data-name="Trazado 1183195" d="M361.217,299.618v.939a1.01,1.01,0,0,1-1.009,1.01h-3.158a1.01,1.01,0,0,1-1.01-1.01v-.939a1.01,1.01,0,0,1,1.01-1.01h3.158A1.01,1.01,0,0,1,361.217,299.618Z" transform="translate(-347.737 -298.608)" fill="#317f46"/>
      </g>
      <path id="Trazado_1183196" data-name="Trazado 1183196" d="M429.774,299.618v.939a1.01,1.01,0,0,1-1.01,1.01h-3.157a1.01,1.01,0,0,1-1.01-1.01v-.939a1.01,1.01,0,0,1,1.01-1.01h3.157A1.01,1.01,0,0,1,429.774,299.618Z" transform="translate(-372.077 -262.012)" fill="#ff9811"/>
      <g id="Grupo_1227744" data-name="Grupo 1227744" transform="translate(35.814 36.596)">
        <path id="Trazado_1183197" data-name="Trazado 1183197" d="M293.476,299.618v.939a1.01,1.01,0,0,1-1.01,1.01h-3.158a1.011,1.011,0,0,1-1.01-1.01v-.939a1.011,1.011,0,0,1,1.01-1.01h3.158A1.01,1.01,0,0,1,293.476,299.618Z" transform="translate(-288.297 -298.608)" fill="#317f46"/>
        <path id="Trazado_1183198" data-name="Trazado 1183198" d="M361.217,431.04v.94a1.01,1.01,0,0,1-1.009,1.01h-3.158a1.01,1.01,0,0,1-1.01-1.01v-.94a1.01,1.01,0,0,1,1.01-1.009h3.158A1.01,1.01,0,0,1,361.217,431.04Z" transform="translate(-347.737 -413.924)" fill="#317f46"/>
        <path id="Trazado_1183199" data-name="Trazado 1183199" d="M293.476,431.04v.94a1.01,1.01,0,0,1-1.01,1.01h-3.158a1.011,1.011,0,0,1-1.01-1.01v-.94a1.011,1.011,0,0,1,1.01-1.009h3.158A1.01,1.01,0,0,1,293.476,431.04Z" transform="translate(-288.297 -413.924)" fill="#317f46"/>
      </g>
      <path id="Trazado_1183200" data-name="Trazado 1183200" d="M429.774,367.469v7.586a1.723,1.723,0,0,1-1.723,1.724h-1.732a1.723,1.723,0,0,1-1.723-1.724v-7.586a1.5,1.5,0,0,1,1.5-1.5h2.176A1.5,1.5,0,0,1,429.774,367.469Z" transform="translate(-372.077 -321.116)" fill="#ff9811"/>
      <path id="Trazado_1183201" data-name="Trazado 1183201" d="M344.49,20.156H338.5a1.838,1.838,0,0,1-1.838-1.838V11.924a4.775,4.775,0,0,1,1.417,1.042l2.56,2.738,2.93,3.066A4.733,4.733,0,0,1,344.49,20.156Z" transform="translate(-294.919 -10.463)" fill="#ffb655"/>
      <path id="Trazado_1183202" data-name="Trazado 1183202" d="M88.48,463.992a2.347,2.347,0,0,1-2.341,2.341H71.8a2.341,2.341,0,0,1,0-4.682H86.139A2.348,2.348,0,0,1,88.48,463.992Z" transform="translate(-60.462 -405.073)" fill="#aa6100"/>
      <path id="Trazado_1183203" data-name="Trazado 1183203" d="M88.48,425.787a2.347,2.347,0,0,1-2.341,2.341H71.8a2.341,2.341,0,0,1,0-4.682H86.139A2.348,2.348,0,0,1,88.48,425.787Z" transform="translate(-60.462 -371.55)" fill="#cc7400"/>
      <path id="Trazado_1183204" data-name="Trazado 1183204" d="M88.48,387.583a2.347,2.347,0,0,1-2.341,2.341H71.8a2.341,2.341,0,0,1,0-4.682H86.139A2.348,2.348,0,0,1,88.48,387.583Z" transform="translate(-60.462 -338.028)" fill="#ee8700"/>
      <path id="Trazado_1183205" data-name="Trazado 1183205" d="M88.48,349.377a2.347,2.347,0,0,1-2.341,2.341H71.8a2.348,2.348,0,0,1-2.341-2.341,2.347,2.347,0,0,1,2.341-2.341H86.139A2.348,2.348,0,0,1,88.48,349.377Z" transform="translate(-60.462 -304.505)" fill="#ff9811"/>
      <path id="Trazado_1183206" data-name="Trazado 1183206" d="M86.139,313.516H71.8a2.348,2.348,0,0,1-2.341-2.341h0a2.348,2.348,0,0,1,2.341-2.341H86.139a2.348,2.348,0,0,1,2.341,2.341h0A2.348,2.348,0,0,1,86.139,313.516Z" transform="translate(-60.462 -270.985)" fill="#ffa733"/>
      <path id="Trazado_1183207" data-name="Trazado 1183207" d="M26.866,384.92a7.617,7.617,0,0,0-7.938-7.295H15.943a7.627,7.627,0,0,0,.652,15.241h2.332v0c.213.009.427.011.644,0a7.75,7.75,0,0,0,1.417-.193,7.628,7.628,0,0,0,5.879-7.15v-.009C26.875,385.317,26.875,385.12,26.866,384.92Z" transform="translate(-7.084 -331.339)" fill="#cc7400"/>
      <path id="Trazado_1183208" data-name="Trazado 1183208" d="M73.317,386.949v.009a7.628,7.628,0,0,1-5.879,7.15,7.631,7.631,0,0,1-5.871-7.1c0-.017,0-.033,0-.05v-.009a7.63,7.63,0,0,1,5.877-7.694,7.629,7.629,0,0,1,5.874,7.1C73.325,386.555,73.325,386.753,73.317,386.949Z" transform="translate(-53.534 -332.775)" fill="#ee8700"/>
      <path id="Trazado_1183209" data-name="Trazado 1183209" d="M55.483,20.51H50.96v-8.9a5.781,5.781,0,0,0-1.6-3.984L46.439,4.568C43.959,2.012,43.646,1.29,42.169.573A5.78,5.78,0,0,0,39.666,0H18.318a5.773,5.773,0,0,0-5.767,5.767v31.1H11.335a3.325,3.325,0,0,0-2.361,5.668,3.315,3.315,0,0,0-.966,2.341,3.413,3.413,0,0,0,.065.658,8.386,8.386,0,0,0,1.2,16.722l16.4-.006a3.325,3.325,0,0,0,2.361-5.668A3.309,3.309,0,0,0,29,54.4h1.248v.667a7.688,7.688,0,0,0,7.68,7.68H55.483a7.688,7.688,0,0,0,7.68-7.68V28.19A7.688,7.688,0,0,0,55.483,20.51ZM42.728,3.486C46.6,7.578,47.472,8.5,47.635,8.674c0,0,0,0,0,0h0l0,.006h0a.021.021,0,0,0,.007.007l0,0s0,0,0,0,0,0,0,0,0,0,0,0h-4.94V3.486ZM11.335,38.835H25.677a1.355,1.355,0,1,1,0,2.711H11.335a1.355,1.355,0,1,1,0-2.711Zm0,4.682H25.677a1.355,1.355,0,1,1,0,2.711H15.771a8.029,8.029,0,0,0-1.248-.451,8.31,8.31,0,0,0-1.971-.29c-.193,0-.387,0-.58,0h-1.84a1.332,1.332,0,0,1-.152-.62A1.358,1.358,0,0,1,11.335,43.517Zm15.7,6.038a1.357,1.357,0,0,1-1.355,1.355H20.161A8.292,8.292,0,0,0,18.488,48.2h7.19A1.358,1.358,0,0,1,27.033,49.555ZM6.54,47.785a8.506,8.506,0,0,0-1.553,1.991H3.839A6.51,6.51,0,0,1,6.54,47.785ZM2.79,51.625H4.226A8.51,8.51,0,0,0,3.957,53.1H2.44A6.477,6.477,0,0,1,2.79,51.625Zm.159,4.886a6.466,6.466,0,0,1-.463-1.56H3.991a7.438,7.438,0,0,0,.352,1.56Zm1.23,1.848c.6,0,.956,0,1.039,0a8.324,8.324,0,0,0,1.326,1.6A6.512,6.512,0,0,1,4.179,58.358Zm8.411,2.047a6.539,6.539,0,1,1,4.143-11.349A6.533,6.533,0,0,1,12.589,60.405Zm13.088-.131H17.721a8.444,8.444,0,0,0,2.118-2.711h5.838a1.355,1.355,0,0,1,0,2.711ZM27.022,54.4a1.356,1.356,0,0,1-1.344,1.19H20.52a8.469,8.469,0,0,0,.119-2.711h5.038A1.357,1.357,0,0,1,27.022,54.4Zm3.226-1.972H28.468a3.271,3.271,0,0,0-.43-.535,3.319,3.319,0,0,0,0-4.682,3.32,3.32,0,0,0,0-4.682,3.329,3.329,0,0,0-2.361-5.668H14.523V5.767a3.8,3.8,0,0,1,3.8-3.8H40.756V9.693a.985.985,0,0,0,.986.986h7.129c.206.8.079.535.117,9.831H37.927a7.688,7.688,0,0,0-7.68,7.68v24.24Zm31.068,2.638A5.838,5.838,0,0,1,55.483,60.9H37.927A5.839,5.839,0,0,1,32.1,55.069V28.19a5.839,5.839,0,0,1,5.832-5.832H55.483a5.838,5.838,0,0,1,5.832,5.832V55.069Z"/>
      <path id="Trazado_1183210" data-name="Trazado 1183210" d="M287.212,207.277h-3.353a1.258,1.258,0,0,1-1.254-1.254v-3.382a1.258,1.258,0,0,1,1.254-1.254h17.425a1.256,1.256,0,0,1,1.254,1.254v3.382a1.256,1.256,0,0,1-1.254,1.254H291.2a.924.924,0,0,0,0,1.848h10.088a3.106,3.106,0,0,0,3.1-3.1v-3.382a3.106,3.106,0,0,0-3.1-3.1H283.859a3.1,3.1,0,0,0-3.1,3.1v3.382a3.1,3.1,0,0,0,3.1,3.1h3.353a.924.924,0,1,0,0-1.848Z" transform="translate(-245.867 -175.083)"/>
      <path id="Trazado_1183211" data-name="Trazado 1183211" d="M282.691,365.455h3.158a1.936,1.936,0,0,0,1.934-1.934v-3.157a1.936,1.936,0,0,0-1.934-1.934h-3.158a1.937,1.937,0,0,0-1.934,1.934v3.157A1.937,1.937,0,0,0,282.691,365.455Zm-.086-5.091a.087.087,0,0,1,.086-.086h3.158a.087.087,0,0,1,.086.086v3.157a.087.087,0,0,1-.086.086h-3.158a.087.087,0,0,1-.086-.086Z" transform="translate(-245.867 -314.501)"/>
      <path id="Trazado_1183212" data-name="Trazado 1183212" d="M422.147,291.068H418.99A1.936,1.936,0,0,0,417.056,293v3.157a1.936,1.936,0,0,0,1.934,1.934h3.157a1.936,1.936,0,0,0,1.934-1.934V293A1.936,1.936,0,0,0,422.147,291.068Zm.086,5.091a.086.086,0,0,1-.086.086H418.99a.087.087,0,0,1-.086-.086c.038-3.123-.08-3.243.086-3.243h3.157a.086.086,0,0,1,.086.086Z" transform="translate(-365.461 -255.396)"/>
      <path id="Trazado_1183213" data-name="Trazado 1183213" d="M282.691,298.094h3.158a1.936,1.936,0,0,0,1.934-1.934V293a1.936,1.936,0,0,0-1.934-1.934h-3.158A1.937,1.937,0,0,0,280.757,293v3.157A1.937,1.937,0,0,0,282.691,298.094ZM282.605,293a.087.087,0,0,1,.086-.086h3.158a.087.087,0,0,1,.086.086v3.157a.087.087,0,0,1-.086.086h-3.158a.087.087,0,0,1-.086-.086Z" transform="translate(-245.867 -255.396)"/>
      <path id="Trazado_1183214" data-name="Trazado 1183214" d="M287.274,423.143a1.934,1.934,0,0,0-1.448-.652h-3.158a1.929,1.929,0,0,0-1.447.652,2.643,2.643,0,0,0-.488,1.971v2.468a1.937,1.937,0,0,0,1.934,1.934h3.158a1.936,1.936,0,0,0,1.934-1.934v-2.468A2.665,2.665,0,0,0,287.274,423.143Zm-1.448,4.526c-3.12-.038-3.244.08-3.244-.086,0-3.343-.037-3.243.086-3.243h3.158c.152,0,.058.211.086.775A13.139,13.139,0,0,1,285.826,427.669Z" transform="translate(-245.843 -370.712)"/>
      <path id="Trazado_1183215" data-name="Trazado 1183215" d="M421.656,358.428H419.48a2.428,2.428,0,0,0-2.425,2.425v9.8a2.651,2.651,0,0,0,2.647,2.648h1.732a2.65,2.65,0,0,0,2.647-2.648v-9.8A2.427,2.427,0,0,0,421.656,358.428Zm.577,12.229a.8.8,0,0,1-.8.8H419.7a.8.8,0,0,1-.8-.8v-9.8a.577.577,0,0,1,.577-.577h2.176a.577.577,0,0,1,.577.577v9.8Z" transform="translate(-365.461 -314.5)"/>
      <path id="Trazado_1183216" data-name="Trazado 1183216" d="M166.621,173.629h0c-1.127-.414-1.941-.713-1.941-1.757,0-.951.632-1.434,1.878-1.434,1.323,0,1.679.582,2.145.582a.887.887,0,0,0,.788-.91c0-.77-1.256-1.152-2.378-1.252v-.694a.876.876,0,0,0-1.751,0v.8a2.864,2.864,0,0,0-2.378,3c0,2.151,1.583,2.746,2.856,3.224,1.246.468,2.23.838,2.23,2.261,0,1.175-.652,1.771-1.939,1.771-1.883,0-1.9-1.272-2.62-1.272a.924.924,0,0,0-.8.91c0,.728,1.085,1.685,2.654,1.934v.671a.876.876,0,0,0,1.751,0v-.689a3.163,3.163,0,0,0,2.654-3.417C169.767,174.785,168.023,174.144,166.621,173.629Z" transform="translate(-142.284 -146.786)"/>
      <path id="Trazado_1183217" data-name="Trazado 1183217" d="M353.57,422.491h-3.158a1.933,1.933,0,0,0-1.448.652,2.654,2.654,0,0,0-.487,1.971v2.468a1.936,1.936,0,0,0,1.934,1.934h3.158a1.936,1.936,0,0,0,1.933-1.934v-3.158a1.936,1.936,0,0,0-1.933-1.933Zm0,5.178c-3.12-.038-3.244.08-3.244-.086v-3.158a.086.086,0,0,1,.086-.085h3.158a.085.085,0,0,1,.085.085C353.618,427.551,353.733,427.669,353.57,427.669Z" transform="translate(-305.285 -370.712)"/>
      <path id="Trazado_1183218" data-name="Trazado 1183218" d="M353.591,291.068h-3.158A1.936,1.936,0,0,0,348.5,293v3.157a1.936,1.936,0,0,0,1.934,1.934h3.158a1.906,1.906,0,0,0,.7-.133,1.937,1.937,0,0,0,1.23-1.8V293A1.937,1.937,0,0,0,353.591,291.068Zm.085,5.091a.086.086,0,0,1-.085.086h-3.158a.087.087,0,0,1-.086-.086V293c0-.166.115-.049,3.244-.086a.086.086,0,0,1,.085.086v3.157Z" transform="translate(-305.307 -255.396)"/>
      <path id="Trazado_1183219" data-name="Trazado 1183219" d="M354.3,358.561a1.9,1.9,0,0,0-.7-.133h-3.158a1.936,1.936,0,0,0-1.934,1.934v3.157a1.936,1.936,0,0,0,1.934,1.934h3.158a1.936,1.936,0,0,0,1.933-1.934v-3.157A1.937,1.937,0,0,0,354.3,358.561Zm-.619,4.958a.086.086,0,0,1-.085.086h-3.158a.087.087,0,0,1-.086-.086v-3.157a.087.087,0,0,1,.086-.086h3.158a.086.086,0,0,1,.085.086Z" transform="translate(-305.307 -314.5)"/>
      <path id="Trazado_1183220" data-name="Trazado 1183220" d="M320.971,104.89h2.321a.924.924,0,0,0,0-1.848h-2.321a.924.924,0,1,0,0,1.848Z" transform="translate(-280.341 -90.414)"/>
      <path id="Trazado_1183221" data-name="Trazado 1183221" d="M157.094,104.89h16.388a.924.924,0,0,0,0-1.848H157.094a.924.924,0,0,0,0,1.848Z" transform="translate(-136.549 -90.414)"/>
      <path id="Trazado_1183222" data-name="Trazado 1183222" d="M160.032,142.32a.924.924,0,0,0,0-1.848h-2.937a.924.924,0,0,0,0,1.848Z" transform="translate(-136.549 -123.256)"/>
      <path id="Trazado_1183223" data-name="Trazado 1183223" d="M227.919,141.4a.924.924,0,0,0-.924-.924H211.223a.924.924,0,0,0,0,1.848h15.772A.925.925,0,0,0,227.919,141.4Z" transform="translate(-184.044 -123.256)"/>
      <path id="Trazado_1183224" data-name="Trazado 1183224" d="M79.376,401.505c0-.232.086-.3.166-.343a1.588,1.588,0,0,1,1.34.091,1.057,1.057,0,0,0,.5.152c.911,0,1.632-1.694-.545-2.068v-.058a.936.936,0,0,0-1.873,0v.178a2.1,2.1,0,0,0-1.428,2.1c0,1.576,1.145,2.006,1.981,2.32.8.3,1.073.431,1.073.973,0,.339-.091.653-.754.653-.966,0-.85-.764-1.573-.764a.965.965,0,0,0-.893.957c0,.64.666,1.248,1.594,1.494v.07a.936.936,0,0,0,1.873,0v-.095A2.315,2.315,0,0,0,82.43,404.8C82.43,401.991,79.376,402.413,79.376,401.505Z" transform="translate(-67.405 -349.523)"/>
    </g>
  </g>
</svg>
