<svg xmlns="http://www.w3.org/2000/svg" xmlns:xlink="http://www.w3.org/1999/xlink" width="106" height="106" viewBox="0 0 106 106">
  <defs>
    <filter id="Trazado_982547" x="0" y="0" width="106" height="106" filterUnits="userSpaceOnUse">
      <feOffset dy="3" input="SourceAlpha"/>
      <feGaussianBlur stdDeviation="3" result="blur"/>
      <feFlood flood-opacity="0.161"/>
      <feComposite operator="in" in2="blur"/>
      <feComposite in="SourceGraphic"/>
    </filter>
  </defs>
  <g id="Grupo_1227926" data-name="Grupo 1227926" transform="translate(-171 -1875)">
    <g id="Grupo_1227006" data-name="Grupo 1227006" transform="translate(0 493)">
      <g id="Grupo_1173169" data-name="Grupo 1173169" transform="translate(0 -2329)">
        <g id="Grupo_1172017" data-name="Grupo 1172017" transform="translate(0 2654)">
          <g id="Grupo_1167337" data-name="Grupo 1167337" transform="translate(180 1063)">
            <g id="Grupo_1166720" data-name="Grupo 1166720" transform="translate(0)">
              <g id="Grupo_1164305" data-name="Grupo 1164305">
                <g id="Grupo_1163948" data-name="Grupo 1163948">
                  <g id="Grupo_1158168" data-name="Grupo 1158168">
                    <g id="Grupo_1152576" data-name="Grupo 1152576">
                      <g id="Grupo_1148633" data-name="Grupo 1148633">
                        <g id="Grupo_1148525" data-name="Grupo 1148525">
                          <g transform="matrix(1, 0, 0, 1, -9, -6)" filter="url(#Trazado_982547)">
                            <g id="Trazado_982547-2" data-name="Trazado 982547" transform="translate(9 6)" fill="#e9f9fd">
                              <path d="M 44 86.5 C 38.26187515258789 86.5 32.69618606567383 85.37651062011719 27.45755004882812 83.16075897216797 C 22.3968505859375 81.020263671875 17.85157585144043 77.95565032958984 13.94796276092529 74.05204010009766 C 10.04434967041016 70.1484375 6.979737281799316 65.6031494140625 4.839250087738037 60.54246139526367 C 2.62348747253418 55.30381393432617 1.5 49.73812484741211 1.5 44 C 1.5 38.26187515258789 2.62348747253418 32.69618606567383 4.839250087738037 27.45755004882812 C 6.979737281799316 22.3968505859375 10.04434967041016 17.85157585144043 13.94796276092529 13.94796276092529 C 17.85157585144043 10.04434967041016 22.3968505859375 6.979737281799316 27.45755004882812 4.839250087738037 C 32.69618606567383 2.62348747253418 38.26187515258789 1.5 44 1.5 C 49.73812484741211 1.5 55.30381393432617 2.62348747253418 60.54246139526367 4.839250087738037 C 65.6031494140625 6.979737281799316 70.1484375 10.04434967041016 74.05204010009766 13.94796276092529 C 77.95565032958984 17.85157585144043 81.020263671875 22.3968505859375 83.16075897216797 27.45755004882812 C 85.37651062011719 32.69618606567383 86.5 38.26187515258789 86.5 44 C 86.5 49.73812484741211 85.37651062011719 55.30381393432617 83.16075897216797 60.54246139526367 C 81.020263671875 65.6031494140625 77.95565032958984 70.1484375 74.05204010009766 74.05204010009766 C 70.1484375 77.95565032958984 65.6031494140625 81.020263671875 60.54246139526367 83.16075897216797 C 55.30381393432617 85.37651062011719 49.73812484741211 86.5 44 86.5 Z" stroke="none"/>
                              <path d="M 44 3 C 38.46371459960938 3 33.09462738037109 4.083610534667969 28.0418701171875 6.220756530761719 C 23.15997314453125 8.285614013671875 18.77495574951172 11.24228668212891 15.00862884521484 15.00862884521484 C 11.24228668212891 18.77495574951172 8.285614013671875 23.15997314453125 6.220756530761719 28.0418701171875 C 4.083610534667969 33.09462738037109 3 38.46371459960938 3 44 C 3 49.53628540039062 4.083610534667969 54.9053840637207 6.220756530761719 59.9581298828125 C 8.285614013671875 64.84002685546875 11.24228668212891 69.22504425048828 15.00862884521484 72.99138641357422 C 18.77495574951172 76.75771331787109 23.15997314453125 79.71438598632812 28.0418701171875 81.77925872802734 C 33.09462738037109 83.9163818359375 38.46371459960938 85 44 85 C 49.53628540039062 85 54.9053840637207 83.9163818359375 59.95814514160156 81.77925872802734 C 64.84002685546875 79.71438598632812 69.22504425048828 76.75771331787109 72.99138641357422 72.99138641357422 C 76.75771331787109 69.22504425048828 79.71438598632812 64.84002685546875 81.77925872802734 59.95814514160156 C 83.9163818359375 54.9053840637207 85 49.53628540039062 85 44 C 85 38.46371459960938 83.9163818359375 33.09462738037109 81.77925872802734 28.0418701171875 C 79.71438598632812 23.15997314453125 76.75771331787109 18.77495574951172 72.99138641357422 15.00862884521484 C 69.22504425048828 11.24228668212891 64.84002685546875 8.285614013671875 59.9581298828125 6.220756530761719 C 54.9053840637207 4.083610534667969 49.53628540039062 3 44 3 M 44 0 C 68.30054473876953 0 88 19.69947052001953 88 44 C 88 68.30054473876953 68.30054473876953 88 44 88 C 19.69947052001953 88 0 68.30054473876953 0 44 C 0 19.69947052001953 19.69947052001953 0 44 0 Z" stroke="none" fill="#1d7083"/>
                            </g>
                          </g>
                        </g>
                      </g>
                    </g>
                  </g>
                </g>
              </g>
            </g>
          </g>
        </g>
      </g>
    </g>
    <g id="america-latina" transform="translate(183.495 1900.154)">
      <g id="Grupo_1227925" data-name="Grupo 1227925" transform="translate(16.204 1.143)">
        <path id="Trazado_1183619" data-name="Trazado 1183619" d="M209.394,147.932l3.365-8.187,2.567-2.6h8.566L227,140.293h2.83l3,5.26,7.131,1.935,1.15,4.347-3.567,3.613-1.877,7.1-5.5,1.493-.722,2.731-5.552,4.722-4.433,1.2-4.362,6.144-4.1-2.189,5.756-18.488-3.6-3.647Z" transform="translate(-188.331 -122.616)" fill="#b1d952" fill-rule="evenodd"/>
        <path id="Trazado_1183620" data-name="Trazado 1183620" d="M250.437,138.133l.975-.988h8.566l3.108,3.148h2.829l3,5.26,6.773,1.838a22.241,22.241,0,0,1-9.485,10.291,5.575,5.575,0,0,1-5.169,0,22.436,22.436,0,0,1-9.627-10.6,15.864,15.864,0,0,1-1.27-6.109A13.525,13.525,0,0,1,250.437,138.133Z" transform="translate(-224.416 -122.616)" fill="#91b706" fill-rule="evenodd"/>
        <path id="Trazado_1183621" data-name="Trazado 1183621" d="M43.9,28.645l-5.443-3.114-2.873-5.04-8.346-2.265L25.061,10h9.363v3h4.058l1.359,4.422L41.7,18.513l2.667-1.56,3.037.824L45.971,23.2l3.519,3.932Z" transform="translate(-25.061 -10)" fill="#b1d952" fill-rule="evenodd"/>
        <path id="Trazado_1183622" data-name="Trazado 1183622" d="M308.084,102.889a7.745,7.745,0,0,0-7.745,7.745c0,5.436,5.066,10.233,7.745,11.585,2.679-1.352,7.745-6.149,7.745-11.585a7.745,7.745,0,0,0-7.745-7.745Z" transform="translate(-268.884 -92.275)" fill="#fd6050" fill-rule="evenodd"/>
        <path id="Trazado_1183623" data-name="Trazado 1183623" d="M348.1,153.235a2.582,2.582,0,1,0-2.582-2.582A2.587,2.587,0,0,0,348.1,153.235Z" transform="translate(-308.904 -132.295)" fill="#fff" fill-rule="evenodd"/>
      </g>
      <path id="Trazado_1183624" data-name="Trazado 1183624" d="M70.087,30.069l-1.15-4.348a1.142,1.142,0,0,0-.805-.811l-4.675-1.269a11.178,11.178,0,0,0,.835-4.141,8.885,8.885,0,0,0-16.25-4.973H43.2a1.143,1.143,0,0,0-.813.34L40.674,16.6l-2.3-2.568,1.276-4.823a1.143,1.143,0,0,0-.805-1.395L35.81,6.993a1.142,1.142,0,0,0-.876.116L32.844,8.332l-.9-.525-1.228-4A1.143,1.143,0,0,0,29.625,3H26.71V1.143A1.143,1.143,0,0,0,25.568,0H16.2a1.143,1.143,0,0,0-1.1,1.435l2.176,8.226a1.143,1.143,0,0,0,.805.811l7.888,2.141,2.638,4.628a1.143,1.143,0,0,0,.425.426l5.443,3.114a1.143,1.143,0,0,0,.867.111l3.353-.91-2.484,6.043a1.142,1.142,0,0,0,.064,1L40.026,33.6a1.141,1.141,0,0,0,.18.237L43.325,37,37.772,54.834a1.143,1.143,0,0,0,.553,1.348l4.1,2.189a1.142,1.142,0,0,0,1.47-.347l4.125-5.81,4.038-1.1a1.142,1.142,0,0,0,.441-.232l5.552-4.722a1.142,1.142,0,0,0,.364-.578l.554-2.093,4.864-1.32a1.143,1.143,0,0,0,.805-.81l1.8-6.8,3.354-3.4a1.143,1.143,0,0,0,.291-1.1ZM55.4,12.9a6.609,6.609,0,0,1,6.6,6.6c0,4.54-4.1,8.747-6.6,10.277-2.5-1.53-6.6-5.736-6.6-10.277A6.609,6.609,0,0,1,55.4,12.9ZM35.2,18.561l-4.761-2.724-2.719-4.769a1.143,1.143,0,0,0-.693-.537L19.317,8.438,17.689,2.285h6.737V4.147a1.143,1.143,0,0,0,1.143,1.143h3.213L29.892,8.9a1.142,1.142,0,0,0,.515.651l1.859,1.087a1.143,1.143,0,0,0,1.154,0l2.254-1.318,1.479.4L36.01,14.046a1.143,1.143,0,0,0,.253,1.054l2.284,2.553Zm29.4,14.61a1.142,1.142,0,0,0-.292.511L62.6,40.14l-4.864,1.32a1.143,1.143,0,0,0-.805.811L56.3,44.654l-5.085,4.325L47.03,50.115a1.143,1.143,0,0,0-.632.441l-3.78,5.324L40.235,54.61,45.71,37.025a1.143,1.143,0,0,0-.278-1.143l-3.495-3.54-3.4-5.966L41.6,18.914l2.073-2.1h3.255a8.856,8.856,0,0,0-.415,2.688,13.436,13.436,0,0,0,3.11,8.028,17.093,17.093,0,0,0,5.262,4.577,1.143,1.143,0,0,0,1.03,0,17.1,17.1,0,0,0,5.262-4.577,17.5,17.5,0,0,0,1.238-1.8L66.9,26.944l.815,3.079Z" fill="#052a75"/>
    </g>
  </g>
</svg>
