<svg xmlns="http://www.w3.org/2000/svg" xmlns:xlink="http://www.w3.org/1999/xlink" width="118" height="118" viewBox="0 0 118 118">
  <defs>
    <filter id="Trazado_982547" x="0" y="0" width="118" height="118" filterUnits="userSpaceOnUse">
      <feOffset dy="3" input="SourceAlpha"/>
      <feGaussianBlur stdDeviation="3" result="blur"/>
      <feFlood flood-opacity="0.161"/>
      <feComposite operator="in" in2="blur"/>
      <feComposite in="SourceGraphic"/>
    </filter>
  </defs>
  <g id="Grupo_1227772" data-name="Grupo 1227772" transform="translate(-740.638 -4270.926)">
    <g id="Grupo_1225728" data-name="Grupo 1225728" transform="translate(0 2967)">
      <g id="Grupo_1224854" data-name="Grupo 1224854" transform="translate(749.638 1309.926)">
        <g id="Grupo_1174813" data-name="Grupo 1174813">
          <g id="Grupo_1201680" data-name="Grupo 1201680">
            <g id="Grupo_1201330" data-name="Grupo 1201330">
              <g id="Grupo_1172010" data-name="Grupo 1172010">
                <g id="Grupo_1171046" data-name="Grupo 1171046">
                  <g id="Grupo_1148525" data-name="Grupo 1148525">
                    <g transform="matrix(1, 0, 0, 1, -9, -6)" filter="url(#Trazado_982547)">
                      <g id="Trazado_982547-2" data-name="Trazado 982547" transform="translate(9 6)" fill="#ffebd0">
                        <path d="M 50 98.5 C 43.45188522338867 98.5 37.10042953491211 97.21787261962891 31.12207221984863 94.68923950195312 C 25.34691429138184 92.24655914306641 20.15997123718262 88.74931335449219 15.70532894134521 84.29468536376953 C 11.2506856918335 79.84004211425781 7.753442764282227 74.65309906005859 5.310757160186768 68.8779296875 C 2.782128572463989 62.89957046508789 1.5 56.54811477661133 1.5 50 C 1.5 43.45188522338867 2.782128572463989 37.10042953491211 5.310757160186768 31.12207221984863 C 7.753442764282227 25.34691429138184 11.2506856918335 20.15997123718262 15.70532894134521 15.70532894134521 C 20.15997123718262 11.2506856918335 25.34691429138184 7.753442764282227 31.12207221984863 5.310757160186768 C 37.10042953491211 2.782128572463989 43.45188522338867 1.5 50 1.5 C 56.54811477661133 1.5 62.89957046508789 2.782128572463989 68.8779296875 5.310757160186768 C 74.65309906005859 7.753442764282227 79.84004211425781 11.2506856918335 84.29468536376953 15.70532894134521 C 88.74931335449219 20.15997123718262 92.24655914306641 25.34691429138184 94.68923950195312 31.12207221984863 C 97.21787261962891 37.10042953491211 98.5 43.45188522338867 98.5 50 C 98.5 56.54811477661133 97.21787261962891 62.89957046508789 94.68923950195312 68.8779296875 C 92.24655914306641 74.65309906005859 88.74931335449219 79.84004211425781 84.29468536376953 84.29468536376953 C 79.84004211425781 88.74931335449219 74.65309906005859 92.24655914306641 68.8779296875 94.68923950195312 C 62.89957046508789 97.21787261962891 56.54811477661133 98.5 50 98.5 Z" stroke="none"/>
                        <path d="M 50 3 C 43.65372467041016 3 37.49886322021484 4.242263793945312 31.70639801025391 6.6922607421875 C 26.11003112792969 9.059326171875 21.08335113525391 12.44861602783203 16.76598358154297 16.76598358154297 C 12.44861602783203 21.08335113525391 9.059326171875 26.11003112792969 6.6922607421875 31.70639801025391 C 4.242263793945312 37.49886322021484 3 43.65372467041016 3 50 C 3 56.34627532958984 4.242263793945312 62.50113677978516 6.6922607421875 68.29360198974609 C 9.059326171875 73.88996887207031 12.44861602783203 78.91666412353516 16.76598358154297 83.23401641845703 C 21.08335113525391 87.55138397216797 26.11003112792969 90.940673828125 31.70639801025391 93.3077392578125 C 37.49886322021484 95.75773620605469 43.65372467041016 97 50 97 C 56.34627532958984 97 62.50113677978516 95.75773620605469 68.29360198974609 93.3077392578125 C 73.88996887207031 90.940673828125 78.91666412353516 87.55138397216797 83.23401641845703 83.23401641845703 C 87.55138397216797 78.91666412353516 90.940673828125 73.88996887207031 93.3077392578125 68.29360198974609 C 95.75773620605469 62.50113677978516 97 56.34627532958984 97 50 C 97 43.65372467041016 95.75773620605469 37.49886322021484 93.3077392578125 31.70639801025391 C 90.940673828125 26.11003112792969 87.55138397216797 21.08335113525391 83.23401641845703 16.76598358154297 C 78.91666412353516 12.44861602783203 73.88996887207031 9.059326171875 68.29360198974609 6.6922607421875 C 62.50113677978516 4.242263793945312 56.34627532958984 3 50 3 M 50 0 C 77.61424255371094 0 100 22.38577270507812 100 50 C 100 77.61424255371094 77.61424255371094 100 50 100 C 22.38577270507812 100 0 77.61424255371094 0 50 C 0 22.38577270507812 22.38577270507812 0 50 0 Z" stroke="none" fill="#ff9d1c"/>
                      </g>
                    </g>
                  </g>
                </g>
              </g>
            </g>
          </g>
        </g>
      </g>
    </g>
    <g id="arquitecto" transform="translate(765.714 4289.751)">
      <g id="Grupo_1227770" data-name="Grupo 1227770" transform="translate(2.116 2.116)">
        <g id="Grupo_1227746" data-name="Grupo 1227746" transform="translate(31.24 55.663)">
          <path id="Trazado_1183225" data-name="Trazado 1183225" d="M36.694,54.244V63.17H30V51.89a7.977,7.977,0,0,0,5.668,2.354Z" transform="translate(-30 -51.89)" fill="#fcd770"/>
        </g>
        <g id="Grupo_1227747" data-name="Grupo 1227747" transform="translate(23.43 32.356)">
          <path id="Trazado_1183226" data-name="Trazado 1183226" d="M33.042,49.967H28.579a7.944,7.944,0,0,0,2.231,4.34v11.28H23V61.125h1.116a2.248,2.248,0,0,0,2.231-2.231,2.238,2.238,0,0,0-2.231-2.231H23V31a18.7,18.7,0,0,1,12.273,9.372v9.6Z" transform="translate(-23 -31)" fill="#fcd770"/>
        </g>
        <g id="Grupo_1227748" data-name="Grupo 1227748" transform="translate(6.694 61.543)">
          <path id="Trazado_1183227" data-name="Trazado 1183227" d="M15.81,58.1V62.56H8v-5.4a11.025,11.025,0,0,0,4.463.937Z" transform="translate(-8 -57.16)" fill="#fcd770"/>
        </g>
        <g id="Grupo_1227749" data-name="Grupo 1227749" transform="translate(0 32.356)">
          <path id="Trazado_1183228" data-name="Trazado 1183228" d="M18.736,56.662v4.463H13.157a11.025,11.025,0,0,1-4.463-.937A11.148,11.148,0,0,1,2,49.967v-.736A18.713,18.713,0,0,1,16.5,31V56.16Z" transform="translate(-2 -31)" fill="#fcd770"/>
        </g>
        <g id="Grupo_1227750" data-name="Grupo 1227750" transform="translate(14.504 62.481)">
          <path id="Trazado_1183229" data-name="Trazado 1183229" d="M17.231,58h6.694v4.463H15V58Z" transform="translate(-15 -58)" fill="#e6e9ed"/>
        </g>
        <g id="Grupo_1227751" data-name="Grupo 1227751" transform="translate(14.504 39.05)">
          <path id="Trazado_1183230" data-name="Trazado 1183230" d="M23.926,42.579V55.967a2.238,2.238,0,0,0-2.231-2.231H20.389a2.238,2.238,0,0,0-1.584.658l-1.573,1.573L15,55.465V42.579L19.463,37Z" transform="translate(-15 -37)" fill="#e6e9ed"/>
        </g>
        <g id="Grupo_1227752" data-name="Grupo 1227752" transform="translate(18.967 32.356)">
          <path id="Trazado_1183231" data-name="Trazado 1183231" d="M23.463,31V43.273L19,37.694Z" transform="translate(-19 -31)" fill="#ccd1d9"/>
        </g>
        <g id="Grupo_1227753" data-name="Grupo 1227753" transform="translate(14.504 32.356)">
          <path id="Trazado_1183232" data-name="Trazado 1183232" d="M15,31l4.463,6.694L15,43.273Z" transform="translate(-15 -31)" fill="#ccd1d9"/>
        </g>
        <g id="Grupo_1227754" data-name="Grupo 1227754" transform="translate(29.009 51.323)">
          <path id="Trazado_1183233" data-name="Trazado 1183233" d="M61.472,48h4.463a8,8,0,0,1-7.9,6.694H51.43A2.248,2.248,0,0,0,49.2,52.463H44.736A2.238,2.238,0,0,0,42.5,54.694H35.9A8.015,8.015,0,0,1,28,48H61.472Z" transform="translate(-28 -48)" fill="#aab2bd"/>
        </g>
        <g id="Grupo_1227755" data-name="Grupo 1227755" transform="translate(49.092 37.935)">
          <path id="Trazado_1183234" data-name="Trazado 1183234" d="M57.157,36V49.389H46V36H57.157Z" transform="translate(-46 -36)" fill="#d3a06c"/>
        </g>
        <g id="Grupo_1227756" data-name="Grupo 1227756" transform="translate(40.166 20.083)">
          <path id="Trazado_1183235" data-name="Trazado 1183235" d="M55.852,20V37.852H46.926V33.389H38V20H55.852Z" transform="translate(-38 -20)" fill="#dfb28b"/>
        </g>
        <g id="Grupo_1227757" data-name="Grupo 1227757" transform="translate(35.703 33.472)">
          <path id="Trazado_1183236" data-name="Trazado 1183236" d="M38.463,32h8.926V49.852H34V32Z" transform="translate(-34 -32)" fill="#e6e9ed"/>
        </g>
        <g id="Grupo_1227758" data-name="Grupo 1227758" transform="translate(43.513 55.786)">
          <path id="Trazado_1183237" data-name="Trazado 1183237" d="M49.268,52.658a2.182,2.182,0,0,1,.658,1.573,4.463,4.463,0,1,1-8.926,0A2.238,2.238,0,0,1,43.231,52h4.463A2.182,2.182,0,0,1,49.268,52.658Z" transform="translate(-41 -52)" fill="#f0d0b4"/>
        </g>
        <g id="Grupo_1227759" data-name="Grupo 1227759" transform="translate(16.736 55.786)">
          <path id="Trazado_1183238" data-name="Trazado 1183238" d="M24.81,54.231a2.238,2.238,0,0,1,2.231,2.231,2.248,2.248,0,0,1-2.231,2.231H17V54.231l1.573-1.573A2.238,2.238,0,0,1,20.157,52h1.305a2.238,2.238,0,0,1,2.231,2.231Z" transform="translate(-17 -52)" fill="#f0d0b4"/>
        </g>
        <g id="Grupo_1227760" data-name="Grupo 1227760" transform="translate(26.632 18.967)">
          <path id="Trazado_1183239" data-name="Trazado 1183239" d="M29.5,19.982a3.345,3.345,0,0,1-2.365,5.713H25.87a4.08,4.08,0,0,0,.145-1.116V19h1.116A3.339,3.339,0,0,1,29.5,19.982Z" transform="translate(-25.87 -19)" fill="#f0d0b4"/>
        </g>
        <g id="Grupo_1227761" data-name="Grupo 1227761" transform="translate(14.504 29.009)">
          <path id="Trazado_1183240" data-name="Trazado 1183240" d="M22.81,28l1.116,3.347-4.463,6.694L15,31.347,16.116,28Z" transform="translate(-15 -28)" fill="#f0d0b4"/>
        </g>
        <g id="Grupo_1227762" data-name="Grupo 1227762" transform="translate(11.157 15.62)">
          <path id="Trazado_1183241" data-name="Trazado 1183241" d="M27.62,19.347v5.579a4.08,4.08,0,0,1-.145,1.116,4.453,4.453,0,0,1-4.318,3.347H16.463a4.453,4.453,0,0,1-4.318-3.347A4.08,4.08,0,0,1,12,24.926V16H27.62Z" transform="translate(-12 -16)" fill="#f0d0b4"/>
        </g>
        <g id="Grupo_1227763" data-name="Grupo 1227763" transform="translate(6.694 18.967)">
          <path id="Trazado_1183242" data-name="Trazado 1183242" d="M12.608,25.694H11.347a3.347,3.347,0,1,1,0-6.694h1.116v5.579A4.08,4.08,0,0,0,12.608,25.694Z" transform="translate(-8 -19)" fill="#f0d0b4"/>
        </g>
        <g id="Grupo_1227764" data-name="Grupo 1227764" transform="translate(26.777 15.62)">
          <path id="Trazado_1183243" data-name="Trazado 1183243" d="M30.463,16v6.694a3.352,3.352,0,0,0-3.347-3.347H26V16Z" transform="translate(-26 -16)" fill="#656d78"/>
        </g>
        <g id="Grupo_1227765" data-name="Grupo 1227765" transform="translate(6.694 15.62)">
          <path id="Trazado_1183244" data-name="Trazado 1183244" d="M11.347,19.347A3.343,3.343,0,0,0,8,22.694V16h4.463v3.347Z" transform="translate(-8 -16)" fill="#656d78"/>
        </g>
        <g id="Grupo_1227766" data-name="Grupo 1227766" transform="translate(21.199 0.201)">
          <path id="Trazado_1183245" data-name="Trazado 1183245" d="M31,13.136H21V2.18A12.3,12.3,0,0,1,31,13.136Z" transform="translate(-21 -2.18)" fill="#ff826e"/>
        </g>
        <g id="Grupo_1227767" data-name="Grupo 1227767" transform="translate(6.739 0.201)">
          <path id="Trazado_1183246" data-name="Trazado 1183246" d="M18.037,2.191V13.136h-10a12.29,12.29,0,0,1,10-10.956Z" transform="translate(-8.04 -2.18)" fill="#ff826e"/>
        </g>
        <g id="Grupo_1227768" data-name="Grupo 1227768" transform="translate(16.736 0)">
          <path id="Trazado_1183247" data-name="Trazado 1183247" d="M21.463,2.212V13.157H17V2.2a12.5,12.5,0,0,1,4.463,0Z" transform="translate(-17 -2)" fill="#fc6e51"/>
        </g>
        <g id="Grupo_1227769" data-name="Grupo 1227769" transform="translate(4.463 11.157)">
          <path id="Trazado_1183248" data-name="Trazado 1183248" d="M7.116,12H33.893a1.119,1.119,0,0,1,1.116,1.116v2.231a1.119,1.119,0,0,1-1.116,1.116H7.116A1.119,1.119,0,0,1,6,15.347V13.116A1.119,1.119,0,0,1,7.116,12Z" transform="translate(-6 -12)" fill="#fc6e51"/>
        </g>
      </g>
      <g id="Grupo_1227771" data-name="Grupo 1227771" transform="translate(1 1)">
        <path id="Trazado_1183249" data-name="Trazado 1183249" d="M66.244,52.323l3.85-9.626-2.072-.829L63.841,52.323h-.36V38.935H61.249V21.083H56.786V16.62H54.555v4.463H52.323V14.389H50.092v6.694H47.86V16.62H45.629v4.463H41.166V34.472H36.7v5.723a19.823,19.823,0,0,0-10.293-6.659L25.9,32.017a5.584,5.584,0,0,0,3.632-3.124h.473a4.467,4.467,0,0,0,4.463-4.463V18.852A2.234,2.234,0,0,0,36.7,16.62V14.389a2.234,2.234,0,0,0-2.231-2.231h-.194a13.381,13.381,0,0,0-26.389,0H7.694a2.234,2.234,0,0,0-2.231,2.231V16.62a2.234,2.234,0,0,0,2.231,2.231V24.43a4.467,4.467,0,0,0,4.463,4.463h.473a5.583,5.583,0,0,0,3.632,3.124l-.507,1.518A19.735,19.735,0,0,0,1,52.7v.734A12.278,12.278,0,0,0,7.694,64.357v5.817H41.166V61.249h3.46a5.579,5.579,0,0,0,10.932,0h5.6a9.1,9.1,0,0,0,9-7.626l.216-1.3Zm-13.921,0V41.166h8.926V52.323ZM43.4,23.314h15.62v15.62H52.323V34.472H43.4ZM50.092,36.7v15.62H38.935V36.7ZM36.7,44.152v8.172h-.36L32.16,41.867l-2.072.829,3.851,9.628H29.808l.216,1.3a9.106,9.106,0,0,0,2.216,4.6v9.718H26.662V65.712a3.347,3.347,0,1,0,0-6.694V35.952a17.586,17.586,0,0,1,10.042,8.2ZM23.626,32.24l.688,2.066-3.231,4.848-3.232-4.848.69-2.066Zm.8,11.323-1.966-2.458,1.966-2.949Zm-6.694,0V38.157L19.7,41.106Zm0,3.571,3.347-4.184,3.347,4.184v9.847a3.337,3.337,0,0,0-1.116-.2H22.008a3.327,3.327,0,0,0-2.368.981L18.5,58.912l-.76-.17ZM19.967,60.6l1.251-1.251a1.111,1.111,0,0,1,.79-.327h1.307a1.118,1.118,0,0,1,1.116,1.116v1.116h2.231a1.116,1.116,0,1,1,0,2.231H19.967Zm4.463,5.117v2.231H17.736V65.712Zm5.579-39.05V22.2a2.231,2.231,0,0,1,0,4.463Zm2.231-6.074a4.417,4.417,0,0,0-2.231-.62V18.852H32.24Zm-.228-8.43H24.43V3.742A11.061,11.061,0,0,1,32.013,12.157ZM22.2,3.287v8.87H19.967V3.287c.367-.036.739-.056,1.116-.056S21.832,3.252,22.2,3.287Zm-4.463.455v8.415H10.153A11.061,11.061,0,0,1,17.736,3.742ZM7.693,14.389H34.472V16.62H7.694Zm4.464,4.463v1.116a4.417,4.417,0,0,0-2.231.62V18.852ZM9.926,24.43A2.234,2.234,0,0,1,12.157,22.2v4.463A2.234,2.234,0,0,1,9.926,24.43Zm4.463,2.231v-7.81H27.777v7.81a3.351,3.351,0,0,1-3.347,3.347H17.736A3.351,3.351,0,0,1,14.389,26.662ZM3.231,53.439V52.7A17.5,17.5,0,0,1,15.5,35.937V58.248l-1.211-.269a5.547,5.547,0,0,1-4.368-5.447V47.86H7.694v4.672a7.763,7.763,0,0,0,6.115,7.624l3.926.872v2.452H13.273A10.054,10.054,0,0,1,3.231,53.439Zm6.694,11.8a12.235,12.235,0,0,0,3.347.475H15.5v2.231H9.926Zm24.546,2.707V60.037a9.121,9.121,0,0,0,4.463,1.208v6.7Zm15.62-4.463a3.351,3.351,0,0,1-3.347-3.347,1.118,1.118,0,0,1,1.116-1.116h4.463a1.118,1.118,0,0,1,1.116,1.116A3.351,3.351,0,0,1,50.092,63.481Zm11.065-4.463H55.464a3.343,3.343,0,0,0-3.142-2.231H47.859a3.343,3.343,0,0,0-3.142,2.231H39.025a6.872,6.872,0,0,1-6.454-4.463H67.609a6.865,6.865,0,0,1-6.452,4.463Z" transform="translate(-1 -1)"/>
        <path id="Trazado_1183250" data-name="Trazado 1183250" d="M45,23h2.231v2.231H45Z" transform="translate(4.092 1.546)"/>
        <path id="Trazado_1183251" data-name="Trazado 1183251" d="M41,23h2.231v2.231H41Z" transform="translate(3.629 1.546)"/>
        <path id="Trazado_1183252" data-name="Trazado 1183252" d="M49,23h2.231v2.231H49Z" transform="translate(4.555 1.546)"/>
        <path id="Trazado_1183253" data-name="Trazado 1183253" d="M49,27h2.231v2.231H49Z" transform="translate(4.555 2.009)"/>
        <path id="Trazado_1183254" data-name="Trazado 1183254" d="M41,27h2.231v2.231H41Z" transform="translate(3.629 2.009)"/>
        <path id="Trazado_1183255" data-name="Trazado 1183255" d="M45,27h2.231v2.231H45Z" transform="translate(4.092 2.009)"/>
        <path id="Trazado_1183256" data-name="Trazado 1183256" d="M49,31h2.231v2.231H49Z" transform="translate(4.555 2.472)"/>
        <path id="Trazado_1183257" data-name="Trazado 1183257" d="M37,35h2.231V46.157H37Z" transform="translate(3.166 2.935)"/>
        <path id="Trazado_1183258" data-name="Trazado 1183258" d="M41,35h2.231V46.157H41Z" transform="translate(3.629 2.935)"/>
        <path id="Trazado_1183259" data-name="Trazado 1183259" d="M49,39h4.463v2.231H49Z" transform="translate(4.555 3.397)"/>
        <path id="Trazado_1183260" data-name="Trazado 1183260" d="M49,43h4.463v2.231H49Z" transform="translate(4.555 3.86)"/>
      </g>
    </g>
  </g>
</svg>
