<svg xmlns="http://www.w3.org/2000/svg" xmlns:xlink="http://www.w3.org/1999/xlink" width="190" height="234" viewBox="0 0 190 234">
  <defs>
    <clipPath id="clip-path">
      <rect id="Rectángulo_422821" data-name="Rectángulo 422821" width="190" height="234" transform="translate(180 2987)" fill="#fff" stroke="#707070" stroke-width="1"/>
    </clipPath>
  </defs>
  <g id="Grupo_1227949" data-name="Grupo 1227949" transform="translate(-180 -2987)">
    <rect id="Rectángulo_422822" data-name="Rectángulo 422822" width="112" height="227" transform="translate(249 2987)" fill="#e9f9fd"/>
    <g id="Enmascarar_grupo_1211528" data-name="Enmascarar grupo 1211528" clip-path="url(#clip-path)">
      <g id="Grupo_1227948" data-name="Grupo 1227948" transform="translate(-9756.193 11)">
        <g id="Plant_2" transform="translate(10078.763 3158.419)">
          <g id="Grupo_1227930" data-name="Grupo 1227930">
            <g id="Grupo_1227929" data-name="Grupo 1227929">
              <path id="Trazado_1183627" data-name="Trazado 1183627" d="M362.456,411.107a12.1,12.1,0,0,0-2.885-5.643c-2.258-2.258-5.016-2.508-7.023-3.135a14.45,14.45,0,0,1-4.013-2.258s2.383,5.518,3.887,7.4a9.646,9.646,0,0,0,4.766,3.386A46.908,46.908,0,0,0,362.456,411.107Z" transform="translate(-348.535 -377.622)" fill="#36ceef" stroke="#263238" stroke-miterlimit="10" stroke-width="1"/>
              <path id="Trazado_1183628" data-name="Trazado 1183628" d="M383.9,372.732s0-3.135,1.254-4.64,7.9-3.637,7.9-3.637a20.548,20.548,0,0,1-4.514,6.02A9.161,9.161,0,0,1,383.9,372.732Z" transform="translate(-366.218 -359.815)" fill="#36ceef" stroke="#263238" stroke-miterlimit="10" stroke-width="1"/>
              <path id="Trazado_1183629" data-name="Trazado 1183629" d="M378.314,370.725s-1.505-.125-2.006-4.138,1.881-11.413,1.881-11.413,2.508,6.02,2.132,9.782S379.568,368.593,378.314,370.725Z" transform="translate(-362.387 -355.174)" fill="#36ceef" stroke="#263238" stroke-miterlimit="10" stroke-width="1"/>
              <path id="Trazado_1183630" data-name="Trazado 1183630" d="M384.4,396.935s.251-5.267,3.637-7.148a83.407,83.407,0,0,1,8.152-3.762s-1.38,4.64-3.26,6.647-3.763,4.389-5.518,5.016A2.919,2.919,0,0,1,384.4,396.935Z" transform="translate(-366.469 -370.599)" fill="#36ceef" stroke="#263238" stroke-miterlimit="10" stroke-width="1"/>
              <path id="Trazado_1183631" data-name="Trazado 1183631" d="M363.585,380.633a16.5,16.5,0,0,0-5.142-6.646c-3.763-2.885-5.895-3.01-5.895-3.01s.878,5.268,3.887,7.9S363.585,380.633,363.585,380.633Z" transform="translate(-350.542 -363.075)" fill="#36ceef" stroke="#263238" stroke-miterlimit="10" stroke-width="1"/>
              <g id="Grupo_1227928" data-name="Grupo 1227928" transform="translate(7.901 10.284)">
                <line id="Línea_728" data-name="Línea 728" y1="30.6" transform="translate(8.152 1.505)" fill="none" stroke="#263238" stroke-miterlimit="10" stroke-width="1"/>
                <line id="Línea_729" data-name="Línea 729" x1="6.521" y1="5.894" transform="translate(1.756 19.188)" fill="none" stroke="#263238" stroke-miterlimit="10" stroke-width="1"/>
                <line id="Línea_730" data-name="Línea 730" y1="6.396" x2="7.023" transform="translate(8.402 11.538)" fill="none" stroke="#263238" stroke-miterlimit="10" stroke-width="1"/>
                <line id="Línea_731" data-name="Línea 731" x1="8.151" y1="5.894" transform="translate(0 3.762)" fill="none" stroke="#263238" stroke-miterlimit="10" stroke-width="1"/>
                <line id="Línea_732" data-name="Línea 732" y1="4.014" x2="4.139" transform="translate(8.402)" fill="none" stroke="#263238" stroke-miterlimit="10" stroke-width="1"/>
              </g>
            </g>
            <path id="Trazado_1183632" data-name="Trazado 1183632" d="M359.186,441.4s8.913-4.209,10.77-4.333,10.893,4.456,10.893,4.456Z" transform="translate(-353.861 -396.12)" fill="#263238" stroke="#263238" stroke-miterlimit="10" stroke-width="1"/>
          </g>
        </g>
        <g id="Plant_1" transform="translate(9947.94 3158.419)">
          <g id="Grupo_1227933" data-name="Grupo 1227933">
            <g id="Grupo_1227932" data-name="Grupo 1227932">
              <path id="Trazado_1183633" data-name="Trazado 1183633" d="M100.812,411.107a12.1,12.1,0,0,0-2.885-5.643c-2.257-2.258-5.016-2.508-7.023-3.135a14.45,14.45,0,0,1-4.013-2.258s2.383,5.518,3.887,7.4a9.646,9.646,0,0,0,4.766,3.386A46.9,46.9,0,0,0,100.812,411.107Z" transform="translate(-86.891 -377.622)" fill="#36ceef" stroke="#263238" stroke-miterlimit="10" stroke-width="1"/>
              <path id="Trazado_1183634" data-name="Trazado 1183634" d="M122.256,372.732s0-3.135,1.254-4.64,7.9-3.637,7.9-3.637a20.548,20.548,0,0,1-4.515,6.02A9.161,9.161,0,0,1,122.256,372.732Z" transform="translate(-104.574 -359.815)" fill="#36ceef" stroke="#263238" stroke-miterlimit="10" stroke-width="1"/>
              <path id="Trazado_1183635" data-name="Trazado 1183635" d="M116.669,370.725s-1.505-.125-2.007-4.138,1.881-11.413,1.881-11.413,2.508,6.02,2.132,9.782S117.923,368.593,116.669,370.725Z" transform="translate(-100.742 -355.174)" fill="#36ceef" stroke="#263238" stroke-miterlimit="10" stroke-width="1"/>
              <path id="Trazado_1183636" data-name="Trazado 1183636" d="M122.758,396.935s.251-5.267,3.637-7.148a83.406,83.406,0,0,1,8.151-3.762s-1.38,4.64-3.26,6.647-3.762,4.389-5.518,5.016A2.919,2.919,0,0,1,122.758,396.935Z" transform="translate(-104.825 -370.599)" fill="#36ceef" stroke="#263238" stroke-miterlimit="10" stroke-width="1"/>
              <path id="Trazado_1183637" data-name="Trazado 1183637" d="M101.94,380.633a16.5,16.5,0,0,0-5.142-6.646c-3.763-2.885-5.894-3.01-5.894-3.01s.878,5.268,3.888,7.9S101.94,380.633,101.94,380.633Z" transform="translate(-88.898 -363.075)" fill="#36ceef" stroke="#263238" stroke-miterlimit="10" stroke-width="1"/>
              <g id="Grupo_1227931" data-name="Grupo 1227931" transform="translate(7.9 10.284)">
                <line id="Línea_733" data-name="Línea 733" y1="30.6" transform="translate(8.152 1.505)" fill="none" stroke="#263238" stroke-miterlimit="10" stroke-width="1"/>
                <line id="Línea_734" data-name="Línea 734" x1="6.521" y1="5.894" transform="translate(1.756 19.188)" fill="none" stroke="#263238" stroke-miterlimit="10" stroke-width="1"/>
                <line id="Línea_735" data-name="Línea 735" y1="6.396" x2="7.023" transform="translate(8.403 11.538)" fill="none" stroke="#263238" stroke-miterlimit="10" stroke-width="1"/>
                <line id="Línea_736" data-name="Línea 736" x1="8.152" y1="5.894" transform="translate(0 3.762)" fill="none" stroke="#263238" stroke-miterlimit="10" stroke-width="1"/>
                <line id="Línea_737" data-name="Línea 737" y1="4.014" x2="4.139" transform="translate(8.403)" fill="none" stroke="#263238" stroke-miterlimit="10" stroke-width="1"/>
              </g>
            </g>
            <path id="Trazado_1183638" data-name="Trazado 1183638" d="M97.542,441.4s8.913-4.209,10.77-4.333,10.894,4.456,10.894,4.456Z" transform="translate(-92.217 -396.12)" fill="#263238" stroke="#263238" stroke-miterlimit="10" stroke-width="1"/>
          </g>
        </g>
        <g id="Floor" transform="translate(9926.414 3203.807)">
          <line id="Línea_738" data-name="Línea 738" x1="203.407" fill="none" stroke="#263238" stroke-miterlimit="10" stroke-width="1"/>
        </g>
        <g id="Clouds" transform="translate(9927.785 3010.747)">
          <path id="Trazado_1183639" data-name="Trazado 1183639" d="M102.272,65.661s-4.957-5.832-9.914-5.832-6.707,2.916-8.456,3.79-5.832-1.458-9.039-1.749-5.248,3.5-6.415,4.082-3.79-1.166-6.706,0-2.916,2.624-4.082,2.624-3.79-1.458-5.832-1.458-5.248,2.916-5.248,2.916h69.4a8.145,8.145,0,0,0-5.54-3.79C106.355,65.369,106.355,67.118,102.272,65.661Z" transform="translate(-17.58 -60.829)" fill="none" stroke="#263238" stroke-miterlimit="10" stroke-width="1"/>
          <path id="Trazado_1183640" data-name="Trazado 1183640" d="M403.524,164.473s-3.545-4.171-7.09-4.171-4.8,2.086-6.047,2.711-4.171-1.043-6.465-1.251-3.754,2.5-4.587,2.92-2.711-.834-4.8,0-2.085,1.877-2.919,1.877-2.711-1.043-4.17-1.043S363.7,167.6,363.7,167.6h49.63a5.825,5.825,0,0,0-3.962-2.711C406.444,164.264,406.444,165.515,403.524,164.473Z" transform="translate(-237.138 -110.065)" fill="none" stroke="#263238" stroke-miterlimit="10" stroke-width="1"/>
          <path id="Trazado_1183641" data-name="Trazado 1183641" d="M111.659,168.274s-2.253-2.65-4.5-2.65-3.048,1.325-3.842,1.723-2.65-.663-4.108-.795-2.385,1.59-2.915,1.855-1.723-.53-3.048,0-1.325,1.193-1.855,1.193a25.527,25.527,0,0,0-2.65-.663c-.927,0-2.385,1.325-2.385,1.325h31.535a3.7,3.7,0,0,0-2.518-1.723C113.514,168.141,113.514,168.936,111.659,168.274Z" transform="translate(-66.466 -112.726)" fill="none" stroke="#263238" stroke-miterlimit="10" stroke-width="1"/>
        </g>
        <g id="Sun" transform="translate(10061.284 2980.387)">
          <g id="Grupo_1227934" data-name="Grupo 1227934">
            <circle id="Elipse_12744" data-name="Elipse 12744" cx="15.929" cy="15.929" r="15.929" transform="translate(13.431 13.602)" fill="none" stroke="#263238" stroke-miterlimit="10" stroke-width="1"/>
            <line id="Línea_739" data-name="Línea 739" y2="7.63" transform="translate(29.36 51.09)" fill="none" stroke="#263238" stroke-miterlimit="10" stroke-width="1"/>
            <line id="Línea_740" data-name="Línea 740" y2="7.63" transform="translate(29.36)" fill="none" stroke="#263238" stroke-miterlimit="10" stroke-width="1"/>
            <line id="Línea_741" data-name="Línea 741" x2="7.63" transform="translate(51.089 29.36)" fill="none" stroke="#263238" stroke-miterlimit="10" stroke-width="1"/>
            <line id="Línea_742" data-name="Línea 742" x2="7.63" transform="translate(0 29.36)" fill="none" stroke="#263238" stroke-miterlimit="10" stroke-width="1"/>
            <line id="Línea_743" data-name="Línea 743" y1="5.396" x2="5.396" transform="translate(44.725 8.599)" fill="none" stroke="#263238" stroke-miterlimit="10" stroke-width="1"/>
            <line id="Línea_744" data-name="Línea 744" y1="5.396" x2="5.395" transform="translate(8.6 44.725)" fill="none" stroke="#263238" stroke-miterlimit="10" stroke-width="1"/>
            <line id="Línea_745" data-name="Línea 745" x1="5.395" y1="5.396" transform="translate(8.6 8.599)" fill="none" stroke="#263238" stroke-miterlimit="10" stroke-width="1"/>
            <line id="Línea_746" data-name="Línea 746" x1="5.396" y1="5.396" transform="translate(44.725 44.725)" fill="none" stroke="#263238" stroke-miterlimit="10" stroke-width="1"/>
          </g>
        </g>
        <g id="Character" transform="translate(9985.765 3030.803)">
          <path id="Trazado_1183642" data-name="Trazado 1183642" d="M248.245,165.153s2.05-1.708,2.221-6.662-4.954-8.37-4.954-8.37a19.228,19.228,0,0,0,.171-6.149c-.512-2.733-5.979-4.954-5.979-4.954a14.376,14.376,0,0,0-.342-5.807c-.854-2.733-4.783-3.587-4.783-3.587-7.9-11-17.07-8.087-18.7-7.451-1.634-.636-10.8-3.551-18.7,7.451,0,0-3.929.854-4.783,3.587a14.376,14.376,0,0,0-.342,5.807s-5.466,2.221-5.979,4.954a19.228,19.228,0,0,0,.171,6.149s-5.124,3.417-4.953,8.37,2.22,6.662,2.22,6.662-3.074,1.879-3.074,4.27,2.9,6.15,5.466,6.833c2.419.645,27.205.072,29.979.006,2.773.066,27.56.638,29.979-.006,2.563-.684,5.466-4.441,5.466-6.833S248.245,165.153,248.245,165.153Z" transform="translate(-171.485 -110.645)" fill="#263238" stroke="#263238" stroke-miterlimit="10" stroke-width="1"/>
          <g id="Grupo_1227935" data-name="Grupo 1227935" transform="translate(13.632 49.915)">
            <path id="Trazado_1183643" data-name="Trazado 1183643" d="M209.376,200.4s-16.428,8.779-19.062,12.164,5.769,39.755,6.02,41.135.753,5.644,16.8,6.9,23.828-2.132,24.957-3.386a28.173,28.173,0,0,1,2.132-2.132s12.792-39.63,11.161-42.514-12.541-9.406-15.927-11.036a16.479,16.479,0,0,0-4.891-1.756Z" transform="translate(-189.803 -199.771)" fill="#92e3a9"/>
            <path id="Trazado_1183644" data-name="Trazado 1183644" d="M209.376,200.4s-16.428,8.779-19.062,12.164,5.769,39.755,6.02,41.135.753,5.644,16.8,6.9,23.828-2.132,24.957-3.386a28.173,28.173,0,0,1,2.132-2.132s12.792-39.63,11.161-42.514-12.541-9.406-15.927-11.036a16.479,16.479,0,0,0-4.891-1.756Z" transform="translate(-189.803 -199.771)" fill="#36ceef" opacity="0.3"/>
            <path id="Trazado_1183645" data-name="Trazado 1183645" d="M249.289,222.874v-.82h.65c.116-.468.226-.923.331-1.368h-.982v-4.377H251.2c.088-.5.158-.953.212-1.367h-2.126v-3.009h1.646c-1.829-2.176-7.122-5.653-11.221-8.068v.682h-3.009v-.821h2.773c-.881-.516-1.7-.981-2.414-1.368h-.359v-.193c-.479-.256-.9-.473-1.243-.638l-.124-.059v.89h-4.377v-2.52a3.949,3.949,0,0,0-.39-.066l-.977.029v2.558h-.82v-2.533l-7.386.218v2.315h-3.009v-2.226l-1.368.04v2.186h-4.377V200.3l-1.367.04v2.016h-.82v-1.991l-1.068.032s-2.825,1.51-6.317,3.517v.63H201.97c-4.727,2.75-10.224,6.178-11.654,8.017-1.286,1.654.06,11.173,1.8,20.641V230.26h.82v3.009h-.809q.126.685.254,1.368h.554v2.887c.819,4.191,1.65,8.122,2.285,11.064h3.459V251.6h-2.8c.122.559.224,1.018.3,1.368h2.5v4.141a14.125,14.125,0,0,0,3.471,1.6h.906v.276a51.842,51.842,0,0,0,10.08,1.61c8.979.7,15.365-.049,19.451-1.066h-1.628v-.82H235.3a9.15,9.15,0,0,0,2.665-1.368h-1.255v-4.377h3.009v2.585c.313-.3.513-.473.513-.473s3.705-11.479,6.873-22.53V230.26h.65c.726-2.584,1.406-5.1,1.984-7.386h-.446Zm-56.351,0h-.82v-.82h.82Zm0-2.188h-.82V216.31h.82Zm0-5.745h-.82v-3.009h.82Zm5.745,26.26h-4.377v-.82h4.377Zm0-2.188h-4.377v-4.377h4.377Zm0-5.745h-4.377V230.26h4.377Zm0-10.4h-4.377v-.82h4.377Zm0-2.188h-4.377V216.31h4.377Zm0-5.745h-4.377v-3.009h4.377Zm4.377,42.4h-3.009v-4.377h3.009Zm0-5.745h-3.009v-3.009h3.009Zm0-10.395h-3.009v-.82h3.009Zm0-2.188h-3.009v-4.377h3.009Zm0-5.745h-3.009V230.26h3.009Zm0-10.4h-3.009v-.82h3.009Zm0-2.188h-3.009V216.31h3.009Zm0-5.745h-3.009v-3.009h3.009Zm8.206,44.588h-.82v-.82h.82Zm0-2.188h-.82v-4.377h.82Zm0-5.745h-.82v-3.009h.82Zm0-10.395h-.82v-.82h.82Zm0-2.188h-.82v-4.377h.82Zm0-5.745h-.82V230.26h.82Zm0-10.4h-.82v-.82h.82Zm0-2.188h-.82V216.31h.82Zm0-5.745h-.82v-3.009h.82Zm0-10.395h-.82v-.821h.82Zm5.744,54.983h-4.377v-.82h4.377Zm0-2.188h-4.377v-4.377h4.377Zm0-5.745h-4.377v-3.009h4.377Zm0-10.395h-4.377v-.82h4.377Zm0-2.188h-4.377v-4.377h4.377Zm0-5.745h-4.377V230.26h4.377Zm0-10.4h-4.377v-.82h4.377Zm0-2.188h-4.377V216.31h4.377Zm0-5.745h-4.377v-3.009h4.377Zm0-10.395h-4.377v-.821h4.377Zm4.377,54.983h-3.009v-.82h3.009Zm0-2.188h-3.009v-4.377h3.009Zm0-5.745h-3.009v-3.009h3.009Zm0-10.395h-3.009v-.82h3.009Zm0-2.188h-3.009v-4.377h3.009Zm0-5.745h-3.009V230.26h3.009Zm0-10.4h-3.009v-.82h3.009Zm0-2.188h-3.009V216.31h3.009Zm0-5.745h-3.009v-3.009h3.009Zm0-10.395h-3.009v-.821h3.009Zm8.206,54.983h-.82v-.82h.82Zm0-2.188h-.82v-4.377h.82Zm0-5.745h-.82v-3.009h.82Zm0-10.395h-.82v-.82h.82Zm0-2.188h-.82v-4.377h.82Zm0-5.745h-.82V230.26h.82Zm0-10.4h-.82v-.82h.82Zm0-2.188h-.82V216.31h.82Zm0-5.745h-.82v-3.009h.82Zm0-10.395h-.82v-.821h.82Zm5.745,52.794h-4.377v-4.377h4.377Zm0-5.745h-4.377v-3.009h4.377Zm0-10.395h-4.377v-.82h4.377Zm0-2.188h-4.377v-4.377h4.377Zm0-5.745h-4.377V230.26h4.377Zm0-10.4h-4.377v-.82h4.377Zm0-2.188h-4.377V216.31h4.377Zm0-5.745h-4.377v-3.009h4.377Zm0-10.395h-4.377v-.821h4.377Zm4.376,47.05h-3.009v-3.009h3.009Zm0-10.395h-3.009v-.82h3.009Zm0-2.188h-3.009v-4.377h3.009Zm0-5.745h-3.009V230.26h3.009Zm0-10.4h-3.009v-.82h3.009Zm0-2.188h-3.009V216.31h3.009Zm0-5.745h-3.009v-3.009h3.009Zm8.206,7.932h-.82v-.82h.82Zm0-2.188h-.82V216.31h.82Zm0-5.745h-.82v-3.009h.82Z" transform="translate(-189.804 -199.771)" opacity="0.15"/>
            <path id="Trazado_1183646" data-name="Trazado 1183646" d="M209.376,200.4s-16.428,8.779-19.062,12.164,5.769,39.755,6.02,41.135.753,5.644,16.8,6.9,23.828-2.132,24.957-3.386a28.173,28.173,0,0,1,2.132-2.132s12.792-39.63,11.161-42.514-12.541-9.406-15.927-11.036a16.479,16.479,0,0,0-4.891-1.756Z" transform="translate(-189.803 -199.771)" fill="none" stroke="#263238" stroke-miterlimit="10" stroke-width="1"/>
          </g>
          <path id="Trazado_1183647" data-name="Trazado 1183647" d="M175.729,395.494a9.326,9.326,0,0,0-4.252,1.559c-1.471,1.261-2.551,5.669-2.551,5.669s-4.773,10.46-5.824,12.772-.421,4.414.211,4.624a24.327,24.327,0,0,0,3.573.21h10.969a3.116,3.116,0,0,0,.283-2.016c-.378-1.322-1.561-2.775-.952-3.87,1.051-1.892,5.185-8.66,3.5-13.705S175.729,395.494,175.729,395.494Z" transform="translate(-162.54 -247.718)" fill="#263238" stroke="#263238" stroke-miterlimit="10" stroke-width="1"/>
          <path id="Trazado_1183648" data-name="Trazado 1183648" d="M301.694,395.494a9.326,9.326,0,0,1,4.252,1.559c1.471,1.261,2.551,5.669,2.551,5.669s4.773,10.46,5.824,12.772.42,4.414-.21,4.624a24.327,24.327,0,0,1-3.573.21H299.568a3.116,3.116,0,0,1-.284-2.016c.378-1.322,1.561-2.775.953-3.87-1.051-1.892-5.185-8.66-3.5-13.705S301.694,395.494,301.694,395.494Z" transform="translate(-229.438 -247.718)" fill="#263238" stroke="#263238" stroke-miterlimit="10" stroke-width="1"/>
          <path id="Trazado_1183649" data-name="Trazado 1183649" d="M191.515,404.845h50.616c.412-.784,5.762-9.177,6.094-19.272a107.781,107.781,0,0,0-1.7-21.827l-60.706,5.549a68.769,68.769,0,0,0-.376,17.557C186.394,396.492,190.167,403.607,191.515,404.845Z" transform="translate(-173.808 -231.844)" fill="#a1a1a1" stroke="#263238" stroke-miterlimit="10" stroke-width="1"/>
          <g id="Grupo_1227937" data-name="Grupo 1227937" transform="translate(11.787 54.053)">
            <path id="Trazado_1183650" data-name="Trazado 1183650" d="M198.627,209.428l4.766,48.032-8.026-2.759s-7.525,26.712-8.9,35.617,1.5,19.438,5.643,25.333,16.8,10.158,25.333,9.656,16.3-2.884,20.943-9.28,8.4-15.3,8.779-28.217-6.9-32.1-6.9-32.1l-8.514,1.881,9.466-47.472-3.01-2.007L235,229.242s-4.64,1.38-15.551,1.38-16.178-3.01-16.178-3.01l-2.007-19.564Z" transform="translate(-186.114 -208.048)" fill="#fff" stroke="#263238" stroke-miterlimit="10" stroke-width="1"/>
            <g id="Grupo_1227936" data-name="Grupo 1227936" transform="translate(14.631 54.233)">
              <path id="Trazado_1183651" data-name="Trazado 1183651" d="M215.376,316.514s9.039,4.2,15.555,5.465" transform="translate(-215.376 -316.514)" fill="none" stroke="#263238" stroke-miterlimit="10" stroke-width="1"/>
              <path id="Trazado_1183652" data-name="Trazado 1183652" d="M258.889,325.343a29.948,29.948,0,0,1-22.493,2.943" transform="translate(-225.887 -320.928)" fill="none" stroke="#263238" stroke-miterlimit="10" stroke-width="1"/>
              <path id="Trazado_1183653" data-name="Trazado 1183653" d="M249.85,326.6a10.711,10.711,0,0,0,5.465-.841" transform="translate(-232.613 -321.138)" fill="none" stroke="#263238" stroke-miterlimit="10" stroke-width="1"/>
            </g>
          </g>
          <g id="Grupo_1227940" data-name="Grupo 1227940" transform="translate(11.443 112.244)">
            <g id="Grupo_1227939" data-name="Grupo 1227939" transform="translate(16.369)">
              <path id="Trazado_1183654" data-name="Trazado 1183654" d="M232.083,380.362a12.1,12.1,0,0,0-2.884-5.643c-2.258-2.258-5.017-2.508-7.023-3.135a14.45,14.45,0,0,1-4.013-2.258s2.383,5.518,3.887,7.4a9.646,9.646,0,0,0,4.766,3.386A46.907,46.907,0,0,0,232.083,380.362Z" transform="translate(-218.163 -346.877)" fill="#36ceef" stroke="#263238" stroke-miterlimit="10" stroke-width="1"/>
              <path id="Trazado_1183655" data-name="Trazado 1183655" d="M253.529,341.987s0-3.135,1.254-4.64,7.9-3.637,7.9-3.637a20.544,20.544,0,0,1-4.515,6.02A9.159,9.159,0,0,1,253.529,341.987Z" transform="translate(-235.846 -329.07)" fill="#36ceef" stroke="#263238" stroke-miterlimit="10" stroke-width="1"/>
              <path id="Trazado_1183656" data-name="Trazado 1183656" d="M247.941,339.98s-1.5-.125-2.007-4.138,1.881-11.413,1.881-11.413,2.508,6.02,2.132,9.782S249.2,337.848,247.941,339.98Z" transform="translate(-232.014 -324.429)" fill="#36ceef" stroke="#263238" stroke-miterlimit="10" stroke-width="1"/>
              <path id="Trazado_1183657" data-name="Trazado 1183657" d="M254.031,366.191s.251-5.267,3.637-7.148a83.407,83.407,0,0,1,8.152-3.762s-1.38,4.64-3.26,6.647-3.763,4.389-5.518,5.016A2.918,2.918,0,0,1,254.031,366.191Z" transform="translate(-236.097 -339.854)" fill="#36ceef" stroke="#263238" stroke-miterlimit="10" stroke-width="1"/>
              <path id="Trazado_1183658" data-name="Trazado 1183658" d="M233.212,349.888a16.5,16.5,0,0,0-5.142-6.646c-3.762-2.885-5.895-3.01-5.895-3.01s.878,5.267,3.887,7.9S233.212,349.888,233.212,349.888Z" transform="translate(-220.169 -332.33)" fill="#36ceef" stroke="#263238" stroke-miterlimit="10" stroke-width="1"/>
              <g id="Grupo_1227938" data-name="Grupo 1227938" transform="translate(7.901 10.284)">
                <line id="Línea_747" data-name="Línea 747" y1="30.6" transform="translate(8.152 1.505)" fill="none" stroke="#263238" stroke-miterlimit="10" stroke-width="1"/>
                <line id="Línea_748" data-name="Línea 748" x1="6.521" y1="5.894" transform="translate(1.756 19.188)" fill="none" stroke="#263238" stroke-miterlimit="10" stroke-width="1"/>
                <line id="Línea_749" data-name="Línea 749" y1="6.396" x2="7.023" transform="translate(8.403 11.537)" fill="none" stroke="#263238" stroke-miterlimit="10" stroke-width="1"/>
                <line id="Línea_750" data-name="Línea 750" x1="8.151" y1="5.894" transform="translate(0 3.762)" fill="none" stroke="#263238" stroke-miterlimit="10" stroke-width="1"/>
                <line id="Línea_751" data-name="Línea 751" y1="4.013" x2="4.139" transform="translate(8.403)" fill="none" stroke="#263238" stroke-miterlimit="10" stroke-width="1"/>
              </g>
            </g>
            <path id="Trazado_1183659" data-name="Trazado 1183659" d="M247.072,428.129s-15.318-10.351-17.035-12.411a20.442,20.442,0,0,0-7.177-5.447c-2.576-1.031-4.465-2.4-9.445,0s-5.4,5.688-6.48,6.451-16.53,11.751-16.53,11.751l-4.98,1.889s7.555-.344,9.445-.687a53.218,53.218,0,0,1,6.354-.344s-4.637,2.06-2.061,2.232,7.384-1.717,8.586-1.889,2.061-.172,6.182,1.03,4.808,1.717,5.323,1.374a14.055,14.055,0,0,0,1.717-1.889s-2.919.515,5.839,1.546,8.414-1.546,8.414-1.546,3.091,0,6.01-.171,4.293.858,7.212.858S247.072,428.129,247.072,428.129Z" transform="translate(-185.426 -366.682)" fill="#263238" stroke="#263238" stroke-miterlimit="10" stroke-width="1"/>
          </g>
          <path id="Trazado_1183660" data-name="Trazado 1183660" d="M258.545,225.1l-1.756,36.243,8.4-.878,1.505-43.392S263.687,224.352,258.545,225.1Z" transform="translate(-209.664 -158.51)" fill="#a1a1a1" stroke="#263238" stroke-miterlimit="10" stroke-width="1"/>
          <g id="Grupo_1227941" data-name="Grupo 1227941" transform="translate(31.257 45.025)">
            <path id="Trazado_1183661" data-name="Trazado 1183661" d="M227.252,193s-1.756,1.63-1.631,2.508-1,1.38-.376,3.637,6.647,15.174,8.277,16.3,6.145,2.508,8.4.878,8.654-9.908,9.405-14.172,1.129-6.646-1.128-9.406l-2.258-2.759s-.753,4.264-7.148,6.4S227.252,193,227.252,193Z" transform="translate(-225.054 -189.991)" fill="#a1a1a1" stroke="#263238" stroke-miterlimit="10" stroke-width="1"/>
            <path id="Trazado_1183662" data-name="Trazado 1183662" d="M235.972,202.907s7.023,12.666,8.9,11.663,5.392-12.792,5.392-12.792Z" transform="translate(-230.513 -195.884)" fill="#fff" stroke="#263238" stroke-miterlimit="10" stroke-width="1"/>
            <path id="Trazado_1183663" data-name="Trazado 1183663" d="M242.117,221.468s-3.386,1.631-5.142,1.631-5.016-5.017-6.521-7.525" transform="translate(-227.754 -202.783)" fill="none" stroke="#263238" stroke-miterlimit="10" stroke-width="1"/>
            <path id="Trazado_1183664" data-name="Trazado 1183664" d="M267.324,193a20.6,20.6,0,0,1,.251,8.9c-1,4.389-2.633,8.9-6.02,10.158" transform="translate(-243.305 -191.495)" fill="none" stroke="#263238" stroke-miterlimit="10" stroke-width="1"/>
          </g>
          <g id="Grupo_1227943" data-name="Grupo 1227943" transform="translate(23.985)">
            <path id="Trazado_1183665" data-name="Trazado 1183665" d="M279.209,162.622s.165-3.508,2.241-2.271-.318,6.765-1.382,8.025a9.66,9.66,0,0,1-2.48,2.022l1.072-6.771Z" transform="translate(-244.049 -130.014)" fill="#fff" stroke="#263238" stroke-miterlimit="10" stroke-width="1"/>
            <g id="Grupo_1227942" data-name="Grupo 1227942">
              <path id="Trazado_1183666" data-name="Trazado 1183666" d="M216.95,143.129s1.615,11.313,2.747,13.934,5.978,8.792,9.663,10.518a7.575,7.575,0,0,0,7.942-.686c1.428-1.012,5.408-5.551,7.594-9.324s2.984-15.425,2.984-15.425l-.867-8.259s-17.585-10.511-21.251-9.983-10.455,14.1-10.029,15.729A30.809,30.809,0,0,0,216.95,143.129Z" transform="translate(-213.113 -111.912)" fill="#fff" stroke="#263238" stroke-miterlimit="10" stroke-width="1"/>
              <path id="Trazado_1183667" data-name="Trazado 1183667" d="M245.778,189.715s1.682,1.616,4.641.09" transform="translate(-228.144 -144.828)" fill="none" stroke="#263238" stroke-miterlimit="10" stroke-width="1"/>
              <path id="Trazado_1183668" data-name="Trazado 1183668" d="M242.925,196.568s3.268,2.6,7.553-.433" transform="translate(-226.718 -148.038)" fill="none" stroke="#263238" stroke-miterlimit="10" stroke-width="1"/>
              <path id="Trazado_1183669" data-name="Trazado 1183669" d="M228.285,165.3s2.983-2.026,6.07-.922" transform="translate(-219.398 -131.997)" fill="none" stroke="#263238" stroke-miterlimit="10" stroke-width="1"/>
              <path id="Trazado_1183670" data-name="Trazado 1183670" d="M257.481,164.7s3.958-1.408,6.1,1.206" transform="translate(-233.996 -132.134)" fill="none" stroke="#263238" stroke-miterlimit="10" stroke-width="1"/>
              <path id="Trazado_1183671" data-name="Trazado 1183671" d="M235.447,172.943c-.038.8-.462,1.443-.947,1.447s-.849-.639-.812-1.434.462-1.443.947-1.447S235.484,172.147,235.447,172.943Z" transform="translate(-222.098 -135.725)" fill="#263238"/>
              <path id="Trazado_1183672" data-name="Trazado 1183672" d="M262.073,172.742c-.038.8-.462,1.444-.947,1.448s-.849-.638-.811-1.434.462-1.444.947-1.448S262.11,171.946,262.073,172.742Z" transform="translate(-235.411 -135.625)" fill="#263238"/>
              <path id="Trazado_1183673" data-name="Trazado 1183673" d="M225.3,117.175s-.836,1.759-1.976,4.648-4.038,5.791-5.7,6.429a18.648,18.648,0,0,1-3.306.9s1.036,2,.031,2-1.886-2.615-1.886-2.615-3.356-8.741-1.268-15.769a13.652,13.652,0,0,1,8.33-8.954s3.238-4.783,12.353-3.725,13.711,4.78,16.9,14.4-1.579,14.914-2.237,15.545-.225,2.131-.872,2.511-1.43-1.617-1.43-1.617a31.471,31.471,0,0,1-8.227-3.945c-3.644-2.6-7.9-8.33-8.841-9.576A1.147,1.147,0,0,0,225.3,117.175Z" transform="translate(-210.51 -99.941)" fill="#263238" stroke="#263238" stroke-miterlimit="10" stroke-width="1"/>
            </g>
            <path id="Trazado_1183674" data-name="Trazado 1183674" d="M215.074,161.415s-1.413-1.993-2.5-.232-.594,4.638.453,6.383a9.269,9.269,0,0,0,3.54,2.891Z" transform="translate(-211.236 -130.199)" fill="#fff" stroke="#263238" stroke-miterlimit="10" stroke-width="1"/>
          </g>
          <g id="Grupo_1227945" data-name="Grupo 1227945" transform="translate(6.37 56.687)">
            <path id="Trazado_1183675" data-name="Trazado 1183675" d="M192.207,213.316s-15.927,9.029-16.8,13.168,3.26,29.095,3.26,29.095l-.126,19.313s4.515-2.383,8.277-2.383,6.4.125,6.4.125-2.383-16.052-2.383-16.554.126-27.214.126-27.214" transform="translate(-175.279 -213.315)" fill="#92e3a9"/>
            <path id="Trazado_1183676" data-name="Trazado 1183676" d="M192.207,213.316s-15.927,9.029-16.8,13.168,3.26,29.095,3.26,29.095l-.126,19.313s4.515-2.383,8.277-2.383,6.4.125,6.4.125-2.383-16.052-2.383-16.554.126-27.214.126-27.214" transform="translate(-175.279 -213.315)" fill="#36ceef" opacity="0.3"/>
            <path id="Trazado_1183677" data-name="Trazado 1183677" d="M191.421,260.42v3.693h-4.377v-4.377h4.279c-.07-.491-.135-.952-.195-1.368h-4.085v-3.009h3.787c.005-1.266.018-4.061.033-7.385h-3.821v-.82h3.825q0-.674.007-1.367h-3.83v-4.377H190.9q0-.688.007-1.368h-3.857v-3.009h3.871c.016-3.3.029-6.09.035-7.386h-3.906v-.821h3.913l.111-1.368h-4.023V223.08h4.376l.787-9.766s-10.223,5.8-14.738,10.231v3.911H175.3c-.018.393-.02.853-.008,1.368h2.181v.821h-2.152c.092,1.986.345,4.592.674,7.386h1.478v3.009h-1.105q.089.683.18,1.368h.924v4.377h-.315q.1.7.2,1.367h.115v.779c.651,4.372,1.193,7.646,1.193,7.646l-.126,19.313s4.515-2.383,8.277-2.383,6.4.125,6.4.125S192.126,265.328,191.421,260.42ZM187.044,218.7h4.377v3.009h-4.377Zm-1.368,47.6h-.82v-.82h.82Zm0-2.188h-.82v-4.377h.82Zm0-5.745h-.82v-3.009h.82Zm0-10.395h-.82v-.82h.82Zm0-2.189h-.82v-4.377h.82Zm0-5.745h-.82v-3.009h.82Zm0-10.395h-.82v-.82h.82Zm0-2.188h-.82v-4.377h.82Zm0-5.744h-.82V218.7h.82Zm5.745,44.588h-4.377v-.82h4.377Z" transform="translate(-175.281 -213.315)" opacity="0.15"/>
            <path id="Trazado_1183678" data-name="Trazado 1183678" d="M192.207,213.316s-15.927,9.029-16.8,13.168,3.26,29.095,3.26,29.095l-.126,19.313s4.515-2.383,8.277-2.383,6.4.125,6.4.125-2.383-16.052-2.383-16.554.126-27.214.126-27.214" transform="translate(-175.279 -213.315)" fill="none" stroke="#263238" stroke-miterlimit="10" stroke-width="1"/>
            <path id="Trazado_1183679" data-name="Trazado 1183679" d="M185.67,323.543s-5.017,2.508-6.4,3.887-1.756,1.881-1.38,2.383,1.129,8.528,2.132,9.405,4.264,2.383,9.657.627,6.772-3.637,7.023-4.891-.376-2.258-1-6.02S193.446,322.038,185.67,323.543Z" transform="translate(-176.518 -268.236)" fill="#a1a1a1" stroke="#263238" stroke-miterlimit="10" stroke-width="1"/>
            <g id="Grupo_1227944" data-name="Grupo 1227944" transform="translate(5.891 66.045)">
              <path id="Trazado_1183680" data-name="Trazado 1183680" d="M198.851,345.828a16.957,16.957,0,0,0-6.646-.251c-4.389.5-5.142,2.884-5.142,2.884s7.274,19.815,8.9,23.452-.5,8.654-.753,10.033-.251,6.145-.251,6.145,1.881,4.64,1.756,6.145,1.505,1.254,1.63.126-1-5.017-1-5.017,5.016,4.013,5.393,4.39,1.881,0,1.129-1.129a31.23,31.23,0,0,0-2.383-2.884s3.135,2.258,4.013,2.006a.779.779,0,0,0,.627-1s1.254,0,1.38-1-1.756-4.891-1.881-5.769,1.505-4.264,1.505-4.264,3.26,2.383,4.264,2.508,3.762-.753,3.135-2.007-1.755-.878-3.762-2.508a13.491,13.491,0,0,0-5.644-2.508c-.878-.126-2.007-1.505-2.007-1.505Z" transform="translate(-187.062 -345.404)" fill="#fff" stroke="#263238" stroke-miterlimit="10" stroke-width="1"/>
              <path id="Trazado_1183681" data-name="Trazado 1183681" d="M217.411,414.474l-1.505,3.386,4.64,7.4" transform="translate(-201.484 -379.939)" fill="none" stroke="#263238" stroke-miterlimit="10" stroke-width="1"/>
              <path id="Trazado_1183682" data-name="Trazado 1183682" d="M211.248,420.243s-2.132,4.264-1.129,4.515,2.759,2.383,2.759,2.383" transform="translate(-198.456 -382.824)" fill="none" stroke="#263238" stroke-miterlimit="10" stroke-width="1"/>
              <path id="Trazado_1183683" data-name="Trazado 1183683" d="M206.295,422.751s-2.007,2.258-1.5,3.135,1.38,2.132,1.38,2.132" transform="translate(-195.886 -384.078)" fill="none" stroke="#263238" stroke-miterlimit="10" stroke-width="1"/>
            </g>
            <line id="Línea_752" data-name="Línea 752" x1="5.142" y1="14.046" transform="translate(10.406 28.72)" fill="#fff" stroke="#263238" stroke-miterlimit="10" stroke-width="1"/>
          </g>
          <g id="Grupo_1227947" data-name="Grupo 1227947" transform="translate(47.059 56.999)">
            <path id="Trazado_1183684" data-name="Trazado 1183684" d="M293.2,213.94s12.965,6.461,13.842,10.6-4.8,31.353-4.8,31.353l.125,19.313s-4.515-2.383-8.277-2.383-6.4.125-6.4.125,2.383-16.052,2.383-16.554-.125-27.214-.125-27.214" transform="translate(-272.175 -213.94)" fill="#92e3a9"/>
            <path id="Trazado_1183685" data-name="Trazado 1183685" d="M293.2,213.94s12.965,6.461,13.842,10.6-4.8,31.353-4.8,31.353l.125,19.313s-4.515-2.383-8.277-2.383-6.4.125-6.4.125,2.383-16.052,2.383-16.554-.125-27.214-.125-27.214" transform="translate(-272.175 -213.94)" fill="#36ceef" opacity="0.3"/>
            <path id="Trazado_1183686" data-name="Trazado 1183686" d="M306.986,224.36v3.411h-3.009v-4.376h2.56a8.65,8.65,0,0,0-1.1-1.367h-1.461v-1.343c-.43-.358-.891-.715-1.368-1.068v2.411h-4.376v-3.009h3.548a77.537,77.537,0,0,0-8.585-5.077l-3.247,15.239s.125,26.712.125,27.214c0,.283-.756,5.5-1.417,10v.217h-.032c-.5,3.4-.934,6.333-.934,6.333s2.633-.125,6.4-.125A16.794,16.794,0,0,1,299.6,274h2.756l-.048-7.385h-4.077v-.82H302.3l-.009-1.368h-4.062v-4.377h4.034l-.009-1.368h-4.026v-3.009h4.052c.194-.937.992-4.824,1.887-9.574h-.2v-4.377h1q.122-.682.242-1.368h-1.242v-3.009h1.755c.441-2.665.826-5.23,1.08-7.386h-2.835v-.82H306.9a18.777,18.777,0,0,0,.135-4.6C307.026,224.48,307,224.419,306.986,224.36Zm-10.122,42.255h-.82v-.82h.82Zm0-2.189h-.82v-4.377h.82Zm0-5.745h-.82v-3.009h.82Zm0-10.395h-.82v-.82h.82Zm0-2.188h-.82v-4.377h.82Zm0-5.745h-.82v-3.009h.82Zm0-10.4h-.82v-.821h.82Zm0-2.188h-.82v-4.376h.82Zm0-5.745h-.82v-3.009h.82Zm5.745,26.26h-4.376v-.82h4.376Zm0-2.188h-4.376v-4.377h4.376Zm0-5.745h-4.376v-3.009h4.376Zm0-10.4h-4.376v-.821h4.376Zm0-2.188h-4.376v-4.376h4.376Z" transform="translate(-272.175 -213.94)" opacity="0.15"/>
            <path id="Trazado_1183687" data-name="Trazado 1183687" d="M293.2,213.94s12.965,6.461,13.842,10.6-4.8,31.353-4.8,31.353l.125,19.313s-4.515-2.383-8.277-2.383-6.4.125-6.4.125,2.383-16.052,2.383-16.554-.125-27.214-.125-27.214" transform="translate(-272.175 -213.94)" fill="none" stroke="#263238" stroke-miterlimit="10" stroke-width="1"/>
            <path id="Trazado_1183688" data-name="Trazado 1183688" d="M294.156,323.543s3.063.35,6.4,3.887c1.338,1.42,1.756,1.881,1.379,2.383s-1.129,8.528-2.132,9.405-4.264,2.383-9.656.627-6.772-3.637-7.023-4.891.376-2.258,1-6.02S286.381,322.038,294.156,323.543Z" transform="translate(-269.861 -268.549)" fill="#a1a1a1" stroke="#263238" stroke-miterlimit="10" stroke-width="1"/>
            <g id="Grupo_1227946" data-name="Grupo 1227946" transform="translate(0 65.732)">
              <path id="Trazado_1183689" data-name="Trazado 1183689" d="M272.426,345.828a16.957,16.957,0,0,1,6.646-.251c4.389.5,5.142,2.884,5.142,2.884s-7.273,19.815-8.9,23.452.5,8.654.753,10.033.251,6.145.251,6.145-1.881,4.64-1.756,6.145-1.505,1.254-1.63.126,1-5.017,1-5.017-5.016,4.013-5.393,4.39-1.881,0-1.128-1.129a31.23,31.23,0,0,1,2.383-2.884s-3.135,2.258-4.013,2.006a.779.779,0,0,1-.627-1s-1.254,0-1.379-1,1.756-4.891,1.881-5.769-1.505-4.264-1.505-4.264-3.26,2.383-4.264,2.508-3.762-.753-3.135-2.007,1.756-.878,3.763-2.508a13.491,13.491,0,0,1,5.643-2.508c.878-.126,2.007-1.505,2.007-1.505Z" transform="translate(-256.659 -345.404)" fill="#fff" stroke="#263238" stroke-miterlimit="10" stroke-width="1"/>
              <path id="Trazado_1183690" data-name="Trazado 1183690" d="M276.781,414.474l1.5,3.386-4.64,7.4" transform="translate(-265.152 -379.939)" fill="none" stroke="#263238" stroke-miterlimit="10" stroke-width="1"/>
              <path id="Trazado_1183691" data-name="Trazado 1183691" d="M284.557,420.243s2.132,4.264,1.128,4.515-2.759,2.383-2.759,2.383" transform="translate(-269.792 -382.824)" fill="none" stroke="#263238" stroke-miterlimit="10" stroke-width="1"/>
              <path id="Trazado_1183692" data-name="Trazado 1183692" d="M290.953,422.751s2.007,2.258,1.505,3.135-1.38,2.132-1.38,2.132" transform="translate(-273.806 -384.078)" fill="none" stroke="#263238" stroke-miterlimit="10" stroke-width="1"/>
            </g>
            <line id="Línea_753" data-name="Línea 753" y1="14.046" x2="5.141" transform="translate(17.9 28.407)" fill="#fff" stroke="#263238" stroke-miterlimit="10" stroke-width="1"/>
          </g>
        </g>
      </g>
    </g>
  </g>
</svg>
