<svg xmlns="http://www.w3.org/2000/svg" xmlns:xlink="http://www.w3.org/1999/xlink" width="106" height="106" viewBox="0 0 106 106">
  <defs>
    <filter id="Trazado_982547" x="0" y="0" width="106" height="106" filterUnits="userSpaceOnUse">
      <feOffset dy="3" input="SourceAlpha"/>
      <feGaussianBlur stdDeviation="3" result="blur"/>
      <feFlood flood-opacity="0.161"/>
      <feComposite operator="in" in2="blur"/>
      <feComposite in="SourceGraphic"/>
    </filter>
  </defs>
  <g id="Grupo_1227802" data-name="Grupo 1227802" transform="translate(-171 -5145)">
    <g id="Grupo_1226947" data-name="Grupo 1226947" transform="translate(0 3763)">
      <g id="Grupo_1173169" data-name="Grupo 1173169" transform="translate(0 -2329)">
        <g id="Grupo_1172017" data-name="Grupo 1172017" transform="translate(0 2654)">
          <g id="Grupo_1167337" data-name="Grupo 1167337" transform="translate(180 1063)">
            <g id="Grupo_1166720" data-name="Grupo 1166720" transform="translate(0)">
              <g id="Grupo_1164305" data-name="Grupo 1164305">
                <g id="Grupo_1163948" data-name="Grupo 1163948">
                  <g id="Grupo_1158168" data-name="Grupo 1158168">
                    <g id="Grupo_1152576" data-name="Grupo 1152576">
                      <g id="Grupo_1148633" data-name="Grupo 1148633">
                        <g id="Grupo_1148525" data-name="Grupo 1148525">
                          <g transform="matrix(1, 0, 0, 1, -9, -6)" filter="url(#Trazado_982547)">
                            <g id="Trazado_982547-2" data-name="Trazado 982547" transform="translate(9 6)" fill="#f2f7e5">
                              <path d="M 44 86.5 C 38.26187515258789 86.5 32.69618606567383 85.37651062011719 27.45755004882812 83.16075897216797 C 22.3968505859375 81.020263671875 17.85157585144043 77.95565032958984 13.94796276092529 74.05204010009766 C 10.04434967041016 70.1484375 6.979737281799316 65.6031494140625 4.839250087738037 60.54246139526367 C 2.62348747253418 55.30381393432617 1.5 49.73812484741211 1.5 44 C 1.5 38.26187515258789 2.62348747253418 32.69618606567383 4.839250087738037 27.45755004882812 C 6.979737281799316 22.3968505859375 10.04434967041016 17.85157585144043 13.94796276092529 13.94796276092529 C 17.85157585144043 10.04434967041016 22.3968505859375 6.979737281799316 27.45755004882812 4.839250087738037 C 32.69618606567383 2.62348747253418 38.26187515258789 1.5 44 1.5 C 49.73812484741211 1.5 55.30381393432617 2.62348747253418 60.54246139526367 4.839250087738037 C 65.6031494140625 6.979737281799316 70.1484375 10.04434967041016 74.05204010009766 13.94796276092529 C 77.95565032958984 17.85157585144043 81.020263671875 22.3968505859375 83.16075897216797 27.45755004882812 C 85.37651062011719 32.69618606567383 86.5 38.26187515258789 86.5 44 C 86.5 49.73812484741211 85.37651062011719 55.30381393432617 83.16075897216797 60.54246139526367 C 81.020263671875 65.6031494140625 77.95565032958984 70.1484375 74.05204010009766 74.05204010009766 C 70.1484375 77.95565032958984 65.6031494140625 81.020263671875 60.54246139526367 83.16075897216797 C 55.30381393432617 85.37651062011719 49.73812484741211 86.5 44 86.5 Z" stroke="none"/>
                              <path d="M 44 3 C 38.46371459960938 3 33.09462738037109 4.083610534667969 28.0418701171875 6.220756530761719 C 23.15997314453125 8.285614013671875 18.77495574951172 11.24228668212891 15.00862884521484 15.00862884521484 C 11.24228668212891 18.77495574951172 8.285614013671875 23.15997314453125 6.220756530761719 28.0418701171875 C 4.083610534667969 33.09462738037109 3 38.46371459960938 3 44 C 3 49.53628540039062 4.083610534667969 54.9053840637207 6.220756530761719 59.9581298828125 C 8.285614013671875 64.84002685546875 11.24228668212891 69.22504425048828 15.00862884521484 72.99138641357422 C 18.77495574951172 76.75771331787109 23.15997314453125 79.71438598632812 28.0418701171875 81.77925872802734 C 33.09462738037109 83.9163818359375 38.46371459960938 85 44 85 C 49.53628540039062 85 54.9053840637207 83.9163818359375 59.95814514160156 81.77925872802734 C 64.84002685546875 79.71438598632812 69.22504425048828 76.75771331787109 72.99138641357422 72.99138641357422 C 76.75771331787109 69.22504425048828 79.71438598632812 64.84002685546875 81.77925872802734 59.95814514160156 C 83.9163818359375 54.9053840637207 85 49.53628540039062 85 44 C 85 38.46371459960938 83.9163818359375 33.09462738037109 81.77925872802734 28.0418701171875 C 79.71438598632812 23.15997314453125 76.75771331787109 18.77495574951172 72.99138641357422 15.00862884521484 C 69.22504425048828 11.24228668212891 64.84002685546875 8.285614013671875 59.9581298828125 6.220756530761719 C 54.9053840637207 4.083610534667969 49.53628540039062 3 44 3 M 44 0 C 68.30054473876953 0 88 19.69947052001953 88 44 C 88 68.30054473876953 68.30054473876953 88 44 88 C 19.69947052001953 88 0 68.30054473876953 0 44 C 0 19.69947052001953 19.69947052001953 0 44 0 Z" stroke="none" fill="#496406"/>
                            </g>
                          </g>
                        </g>
                      </g>
                    </g>
                  </g>
                </g>
              </g>
            </g>
          </g>
        </g>
      </g>
    </g>
    <g id="gastar" transform="translate(196.353 5148.621)">
      <path id="Trazado_1183281" data-name="Trazado 1183281" d="M10,62.319H63.135V33.7a2.7,2.7,0,0,0-2.7-2.7H12.7A2.7,2.7,0,0,0,10,33.7Z" transform="translate(-8.92 -8.92)" fill="#a0e5a5"/>
      <circle id="Elipse_12726" data-name="Elipse 12726" cx="9.99" cy="9.99" r="9.99" transform="translate(17.658 27.75)" fill="#fff"/>
      <path id="Trazado_1183282" data-name="Trazado 1183282" d="M63.135,321v3.78a2.7,2.7,0,0,1-2.7,2.7H12.7a2.7,2.7,0,0,1-2.7-2.7V321Z" transform="translate(-8.92 -267.601)" fill="#6d92ac"/>
      <path id="Trazado_1183283" data-name="Trazado 1183283" d="M167.06,386.94h-4.32V381h-9.72v5.94H148.7a2.7,2.7,0,0,0-2.7,2.7v2.16h23.76v-2.16A2.7,2.7,0,0,0,167.06,386.94Z" transform="translate(-130.232 -321.121)" fill="#89a7bc"/>
      <path id="Trazado_1183284" data-name="Trazado 1183284" d="M182.931,34.663l-3.644,4.344a9.989,9.989,0,0,0-12.842,0L162.8,34.663a15.66,15.66,0,0,1,20.131,0Z" transform="translate(-145.218 -8.92)" fill="#ff7b79"/>
      <path id="Trazado_1183285" data-name="Trazado 1183285" d="M324.7,76.916a15.577,15.577,0,0,1-2.1,7.831l-4.911-2.835a9.995,9.995,0,0,0-2.231-12.649L319.1,64.92a15.626,15.626,0,0,1,5.594,12Z" transform="translate(-281.391 -39.177)" fill="#fff"/>
      <path id="Trazado_1183286" data-name="Trazado 1183286" d="M322.6,225.095a15.709,15.709,0,0,1-3.5,4.164l-3.645-4.343a10.043,10.043,0,0,0,2.231-2.657Z" transform="translate(-281.391 -179.524)" fill="#33d6f5"/>
      <path id="Trazado_1183287" data-name="Trazado 1183287" d="M136.726,88.912A15.66,15.66,0,1,1,116.594,64.92l3.645,4.344a9.99,9.99,0,1,0,12.842,15.305Z" transform="translate(-99.012 -39.177)" fill="#ffce69"/>
      <g id="Grupo_1227800" data-name="Grupo 1227800" transform="translate(5.4 26.4)">
        <ellipse id="Elipse_12727" data-name="Elipse 12727" cx="2.5" cy="2" rx="2.5" ry="2" transform="translate(-0.4 18.6)" fill="#33d6f5"/>
        <circle id="Elipse_12728" data-name="Elipse 12728" cx="2.5" cy="2.5" r="2.5" transform="translate(-0.4 -0.4)" fill="#33d6f5"/>
        <circle id="Elipse_12729" data-name="Elipse 12729" cx="2" cy="2" r="2" transform="translate(40.6 18.6)" fill="#33d6f5"/>
      </g>
      <g id="Grupo_1227801" data-name="Grupo 1227801" transform="translate(0 21)">
        <path id="Trazado_1183288" data-name="Trazado 1183288" d="M228.307,119.177a8.956,8.956,0,0,1-2.24-1.019.579.579,0,0,1-.113-.536.866.866,0,0,1,.579-.686,2.4,2.4,0,0,1,1.552.246,1.088,1.088,0,0,0,1.247-.245l.025-.027a1.081,1.081,0,0,0-.313-1.707,5.674,5.674,0,0,0-.94-.379v-.208A1.1,1.1,0,0,0,227.1,113.5a1.08,1.08,0,0,0-1.152,1.078s0,.285,0,.287a3.035,3.035,0,0,0-2.113,2.361,2.674,2.674,0,0,0,.918,2.643,10.44,10.44,0,0,0,2.85,1.348,1,1,0,0,1,.759,1.172,1.39,1.39,0,0,1-1.4,1.16,2.489,2.489,0,0,1-1.782-.456,1.08,1.08,0,0,0-1.525.378,1.106,1.106,0,0,0,.394,1.462,4.275,4.275,0,0,0,1.9.73v.217A1.1,1.1,0,0,0,226.952,127a1.08,1.08,0,0,0,1.152-1.078v-.391a3.587,3.587,0,0,0,2.384-2.785A3.159,3.159,0,0,0,228.307,119.177Z" transform="translate(-199.379 -103.509)"/>
        <circle id="Elipse_12730" data-name="Elipse 12730" cx="1" cy="1" r="1" transform="translate(53 16)"/>
        <path id="Trazado_1183289" data-name="Trazado 1183289" d="M54.188,22.107A3.755,3.755,0,0,0,51.515,21H3.78A3.779,3.779,0,0,0,0,24.78v32.4a3.784,3.784,0,0,0,3.78,3.78H21.708v3.78h-3.24a3.784,3.784,0,0,0-3.78,3.78v2.16a1.08,1.08,0,0,0,1.08,1.08h23.76a1.08,1.08,0,0,0,1.08-1.08v-2.16a3.784,3.784,0,0,0-3.78-3.78h-3.24v-3.78H51.515a3.784,3.784,0,0,0,3.78-3.78V42.6a1.08,1.08,0,0,0-2.16,0v9.72H35.871a16.649,16.649,0,0,0,2.537-1.757h0a16.736,16.736,0,0,0,3.737-4.449h0a16.648,16.648,0,0,0,1.81-4.592h2.7v2.346a3.24,3.24,0,1,0,2.16,0V40.44a1.081,1.081,0,0,0-1.08-1.08H44.308q.078-.806.079-1.62a16.71,16.71,0,0,0-5.979-12.823h0A16.657,16.657,0,0,0,35.87,23.16H51.515a1.627,1.627,0,0,1,1.62,1.62v8.1a1.08,1.08,0,0,0,2.16,0h0v-8.1A3.756,3.756,0,0,0,54.188,22.107ZM47.735,48a1.08,1.08,0,1,1,1.08-1.08A1.081,1.081,0,0,1,47.735,48ZM2.16,24.78a1.626,1.626,0,0,1,1.62-1.62H19.425a16.657,16.657,0,0,0-2.537,1.756h0A16.823,16.823,0,0,0,14.42,27.48H10.614a3.24,3.24,0,1,0,0,2.16H13a16.71,16.71,0,0,0-2.089,8.1c0,.546.027,1.087.079,1.62H7.56a1.08,1.08,0,0,0-1.08,1.08v3.426a3.24,3.24,0,1,0,2.16,0V41.52h2.7a16.8,16.8,0,0,0,8.093,10.8H2.16Zm31.214,6.134h0a8.906,8.906,0,0,1,0,13.651h0A8.91,8.91,0,1,1,21.921,30.914h0a8.909,8.909,0,0,1,11.452,0ZM8.64,28.56a1.08,1.08,0,1,1-1.08-1.08A1.081,1.081,0,0,1,8.64,28.56ZM7.56,45.84a1.08,1.08,0,1,1-1.08,1.08A1.081,1.081,0,0,1,7.56,45.84Zm23.868,18.9h-1.08a1.08,1.08,0,1,0,0,2.16h6.48a1.622,1.622,0,0,1,1.62,1.62V69.6h-21.6v-1.08a1.622,1.622,0,0,1,1.62-1.62h6.48a1.08,1.08,0,1,0,0-2.16h-1.08v-3.78h7.56Zm21.708-10.26v2.7a1.622,1.622,0,0,1-1.62,1.62H3.78a1.622,1.622,0,0,1-1.62-1.62v-2.7ZM13.068,37.74A14.548,14.548,0,0,1,17.475,27.3l2.264,2.7A11.07,11.07,0,0,0,33.9,46.874l2.265,2.7a14.58,14.58,0,0,1-23.1-11.832ZM37.821,48.183l-2.264-2.7a11.046,11.046,0,0,0,1.092-1.3L39.7,45.946a14.547,14.547,0,0,1-1.879,2.237ZM42.227,37.74a14.587,14.587,0,0,1-1.446,6.336L37.73,42.314a11.077,11.077,0,0,0-2.173-12.32l2.264-2.7A14.55,14.55,0,0,1,42.227,37.74ZM36.166,25.907l-2.264,2.7a11.071,11.071,0,0,0-12.508,0l-2.265-2.7a14.582,14.582,0,0,1,17.037,0Z" transform="translate(0 -21)"/>
        <path id="Trazado_1183290" data-name="Trazado 1183290" d="M424.536,101H421.08a1.08,1.08,0,0,0,0,2.16h3.456a1.08,1.08,0,1,0,0-2.16Z" transform="translate(-374.641 -92.36)"/>
        <path id="Trazado_1183291" data-name="Trazado 1183291" d="M405.8,61H400.08a1.08,1.08,0,1,0,0,2.16H405.8a1.08,1.08,0,1,0,0-2.16Z" transform="translate(-355.909 -56.68)"/>
      </g>
    </g>
  </g>
</svg>
