<svg xmlns="http://www.w3.org/2000/svg" xmlns:xlink="http://www.w3.org/1999/xlink" width="103" height="103" viewBox="0 0 103 103">
  <defs>
    <filter id="Trazado_978624" x="0" y="0" width="103" height="103" filterUnits="userSpaceOnUse">
      <feOffset dy="3" input="SourceAlpha"/>
      <feGaussianBlur stdDeviation="3" result="blur"/>
      <feFlood flood-opacity="0.161"/>
      <feComposite operator="in" in2="blur"/>
      <feComposite in="SourceGraphic"/>
    </filter>
  </defs>
  <g id="Grupo_1227952" data-name="Grupo 1227952" transform="translate(-172 -4493)">
    <g id="Grupo_1227012" data-name="Grupo 1227012" transform="translate(1 -1135)">
      <g id="Grupo_1225491" data-name="Grupo 1225491" transform="translate(0 2547)">
        <g id="Grupo_1225104" data-name="Grupo 1225104" transform="translate(0 2068)">
          <g id="Grupo_1220654" data-name="Grupo 1220654" transform="translate(180 1019)">
            <g id="Grupo_1176881" data-name="Grupo 1176881">
              <g id="Grupo_1175148" data-name="Grupo 1175148">
                <g id="Grupo_1173798" data-name="Grupo 1173798">
                  <g id="Grupo_1171925" data-name="Grupo 1171925">
                    <g id="Grupo_1164524" data-name="Grupo 1164524">
                      <g id="Grupo_1144123" data-name="Grupo 1144123">
                        <g transform="matrix(1, 0, 0, 1, -9, -6)" filter="url(#Trazado_978624)">
                          <g id="Trazado_978624-2" data-name="Trazado 978624" transform="translate(9 6)" fill="#f6f3ef">
                            <path d="M 42.5 83.5 C 36.96437835693359 83.5 31.59512901306152 82.41617584228516 26.54141235351562 80.27863311767578 C 21.65934181213379 78.21369171142578 17.27447128295898 75.25723266601562 13.50862312316895 71.49137878417969 C 9.742764472961426 67.72553253173828 6.786305904388428 63.34066009521484 4.721364498138428 58.45858764648438 C 2.583823442459106 53.40486907958984 1.5 48.03562164306641 1.5 42.5 C 1.5 36.96437835693359 2.583823442459106 31.59512901306152 4.721364498138428 26.54141235351562 C 6.786305904388428 21.65934181213379 9.742764472961426 17.27447128295898 13.50862312316895 13.50862312316895 C 17.27447128295898 9.742764472961426 21.65934181213379 6.786305904388428 26.54141235351562 4.721364498138428 C 31.59512901306152 2.583823442459106 36.96437835693359 1.5 42.5 1.5 C 48.03562164306641 1.5 53.40486907958984 2.583823442459106 58.45858764648438 4.721364498138428 C 63.34066009521484 6.786305904388428 67.72553253173828 9.742764472961426 71.49137878417969 13.50862312316895 C 75.25723266601562 17.27447128295898 78.21369171142578 21.65934181213379 80.27863311767578 26.54141235351562 C 82.41617584228516 31.59512901306152 83.5 36.96437835693359 83.5 42.5 C 83.5 48.03562164306641 82.41617584228516 53.40486907958984 80.27863311767578 58.45858764648438 C 78.21369171142578 63.34066009521484 75.25723266601562 67.72553253173828 71.49137878417969 71.49137878417969 C 67.72553253173828 75.25723266601562 63.34066009521484 78.21369171142578 58.45858764648438 80.27863311767578 C 53.40486907958984 82.41617584228516 48.03562164306641 83.5 42.5 83.5 Z" stroke="none"/>
                            <path d="M 42.5 3 C 37.16621398925781 3 31.99356079101562 4.043960571289062 27.125732421875 6.102882385253906 C 22.42246627807617 8.092185974121094 18.19785308837891 10.94070434570312 14.56928253173828 14.56928253173828 C 10.94070434570312 18.19785308837891 8.092185974121094 22.42246627807617 6.102882385253906 27.125732421875 C 4.043960571289062 31.99356079101562 3 37.16621398925781 3 42.5 C 3 47.83378601074219 4.043960571289062 53.00643920898438 6.102882385253906 57.87425231933594 C 8.092185974121094 62.57753372192383 10.94070434570312 66.80213165283203 14.56928253173828 70.43071746826172 C 18.19786834716797 74.05929565429688 22.42246627807617 76.90781402587891 27.125732421875 78.89711761474609 C 31.99356079101562 80.95603942871094 37.16621398925781 82 42.5 82 C 47.83378601074219 82 53.00642395019531 80.95603942871094 57.87425231933594 78.89711761474609 C 62.57753372192383 76.90781402587891 66.80213165283203 74.05929565429688 70.43071746826172 70.43071746826172 C 74.05929565429688 66.80213165283203 76.90781402587891 62.57753372192383 78.89711761474609 57.87425231933594 C 80.95603942871094 53.00642395019531 82 47.83378601074219 82 42.5 C 82 37.16621398925781 80.95603942871094 31.99356079101562 78.89711761474609 27.125732421875 C 76.90781402587891 22.42246627807617 74.05929565429688 18.19786834716797 70.43071746826172 14.56928253173828 C 66.80213165283203 10.94070434570312 62.57753372192383 8.092185974121094 57.87425231933594 6.102882385253906 C 53.00643920898438 4.043960571289062 47.83378601074219 3 42.5 3 M 42.5 0 C 65.97209167480469 0 85 19.02789306640625 85 42.5 C 85 65.97209167480469 65.97209167480469 85 42.5 85 C 19.02789306640625 85 0 65.97209167480469 0 42.5 C 0 19.02789306640625 19.02789306640625 0 42.5 0 Z" stroke="none" fill="#7b776f"/>
                          </g>
                        </g>
                      </g>
                    </g>
                  </g>
                </g>
              </g>
            </g>
          </g>
        </g>
      </g>
    </g>
    <g id="zona-de-libre-comercio" transform="translate(195.451 4513.451)">
      <g id="Grupo_1227950" data-name="Grupo 1227950" transform="translate(2.235 2.059)">
        <path id="Trazado_1183693" data-name="Trazado 1183693" d="M114.965,132.321A17.355,17.355,0,1,0,97.61,114.965,17.388,17.388,0,0,0,114.965,132.321Z" transform="translate(-89.15 -88.974)" fill="#0593fc" fill-rule="evenodd"/>
        <path id="Trazado_1183694" data-name="Trazado 1183694" d="M118.323,279.057a17.408,17.408,0,0,1-7.853-8.5,28.26,28.26,0,0,1,3.169-5.336c1.68-2.176,2.547,2.529,6.46,2.776,7.853.694,5.333,5.252.5,8.341A5.614,5.614,0,0,0,118.323,279.057Z" transform="translate(-100.601 -237.712)" fill="#70da40" fill-rule="evenodd"/>
        <path id="Trazado_1183695" data-name="Trazado 1183695" d="M271.055,191.14a18.246,18.246,0,0,1-1.236-5.5c-.645-5.233-2.162-.117-3.355.325-1.52.57-9.195-7.057-5.67-8.978.576-.313,2.167-.346,2.146-2.3-.019-1.836,6.651-4.371,10.994-6.02a17.358,17.358,0,0,1-2.879,22.48Z" transform="translate(-233.639 -152.239)" fill="#70da40" fill-rule="evenodd"/>
        <path id="Trazado_1183696" data-name="Trazado 1183696" d="M116.835,97.62a17.427,17.427,0,0,1,3.91.443c-2.7,3.5-4.7,5.706-9.173,7.639-5.689,2.456-4.811,6.355-7.555,6.785a9.651,9.651,0,0,1-4.308-.341A17.358,17.358,0,0,1,116.835,97.62Z" transform="translate(-91.02 -88.983)" fill="#70da40" fill-rule="evenodd"/>
        <path id="Trazado_1183697" data-name="Trazado 1183697" d="M321.37,139.123c-1.836-2.174-5.243-6.135-5.212-8.966a5.212,5.212,0,0,1,10.424,0C326.613,132.987,323.2,136.949,321.37,139.123Z" transform="translate(-283.753 -113.363)" fill="#ff4646" fill-rule="evenodd"/>
        <path id="Trazado_1183698" data-name="Trazado 1183698" d="M345.111,156.242a2.291,2.291,0,1,0-2.291-2.291A2.3,2.3,0,0,0,345.111,156.242Z" transform="translate(-307.494 -137.102)" fill="#daeafa" fill-rule="evenodd"/>
        <path id="Trazado_1183699" data-name="Trazado 1183699" d="M138.65,203.03c-1.836-2.171-5.243-6.131-5.212-8.966a5.212,5.212,0,0,1,10.424,0C143.893,196.9,140.483,200.859,138.65,203.03Z" transform="translate(-121.053 -170.271)" fill="#ff4646" fill-rule="evenodd"/>
        <path id="Trazado_1183700" data-name="Trazado 1183700" d="M162.364,220.152a2.291,2.291,0,1,0-2.294-2.291A2.3,2.3,0,0,0,162.364,220.152Z" transform="translate(-144.767 -194.009)" fill="#daeafa" fill-rule="evenodd"/>
        <path id="Trazado_1183701" data-name="Trazado 1183701" d="M383.136,376.48a6.287,6.287,0,1,1-6.286,6.286A6.288,6.288,0,0,1,383.136,376.48Z" transform="translate(-337.795 -337.289)" fill="#ffd400" fill-rule="evenodd"/>
        <path id="Trazado_1183702" data-name="Trazado 1183702" d="M26.7,18.79a6.286,6.286,0,1,1-6.286,6.286A6.286,6.286,0,0,1,26.7,18.79Z" transform="translate(-20.409 -18.79)" fill="#ffd400" fill-rule="evenodd"/>
        <path id="Trazado_1183703" data-name="Trazado 1183703" d="M67.038,409.156a2.348,2.348,0,1,0-2.348-2.348A2.353,2.353,0,0,0,67.038,409.156Z" transform="translate(-59.837 -362.203)" fill="#0593fc" fill-rule="evenodd"/>
        <path id="Trazado_1183704" data-name="Trazado 1183704" d="M406.8,69.389a2.35,2.35,0,1,0-2.348-2.348A2.353,2.353,0,0,0,406.8,69.389Z" transform="translate(-362.371 -59.661)" fill="#0593fc" fill-rule="evenodd"/>
        <path id="Trazado_1183705" data-name="Trazado 1183705" d="M27.551,31.3a6.286,6.286,0,0,1,0-12.453,6.284,6.284,0,1,0,0,12.453Z" transform="translate(-20.4 -18.79)" fill="#e6bf00" fill-rule="evenodd"/>
        <path id="Trazado_1183706" data-name="Trazado 1183706" d="M111.477,300.34q-.534.981-1.007,2a17.408,17.408,0,0,0,7.853,8.5c.127-.265.262-.525.406-.771A17.4,17.4,0,0,1,111.477,300.34Z" transform="translate(-100.601 -269.491)" fill="#65c43a" fill-rule="evenodd"/>
        <path id="Trazado_1183707" data-name="Trazado 1183707" d="M99.71,112.156a11,11,0,0,0,1.67.365A17.362,17.362,0,0,1,117.7,97.651c-.286-.015-.573-.021-.862-.021A17.356,17.356,0,0,0,99.71,112.156Z" transform="translate(-91.02 -88.992)" fill="#65c43a" fill-rule="evenodd"/>
        <path id="Trazado_1183708" data-name="Trazado 1183708" d="M99.513,230.566a17.414,17.414,0,0,0,.515,7.319c-.358.651-.694,1.32-1.01,2a17.26,17.26,0,0,1-1.408-6.856,17.589,17.589,0,0,1,.229-2.828A11,11,0,0,0,99.513,230.566Zm7.765,17.044a17.265,17.265,0,0,0,8.549,2.752c-.286.012-.573.021-.862.021a17.241,17.241,0,0,1-8.094-2C107,248.116,107.134,247.857,107.278,247.61Z" transform="translate(-89.15 -207.036)" fill="#0584e3" fill-rule="evenodd"/>
        <path id="Trazado_1183709" data-name="Trazado 1183709" d="M384,388.994a6.286,6.286,0,0,1,0-12.453,6.285,6.285,0,0,0-5.053,10.913,6.172,6.172,0,0,0,1.4.947,6.276,6.276,0,0,0,3.657.594Z" transform="translate(-337.795 -337.289)" fill="#e6bf00" fill-rule="evenodd"/>
      </g>
      <g id="Grupo_1227951" data-name="Grupo 1227951" transform="translate(0 0)">
        <path id="Trazado_1183710" data-name="Trazado 1183710" d="M40.694,41.94A18.777,18.777,0,0,0,45.7,21.6a7.272,7.272,0,0,0,.787-3.053,6.24,6.24,0,0,0-6.254-6.191,6.358,6.358,0,0,0-1.559.194A18.793,18.793,0,0,0,9.518,24.938a.9.9,0,0,0-.02.117A18.811,18.811,0,0,0,10.758,35.4a.807.807,0,0,0,.065.148,18.918,18.918,0,0,0,8.383,9.077.79.79,0,0,0,.111.065l.051.021A18.758,18.758,0,0,0,40.51,42.105a.881.881,0,0,0,.184-.165Zm4.4-13.891a16.984,16.984,0,0,1-4.683,11.721,16.66,16.66,0,0,1-.768-4l-.022-.181c-.213-1.726-.55-2.923-1.508-3.152-1-.241-1.674.753-2.322,1.715a7.5,7.5,0,0,1-.769,1.022,8.818,8.818,0,0,1-2.906-2.207,10.138,10.138,0,0,1-2.692-4.139c-.186-.832.1-1.115.432-1.3a2.931,2.931,0,0,1,.318-.115,2.937,2.937,0,0,0,2.353-3.027c0-.027.127-.645,2.652-1.971a37.163,37.163,0,0,0,4.253,5.8l.135.16a.877.877,0,0,0,1.339,0l.153-.182a46.126,46.126,0,0,0,3.47-4.5,17.046,17.046,0,0,1,.564,4.357Zm-1.67-12.628a4.474,4.474,0,0,1,1.315,3.142,5.92,5.92,0,0,1-.744,2.562.735.735,0,0,0-.046.093,30.845,30.845,0,0,1-3.714,5.233,29.125,29.125,0,0,1-3.855-5.518c-.01-.025-.02-.05-.032-.076s-.012-.022-.018-.032a5.476,5.476,0,0,1-.6-2.263,4.48,4.48,0,0,1,3.008-4.2.871.871,0,0,0,.1-.034,4.555,4.555,0,0,1,1.394-.218A4.474,4.474,0,0,1,43.421,15.422ZM28.049,11.01a17.284,17.284,0,0,1,2.459.175,19.2,19.2,0,0,1-8.239,6.487A12.439,12.439,0,0,0,19.105,19.6a6.224,6.224,0,0,0-5.692,5.113,9.2,9.2,0,0,1-2.026-.226A17.065,17.065,0,0,1,28.049,11.01ZM19.566,33.678c-1.824-2.178-4.527-5.593-4.5-7.888a4.482,4.482,0,0,1,4.383-4.453h.015l.105,0a4.489,4.489,0,0,1,4.5,4.457c.025,2.292-2.685,5.714-4.5,7.886ZM11.01,28.049a17.075,17.075,0,0,1,.1-1.828,10.882,10.882,0,0,0,2.249.247,8.586,8.586,0,0,0,.841,2.574c-.011.014-.023.027-.034.043a27.128,27.128,0,0,0-2.448,3.824,16.949,16.949,0,0,1-.708-4.859Zm1.544,7.085a28.479,28.479,0,0,1,2.585-4.425,44.25,44.25,0,0,0,3.623,4.733l.136.161a.877.877,0,0,0,1.339,0l.153-.182c.493-.584,1.065-1.262,1.65-2,2.2.272,3.569.909,3.778,1.775.3,1.244-1.431,3.356-4.213,5.145a5.9,5.9,0,0,0-2.266,2.35,17.145,17.145,0,0,1-6.785-7.556Zm8.337,8.379a4.071,4.071,0,0,1,1.566-1.64c.022-.011.043-.024.064-.037,3.637-2.328,5.506-4.964,5-7.051-.362-1.493-1.8-2.483-4.284-2.951,1.406-1.979,2.6-4.174,2.585-6.059a6.246,6.246,0,0,0-4.164-5.837,12.513,12.513,0,0,1,1.306-.656c4.7-2.029,6.884-4.393,9.465-7.7A16.832,16.832,0,0,1,36.757,13.4a6.35,6.35,0,0,0-.955.783,6.224,6.224,0,0,0-1.824,4.361,6.388,6.388,0,0,0,.46,2.28c-2.57,1.337-3.676,2.423-3.665,3.572.01.929-.388,1.1-1.149,1.353a3.642,3.642,0,0,0-.608.241c-.7.381-2.187,1.573-.891,4.413a15.331,15.331,0,0,0,3.486,4.516c1.76,1.612,3.1,2.261,3.981,1.932a4.194,4.194,0,0,0,1.648-1.721c.116-.172.271-.4.417-.6a10.365,10.365,0,0,1,.221,1.274l.022.181A18.185,18.185,0,0,0,39,41.094a17,17,0,0,1-18.111,2.418Zm16.1-24.9a3.242,3.242,0,1,0,3.242-3.242A3.245,3.245,0,0,0,36.991,18.613Zm4.733,0a1.491,1.491,0,1,1-1.491-1.491A1.491,1.491,0,0,1,41.724,18.613ZM19.567,22.6a3.241,3.241,0,1,0,3.24,3.242A3.246,3.246,0,0,0,19.567,22.6Zm0,4.73a1.49,1.49,0,1,1,1.488-1.488A1.491,1.491,0,0,1,19.567,27.328ZM52.316,42.123a28.054,28.054,0,0,0-2.284-31.492,3.3,3.3,0,0,0-4.562-4.562A28.042,28.042,0,0,0,14.207,3.653,7.362,7.362,0,1,0,3.784,13.98,28.046,28.046,0,0,0,6.067,45.47a3.3,3.3,0,0,0,4.562,4.56,28.059,28.059,0,0,0,31.265,2.418A7.361,7.361,0,1,0,52.316,42.123Zm-3.5-33.286a1.549,1.549,0,1,1-1.547-1.549A1.549,1.549,0,0,1,48.812,8.837ZM2.957,8.386A5.614,5.614,0,1,1,8.569,14,5.619,5.619,0,0,1,2.957,8.386ZM7.286,47.265a1.548,1.548,0,1,1,1.549,1.547A1.551,1.551,0,0,1,7.286,47.265Zm20.763,7.081A26.325,26.325,0,0,1,11.8,48.719,3.3,3.3,0,0,0,7.378,44.3,26.294,26.294,0,0,1,5.244,14.956a7.362,7.362,0,0,0,9.928-9.835A26.288,26.288,0,0,1,44.3,7.38,3.3,3.3,0,0,0,48.721,11.8a26.306,26.306,0,0,1,2.137,29.349,7.36,7.36,0,0,0-9.926,9.834,26.265,26.265,0,0,1-12.883,3.366Zm19.48-1.019a5.614,5.614,0,1,1,5.612-5.615A5.62,5.62,0,0,1,47.529,53.327ZM49.713,49a2.165,2.165,0,0,1-1.307,1.986v.453a.875.875,0,1,1-1.751,0v-.363a2.162,2.162,0,0,1-1.137-.792.876.876,0,0,1,1.411-1.039.408.408,0,0,0,.329.164h.3a.41.41,0,0,0,0-.82h-.15a.909.909,0,0,1-.2-.023,2.157,2.157,0,0,1-.553-4.12v-.453a.875.875,0,0,1,1.751,0v.363a2.171,2.171,0,0,1,1.137.792.876.876,0,0,1-1.411,1.039.4.4,0,0,0-.325-.164h-.3a.408.408,0,1,0,0,.816h.15a.857.857,0,0,1,.2.024A2.158,2.158,0,0,1,49.713,49ZM6.386,7.1A2.16,2.16,0,0,1,7.693,5.118V4.665a.875.875,0,1,1,1.751,0v.363a2.178,2.178,0,0,1,1.137.788.876.876,0,1,1-1.4,1.047.411.411,0,0,0-.332-.169h-.3a.408.408,0,1,0,0,.816H8.7a.909.909,0,0,1,.2.023,2.159,2.159,0,0,1,.55,4.124v.451a.875.875,0,0,1-1.751,0v-.363a2.162,2.162,0,0,1-1.137-.792A.876.876,0,0,1,7.968,9.916a.408.408,0,0,0,.329.164h.3a.41.41,0,1,0,0-.82h-.15a.909.909,0,0,1-.2-.023A2.163,2.163,0,0,1,6.386,7.1Z" transform="translate(0 0)"/>
      </g>
    </g>
  </g>
</svg>
