<svg xmlns="http://www.w3.org/2000/svg" xmlns:xlink="http://www.w3.org/1999/xlink" width="108" height="108" viewBox="0 0 108 108">
  <defs>
    <filter id="Trazado_904820" x="0" y="0" width="108" height="108" filterUnits="userSpaceOnUse">
      <feOffset dy="3" input="SourceAlpha"/>
      <feGaussianBlur stdDeviation="3" result="blur"/>
      <feFlood flood-opacity="0.161"/>
      <feComposite operator="in" in2="blur"/>
      <feComposite in="SourceGraphic"/>
    </filter>
  </defs>
  <g id="Grupo_1227920" data-name="Grupo 1227920" transform="translate(-199.058 -451.282)">
    <g id="Grupo_1226986" data-name="Grupo 1226986" transform="translate(0 -43.718)">
      <g id="Grupo_1225440" data-name="Grupo 1225440" transform="translate(208.058 501)">
        <g id="Grupo_1225100" data-name="Grupo 1225100" transform="translate(0 0)">
          <g id="Grupo_1219746" data-name="Grupo 1219746" transform="translate(0 0)">
            <g id="Grupo_1202418" data-name="Grupo 1202418">
              <g id="Grupo_1177315" data-name="Grupo 1177315">
                <g id="Grupo_1173585" data-name="Grupo 1173585">
                  <g id="Grupo_1173428" data-name="Grupo 1173428">
                    <g id="Grupo_1171958" data-name="Grupo 1171958">
                      <g id="Grupo_1167341" data-name="Grupo 1167341">
                        <g id="Grupo_1166792" data-name="Grupo 1166792">
                          <g transform="matrix(1, 0, 0, 1, -9, -6)" filter="url(#Trazado_904820)">
                            <g id="Trazado_904820-2" data-name="Trazado 904820" transform="translate(9 6)" fill="#e9f9fd">
                              <path d="M 44.99999618530273 88.49996948242188 C 39.12687301635742 88.49996948242188 33.43022155761719 87.35004425048828 28.06829643249512 85.08214569091797 C 22.88852119445801 82.89128112792969 18.23629570007324 79.75457000732422 14.24084663391113 75.75911712646484 C 10.24540901184082 71.763671875 7.108683586120605 67.11144256591797 4.917821407318115 61.93168258666992 C 2.649921178817749 56.56974411010742 1.499996185302734 50.87310409545898 1.499996185302734 44.99998092651367 C 1.499996185302734 39.12685775756836 2.649921178817749 33.43020629882812 4.917821407318115 28.06828117370605 C 7.108683586120605 22.88851928710938 10.24540901184082 18.23629379272461 14.24084663391113 14.24084377288818 C 18.23629570007324 10.24540615081787 22.88852119445801 7.108693599700928 28.06829643249512 4.917830944061279 C 33.43022155761719 2.649930953979492 39.12687301635742 1.500005960464478 44.99999618530273 1.500005960464478 C 50.87311935424805 1.500005960464478 56.56977081298828 2.649930953979492 61.93169784545898 4.917830944061279 C 67.11147308349609 7.108693599700928 71.76369476318359 10.24540615081787 75.75914764404297 14.24084377288818 C 79.75458526611328 18.23629379272461 82.89131164550781 22.88851928710938 85.08216857910156 28.06828117370605 C 87.35007476806641 33.43020629882812 88.5 39.12685775756836 88.5 44.99998092651367 C 88.5 50.87310409545898 87.35007476806641 56.56974411010742 85.08216857910156 61.93168258666992 C 82.89131164550781 67.11144256591797 79.75458526611328 71.763671875 75.75914764404297 75.75911712646484 C 71.76369476318359 79.75457000732422 67.11147308349609 82.89128112792969 61.93169784545898 85.08214569091797 C 56.56977081298828 87.35004425048828 50.87311935424805 88.49996948242188 44.99999618530273 88.49996948242188 Z" stroke="none"/>
                              <path d="M 44.99999618530273 2.999992370605469 C 39.32870864868164 2.999992370605469 33.82865142822266 4.110054016113281 28.65262603759766 6.299324035644531 C 23.65165710449219 8.414566040039062 19.15968322753906 11.44332122802734 15.301513671875 15.30150604248047 C 11.44333648681641 19.15968322753906 8.414566040039062 23.65164184570312 6.299339294433594 28.65261077880859 C 4.110054016113281 33.82863616943359 2.999992370605469 39.32869338989258 2.999992370605469 44.99998092651367 C 2.999992370605469 50.67126846313477 4.110054016113281 56.17131042480469 6.299339294433594 61.34735107421875 C 8.414566040039062 66.34832763671875 11.44333648681641 70.84027862548828 15.301513671875 74.69845581054688 C 19.15968322753906 78.55662536621094 23.65165710449219 81.58539581298828 28.65262603759766 83.70062255859375 C 33.82865142822266 85.88990783691406 39.32870864868164 86.99996948242188 44.99999618530273 86.99996948242188 C 50.67128372192383 86.99996948242188 56.17134094238281 85.88990783691406 61.34736633300781 83.70062255859375 C 66.34834289550781 81.58539581298828 70.84030914306641 78.55662536621094 74.69847869873047 74.69845581054688 C 78.55665588378906 70.84027862548828 81.58542633056641 66.34832763671875 83.70065307617188 61.34735107421875 C 85.88993835449219 56.17131042480469 87 50.67126846313477 87 44.99998092651367 C 87 39.32869338989258 85.88993835449219 33.82863616943359 83.70065307617188 28.65261077880859 C 81.58542633056641 23.65164184570312 78.55665588378906 19.15968322753906 74.69847869873047 15.30150604248047 C 70.84030914306641 11.44332122802734 66.34834289550781 8.414566040039062 61.34736633300781 6.299324035644531 C 56.17134094238281 4.110054016113281 50.67128372192383 2.999992370605469 44.99999618530273 2.999992370605469 M 44.99999618530273 -7.62939453125e-06 C 69.85281372070312 -7.62939453125e-06 90 20.14716339111328 90 44.99998092651367 C 90 69.852783203125 69.85281372070312 89.99996948242188 44.99999618530273 89.99996948242188 C 20.14717864990234 89.99996948242188 -7.62939453125e-06 69.852783203125 -7.62939453125e-06 44.99998092651367 C -7.62939453125e-06 20.14716339111328 20.14717864990234 -7.62939453125e-06 44.99999618530273 -7.62939453125e-06 Z" stroke="none" fill="#1d7083"/>
                            </g>
                          </g>
                        </g>
                      </g>
                    </g>
                  </g>
                </g>
              </g>
            </g>
          </g>
        </g>
      </g>
    </g>
    <g id="divisa" transform="translate(219.312 461.251)">
      <g id="Grupo_1227918" data-name="Grupo 1227918" transform="translate(0.989 9.379)">
        <g id="Grupo_1227915" data-name="Grupo 1227915">
          <path id="Trazado_1183597" data-name="Trazado 1183597" d="M64.3,76.181a12.034,12.034,0,0,1,6.277,1.755,6.129,6.129,0,1,0-11.21-.706A12.048,12.048,0,0,1,64.3,76.181Z" transform="translate(-52.211 -61.999)" fill="#ffc344"/>
          <path id="Trazado_1183598" data-name="Trazado 1183598" d="M86.006,97.885a12.1,12.1,0,0,1,3.235.438,2.834,2.834,0,1,0-4.982-.312A12.179,12.179,0,0,1,86.006,97.885Z" transform="translate(-73.915 -83.703)" fill="#fff6ce"/>
          <g id="Grupo_1227896" data-name="Grupo 1227896" transform="translate(42.867)">
            <path id="Trazado_1183599" data-name="Trazado 1183599" d="M343.476,15.89A10.794,10.794,0,0,0,333.111,29.7a23.722,23.722,0,0,1,8.418,7.6,10.794,10.794,0,1,0,1.947-21.411Z" transform="translate(-332.681 -15.89)" fill="#fff0ad"/>
            <path id="Trazado_1183600" data-name="Trazado 1183600" d="M339.009,26.684a10.8,10.8,0,0,1,7.631-10.323A10.8,10.8,0,0,0,333.111,29.7a23.722,23.722,0,0,1,8.418,7.6,10.788,10.788,0,0,0,5.11-.294A10.8,10.8,0,0,1,339.009,26.684Z" transform="translate(-332.681 -15.889)" fill="#ffe177"/>
          </g>
          <g id="Grupo_1227903" data-name="Grupo 1227903" transform="translate(8.766 11.016)">
            <path id="Trazado_1183601" data-name="Trazado 1183601" d="M106.565,131.336a12.1,12.1,0,0,1,14.143-11.917,23.613,23.613,0,0,0-36.8-15.748,6.106,6.106,0,0,1-.31.7A12.095,12.095,0,0,1,74,126.337a23.61,23.61,0,0,0,38.119,15.169A12.081,12.081,0,0,1,106.565,131.336Z" transform="translate(-73.996 -99.452)" fill="#60b7ff"/>
            <g id="Grupo_1227897" data-name="Grupo 1227897" transform="translate(23.383 0)">
              <path id="Trazado_1183602" data-name="Trazado 1183602" d="M262.435,390.41c-2.6,5.4-6.587,8.864-11.063,8.864a23.566,23.566,0,0,0,7.909-1.359,15.48,15.48,0,0,0,5.052-5.2,12.146,12.146,0,0,1-1.9-2.3Z" transform="translate(-251.372 -352.055)" fill="#26a6fe"/>
              <path id="Trazado_1183603" data-name="Trazado 1183603" d="M265.509,121.579a12.058,12.058,0,0,1,3.07-1.63c-.7-8.889-4.372-16.219-9.3-19.137a23.567,23.567,0,0,0-7.909-1.359C258.9,99.452,265.05,109.231,265.509,121.579Z" transform="translate(-251.372 -99.452)" fill="#26a6fe"/>
            </g>
            <g id="Grupo_1227898" data-name="Grupo 1227898" transform="translate(0 0)">
              <path id="Trazado_1183604" data-name="Trazado 1183604" d="M78.276,303.826q-.473.037-.956.038A12.1,12.1,0,0,1,74,303.4a23.614,23.614,0,0,0,23.383,20.334c.711,0,1.414-.033,2.109-.095A23.619,23.619,0,0,1,78.276,303.826Z" transform="translate(-73.995 -276.515)" fill="#26a6fe"/>
              <path id="Trazado_1183605" data-name="Trazado 1183605" d="M147.146,103.672a6.106,6.106,0,0,1-.31.7,12.122,12.122,0,0,1,1.9,1.426,23.525,23.525,0,0,1,13.994-6.253c-.695-.062-1.4-.095-2.109-.095A23.5,23.5,0,0,0,147.146,103.672Z" transform="translate(-137.234 -99.453)" fill="#26a6fe"/>
            </g>
            <path id="Trazado_1183606" data-name="Trazado 1183606" d="M167.663,131.336a12.073,12.073,0,0,1,4.951-9.757c-.459-12.348-6.613-22.127-14.137-22.127-4.179,0-7.935,3.017-10.528,7.815a12.093,12.093,0,0,1-3.577,17.969c.659,12.02,6.722,21.436,14.105,21.436,4.476,0,8.467-3.461,11.063-8.864a12.032,12.032,0,0,1-1.876-6.471Z" transform="translate(-135.094 -99.452)" fill="#00f2a6"/>
            <g id="Grupo_1227899" data-name="Grupo 1227899" transform="translate(23.383 0)">
              <path id="Trazado_1183607" data-name="Trazado 1183607" d="M251.372,146.673a9.243,9.243,0,0,0,4.746-1.359c1.83-3.253,3.14-11.986,3.14-22.251s-1.31-19-3.14-22.251a9.243,9.243,0,0,0-4.746-1.359c2.608,0,4.722,10.57,4.722,23.61S253.98,146.673,251.372,146.673Z" transform="translate(-251.372 -99.453)" fill="#05e39c"/>
            </g>
            <g id="Grupo_1227900" data-name="Grupo 1227900" transform="translate(9.277 0)">
              <path id="Trazado_1183608" data-name="Trazado 1183608" d="M148.527,266.823q0-.9.04-1.781a12.15,12.15,0,0,1-4.2,3.955c.659,12.02,6.722,21.436,14.105,21.436a8.712,8.712,0,0,0,2.109-.261C153.761,288.474,148.527,278.668,148.527,266.823Z" transform="translate(-144.369 -243.213)" fill="#05e39c"/>
              <path id="Trazado_1183609" data-name="Trazado 1183609" d="M171.506,107.267a12.044,12.044,0,0,1,2.245,4.684c2.069-6.452,5.883-11.116,10.392-12.238a8.711,8.711,0,0,0-2.109-.261C177.855,99.452,174.1,102.469,171.506,107.267Z" transform="translate(-167.929 -99.452)" fill="#05e39c"/>
            </g>
            <g id="Grupo_1227901" data-name="Grupo 1227901" transform="translate(18.661 0)">
              <ellipse id="Elipse_12740" data-name="Elipse 12740" cx="4.722" cy="23.61" rx="4.722" ry="23.61" fill="#60b7ff"/>
            </g>
            <g id="Grupo_1227902" data-name="Grupo 1227902" transform="translate(18.661 0)">
              <path id="Trazado_1183610" data-name="Trazado 1183610" d="M219.77,123.063c0-9.249,1.064-17.254,2.613-21.128-.635-1.588-1.351-2.482-2.109-2.482-2.608,0-4.722,10.57-4.722,23.61s2.114,23.61,4.722,23.61c.758,0,1.474-.895,2.109-2.482-1.549-3.874-2.613-11.879-2.613-21.128Z" transform="translate(-215.552 -99.453)" fill="#26a6fe"/>
            </g>
          </g>
          <g id="Grupo_1227908" data-name="Grupo 1227908" transform="translate(41.335 30.809)">
            <g id="Grupo_1227907" data-name="Grupo 1227907">
              <g id="Grupo_1227906" data-name="Grupo 1227906">
                <g id="Grupo_1227904" data-name="Grupo 1227904">
                  <circle id="Elipse_12741" data-name="Elipse 12741" cx="12.091" cy="12.091" r="12.091" fill="#ffe177"/>
                </g>
                <g id="Grupo_1227905" data-name="Grupo 1227905" transform="translate(0 0)">
                  <path id="Trazado_1183611" data-name="Trazado 1183611" d="M326.334,261.694a12.1,12.1,0,0,1,9.454-11.8,12.091,12.091,0,1,0,0,23.6A12.1,12.1,0,0,1,326.334,261.694Z" transform="translate(-321.061 -249.603)" fill="#ffd15b"/>
                </g>
              </g>
            </g>
          </g>
          <g id="Grupo_1227914" data-name="Grupo 1227914" transform="translate(0 14.182)">
            <g id="Grupo_1227912" data-name="Grupo 1227912">
              <g id="Grupo_1227911" data-name="Grupo 1227911">
                <g id="Grupo_1227910" data-name="Grupo 1227910">
                  <g id="Grupo_1227909" data-name="Grupo 1227909">
                    <circle id="Elipse_12742" data-name="Elipse 12742" cx="12.091" cy="12.091" r="12.091" fill="#ffe177"/>
                  </g>
                </g>
              </g>
            </g>
            <g id="Grupo_1227913" data-name="Grupo 1227913" transform="translate(0 0)">
              <path id="Trazado_1183612" data-name="Trazado 1183612" d="M12.773,135.566a12.1,12.1,0,0,1,9.454-11.8,12.091,12.091,0,1,0,0,23.6A12.1,12.1,0,0,1,12.773,135.566Z" transform="translate(-7.5 -123.475)" fill="#ffd15b"/>
            </g>
          </g>
        </g>
        <g id="Grupo_1227916" data-name="Grupo 1227916" transform="translate(23.663 40.353)">
          <circle id="Elipse_12743" data-name="Elipse 12743" cx="4.218" cy="4.218" r="4.218" fill="#ffe177"/>
        </g>
        <g id="Grupo_1227917" data-name="Grupo 1227917" transform="translate(23.663 40.353)">
          <path id="Trazado_1183613" data-name="Trazado 1183613" d="M190.427,326.218a4.218,4.218,0,0,1,2.5-3.854,4.218,4.218,0,1,0,0,7.709A4.218,4.218,0,0,1,190.427,326.218Z" transform="translate(-187 -322)" fill="#ffd15b"/>
        </g>
      </g>
      <g id="Grupo_1227919" data-name="Grupo 1227919" transform="translate(0 8.39)">
        <path id="Trazado_1183614" data-name="Trazado 1183614" d="M384.7,42.546a.989.989,0,0,0-1.36.326l-3.431,5.592-3.431-5.592a.989.989,0,0,0-1.685,1.034l3.064,4.994h-1.741a.989.989,0,0,0,0,1.977h2.8v1.231h-2.8a.989.989,0,0,0,0,1.977h2.8v2.62a.989.989,0,0,0,1.977,0v-2.62h2.8a.989.989,0,1,0,0-1.977h-2.8V50.877h2.8a.989.989,0,1,0,0-1.977h-1.741l3.064-4.994a.989.989,0,0,0-.325-1.36Z" transform="translate(-325.259 -37.917)"/>
        <path id="Trazado_1183615" data-name="Trazado 1183615" d="M379.423,282.518h3.128a1.288,1.288,0,0,1,1.286,1.286.989.989,0,0,0,1.977,0,3.267,3.267,0,0,0-3.264-3.264h-.575v-1.1a.989.989,0,0,0-1.977,0v1.1h-.575a3.267,3.267,0,0,0-3.264,3.264v.664a3.267,3.267,0,0,0,3.264,3.264h3.128a1.288,1.288,0,0,1,1.286,1.286v.663a1.288,1.288,0,0,1-1.286,1.286h-3.128a1.288,1.288,0,0,1-1.286-1.286.989.989,0,1,0-1.977,0,3.267,3.267,0,0,0,3.264,3.264H380v1.1a.989.989,0,0,0,1.977,0v-1.1h.575a3.267,3.267,0,0,0,3.264-3.264v-.663a3.267,3.267,0,0,0-3.264-3.264h-3.128a1.288,1.288,0,0,1-1.286-1.286V283.8A1.288,1.288,0,0,1,379.423,282.518Z" transform="translate(-326.572 -242.854)"/>
        <path id="Trazado_1183616" data-name="Trazado 1183616" d="M116.4,444.889a27.625,27.625,0,0,1-7.6-4.362.989.989,0,0,0-1.243,1.538,29.6,29.6,0,0,0,8.141,4.674.989.989,0,0,0,.7-1.849Z" transform="translate(-93.062 -383.37)"/>
        <path id="Trazado_1183617" data-name="Trazado 1183617" d="M62.746,42.205a29.561,29.561,0,0,0-3.032-11.4,11.756,11.756,0,0,0,6.44-8.086.989.989,0,1,0-1.931-.426,9.8,9.8,0,0,1-10.96,7.583,24.783,24.783,0,0,0-8.129-7.344,9.806,9.806,0,1,1,19.1-4.432.989.989,0,0,0,1.933-.415,11.784,11.784,0,0,0-22.618-1.471,29.555,29.555,0,0,0-8.147-1.8.989.989,0,0,0-.149,1.972,27.588,27.588,0,0,1,7.789,1.744,11.812,11.812,0,0,0-.108,3.306A24.561,24.561,0,0,0,21.024,22.6c0-.031,0-.061,0-.092a7.076,7.076,0,0,0-.693-3.061A27.544,27.544,0,0,1,30.8,16.413a.989.989,0,1,0-.165-1.971,29.523,29.523,0,0,0-11.4,3.35,7.107,7.107,0,0,0-7.949-1.9.989.989,0,1,0,.73,1.838,5.136,5.136,0,0,1,6.837,6.186,12.98,12.98,0,0,0-1.223-.528,3.823,3.823,0,1,0-7.52-.475,12.965,12.965,0,0,0-1.281.37,5.116,5.116,0,0,1,.39-2.875.989.989,0,0,0-1.8-.81,7.1,7.1,0,0,0-.444,4.493A13.067,13.067,0,0,0,3.475,44.52,29.612,29.612,0,0,0,11.038,63.8a.989.989,0,1,0,1.472-1.32A27.629,27.629,0,0,1,5.547,46.336a13.048,13.048,0,0,0,3.324,1.7,24.585,24.585,0,0,0,39.067,15.6,13,13,0,0,0,3.277,1.321,27.57,27.57,0,0,1-18.078,6.734,27.893,27.893,0,0,1-5.517-.551.989.989,0,1,0-.392,1.938,29.868,29.868,0,0,0,5.909.59A29.464,29.464,0,0,0,53.749,65.34c.22.011.442.018.665.018a13.019,13.019,0,0,0,7.248-2.191.989.989,0,0,0-1.1-1.645,11.1,11.1,0,1,1,3.016-2.978.989.989,0,1,0,1.631,1.117,13.068,13.068,0,0,0-2.466-17.456ZM42.306,27.818a24.7,24.7,0,0,1,1.865,3.865H38.163c-.2-1.641-.439-3.174-.717-4.567A24.024,24.024,0,0,0,35.9,21.889C38.285,22.775,40.5,24.8,42.306,27.818ZM29.5,48.783c-.051-1.239-.083-2.5-.094-3.79h7.458c-.027,3.292-.19,6.467-.475,9.355H34.06c.01-.132.017-.264.017-.4A5.214,5.214,0,0,0,29.5,48.783Zm-5.823,5.565H21.426a34.733,34.733,0,0,1-1.371-7.637,13.169,13.169,0,0,0,2.17-1.719h5.206c.011,1.332.045,2.643.1,3.926a5.216,5.216,0,0,0-3.867,5.031C23.663,54.084,23.669,54.217,23.679,54.348ZM26.007,33.66H27.9c-.28,2.9-.44,6.07-.466,9.355H23.884a13.069,13.069,0,0,0,2.124-9.355ZM28.87,50.72a3.23,3.23,0,1,1-3.23,3.23A3.233,3.233,0,0,1,28.87,50.72Zm.539-7.7c.027-3.292.19-6.467.475-9.355h6.507c.285,2.888.448,6.063.475,9.355Zm3.726-21.632h0c.028.007,1.274.479,2.416,6.348.237,1.216.444,2.541.619,3.952H30.1c.176-1.411.383-2.736.619-3.952,1.141-5.863,2.386-6.339,2.411-6.348Zm-2.757.506a24.029,24.029,0,0,0-1.548,5.227c-.279,1.393-.518,2.926-.717,4.567H25.543a13.042,13.042,0,0,0-1.762-3.541c.062-.108.123-.218.187-.324,1.809-3.014,4.022-5.044,6.409-5.929Zm-4.879.823a18.9,18.9,0,0,0-3.057,3.816,13.21,13.21,0,0,0-1.677-1.45A22.581,22.581,0,0,1,25.5,22.712Zm-11.59-2.048a1.841,1.841,0,0,1,1.815,2.176,13.088,13.088,0,0,0-2.643-.268q-.512,0-1.014.039c0-.034,0-.067,0-.1A1.848,1.848,0,0,1,13.908,20.664ZM1.977,35.652a11.1,11.1,0,1,1,11.1,11.1A11.115,11.115,0,0,1,1.977,35.652Zm9,12.91a13.086,13.086,0,0,0,7.174-.855,36.679,36.679,0,0,0,1.214,6.641H13.025A22.462,22.462,0,0,1,10.979,48.562Zm3.2,7.764H20a27.123,27.123,0,0,0,2.275,4.882A19.1,19.1,0,0,0,25.5,65.3,22.74,22.74,0,0,1,14.175,56.325Zm9.793,3.865A24.7,24.7,0,0,1,22.1,56.325h2.135a5.213,5.213,0,0,0,4.274,2.818c.1.6.2,1.189.317,1.749a24.024,24.024,0,0,0,1.548,5.227c-2.387-.886-4.6-2.915-6.409-5.929Zm9.172,6.435h0c-.027-.007-1.274-.479-2.416-6.348-.086-.444-.168-.9-.247-1.375A5.232,5.232,0,0,0,33.5,56.325h2.67c-.176,1.411-.383,2.736-.619,3.952-1.141,5.864-2.387,6.339-2.411,6.348Zm2.757-.506a24.029,24.029,0,0,0,1.548-5.227c.279-1.393.518-2.926.717-4.567h3.814a13.015,13.015,0,0,0,1.1,2.467c-.244.48-.5.948-.769,1.4C40.5,63.2,38.285,65.234,35.9,66.119ZM44,61.207c.117-.194.229-.394.341-.594a13.193,13.193,0,0,0,1.866,1.841,22.584,22.584,0,0,1-5.429,2.84A19.109,19.109,0,0,0,44,61.207Zm-2.667-8.929a13.113,13.113,0,0,0,.164,2.07H38.377c.28-2.9.44-6.07.466-9.355h4.714a13,13,0,0,0-2.222,7.286Zm3.855-9.263H38.843c-.027-3.286-.186-6.456-.466-9.355h6.471a35.075,35.075,0,0,1,1.416,8.4A13.178,13.178,0,0,0,45.19,43.015Zm1.087-11.333A27.117,27.117,0,0,0,44,26.8a19.109,19.109,0,0,0-3.223-4.088A22.738,22.738,0,0,1,52.1,31.683ZM54.415,39.2a13,13,0,0,0-6.251,1.593,36.9,36.9,0,0,0-1.257-7.132H53.25a22.459,22.459,0,0,1,2,5.566C54.973,39.209,54.695,39.2,54.415,39.2Zm2.91.327a24.431,24.431,0,0,0-2.75-7.57h.076a11.771,11.771,0,0,0,3.2-.448,27.562,27.562,0,0,1,2.787,9.271A12.981,12.981,0,0,0,57.324,39.526Z" transform="translate(0 -8.39)"/>
        <path id="Trazado_1183618" data-name="Trazado 1183618" d="M51.39,173.88a.989.989,0,1,0-1.4-1.4,5.051,5.051,0,0,1-7.872-.916h5.235a.989.989,0,1,0,0-1.977H41.412a5.1,5.1,0,0,1-.031-1.064h5.974a.989.989,0,1,0,0-1.977H41.948a5.055,5.055,0,0,1,8.043-1.213.989.989,0,0,0,1.4-1.4A7.029,7.029,0,0,0,39.8,166.547h-.407a.989.989,0,1,0,0,1.977H39.4a7.085,7.085,0,0,0,.022,1.064h-.033a.989.989,0,1,0,0,1.977h.519A7.036,7.036,0,0,0,51.39,173.88Z" transform="translate(-33.338 -141.646)"/>
      </g>
    </g>
  </g>
</svg>
