<svg xmlns="http://www.w3.org/2000/svg" xmlns:xlink="http://www.w3.org/1999/xlink" width="106.16" height="106.16" viewBox="0 0 106.16 106.16">
  <defs>
    <filter id="Trazado_982547" x="0" y="0" width="106.16" height="106.16" filterUnits="userSpaceOnUse">
      <feOffset dy="3" input="SourceAlpha"/>
      <feGaussianBlur stdDeviation="3" result="blur"/>
      <feFlood flood-opacity="0.161"/>
      <feComposite operator="in" in2="blur"/>
      <feComposite in="SourceGraphic"/>
    </filter>
  </defs>
  <g id="Grupo_1227588" data-name="Grupo 1227588" transform="translate(-190 -1231)">
    <g id="Grupo_1226888" data-name="Grupo 1226888" transform="translate(0 311)">
      <g id="Grupo_1224990" data-name="Grupo 1224990" transform="translate(-1 -803)">
        <g id="Grupo_1206130" data-name="Grupo 1206130" transform="translate(0 -59)">
          <g id="Grupo_1203672" data-name="Grupo 1203672" transform="translate(0.08 -4797.878)">
            <g id="Grupo_1203344" data-name="Grupo 1203344" transform="translate(-81.08 5174.875)">
              <g id="Grupo_1177900" data-name="Grupo 1177900" transform="translate(281 1411.003)">
                <g id="Grupo_1172010" data-name="Grupo 1172010" transform="translate(0)">
                  <g id="Grupo_1171046" data-name="Grupo 1171046">
                    <g id="Grupo_1148525" data-name="Grupo 1148525">
                      <g transform="matrix(1, 0, 0, 1, -9, -6)" filter="url(#Trazado_982547)">
                        <g id="Trazado_982547-2" data-name="Trazado 982547" transform="translate(9 6)" fill="#e9f9fd">
                          <path d="M 44.0802001953125 86.660400390625 C 38.33124923706055 86.660400390625 32.75506210327148 85.53479766845703 27.50652503967285 83.31484985351562 C 22.43628692626953 81.17032623291016 17.88242530822754 78.09992218017578 13.97144985198975 74.18894958496094 C 10.06047534942627 70.27797698974609 6.99007511138916 65.72411346435547 4.845550060272217 60.65387344360352 C 2.625600099563599 55.40533828735352 1.500000238418579 49.82915115356445 1.500000238418579 44.0802001953125 C 1.500000238418579 38.33124923706055 2.625600099563599 32.75506210327148 4.845550060272217 27.50652503967285 C 6.99007511138916 22.43628692626953 10.06047534942627 17.88242530822754 13.97144985198975 13.97144985198975 C 17.88242530822754 10.06047534942627 22.43628692626953 6.99007511138916 27.50652503967285 4.845550060272217 C 32.75506210327148 2.625600099563599 38.33124923706055 1.500000238418579 44.0802001953125 1.500000238418579 C 49.82915115356445 1.500000238418579 55.40533828735352 2.625600099563599 60.65387344360352 4.845550060272217 C 65.72411346435547 6.99007511138916 70.27797698974609 10.06047534942627 74.18894958496094 13.97144985198975 C 78.09992218017578 17.88242530822754 81.17032623291016 22.43628692626953 83.31484985351562 27.50652503967285 C 85.53479766845703 32.75506210327148 86.660400390625 38.33124923706055 86.660400390625 44.0802001953125 C 86.660400390625 49.82915115356445 85.53479766845703 55.40533828735352 83.31484985351562 60.65387344360352 C 81.17032623291016 65.72411346435547 78.09992218017578 70.27797698974609 74.18894958496094 74.18894958496094 C 70.27797698974609 78.09992218017578 65.72411346435547 81.17032623291016 60.65387344360352 83.31484985351562 C 55.40533828735352 85.53479766845703 49.82915115356445 86.660400390625 44.0802001953125 86.660400390625 Z" stroke="none"/>
                          <path d="M 44.0802001953125 3 C 38.53308486938477 3 33.15349960327148 4.085746765136719 28.09085845947266 6.227058410644531 C 23.19941711425781 8.29595947265625 18.80581665039062 11.25841522216797 15.03211212158203 15.03211212158203 C 11.25841522216797 18.80581665039062 8.29595947265625 23.19941711425781 6.227058410644531 28.09085845947266 C 4.085746765136719 33.15349960327148 3 38.53308486938477 3 44.0802001953125 C 3 49.62731552124023 4.085746765136719 55.00691604614258 6.227058410644531 60.06954193115234 C 8.29595947265625 64.96098327636719 11.25841522216797 69.35458374023438 15.03211212158203 73.12828826904297 C 18.80581665039062 76.90198516845703 23.19941711425781 79.86444091796875 28.09085845947266 81.93334197998047 C 33.15349960327148 84.07466125488281 38.53308486938477 85.160400390625 44.0802001953125 85.160400390625 C 49.62731552124023 85.160400390625 55.00691604614258 84.07466125488281 60.06954193115234 81.93334197998047 C 64.96099853515625 79.86444091796875 69.35458374023438 76.90198516845703 73.12828826904297 73.12828826904297 C 76.90198516845703 69.35458374023438 79.86444091796875 64.96099853515625 81.93334197998047 60.06954193115234 C 84.07466125488281 55.00691604614258 85.160400390625 49.62731552124023 85.160400390625 44.0802001953125 C 85.160400390625 38.53308486938477 84.07466125488281 33.15349960327148 81.93334197998047 28.09085845947266 C 79.86444091796875 23.19941711425781 76.90198516845703 18.80581665039062 73.12828826904297 15.03211212158203 C 69.35458374023438 11.25841522216797 64.96098327636719 8.29595947265625 60.06954193115234 6.227058410644531 C 55.00691604614258 4.085746765136719 49.62731552124023 3 44.0802001953125 3 M 44.0802001953125 0 C 68.42502593994141 0 88.160400390625 19.73538970947266 88.160400390625 44.0802001953125 C 88.160400390625 68.42502593994141 68.42502593994141 88.160400390625 44.0802001953125 88.160400390625 C 19.73538970947266 88.160400390625 0 68.42502593994141 0 44.0802001953125 C 0 19.73538970947266 19.73538970947266 0 44.0802001953125 0 Z" stroke="none" fill="#1d7083"/>
                        </g>
                      </g>
                    </g>
                  </g>
                </g>
              </g>
            </g>
          </g>
        </g>
      </g>
    </g>
    <g id="colombia_1_" data-name="colombia (1)" transform="translate(148.325 1247.747)">
      <path id="Trazado_1182743" data-name="Trazado 1182743" d="M122.672,44.3l.27-.541a2.088,2.088,0,0,0,.113-1.594L121.5,37.514a3.133,3.133,0,0,1-.1-1.6l.631-3.155a1.044,1.044,0,0,0-1.023-1.248h-6.519a1.044,1.044,0,0,1-.868-.465l-1.468-2.2a1.044,1.044,0,0,0-.868-.465h-6.87a1.044,1.044,0,0,1-1.036-.914l-.815-6.522a1.044,1.044,0,0,0-1.036-.914h-.26A1.044,1.044,0,0,1,100.4,18.4l4.586-6.879a6.266,6.266,0,0,1,1.453-1.536l.812-.609a1.044,1.044,0,0,0-.626-1.879h-1.834a3.131,3.131,0,0,0-2.214.917L99.2,11.8a3.131,3.131,0,0,1-2.214.917H94.357a3.131,3.131,0,0,0-2.214.917l-1.6,1.6a2.088,2.088,0,0,0-.611,1.476v1.168a3.132,3.132,0,0,1-.686,1.956l-2.962,3.7A1.044,1.044,0,0,1,85,23.823l-.318-.159a1.044,1.044,0,0,0-1.436.546l-1.318,3.3A2.088,2.088,0,0,0,82,29.214L83,31.228a6.261,6.261,0,0,1,.661,2.8V40.5a5.22,5.22,0,0,1-.744,2.685l-1.594,2.657a12.519,12.519,0,0,1-1.884,2.413l-1.113,1.113a1.044,1.044,0,0,0,.185,1.623l6.4,4a2.087,2.087,0,0,0,1.767.21l1.2-.4a4.986,4.986,0,0,1,2.938.159l7.858,6.368a2.087,2.087,0,0,1,.828,1.2l.657,2.628a1.044,1.044,0,0,0,1.013.791h8.7a.569.569,0,0,1,.509.823l-1.209,2.418a1.044,1.044,0,0,0,.467,1.4l2.322,1.161a.76.76,0,0,0,1.089-.555l1.851-11.1a1.044,1.044,0,0,0-.161-.751l-1.523-2.284a1.044,1.044,0,0,1-.065-1.046l1.583-3.167a1.043,1.043,0,0,0,0-.934l-.141-.282a1.044,1.044,0,0,1,.818-1.5l8.242-.916L122.558,45.9a2.087,2.087,0,0,1,.114-1.593Z" transform="translate(-6.524 -6.523)" fill="#ffe07d"/>
      <path id="Trazado_1182744" data-name="Trazado 1182744" d="M112.917,68.726l.276-.551a3.7,3.7,0,0,0-3.31-5.355h-7.072l-.262-1.047a5.221,5.221,0,0,0-2.07-3.01l-8.938-6.257a5.219,5.219,0,0,0-4.643-.676l-.736.245-3.792-2.37a15.661,15.661,0,0,0,1.642-2.254L85.607,44.8a8.352,8.352,0,0,0,1.19-4.3v-6.47a9.442,9.442,0,0,0-.992-4.2l-.8-1.6.467-1.168a4.155,4.155,0,0,0,3.25-1.567l2.962-3.7a6.286,6.286,0,0,0,1.372-3.912v-.736l1.3-1.3h2.625a6.222,6.222,0,0,0,4.428-1.834l3.385-3.385h.927a6.253,6.253,0,0,1,.722-.644l.812-.609a1.044,1.044,0,0,0-.626-1.879h-1.834a3.131,3.131,0,0,0-2.214.917L99.2,11.8a3.131,3.131,0,0,1-2.214.917H94.357a3.131,3.131,0,0,0-2.214.917l-1.6,1.6a2.088,2.088,0,0,0-.611,1.476v1.168a3.132,3.132,0,0,1-.686,1.956l-2.962,3.7A1.044,1.044,0,0,1,85,23.823l-.318-.159a1.044,1.044,0,0,0-1.436.546l-1.318,3.3A2.088,2.088,0,0,0,82,29.214L83,31.228a6.261,6.261,0,0,1,.661,2.8V40.5a5.219,5.219,0,0,1-.744,2.685l-1.594,2.657a12.52,12.52,0,0,1-1.884,2.413l-1.113,1.113a1.044,1.044,0,0,0,.185,1.623l6.4,4a2.087,2.087,0,0,0,1.767.21l1.2-.4a2.088,2.088,0,0,1,1.857.27l8.938,6.257a2.087,2.087,0,0,1,.828,1.2l.657,2.628a1.044,1.044,0,0,0,1.013.791h8.7a.569.569,0,0,1,.509.823l-1.209,2.418a1.044,1.044,0,0,0,.467,1.4l2.322,1.161a.76.76,0,0,0,1.089-.555l.37-2.217Z" transform="translate(-6.524 -6.523)" fill="#ffd064"/>
      <path id="Trazado_1182745" data-name="Trazado 1182745" d="M154.4,368.226H124.552l.836.523a2.088,2.088,0,0,0,1.767.21l1.2-.4a8.488,8.488,0,0,1,3.849.27l6.946,6.257a2.087,2.087,0,0,1,.828,1.2l.657,2.628a1.044,1.044,0,0,0,1.013.791h8.7a.569.569,0,0,1,.509.823l-1.209,2.418a1.044,1.044,0,0,0,.467,1.4l2.322,1.161a.76.76,0,0,0,1.089-.555l1.851-11.1a1.044,1.044,0,0,0-.161-.751l-1.523-2.284a1.044,1.044,0,0,1-.065-1.046Z" transform="translate(-46.993 -320.28)" fill="#e5646e"/>
      <path id="Trazado_1182746" data-name="Trazado 1182746" d="M153.386,382.482l.276-.551a3.7,3.7,0,0,0-3.31-5.355H143.28l-.262-1.047a5.221,5.221,0,0,0-2.07-3.01l-6.134-4.294H124.552l.836.523a2.087,2.087,0,0,0,1.767.21l1.2-.4a2.088,2.088,0,0,1,1.857.27l8.938,6.257a2.087,2.087,0,0,1,.828,1.2l.657,2.628a1.044,1.044,0,0,0,1.013.791h8.7a.569.569,0,0,1,.509.823l-1.209,2.418a1.044,1.044,0,0,0,.467,1.4l2.322,1.161a.76.76,0,0,0,1.089-.555l.37-2.217Z" transform="translate(-46.993 -320.28)" fill="#db4655"/>
      <path id="Trazado_1182747" data-name="Trazado 1182747" d="M122.674,267.418l.27-.541a2.088,2.088,0,0,0,.113-1.594l-.422-1.267H83.64a5.211,5.211,0,0,1-.716,2.283l-1.594,2.657a12.522,12.522,0,0,1-1.883,2.412l-1.114,1.114a1.044,1.044,0,0,0,.185,1.623l6.4,4a2.088,2.088,0,0,0,1.767.21l1.2-.4a6.4,6.4,0,0,1,2.04-.332h24.007l.81-1.621a1.043,1.043,0,0,0,0-.934l-.141-.282a1.044,1.044,0,0,1,.818-1.5l8.242-.916-1.106-3.318a2.087,2.087,0,0,1,.113-1.594Z" transform="translate(-6.525 -229.639)" fill="#6987eb"/>
      <path id="Trazado_1182748" data-name="Trazado 1182748" d="M85.607,267.909a8.376,8.376,0,0,0,1.161-3.837l0-.058H83.638a5.211,5.211,0,0,1-.716,2.283l-1.594,2.657a12.521,12.521,0,0,1-1.884,2.413l-1.113,1.113a1.044,1.044,0,0,0,.185,1.623l6.4,4a2.087,2.087,0,0,0,1.767.21l1.2-.4a6.4,6.4,0,0,1,2.04-.332h4.417l-1.221-.855-1.582-1.108a5.218,5.218,0,0,0-4.643-.676l-.736.245-3.792-2.37a15.665,15.665,0,0,0,1.642-2.254Z" transform="translate(-6.524 -229.638)" fill="#5069d2"/>
      <path id="Trazado_1182749" data-name="Trazado 1182749" d="M118.775,44.506l-1.814-5.442a1.1,1.1,0,0,1,.06-.848l.27-.541a3.044,3.044,0,0,0,.166-2.339l-1.551-4.654a2.158,2.158,0,0,1-.069-1.1l.631-3.155a2.02,2.02,0,0,0-1.981-2.417H107.97a.067.067,0,0,1-.056-.03l-1.468-2.2a2.016,2.016,0,0,0-1.681-.9h-6.87a.067.067,0,0,1-.067-.059l-.815-6.522a2.023,2.023,0,0,0-2-1.77h-.26a.067.067,0,0,1-.056-.1l4.586-6.879a5.271,5.271,0,0,1,1.227-1.3l.812-.609a1.993,1.993,0,0,0,.7-2.255A1.993,1.993,0,0,0,100.1,0H98.271a4.081,4.081,0,0,0-2.9,1.2L91.981,4.588a2.141,2.141,0,0,1-1.524.631H87.833a4.081,4.081,0,0,0-2.9,1.2l-1.6,1.6a3.044,3.044,0,0,0-.9,2.167V11.36a2.162,2.162,0,0,1-.472,1.346l-2.962,3.7a.068.068,0,0,1-.083.018l-.318-.159a2.02,2.02,0,0,0-2.779,1.057l-1.318,3.3a3.066,3.066,0,0,0,.1,2.508l1.007,2.014a5.312,5.312,0,0,1,.558,2.364v6.47a4.243,4.243,0,0,1-.6,2.183l-1.594,2.657A11.56,11.56,0,0,1,72.23,41.04l-1.113,1.113a2.02,2.02,0,0,0,.358,3.142l6.4,4a3.055,3.055,0,0,0,2.593.309l1.234-.411a5.275,5.275,0,0,1,1.672-.271h22.454l-.066.133a2.025,2.025,0,0,0,.126,2.024l1.523,2.284a.067.067,0,0,1,.01.048l-1.8,10.814L103.563,63.2a.067.067,0,0,1-.03-.09l1.621-3.242a.977.977,0,0,0-.873-1.413H94.657a.067.067,0,0,1-.065-.051l-.657-2.628a3.064,3.064,0,0,0-1.215-1.767l-4.578-3.2a.977.977,0,1,0-1.12,1.6l4.578,3.2a1.112,1.112,0,0,1,.441.641l.657,2.628a2.017,2.017,0,0,0,1.96,1.53H102.7l-.914,1.828a2.023,2.023,0,0,0,.9,2.711l3.242,1.621a.977.977,0,0,0,1.4-.713l2.02-12.118a2.013,2.013,0,0,0-.312-1.453L107.516,50a.067.067,0,0,1,0-.067l1.583-3.166a2.029,2.029,0,0,0,0-1.807l-.141-.282a.067.067,0,0,1,.053-.1l7.457-.829.459,1.376a.977.977,0,0,0,1.853-.618Zm-9.984-1.871a2.02,2.02,0,0,0-1.584,2.911l.141.282a.068.068,0,0,1,0,.06l-.54,1.081H83.377a7.224,7.224,0,0,0-2.289.372l-1.234.411a1.107,1.107,0,0,1-.94-.112l-6.4-4a.067.067,0,0,1-.012-.1l1.113-1.113a13.511,13.511,0,0,0,2.03-2.6l1.594-2.657a6.2,6.2,0,0,0,.724-1.809h29.451a.977.977,0,0,0,0-1.953H78.118v-5.9a7.275,7.275,0,0,0-.764-3.237l-1.007-2.014a1.112,1.112,0,0,1-.038-.91l1.318-3.3a.067.067,0,0,1,.092-.035l.318.159a2.031,2.031,0,0,0,2.481-.545l2.962-3.7a4.123,4.123,0,0,0,.9-2.566V10.191a1.1,1.1,0,0,1,.325-.786l1.6-1.6a2.141,2.141,0,0,1,1.524-.631h2.625a4.081,4.081,0,0,0,2.9-1.2l3.385-3.385a2.141,2.141,0,0,1,1.524-.631H100.1c.029,0,.048,0,.064.046s0,.057-.023.075l-.812.609a7.219,7.219,0,0,0-1.68,1.776l-4.586,6.878a2.02,2.02,0,0,0,1.681,3.141h.26a.067.067,0,0,1,.067.059l.815,6.522a2.023,2.023,0,0,0,2,1.77h6.87a.067.067,0,0,1,.056.03l1.468,2.2a2.016,2.016,0,0,0,1.681.9h6.518a.067.067,0,0,1,.066.08l-.631,3.155a4.115,4.115,0,0,0,.131,2.1l.7,2.1h-3.168a.977.977,0,0,0,0,1.953h3.819l.2.6a1.1,1.1,0,0,1-.06.848l-.27.541a3.044,3.044,0,0,0-.166,2.339l.724,2.171Z" transform="translate(0 0)"/>
    </g>
  </g>
</svg>
