<svg xmlns="http://www.w3.org/2000/svg" xmlns:xlink="http://www.w3.org/1999/xlink" width="106.16" height="106.16" viewBox="0 0 106.16 106.16">
  <defs>
    <filter id="Trazado_982547" x="0" y="0" width="106.16" height="106.16" filterUnits="userSpaceOnUse">
      <feOffset dy="3" input="SourceAlpha"/>
      <feGaussianBlur stdDeviation="3" result="blur"/>
      <feFlood flood-opacity="0.161"/>
      <feComposite operator="in" in2="blur"/>
      <feComposite in="SourceGraphic"/>
    </filter>
  </defs>
  <g id="Grupo_1227591" data-name="Grupo 1227591" transform="translate(-1030.42 -1231)">
    <g id="Grupo_1226890" data-name="Grupo 1226890" transform="translate(0 311)">
      <g id="Grupo_1224994" data-name="Grupo 1224994" transform="translate(-1 -803.069)">
        <g id="Grupo_1224861" data-name="Grupo 1224861">
          <g id="Grupo_1206133" data-name="Grupo 1206133" transform="translate(0 -58.931)">
            <g id="Grupo_1203662" data-name="Grupo 1203662" transform="translate(0 -4797.878)">
              <g id="Grupo_1203346" data-name="Grupo 1203346" transform="translate(759.42 5174.875)">
                <g id="Grupo_1177900" data-name="Grupo 1177900" transform="translate(281 1411.003)">
                  <g id="Grupo_1172010" data-name="Grupo 1172010" transform="translate(0)">
                    <g id="Grupo_1171046" data-name="Grupo 1171046">
                      <g id="Grupo_1148525" data-name="Grupo 1148525">
                        <g transform="matrix(1, 0, 0, 1, -9, -6)" filter="url(#Trazado_982547)">
                          <g id="Trazado_982547-2" data-name="Trazado 982547" transform="translate(9 6)" fill="#e9f9fd">
                            <path d="M 44.0802001953125 86.660400390625 C 38.33124923706055 86.660400390625 32.75506210327148 85.53479766845703 27.50652503967285 83.31484985351562 C 22.43628692626953 81.17032623291016 17.88242530822754 78.09992218017578 13.97144985198975 74.18894958496094 C 10.06047534942627 70.27797698974609 6.99007511138916 65.72411346435547 4.845550060272217 60.65387344360352 C 2.625600099563599 55.40533828735352 1.500000238418579 49.82915115356445 1.500000238418579 44.0802001953125 C 1.500000238418579 38.33124923706055 2.625600099563599 32.75506210327148 4.845550060272217 27.50652503967285 C 6.99007511138916 22.43628692626953 10.06047534942627 17.88242530822754 13.97144985198975 13.97144985198975 C 17.88242530822754 10.06047534942627 22.43628692626953 6.99007511138916 27.50652503967285 4.845550060272217 C 32.75506210327148 2.625600099563599 38.33124923706055 1.500000238418579 44.0802001953125 1.500000238418579 C 49.82915115356445 1.500000238418579 55.40533828735352 2.625600099563599 60.65387344360352 4.845550060272217 C 65.72411346435547 6.99007511138916 70.27797698974609 10.06047534942627 74.18894958496094 13.97144985198975 C 78.09992218017578 17.88242530822754 81.17032623291016 22.43628692626953 83.31484985351562 27.50652503967285 C 85.53479766845703 32.75506210327148 86.660400390625 38.33124923706055 86.660400390625 44.0802001953125 C 86.660400390625 49.82915115356445 85.53479766845703 55.40533828735352 83.31484985351562 60.65387344360352 C 81.17032623291016 65.72411346435547 78.09992218017578 70.27797698974609 74.18894958496094 74.18894958496094 C 70.27797698974609 78.09992218017578 65.72411346435547 81.17032623291016 60.65387344360352 83.31484985351562 C 55.40533828735352 85.53479766845703 49.82915115356445 86.660400390625 44.0802001953125 86.660400390625 Z" stroke="none"/>
                            <path d="M 44.0802001953125 3 C 38.53308486938477 3 33.15349960327148 4.085746765136719 28.09085845947266 6.227058410644531 C 23.19941711425781 8.29595947265625 18.80581665039062 11.25841522216797 15.03211212158203 15.03211212158203 C 11.25841522216797 18.80581665039062 8.29595947265625 23.19941711425781 6.227058410644531 28.09085845947266 C 4.085746765136719 33.15349960327148 3 38.53308486938477 3 44.0802001953125 C 3 49.62731552124023 4.085746765136719 55.00691604614258 6.227058410644531 60.06954193115234 C 8.29595947265625 64.96098327636719 11.25841522216797 69.35458374023438 15.03211212158203 73.12828826904297 C 18.80581665039062 76.90198516845703 23.19941711425781 79.86444091796875 28.09085845947266 81.93334197998047 C 33.15349960327148 84.07466125488281 38.53308486938477 85.160400390625 44.0802001953125 85.160400390625 C 49.62731552124023 85.160400390625 55.00691604614258 84.07466125488281 60.06954193115234 81.93334197998047 C 64.96099853515625 79.86444091796875 69.35458374023438 76.90198516845703 73.12828826904297 73.12828826904297 C 76.90198516845703 69.35458374023438 79.86444091796875 64.96099853515625 81.93334197998047 60.06954193115234 C 84.07466125488281 55.00691604614258 85.160400390625 49.62731552124023 85.160400390625 44.0802001953125 C 85.160400390625 38.53308486938477 84.07466125488281 33.15349960327148 81.93334197998047 28.09085845947266 C 79.86444091796875 23.19941711425781 76.90198516845703 18.80581665039062 73.12828826904297 15.03211212158203 C 69.35458374023438 11.25841522216797 64.96098327636719 8.29595947265625 60.06954193115234 6.227058410644531 C 55.00691604614258 4.085746765136719 49.62731552124023 3 44.0802001953125 3 M 44.0802001953125 0 C 68.42502593994141 0 88.160400390625 19.73538970947266 88.160400390625 44.0802001953125 C 88.160400390625 68.42502593994141 68.42502593994141 88.160400390625 44.0802001953125 88.160400390625 C 19.73538970947266 88.160400390625 0 68.42502593994141 0 44.0802001953125 C 0 19.73538970947266 19.73538970947266 0 44.0802001953125 0 Z" stroke="none" fill="#1d7083"/>
                          </g>
                        </g>
                      </g>
                    </g>
                  </g>
                </g>
              </g>
            </g>
          </g>
        </g>
      </g>
    </g>
    <g id="la-politica-monetaria_3_" data-name="la-politica-monetaria (3)" transform="translate(1051.697 1247.87)">
      <path id="Trazado_1182760" data-name="Trazado 1182760" d="M31.889,341.778H72.614v2.5H31.889Z" transform="translate(-24.813 -300.512)" fill="#6e5a54"/>
      <path id="Trazado_1182761" data-name="Trazado 1182761" d="M52.252,10.945l-20.363,12.4H72.614Z" transform="translate(-24.813 -6.18)" fill="#9b827a" fill-rule="evenodd"/>
      <path id="Trazado_1182762" data-name="Trazado 1182762" d="M232.143,23.346h4.666l-20.363-12.4Z" transform="translate(-189.007 -6.18)" fill="#836d66" fill-rule="evenodd"/>
      <path id="Trazado_1182763" data-name="Trazado 1182763" d="M31.889,123.344H72.614v2.5H31.889Z" transform="translate(-24.813 -106.178)" fill="#6e5a54"/>
      <path id="Trazado_1182764" data-name="Trazado 1182764" d="M325.187,146.023v1.629a1.136,1.136,0,0,1-.851,1.109l-.371.1v15.923l.371.1a1.136,1.136,0,0,1,.851,1.109v1.629h-6.668v-1.629a1.136,1.136,0,0,1,.851-1.109l.371-.1V148.861l-.371-.1a1.136,1.136,0,0,1-.851-1.109v-1.629Z" transform="translate(-279.818 -126.355)" fill="#c2a9a1" fill-rule="evenodd"/>
      <path id="Trazado_1182765" data-name="Trazado 1182765" d="M323.892,167.621h-5.373v-1.629a1.136,1.136,0,0,1,.851-1.11l.371-.1V148.861l-.371-.1a1.136,1.136,0,0,1-.851-1.109v-1.629h5.373v1.629a1.136,1.136,0,0,1-.851,1.109l-.371.1v15.923l.371.1a1.136,1.136,0,0,1,.851,1.11Z" transform="translate(-279.818 -126.355)" fill="#d9c5bf" fill-rule="evenodd"/>
      <path id="Trazado_1182766" data-name="Trazado 1182766" d="M10.946,364.457H56.293v2.753H10.946Z" transform="translate(-6.181 -320.689)" fill="#453530"/>
      <g id="Grupo_1227590" data-name="Grupo 1227590" transform="translate(9.509 19.668)">
        <path id="Trazado_1182767" data-name="Trazado 1182767" d="M192.9,146.023v1.629a1.136,1.136,0,0,1-.851,1.109l-.371.1v15.923l.371.1a1.136,1.136,0,0,1,.851,1.109v1.629h-6.668v-1.629a1.136,1.136,0,0,1,.851-1.109l.371-.1V148.861l-.371-.1a1.136,1.136,0,0,1-.851-1.109v-1.629Z" transform="translate(-171.633 -146.023)" fill="#c2a9a1" fill-rule="evenodd"/>
        <path id="Trazado_1182768" data-name="Trazado 1182768" d="M191.6,167.621H186.23v-1.629a1.136,1.136,0,0,1,.851-1.11l.371-.1V148.861l-.371-.1a1.136,1.136,0,0,1-.851-1.109v-1.629H191.6v1.629a1.136,1.136,0,0,1-.851,1.109l-.371.1v15.923l.371.1a1.136,1.136,0,0,1,.851,1.11Z" transform="translate(-171.634 -146.023)" fill="#d9c5bf" fill-rule="evenodd"/>
        <path id="Trazado_1182769" data-name="Trazado 1182769" d="M60.609,146.023v1.629a1.136,1.136,0,0,1-.851,1.109l-.371.1v15.923l.371.1a1.136,1.136,0,0,1,.851,1.109v1.629H53.941v-1.629a1.136,1.136,0,0,1,.851-1.109l.371-.1V148.861l-.371-.1a1.136,1.136,0,0,1-.851-1.109v-1.629Z" transform="translate(-53.941 -146.023)" fill="#c2a9a1" fill-rule="evenodd"/>
        <path id="Trazado_1182770" data-name="Trazado 1182770" d="M59.314,167.621H53.941v-1.629a1.136,1.136,0,0,1,.851-1.11l.371-.1V148.861l-.371-.1a1.136,1.136,0,0,1-.851-1.109v-1.629h5.373v1.629a1.136,1.136,0,0,1-.851,1.109l-.371.1v15.923l.371.1a1.136,1.136,0,0,1,.851,1.11Z" transform="translate(-53.941 -146.023)" fill="#d9c5bf" fill-rule="evenodd"/>
        <path id="Trazado_1182771" data-name="Trazado 1182771" d="M313.775,217.257l5.866,5.866a1.69,1.69,0,0,1,.551,1.244V245.3h-22.4v-28.6h14.737a1.69,1.69,0,0,1,1.244.551Z" transform="translate(-270.89 -208.907)" fill="#e3f1ff" fill-rule="evenodd"/>
        <path id="Trazado_1182772" data-name="Trazado 1182772" d="M479.813,290.955V269.279c0-.353-.1-1.236-1.652-1.259h1.19l.756.756a1.69,1.69,0,0,1,.551,1.244v20.936Z" transform="translate(-431.356 -254.56)" fill="#b6dbff" fill-rule="evenodd"/>
        <path id="Trazado_1182773" data-name="Trazado 1182773" d="M442.843,221.911l5.776,5.776a1.957,1.957,0,0,0-1.363-.552H443.4v-3.86A1.957,1.957,0,0,0,442.843,221.911Z" transform="translate(-399.935 -213.538)" fill="#4eb1fc" fill-rule="evenodd"/>
        <path id="Trazado_1182774" data-name="Trazado 1182774" d="M442.843,221.911l4.6,4.6a1.949,1.949,0,0,0-.85-.194H443.4v-3.04A1.957,1.957,0,0,0,442.843,221.911Z" transform="translate(-399.935 -213.538)" fill="#85caff" fill-rule="evenodd"/>
        <path id="Trazado_1182775" data-name="Trazado 1182775" d="M273.121,418.248h5.4v9.13l-2.7-2.741-2.7,2.741Z" transform="translate(-248.938 -388.213)" fill="#f23353" fill-rule="evenodd"/>
        <path id="Trazado_1182776" data-name="Trazado 1182776" d="M273.121,418.248h4.658v8.377l-1.958-1.988-.561-.569-2.139,2.171Z" transform="translate(-248.938 -388.213)" fill="#ff5471" fill-rule="evenodd"/>
      </g>
      <circle id="Elipse_12697" data-name="Elipse 12697" cx="5.095" cy="5.095" r="5.095" transform="translate(31.296 42.451)" fill="#fdc72e"/>
      <path id="Trazado_1182777" data-name="Trazado 1182777" d="M256.006,362.878a5.1,5.1,0,1,1,4.6-5.071A5.1,5.1,0,0,1,256.006,362.878Z" transform="translate(-220.111 -310.26)" fill="#fcdb35" fill-rule="evenodd"/>
      <path id="Trazado_1182778" data-name="Trazado 1182778" d="M334.3,251.543h6.858v3.99H334.3Z" transform="translate(-293.856 -220.233)" fill="#43f043"/>
      <path id="Trazado_1182779" data-name="Trazado 1182779" d="M388.169,251.543h.914v3.99h-.914Z" transform="translate(-341.784 -220.233)" fill="#2dd62d"/>
      <path id="Trazado_1182780" data-name="Trazado 1182780" d="M54.784,41.843H42.593a.772.772,0,1,0,0,1.544H54.784a.772.772,0,1,0,0-1.544Zm0-3.575H40.442a.772.772,0,1,0,0,1.544H54.784a.772.772,0,1,0,0-1.544Zm0,7.15H44.05a.772.772,0,1,0,0,1.544H54.784a.772.772,0,1,0,0-1.544Zm0,3.575H44.05a.772.772,0,1,0,0,1.544H54.784a.772.772,0,1,0,0-1.544ZM41.214,34.528h5.312V32.083H41.214Zm-1.545.772v-3.99a.772.772,0,0,1,.772-.772H47.3a.772.772,0,0,1,.772.772V35.3a.772.772,0,0,1-.772.772H40.442A.772.772,0,0,1,39.669,35.3Zm-4.829,14a.769.769,0,0,0,.569.38.8.8,0,0,0,.1.007.772.772,0,0,0,.546-.227l2.732-2.731a.772.772,0,0,0-1.093-1.092l-2.02,2.019-.464-.8a.772.772,0,1,0-1.337.772L34.84,49.3ZM58.062,35.115V55.321h-18.2V52.274a5.864,5.864,0,0,0-2.7-10.542V28.21H51.157a.928.928,0,0,1,.69.317l.01.01.042.041a1.19,1.19,0,0,1,.335.826v3.863a.773.773,0,0,0,.772.773h3.863a1.184,1.184,0,0,1,.825.334l.041.041.01.01a.93.93,0,0,1,.316.69ZM38.319,56.949v-3.86a5.854,5.854,0,0,1-3.855,0v3.86l1.377-1.4a.776.776,0,0,1,1.1,0l1.377,1.4ZM36.391,51.87a4.323,4.323,0,1,1,4.323-4.322A4.327,4.327,0,0,1,36.391,51.87Zm-5.584-6.125a5.85,5.85,0,0,1,.55-1.208H5.544v1.208ZM7.854,42.991H32.7a5.862,5.862,0,0,1,1.682-.956H7.854Zm2.432-2.5h5.121v-.856a.362.362,0,0,0-.279-.363l-.371-.1a.772.772,0,0,1-.571-.746V22.507a.771.771,0,0,1,.571-.746l.371-.1a.363.363,0,0,0,.279-.364v-.855H10.286V21.3a.364.364,0,0,0,.279.364l.371.1a.772.772,0,0,1,.572.746V38.426a.773.773,0,0,1-.572.746l-.371.1a.362.362,0,0,0-.279.363ZM7.854,18.9H47.023v-.958H7.854Zm1.98-2.5H45.043L27.439,5.675,9.834,16.4ZM24.878,40.49H30v-.856a.362.362,0,0,0-.278-.363l-.371-.1a.773.773,0,0,1-.573-.746V22.507a.772.772,0,0,1,.573-.746l.371-.1A.363.363,0,0,0,30,21.3v-.855H24.878V21.3a.364.364,0,0,0,.278.364l.371.1a.772.772,0,0,1,.573.746V38.426a.773.773,0,0,1-.573.746l-.371.1a.361.361,0,0,0-.278.363Zm-7.926-.856v.856h6.381v-.856a1.9,1.9,0,0,1,1.222-1.789V23.089A1.9,1.9,0,0,1,23.333,21.3v-.855H16.952V21.3a1.9,1.9,0,0,1-1.222,1.791V37.845a1.9,1.9,0,0,1,1.222,1.789ZM36.391,26.666h2.755V23.089A1.9,1.9,0,0,1,37.925,21.3v-.855H31.543V21.3a1.9,1.9,0,0,1-1.221,1.791V37.845a1.9,1.9,0,0,1,1.221,1.789v.856h4.076V27.438a.772.772,0,0,1,.772-.772Zm8.2-6.223H39.47V21.3a.364.364,0,0,0,.279.364l.371.1a.771.771,0,0,1,.572.746v4.159h2.678V22.507a.772.772,0,0,1,.572-.746l.371-.1a.364.364,0,0,0,.279-.364v-.855Zm9.187,12.052h2.037l-2.037-2.038Zm5.828,2.62V56.093a.773.773,0,0,1-.773.772H39.863v1.968a.773.773,0,0,1-1.323.542l-2.149-2.182-2.149,2.182a.773.773,0,0,1-1.323-.542V52.274a5.863,5.863,0,0,1-2.4-4.727c0-.087,0-.172.006-.259H4.771A.771.771,0,0,1,4,46.517V43.764a.772.772,0,0,1,.772-.773H6.309V41.263a.772.772,0,0,1,.773-.773H8.741v-.856a1.9,1.9,0,0,1,1.223-1.789V23.088A1.9,1.9,0,0,1,8.741,21.3v-.855H7.082a.773.773,0,0,1-.773-.772v-2.5a.771.771,0,0,1,.371-.659h0l20.356-12.4a.771.771,0,0,1,.8,0L48.2,16.508h0a.772.772,0,0,1,.371.659v2.5a.772.772,0,0,1-.772.772H46.136V21.3a1.9,1.9,0,0,1-1.223,1.791v3.577h6.244a2.461,2.461,0,0,1,1.8.783l5.87,5.868a2.466,2.466,0,0,1,.782,1.8ZM25.293,11.046a1.681,1.681,0,0,1,.24-2.081,2.263,2.263,0,0,1,1.133-.613v-.3a.772.772,0,0,1,1.545,0v.3a2.2,2.2,0,0,1,1.472,1.035.772.772,0,0,1-1.359.732.909.909,0,0,0-.646-.3,1.363,1.363,0,0,0-1.03.205c-.1.1-.063.162-.044.193.074.118.255.212.587.3.128.036.259.067.4.1a4.685,4.685,0,0,1,1.332.472,1.747,1.747,0,0,1,.945,1.77,1.837,1.837,0,0,1-1.017,1.418,2.669,2.669,0,0,1-.637.219v.28a.772.772,0,0,1-1.545,0v-.3A2.376,2.376,0,0,1,25.095,13.4a.772.772,0,0,1,1.354-.742,1.638,1.638,0,0,0,1.709.253.294.294,0,0,0,.172-.223c.007-.063.015-.127-.193-.25a3.365,3.365,0,0,0-.907-.3c-.148-.035-.3-.072-.455-.114a2.4,2.4,0,0,1-1.482-.974Z" transform="translate(0 0)" fill-rule="evenodd"/>
    </g>
  </g>
</svg>
