<svg xmlns="http://www.w3.org/2000/svg" xmlns:xlink="http://www.w3.org/1999/xlink" width="106.16" height="106.16" viewBox="0 0 106.16 106.16">
  <defs>
    <filter id="Trazado_982547" x="0" y="0" width="106.16" height="106.16" filterUnits="userSpaceOnUse">
      <feOffset dy="3" input="SourceAlpha"/>
      <feGaussianBlur stdDeviation="3" result="blur"/>
      <feFlood flood-opacity="0.161"/>
      <feComposite operator="in" in2="blur"/>
      <feComposite in="SourceGraphic"/>
    </filter>
  </defs>
  <g id="Grupo_1227616" data-name="Grupo 1227616" transform="translate(-609.92 -1389)">
    <g id="Grupo_1226892" data-name="Grupo 1226892" transform="translate(0 306.931)">
      <g id="Grupo_1224993" data-name="Grupo 1224993" transform="translate(-1 -799)">
        <g id="Grupo_1206132" data-name="Grupo 1206132" transform="translate(0 -58.931)">
          <g id="Grupo_1203794" data-name="Grupo 1203794" transform="translate(0 -4639.878)">
            <g id="Grupo_1203345" data-name="Grupo 1203345" transform="translate(338.92 5174.875)">
              <g id="Grupo_1177900" data-name="Grupo 1177900" transform="translate(281 1411.003)">
                <g id="Grupo_1172010" data-name="Grupo 1172010" transform="translate(0)">
                  <g id="Grupo_1171046" data-name="Grupo 1171046">
                    <g id="Grupo_1148525" data-name="Grupo 1148525">
                      <g transform="matrix(1, 0, 0, 1, -9, -6)" filter="url(#Trazado_982547)">
                        <g id="Trazado_982547-2" data-name="Trazado 982547" transform="translate(9 6)" fill="#e9f9fd">
                          <path d="M 44.0802001953125 86.660400390625 C 38.33124923706055 86.660400390625 32.75506210327148 85.53479766845703 27.50652503967285 83.31484985351562 C 22.43628692626953 81.17032623291016 17.88242530822754 78.09992218017578 13.97144985198975 74.18894958496094 C 10.06047534942627 70.27797698974609 6.99007511138916 65.72411346435547 4.845550060272217 60.65387344360352 C 2.625600099563599 55.40533828735352 1.500000238418579 49.82915115356445 1.500000238418579 44.0802001953125 C 1.500000238418579 38.33124923706055 2.625600099563599 32.75506210327148 4.845550060272217 27.50652503967285 C 6.99007511138916 22.43628692626953 10.06047534942627 17.88242530822754 13.97144985198975 13.97144985198975 C 17.88242530822754 10.06047534942627 22.43628692626953 6.99007511138916 27.50652503967285 4.845550060272217 C 32.75506210327148 2.625600099563599 38.33124923706055 1.500000238418579 44.0802001953125 1.500000238418579 C 49.82915115356445 1.500000238418579 55.40533828735352 2.625600099563599 60.65387344360352 4.845550060272217 C 65.72411346435547 6.99007511138916 70.27797698974609 10.06047534942627 74.18894958496094 13.97144985198975 C 78.09992218017578 17.88242530822754 81.17032623291016 22.43628692626953 83.31484985351562 27.50652503967285 C 85.53479766845703 32.75506210327148 86.660400390625 38.33124923706055 86.660400390625 44.0802001953125 C 86.660400390625 49.82915115356445 85.53479766845703 55.40533828735352 83.31484985351562 60.65387344360352 C 81.17032623291016 65.72411346435547 78.09992218017578 70.27797698974609 74.18894958496094 74.18894958496094 C 70.27797698974609 78.09992218017578 65.72411346435547 81.17032623291016 60.65387344360352 83.31484985351562 C 55.40533828735352 85.53479766845703 49.82915115356445 86.660400390625 44.0802001953125 86.660400390625 Z" stroke="none"/>
                          <path d="M 44.0802001953125 3 C 38.53308486938477 3 33.15349960327148 4.085746765136719 28.09085845947266 6.227058410644531 C 23.19941711425781 8.29595947265625 18.80581665039062 11.25841522216797 15.03211212158203 15.03211212158203 C 11.25841522216797 18.80581665039062 8.29595947265625 23.19941711425781 6.227058410644531 28.09085845947266 C 4.085746765136719 33.15349960327148 3 38.53308486938477 3 44.0802001953125 C 3 49.62731552124023 4.085746765136719 55.00691604614258 6.227058410644531 60.06954193115234 C 8.29595947265625 64.96098327636719 11.25841522216797 69.35458374023438 15.03211212158203 73.12828826904297 C 18.80581665039062 76.90198516845703 23.19941711425781 79.86444091796875 28.09085845947266 81.93334197998047 C 33.15349960327148 84.07466125488281 38.53308486938477 85.160400390625 44.0802001953125 85.160400390625 C 49.62731552124023 85.160400390625 55.00691604614258 84.07466125488281 60.06954193115234 81.93334197998047 C 64.96099853515625 79.86444091796875 69.35458374023438 76.90198516845703 73.12828826904297 73.12828826904297 C 76.90198516845703 69.35458374023438 79.86444091796875 64.96099853515625 81.93334197998047 60.06954193115234 C 84.07466125488281 55.00691604614258 85.160400390625 49.62731552124023 85.160400390625 44.0802001953125 C 85.160400390625 38.53308486938477 84.07466125488281 33.15349960327148 81.93334197998047 28.09085845947266 C 79.86444091796875 23.19941711425781 76.90198516845703 18.80581665039062 73.12828826904297 15.03211212158203 C 69.35458374023438 11.25841522216797 64.96098327636719 8.29595947265625 60.06954193115234 6.227058410644531 C 55.00691604614258 4.085746765136719 49.62731552124023 3 44.0802001953125 3 M 44.0802001953125 0 C 68.42502593994141 0 88.160400390625 19.73538970947266 88.160400390625 44.0802001953125 C 88.160400390625 68.42502593994141 68.42502593994141 88.160400390625 44.0802001953125 88.160400390625 C 19.73538970947266 88.160400390625 0 68.42502593994141 0 44.0802001953125 C 0 19.73538970947266 19.73538970947266 0 44.0802001953125 0 Z" stroke="none" fill="#1d7083"/>
                        </g>
                      </g>
                    </g>
                  </g>
                </g>
              </g>
            </g>
          </g>
        </g>
      </g>
    </g>
    <g id="libre-comercio" transform="translate(631 1407)">
      <g id="Grupo_1227614" data-name="Grupo 1227614">
        <g id="Grupo_1227602" data-name="Grupo 1227602">
          <circle id="Elipse_12701" data-name="Elipse 12701" cx="24" cy="24" r="24" transform="translate(8 10)" fill="#69d6f4"/>
        </g>
        <g id="Grupo_1227603" data-name="Grupo 1227603">
          <path id="Trazado_1182808" data-name="Trazado 1182808" d="M28.35,10A5.981,5.981,0,0,1,34,6H55.38a1,1,0,0,0,.9-.55l1.44-2.9a1,1,0,0,1,.9-.55h1.46A1.912,1.912,0,0,1,62,3.92a.86.86,0,0,1-.01.16l-.69,6.93A3.319,3.319,0,0,1,58,14V13a1,1,0,0,0-1-1H53.62A1.613,1.613,0,0,0,52,13.62a2.325,2.325,0,0,0,.04.37L52,14H45.96a2.328,2.328,0,0,0,.04-.38A1.613,1.613,0,0,0,44.38,12h-4.5A1.878,1.878,0,0,0,38,13.88V14H30a1.955,1.955,0,0,1-1.41-.59,2.094,2.094,0,0,1-.24-.28A1.99,1.99,0,0,1,28,12a6.044,6.044,0,0,1,.25-1.71c.02-.1.06-.19.09-.29Z" fill="#e6e9ed"/>
        </g>
        <g id="Grupo_1227604" data-name="Grupo 1227604">
          <path id="Trazado_1182809" data-name="Trazado 1182809" d="M58,14v5a1,1,0,0,1-1,1H55.62a1,1,0,0,1-.9-.55l-2.55-5.11a2.1,2.1,0,0,1-.13-.35,2.325,2.325,0,0,1-.04-.37A1.613,1.613,0,0,1,53.62,12H57a1,1,0,0,1,1,1Z" fill="#ff826e"/>
        </g>
        <g id="Grupo_1227605" data-name="Grupo 1227605">
          <path id="Trazado_1182810" data-name="Trazado 1182810" d="M45.96,14a1.989,1.989,0,0,1-.13.34l-.02.03L43,20l-.72,1.45a.95.95,0,0,1-.71.52.628.628,0,0,1-.19.03h-1.5a1,1,0,0,1-.99-.88L38.75,20l-.74-5.88A.487.487,0,0,1,38,14v-.12A1.878,1.878,0,0,1,39.88,12h4.5A1.613,1.613,0,0,1,46,13.62a2.328,2.328,0,0,1-.04.38Z" fill="#ff826e"/>
        </g>
        <g id="Grupo_1227606" data-name="Grupo 1227606">
          <path id="Trazado_1182811" data-name="Trazado 1182811" d="M34,53v1a7.991,7.991,0,0,1-.54,2.9,7.686,7.686,0,0,1-.52,1.08h-.01A7.97,7.97,0,0,1,26,62H10a8,8,0,0,1-8-8V51a1,1,0,0,1,1-1h7.59a1.009,1.009,0,0,1,.7.29l1.42,1.42a1.009,1.009,0,0,0,.7.29H33a1,1,0,0,1,1,1Z" fill="#aab2bd"/>
        </g>
        <g id="Grupo_1227607" data-name="Grupo 1227607">
          <path id="Trazado_1182812" data-name="Trazado 1182812" d="M6,50V43a1,1,0,0,1,1-1h8.59a1.009,1.009,0,0,1,.7.29L22,48v4H13.41a1.009,1.009,0,0,1-.7-.29l-1.42-1.42a1.009,1.009,0,0,0-.7-.29Z" fill="#e6e9ed"/>
        </g>
        <g id="Grupo_1227608" data-name="Grupo 1227608">
          <path id="Trazado_1182813" data-name="Trazado 1182813" d="M28,48h1a1,1,0,0,1,1,1v3H26V48Z" fill="#d3a06c"/>
        </g>
        <g id="Grupo_1227609" data-name="Grupo 1227609">
          <path id="Trazado_1182814" data-name="Trazado 1182814" d="M26,48v4H22V48h4Z" fill="#d3a06c"/>
        </g>
        <g id="Grupo_1227610" data-name="Grupo 1227610">
          <path id="Trazado_1182815" data-name="Trazado 1182815" d="M28,45v3H24V45a1,1,0,0,1,1-1h2A1,1,0,0,1,28,45Z" fill="#d3a06c"/>
        </g>
        <g id="Grupo_1227611" data-name="Grupo 1227611">
          <path id="Trazado_1182816" data-name="Trazado 1182816" d="M12,39v3H8V39a1.007,1.007,0,0,1,.37-.78A.985.985,0,0,1,9,38h2A1,1,0,0,1,12,39Z" fill="#ccd1d9"/>
        </g>
        <g id="Grupo_1227612" data-name="Grupo 1227612">
          <path id="Trazado_1182817" data-name="Trazado 1182817" d="M39.27,50.29A2.46,2.46,0,0,1,39.2,50a10.013,10.013,0,0,1,4.27-10.33A10,10,0,0,1,59,48a10,10,0,0,1-19.73,2.29Z" fill="#fcd770"/>
        </g>
        <g id="Grupo_1227613" data-name="Grupo 1227613">
          <path id="Trazado_1182818" data-name="Trazado 1182818" d="M24.73,17.71A9.573,9.573,0,0,1,25,20a10.051,10.051,0,1,1-.27-2.29Z" fill="#fcd770"/>
        </g>
      </g>
      <g id="Grupo_1227615" data-name="Grupo 1227615">
        <path id="Trazado_1182819" data-name="Trazado 1182819" d="M17,55h2v2H17Z"/>
        <path id="Trazado_1182820" data-name="Trazado 1182820" d="M21,55h2v2H21Z"/>
        <path id="Trazado_1182821" data-name="Trazado 1182821" d="M25,55h2v2H25Z"/>
        <path id="Trazado_1182822" data-name="Trazado 1182822" d="M9,45h2v2H9Z"/>
        <path id="Trazado_1182823" data-name="Trazado 1182823" d="M13,45h2v2H13Z"/>
        <path id="Trazado_1182824" data-name="Trazado 1182824" d="M60.08,1H58.618a1.99,1.99,0,0,0-1.789,1.105L55.382,5H34a7.007,7.007,0,0,0-6.5,4.42,24.8,24.8,0,0,0-5.853,1.836A10.982,10.982,0,0,0,7.69,28.2a24.41,24.41,0,0,0-.367,9.721A1.98,1.98,0,0,0,7,39v2a2,2,0,0,0-2,2v6H3a2,2,0,0,0-2,2v3a9.01,9.01,0,0,0,9,9H26a9,9,0,0,0,7.511-4.053,24.726,24.726,0,0,0,8.844-2.2A10.982,10.982,0,0,0,56.305,39.8,24.88,24.88,0,0,0,48.231,15h3.151l2.447,4.9A1.99,1.99,0,0,0,55.618,21H57a2,2,0,0,0,2-2V14.871a4.29,4.29,0,0,0,3.294-3.756l.7-6.953C63,4.081,63,4,63,3.92A2.923,2.923,0,0,0,60.08,1ZM37.117,15l.5,4H25.949q-.05-.545-.152-1.074A28.96,28.96,0,0,1,28.44,14.55,2.971,2.971,0,0,0,30,15ZM54.97,33H44.976A31.007,31.007,0,0,0,42.81,22.392a2,2,0,0,0,.361-.5L43.618,21h7.347A23.022,23.022,0,0,1,54.97,33ZM38,48c0,.338.021.67.051,1H31a2,2,0,0,0-2-2V45a2,2,0,0,0-2-2H25a2,2,0,0,0-1.98,1.8A28.979,28.979,0,0,1,21.028,35H42.977a30.192,30.192,0,0,1-.424,4.107A10.98,10.98,0,0,0,38,48Zm-5,3h4.572A29.324,29.324,0,0,1,35,54.085c0-.028,0-.056,0-.085V53A2,2,0,0,0,33,51ZM11,37H9.216q-.129-.994-.173-2h9.985A30.858,30.858,0,0,0,21.31,45.9L17,41.586A1.986,1.986,0,0,0,15.586,41H13V39A2,2,0,0,0,11,37ZM27,47H25V45h2Zm-4,2h2v2H23Zm4,0h2v2H27Zm11.963,3.479a11,11,0,0,0,1.8,2.782A22.693,22.693,0,0,1,35.1,56.789a30.362,30.362,0,0,0,3.866-4.31ZM41.382,21h-1.5l-.876-7.01A.759.759,0,0,1,39,13.883.884.884,0,0,1,39.883,13h4.5a.618.618,0,0,1,.553.894Zm-1.5,2H40.9a28.962,28.962,0,0,1,2.076,10H21.022a30.455,30.455,0,0,1,.41-4.1A10.99,10.99,0,0,0,25.949,21H37.867l.031.248A2,2,0,0,0,39.883,23ZM27.167,12.946a30.777,30.777,0,0,0-2.132,2.572,11.017,11.017,0,0,0-1.8-2.781,22.741,22.741,0,0,1,3.783-1.187c-.009.149-.022.3-.022.45a2.971,2.971,0,0,0,.167.946ZM6,20a9,9,0,1,1,9,9A9.01,9.01,0,0,1,6,20Zm9,11a10.942,10.942,0,0,0,4.235-.85q-.168,1.416-.213,2.85H9.032a23.175,23.175,0,0,1,.414-3.521A10.922,10.922,0,0,0,15,31ZM9,39h2v2H9ZM7,43h8.586L21,48.414V51H13.414L12,49.586A1.986,1.986,0,0,0,10.586,49H7ZM26,61H10a7.008,7.008,0,0,1-7-7V51h7.586L12,52.414A1.986,1.986,0,0,0,13.414,53H33v1A7.008,7.008,0,0,1,26,61ZM58,48a9,9,0,1,1-9-9A9.01,9.01,0,0,1,58,48ZM49,37a10.944,10.944,0,0,0-4.243.853c.117-.954.19-1.9.22-2.853h9.99a23.135,23.135,0,0,1-.418,3.518A10.921,10.921,0,0,0,49,37Zm.427-18H44.618l1.554-3.108A22.987,22.987,0,0,1,49.427,19ZM57,19H55.618l-2.553-5.1a.619.619,0,0,1,.553-.9H57Zm3.3-8.085a2.3,2.3,0,0,1-1.326,1.861A2,2,0,0,0,57,11H53.618a2.616,2.616,0,0,0-2.536,2H46.919a2.617,2.617,0,0,0-2.536-2h-4.5a2.877,2.877,0,0,0-2.73,2H30a1,1,0,0,1-1-1,5,5,0,0,1,.1-1H33V9H30.026A4.977,4.977,0,0,1,34,7H55.382a1.99,1.99,0,0,0,1.789-1.105L58.618,3H60.08A.933.933,0,0,1,61,3.98Z"/>
        <path id="Trazado_1182825" data-name="Trazado 1182825" d="M14,24.816V27h2V25h2V22a3,3,0,0,0-3-3,1,1,0,0,1-1-1V17h1a1,1,0,0,1,1,1v1h2V18a3,3,0,0,0-2-2.816V13H14v2H12v3a3,3,0,0,0,3,3,1,1,0,0,1,1,1v1H15a1,1,0,0,1-1-1V21H12v1A3,3,0,0,0,14,24.816Z"/>
        <path id="Trazado_1182826" data-name="Trazado 1182826" d="M50,43.184V41H48v2H46v3a3,3,0,0,0,3,3,1,1,0,0,1,1,1v1H49a1,1,0,0,1-1-1V49H46v1a3,3,0,0,0,2,2.816V55h2V53h2V50a3,3,0,0,0-3-3,1,1,0,0,1-1-1V45h1a1,1,0,0,1,1,1v1h2V46A3,3,0,0,0,50,43.184Z"/>
      </g>
    </g>
  </g>
</svg>
