<svg xmlns="http://www.w3.org/2000/svg" xmlns:xlink="http://www.w3.org/1999/xlink" width="106.16" height="106.16" viewBox="0 0 106.16 106.16">
  <defs>
    <filter id="Trazado_982547" x="0" y="0" width="106.16" height="106.16" filterUnits="userSpaceOnUse">
      <feOffset dy="3" input="SourceAlpha"/>
      <feGaussianBlur stdDeviation="3" result="blur"/>
      <feFlood flood-opacity="0.161"/>
      <feComposite operator="in" in2="blur"/>
      <feComposite in="SourceGraphic"/>
    </filter>
  </defs>
  <g id="Grupo_1227700" data-name="Grupo 1227700" transform="translate(-190.42 -3217)">
    <g id="Grupo_1226939" data-name="Grupo 1226939" transform="translate(0 2523)">
      <g id="Grupo_1224871" data-name="Grupo 1224871" transform="translate(-420.5 -1187.069)">
        <g id="Grupo_1206132" data-name="Grupo 1206132" transform="translate(0 -58.931)">
          <g id="Grupo_1203794" data-name="Grupo 1203794" transform="translate(0 -4639.878)">
            <g id="Grupo_1203345" data-name="Grupo 1203345" transform="translate(338.92 5174.875)">
              <g id="Grupo_1177900" data-name="Grupo 1177900" transform="translate(281 1411.003)">
                <g id="Grupo_1172010" data-name="Grupo 1172010" transform="translate(0)">
                  <g id="Grupo_1171046" data-name="Grupo 1171046">
                    <g id="Grupo_1148525" data-name="Grupo 1148525">
                      <g transform="matrix(1, 0, 0, 1, -9, -6)" filter="url(#Trazado_982547)">
                        <g id="Trazado_982547-2" data-name="Trazado 982547" transform="translate(9 6)" fill="#e9f9fd">
                          <path d="M 44.0802001953125 86.660400390625 C 38.33124923706055 86.660400390625 32.75506210327148 85.53479766845703 27.50652503967285 83.31484985351562 C 22.43628692626953 81.17032623291016 17.88242530822754 78.09992218017578 13.97144985198975 74.18894958496094 C 10.06047534942627 70.27797698974609 6.99007511138916 65.72411346435547 4.845550060272217 60.65387344360352 C 2.625600099563599 55.40533828735352 1.500000238418579 49.82915115356445 1.500000238418579 44.0802001953125 C 1.500000238418579 38.33124923706055 2.625600099563599 32.75506210327148 4.845550060272217 27.50652503967285 C 6.99007511138916 22.43628692626953 10.06047534942627 17.88242530822754 13.97144985198975 13.97144985198975 C 17.88242530822754 10.06047534942627 22.43628692626953 6.99007511138916 27.50652503967285 4.845550060272217 C 32.75506210327148 2.625600099563599 38.33124923706055 1.500000238418579 44.0802001953125 1.500000238418579 C 49.82915115356445 1.500000238418579 55.40533828735352 2.625600099563599 60.65387344360352 4.845550060272217 C 65.72411346435547 6.99007511138916 70.27797698974609 10.06047534942627 74.18894958496094 13.97144985198975 C 78.09992218017578 17.88242530822754 81.17032623291016 22.43628692626953 83.31484985351562 27.50652503967285 C 85.53479766845703 32.75506210327148 86.660400390625 38.33124923706055 86.660400390625 44.0802001953125 C 86.660400390625 49.82915115356445 85.53479766845703 55.40533828735352 83.31484985351562 60.65387344360352 C 81.17032623291016 65.72411346435547 78.09992218017578 70.27797698974609 74.18894958496094 74.18894958496094 C 70.27797698974609 78.09992218017578 65.72411346435547 81.17032623291016 60.65387344360352 83.31484985351562 C 55.40533828735352 85.53479766845703 49.82915115356445 86.660400390625 44.0802001953125 86.660400390625 Z" stroke="none"/>
                          <path d="M 44.0802001953125 3 C 38.53308486938477 3 33.15349960327148 4.085746765136719 28.09085845947266 6.227058410644531 C 23.19941711425781 8.29595947265625 18.80581665039062 11.25841522216797 15.03211212158203 15.03211212158203 C 11.25841522216797 18.80581665039062 8.29595947265625 23.19941711425781 6.227058410644531 28.09085845947266 C 4.085746765136719 33.15349960327148 3 38.53308486938477 3 44.0802001953125 C 3 49.62731552124023 4.085746765136719 55.00691604614258 6.227058410644531 60.06954193115234 C 8.29595947265625 64.96098327636719 11.25841522216797 69.35458374023438 15.03211212158203 73.12828826904297 C 18.80581665039062 76.90198516845703 23.19941711425781 79.86444091796875 28.09085845947266 81.93334197998047 C 33.15349960327148 84.07466125488281 38.53308486938477 85.160400390625 44.0802001953125 85.160400390625 C 49.62731552124023 85.160400390625 55.00691604614258 84.07466125488281 60.06954193115234 81.93334197998047 C 64.96099853515625 79.86444091796875 69.35458374023438 76.90198516845703 73.12828826904297 73.12828826904297 C 76.90198516845703 69.35458374023438 79.86444091796875 64.96099853515625 81.93334197998047 60.06954193115234 C 84.07466125488281 55.00691604614258 85.160400390625 49.62731552124023 85.160400390625 44.0802001953125 C 85.160400390625 38.53308486938477 84.07466125488281 33.15349960327148 81.93334197998047 28.09085845947266 C 79.86444091796875 23.19941711425781 76.90198516845703 18.80581665039062 73.12828826904297 15.03211212158203 C 69.35458374023438 11.25841522216797 64.96098327636719 8.29595947265625 60.06954193115234 6.227058410644531 C 55.00691604614258 4.085746765136719 49.62731552124023 3 44.0802001953125 3 M 44.0802001953125 0 C 68.42502593994141 0 88.160400390625 19.73538970947266 88.160400390625 44.0802001953125 C 88.160400390625 68.42502593994141 68.42502593994141 88.160400390625 44.0802001953125 88.160400390625 C 19.73538970947266 88.160400390625 0 68.42502593994141 0 44.0802001953125 C 0 19.73538970947266 19.73538970947266 0 44.0802001953125 0 Z" stroke="none" fill="#1d7083"/>
                        </g>
                      </g>
                    </g>
                  </g>
                </g>
              </g>
            </g>
          </g>
        </g>
      </g>
    </g>
    <g id="tarifa-bancaria" transform="translate(213.169 3224.155)">
      <g id="Grupo_1227699" data-name="Grupo 1227699" transform="translate(1.919 15.282)">
        <g id="Grupo_1227697" data-name="Grupo 1227697" transform="translate(0 0)">
          <path id="Trazado_1183112" data-name="Trazado 1183112" d="M96.893,174.6l1.055,26.03h-7.8l1.055-26.03Zm-33.307,0,1.055,26.03h-7.8L57.9,174.6Zm11.1,0,1.055,26.03h-7.8L69,174.6Zm11.1,0,1.055,26.03h-7.8L80.1,174.6Z" transform="translate(-51.342 -157.086)" fill="#8d9ca8" fill-rule="evenodd"/>
          <path id="Trazado_1183113" data-name="Trazado 1183113" d="M28.724,178.1H72.562l2.11,5.066H26.614Zm-1.582-28.8h47l-2.11,4.841H29.251Z" transform="translate(-24.588 -134.703)" fill="#7a8c98" fill-rule="evenodd"/>
          <path id="Trazado_1183114" data-name="Trazado 1183114" d="M10.056,69.182h50l1.055,3.291H9Zm25-46.819L61.11,35.987l-1.055,2.325h-50L9,35.987Z" transform="translate(-9.001 -22.363)" fill="#8d9ca8" fill-rule="evenodd"/>
          <circle id="Elipse_12715" data-name="Elipse 12715" cx="3.782" cy="3.782" r="3.782" transform="translate(21.988 12.024) rotate(-85.241)" fill="#eff4f7"/>
        </g>
        <g id="Grupo_1227698" data-name="Grupo 1227698" transform="translate(38.046 34.972)">
          <circle id="Elipse_12716" data-name="Elipse 12716" cx="9.388" cy="9.388" r="9.388" fill="#fc685b"/>
        </g>
        <path id="Trazado_1183115" data-name="Trazado 1183115" d="M436.414,207.575h-1.723a.468.468,0,0,1-.37-.754l3.485-4.51a.468.468,0,0,1,.741,0l3.485,4.51a.468.468,0,0,1-.371.754H439.94v6.214a.615.615,0,0,1-.613.613h-2.3a.615.615,0,0,1-.613-.613v-6.214Z" transform="translate(-385.311 -181.451)" fill="#ffda2d" fill-rule="evenodd"/>
      </g>
      <path id="Trazado_1183116" data-name="Trazado 1183116" d="M57.35,40.485h-.8a.92.92,0,0,0-.92.92v5.908H53.943V41.405a.92.92,0,0,0-.92-.92h-.8l2.565-3.318Zm-2.564-5.447a1.379,1.379,0,0,0-1.1.54L50.2,40.089a1.388,1.388,0,0,0,1.1,2.237h.8V47.62a1.535,1.535,0,0,0,1.534,1.533h2.3a1.535,1.535,0,0,0,1.534-1.533V42.326h.8a1.388,1.388,0,0,0,1.1-2.237l-3.485-4.51a1.381,1.381,0,0,0-1.1-.54ZM52.4,63.644a.958.958,0,1,1,.959-.958A.96.96,0,0,1,52.4,63.644Zm0-3.757a2.8,2.8,0,1,0,2.8,2.8A2.8,2.8,0,0,0,52.4,59.887ZM45.35,56.6a.958.958,0,1,1,.958.958A.96.96,0,0,1,45.35,56.6Zm3.756,0a2.8,2.8,0,1,0-2.8,2.8A2.8,2.8,0,0,0,49.106,56.6Zm4.446.148a.921.921,0,1,0-1.3-1.3l-7.1,7.1a.92.92,0,1,0,1.3,1.3Zm-4.2,11.365a8.468,8.468,0,1,0-8.468-8.468A8.477,8.477,0,0,0,49.353,68.11ZM3.18,64.473l.465-1.452H39.614a10.2,10.2,0,0,0,.635,1.452ZM6.668,59.6H39.046c0,.014,0,.027,0,.04a10.274,10.274,0,0,0,.116,1.54H6.01ZM9.282,35.644h4.075l.9,22.117H8.386ZM6.464,32.151H49.483l-.72,1.652H7.184ZM3.117,29.318l24.857-13,24.857,13-.45.993H3.567ZM38.3,57.761l-.9-22.117h3.344l-.8,19.783a10.2,10.2,0,0,0-.729,2.334ZM31.488,35.644h4.075l.9,22.117H30.592ZM27.2,57.761l-.9-22.117h3.345l-.9,22.117ZM20.385,35.644H24.46l.9,22.117H19.488Zm-4.29,22.117-.9-22.117h3.343l-.9,22.117Zm31.134-8.207a10.3,10.3,0,0,0-5.322,2.968l.683-16.877h4.075Zm2.124-.221c-.1,0-.194,0-.291,0l-.556-13.693h.859a.92.92,0,0,0,.844-.553l1.281-2.94h1.483a.921.921,0,0,0,.838-.54l1.055-2.325a.92.92,0,0,0-.412-1.2L28.4,14.466a.92.92,0,0,0-.853,0L1.493,28.091a.921.921,0,0,0-.412,1.2l1.055,2.325a.922.922,0,0,0,.839.54H4.457l1.281,2.94a.919.919,0,0,0,.843.553h.859l-.9,22.117h-.49a.922.922,0,0,0-.85.566L4.017,61.181H2.974a.921.921,0,0,0-.877.639L1.043,65.112a.92.92,0,0,0,.877,1.2H41.5a10.306,10.306,0,1,0,7.852-16.98ZM27.974,20.993a2.862,2.862,0,1,0,2.862,2.862,2.865,2.865,0,0,0-2.862-2.862Zm0,7.564a4.7,4.7,0,1,0-4.7-4.7A4.708,4.708,0,0,0,27.974,28.557Z" transform="translate(0)" fill-rule="evenodd"/>
    </g>
  </g>
</svg>
