<svg xmlns="http://www.w3.org/2000/svg" xmlns:xlink="http://www.w3.org/1999/xlink" width="103" height="103" viewBox="0 0 103 103">
  <defs>
    <filter id="Trazado_978624" x="0" y="0" width="103" height="103" filterUnits="userSpaceOnUse">
      <feOffset dy="3" input="SourceAlpha"/>
      <feGaussianBlur stdDeviation="3" result="blur"/>
      <feFlood flood-opacity="0.161"/>
      <feComposite operator="in" in2="blur"/>
      <feComposite in="SourceGraphic"/>
    </filter>
  </defs>
  <g id="Grupo_1227634" data-name="Grupo 1227634" transform="translate(-171 -2502)">
    <g id="Grupo_1226923" data-name="Grupo 1226923" transform="translate(0 -3126)">
      <g id="Grupo_1225491" data-name="Grupo 1225491" transform="translate(0 2547)">
        <g id="Grupo_1225104" data-name="Grupo 1225104" transform="translate(0 2068)">
          <g id="Grupo_1220654" data-name="Grupo 1220654" transform="translate(180 1019)">
            <g id="Grupo_1176881" data-name="Grupo 1176881">
              <g id="Grupo_1175148" data-name="Grupo 1175148">
                <g id="Grupo_1173798" data-name="Grupo 1173798">
                  <g id="Grupo_1171925" data-name="Grupo 1171925">
                    <g id="Grupo_1164524" data-name="Grupo 1164524">
                      <g id="Grupo_1144123" data-name="Grupo 1144123">
                        <g transform="matrix(1, 0, 0, 1, -9, -6)" filter="url(#Trazado_978624)">
                          <g id="Trazado_978624-2" data-name="Trazado 978624" transform="translate(9 6)" fill="#e9f9fd">
                            <path d="M 42.5 83.5 C 36.96437835693359 83.5 31.59512901306152 82.41617584228516 26.54141235351562 80.27863311767578 C 21.65934181213379 78.21369171142578 17.27447128295898 75.25723266601562 13.50862312316895 71.49137878417969 C 9.742764472961426 67.72553253173828 6.786305904388428 63.34066009521484 4.721364498138428 58.45858764648438 C 2.583823442459106 53.40486907958984 1.5 48.03562164306641 1.5 42.5 C 1.5 36.96437835693359 2.583823442459106 31.59512901306152 4.721364498138428 26.54141235351562 C 6.786305904388428 21.65934181213379 9.742764472961426 17.27447128295898 13.50862312316895 13.50862312316895 C 17.27447128295898 9.742764472961426 21.65934181213379 6.786305904388428 26.54141235351562 4.721364498138428 C 31.59512901306152 2.583823442459106 36.96437835693359 1.5 42.5 1.5 C 48.03562164306641 1.5 53.40486907958984 2.583823442459106 58.45858764648438 4.721364498138428 C 63.34066009521484 6.786305904388428 67.72553253173828 9.742764472961426 71.49137878417969 13.50862312316895 C 75.25723266601562 17.27447128295898 78.21369171142578 21.65934181213379 80.27863311767578 26.54141235351562 C 82.41617584228516 31.59512901306152 83.5 36.96437835693359 83.5 42.5 C 83.5 48.03562164306641 82.41617584228516 53.40486907958984 80.27863311767578 58.45858764648438 C 78.21369171142578 63.34066009521484 75.25723266601562 67.72553253173828 71.49137878417969 71.49137878417969 C 67.72553253173828 75.25723266601562 63.34066009521484 78.21369171142578 58.45858764648438 80.27863311767578 C 53.40486907958984 82.41617584228516 48.03562164306641 83.5 42.5 83.5 Z" stroke="none"/>
                            <path d="M 42.5 3 C 37.16621398925781 3 31.99356079101562 4.043960571289062 27.125732421875 6.102882385253906 C 22.42246627807617 8.092185974121094 18.19785308837891 10.94070434570312 14.56928253173828 14.56928253173828 C 10.94070434570312 18.19785308837891 8.092185974121094 22.42246627807617 6.102882385253906 27.125732421875 C 4.043960571289062 31.99356079101562 3 37.16621398925781 3 42.5 C 3 47.83378601074219 4.043960571289062 53.00643920898438 6.102882385253906 57.87425231933594 C 8.092185974121094 62.57753372192383 10.94070434570312 66.80213165283203 14.56928253173828 70.43071746826172 C 18.19786834716797 74.05929565429688 22.42246627807617 76.90781402587891 27.125732421875 78.89711761474609 C 31.99356079101562 80.95603942871094 37.16621398925781 82 42.5 82 C 47.83378601074219 82 53.00642395019531 80.95603942871094 57.87425231933594 78.89711761474609 C 62.57753372192383 76.90781402587891 66.80213165283203 74.05929565429688 70.43071746826172 70.43071746826172 C 74.05929565429688 66.80213165283203 76.90781402587891 62.57753372192383 78.89711761474609 57.87425231933594 C 80.95603942871094 53.00642395019531 82 47.83378601074219 82 42.5 C 82 37.16621398925781 80.95603942871094 31.99356079101562 78.89711761474609 27.125732421875 C 76.90781402587891 22.42246627807617 74.05929565429688 18.19786834716797 70.43071746826172 14.56928253173828 C 66.80213165283203 10.94070434570312 62.57753372192383 8.092185974121094 57.87425231933594 6.102882385253906 C 53.00643920898438 4.043960571289062 47.83378601074219 3 42.5 3 M 42.5 0 C 65.97209167480469 0 85 19.02789306640625 85 42.5 C 85 65.97209167480469 65.97209167480469 85 42.5 85 C 19.02789306640625 85 0 65.97209167480469 0 42.5 C 0 19.02789306640625 19.02789306640625 0 42.5 0 Z" stroke="none" fill="#36ceef"/>
                          </g>
                        </g>
                      </g>
                    </g>
                  </g>
                </g>
              </g>
            </g>
          </g>
        </g>
      </g>
    </g>
    <g id="bombilla" transform="translate(163.961 2518.501)">
      <g id="Grupo_1227632" data-name="Grupo 1227632" transform="translate(29.359 0.843)">
        <path id="Trazado_1182841" data-name="Trazado 1182841" d="M119.155,6.622a19.892,19.892,0,0,0-10.132,37.026,3.422,3.422,0,0,1,1.669,2.949v4.845a1.617,1.617,0,0,1,.625-.125h15.622a1.619,1.619,0,0,1,.625.125V46.6a3.458,3.458,0,0,1,1.7-2.969A19.892,19.892,0,0,0,119.155,6.622Z" transform="translate(-90.375 -6.622)" fill="#ffe07d"/>
        <g id="Grupo_1227624" data-name="Grupo 1227624" transform="translate(8.862)">
          <path id="Trazado_1182842" data-name="Trazado 1182842" d="M115.949,46.6a3.422,3.422,0,0,0-1.669-2.949A19.893,19.893,0,0,1,121.762,6.8a19.893,19.893,0,0,0-12.739,36.852,3.422,3.422,0,0,1,1.669,2.949v4.845a1.617,1.617,0,0,1,.625-.125h4.632Z" transform="translate(-99.237 -6.622)" fill="#ffc250"/>
        </g>
        <g id="Grupo_1227625" data-name="Grupo 1227625" transform="translate(34.819 5.361)">
          <path id="Trazado_1182843" data-name="Trazado 1182843" d="M311.127,59.411a13.826,13.826,0,0,0-7.276-8.824.954.954,0,0,1,.84-1.713,15.733,15.733,0,0,1,8.279,10.043.954.954,0,0,1-1.843.495Z" transform="translate(-303.317 -48.776)" fill="#ffeac8"/>
        </g>
        <path id="Trazado_1182844" data-name="Trazado 1182844" d="M225.341,467.843v.7a3.852,3.852,0,1,0,7.7,0v-.7Z" transform="translate(-200.44 -409.181)" fill="#8479c2"/>
        <path id="Trazado_1182845" data-name="Trazado 1182845" d="M228.788,468.541v-.7H225.34v.7a3.863,3.863,0,0,0,3.852,3.852,3.817,3.817,0,0,0,1.724-.411A3.863,3.863,0,0,1,228.788,468.541Z" transform="translate(-200.439 -409.18)" fill="#6e60b8"/>
        <g id="Grupo_1227626" data-name="Grupo 1227626" transform="translate(0 18.428)">
          <path id="Trazado_1182846" data-name="Trazado 1182846" d="M33.794,153.416H30.513a.954.954,0,0,1,0-1.908h3.281a.954.954,0,1,1,0,1.908Z" transform="translate(-29.559 -151.508)" fill="#ffc250"/>
        </g>
        <g id="Grupo_1227627" data-name="Grupo 1227627" transform="translate(1.488 11.272)">
          <path id="Trazado_1182847" data-name="Trazado 1182847" d="M44.944,98.256l-3.068-1.164a.954.954,0,0,1,.677-1.784l3.068,1.164a.954.954,0,0,1-.677,1.784Z" transform="translate(-41.26 -95.246)" fill="#ffc250"/>
        </g>
        <g id="Grupo_1227628" data-name="Grupo 1227628" transform="translate(1.488 24.419)">
          <path id="Trazado_1182848" data-name="Trazado 1182848" d="M41.322,201.069a.954.954,0,0,1,.553-1.23l3.068-1.164a.954.954,0,1,1,.677,1.784l-3.068,1.164A.954.954,0,0,1,41.322,201.069Z" transform="translate(-41.26 -198.612)" fill="#ffc250"/>
        </g>
        <g id="Grupo_1227629" data-name="Grupo 1227629" transform="translate(52.317 18.428)">
          <path id="Trazado_1182849" data-name="Trazado 1182849" d="M445.13,153.416h-3.282a.954.954,0,1,1,0-1.908h3.282a.954.954,0,1,1,0,1.908Z" transform="translate(-440.894 -151.508)" fill="#ffc250"/>
        </g>
        <g id="Grupo_1227630" data-name="Grupo 1227630" transform="translate(51.042 11.272)">
          <path id="Trazado_1182850" data-name="Trazado 1182850" d="M430.93,97.7a.954.954,0,0,1,.553-1.23l3.068-1.164a.954.954,0,1,1,.677,1.784l-3.068,1.164A.954.954,0,0,1,430.93,97.7Z" transform="translate(-430.868 -95.246)" fill="#ffc250"/>
        </g>
        <g id="Grupo_1227631" data-name="Grupo 1227631" transform="translate(51.042 24.419)">
          <path id="Trazado_1182851" data-name="Trazado 1182851" d="M434.553,201.623l-3.068-1.164a.954.954,0,1,1,.677-1.784l3.068,1.164a.954.954,0,0,1-.677,1.784Z" transform="translate(-430.869 -198.612)" fill="#ffc250"/>
        </g>
        <path id="Trazado_1182852" data-name="Trazado 1182852" d="M205.931,430.987H192.851a1.657,1.657,0,0,0-1.655,1.655v1.409a1.657,1.657,0,0,0,1.655,1.655H205.93a1.657,1.657,0,0,0,1.655-1.655v-1.409A1.657,1.657,0,0,0,205.931,430.987Z" transform="translate(-170.638 -377.012)" fill="#efecef"/>
        <path id="Trazado_1182853" data-name="Trazado 1182853" d="M205.931,441.444H192.851a1.657,1.657,0,0,1-1.585-1.18,1.649,1.649,0,0,0-.07.475v1.409a1.657,1.657,0,0,0,1.655,1.655H205.93a1.657,1.657,0,0,0,1.655-1.655v-1.409a1.649,1.649,0,0,0-.07-.475A1.658,1.658,0,0,1,205.931,441.444Z" transform="translate(-170.638 -385.11)" fill="#e2dfe2"/>
        <path id="Trazado_1182854" data-name="Trazado 1182854" d="M198.479,394.381H182.857a1.657,1.657,0,0,0-1.655,1.655v1.409a1.657,1.657,0,0,0,1.655,1.655h15.622a1.657,1.657,0,0,0,1.655-1.655v-1.409A1.657,1.657,0,0,0,198.479,394.381Z" transform="translate(-161.915 -345.062)" fill="#efecef"/>
        <path id="Trazado_1182855" data-name="Trazado 1182855" d="M198.479,404.837H182.857a1.658,1.658,0,0,1-1.585-1.18,1.648,1.648,0,0,0-.07.475v1.409a1.657,1.657,0,0,0,1.655,1.655h15.622a1.657,1.657,0,0,0,1.655-1.655v-1.409a1.648,1.648,0,0,0-.07-.475A1.657,1.657,0,0,1,198.479,404.837Z" transform="translate(-161.915 -353.159)" fill="#e2dfe2"/>
        <path id="Trazado_1182856" data-name="Trazado 1182856" d="M198.479,357.775H182.857a1.657,1.657,0,0,0-1.655,1.655v1.409a1.657,1.657,0,0,0,1.655,1.655h15.622a1.657,1.657,0,0,0,1.655-1.655V359.43A1.657,1.657,0,0,0,198.479,357.775Z" transform="translate(-161.915 -313.112)" fill="#efecef"/>
        <path id="Trazado_1182857" data-name="Trazado 1182857" d="M198.479,368.232H182.857a1.658,1.658,0,0,1-1.585-1.18,1.649,1.649,0,0,0-.07.475v1.409a1.657,1.657,0,0,0,1.655,1.655h15.622a1.657,1.657,0,0,0,1.655-1.655v-1.409a1.649,1.649,0,0,0-.07-.475A1.657,1.657,0,0,1,198.479,368.232Z" transform="translate(-161.915 -321.209)" fill="#e2dfe2"/>
      </g>
      <g id="Grupo_1227633" data-name="Grupo 1227633" transform="translate(29.33 0.001)">
        <path id="Trazado_1182858" data-name="Trazado 1182858" d="M304.462,48.775a.954.954,0,1,0-.84,1.713,13.826,13.826,0,0,1,7.276,8.824.954.954,0,0,0,1.843-.495A15.734,15.734,0,0,0,304.462,48.775Z" transform="translate(-268.269 -42.486)"/>
        <path id="Trazado_1182859" data-name="Trazado 1182859" d="M34.519,152.364a.954.954,0,0,0-.954-.954H30.284a.954.954,0,0,0,0,1.908h3.281A.954.954,0,0,0,34.519,152.364Z" transform="translate(-29.33 -132.152)"/>
        <path id="Trazado_1182860" data-name="Trazado 1182860" d="M45.392,96.373l-3.068-1.164a.954.954,0,1,0-.677,1.784l3.068,1.164a.954.954,0,0,0,.677-1.784Z" transform="translate(-39.543 -83.045)"/>
        <path id="Trazado_1182861" data-name="Trazado 1182861" d="M44.715,198.576l-3.068,1.164a.954.954,0,0,0,.677,1.784l3.068-1.164a.954.954,0,0,0-.677-1.784Z" transform="translate(-39.543 -173.265)"/>
        <path id="Trazado_1182862" data-name="Trazado 1182862" d="M444.9,151.41h-3.282a.954.954,0,1,0,0,1.908H444.9a.954.954,0,0,0,0-1.908Z" transform="translate(-388.348 -132.152)"/>
        <path id="Trazado_1182863" data-name="Trazado 1182863" d="M431.933,98.158,435,96.993a.954.954,0,1,0-.677-1.784l-3.068,1.164a.954.954,0,1,0,.677,1.784Z" transform="translate(-379.598 -83.046)"/>
        <path id="Trazado_1182864" data-name="Trazado 1182864" d="M435,199.74l-3.068-1.164a.954.954,0,1,0-.677,1.784l3.068,1.164A.954.954,0,0,0,435,199.74Z" transform="translate(-379.598 -173.265)"/>
        <path id="Trazado_1182865" data-name="Trazado 1182865" d="M266.247,1.9a18.888,18.888,0,0,1,16.638,16.214.954.954,0,1,0,1.89-.26A20.854,20.854,0,0,0,266.458.007a.954.954,0,0,0-.211,1.9Z" transform="translate(-235.373 -0.001)"/>
        <path id="Trazado_1182866" data-name="Trazado 1182866" d="M132.251,21.493a.956.956,0,0,0-1.032.869,18.973,18.973,0,0,1-9.212,14.659,4.434,4.434,0,0,0-2.171,3.79v3.766H115.8V36.993a2,2,0,0,1,.415-1.217l1.365-1.767a3.919,3.919,0,0,0,.813-2.383v-6.9a.954.954,0,0,0,0-1.908v-.1a.954.954,0,0,0-1.908,0v.1h-8.262v-.1a.954.954,0,1,0-1.908,0v.1a.954.954,0,0,0,0,1.908v6.9a3.919,3.919,0,0,0,.813,2.383l1.365,1.767a2,2,0,0,1,.415,1.217v7.583h-4.037V40.81a4.391,4.391,0,0,0-2.138-3.77,18.938,18.938,0,0,1,7.5-35.131.954.954,0,0,0-.212-1.9,20.846,20.846,0,0,0-8.259,38.669,2.476,2.476,0,0,1,1.2,2.128v4.311a2.572,2.572,0,0,0-1,2.032v1.409a2.565,2.565,0,0,0,.578,1.623,2.564,2.564,0,0,0-.578,1.623v1.409a2.578,2.578,0,0,0,1.449,2.314,2.561,2.561,0,0,0-.178.933v1.409a2.58,2.58,0,0,0,2.577,2.577h1.74a4.806,4.806,0,0,0,9.6,0h1.74a2.58,2.58,0,0,0,2.577-2.577V56.465a2.561,2.561,0,0,0-.178-.933,2.578,2.578,0,0,0,1.449-2.314V51.809a2.565,2.565,0,0,0-.578-1.623,2.564,2.564,0,0,0,.578-1.623V47.153a2.572,2.572,0,0,0-1-2.032V40.81a2.518,2.518,0,0,1,1.237-2.149,20.885,20.885,0,0,0,10.138-16.137.954.954,0,0,0-.869-1.031Zm-23.612,11.35a2,2,0,0,1-.415-1.217v-6.9h8.262v6.9a2,2,0,0,1-.415,1.217l-1.365,1.767a3.919,3.919,0,0,0-.813,2.383v7.583h-3.075V36.993A3.919,3.919,0,0,0,110,34.61Zm3.716,30.252a2.9,2.9,0,0,1-2.887-2.643h5.774A2.9,2.9,0,0,1,112.355,63.095Zm7.209-5.22a.67.67,0,0,1-.67.67H105.815a.67.67,0,0,1-.67-.67V56.465a.67.67,0,0,1,.67-.67h13.079a.67.67,0,0,1,.67.67Zm1.271-4.656a.67.67,0,0,1-.67.67H104.544a.67.67,0,0,1-.67-.67V51.809a.67.67,0,0,1,.67-.67h15.621a.67.67,0,0,1,.67.67Zm0-4.656a.67.67,0,0,1-.67.67H104.544a.67.67,0,0,1-.67-.67V47.153a.675.675,0,0,1,.67-.67h15.621a.674.674,0,0,1,.67.67Z" transform="translate(-83.601 -0.006)"/>
      </g>
    </g>
  </g>
</svg>
