<svg xmlns="http://www.w3.org/2000/svg" xmlns:xlink="http://www.w3.org/1999/xlink" width="106.16" height="106.16" viewBox="0 0 106.16 106.16">
  <defs>
    <filter id="Trazado_982547" x="0" y="0" width="106.16" height="106.16" filterUnits="userSpaceOnUse">
      <feOffset dy="3" input="SourceAlpha"/>
      <feGaussianBlur stdDeviation="3" result="blur"/>
      <feFlood flood-opacity="0.161"/>
      <feComposite operator="in" in2="blur"/>
      <feComposite in="SourceGraphic"/>
    </filter>
  </defs>
  <g id="Grupo_1227704" data-name="Grupo 1227704" transform="translate(-820.42 -3217)">
    <g id="Grupo_1226940" data-name="Grupo 1226940" transform="translate(0 2523)">
      <g id="Grupo_1225525" data-name="Grupo 1225525" transform="translate(209.5 -1187.069)">
        <g id="Grupo_1206132" data-name="Grupo 1206132" transform="translate(0 -58.931)">
          <g id="Grupo_1203794" data-name="Grupo 1203794" transform="translate(0 -4639.878)">
            <g id="Grupo_1203345" data-name="Grupo 1203345" transform="translate(338.92 5174.875)">
              <g id="Grupo_1177900" data-name="Grupo 1177900" transform="translate(281 1411.003)">
                <g id="Grupo_1172010" data-name="Grupo 1172010" transform="translate(0)">
                  <g id="Grupo_1171046" data-name="Grupo 1171046">
                    <g id="Grupo_1148525" data-name="Grupo 1148525">
                      <g transform="matrix(1, 0, 0, 1, -9, -6)" filter="url(#Trazado_982547)">
                        <g id="Trazado_982547-2" data-name="Trazado 982547" transform="translate(9 6)" fill="#e9f9fd">
                          <path d="M 44.0802001953125 86.660400390625 C 38.33124923706055 86.660400390625 32.75506210327148 85.53479766845703 27.50652503967285 83.31484985351562 C 22.43628692626953 81.17032623291016 17.88242530822754 78.09992218017578 13.97144985198975 74.18894958496094 C 10.06047534942627 70.27797698974609 6.99007511138916 65.72411346435547 4.845550060272217 60.65387344360352 C 2.625600099563599 55.40533828735352 1.500000238418579 49.82915115356445 1.500000238418579 44.0802001953125 C 1.500000238418579 38.33124923706055 2.625600099563599 32.75506210327148 4.845550060272217 27.50652503967285 C 6.99007511138916 22.43628692626953 10.06047534942627 17.88242530822754 13.97144985198975 13.97144985198975 C 17.88242530822754 10.06047534942627 22.43628692626953 6.99007511138916 27.50652503967285 4.845550060272217 C 32.75506210327148 2.625600099563599 38.33124923706055 1.500000238418579 44.0802001953125 1.500000238418579 C 49.82915115356445 1.500000238418579 55.40533828735352 2.625600099563599 60.65387344360352 4.845550060272217 C 65.72411346435547 6.99007511138916 70.27797698974609 10.06047534942627 74.18894958496094 13.97144985198975 C 78.09992218017578 17.88242530822754 81.17032623291016 22.43628692626953 83.31484985351562 27.50652503967285 C 85.53479766845703 32.75506210327148 86.660400390625 38.33124923706055 86.660400390625 44.0802001953125 C 86.660400390625 49.82915115356445 85.53479766845703 55.40533828735352 83.31484985351562 60.65387344360352 C 81.17032623291016 65.72411346435547 78.09992218017578 70.27797698974609 74.18894958496094 74.18894958496094 C 70.27797698974609 78.09992218017578 65.72411346435547 81.17032623291016 60.65387344360352 83.31484985351562 C 55.40533828735352 85.53479766845703 49.82915115356445 86.660400390625 44.0802001953125 86.660400390625 Z" stroke="none"/>
                          <path d="M 44.0802001953125 3 C 38.53308486938477 3 33.15349960327148 4.085746765136719 28.09085845947266 6.227058410644531 C 23.19941711425781 8.29595947265625 18.80581665039062 11.25841522216797 15.03211212158203 15.03211212158203 C 11.25841522216797 18.80581665039062 8.29595947265625 23.19941711425781 6.227058410644531 28.09085845947266 C 4.085746765136719 33.15349960327148 3 38.53308486938477 3 44.0802001953125 C 3 49.62731552124023 4.085746765136719 55.00691604614258 6.227058410644531 60.06954193115234 C 8.29595947265625 64.96098327636719 11.25841522216797 69.35458374023438 15.03211212158203 73.12828826904297 C 18.80581665039062 76.90198516845703 23.19941711425781 79.86444091796875 28.09085845947266 81.93334197998047 C 33.15349960327148 84.07466125488281 38.53308486938477 85.160400390625 44.0802001953125 85.160400390625 C 49.62731552124023 85.160400390625 55.00691604614258 84.07466125488281 60.06954193115234 81.93334197998047 C 64.96099853515625 79.86444091796875 69.35458374023438 76.90198516845703 73.12828826904297 73.12828826904297 C 76.90198516845703 69.35458374023438 79.86444091796875 64.96099853515625 81.93334197998047 60.06954193115234 C 84.07466125488281 55.00691604614258 85.160400390625 49.62731552124023 85.160400390625 44.0802001953125 C 85.160400390625 38.53308486938477 84.07466125488281 33.15349960327148 81.93334197998047 28.09085845947266 C 79.86444091796875 23.19941711425781 76.90198516845703 18.80581665039062 73.12828826904297 15.03211212158203 C 69.35458374023438 11.25841522216797 64.96098327636719 8.29595947265625 60.06954193115234 6.227058410644531 C 55.00691604614258 4.085746765136719 49.62731552124023 3 44.0802001953125 3 M 44.0802001953125 0 C 68.42502593994141 0 88.160400390625 19.73538970947266 88.160400390625 44.0802001953125 C 88.160400390625 68.42502593994141 68.42502593994141 88.160400390625 44.0802001953125 88.160400390625 C 19.73538970947266 88.160400390625 0 68.42502593994141 0 44.0802001953125 C 0 19.73538970947266 19.73538970947266 0 44.0802001953125 0 Z" stroke="none" fill="#1d7083"/>
                        </g>
                      </g>
                    </g>
                  </g>
                </g>
              </g>
            </g>
          </g>
        </g>
      </g>
    </g>
    <g id="factura" transform="translate(845.43 3216.549)">
      <g id="Grupo_1227703" data-name="Grupo 1227703" transform="translate(0.929 24.538)">
        <g id="Grupo_1227701" data-name="Grupo 1227701">
          <path id="Trazado_1183117" data-name="Trazado 1183117" d="M102.449,83.6a8.235,8.235,0,0,0,8.235-8.235V33.238a1.625,1.625,0,0,0-1.622-1.622h-35.1a1.625,1.625,0,0,0-1.622,1.622V83.6Z" transform="translate(-64.886 -31.616)" fill="#d8ecfe" fill-rule="evenodd"/>
          <path id="Trazado_1183118" data-name="Trazado 1183118" d="M385.245,80.855a8.2,8.2,0,0,0,2.1-5.488V33.236a1.625,1.625,0,0,0-1.622-1.622h-.475V80.855Z" transform="translate(-341.543 -31.614)" fill="#c4e2ff" fill-rule="evenodd"/>
          <path id="Trazado_1183119" data-name="Trazado 1183119" d="M7.991,389.622a8.235,8.235,0,0,0,8.235,8.235H45.555a8.235,8.235,0,0,1-8.235-8.235v-1.531a1.05,1.05,0,0,0-1.048-1.048H9.039a1.05,1.05,0,0,0-1.048,1.048v1.531Z" transform="translate(-7.991 -345.869)" fill="#c4e2ff" fill-rule="evenodd"/>
          <path id="Trazado_1183120" data-name="Trazado 1183120" d="M25.8,456.355a8.214,8.214,0,0,0,6.172,2.784H61.3a8.214,8.214,0,0,1-6.172-2.784Z" transform="translate(-23.735 -407.152)" fill="#add5fa" fill-rule="evenodd"/>
        </g>
        <g id="Grupo_1227702" data-name="Grupo 1227702" transform="translate(29.486 20.108)">
          <circle id="Elipse_12717" data-name="Elipse 12717" cx="11.584" cy="11.584" r="11.584" transform="translate(0 16.38) rotate(-45)" fill="#fe646f"/>
          <path id="Trazado_1183121" data-name="Trazado 1183121" d="M395.591,246.589a11.584,11.584,0,1,1,0,23.168c-.372,0-.74-.018-1.1-.053a11.584,11.584,0,0,0,0-23.063C394.851,246.607,395.219,246.589,395.591,246.589Z" transform="translate(-379.202 -241.794)" fill="#fd4755" fill-rule="evenodd"/>
        </g>
      </g>
      <path id="Trazado_1183122" data-name="Trazado 1183122" d="M51.517,54.515a.93.93,0,0,0-1.3.213L42.014,66.161a.926.926,0,1,0,1.5,1.082L51.73,55.809a.931.931,0,0,0-.213-1.294ZM43.14,57.9a1.264,1.264,0,1,1,.891-2.158A1.265,1.265,0,0,1,43.14,57.9Zm0,1.853a3.117,3.117,0,1,1,2.2-5.322,3.118,3.118,0,0,1-2.2,5.322Zm8.6,5.661a1.25,1.25,0,0,1-.372.893,1.236,1.236,0,0,1-.891.37,1.261,1.261,0,0,1-.9-.369,1.3,1.3,0,0,1-.372-.893,1.268,1.268,0,0,1,1.268-1.265,1.267,1.267,0,0,1,1.262,1.264Zm.94-2.2a3.118,3.118,0,1,1-5.322,2.206A3.123,3.123,0,0,1,50.468,62.3h.005A3.1,3.1,0,0,1,52.675,63.209Zm4.787-2.184A10.658,10.658,0,1,1,46.806,50.368,10.67,10.67,0,0,1,57.462,61.026Zm-34.71-2.472H34.539a12.392,12.392,0,0,1,1.18-3.325H22.752Zm-6.825-.337a.34.34,0,0,0,.333.337H20.9V55.229H15.927Zm0-4.841H20.9V50.051H15.927Zm0-5.178H20.9V44.873H15.927Zm4.973-8.5H16.261a.34.34,0,0,0-.333.336v2.989H20.9Zm16.918.336a.34.34,0,0,0-.333-.336H22.752v3.325H37.818Zm0,4.843H22.752V48.2H37.818Zm0,7.457V50.051H22.752v3.325H36.91A13.65,13.65,0,0,1,37.818,52.33ZM43.91,73.2A7.247,7.247,0,0,1,38.5,75.6H38.49a7.316,7.316,0,0,1-7.306-7.309V65.711a.926.926,0,0,0-.923-.927H9.31V25.464H45.8V48.555a12.447,12.447,0,0,0-6.131,2.2V40.03a2.188,2.188,0,0,0-2.186-2.189H16.261a2.192,2.192,0,0,0-2.186,2.189V58.216a2.193,2.193,0,0,0,2.186,2.191H34.309c-.011.2-.016.411-.016.619A12.534,12.534,0,0,0,43.91,73.2Zm-10.94,2.4a9.163,9.163,0,0,1-3.639-7.309V66.638H1.856V68.29A7.316,7.316,0,0,0,9.162,75.6ZM59.315,61.026A12.524,12.524,0,0,1,46.806,73.536q-.393,0-.787-.025a9.086,9.086,0,0,1-7.53,3.941H9.162A9.171,9.171,0,0,1,0,68.29V65.711a.926.926,0,0,1,.923-.927h6.53V24.538a.927.927,0,0,1,.923-.927H46.725a.928.928,0,0,1,.929.927V48.544A12.527,12.527,0,0,1,59.315,61.026ZM38.747,32.293H30.818a.927.927,0,1,0,0,1.853h7.929a.927.927,0,0,0,0-1.853Zm-15.77-2.668a.926.926,0,0,0,.923.927H38.747a.927.927,0,0,0,0-1.853H23.9A.926.926,0,0,0,22.976,29.626Z" transform="translate(0 0)" fill-rule="evenodd"/>
    </g>
  </g>
</svg>
