<svg xmlns="http://www.w3.org/2000/svg" xmlns:xlink="http://www.w3.org/1999/xlink" width="1328" height="429" viewBox="0 0 1328 429">
  <defs>
    <clipPath id="clip-path">
      <rect id="Rect치ngulo_422412" data-name="Rect치ngulo 422412" width="1328" height="429" transform="translate(136 1317)" fill="#fff" stroke="#707070" stroke-width="1"/>
    </clipPath>
    <clipPath id="clip-path-2">
      <rect id="Rect치ngulo_422411" data-name="Rect치ngulo 422411" width="1328" height="433" transform="translate(136 1097.783)" fill="#ecf2ff"/>
    </clipPath>
  </defs>
  <g id="Enmascarar_grupo_1211518" data-name="Enmascarar grupo 1211518" transform="translate(-136 -1317)" clip-path="url(#clip-path)">
    <g id="Grupo_1226944" data-name="Grupo 1226944" transform="translate(0 215.717)" opacity="0.86">
      <path id="Trazado_1181422" data-name="Trazado 1181422" d="M0,0H1328V433H0Z" transform="translate(136 1097.788)" fill="#7b776f"/>
      <g id="Enmascarar_grupo_1211517" data-name="Enmascarar grupo 1211517" clip-path="url(#clip-path-2)">
        <g id="Grupo_1226941" data-name="Grupo 1226941" transform="translate(19.008 1046.436)">
          <path id="Trazado_1181423" data-name="Trazado 1181423" d="M702.51,720.43c36.37,61.19,38.75,158.06-7.99,198.05-55.82,47.76-127.26-32.2-297.85-19.41-125.07,9.38-175.25,59-231.84,22.53-44.47-28.65-66.21-93.27-54.55-143.59C135.19,670.55,308.9,643.46,361.62,635.24,410.98,627.54,627.25,593.82,702.51,720.43Z" transform="translate(374 -412.546)" fill="#f6f3ef" opacity="0.16"/>
          <path id="Trazado_1181424" data-name="Trazado 1181424" d="M84.6,300.2C43.39,287.17-.43,244.98,0,208.93c.52-43.06,63.65-35.37,124.2-107.69C168.59,48.21,166.09,6.53,204.2.66c29.95-4.61,67,15.65,84.76,42.6,37.92,57.56-17.51,137.46-34.33,161.71-15.75,22.7-84.76,122.18-170.03,95.23Z" transform="translate(-2 101.224)" fill="#f6f3ef" opacity="0.21"/>
          <path id="Trazado_1181425" data-name="Trazado 1181425" d="M898.435,394.2c-32.318,50.8-104.539,99.679-152.529,92.6-57.309-8.46-24.188-88.495-98.833-179.657-54.729-66.844-111.292-71.16-105.342-121.372,4.689-39.459,45.165-83.577,87.592-101.6,90.6-38.5,177.219,47.445,203.515,73.526C857.456,182.109,965.308,289.1,898.42,394.2Z" transform="translate(695.713 -119.918)" fill="#f6f3ef" opacity="0.16"/>
        </g>
      </g>
      <g id="Grupo_1226943" data-name="Grupo 1226943" opacity="0.15">
        <path id="Trazado_1181426" data-name="Trazado 1181426" d="M177.84,719.46l-7.93,12.67h17.07Z" transform="translate(66.925 510.683)" fill="#914d86"/>
        <path id="Trazado_1181427" data-name="Trazado 1181427" d="M177.84,732.13l-7.93-12.67h17.07Z" transform="translate(1110.904 507.7)" fill="#914d86"/>
        <path id="Trazado_1181428" data-name="Trazado 1181428" d="M177.84,719.46l-7.93,12.67h17.07Z" transform="translate(1229.536 695.922)" fill="#914d86"/>
        <path id="Trazado_1181429" data-name="Trazado 1181429" d="M506.98,822.58l-9.85,15.72h21.18Z" transform="translate(-136.075 504.432)" fill="#914d86"/>
        <path id="Trazado_1181430" data-name="Trazado 1181430" d="M664.51,413.88l-20.56,32.83h44.22Z" transform="translate(601.18 933.66)" fill="#914d86"/>
        <path id="Trazado_1181431" data-name="Trazado 1181431" d="M364.15,863.69h-8.48v-8.48a1.65,1.65,0,1,0-3.3,0v8.48h-8.48a1.65,1.65,0,0,0,0,3.3h8.48v8.48a1.65,1.65,0,1,0,3.3,0v-8.48h8.48a1.65,1.65,0,0,0,0-3.3Z" transform="translate(-136.075 504.432)" fill="#914d86"/>
        <path id="Trazado_1181432" data-name="Trazado 1181432" d="M180.82,627.48h-9.96v-9.97a1.94,1.94,0,0,0-3.88,0v9.97h-9.96a1.94,1.94,0,0,0,0,3.88h9.96v9.96a1.94,1.94,0,0,0,3.88,0v-9.96h9.96a1.94,1.94,0,0,0,0-3.88Z" transform="translate(190.925 528.93)" fill="#914d86"/>
        <path id="Trazado_1181433" data-name="Trazado 1181433" d="M180.82,627.48h-9.96v-9.97a1.94,1.94,0,0,0-3.88,0v9.97h-9.96a1.94,1.94,0,0,0,0,3.88h9.96v9.96a1.94,1.94,0,0,0,3.88,0v-9.96h9.96a1.94,1.94,0,0,0,0-3.88Z" transform="translate(1229.536 695.922)" fill="#914d86"/>
        <g id="Grupo_1226942" data-name="Grupo 1226942" transform="translate(601.18 933.66)">
          <path id="Trazado_1181434" data-name="Trazado 1181434" d="M144.86,253.25l-4.04,6.44h8.68Z" fill="#914d86"/>
          <path id="Trazado_1181435" data-name="Trazado 1181435" d="M688.39,243.71l-4.03,6.44h8.68Z" fill="#914d86"/>
          <path id="Trazado_1181436" data-name="Trazado 1181436" d="M207.6,214.04H197.52V203.96a1.96,1.96,0,0,0-3.92,0v10.08H183.52a1.96,1.96,0,0,0,0,3.92H193.6v10.08a1.96,1.96,0,1,0,3.92,0V217.96H207.6a1.96,1.96,0,1,0,0-3.92Z" fill="#914d86"/>
          <path id="Trazado_1181437" data-name="Trazado 1181437" d="M687.86,165.41h-4.32v-4.32a.84.84,0,0,0-1.68,0v4.32h-4.32a.84.84,0,1,0,0,1.68h4.32v4.32a.84.84,0,0,0,1.68,0v-4.32h4.32a.84.84,0,1,0,0-1.68Z" fill="#914d86"/>
          <path id="Trazado_1181438" data-name="Trazado 1181438" d="M640.51,282.17h-7.16v-7.16a1.39,1.39,0,0,0-2.78,0v7.16h-7.16a1.39,1.39,0,0,0,0,2.78h7.16v7.16a1.39,1.39,0,0,0,2.78,0v-7.16h7.16a1.39,1.39,0,0,0,0-2.78Z" fill="#914d86"/>
          <path id="Trazado_1181439" data-name="Trazado 1181439" d="M148.93,159.64a3.77,3.77,0,1,1-3.77-3.77A3.773,3.773,0,0,1,148.93,159.64Z" transform="translate(-84 50)" fill="#914d86"/>
          <path id="Trazado_1181440" data-name="Trazado 1181440" d="M618.82,194a3.77,3.77,0,1,1-3.77-3.77A3.773,3.773,0,0,1,618.82,194Z" fill="#914d86"/>
          <path id="Trazado_1181441" data-name="Trazado 1181441" d="M246.77,166.25a3.77,3.77,0,1,1-3.77-3.77A3.773,3.773,0,0,1,246.77,166.25Z" transform="translate(61 43.39)" fill="#914d86"/>
        </g>
      </g>
    </g>
  </g>
</svg>
